<svg xmlns="http://www.w3.org/2000/svg" viewBox="0 0 300 300"><defs><style>.cls-1{fill:#5ca958;}.cls-2{fill:#fff;}</style></defs><g id="Layer_2" data-name="Layer 2"><g id="Layer_1-2" data-name="Layer 1"><circle class="cls-1" cx="150" cy="150" r="150"/><path class="cls-2" d="M131.52,195.23a83.58,83.58,0,0,1-25.56-4l-2.69-.86-.65-2.73a83.9,83.9,0,0,1,24.46-81h0a83.92,83.92,0,0,1,82.58-18.33l2.68.85.65,2.74a83.71,83.71,0,0,1-81.47,103.31Zm-19.79-12.7A73.74,73.74,0,0,0,203.88,97a73.91,73.91,0,0,0-70,17h0A73.91,73.91,0,0,0,111.73,182.53Z"/><path class="cls-2" d="M94.45,222l-9.56-2.94a128.51,128.51,0,0,1,71.24-79.87l4,9.15A118.52,118.52,0,0,0,94.45,222Z"/></g></g></svg>