<?xml version="1.0" encoding="utf-8"?>
<!-- Generator: Adobe Illustrator 20.1.0, SVG Export Plug-In . SVG Version: 6.00 Build 0)  -->
<svg version="1.1" xmlns="http://www.w3.org/2000/svg" xmlns:xlink="http://www.w3.org/1999/xlink" x="0px" y="0px"
	 viewBox="0 0 50 15" enable-background="new 0 0 50 15" xml:space="preserve">
<g id="logo-mobile">
	<g>
		<path fill="#ffffff" d="M7.846,1.161c-3.5,0-6.339,2.838-6.339,6.339c0,3.501,2.839,6.34,6.339,6.34c3.501,0,6.34-2.838,6.34-6.34
			C14.186,3.999,11.347,1.161,7.846,1.161z M8.018,4.144l3.172,0l-0.775,0.774c0,0,0.36,0.362,0.378,0.386
			C10.79,5.302,10.788,5.3,10.786,5.298c0.002,0.002,0.005,0.005,0.008,0.007c0.005,0.006,0.008,0.011,0.013,0.016
			c0.224,0.304,0.22,0.722-0.013,1.021c-0.022,0.027-0.044,0.054-0.069,0.079c-0.025,0.025-0.052,0.048-0.08,0.069L9.694,7.443
			L8.792,6.541l0,0v0L8.274,7.06c0,0.004,0,0.004-0.001,0L8.018,7.315V4.144z M7.677,4.144l0,3.171L6.902,6.541L6.001,7.443
			c0,0-1.08-1.073-1.101-1.101c-0.232-0.299-0.236-0.717-0.012-1.02c0.003-0.006,0.391-0.405,0.391-0.405L4.505,4.144L7.677,4.144z
			 M9.434,11.094c-0.026,0.009-0.051,0.019-0.077,0.027c-0.023,0.007-0.047,0.012-0.072,0.019c-0.01,0.002-0.019,0.005-0.028,0.007
			H9.256c-0.017,0.004-0.032,0.009-0.049,0.012c-0.028,0.005-0.108,0.017-0.121,0.018c-0.003,0-0.006,0.001-0.009,0.001
			c-0.008,0.001-0.017,0.002-0.025,0.003C9,11.187,8.896,11.19,8.896,11.19h0l-2.184,0l-0.002,0l-0.002,0
			c-0.425,0-0.81-0.168-1.096-0.44L4.796,9.932l-0.01-0.01C4.501,9.636,4.325,9.241,4.324,8.805c0-0.001,0-0.002,0-0.004
			c0-0.001,0-0.002,0-0.004V6.618c0,0,0.004-0.12,0.011-0.177c0.001-0.008,0.002-0.016,0.004-0.023
			c0.006-0.052,0.016-0.104,0.027-0.155c0-0.002,0.001-0.004,0.002-0.006v0c0.018-0.076,0.042-0.15,0.07-0.224
			C4.47,6.211,4.544,6.381,4.659,6.529c0.003,0.006,0.009,0.012,0.039,0.043C4.7,6.575,4.701,6.578,4.703,6.581
			c0.01,0.014,0.017,0.028,0.027,0.041l0.127,0.127c0,0,4.062,4.052,4.075,4.062l0,0c0.005,0.004,0.011,0.008,0.017,0.012
			c0.025,0.024,0.031,0.029,0.036,0.032c0.148,0.115,0.319,0.189,0.495,0.222C9.465,11.083,9.449,11.089,9.434,11.094z M11.37,8.803
			c0,0.431-0.172,0.822-0.45,1.108c0,0-0.803,0.741-0.868,0.799c-0.284,0.134-0.625,0.102-0.879-0.096
			c-0.029-0.021-1.101-1.101-1.101-1.101l2.891-2.891c0.007-0.009,0.012-0.019,0.019-0.028c0.017-0.02,0.036-0.04,0.053-0.063
			c0.116-0.149,0.191-0.321,0.223-0.499c0.006,0.016,0.012,0.032,0.019,0.048c0.008,0.025,0.018,0.05,0.026,0.076
			c0.007,0.024,0.012,0.049,0.019,0.073c0.002,0.01,0.005,0.019,0.007,0.029v0c0.001,0.001,0.001,0.002,0.001,0.004
			c0.004,0.015,0.007,0.03,0.011,0.045c0.006,0.029,0.009,0.058,0.013,0.088c0.002,0.012,0.004,0.023,0.006,0.035
			c0.001,0.002,0.001,0.005,0.001,0.007c0.001,0.008,0.002,0.016,0.002,0.024c0.006,0.052,0.009,0.104,0.009,0.158
			C11.37,6.619,11.37,8.495,11.37,8.803z"/>
		<path fill="#ffffff" d="M22.893,6.569v-0.02c0-0.695-0.211-1.238-0.625-1.641c-0.472-0.483-1.217-0.765-2.294-0.765h-3.332v7.047
			h1.953V9.056h0.836h0.02l1.419,2.134h2.255l-1.681-2.457C22.32,8.361,22.893,7.646,22.893,6.569z M20.929,6.69
			c0,0.514-0.382,0.836-1.046,0.836h-1.289V5.834h1.279c0.654,0,1.056,0.282,1.056,0.836V6.69z"/>
		<path fill="#ffffff" d="M25.893,5.623c-1.61,0-2.748,1.258-2.748,2.849v0.02c0,1.692,1.208,2.829,2.919,2.829
			c1.087,0,1.842-0.443,2.366-1.107l-1.058-0.876c-0.392,0.383-0.755,0.553-1.207,0.553c-0.595,0-1.027-0.302-1.178-0.896h3.644
			c0.01-0.131,0.01-0.272,0.01-0.392C28.641,7.002,27.776,5.623,25.893,5.623z M24.957,8.019c0.101-0.594,0.443-0.987,0.946-0.987
			c0.524,0,0.876,0.383,0.947,0.987H24.957z"/>
		<polygon fill="#ffffff" points="29.266,11.19 31.219,11.19 31.219,8.673 34.551,8.673 34.551,7.053 31.219,7.053 31.219,5.854 
			34.903,5.854 34.903,4.143 29.266,4.143 		"/>
		<polygon fill="#ffffff" points="37.42,8.411 40.802,8.411 40.802,6.871 37.42,6.871 37.42,5.804 41.155,5.804 41.155,4.143 
			35.487,4.143 35.487,11.19 41.204,11.19 41.204,9.529 37.42,9.529 		"/>
		<path fill="#ffffff" d="M44.517,4.143h-2.718v7.047h2.677c2.537,0,4.017-1.51,4.017-3.544v-0.02
			C48.493,5.593,47.033,4.143,44.517,4.143z M46.49,7.676c0,1.137-0.775,1.782-1.943,1.782h-0.795V5.875h0.795
			c1.168,0,1.943,0.654,1.943,1.782V7.676z"/>
	</g>
</g>
</svg>
