<?xml version="1.0" encoding="utf-8"?>
<svg version="1.1" xmlns="http://www.w3.org/2000/svg" xmlns:xlink="http://www.w3.org/1999/xlink" x="0px" y="0px"
   viewBox="0 0 986.752 188.916" enable-background="new 0 0 986.752 188.916" xml:space="preserve">
  <g class="refed_graph">
    <rect x="570.896" y="148.262" fill="#E9AE6C" width="406.98" height="32.174"/>
    <rect x="173.606" y="148.262" fill="#DC8650" width="397.29" height="32.174"/>
    <rect x="163.916" y="148.262" fill="#C22E33" width="9.69" height="32.174"/>
    <rect x="8.877" y="148.262" fill="#922A46" width="155.04" height="32.174"/>
      <polygon opacity="0.3" fill="#922A46" points="8.877,148.262 8.877,131.974 109.109,131.974 163.916,148.262     "/>
      <polygon opacity="0.3" fill="#D13239" points="163.916,148.262 173.606,148.262 235.828,131.974 135.596,131.974     "/>
      <polygon opacity="0.3" fill="#D3663B" points="173.606,148.262 322.135,131.974 422.367,131.974 570.896,148.262     "/>
      <polygon opacity="0.3" fill="#E9AE6C" points="570.896,148.262 723.157,131.974 823.389,131.974 977.876,148.262     "/>
      <rect x="8.877" y="8.481" opacity="0.15" fill="#922A46" width="100.232" height="123.493"/>
      <rect x="135.596" y="8.481" opacity="0.15" fill="#D13239" width="100.232" height="123.493"/>
      <rect x="322.135" y="8.481" opacity="0.15" fill="#D3663B" width="100.232" height="123.493"/>
      <rect x="723.157" y="8.481" opacity="0.15" fill="#E9AE6C" width="100.232" height="123.493"/>
      <g class="icon-barn">
        <polygon fill="#751E32" points="34.994,43.488 58.975,31.939 82.988,43.488 88.738,68.743 97.492,68.743 90.398,37.579 
          58.972,22.466 27.587,37.582 20.493,68.651 20.493,68.743 29.231,68.743         "/>
        <polygon fill="#922A46" points="43.543,67.191 45.94,67.191 58.984,67.191 58.981,61.547 45.937,61.547 43.54,61.547 
          43.54,59.15 43.54,51.308 43.54,48.91 45.937,48.91 58.978,48.91 58.975,31.939 34.994,43.488 29.231,68.743 43.543,68.743        
          "/>
        <rect x="45.937" y="51.308" fill="#922A46" width="11.855" height="7.842"/>
        <polygon fill="#922A46" points="45.94,71.156 45.94,90.244 57.145,80.701         "/>
        <polygon fill="#922A46" points="47.789,91.815 58.991,91.815 58.987,82.279         "/>
        <polygon fill="#922A46" points="43.543,68.743 29.231,68.743 29.032,69.616 29.013,91.815 43.543,91.815 43.543,69.585         "/>
        <polygon fill="#922A46" points="47.789,69.585 58.987,79.121 58.984,69.585         "/>
        <polygon fill="#751E32" points="58.975,31.939 58.978,48.91 72.044,48.91 74.438,48.91 74.438,51.308 74.438,59.15 
          74.438,61.547 72.044,61.547 58.981,61.547 58.984,67.191 72.047,67.191 74.442,67.191 74.442,68.743 88.738,68.743 
          82.988,43.488         "/>
        <rect x="60.189" y="51.308" fill="#751E32" width="11.855" height="7.842"/>
        <polygon fill="#751E32" points="58.987,82.279 58.991,91.815 70.199,91.815 58.994,82.272         "/>
        <polygon fill="#751E32" points="72.047,90.244 72.047,71.156 60.842,80.701         "/>
        <polygon fill="#751E32" points="58.987,79.121 58.994,79.127 70.199,69.585 58.984,69.585         "/>
        <polygon fill="#751E32" points="74.442,69.585 74.442,91.815 88.972,91.815 88.972,69.774 88.738,68.743 74.442,68.743         "/>
        <polygon fill="#641326" points="58.975,31.939 82.988,43.488 88.738,68.743 97.492,68.743 90.398,37.579 58.972,22.466         "/>
      </g>
      <g class="icon-manufacturing">
        <polygon fill="none" points="340.611,91.815 340.611,57.454 340.611,52.298 340.611,49.861 340.611,89.378 383.373,91.815 
          383.373,91.815        "/>
        <polygon fill="none" points="397.919,91.815 385.809,91.815 385.809,91.815 397.919,91.815 397.919,91.815         "/>
        <rect x="400.355" y="91.815" fill="none" width="3.536" height="0"/>
        <rect x="377.254" y="64.488" fill="#858688" width="0" height="17.758"/>
        <path fill="#D3663B" d="M340.611,57.454v34.36h42.761V64.488v-2.437h2.437h12.109h2.437v2.437v27.327h3.536v-34.36H340.611z
           M379.69,64.488v17.758v2.437h-2.437h-30.505h-2.437v-2.437V64.488v-2.437h2.437h30.505h2.437V64.488z"/>
        <rect x="397.919" y="64.488" fill="#D3663B" width="0" height="27.327"/>
        <polygon fill="#F7F4EE" points="346.004,49.861 346.004,49.861 345.991,49.922        "/>
        <polygon fill="#F7F4EE" points="398.499,49.861 398.499,49.861 398.511,49.922        "/>
        <rect x="403.891" y="57.454" fill="#F7F4EE" width="0" height="34.36"/>
        <rect x="385.809" y="64.488" fill="#D3663B" width="12.109" height="27.327"/>
        <rect x="399.137" y="90.596" fill="#F7F4EE" width="0" height="2.437"/>
        <rect x="383.373" y="91.815" fill="#F7F4EE" width="2.437" height="0"/>
        <rect x="346.748" y="64.488" fill="#F1EDE4" width="30.505" height="17.758"/>
        <path fill="#F7F4EE" d="M346.748,62.051h-2.437v2.437v17.758v2.437h2.437h30.505h2.437v-2.437V64.488v-2.437h-2.437H346.748z
           M377.254,82.246L377.254,82.246h-30.505V64.488h30.505l0,0V82.246z"/>
        <rect x="340.611" y="52.298" fill="#C05D34" width="63.28" height="5.157"/>
        <rect x="403.891" y="52.298" fill="#747677" width="0" height="5.157"/>
        <polygon fill="#E7786F" points="356.885,49.922 356.892,49.861 346.004,49.861 345.991,49.922         "/>
        <polygon fill="#D13239" points="356.892,49.861 356.885,49.922 367.733,49.922 367.733,49.861         "/>
        <polygon fill="#D13239" points="346.004,49.861 340.611,49.861 338.175,49.861 338.175,49.922 345.991,49.922        "/>
        <polygon fill="#E7786F" points="387.618,49.922 398.511,49.922 398.499,49.861 387.61,49.861        "/>
        <polygon fill="#D13239" points="376.77,49.861 376.77,49.922 387.618,49.922 387.61,49.861        "/>
        <polygon fill="#D13239" points="406.328,49.922 406.328,49.861 403.891,49.861 398.499,49.861 398.511,49.922        "/>
        <rect x="367.733" y="49.861" fill="#E7786F" width="9.037" height="0.061"/>
        <rect x="340.611" y="31.337" fill="#D3663B" width="63.28" height="5.285"/>
        <polygon fill="#F1EDE4" points="358.693,36.445 349.633,36.445 346.004,52.503 356.892,52.503         "/>
        <polygon fill="#D13239" points="367.733,52.503 367.733,36.445 358.693,36.445 356.892,52.503         "/>
        <polygon fill="#D13239" points="340.611,52.503 346.004,52.503 349.631,36.445 340.591,36.445 335.054,52.564 338.175,52.564 
          338.175,52.503        "/>
        <polygon fill="#F1EDE4" points="398.499,52.503 394.869,36.445 385.809,36.445 387.61,52.503        "/>
        <polygon fill="#D13239" points="387.61,52.503 385.809,36.445 376.77,36.445 376.77,52.503        "/>
        <polygon fill="#D13239" points="406.328,52.503 406.328,52.564 409.448,52.564 403.911,36.445 394.872,36.445 398.499,52.503 
          403.891,52.503        "/>
        <rect x="367.733" y="36.445" fill="#F1EDE4" width="9.037" height="16.058"/>
        <polygon opacity="0.2" fill="#555759" points="372.251,91.754 403.891,91.815 403.891,52.297 409.448,52.564 403.891,36.622 
          403.891,31.277 372.251,31.277         "/>
      </g>
      <g class="icon-retail">
        <polygon fill="#E9AE6C" points="774.387,30.781 745.006,55.041 745.006,91.815 803.766,91.815 803.766,55.041        "/>
        <g>
          <g>
            <rect x="748.684" y="60.078" fill="#F1EDE4" width="11.092" height="10.012"/>
            <path fill="#CF9C61" d="M760.888,71.201h-13.312V58.967h13.312V71.201z M749.796,68.979h8.872v-7.792h-8.872V68.979z"/>
          </g>
          <g>
            <rect x="759.776" y="60.078" fill="#F1EDE4" width="11.094" height="10.012"/>
            <path fill="#CF9C61" d="M771.979,71.201h-13.312V58.967h13.312V71.201z M760.888,68.979h8.872v-7.792h-8.872V68.979z"/>
          </g>
          <g>
            <rect x="748.684" y="70.09" fill="#F1EDE4" width="11.092" height="10.014"/>
            <path fill="#CF9C61" d="M760.888,81.213h-13.312V68.979h13.312V81.213z M749.796,78.993h8.872v-7.792h-8.872V78.993z"/>
          </g>
          <g>
            <rect x="759.776" y="70.09" fill="#F1EDE4" width="11.094" height="10.014"/>
            <path fill="#CF9C61" d="M771.979,81.213h-13.312V68.979h13.312V81.213z M760.888,78.993h8.872v-7.792h-8.872V78.993z"/>
          </g>
        </g>
        <polygon fill="#CF9C61" points="774.387,30.781 774.549,91.815 803.766,91.815 803.766,55.041         "/>
        <polygon fill="#C28F5B" points="745.006,55.041 774.387,30.781 803.766,55.041 803.766,55.077 811.719,55.077 774.387,24.249 
          737.052,55.077 745.006,55.077         "/>
        <rect x="781.942" y="60.078" fill="#C28F5B" width="16.787" height="31.737"/>
      </g>
      <g class="icon-consumer">
        <path fill="#D13239" d="M152.235,91.815h67.752l-4.484-67.301h-8.871l-3.149,34.765c-0.021,0.255-16.723-5.972-16.723-5.972
          v6.345c0,0.271-17.263-6.329-17.263-6.329v6.329c0,0.271-17.263-6.329-17.263-6.329V91.815z"/>
        <path fill="#A62C31" d="M157.99,83.009h8.016V69.262h-8.016V83.009z"/>
        <path fill="#A62C31" d="M173.37,83.009h8.016V69.262h-8.016V83.009z"/>
        <path fill="#A62C31" d="M188.749,83.009h8.019V69.262h-8.019V83.009z"/>
        <path fill="#A62C31" d="M204.129,83.009h8.019V69.262h-8.019V83.009z"/>
        <polygon fill="#A62C31" points="211.115,24.514 211.115,62.004 218.169,64.523 215.504,24.514       "/>
      </g>
  </g>
</svg>
