<?xml version="1.0" encoding="utf-8"?>
<!-- Generator: Adobe Illustrator 19.1.0, SVG Export Plug-In . SVG Version: 6.00 Build 0)  -->
<svg version="1.1" id="Layer_1" xmlns="http://www.w3.org/2000/svg" xmlns:xlink="http://www.w3.org/1999/xlink" x="0px" y="0px"
	 viewBox="140 69.5 999.8 403.5" style="enable-background:new 140 69.5 999.8 403.5;" xml:space="preserve">
<style type="text/css">
	.st0{fill:#555759;}
	.st1{font-family:'TradeGothic-CondEighteen';}
	.st2{font-size:20.7944px;}
	.st3{fill:#88A65B;}
	.st4{fill:#2A8175;}
	.st5{fill:#225577;}
	.st6{fill:none;stroke:#555759;stroke-width:0.382;stroke-miterlimit:10;}
	.st7{fill:none;}
	.st8{font-family:'ProximaNova-Regular';}
	.st9{font-size:24px;}
	.st10{font-family:'ProximaNova-Bold';}
	.st11{font-size:32.6768px;}
	.st12{font-size:20.1216px;}
	.st13{display:none;}
</style>
<g id="bottom">
	<g>
		<g>
			<g>
				<text transform="matrix(1.1321 0 0 1 402.4312 461.2381)" class="st0 st1 st2">0</text>
				<text transform="matrix(1.1321 0 0 1 541.5352 462.2098)" class="st0 st1 st2">2</text>
				<text transform="matrix(1.1321 0 0 1 686.1855 462.2098)" class="st0 st1 st2">4</text>
				<text transform="matrix(1.1321 0 0 1 830.8398 462.2098)" class="st0 st1 st2">6</text>
				<text transform="matrix(1.1321 0 0 1 975.4922 462.2098)" class="st0 st1 st2">8</text>
				<text transform="matrix(1.1321 0 0 1 1114.8008 462.2098)" class="st0 st1 st2">10</text>
			</g>
		</g>
		<g>
			<g>
				<rect x="527.3" y="346.3" class="st3" width="73" height="50.3"/>
			</g>
		</g>
		<rect x="819.2" y="172.2" class="st3" width="51.1" height="50.3"/>
		<rect x="921.4" y="259.3" class="st3" width="65.7" height="50.3"/>
		<rect x="417.8" y="346.3" class="st4" width="109.5" height="50.3"/>
		<rect x="395.9" y="172.2" class="st5" width="423.3" height="50.3"/>
		<rect x="395.9" y="259.3" class="st4" width="525.4" height="50.3"/>
		<rect x="395.9" y="346.3" class="st5" width="21.9" height="50.3"/>
		<g>
			<g>
				<line class="st6" x1="395.9" y1="473" x2="395.9" y2="144.2"/>
				<line class="st6" x1="541.9" y1="434.1" x2="541.9" y2="421.8"/>
				<line class="st6" x1="687.8" y1="434.1" x2="687.8" y2="421.8"/>
				<line class="st6" x1="833.8" y1="434.1" x2="833.8" y2="421.8"/>
				<line class="st6" x1="979.7" y1="434.1" x2="979.7" y2="421.8"/>
				<line class="st6" x1="1125.7" y1="434.1" x2="1125.7" y2="86.7"/>
			</g>
		</g>
		<g>
			<rect x="166.2" y="187" class="st7" width="217.8" height="209.6"/>
			<text transform="matrix(0.9989 0 0 1 291.6372 203.0218)" class="st0 st8 st9">Private</text>
			<text transform="matrix(0.9989 0 0 1 225.23 289.8255)" class="st0 st8 st9">Government</text>
			<text transform="matrix(0.9989 0 0 1 204.6367 376.6287)" class="st0 st8 st9">Philanthropic</text>
		</g>
		<g>
			<text transform="matrix(1 0 0 1 886.1849 206.2716)" class="st0 st10 st11">$6.6B</text>
		</g>
		<g>
			<text transform="matrix(1 0 0 1 1006.7777 293.3255)" class="st0 st10 st11">$8.2B</text>
		</g>
		<g>
			<text transform="matrix(1 0 0 1 613.8314 380.384)" class="st0 st10 st11">$3B</text>
		</g>
		<polyline class="st6" points="1125.7,144.2 159,144.2 159,421.8 1125.7,421.8 		"/>
		<g>
			<text transform="matrix(1 0 0 1 515.9271 121.7404)" class="st0 st8 st12">Prevention</text>
		</g>
		<g>
			<text transform="matrix(1 0 0 1 741.0873 121.7384)" class="st0 st8 st12">Recovery</text>
		</g>
		<g>
			<text transform="matrix(1 0 0 1 952.9486 121.7384)" class="st0 st8 st12">Recycling</text>
		</g>
		<rect x="473.2" y="103" class="st5" width="27.7" height="26.2"/>
		<rect x="696.8" y="103" class="st4" width="27.7" height="26.2"/>
		<rect x="908.7" y="103" class="st3" width="27.7" height="26.2"/>
		<g>
			<text transform="matrix(1 0 0 1 216.1888 121.7384)" class="st0 st8 st12">CAPITAL SOURCE</text>
		</g>
		<rect x="159" y="86.7" class="st6" width="236.9" height="57.4"/>
		<rect x="395.9" y="86.7" class="st6" width="729.8" height="57.4"/>
		<g>
			<text transform="matrix(1 0 0 1 343.517 461.23)" class="st0 st8 st12">($B)</text>
		</g>
	</g>
</g>
<g id="pie_layer">
</g>
<g id="Pie_Layer_2" class="st13">
</g>
<g id="meals_saved" class="st13">
</g>
<g id="consumer_ed_hover" class="st13">
</g>
<g id="pop_up" class="st13">
</g>
<g id="Layer_2">
</g>
<g id="Layer_8">
</g>
</svg>
