<?xml version="1.0" encoding="utf-8"?>
<!-- Generator: Adobe Illustrator 19.1.0, SVG Export Plug-In . SVG Version: 6.00 Build 0)  -->
<svg version="1.1" xmlns="http://www.w3.org/2000/svg" xmlns:xlink="http://www.w3.org/1999/xlink" x="0px" y="0px"
	 viewBox="0 0 999.772 403.549" enable-background="new 0 0 999.772 403.549" xml:space="preserve">
<g id="bottom">
	<g>
		<g>
			<g>
				
					<text transform="matrix(1.1321 0 0 1 262.431 391.7874)" fill="#555759" font-family="'TradeGothic-CondEighteen'" font-size="20.7944px">0</text>
				
					<text transform="matrix(1.1321 0 0 1 401.5345 392.7591)" fill="#555759" font-family="'TradeGothic-CondEighteen'" font-size="20.7944px">2</text>
				
					<text transform="matrix(1.1321 0 0 1 546.1849 392.7591)" fill="#555759" font-family="'TradeGothic-CondEighteen'" font-size="20.7944px">4</text>
				
					<text transform="matrix(1.1321 0 0 1 690.8392 392.7591)" fill="#555759" font-family="'TradeGothic-CondEighteen'" font-size="20.7944px">6</text>
				
					<text transform="matrix(1.1321 0 0 1 835.4916 392.7591)" fill="#555759" font-family="'TradeGothic-CondEighteen'" font-size="20.7944px">8</text>
				
					<text transform="matrix(1.1321 0 0 1 974.8002 392.7591)" fill="#555759" font-family="'TradeGothic-CondEighteen'" font-size="20.7944px">10</text>
			</g>
		</g>
		<g>
			<g>
				<rect x="387.269" y="276.886" fill="#88A65B" width="72.978" height="50.272"/>
			</g>
		</g>
		<rect x="679.183" y="102.774" fill="#88A65B" width="51.085" height="50.272"/>
		<rect x="781.352" y="189.83" fill="#88A65B" width="65.68" height="50.272"/>
		<rect x="277.802" y="276.886" fill="#2A8175" width="109.467" height="50.272"/>
		<rect x="255.908" y="102.774" fill="#225577" width="423.274" height="50.272"/>
		<rect x="255.908" y="189.83" fill="#2A8175" width="525.444" height="50.272"/>
		<rect x="255.908" y="276.886" fill="#225577" width="21.893" height="50.272"/>
		<g>
			<g>
				
					<line fill="none" stroke="#555759" stroke-width="0.382" stroke-miterlimit="10" x1="255.908" y1="403.549" x2="255.908" y2="74.725"/>
				
					<line fill="none" stroke="#555759" stroke-width="0.382" stroke-miterlimit="10" x1="401.865" y1="364.631" x2="401.865" y2="352.385"/>
				
					<line fill="none" stroke="#555759" stroke-width="0.382" stroke-miterlimit="10" x1="547.822" y1="364.631" x2="547.822" y2="352.385"/>
				
					<line fill="none" stroke="#555759" stroke-width="0.382" stroke-miterlimit="10" x1="693.778" y1="364.631" x2="693.778" y2="352.385"/>
				
					<line fill="none" stroke="#555759" stroke-width="0.382" stroke-miterlimit="10" x1="839.735" y1="364.631" x2="839.735" y2="352.385"/>
				
					<line fill="none" stroke="#555759" stroke-width="0.382" stroke-miterlimit="10" x1="985.692" y1="364.631" x2="985.692" y2="17.293"/>
			</g>
		</g>
		<g>
			<rect x="26.18" y="117.563" fill="none" width="217.846" height="209.595"/>
			<text transform="matrix(0.9989 0 0 1 151.6371 133.5706)"><tspan x="0" y="0" fill="#555759" font-family="'ProximaNova-Regular'" font-size="24px">Private</tspan><tspan x="-66.48" y="86.804" fill="#555759" font-family="'ProximaNova-Regular'" font-size="24px">Government</tspan><tspan x="-87.096" y="173.607" fill="#555759" font-family="'ProximaNova-Regular'" font-size="24px">Philanthropic</tspan></text>
		</g>
		<g>
			<text transform="matrix(1 0 0 1 746.1849 136.8206)" fill="#555759" font-family="'ProximaNova-Bold'" font-size="32.6768px">$6.5b</text>
		</g>
		<g>
			<text transform="matrix(1 0 0 1 866.7777 223.8745)" fill="#555759" font-family="'ProximaNova-Bold'" font-size="32.6768px">$8.1b</text>
		</g>
		<g>
			<text transform="matrix(1 0 0 1 473.8314 310.933)" fill="#555759" font-family="'ProximaNova-Bold'" font-size="32.6768px">$2.9b</text>
		</g>
		<polyline fill="none" stroke="#555759" stroke-width="0.382" stroke-miterlimit="10" points="985.692,74.725 19.02,74.725 
			19.02,352.385 985.692,352.385 		"/>
		<g>
			<text transform="matrix(1 0 0 1 375.9271 52.2894)" fill="#555759" font-family="'ProximaNova-Regular'" font-size="20.1216px">Prevention</text>
		</g>
		<g>
			<text transform="matrix(1 0 0 1 601.0873 52.2874)" fill="#555759" font-family="'ProximaNova-Regular'" font-size="20.1216px">Recovery</text>
		</g>
		<g>
			<text transform="matrix(1 0 0 1 812.9486 52.2874)" fill="#555759" font-family="'ProximaNova-Regular'" font-size="20.1216px">Recycling</text>
		</g>
		<rect x="333.209" y="33.529" fill="#225577" width="27.706" height="26.221"/>
		<rect x="556.809" y="33.529" fill="#2A8175" width="27.706" height="26.221"/>
		<rect x="768.672" y="33.529" fill="#88A65B" width="27.706" height="26.221"/>
		<g>
			<text transform="matrix(1 0 0 1 76.1888 52.2874)" fill="#555759" font-family="'ProximaNova-Regular'" font-size="20.1216px">capital source</text>
		</g>
		
			<rect x="19.02" y="17.293" fill="none" stroke="#555759" stroke-width="0.382" stroke-miterlimit="10" width="236.888" height="57.432"/>
		
			<rect x="255.908" y="17.293" fill="none" stroke="#555759" stroke-width="0.382" stroke-miterlimit="10" width="729.783" height="57.432"/>
		<g>
			<text transform="matrix(1 0 0 1 203.517 391.779)" fill="#555759" font-family="'ProximaNova-Regular'" font-size="20.1216px">($B)</text>
		</g>
	</g>
</g>
<g id="pie_layer">
</g>
<g id="Pie_Layer_2" display="none">
</g>
<g id="meals_saved" display="none">
</g>
<g id="consumer_ed_hover" display="none">
</g>
<g id="pop_up" display="none">
</g>
<g id="Layer_2">
</g>
<g id="Layer_8">
</g>
</svg>
