<?xml version="1.0" encoding="utf-8"?>
<!-- Generator: Adobe Illustrator 19.1.0, SVG Export Plug-In . SVG Version: 6.00 Build 0)  -->
<svg version="1.1" xmlns="http://www.w3.org/2000/svg" xmlns:xlink="http://www.w3.org/1999/xlink" x="0px" y="0px"
	 viewBox="0 0 468.602 427.941" enable-background="new 0 0 468.602 427.941" xml:space="preserve">
<g id="bottom">
	<g>
		<g>
			<g>
				<rect x="438.494" y="412.091" fill="#78BEB5" width="30.108" height="3.65"/>
			</g>
		</g>
		<g>
			<g>
				<rect x="399.768" y="407.114" fill="#78BEB5" width="30.108" height="8.626"/>
			</g>
		</g>
		<g>
			<g>
				<rect x="361.042" y="403.464" fill="#78BEB5" width="30.108" height="12.276"/>
			</g>
		</g>
		<g>
			<g>
				<rect x="322.315" y="399.815" fill="#78BEB5" width="30.108" height="15.926"/>
			</g>
		</g>
		<g>
			<g>
				<rect x="283.589" y="385.216" fill="#78BEB5" width="30.108" height="30.525"/>
			</g>
		</g>
		<g>
			<g>
				<rect x="244.863" y="378.248" fill="#78BEB5" width="30.108" height="37.492"/>
			</g>
		</g>
		<g>
			<g>
				<rect x="206.137" y="376.258" fill="#78BEB5" width="30.108" height="39.483"/>
			</g>
		</g>
		<g>
			<g>
				<rect x="167.41" y="365.972" fill="#78BEB5" width="30.108" height="49.768"/>
			</g>
		</g>
		<g>
			<g>
				<rect x="128.684" y="342.083" fill="#78BEB5" width="30.108" height="73.657"/>
			</g>
		</g>
		<g>
			<g>
				<rect x="89.958" y="314.213" fill="#78BEB5" width="30.108" height="101.527"/>
			</g>
		</g>
		<g>
			<g>
				<rect x="51.231" y="64.377" fill="#78BEB5" width="30.108" height="351.364"/>
			</g>
		</g>
	</g>
	<g>
		<g>
			<g>
				
					<text transform="matrix(0.9989 0 0 1 29.5731 415.74)" fill="#4D4D4D" font-family="'TradeGothic-CondEighteen'" font-size="14.2826px" letter-spacing="1.001">$0</text>
				
					<text transform="matrix(0.9989 0 0 1 10.3144 17.5945)" fill="#4D4D4D" font-family="'TradeGothic-CondEighteen'" font-size="14.2826px" letter-spacing="1.001">$1.2k</text>
			</g>
		</g>
		<g opacity="0.25">
			<g>
				<line fill="none" stroke="#000000" stroke-miterlimit="10" x1="468.602" y1="415.74" x2="51.231" y2="415.74"/>
				<line fill="none" stroke="#000000" stroke-miterlimit="10" x1="468.602" y1="349.383" x2="51.231" y2="349.383"/>
				<line fill="none" stroke="#000000" stroke-miterlimit="10" x1="468.602" y1="283.025" x2="51.231" y2="283.025"/>
				<line fill="none" stroke="#000000" stroke-miterlimit="10" x1="468.602" y1="216.668" x2="51.231" y2="216.668"/>
				<line fill="none" stroke="#000000" stroke-miterlimit="10" x1="468.602" y1="150.31" x2="51.231" y2="150.31"/>
				<line fill="none" stroke="#000000" stroke-miterlimit="10" x1="468.602" y1="83.952" x2="51.231" y2="83.952"/>
				<line fill="none" stroke="#000000" stroke-miterlimit="10" x1="468.602" y1="17.595" x2="51.231" y2="17.595"/>
			</g>
		</g>
	</g>
	<text transform="matrix(0 -0.9989 1 0 69.8972 405.74)" opacity="0.5"><tspan x="0" y="0" fill="#565859" font-family="'TradeGothic-CondEighteen'" font-size="13px" letter-spacing="1.001">Waste Tracking &amp; Analytics</tspan><tspan x="0" y="38.752" fill="#565859" font-family="'TradeGothic-CondEighteen'" font-size="13px" letter-spacing="1.001">Smaller Plates</tspan><tspan x="0" y="77.505" fill="#565859" font-family="'TradeGothic-CondEighteen'" font-size="13px" letter-spacing="1.001">Produce Specifications</tspan><tspan x="0" y="116.257" fill="#565859" font-family="'TradeGothic-CondEighteen'" font-size="13px" letter-spacing="1.001">Trayless Dining</tspan><tspan x="0" y="155.009" fill="#565859" font-family="'TradeGothic-CondEighteen'" font-size="13px" letter-spacing="1.001">Secondary Resellers</tspan><tspan x="0" y="193.762" fill="#565859" font-family="'TradeGothic-CondEighteen'" font-size="13px" letter-spacing="1.001">Spoilage Prevention Packaging</tspan><tspan x="0" y="232.514" fill="#565859" font-family="'TradeGothic-CondEighteen'" font-size="13px" letter-spacing="1.001">Inventory Management</tspan><tspan x="0" y="271.266" fill="#565859" font-family="'TradeGothic-CondEighteen'" font-size="13px" letter-spacing="1.001">Centralized Composting</tspan><tspan x="0" y="310.019" fill="#565859" font-family="'TradeGothic-CondEighteen'" font-size="13px" letter-spacing="1.001">Centralized Anaerobic Digestion (AD)</tspan><tspan x="0" y="348.771" fill="#565859" font-family="'TradeGothic-CondEighteen'" font-size="13px" letter-spacing="1.001">Cold Chain Management</tspan><tspan x="0" y="387.523" fill="#565859" font-family="'TradeGothic-CondEighteen'" font-size="13px" letter-spacing="1.001">Manufacturing Line Optimization</tspan></text>
</g>
<g id="Waste_Diverted">
</g>
<g id="Jobs">
</g>
<g id="consumer_ed_hover" display="none">
	<g display="inline">
		<g opacity="0.5">
			<g>
				<rect x="438.494" y="412.091" fill="#78BEB5" width="30.108" height="3.65"/>
			</g>
		</g>
		<g opacity="0.5">
			<g>
				<rect x="399.768" y="407.114" fill="#78BEB5" width="30.108" height="8.626"/>
			</g>
		</g>
		<g opacity="0.5">
			<g>
				<rect x="361.042" y="403.464" fill="#78BEB5" width="30.108" height="12.276"/>
			</g>
		</g>
		<g opacity="0.5">
			<g>
				<rect x="322.315" y="399.815" fill="#78BEB5" width="30.108" height="15.926"/>
			</g>
		</g>
		<g opacity="0.5">
			<g>
				<rect x="283.589" y="385.216" fill="#78BEB5" width="30.108" height="30.525"/>
			</g>
		</g>
		<g opacity="0.5">
			<g>
				<rect x="244.863" y="378.248" fill="#78BEB5" width="30.108" height="37.492"/>
			</g>
		</g>
		<g opacity="0.5">
			<g>
				<rect x="206.137" y="376.258" fill="#78BEB5" width="30.108" height="39.483"/>
			</g>
		</g>
		<g opacity="0.5">
			<g>
				<rect x="167.41" y="365.972" fill="#78BEB5" width="30.108" height="49.768"/>
			</g>
		</g>
		<g opacity="0.5">
			<g>
				<rect x="128.684" y="342.083" fill="#78BEB5" width="30.108" height="73.657"/>
			</g>
		</g>
		<g opacity="0.5">
			<g>
				<rect x="89.958" y="314.213" fill="#78BEB5" width="30.108" height="101.527"/>
			</g>
		</g>
		<g>
			<g>
				<rect x="51.231" y="64.377" fill="#78BEB5" width="30.108" height="351.364"/>
			</g>
		</g>
	</g>
	<g display="inline">
		<g>
			<g>
				
					<text transform="matrix(0.9989 0 0 1 29.5731 415.7405)" fill="#4D4D4D" font-family="'TradeGothic-CondEighteen'" font-size="14.2826px" letter-spacing="1.001">$0</text>
				
					<text transform="matrix(0.9989 0 0 1 10.3144 17.5948)" fill="#4D4D4D" font-family="'TradeGothic-CondEighteen'" font-size="14.2826px" letter-spacing="1.001">$1.2k</text>
			</g>
		</g>
		<g opacity="0.25">
			<g>
				<line fill="none" stroke="#000000" stroke-miterlimit="10" x1="468.602" y1="415.74" x2="51.231" y2="415.74"/>
				<line fill="none" stroke="#000000" stroke-miterlimit="10" x1="468.602" y1="349.383" x2="51.231" y2="349.383"/>
				<line fill="none" stroke="#000000" stroke-miterlimit="10" x1="468.602" y1="283.025" x2="51.231" y2="283.025"/>
				<line fill="none" stroke="#000000" stroke-miterlimit="10" x1="468.602" y1="216.668" x2="51.231" y2="216.668"/>
				<line fill="none" stroke="#000000" stroke-miterlimit="10" x1="468.602" y1="150.31" x2="51.231" y2="150.31"/>
				<line fill="none" stroke="#000000" stroke-miterlimit="10" x1="468.602" y1="83.952" x2="51.231" y2="83.952"/>
				<line fill="none" stroke="#000000" stroke-miterlimit="10" x1="468.602" y1="17.595" x2="51.231" y2="17.595"/>
			</g>
		</g>
	</g>
	<text transform="matrix(0 -0.9989 1 0 69.8972 405.7402)" display="inline" opacity="0.5"><tspan x="0" y="0" fill="#565859" font-family="'TradeGothic-CondEighteen'" font-size="13px" letter-spacing="1.001">Waste Tracking &amp; Analytics</tspan><tspan x="0" y="38.752" fill="#565859" font-family="'TradeGothic-CondEighteen'" font-size="13px" letter-spacing="1.001">Smaller Plates</tspan><tspan x="0" y="77.505" fill="#565859" font-family="'TradeGothic-CondEighteen'" font-size="13px" letter-spacing="1.001">Produce Specifications</tspan><tspan x="0" y="116.257" fill="#565859" font-family="'TradeGothic-CondEighteen'" font-size="13px" letter-spacing="1.001">Trayless Dining</tspan><tspan x="0" y="155.009" fill="#565859" font-family="'TradeGothic-CondEighteen'" font-size="13px" letter-spacing="1.001">Secondary Resellers</tspan><tspan x="0" y="193.762" fill="#565859" font-family="'TradeGothic-CondEighteen'" font-size="13px" letter-spacing="1.001">Spoilage Prevention Packaging</tspan><tspan x="0" y="232.514" fill="#565859" font-family="'TradeGothic-CondEighteen'" font-size="13px" letter-spacing="1.001">Inventory Management</tspan><tspan x="0" y="271.266" fill="#565859" font-family="'TradeGothic-CondEighteen'" font-size="13px" letter-spacing="1.001">Centralized Composting</tspan><tspan x="0" y="310.019" fill="#565859" font-family="'TradeGothic-CondEighteen'" font-size="13px" letter-spacing="1.001">Centralized Anaerobic Digestion (AD)</tspan><tspan x="0" y="348.771" fill="#565859" font-family="'TradeGothic-CondEighteen'" font-size="13px" letter-spacing="1.001">Cold Chain Management</tspan><tspan x="0" y="387.523" fill="#565859" font-family="'TradeGothic-CondEighteen'" font-size="13px" letter-spacing="1.001">Manufacturing Line Optimization</tspan></text>
	<rect x="110.261" y="22.595" display="inline" fill="#E6E7E8" width="335.908" height="257.731"/>
	<rect x="105.261" y="17.595" display="inline" fill="#FFFFFF" width="335.531" height="229.328"/>
	<rect x="105.261" y="234.846" display="inline" fill="#78BEB5" width="335.531" height="40"/>
	<g display="inline">
		<text transform="matrix(1 0 0 1 125.2553 50.1877)"><tspan x="0" y="0" fill="#565859" font-family="'ProximaNova-Regular'" font-size="18.2379px">Waste Tracking</tspan><tspan x="0" y="22.615" fill="#565859" font-family="'Georgia-Italic'" font-size="15.8062px">Preventiong Solution </tspan><tspan x="0" y="69.091" fill="#565859" font-family="'ProximaNova-Extrabld'" font-size="30.3965px">$962</tspan><tspan x="74.957" y="69.091" fill="#565859" font-family="'ProximaNova-Extrabld'" font-size="20.6696px"> </tspan><tspan x="80.248" y="69.091" fill="#565859" font-family="'ProximaNova-Regular'" font-size="18.2379px">M/ year</tspan><tspan x="0" y="92.192" fill="#565859" font-family="'ProximaNova-Regular'" font-size="18.2379px">Business Profit Potential</tspan></text>
	</g>
	
		<text transform="matrix(1 0 0 1 168.0704 261.4613)" display="inline" fill="#FFFFFF" font-family="'ProximaNova-Regular'" font-size="18px">view more information  &gt;</text>
	<g display="inline">
		<rect x="125.054" y="167.668" fill="none" width="325.158" height="51"/>
		<text transform="matrix(1 0 0 1 125.0536 177.6725)"><tspan x="0" y="0" fill="#848586" font-family="'ProximaNova-Regular'" font-size="15px">Providing restaurants and prepared-food </tspan><tspan x="0" y="18" fill="#848586" font-family="'ProximaNova-Regular'" font-size="15px">providers with data on wasteful practices to </tspan><tspan x="0" y="36" fill="#848586" font-family="'ProximaNova-Regular'" font-size="15px">inform behavior and operational changes</tspan></text>
	</g>
	<g display="inline">
		<circle fill="#848586" cx="423.973" cy="32.81" r="7.216"/>
		<g>
			
				<line fill="none" stroke="#FFFFFF" stroke-linecap="round" stroke-miterlimit="10" x1="421.135" y1="29.973" x2="426.81" y2="35.648"/>
			
				<line fill="none" stroke="#FFFFFF" stroke-linecap="round" stroke-miterlimit="10" x1="426.81" y1="29.973" x2="421.135" y2="35.648"/>
		</g>
	</g>
</g>
<g id="Supply_click">
</g>
<g id="Supply_hover">
</g>
<g id="Key_Solutions">
</g>
</svg>
