<svg version="1.1" xmlns="http://www.w3.org/2000/svg" xmlns:xlink="http://www.w3.org/1999/xlink" x="0px" y="0px"
	 viewBox="0 0 320 401.792" enable-background="new 0 0 320 401.792" xml:space="preserve">
	<g id="bottom">
		<g opacity="0.2">
			<g>
				<line fill="none" stroke="#555759" stroke-miterlimit="10" x1="14.404" y1="0" x2="14.404" y2="377.008"/>
			</g>
		</g>
		<g opacity="0.2">
			<g>
				<line fill="none" stroke="#555759" stroke-miterlimit="10" x1="100.435" y1="0" x2="100.435" y2="377.008"/>
			</g>
		</g>
		<g opacity="0.2">
			<g>
				<line fill="none" stroke="#555759" stroke-miterlimit="10" x1="186.466" y1="0" x2="186.466" y2="377.008"/>
			</g>
		</g>
		<g opacity="0.2">
			<g>
				<line fill="none" stroke="#555759" stroke-miterlimit="10" x1="272.497" y1="0" x2="272.497" y2="377.008"/>
			</g>
		</g>
		<g>
			<g>
				<rect x="13.705" y="322.362" fill="#E8AE6C" width="249.625" height="39.023"/>
			</g>
		</g>
		<g>
			<g>
				<rect x="13.705" y="225.705" fill="#DA844F" width="104.738" height="39.023"/>
			</g>
		</g>
		<g>
			<g>
				<rect x="13.705" y="129.048" fill="#D13239" width="1.397" height="39.023"/>
			</g>
		</g>
		<g>
			<g>
				<rect x="13.705" y="32.391" fill="#922B47" width="40.499" height="39.023"/>
			</g>
		</g>
		<text transform="matrix(1 0 0 1 63.041 55.9313)" fill="#922B47" font-size="14.773px">$15B</text>
		<text transform="matrix(1 0 0 1 25.1016 152.5885)" fill="#D13239" font-size="14.773px">$2B</text>
		<text transform="matrix(1 0 0 1 128.5439 249.2452)" fill="#DA844F" font-size="14.773px">$57B</text>
		<text transform="matrix(1 0 0 1 274.2639 345.9022)" fill="#E8AE6C" font-size="14.773px">$144B</text>
		<g>
			<text transform="matrix(1 0 0 1 18.324 24.0289)" fill="#555759" font-size="16px">FARMS</text>
		</g>
		<g>
			<text transform="matrix(1 0 0 1 18.3239 120.6862)" fill="#555759" font-size="16px">MANUFACTURERS</text>
		</g>
		<g>
			<text transform="matrix(1 0 0 1 18.324 314.0001)" fill="#555759" font-size="16px">HOMES</text>
		</g>
		<g>
			<text transform="matrix(1 0 0 1 18.324 217.3431)" fill="#555759" font-size="16px">CONSUMER-FACING BUSINESSES</text>
		</g>
		<g>
			<text transform="matrix(1 0 0 1 262.2836 386.9313)" fill="#555759" font-size="8.2122px">$150B</text>
		</g>
		<g>
			<text transform="matrix(1 0 0 1 176.1621 386.9318)" fill="#555759" font-size="8.2122px">$100B</text>
		</g>
		<g>
			<text transform="matrix(1 0 0 1 91.5803 386.9313)" fill="#555759" font-size="8.2122px">$50B</text>
		</g>
		<g>
			<text transform="matrix(1 0 0 1 9.7899 386.9313)" fill="#555759" font-size="8.2122px">$0</text>
		</g>
	</g>

</svg>
