<?xml version="1.0" encoding="utf-8"?>
<!-- Generator: Adobe Illustrator 19.1.0, SVG Export Plug-In . SVG Version: 6.00 Build 0)  -->
<svg version="1.1" xmlns="http://www.w3.org/2000/svg" xmlns:xlink="http://www.w3.org/1999/xlink" x="0px" y="0px"
	 viewBox="0 0 348.472 161.438" enable-background="new 0 0 348.472 161.438" xml:space="preserve">
<g id="bottom">
	<g>
		<path fill="none" d="M38.685,6.427c1.412-0.954,2.969-1.709,4.631-2.226C41.653,4.717,40.096,5.473,38.685,6.427z"/>
		<path fill="none" d="M43.315,37.995c-1.662-0.517-3.219-1.272-4.631-2.226C40.096,36.723,41.653,37.478,43.315,37.995z"/>
		<path fill="none" d="M299.895,110.489L299.895,110.489c-3.664,0-7.068-1.114-9.892-3.021
			C292.827,109.375,296.231,110.489,299.895,110.489z"/>
		<path fill="none" d="M290.004,107.467c-0.941-0.636-1.818-1.36-2.618-2.16C288.186,106.107,289.062,106.831,290.004,107.467z"/>
		<path fill="none" d="M314.566,82.904c0.636,0.941,1.184,1.947,1.631,3.005C315.75,84.851,315.202,83.845,314.566,82.904z"/>
		<path fill="none" d="M282.203,92.796c0-0.254,0.027-0.501,0.038-0.752l0,0C282.231,92.295,282.203,92.542,282.203,92.796
			L282.203,92.796z"/>
		<path fill="none" d="M317.588,92.796c0-0.611-0.031-1.214-0.091-1.809C317.557,91.582,317.588,92.185,317.588,92.796
			L317.588,92.796z"/>
		<path fill="none" d="M287.385,80.285c0.8-0.8,1.677-1.525,2.618-2.16C289.062,78.761,288.186,79.485,287.385,80.285z"/>
		<path fill="none" d="M283.594,85.909c0.448-1.058,0.995-2.064,1.631-3.005C284.589,83.845,284.041,84.851,283.594,85.909z"/>
		<path fill="none" d="M299.895,75.103c-3.664,0-7.068,1.114-9.892,3.021C292.827,76.217,296.231,75.103,299.895,75.103
			L299.895,75.103z"/>
		<path fill="#225577" d="M65.313,26.798l-17.987-5.85l0.619-1.902h0v-5.57l-1.254,0.287l-0.393-1.595l2.178-0.616h1.499v6.051
			l16.205,5.27c0.058-0.584,0.09-1.176,0.09-1.775c0-7.329-4.455-13.617-10.805-16.302C54.405,4.348,53.294,4,52.142,3.765
			c-1.152-0.236-2.344-0.359-3.566-0.359c-1.832,0-3.599,0.279-5.261,0.795c-1.662,0.517-3.219,1.272-4.631,2.226
			c-4.706,3.179-7.8,8.564-7.8,14.671s3.094,11.492,7.8,14.671c1.412,0.954,2.969,1.709,4.631,2.226
			c1.662,0.517,3.429,0.795,5.261,0.795c1.221,0,2.414-0.124,3.566-0.359c1.152-0.236,2.263-0.583,3.321-1.031
			C60.083,35.446,63.685,31.578,65.313,26.798z M51.516,25.86l-0.735,1.292l-0.735,1.292l-1.47,2.583l-1.47-2.583l-0.735-1.292
			l-0.734-1.292l-1.47-2.583h4.409h4.409L51.516,25.86z"/>
		<path fill="#225577" d="M49.974,19.046h-2.03l-0.619,1.902l17.987,5.85c0.427-1.253,0.731-2.563,0.866-3.924l-16.205-5.27V19.046z
			"/>
		<polygon fill="#BCBEC0" points="44.168,23.276 45.637,25.86 51.516,25.86 52.985,23.276 48.576,23.276 		"/>
		<polygon fill="#225577" points="46.372,27.151 47.107,28.443 50.046,28.443 50.781,27.151 51.516,25.86 45.637,25.86 		"/>
		<polygon opacity="0.8" fill="#BCBEC0" points="46.372,27.151 47.107,28.443 50.046,28.443 50.781,27.151 51.516,25.86 
			45.637,25.86 		"/>
		<polygon fill="#225577" points="48.576,31.026 50.046,28.443 47.107,28.443 		"/>
		<polygon opacity="0.6" fill="#BCBEC0" points="48.576,31.026 50.046,28.443 47.107,28.443 		"/>
		<path fill="#2A8175" d="M174.385,58.505l16.753,4.566c0.513-1.656,0.79-3.415,0.79-5.239c0-9.771-7.921-17.692-17.692-17.692
			c-7.923,0-14.627,5.209-16.881,12.388l17.16,5.581L174.385,58.505z M171.271,55.777v-1.551l2.784-2.126
			c0.691-0.543,0.957-0.893,0.957-1.339c0-0.467-0.329-0.754-0.829-0.754c-0.5,0-0.893,0.287-1.477,0.956l-1.393-1.159
			c0.797-1.031,1.584-1.593,3.029-1.593c1.626,0,2.742,0.967,2.742,2.37v0.021c0,1.19-0.616,1.806-1.722,2.603l-1.276,0.893h3.072
			v1.678H171.271z"/>
		<path fill="#2A8175" d="M174.236,75.524c6.508,0,12.179-3.524,15.252-8.757l-12.716-3.465l-0.331,0.582l-0.735,1.292l-1.47,2.585
			l-1.47-2.585l-0.735-1.292l-0.735-1.29l-0.925-1.626l-13.76-4.475c-0.033,0.444-0.068,0.888-0.068,1.34
			C156.544,67.603,164.465,75.524,174.236,75.524z"/>
		<path fill="#2A8175" d="M169.827,60.009h2.473l0.526-1.93l1.559,0.425l0.129-0.397l-17.16-5.581
			c-0.397,1.265-0.641,2.595-0.743,3.964l13.76,4.475L169.827,60.009z"/>
		<path fill="#2A8175" d="M173.896,60.009h0.34h4.409l-1.469,2.583l-0.404,0.708l12.716,3.465c0.68-1.158,1.246-2.39,1.651-3.696
			l-16.753-4.566L173.896,60.009z"/>
		<polygon fill="#2A8175" points="174.385,58.505 172.826,58.08 172.3,60.009 173.896,60.009 		"/>
		<polygon fill="#BCBEC0" points="171.774,61.939 171.904,61.465 170.371,60.966 171.296,62.593 174.172,62.593 		"/>
		<polygon fill="#BCBEC0" points="172.3,60.009 169.827,60.009 170.371,60.966 171.904,61.465 		"/>
		<polygon fill="#BCBEC0" points="171.904,61.465 171.774,61.939 174.172,62.593 177.175,62.593 178.645,60.009 174.236,60.009 
			173.896,60.009 173.277,61.911 		"/>
		<polygon fill="#BCBEC0" points="173.277,61.911 173.896,60.009 172.3,60.009 171.904,61.465 		"/>
		<polygon fill="#2A8175" points="171.296,62.593 172.031,63.883 172.766,65.174 175.706,65.174 176.441,63.883 176.772,63.301 
			174.172,62.593 		"/>
		<polygon opacity="0.8" fill="#BCBEC0" points="171.296,62.593 172.031,63.883 172.766,65.174 175.706,65.174 176.441,63.883 
			176.772,63.301 174.172,62.593 		"/>
		<polygon fill="#2A8175" points="174.172,62.593 176.772,63.301 177.175,62.593 		"/>
		<polygon opacity="0.8" fill="#BCBEC0" points="174.172,62.593 176.772,63.301 177.175,62.593 		"/>
		<polygon fill="#2A8175" points="174.236,67.759 175.706,65.174 172.766,65.174 		"/>
		<polygon opacity="0.6" fill="#BCBEC0" points="174.236,67.759 175.706,65.174 172.766,65.174 		"/>
		<path fill="#88A65B" d="M300.602,94.974h3.702l-1.47,2.583l-0.734,1.29l-0.735,1.293l-1.47,2.583l-1.47-2.583l-0.735-1.293
			l-0.735-1.29l-1.012-1.78l-13.702-3.734c-0.011,0.251-0.038,0.498-0.038,0.752c0,0.611,0.031,1.214,0.091,1.809
			c0.181,1.784,0.628,3.49,1.299,5.078c0.448,1.058,0.995,2.064,1.631,3.005c0.636,0.941,1.36,1.818,2.16,2.618
			s1.677,1.525,2.618,2.16c2.824,1.908,6.228,3.021,9.892,3.021c1.832,0,3.599-0.279,5.261-0.795
			c1.108-0.345,2.169-0.795,3.172-1.34c2.507-1.362,4.648-3.312,6.237-5.665c0.636-0.941,1.184-1.947,1.631-3.005
			c0.671-1.588,1.118-3.294,1.299-5.078c0.06-0.595,0.091-1.198,0.091-1.809s-0.031-1.214-0.091-1.809
			c-0.181-1.784-0.628-3.49-1.299-5.078c-0.448-1.058-0.995-2.064-1.631-3.005c-1.59-2.353-3.731-4.303-6.237-5.665
			c-1.003-0.545-2.064-0.995-3.172-1.34c-1.662-0.517-3.429-0.795-5.261-0.795c-3.664,0-7.068,1.114-9.892,3.021
			c-0.941,0.636-1.818,1.36-2.618,2.16c-0.8,0.8-1.525,1.677-2.16,2.618c-0.636,0.941-1.184,1.947-1.631,3.005
			c-0.294,0.695-0.527,1.42-0.732,2.158l18.266,4.978L300.602,94.974z M299.709,90.891c-1.435,0-2.445-0.52-3.167-1.316l1.297-1.298
			c0.531,0.543,1.095,0.849,1.774,0.849c0.586,0,0.957-0.297,0.957-0.754v-0.02c0-0.479-0.436-0.765-1.212-0.765h-0.872
			l-0.298-1.074l1.711-1.541h-2.848v-1.67h5.378v1.478l-1.775,1.521c1.063,0.233,1.923,0.828,1.923,2.093v0.021
			C302.579,89.924,301.368,90.891,299.709,90.891z"/>
		<path fill="#88A65B" d="M295.944,95.778l-0.457-0.804h4.409h0.707l0.526-1.93l-18.266-4.978c-0.262,0.946-0.465,1.917-0.567,2.92
			c-0.035,0.347-0.039,0.704-0.053,1.057L295.944,95.778z"/>
		<polygon fill="#BCBEC0" points="302.834,97.558 304.304,94.974 300.602,94.974 300.076,96.904 295.944,95.778 296.956,97.558 		
			"/>
		<polygon fill="#BCBEC0" points="300.602,94.974 299.896,94.974 295.487,94.974 295.944,95.778 300.076,96.904 		"/>
		<polygon fill="#88A65B" points="297.691,98.848 298.426,100.141 301.365,100.141 302.1,98.848 302.834,97.558 296.956,97.558 		
			"/>
		<polygon opacity="0.8" fill="#BCBEC0" points="297.691,98.848 298.426,100.141 301.365,100.141 302.1,98.848 302.834,97.558 
			296.956,97.558 		"/>
		<polygon fill="#88A65B" points="299.896,102.724 301.365,100.141 298.426,100.141 		"/>
		<polygon opacity="0.6" fill="#BCBEC0" points="299.896,102.724 301.365,100.141 298.426,100.141 		"/>
		<g>
			<rect x="6.668" y="49.254" fill="#225577" width="83.818" height="6.77"/>
			<rect x="6.668" y="58.024" fill="#225577" width="83.818" height="5.77"/>
			<rect x="6.668" y="57.024" fill="#225577" width="83.818" height="1"/>
			<rect x="6.668" y="65.794" fill="#225577" width="83.818" height="5.77"/>
			<rect x="6.668" y="64.794" fill="#225577" width="83.818" height="1"/>
			<rect x="6.668" y="73.564" fill="#225577" width="83.818" height="5.77"/>
			<rect x="6.668" y="72.564" fill="#225577" width="83.818" height="1"/>
			<rect x="6.668" y="81.334" fill="#225577" width="83.818" height="5.77"/>
			<rect x="6.668" y="80.334" fill="#225577" width="83.818" height="1"/>
			<rect x="6.668" y="89.104" fill="#225577" width="83.818" height="5.77"/>
			<rect x="6.668" y="88.104" fill="#225577" width="83.818" height="1"/>
			<rect x="6.668" y="96.874" fill="#225577" width="83.818" height="5.77"/>
			<rect x="6.668" y="95.874" fill="#225577" width="83.818" height="1"/>
			<rect x="6.668" y="104.644" fill="#225577" width="83.818" height="5.77"/>
			<rect x="6.668" y="103.644" fill="#225577" width="83.818" height="1"/>
			<rect x="6.668" y="112.414" fill="#225577" width="83.818" height="5.77"/>
			<rect x="6.668" y="111.414" fill="#225577" width="83.818" height="1"/>
			<rect x="6.668" y="120.183" fill="#225577" width="83.818" height="5.77"/>
			<rect x="6.668" y="119.183" fill="#225577" width="83.818" height="1"/>
			<rect x="6.668" y="127.953" fill="#225577" width="83.818" height="5.77"/>
			<rect x="6.668" y="126.953" fill="#225577" width="83.818" height="1"/>
			<rect x="6.668" y="135.723" fill="#225577" width="83.818" height="5.77"/>
			<rect x="6.668" y="134.723" fill="#225577" width="83.818" height="1"/>
			<rect x="6.668" y="143.493" fill="#225577" width="83.818" height="5.77"/>
			<rect x="6.668" y="142.493" fill="#225577" width="83.818" height="1"/>
			<rect x="6.668" y="151.263" fill="#225577" width="83.818" height="6.77"/>
			<rect x="6.668" y="150.263" fill="#225577" width="83.818" height="1"/>
			<rect x="132.327" y="85.514" fill="#2A8175" width="83.817" height="9.36"/>
			<rect x="132.327" y="96.874" fill="#2A8175" width="83.817" height="8.36"/>
			<rect x="132.327" y="95.874" fill="#2A8175" width="83.817" height="1"/>
			<rect x="132.327" y="107.234" fill="#2A8175" width="83.817" height="8.36"/>
			<rect x="132.327" y="106.234" fill="#2A8175" width="83.817" height="1"/>
			<rect x="132.327" y="117.593" fill="#2A8175" width="83.817" height="8.36"/>
			<rect x="132.327" y="116.593" fill="#2A8175" width="83.817" height="1"/>
			<rect x="132.327" y="127.953" fill="#2A8175" width="83.817" height="8.36"/>
			<rect x="132.327" y="126.953" fill="#2A8175" width="83.817" height="1"/>
			<rect x="132.327" y="138.313" fill="#2A8175" width="83.817" height="8.36"/>
			<rect x="132.327" y="137.313" fill="#2A8175" width="83.817" height="1"/>
			<rect x="132.327" y="148.673" fill="#2A8175" width="83.817" height="9.36"/>
			<rect x="132.327" y="147.673" fill="#2A8175" width="83.817" height="1"/>
			<rect x="257.987" y="121.773" fill="#88A65B" width="83.818" height="3.029"/>
			<rect x="257.987" y="126.802" fill="#88A65B" width="83.818" height="2.029"/>
			<rect x="257.987" y="125.802" fill="#88A65B" width="83.818" height="1"/>
			<rect x="257.987" y="130.831" fill="#88A65B" width="83.818" height="2.029"/>
			<rect x="257.987" y="129.831" fill="#88A65B" width="83.818" height="1"/>
			<rect x="257.987" y="134.86" fill="#88A65B" width="83.818" height="2.029"/>
			<rect x="257.987" y="133.86" fill="#88A65B" width="83.818" height="1"/>
			<rect x="257.987" y="138.889" fill="#88A65B" width="83.818" height="2.029"/>
			<rect x="257.987" y="137.889" fill="#88A65B" width="83.818" height="1"/>
			<rect x="257.987" y="142.918" fill="#88A65B" width="83.818" height="2.029"/>
			<rect x="257.987" y="141.918" fill="#88A65B" width="83.818" height="1"/>
			<rect x="257.987" y="146.946" fill="#88A65B" width="83.818" height="2.029"/>
			<rect x="257.987" y="145.946" fill="#88A65B" width="83.818" height="1"/>
			<rect x="257.987" y="150.975" fill="#88A65B" width="83.818" height="2.029"/>
			<rect x="257.987" y="149.975" fill="#88A65B" width="83.818" height="1"/>
			<rect x="257.987" y="155.004" fill="#88A65B" width="83.818" height="3.029"/>
			<rect x="257.987" y="154.004" fill="#88A65B" width="83.818" height="1"/>
		</g>
	</g>
</g>
<g id="pie_layer" display="none">
</g>
<g id="Pie_Layer_2" display="none">
</g>
<g id="meals_saved" display="none">
</g>
<g id="consumer_ed_hover" display="none">
</g>
<g id="pop_up" display="none">
</g>
<g id="Layer_2" display="none">
</g>
</svg>
