<svg version="1.1" xmlns="http://www.w3.org/2000/svg" xmlns:xlink="http://www.w3.org/1999/xlink" x="0px" y="0px"
	 viewBox="0 0 354 264.478" enable-background="new 0 0 354 264.478" xml:space="preserve">
<g id="Layer_1">
	<polygon fill="#555759" points="308.635,128.119 176.855,91.95 45.099,56.422 45.62,54.491 177.38,90.021 309.164,126.19 	"/>
	<g>
		<g>
			<path fill="none" d="M40.309,69.935c-1.596-0.496-3.09-1.221-4.446-2.137C37.218,68.714,38.713,69.439,40.309,69.935z"/>
			<g>
				<path fill="#245678" d="M45.359,71.199c-1.772,0-3.521-0.265-5.199-0.786c-1.623-0.505-3.163-1.245-4.577-2.201
					c-4.827-3.261-7.708-8.681-7.708-14.499c0-5.817,2.882-11.237,7.708-14.499c1.412-0.955,2.952-1.695,4.577-2.2
					c1.678-0.521,3.427-0.786,5.199-0.786c1.185,0,2.37,0.12,3.523,0.355c1.122,0.229,2.226,0.572,3.283,1.019
					c6.487,2.743,10.679,9.067,10.679,16.11c0,0.575-0.03,1.166-0.089,1.754c-0.128,1.281-0.416,2.586-0.856,3.879
					c-1.608,4.723-5.156,8.542-9.734,10.478c-1.057,0.447-2.161,0.79-3.283,1.019C47.729,71.079,46.544,71.199,45.359,71.199z
					 M45.359,62.233l3.373-5.929h-6.745L45.359,62.233z M46.201,51.244v-6.194h-0.87l-1.56,0.441l0.145,0.584l1.336-0.306v5.475
					H46.201z"/>
				<path fill="#FFFFFF" d="M45.359,36.729c1.172,0,2.317,0.119,3.423,0.345c1.106,0.226,2.172,0.56,3.188,0.99
					c6.096,2.578,10.373,8.615,10.373,15.65c0,0.575-0.03,1.144-0.086,1.704c-0.13,1.307-0.422,2.564-0.832,3.767
					c-1.563,4.59-5.021,8.303-9.456,10.178c-1.016,0.43-2.082,0.763-3.188,0.99c-1.106,0.226-2.251,0.345-3.423,0.345
					c-1.759,0-3.455-0.267-5.051-0.764c-1.596-0.496-3.09-1.221-4.446-2.137c-4.518-3.052-7.488-8.221-7.488-14.084
					s2.97-11.032,7.488-14.084c1.355-0.916,2.85-1.641,4.446-2.137C41.904,36.996,43.6,36.729,45.359,36.729 M43.549,46.672
					l1.204-0.275v5.347h1.949v-1.385v-5.809h-1.439l-2.091,0.592L43.549,46.672 M45.359,63.245l1.411-2.48l0.705-1.24l0.705-1.24
					l1.411-2.48h-4.232h-4.233l1.411,2.48l0.705,1.24l0.705,1.24L45.359,63.245 M45.359,35.729c-1.823,0-3.622,0.272-5.348,0.809
					c-1.671,0.52-3.255,1.281-4.708,2.263c-4.965,3.354-7.928,8.929-7.928,14.913s2.964,11.559,7.928,14.913
					c1.454,0.982,3.038,1.744,4.708,2.263c1.725,0.537,3.525,0.809,5.348,0.809c1.22,0,2.439-0.123,3.623-0.365
					c1.155-0.236,2.292-0.589,3.377-1.048c4.709-1.992,8.359-5.92,10.013-10.777c0.452-1.328,0.749-2.67,0.88-3.991
					c0.06-0.606,0.091-1.212,0.091-1.804c0-7.245-4.311-13.749-10.984-16.571c-1.086-0.459-2.223-0.812-3.377-1.048
					C47.798,35.852,46.579,35.729,45.359,35.729L45.359,35.729z M42.846,56.805h2.513h2.513l-0.561,0.986l-0.705,1.24l-0.705,1.24
					l-0.542,0.952l-0.542-0.952l-0.705-1.24l-0.705-1.24L42.846,56.805L42.846,56.805z"/>
			</g>
			<polygon fill="#FFFFFF" points="41.127,55.805 42.538,58.285 48.181,58.285 49.592,55.805 45.359,55.805 			"/>
			<polygon fill="#8899AF" points="43.243,59.525 43.948,60.765 46.77,60.765 47.476,59.525 48.181,58.285 42.538,58.285 			"/>
			<polygon fill="#8899AF" points="43.243,59.525 43.948,60.765 46.77,60.765 47.476,59.525 48.181,58.285 42.538,58.285 			"/>
			<polygon fill="#245678" points="45.359,63.245 46.77,60.765 43.948,60.765 			"/>
			<polygon fill="#6D849E" points="45.359,63.245 46.77,60.765 43.948,60.765 			"/>
		</g>
		<g>
			<g>
				<path fill="#2C8276" d="M177,107.932c-9.641,0-17.484-7.844-17.484-17.485c0-0.429,0.031-0.851,0.062-1.271
					c0.107-1.426,0.354-2.744,0.739-3.97c2.299-7.323,9.003-12.243,16.683-12.243c9.641,0,17.485,7.843,17.485,17.484
					c0,1.763-0.263,3.505-0.781,5.178c-0.38,1.228-0.929,2.458-1.631,3.653C188.939,104.616,183.163,107.932,177,107.932z
					 M177,98.966l3.373-5.928h-6.745L177,98.966z M179.307,87.975v-0.611h-4.035l2.524-1.767c1.013-0.73,1.439-1.184,1.439-2.089
					c0-1.083-0.857-1.796-2.132-1.796c-1.044,0-1.649,0.348-2.206,0.964l0.59,0.49c0.457-0.458,0.895-0.73,1.462-0.73
					c0.763,0,1.296,0.503,1.296,1.224c0,0.672-0.425,1.141-1.11,1.679l-2.481,1.895v0.741H179.307z"/>
				<path fill="#FFFFFF" d="M177,73.462c9.381,0,16.985,7.604,16.985,16.984c0,1.751-0.266,3.44-0.758,5.03
					c-0.388,1.254-0.932,2.437-1.584,3.548c-2.95,5.024-8.395,8.407-14.642,8.407c-9.381,0-16.985-7.604-16.985-16.985
					c0-0.434,0.033-0.86,0.065-1.286c0.099-1.315,0.333-2.591,0.714-3.806C162.958,78.463,169.394,73.462,177,73.462
					 M175.531,83.854c0.561-0.642,0.939-0.917,1.418-0.917c0.48,0,0.796,0.275,0.796,0.724c0,0.428-0.255,0.765-0.919,1.286
					l-2.673,2.041v1.489h5.653v-1.611h-2.949l1.225-0.857c1.061-0.765,1.653-1.356,1.653-2.499v-0.02
					c0-1.347-1.071-2.275-2.633-2.275c-1.388,0-2.143,0.54-2.908,1.529L175.531,83.854 M177,99.978l1.411-2.482l0.705-1.24
					l0.318-0.558l0.387-0.68l1.411-2.48H177h-0.326h-1.532h-2.374l0.522,0.919l0.888,1.561l0.706,1.238l0.705,1.24L177,99.978
					 M177,72.462c-7.899,0-14.795,5.061-17.16,12.593c-0.396,1.262-0.651,2.618-0.757,4.03c-0.035,0.465-0.068,0.903-0.068,1.361
					c0,9.917,8.068,17.985,17.985,17.985c6.34,0,12.281-3.41,15.504-8.9c0.721-1.229,1.286-2.493,1.677-3.759
					c0.533-1.72,0.803-3.512,0.803-5.325C194.985,80.53,186.917,72.462,177,72.462L177,72.462z M178.734,83.453
					c-0.027-0.252-0.105-0.482-0.223-0.684C178.645,82.947,178.728,83.173,178.734,83.453L178.734,83.453z M174.486,93.538h0.655
					h1.532H177h2.513l-0.561,0.985l-0.387,0.68l-0.318,0.558l-0.706,1.241L177,97.955l-0.542-0.953l-0.705-1.24l-0.706-1.239
					L174.486,93.538L174.486,93.538z"/>
			</g>
			<polygon fill="#5E948B" points="177,92.538 176.674,92.538 175.142,92.538 172.767,92.538 173.29,93.457 174.178,95.018 
				176.939,95.018 179.822,95.018 181.232,92.538 			"/>
			<polygon fill="#FFFFFF" points="176.939,95.018 174.178,95.018 174.884,96.256 175.589,97.496 178.411,97.496 179.116,96.256 
				179.434,95.698 179.822,95.018 			"/>
			<polygon fill="#2C8276" points="177,99.978 178.411,97.496 175.589,97.496 			"/>
			<polygon fill="#7AA39B" points="177,99.978 178.411,97.496 175.589,97.496 			"/>
		</g>
		<g>
			<g>
				<path fill="#88A65B" d="M308.9,142.896c-3.503,0-6.884-1.033-9.776-2.986c-0.924-0.625-1.795-1.343-2.587-2.135
					c-0.791-0.791-1.509-1.661-2.135-2.587c-0.631-0.935-1.173-1.934-1.612-2.97c-0.676-1.598-1.108-3.287-1.284-5.019
					c-0.06-0.59-0.09-1.191-0.09-1.787c0-0.163,0.011-0.323,0.021-0.483l0.016-0.261l0.009-0.264
					c0.009-0.261,0.018-0.523,0.044-0.78c0.093-0.919,0.276-1.863,0.56-2.886c0.231-0.832,0.46-1.509,0.724-2.132
					c0.438-1.036,0.98-2.035,1.612-2.971c0.625-0.925,1.343-1.795,2.135-2.587c0.791-0.791,1.661-1.509,2.587-2.135
					c2.892-1.954,6.273-2.986,9.776-2.986c1.774,0,3.523,0.265,5.199,0.786c1.083,0.336,2.138,0.782,3.136,1.324
					c2.461,1.337,4.592,3.272,6.164,5.598c0.632,0.936,1.174,1.935,1.612,2.97c0.676,1.599,1.108,3.288,1.284,5.019
					c0.06,0.59,0.09,1.191,0.09,1.787s-0.03,1.197-0.09,1.788c-0.176,1.731-0.608,3.419-1.284,5.019
					c-0.438,1.037-0.98,2.036-1.612,2.97c-1.57,2.325-3.702,4.261-6.163,5.598c-0.998,0.542-2.053,0.988-3.136,1.324
					C312.423,142.632,310.674,142.896,308.9,142.896z M308.9,133.932l3.373-5.929h-6.746L308.9,133.932z M306.393,122.314
					c0.618,0.517,1.384,0.769,2.328,0.769c1.349,0,2.255-0.754,2.255-1.876c0-0.537-0.151-1.256-1.453-1.542l-0.98-0.215
					l2.291-1.964v-0.689h-4.163v0.604h3.537l-2.38,2.144l0.102,0.366h0.457c1.226,0,1.663,0.638,1.663,1.234
					c0,0.74-0.583,1.243-1.419,1.243c-0.604,0-1.16-0.205-1.686-0.625L306.393,122.314z"/>
				<path fill="#FFFFFF" d="M308.9,108.427c1.759,0,3.455,0.267,5.051,0.764c1.064,0.331,2.083,0.763,3.045,1.286
					c2.406,1.307,4.462,3.179,5.988,5.438c0.61,0.904,1.136,1.869,1.566,2.885c0.645,1.524,1.073,3.162,1.247,4.875
					c0.058,0.571,0.088,1.15,0.088,1.737s-0.03,1.166-0.088,1.737c-0.174,1.713-0.602,3.351-1.247,4.875
					c-0.43,1.016-0.956,1.982-1.566,2.885c-1.526,2.259-3.581,4.131-5.988,5.438c-0.963,0.523-1.982,0.955-3.045,1.286
					c-1.596,0.496-3.292,0.764-5.051,0.764c-3.518,0-6.786-1.069-9.496-2.901c-0.904-0.61-1.745-1.306-2.514-2.074
					c-0.768-0.768-1.464-1.61-2.074-2.514c-0.61-0.904-1.136-1.869-1.566-2.885c-0.645-1.524-1.073-3.162-1.247-4.875
					c-0.058-0.571-0.088-1.15-0.088-1.737c0-0.244,0.026-0.481,0.036-0.722c0.014-0.339,0.017-0.681,0.051-1.015
					c0.098-0.963,0.293-1.895,0.544-2.803c0.196-0.708,0.42-1.404,0.703-2.072c0.43-1.016,0.956-1.982,1.566-2.885
					c0.611-0.904,1.306-1.745,2.074-2.514s1.61-1.464,2.514-2.074C302.114,109.496,305.382,108.427,308.9,108.427 M306.17,117.901
					h2.735l-1.643,1.479l0.286,1.031h0.837c0.745,0,1.163,0.275,1.163,0.735v0.019c0,0.439-0.357,0.724-0.919,0.724
					c-0.652,0-1.193-0.294-1.703-0.815l-1.245,1.246c0.693,0.765,1.663,1.264,3.04,1.264c1.592,0,2.755-0.928,2.755-2.376v-0.02
					c0-1.215-0.826-1.786-1.846-2.01l1.704-1.46v-1.419h-5.163V117.901 M308.9,134.943l1.411-2.48l0.706-1.242l0.705-1.238
					l1.411-2.48h-3.554H308.9h-4.233l0.439,0.772l0.971,1.708l0.706,1.238l0.705,1.242L308.9,134.943 M308.9,107.427
					c-3.604,0-7.082,1.062-10.056,3.072c-0.952,0.643-1.848,1.382-2.661,2.196c-0.814,0.814-1.552,1.709-2.195,2.661
					c-0.65,0.962-1.208,1.99-1.658,3.055c-0.272,0.643-0.508,1.34-0.745,2.194c-0.291,1.051-0.48,2.022-0.576,2.969
					c-0.027,0.268-0.037,0.541-0.046,0.814l-0.009,0.26c-0.003,0.082-0.009,0.165-0.015,0.247c-0.012,0.171-0.023,0.343-0.023,0.517
					c0,0.613,0.031,1.231,0.093,1.838c0.181,1.781,0.625,3.518,1.321,5.163c0.451,1.066,1.009,2.094,1.658,3.055
					c0.643,0.952,1.382,1.847,2.196,2.661c0.814,0.814,1.709,1.553,2.661,2.196c2.975,2.01,6.452,3.072,10.056,3.072
					c1.823,0,3.622-0.272,5.348-0.809c1.114-0.347,2.199-0.805,3.226-1.363c2.532-1.375,4.724-3.366,6.339-5.757
					c0.65-0.962,1.208-1.99,1.658-3.055c0.695-1.645,1.14-3.382,1.321-5.163c0.062-0.606,0.093-1.224,0.093-1.838
					s-0.031-1.232-0.093-1.838c-0.181-1.781-0.625-3.519-1.321-5.163c-0.451-1.065-1.008-2.093-1.658-3.055
					c-1.616-2.391-3.808-4.382-6.339-5.757c-1.027-0.558-2.112-1.016-3.226-1.362C312.522,107.699,310.723,107.427,308.9,107.427
					L308.9,107.427z M306.386,128.503h2.514h0.678h1.835l-0.561,0.985l-0.705,1.238l-0.706,1.242l-0.542,0.952l-0.542-0.952
					l-0.705-1.241l-0.706-1.24L306.386,128.503L306.386,128.503z"/>
			</g>
			<polygon fill="#BECDA3" points="309.578,127.503 308.9,127.503 304.667,127.503 305.106,128.274 306.077,129.983 
				311.721,129.983 313.132,127.503 			"/>
			<polygon fill="#D8E0C6" points="306.077,129.983 306.783,131.221 307.488,132.463 310.311,132.463 311.016,131.221 
				311.721,129.983 			"/>
			<polygon fill="#D8E0C6" points="308.9,134.943 310.311,132.463 307.488,132.463 			"/>
			<polygon fill="#FFFFFF" points="308.9,134.943 310.311,132.463 307.488,132.463 			"/>
		</g>
		<g>
			<rect x="0.759" y="81.87" fill="#245678" width="89.201" height="6.77"/>
			<rect x="0.759" y="90.64" fill="#245678" width="89.201" height="5.77"/>
			<rect x="0.759" y="89.64" fill="#245678" width="89.201" height="1"/>
			<rect x="0.759" y="98.41" fill="#245678" width="89.201" height="5.77"/>
			<rect x="0.759" y="97.41" fill="#245678" width="89.201" height="1"/>
			<rect x="0.759" y="106.18" fill="#245678" width="89.201" height="5.77"/>
			<rect x="0.759" y="105.18" fill="#245678" width="89.201" height="1"/>
			<rect x="0.759" y="113.95" fill="#245678" width="89.201" height="5.77"/>
			<rect x="0.759" y="112.95" fill="#245678" width="89.201" height="1"/>
			<rect x="0.759" y="121.72" fill="#245678" width="89.201" height="5.77"/>
			<rect x="0.759" y="120.72" fill="#245678" width="89.201" height="1"/>
			<rect x="0.759" y="129.489" fill="#245678" width="89.201" height="5.77"/>
			<rect x="0.759" y="128.489" fill="#245678" width="89.201" height="1"/>
			<rect x="0.759" y="137.259" fill="#245678" width="89.201" height="5.77"/>
			<rect x="0.759" y="136.259" fill="#245678" width="89.201" height="1"/>
			<rect x="0.759" y="145.029" fill="#245678" width="89.201" height="5.77"/>
			<rect x="0.759" y="144.029" fill="#245678" width="89.201" height="1"/>
			<rect x="0.759" y="152.799" fill="#245678" width="89.201" height="5.77"/>
			<rect x="0.759" y="151.799" fill="#245678" width="89.201" height="1"/>
			<rect x="0.759" y="160.569" fill="#245678" width="89.201" height="5.77"/>
			<rect x="0.759" y="159.569" fill="#245678" width="89.201" height="1"/>
			<rect x="0.759" y="168.339" fill="#245678" width="89.201" height="5.77"/>
			<rect x="0.759" y="167.339" fill="#245678" width="89.201" height="1"/>
			<rect x="0.759" y="176.109" fill="#245678" width="89.201" height="5.77"/>
			<rect x="0.759" y="175.109" fill="#245678" width="89.201" height="1"/>
			<rect x="0.759" y="183.879" fill="#245678" width="89.201" height="6.77"/>
			<rect x="0.759" y="182.879" fill="#245678" width="89.201" height="1"/>
			<rect x="132.529" y="118.13" fill="#2C8276" width="89.201" height="9.36"/>
			<rect x="132.529" y="129.489" fill="#2C8276" width="89.201" height="8.36"/>
			<rect x="132.529" y="128.489" fill="#2C8276" width="89.201" height="1"/>
			<rect x="132.529" y="139.849" fill="#2C8276" width="89.201" height="8.36"/>
			<rect x="132.529" y="138.849" fill="#2C8276" width="89.201" height="1"/>
			<rect x="132.529" y="150.209" fill="#2C8276" width="89.201" height="8.36"/>
			<rect x="132.529" y="149.209" fill="#2C8276" width="89.201" height="1"/>
			<rect x="132.529" y="160.569" fill="#2C8276" width="89.201" height="8.36"/>
			<rect x="132.529" y="159.569" fill="#2C8276" width="89.201" height="1"/>
			<rect x="132.529" y="170.929" fill="#2C8276" width="89.201" height="8.36"/>
			<rect x="132.529" y="169.929" fill="#2C8276" width="89.201" height="1"/>
			<rect x="132.529" y="181.289" fill="#2C8276" width="89.201" height="9.36"/>
			<rect x="132.529" y="180.289" fill="#2C8276" width="89.201" height="1"/>
			<rect x="264.299" y="154.389" fill="#88A65B" width="89.201" height="3.029"/>
			<rect x="264.299" y="159.418" fill="#88A65B" width="89.201" height="2.029"/>
			<rect x="264.299" y="158.418" fill="#88A65B" width="89.201" height="1"/>
			<rect x="264.299" y="163.447" fill="#88A65B" width="89.201" height="2.029"/>
			<rect x="264.299" y="162.447" fill="#88A65B" width="89.201" height="1"/>
			<rect x="264.299" y="167.476" fill="#88A65B" width="89.201" height="2.029"/>
			<rect x="264.299" y="166.476" fill="#88A65B" width="89.201" height="1"/>
			<rect x="264.299" y="171.505" fill="#88A65B" width="89.201" height="2.029"/>
			<rect x="264.299" y="170.505" fill="#88A65B" width="89.201" height="1"/>
			<rect x="264.299" y="175.533" fill="#88A65B" width="89.201" height="2.029"/>
			<rect x="264.299" y="174.533" fill="#88A65B" width="89.201" height="1"/>
			<rect x="264.299" y="179.562" fill="#88A65B" width="89.201" height="2.029"/>
			<rect x="264.299" y="178.562" fill="#88A65B" width="89.201" height="1"/>
			<rect x="264.299" y="183.591" fill="#88A65B" width="89.201" height="2.029"/>
			<rect x="264.299" y="182.591" fill="#88A65B" width="89.201" height="1"/>
			<rect x="264.299" y="187.62" fill="#88A65B" width="89.201" height="3.029"/>
			<rect x="264.299" y="186.62" fill="#88A65B" width="89.201" height="1"/>
		</g>
	</g>

	
	<rect x="-0.053" y="219.389" fill="none" width="85.553" height="55.829"/>
	<text transform="matrix(1 0 0 1 -0.0532 226.7257)"><tspan x="0" y="0" fill="#555759" font-size="11px">PREVENTION</tspan><tspan x="65.801" y="0" fill="#555759" font-size="9.5px"> </tspan><tspan x="0" y="11.4" fill="#555759" font-size="9.5px">Stopping waste </tspan><tspan x="0" y="22.8" fill="#555759" font-size="9.5px">from occurring in </tspan><tspan x="0" y="34.2" fill="#555759" font-size="9.5px">the first place </tspan></text>

	<rect x="132.63" y="219.389" fill="none" width="83.817" height="57"/>
	
	<text transform="matrix(1 0 0 1 132.6297 226.7262)"><tspan x="0" y="0" fill="#555759" font-size="11px">RECOVERY </tspan><tspan x="0" y="11.4" fill="#555759" font-size="9.5px">Redistributing food </tspan><tspan x="0" y="22.8" fill="#555759" font-size="9.5px">to people</tspan></text>
	<rect x="262.846" y="219.389" fill="none" width="90.654" height="63"/>

	<text transform="matrix(1 0 0 1 262.8462 226.7262)"><tspan x="0" y="0" fill="#555759" font-size="11px">RECYCLING </tspan><tspan x="0" y="11.4" fill="#555759" font-family="'ProximaNova-Regular'" font-size="9.5px">Repurposing waste as </tspan><tspan x="0" y="22.8" fill="#555759" font-size="9.5px">energy, agricultural, </tspan><tspan x="0" y="34.2" fill="#555759" font-size="9.5px">and other products</tspan></text>

	<rect x="0.759" y="194.889" fill="#555759" width="352.741" height="1"/>
	<g>
		<text transform="matrix(1 0 0 1 -0.053 209.2799)" fill="#235477" font-size="10px">12 solutions</text>
	</g>
	<g>
		<text transform="matrix(1 0 0 1 132.6298 209.2799)" fill="#2B8275" font-size="10px">7 solutions</text>
	</g>
	<g>
		<text transform="matrix(1 0 0 1 262.8459 209.2799)" fill="#88A65B" font-size="10px">8 solutions</text>
	</g>
</g>
</svg>
