<?xml version="1.0" encoding="utf-8"?>
<!-- Generator: Adobe Illustrator 19.1.0, SVG Export Plug-In . SVG Version: 6.00 Build 0)  -->
<svg version="1.1" xmlns="http://www.w3.org/2000/svg" xmlns:xlink="http://www.w3.org/1999/xlink" x="0px" y="0px"
	 viewBox="0 0 175 175" enable-background="new 0 0 175 175" xml:space="preserve">
<g id="bottom">
	<g>
		<circle fill="#9BCAC0" cx="87.5" cy="87.5" r="86.625"/>
		<g>
			<g>
				<path fill="#F7F4EE" d="M124.378,113.087c-1.65,0-2.985-1.335-2.985-2.985V43.031H73.066c-2.192,0-3.97,1.78-3.97,3.97
					c0,2.189,1.777,3.97,3.97,3.97H114.8c1.65,0,2.985,1.335,2.985,2.985s-1.335,2.985-2.985,2.985H73.066
					c-5.48,0-9.939-4.459-9.939-9.939s4.459-9.939,9.939-9.939h54.297v73.041C127.363,111.752,126.028,113.087,124.378,113.087z"/>
				<path fill="#F7F4EE" d="M127.363,123.711H73.066c-5.48,0-9.939-4.46-9.939-9.94V47h5.969c0,2.189,1.777,3.97,3.97,3.97h54.297
					V123.711z M69.096,56.112v57.66c0,2.189,1.777,3.97,3.97,3.97h48.327V56.939H73.066C71.655,56.939,70.314,56.645,69.096,56.112z
					"/>
			</g>
			<path fill="#F7F4EE" d="M111.494,71.044H79.012c-1.65,0-2.985-1.336-2.985-2.985c0-1.65,1.335-2.985,2.985-2.985h32.482
				c1.65,0,2.985,1.335,2.985,2.985C114.479,69.709,113.144,71.044,111.494,71.044z"/>
			<path fill="#F7F4EE" d="M111.494,83.761H79.012c-1.65,0-2.985-1.335-2.985-2.985c0-1.649,1.335-2.985,2.985-2.985h32.482
				c1.65,0,2.985,1.336,2.985,2.985C114.479,82.426,113.144,83.761,111.494,83.761z"/>
			<g>
				<path fill="#9BCAC0" d="M89.805,96.359H59.776c-10.812,0-19.575,8.764-19.575,19.575c0,9.73,7.117,17.74,16.418,19.257v13.169
					l10.966-12.851h22.22c10.811,0,19.576-8.765,19.576-19.576S100.616,96.359,89.805,96.359z"/>
				<path fill="#F7F4EE" d="M56.621,151.346c-0.344,0-0.694-0.061-1.032-0.184c-1.172-0.434-1.953-1.551-1.953-2.801v-10.776
					c-9.654-2.702-16.422-11.437-16.422-21.65c0-12.44,10.12-22.561,22.56-22.561h30.029c12.44,0,22.56,10.12,22.56,22.561
					s-10.12,22.56-22.56,22.56H68.962l-10.073,11.805C58.312,150.976,57.477,151.346,56.621,151.346z M59.774,99.343
					c-9.146,0-16.591,7.442-16.591,16.591c0,8.135,5.853,14.996,13.916,16.311c1.445,0.236,2.506,1.483,2.506,2.947v5.072
					l5.713-6.693c0.566-0.664,1.393-1.046,2.268-1.046h22.217c9.146,0,16.591-7.442,16.591-16.591
					c0-9.15-7.445-16.591-16.591-16.591H59.774z"/>
			</g>
			<g>
				<path fill="#F7F4EE" d="M62.684,118.919h-5.882c-1.65,0-2.985-1.335-2.985-2.985s1.335-2.985,2.985-2.985h5.882
					c1.65,0,2.985,1.335,2.985,2.985S64.333,118.919,62.684,118.919z"/>
				<path fill="#F7F4EE" d="M77.73,118.919h-5.882c-1.65,0-2.985-1.335-2.985-2.985s1.335-2.985,2.985-2.985h5.882
					c1.65,0,2.985,1.335,2.985,2.985S79.379,118.919,77.73,118.919z"/>
				<path fill="#F7F4EE" d="M92.782,118.919h-5.882c-1.65,0-2.985-1.335-2.985-2.985s1.335-2.985,2.985-2.985h5.882
					c1.65,0,2.985,1.335,2.985,2.985S94.431,118.919,92.782,118.919z"/>
			</g>
		</g>
	</g>
</g>
<g id="pie_layer">
</g>
<g id="Pie_Layer_2" display="none">
</g>
<g id="meals_saved" display="none">
</g>
<g id="consumer_ed_hover" display="none">
</g>
<g id="pop_up" display="none">
</g>
<g id="Layer_2">
</g>
</svg>
