<svg xmlns="http://www.w3.org/2000/svg" viewBox="0 0 416.82 416.83"><defs><style>.cls-1{fill:#fff;}</style></defs><g id="Layer_2" data-name="Layer 2"><g id="Layer_1-2" data-name="Layer 1"><path class="cls-1" d="M208.41,0C93.32,0,0,93.32,0,208.41S93.32,416.83,208.41,416.83s208.41-93.31,208.41-208.42S323.5,0,208.41,0ZM214,98.09H318.32l-25.47,25.46s11.83,11.9,12.42,12.68L305,136l.26.24c.16.18.28.37.41.54a27.81,27.81,0,0,1-.41,33.57A26.73,26.73,0,0,1,303,173a22.43,22.43,0,0,1-2.61,2.28l-31.24,31.25-29.64-29.64,0,0v0l-17,17.05c0,.13,0,.13,0,0L214,202.34Zm-11.23,0V202.34l-25.45-25.45L147.7,206.54s-35.46-35.28-36.19-36.19a27.83,27.83,0,0,1-.38-33.52c.12-.18,12.86-13.29,12.86-13.29L98.55,98.09Zm57.78,228.5c-.84.3-1.66.61-2.51.87s-1.55.41-2.37.61c-.32.08-.62.17-1,.24h0c-.54.13-1.07.29-1.62.39-.92.18-3.57.55-4,.61l-.31,0-.79.11c-1.72.18-5.15.27-5.15.27H171a52.2,52.2,0,0,1-36-14.48l-26.84-26.85-.32-.32a52.21,52.21,0,0,1-15.2-36.75V179.43s.14-4,.36-5.82c0-.26.07-.51.11-.76.23-1.72.52-3.42.9-5.07a.65.65,0,0,1,0-.2h0a53.14,53.14,0,0,1,2.33-7.35,37.46,37.46,0,0,0,7.27,16.27,16.2,16.2,0,0,0,1.26,1.42,2.43,2.43,0,0,1,.2.28c.33.44.56.91.9,1.34l4.19,4.19s133.53,133.2,134,133.51l0,0c.16.13.36.26.54.39a14.66,14.66,0,0,0,1.18,1.07A38.06,38.06,0,0,0,262.08,326C261.58,326.21,261.1,326.4,260.59,326.59Zm63.64-75.34a52.26,52.26,0,0,1-14.79,36.44S283.05,312,280.89,314A27.79,27.79,0,0,1,252,310.8c-.95-.7-36.21-36.18-36.21-36.18l95-95.05c.24-.3.42-.62.63-.93.56-.65,1.16-1.33,1.72-2.08a37.4,37.4,0,0,0,7.32-16.4c.2.52.39,1.05.59,1.58.3.82.61,1.65.86,2.49s.4,1.61.63,2.42c.07.32.15.63.23.94h0a.57.57,0,0,1,0,.13c.14.49.26,1,.37,1.47.2,1,.3,1.93.43,2.88.06.4.14.78.19,1.17a1.43,1.43,0,0,0,0,.22,7.4,7.4,0,0,1,.08.81,46.6,46.6,0,0,1,.29,5.17Z"/></g></g></svg>