<svg xmlns="http://www.w3.org/2000/svg" viewBox="0 0 60 60"><defs><style>.cls-1{fill:#f8f8f7;}</style></defs><g id="Layer_2" data-name="Layer 2"><g id="Layer_1-2" data-name="Layer 1"><g id="Group_173" data-name="Group 173"><path id="Path_730" data-name="Path 730" class="cls-1" d="M31.8,27.8v-.07l0,.07Z"/><path id="Path_731" data-name="Path 731" class="cls-1" d="M0,0V60H60V0ZM21.81,44.33H15.38V25h6.43Zm-3.22-22h0a3.68,3.68,0,1,1,3.7-3.65A3.67,3.67,0,0,1,18.55,22.35ZM45,44.33H38.57V34c0-2.6-.93-4.38-3.26-4.38A3.51,3.51,0,0,0,32,32a4.12,4.12,0,0,0-.21,1.56V44.34H25.37s.08-17.53,0-19.35H31.8v2.74a6.4,6.4,0,0,1,5.79-3.19c4.23,0,7.41,2.77,7.41,8.71Z"/></g></g></g></svg>