<svg xmlns="http://www.w3.org/2000/svg" viewBox="0 0 60 60"><defs><style>.cls-1{fill:#f8f8f7;}</style></defs><g id="Layer_2" data-name="Layer 2"><g id="Layer_1-2" data-name="Layer 1"><path id="Path_732" data-name="Path 732" class="cls-1" d="M0,0V60H60V0ZM41.93,23.88c0,.27,0,.53,0,.8,0,8.13-6.2,17.51-17.52,17.51A17.42,17.42,0,0,1,15,39.43a14.48,14.48,0,0,0,1.47.08,12.31,12.31,0,0,0,7.64-2.63,6.17,6.17,0,0,1-5.75-4.28,6.08,6.08,0,0,0,2.78-.1,6.14,6.14,0,0,1-4.93-6v-.08a6.17,6.17,0,0,0,2.78.77,6.17,6.17,0,0,1-1.9-8.22,17.44,17.44,0,0,0,12.68,6.43,6.16,6.16,0,0,1,10.5-5.62,12.46,12.46,0,0,0,3.91-1.49,6.22,6.22,0,0,1-2.71,3.4,12,12,0,0,0,3.53-1A12.25,12.25,0,0,1,41.93,23.88Z"/></g></g></svg>