<?xml version="1.0" encoding="utf-8"?>
<!-- Generator: Adobe Illustrator 19.1.0, SVG Export Plug-In . SVG Version: 6.00 Build 0)  -->
<svg version="1.1" xmlns="http://www.w3.org/2000/svg" xmlns:xlink="http://www.w3.org/1999/xlink" x="0px" y="0px"
	 viewBox="0 0 150 150" enable-background="new 0 0 150 150" xml:space="preserve">
<g id="bottom">
	<g>
		<circle fill="#E8E3D4" cx="75" cy="75" r="47.038"/>
		<g>
			<path fill="#08786B" d="M119.056,56.306l-2.864-2.864c-0.521-0.521-1.227-0.813-1.963-0.813l-76.774,0.04
				c-2.234,0-4.045,1.811-4.045,4.045l-2.467,45.822c0,1.079,0.429,2.115,1.192,2.878l10.09,4.912l76.83-6.882L119.056,56.306z"/>
			<linearGradient id="SVGID_2_" gradientUnits="userSpaceOnUse" x1="113.162" y1="73.2042" x2="41.7898" y2="82.1607">
				<stop  offset="0" style="stop-color:#FFFFFF"/>
				<stop  offset="1" style="stop-color:#000000"/>
			</linearGradient>
			<path opacity="0.2" fill="url(#SVGID_2_)" d="M119.056,56.306l-2.864-2.864c-0.521-0.521-1.227-0.813-1.963-0.813l-76.774,0.04
				c-2.234,0-4.045,1.811-4.045,4.045l-2.467,45.822c0,1.079,0.429,2.115,1.192,2.878l7.889,3.841
				c1.439,0.701,3.044,0.989,4.637,0.832l66.137-6.516L119.056,56.306z"/>
			<path fill="#2A8175" d="M114.958,56.306H44.937c-4.357,0-7.889,3.532-7.889,7.889v42.033c0,2.263,1.835,4.098,4.098,4.098h73.812
				c2.263,0,4.098-1.835,4.098-4.098V60.404C119.056,58.141,117.222,56.306,114.958,56.306z"/>
			<path fill="#08786B" d="M37.048,62.906v6.435c0,2.259,1.155,4.361,3.062,5.572l20.07,12.742
				c9.893,6.281,22.462,6.521,32.587,0.624l23.01-13.401c2.03-1.182,3.278-3.354,3.278-5.703v-6.269c0-3.645-2.955-6.6-6.6-6.6
				H43.648C40.003,56.306,37.048,59.261,37.048,62.906z"/>
			<circle fill="#2A8175" cx="78.052" cy="83.316" r="3.499"/>
			<polygon fill="#08786B" points="60.325,39.675 60.325,53.39 65.162,53.39 65.162,44.791 85.11,44.791 85.11,53.39 89.946,53.39 
				89.946,39.675 			"/>
		</g>
	</g>
</g>
<g id="Farming" display="none">
</g>
<g id="Manufacturing" display="none">
</g>
<g id="Waste_diverted">
</g>
<g id="jobs">
</g>
<g id="consumer_ed_hover">
</g>
<g id="pop_up" display="none">
</g>
</svg>
