<?xml version="1.0" encoding="utf-8"?>
<!-- Generator: Adobe Illustrator 19.1.0, SVG Export Plug-In . SVG Version: 6.00 Build 0)  -->
<svg version="1.1" xmlns="http://www.w3.org/2000/svg" xmlns:xlink="http://www.w3.org/1999/xlink" x="0px" y="0px"
	 viewBox="0 0 150 150" enable-background="new 0 0 150 150" xml:space="preserve">
<g id="bottom">
	<g>
		<circle fill="#E8E3D4" cx="71.444" cy="82.948" r="47.038"/>
		<g>
			<path fill="#589C8D" d="M83.796,71.947l-0.01-0.01c0.049-0.046,0.109-0.081,0.159-0.131c1.608-1.608,1.609-4.215,0-5.824
				c-1.61-1.61-4.218-1.611-5.827-0.003c-0.051,0.051-0.086,0.11-0.131,0.159l-0.007-0.007l-55.389,49.12
				c-3.338,3.338-3.336,8.748,0,12.084c3.337,3.337,8.744,3.335,12.082-0.002L83.796,71.947z"/>
			<path opacity="0.2" fill="#589C8D" d="M83.796,71.947l-0.01-0.01c0.049-0.046,0.109-0.081,0.159-0.131
				c1.608-1.608,1.609-4.215,0-5.824c-1.61-1.61-4.218-1.611-5.827-0.003c-0.051,0.051-0.086,0.11-0.131,0.159l-0.007-0.007
				l-55.389,49.12c-3.338,3.338-3.336,8.748,0,12.084c3.337,3.337,8.744,3.335,12.082-0.002L83.796,71.947z"/>
			<path fill="#589C8D" d="M129.911,39.124l-1.673-1.673L104.69,59.714l-2.854-2.854L124.1,33.313l-1.672-1.672L98.876,53.9
				l-2.851-2.851l22.261-23.549l-1.673-1.673L93.065,48.089l-2.852-2.852l22.264-23.547l-1.676-1.676L80.474,48.684
				c-5.736,5.736-5.731,15.03,0.005,20.766c5.733,5.733,15.027,5.737,20.762,0.001L129.911,39.124z"/>
			<path opacity="0.2" fill="#589C8D" d="M129.911,39.124l-1.673-1.673L104.69,59.714l-2.854-2.854L124.1,33.313l-1.672-1.672
				L98.876,53.9l-2.851-2.851l22.261-23.549l-1.673-1.673L93.065,48.089l-2.852-2.852l22.264-23.547l-1.676-1.676L80.474,48.684
				c-5.736,5.736-5.731,15.03,0.005,20.766c5.733,5.733,15.027,5.737,20.762,0.001L129.911,39.124z"/>
		</g>
	</g>
</g>
<g id="Farming" display="none">
</g>
<g id="Manufacturing" display="none">
</g>
<g id="Waste_diverted">
</g>
<g id="jobs">
</g>
<g id="consumer_ed_hover">
</g>
<g id="pop_up" display="none">
</g>
</svg>
