<?xml version="1.0" encoding="utf-8"?>
<!-- Generator: Adobe Illustrator 19.1.0, SVG Export Plug-In . SVG Version: 6.00 Build 0)  -->
<svg version="1.1" xmlns="http://www.w3.org/2000/svg" xmlns:xlink="http://www.w3.org/1999/xlink" x="0px" y="0px"
	 viewBox="0 0 250 249.999" enable-background="new 0 0 250 249.999" xml:space="preserve">
<g id="bottom">
	<g>
		<path fill="#CAD9DB" d="M219.871,47.857c1.095-0.074,2.197-0.132,3.305-0.181C200.286,18.654,164.832,0,125,0
			C56.156,0,0.324,55.657,0.014,124.428h2.143v-2.083h0.565h98.323l0.952-15.864h0.014c0-0.003-0.001-0.006-0.001-0.009
			c0-0.002-0.001-0.004-0.001-0.007c-0.658-0.192-1.274-0.471-1.904-0.725c-1.402-0.566-2.755-1.225-3.982-2.072
			c-5.336-3.679-8.836-9.826-8.836-16.801l0.816-29.014l0.815-29.016h3.296l0.034,1.196l1.229,43.864h5.61l1.246-44.446l0.017-0.614
			h3.29l0.017,0.617l1.25,44.444h5.61l0.034-1.204l1.238-43.856h3.29v0.001l1.263,45.059h5.613l0.426-15.158l0.838-29.902h3.291
			l1.629,58.03c0,9.301-6.219,17.129-14.72,19.598c-0.001,0.002-0.001,0.005-0.001,0.008c-0.001,0.003-0.001,0.005-0.001,0.007
			h0.019h0.001l0.95,15.864h21.745c-0.058-1.355-0.06-2.662-0.06-3.858c3.666-60.968,9.407-91.801,17.06-91.801
			c4.656,0,8.447,3.78,8.463,8.434l1.871,87.225h26.518l-5.858-59.175c-0.004-0.036,0.014-0.07,0.011-0.106
			c-0.001-0.053-0.022-0.103-0.022-0.156C184.117,54.247,200.892,49.139,219.871,47.857z"/>
		<g>
			<path fill="#95B5B9" d="M238.517,72.673c-1.112-2.408-2.273-4.788-3.53-7.11c-0.372-0.687-0.775-1.353-1.159-2.032
				c-1.039-0.033-2.092-0.045-3.146-0.055c-0.421-0.004-0.832-0.022-1.255-0.022c-8.467,0-16.508,0.769-23.205,2.108
				c-3.624,0.724-6.868,1.609-9.538,2.643c-0.011,0.004-0.024,0.008-0.035,0.012c0.288,0.111,0.625,0.21,0.926,0.319
				c0.216,0.078,0.443,0.153,0.665,0.229c3.975,1.362,8.938,2.44,14.526,3.163c0.221,0.029,0.444,0.057,0.668,0.085
				c0.953,0.119,1.929,0.228,2.928,0.329c0.576,0.056,1.163,0.104,1.749,0.154c0.754,0.064,1.505,0.129,2.282,0.181
				c0.932,0.061,1.882,0.105,2.833,0.147c0.522,0.024,1.03,0.056,1.561,0.074c1.53,0.05,3.077,0.08,4.639,0.08
				c1.563,0,3.11-0.029,4.639-0.08c0.533-0.018,1.041-0.05,1.565-0.074c0.002,0,0.004-0.001,0.006-0.001
				c0.948-0.042,1.895-0.085,2.824-0.146c0.019-0.001,0.038-0.001,0.057-0.003C238.518,72.674,238.517,72.674,238.517,72.673z"/>
			<path fill="#95B5B9" d="M229.427,185.724c-28.67,0-34.691-8.364-34.691-15.38l-4.226-42.69h-26.929l1.785,83.162
				c0,7.195-5.803,13-12.938,13s-12.938-5.805-12.938-12.943l4.454-73.629c-4.371-1.993-6.311-5.667-7.175-9.591h-22.063
				l1.907,31.812l2.985,49.809c0,6.566-5.318,11.886-11.881,11.886c-3.282,0-6.253-1.33-8.404-3.481
				c-2.151-2.151-3.482-5.122-3.482-8.405l4.897-81.621H2.722H2.157v-3.227H0.014C0.014,124.619,0,124.808,0,125
				c0,3.948,0.205,7.846,0.563,11.701h2.665h81.069c0.819,0,1.596,0.38,2.1,1.029c0.503,0.65,0.674,1.496,0.472,2.291
				l-23.491,90.603l-0.703,2.711c18.35,10.581,39.622,16.664,62.326,16.664c47.028,0,87.971-25.983,109.308-64.367
				c-1.049,0.036-2.1,0.053-3.153,0.066C230.579,185.706,230.004,185.724,229.427,185.724z"/>
		</g>
		<g>
			<path fill="#CAD9DB" d="M249.985,124.428c-0.074-16.482-3.351-32.201-9.22-46.591c-0.919,0.073-1.845,0.139-2.784,0.195
				c-0.009,0.001-0.018,0.001-0.027,0.002c-0.122,0.007-0.245,0.012-0.369,0.019c-1.131,0.065-2.274,0.115-3.429,0.151
				c-0.278,0.009-0.554,0.019-0.832,0.027c-1.288,0.034-2.584,0.057-3.897,0.057c-1.312,0-2.609-0.023-3.896-0.057
				c-0.279-0.008-0.556-0.018-0.833-0.027c-1.155-0.037-2.296-0.088-3.426-0.151c-0.133-0.007-0.266-0.014-0.4-0.022
				c-7.035-0.418-13.529-1.346-19.031-2.694c-0.113-0.027-0.225-0.055-0.337-0.083c-2.177-0.544-4.191-1.154-6.017-1.826
				c-0.137-0.05-0.273-0.101-0.408-0.152c-1.82-0.689-3.443-1.438-4.838-2.245l5.28,53.396l4.514,45.654
				c0.011,6.567,10.993,10.332,29.392,10.332c1.581,0,3.123-0.029,4.632-0.08c1.057-0.035,2.085-0.089,3.104-0.147
				C245.37,163.541,250,144.815,250,125C250,124.808,249.986,124.619,249.985,124.428z"/>
			<path fill="#CAD9DB" d="M25.585,196.176l-1.251,2.911c9.154,12.417,20.557,23.062,33.598,31.374l0.714-2.754l22.216-85.696
				H48.872L25.585,196.176z"/>
			<path fill="#CAD9DB" d="M3.863,142.01h-2.68c2.588,19.013,9.436,36.665,19.576,51.959l1.289-2.998l21.049-48.961H3.863z"/>
			<path fill="#CAD9DB" d="M195.756,62.906c2.881-1.039,6.206-1.934,9.893-2.653c6.399-1.25,13.849-1.978,21.749-2.086
				c0.675-0.009,1.348-0.022,2.029-0.022c0.396,0,0.785,0.009,1.178,0.013c-1.138-1.794-2.32-3.555-3.546-5.286
				c-1.104,0.019-2.192,0.047-3.258,0.09c-16.215,0.66-27.962,4.068-32.399,7.292c-1.272,0.923-1.975,1.832-1.975,2.653
				l-0.001,0.001c0,0.678,0.492,1.417,1.367,2.174C192.235,64.298,193.907,63.574,195.756,62.906z"/>
			<path fill="#CAD9DB" d="M121.956,79.207h-5.614c-1.074,0-2.076-0.319-2.913-0.869c-0.836,0.55-1.838,0.869-2.911,0.869h-5.61
				c-1.073,0-2.074-0.319-2.911-0.868c-0.837,0.549-1.837,0.868-2.91,0.868h-5.61c-0.223,0-0.444-0.014-0.661-0.041l-0.22,7.85
				c0.002,6.525,4.481,12.486,10.895,14.349c2.054,0.597,3.549,2.366,3.794,4.491c0.05,0.425,0.046,0.85-0.006,1.268l-0.913,15.221
				l-0.125,2.083L106.206,125l-0.159,2.654l-4.905,81.758c0.073,3.563,2.994,6.44,6.575,6.44c3.578,0,6.498-2.876,6.57-6.44
				l-4.901-81.757L109.228,125l-0.034-0.572l-0.125-2.083l-0.907-15.136c-0.064-0.45-0.07-0.91-0.014-1.37
				c0.256-2.112,1.749-3.879,3.792-4.473c6.412-1.862,10.891-7.824,10.891-14.498l-0.217-7.701
				C122.398,79.194,122.178,79.207,121.956,79.207z"/>
			<polygon fill="#CAD9DB" points="93.477,73.898 92.249,30.033 93.477,73.898 			"/>
			<polygon fill="#CAD9DB" points="114.387,122.344 113.437,106.481 113.436,106.481 			"/>
			<path fill="#CAD9DB" d="M91.542,99.28c-0.299-0.388-0.589-0.781-0.86-1.19C90.954,98.499,91.243,98.892,91.542,99.28z"/>
			<path fill="#CAD9DB" d="M91.542,99.28c0.805,1.043,1.681,2.027,2.669,2.897C93.223,101.307,92.346,100.323,91.542,99.28z"/>
			<path fill="#CAD9DB" d="M88.103,57.853l-0.816,29.014c0,4.155,1.263,8.001,3.395,11.222c-2.132-3.22-3.395-7.067-3.395-11.222
				L88.103,57.853z"/>
			<polygon fill="#CAD9DB" points="122.381,58.74 121.955,73.898 121.956,73.898 			"/>
			<path fill="#CAD9DB" d="M99.313,217.68c-2.151-2.151-3.482-5.122-3.482-8.405C95.83,212.558,97.161,215.53,99.313,217.68z"/>
			<polygon fill="#CAD9DB" points="114.547,125 114.705,127.654 116.613,159.466 114.706,127.654 			"/>
		</g>
		<path fill="#CAD9DB" d="M158.27,127.654L158.213,125l-0.012-0.572l-0.045-2.083l-1.871-87.14c0-0.019,0-0.039,0-0.057
			c0-1.612-1.213-2.945-2.779-3.129c-4.605,4.558-9.759,47.279-12.129,86.629c0.001,1.347,0.039,2.554,0.1,3.697
			c0.039,0.726,0.086,1.435,0.159,2.083c0.022,0.202,0.06,0.377,0.086,0.572c0.132,0.977,0.318,1.861,0.56,2.654
			c0.828,2.715,2.356,4.421,5.183,5.243c1.136,0.329,1.914,1.366,1.914,2.548l-4.584,75.59c0.005,4.047,3.428,7.472,7.633,7.472
			c4.205,0,7.628-3.425,7.628-7.633L158.27,127.654z"/>
		<g>
			<path fill="#4D868E" d="M240.76,77.824c-0.351-0.861-0.706-1.718-1.076-2.569c-0.001-0.002-0.002-0.004-0.003-0.006
				c-0.376-0.865-0.77-1.72-1.164-2.574c-0.019,0.001-0.038,0.001-0.057,0.003c-0.92,0.062-1.872,0.104-2.824,0.146
				c-0.001,0.001-0.004,0.001-0.006,0.001c-0.523,0.024-1.037,0.057-1.565,0.074c-1.512,0.05-3.055,0.08-4.639,0.08
				c-1.584,0-3.128-0.029-4.639-0.08c-0.527-0.017-1.039-0.05-1.561-0.074c-0.955-0.043-1.91-0.085-2.833-0.147
				c-0.772-0.051-1.524-0.118-2.282-0.181c-0.586-0.05-1.177-0.097-1.749-0.154c-0.996-0.098-1.965-0.21-2.928-0.329
				c-0.223-0.029-0.447-0.055-0.668-0.085c-5.589-0.724-10.552-1.801-14.526-3.163c-0.228-0.075-0.446-0.152-0.665-0.229
				c-0.301-0.109-0.638-0.207-0.926-0.319c0.011-0.004,0.024-0.008,0.035-0.012c2.67-1.034,5.914-1.919,9.538-2.643
				c6.696-1.339,14.737-2.108,23.205-2.108c0.423,0,0.834,0.018,1.255,0.022c1.054,0.009,2.108,0.022,3.146,0.055
				c-0.118-0.209-0.24-0.416-0.359-0.625c-0.397-0.692-0.784-1.391-1.193-2.075c-0.115-0.19-0.217-0.388-0.333-0.578
				c-0.43-0.71-0.894-1.395-1.338-2.095c-0.393-0.004-0.782-0.013-1.178-0.013c-0.681,0-1.354,0.013-2.029,0.022
				c-7.9,0.108-15.35,0.836-21.749,2.086c-3.687,0.719-7.012,1.614-9.893,2.653c-1.849,0.668-3.521,1.391-4.962,2.175
				c-0.875-0.757-1.367-1.495-1.367-2.174l0.001-0.001c0-0.821,0.703-1.73,1.975-2.653c4.436-3.224,16.184-6.632,32.399-7.292
				c1.066-0.043,2.154-0.071,3.258-0.09c-0.621-0.877-1.225-1.768-1.868-2.628c-0.652-0.872-1.342-1.713-2.015-2.568
				c-1.108,0.049-2.209,0.107-3.305,0.181c-18.979,1.282-35.754,6.389-35.754,15.05c0,0.054,0.021,0.103,0.022,0.156
				c0.002,0.036-0.015,0.07-0.011,0.106l5.858,59.175h-26.518l-1.871-87.225c-0.016-4.654-3.807-8.434-8.463-8.434
				c-7.653,0-13.394,30.833-17.06,91.801c0,1.196,0.002,2.504,0.06,3.858h-21.745l-0.951-15.864h-0.019
				c0.001-0.002,0.001-0.004,0.001-0.007c0-0.003,0-0.006,0.001-0.008c3.188-0.926,6.055-2.605,8.393-4.833
				c3.898-3.714,6.327-8.952,6.327-14.765v-0.001l0,0l-0.815-29.014l-0.815-29.016h-3.291l-0.838,29.902l-0.425,15.158h-5.614
				l-1.263-45.059v-0.001h-3.29l-1.238,43.856l-0.034,1.204h-5.61l-1.25-44.444l-0.017-0.617h-3.29l-0.017,0.614l-1.246,44.446
				h-5.61l-1.228-43.864l-0.034-1.196h-3.296l-0.815,29.016l-0.815,29.015c0,6.975,3.499,13.122,8.835,16.8
				c1.227,0.847,2.581,1.507,3.982,2.072c0.63,0.254,1.246,0.533,1.904,0.725c0.001,0.003,0.001,0.005,0.001,0.007
				c0,0.003,0.001,0.006,0.001,0.009h-0.014l-0.952,15.864H2.722H2.157v2.083v3.227h0.565h98.005l-4.897,81.621
				c0,3.283,1.332,6.254,3.482,8.405c2.151,2.151,5.122,3.481,8.404,3.481c6.564,0,11.881-5.32,11.881-11.886l-2.985-49.809
				l-1.907-31.812L114.547,125l0.159,2.654h22.063c0.864,3.924,2.804,7.598,7.175,9.591l-4.454,73.629
				c0,7.138,5.803,12.943,12.938,12.943s12.938-5.805,12.938-13l-1.785-83.162h26.929l4.226,42.69c0,7.016,6.021,15.38,34.691,15.38
				c0.576,0,1.152-0.018,1.729-0.025c1.053-0.013,2.104-0.03,3.153-0.066c0.5-0.898,0.981-1.807,1.459-2.719
				c0.473-0.904,0.944-1.809,1.395-2.726c-1.019,0.058-2.046,0.112-3.104,0.147c-1.509,0.05-3.051,0.08-4.632,0.08
				c-18.398,0-29.381-3.765-29.392-10.332l-4.514-45.654l-5.28-53.396c1.395,0.806,3.018,1.556,4.838,2.245
				c0.135,0.051,0.271,0.102,0.408,0.152c1.845,0.679,3.86,1.288,6.017,1.826c0.112,0.028,0.225,0.055,0.337,0.083
				c5.502,1.348,11.995,2.276,19.031,2.694c0.134,0.008,0.267,0.014,0.4,0.022c1.13,0.064,2.271,0.115,3.426,0.151
				c0.277,0.009,0.554,0.019,0.833,0.027c1.287,0.034,2.583,0.057,3.896,0.057c1.313,0,2.609-0.023,3.897-0.057
				c0.278-0.008,0.554-0.018,0.832-0.027c1.155-0.037,2.298-0.087,3.429-0.151c0.123-0.007,0.247-0.012,0.369-0.019
				c0.009-0.001,0.019-0.001,0.027-0.002c0.938-0.056,1.865-0.121,2.784-0.195C240.763,77.832,240.762,77.828,240.76,77.824z
				 M160.056,210.874c0,4.208-3.423,7.633-7.628,7.633c-4.206,0-7.628-3.425-7.633-7.472l4.584-75.59
				c0-1.182-0.778-2.219-1.914-2.548c-2.827-0.822-4.354-2.528-5.183-5.243c-0.242-0.793-0.428-1.678-0.56-2.654
				c-0.027-0.195-0.064-0.37-0.086-0.572c-0.073-0.648-0.12-1.357-0.159-2.083c-0.061-1.143-0.1-2.35-0.1-3.697
				c2.37-39.35,7.524-82.071,12.129-86.629c1.566,0.184,2.779,1.517,2.779,3.129c0,0.019,0,0.039,0,0.057l1.871,87.14l0.045,2.083
				l0.012,0.572l0.057,2.654L160.056,210.874z M109.386,127.654l4.901,81.757c-0.073,3.564-2.992,6.44-6.57,6.44
				c-3.581,0-6.502-2.876-6.575-6.44l4.905-81.758l0.159-2.654l0.034-0.572l0.125-2.083l0.913-15.221
				c0.052-0.418,0.055-0.843,0.006-1.268c-0.245-2.125-1.74-3.894-3.794-4.491c-6.414-1.863-10.893-7.824-10.895-14.349l0.22-7.85
				c0.217,0.027,0.438,0.041,0.661,0.041h5.61c1.073,0,2.073-0.319,2.91-0.868c0.837,0.549,1.838,0.868,2.911,0.868h5.61
				c1.074,0,2.075-0.319,2.911-0.869c0.837,0.55,1.839,0.869,2.913,0.869h5.614c0.222,0,0.441-0.014,0.657-0.04l0.217,7.701
				c0,6.674-4.478,12.636-10.891,14.498c-2.043,0.594-3.536,2.361-3.792,4.473c-0.055,0.459-0.05,0.92,0.014,1.37l0.907,15.136
				l0.125,2.083l0.034,0.572L109.386,127.654z"/>
			<path fill="#4D868E" d="M84.296,136.701H3.227H0.563c0.083,0.889,0.182,1.772,0.283,2.656c0.102,0.888,0.217,1.772,0.337,2.654
				h2.68h39.234l-21.049,48.961l-1.289,2.998c1.151,1.736,2.341,3.443,3.575,5.117l1.251-2.911l23.287-54.166h31.991l-22.216,85.696
				l-0.714,2.754c0.785,0.5,1.556,1.019,2.353,1.502c0.785,0.475,1.593,0.914,2.389,1.373l0.703-2.711l23.491-90.603
				c0.202-0.795,0.032-1.641-0.472-2.291C85.892,137.081,85.115,136.701,84.296,136.701z"/>
		</g>
	</g>
</g>
<g id="pie_layer" display="none">
</g>
<g id="Pie_Layer_2" display="none">
</g>
<g id="meals_saved" display="none">
</g>
<g id="consumer_ed_hover" display="none">
</g>
<g id="pop_up" display="none">
</g>
<g id="Layer_9">
</g>
<g id="Layer_2" display="none">
</g>
<g id="Layer_8">
</g>
<g id="Layer_10">
</g>
</svg>
