<?xml version="1.0" encoding="utf-8"?>
<!-- Generator: Adobe Illustrator 19.1.0, SVG Export Plug-In . SVG Version: 6.00 Build 0)  -->
<svg version="1.1" xmlns="http://www.w3.org/2000/svg" xmlns:xlink="http://www.w3.org/1999/xlink" x="0px" y="0px"
	 viewBox="0 0 120 120" enable-background="new 0 0 120 120" xml:space="preserve">
<g id="bottom">
	<g>
		<g>
			<polygon fill="none" points="15.723,102.358 15.723,54.274 15.723,47.058 15.723,43.648 15.723,98.948 75.563,102.358 
				75.563,102.358 			"/>
			<polygon fill="none" points="95.919,102.358 78.973,102.358 78.973,102.358 95.919,102.358 95.919,102.358 			"/>
			<rect x="99.329" y="102.358" fill="none" width="4.948" height="0"/>
			<rect x="67" y="64.117" fill="#848586" width="0" height="24.85"/>
			<path fill="#D3663B" d="M15.723,54.274v48.084h59.84V64.117v-3.41h3.41h16.946h3.41v3.41v38.241h4.948V54.274H15.723z
				 M70.41,64.117v24.85v3.41H67H24.312h-3.41v-3.41v-24.85v-3.41h3.41H67h3.41V64.117z"/>
			<rect x="95.919" y="64.117" fill="#D3663B" width="0" height="38.241"/>
			<polygon fill="#F6F4EE" points="23.269,43.648 23.269,43.648 23.252,43.733 			"/>
			<polygon fill="#F6F4EE" points="96.73,43.648 96.73,43.648 96.748,43.733 			"/>
			<rect x="104.276" y="54.274" fill="#F6F4EE" width="0" height="48.084"/>
			<rect x="78.973" y="64.117" fill="#D3663B" width="16.946" height="38.241"/>
			<rect x="97.624" y="100.653" fill="#F6F4EE" width="0" height="3.41"/>
			<rect x="75.563" y="102.358" fill="#F6F4EE" width="3.41" height="0"/>
			<rect x="24.312" y="64.117" fill="#F0ECE3" width="42.689" height="24.85"/>
			<path fill="#F6F4EE" d="M24.312,60.707h-3.41v3.41v24.85v3.41h3.41H67h3.41v-3.41v-24.85v-3.41H67H24.312z M67,88.967L67,88.967
				H24.312v-24.85H67l0,0V88.967z"/>
			<rect x="15.723" y="47.058" fill="#C05D34" width="88.553" height="7.216"/>
			<rect x="104.276" y="47.058" fill="#747577" width="0" height="7.216"/>
			<polygon fill="#CE776F" points="38.496,43.733 38.507,43.648 23.269,43.648 23.252,43.733 			"/>
			<polygon fill="#B4353B" points="38.507,43.648 38.496,43.733 53.677,43.733 53.677,43.648 			"/>
			<polygon fill="#B4353B" points="23.269,43.648 15.723,43.648 12.314,43.648 12.314,43.733 23.252,43.733 			"/>
			<polygon fill="#CE776F" points="81.504,43.733 96.748,43.733 96.73,43.648 81.493,43.648 			"/>
			<polygon fill="#B4353B" points="66.323,43.648 66.323,43.733 81.504,43.733 81.493,43.648 			"/>
			<polygon fill="#B4353B" points="107.686,43.733 107.686,43.648 104.276,43.648 96.73,43.648 96.748,43.733 			"/>
			<rect x="53.677" y="43.648" fill="#CE776F" width="12.646" height="0.085"/>
			<rect x="15.723" y="17.726" fill="#D3663B" width="88.553" height="7.395"/>
			<polygon fill="#F0ECE3" points="41.027,24.874 28.349,24.874 23.269,47.345 38.507,47.345 			"/>
			<polygon fill="#B4353B" points="53.677,47.345 53.677,24.874 41.027,24.874 38.507,47.345 			"/>
			<polygon fill="#B4353B" points="15.723,47.345 23.269,47.345 28.345,24.874 15.695,24.874 7.947,47.43 12.314,47.43 
				12.314,47.345 			"/>
			<polygon fill="#F0ECE3" points="96.73,47.345 91.651,24.874 78.973,24.874 81.493,47.345 			"/>
			<polygon fill="#B4353B" points="81.493,47.345 78.973,24.874 66.323,24.874 66.323,47.345 			"/>
			<polygon fill="#B4353B" points="107.686,47.345 107.686,47.43 112.053,47.43 104.305,24.874 91.655,24.874 96.73,47.345 
				104.276,47.345 			"/>
			<rect x="53.677" y="24.874" fill="#F0ECE3" width="12.646" height="22.471"/>
			<polygon opacity="0.2" fill="#565859" points="60,102.273 104.276,102.358 104.276,47.057 112.053,47.43 104.276,25.122 
				104.276,17.642 60,17.642 			"/>
		</g>
	</g>
</g>
<g id="Waste_Diverted">
</g>
<g id="Jobs">
</g>
<g id="consumer_ed_hover">
</g>
<g id="Supply_click" display="none">
</g>
<g id="Supply_hover" display="none">
</g>
<g id="Key_Solutions" display="none">
</g>
</svg>
