<svg id="Layer_1" data-name="Layer 1" xmlns="http://www.w3.org/2000/svg" viewBox="0 0 100 100"><defs><style>.cls-1{fill:#f2f0eb;}.cls-2{fill:#424547;}</style></defs><circle class="cls-1" cx="49.64" cy="50" r="37.53"/><path class="cls-2" d="M31.35,71.92a9.51,9.51,0,0,1-1.19-.08A8.8,8.8,0,0,1,22.77,65L18.86,46.46a8.79,8.79,0,0,1,6.78-10.4l34.89-7.37a8.79,8.79,0,0,1,10.4,6.78,1,1,0,0,1-2,.41,6.79,6.79,0,0,0-8-5.23L26.05,38a6.79,6.79,0,0,0-5.23,8l3.9,18.49a6.81,6.81,0,0,0,5.71,5.32,7,7,0,0,0,2.33-.09,1,1,0,0,1,.41,2A9.29,9.29,0,0,1,31.35,71.92Z"/><path class="cls-2" d="M79.11,74.49H43.46a8.79,8.79,0,0,1-8.78-8.78V46.82A8.79,8.79,0,0,1,43.46,38H79.11a8.79,8.79,0,0,1,8.78,8.79V65.71A8.79,8.79,0,0,1,79.11,74.49ZM43.46,40a6.79,6.79,0,0,0-6.78,6.79V65.71a6.79,6.79,0,0,0,6.78,6.78H79.11a6.79,6.79,0,0,0,6.78-6.78V46.82A6.79,6.79,0,0,0,79.11,40Z"/><path class="cls-2" d="M20.17,48.79a1,1,0,0,1-.25-2l9-2.24a1,1,0,1,1,.48,1.94l-9,2.24A1,1,0,0,1,20.17,48.79Z"/><path class="cls-2" d="M21.1,52.52a1,1,0,0,1-1-.77,1,1,0,0,1,.74-1.21l11.32-2.7a1,1,0,0,1,1.21.74,1,1,0,0,1-.74,1.2L21.33,52.49Z"/><path class="cls-2" d="M86.89,47.48H35.68a1,1,0,0,1,0-2H86.89a1,1,0,0,1,0,2Z"/><path class="cls-2" d="M86.89,52.14H35.68a1,1,0,1,1,0-2H86.89a1,1,0,0,1,0,2Z"/><path class="cls-2" d="M54.3,57.73h-14a1,1,0,0,1,0-2h14a1,1,0,0,1,0,2Z"/><path class="cls-2" d="M77.12,69.83a4.26,4.26,0,1,1,4.26-4.26A4.26,4.26,0,0,1,77.12,69.83Zm0-6.51a2.26,2.26,0,1,0,2.26,2.25A2.26,2.26,0,0,0,77.12,63.32Z"/></svg>