<svg id="Layer_1" data-name="Layer 1" xmlns="http://www.w3.org/2000/svg" viewBox="0 0 100 100"><defs><style>.cls-1{fill:#f2f0eb;}.cls-2{fill:#424547;}</style></defs><circle class="cls-1" cx="50" cy="50" r="41.04"/><path class="cls-2" d="M97.52,34.85a6.66,6.66,0,0,0-1.36-4.12L88.63,21.1a6.48,6.48,0,0,0-5.1-2.42,6.26,6.26,0,0,0-3.33.93l-7.35,4.57a6.68,6.68,0,0,1-3.37.82,6,6,0,0,1-2.59-.51L59.7,21A8.59,8.59,0,0,0,56,20.22a9.38,9.38,0,0,0-5.28,1.52l-.84.59L47,20.91a10.87,10.87,0,0,0-4.68-1,11.41,11.41,0,0,0-4.3.79l-4.9,2.09a8.92,8.92,0,0,1-3.32.57,9,9,0,0,1-3.32-.57l-4.9-2.09a7.16,7.16,0,0,0-2.8-.54,8.42,8.42,0,0,0-3.18.62,7.29,7.29,0,0,0-2.69,1.85L4,32.65a5.8,5.8,0,0,0,.56,8.29L12.85,48,8.9,52.16a5.9,5.9,0,0,0,.2,8.34l.8.76a5.92,5.92,0,0,0,2.61,1.41,6,6,0,0,0-.73,2.8,5.88,5.88,0,0,0,1.83,4.27h0l.8.76a5.87,5.87,0,0,0,4.09,1.62,5.81,5.81,0,0,0,2.31-.46,5.78,5.78,0,0,0,1.64,2.85l.8.77a5.94,5.94,0,0,0,4.09,1.62,6,6,0,0,0,3.28-1,5.82,5.82,0,0,0,1.54,2.53l.8.76a5.94,5.94,0,0,0,8.38-.2l3.49-3.64,4.74,4.39a6,6,0,0,0,8.37-.3l.76-.81A5.87,5.87,0,0,0,60,76.24l1.84,1.69a6,6,0,0,0,8.37-.31l.76-.81a6,6,0,0,0,1.51-3.25,6.07,6.07,0,0,0,1.47.21,5.94,5.94,0,0,0,4.34-1.88l.75-.81a5.8,5.8,0,0,0,1.42-5.33A5.91,5.91,0,0,0,84,64l.76-.81a5.89,5.89,0,0,0-.31-8.34l-1.41-1.3L95.84,39.37A6.7,6.7,0,0,0,97.52,34.85ZM11.33,58.17a2.68,2.68,0,0,1-.09-3.79l8.09-8.44a2.71,2.71,0,0,1,2-.83,2.78,2.78,0,0,1,1.86.74l.79.76a5.09,5.09,0,0,1,.83,1.94,2.67,2.67,0,0,1-.47,1.52l-8.74,9.1a2.72,2.72,0,0,1-1.56.49,2.68,2.68,0,0,1-1.86-.73ZM18.5,68.91a2.69,2.69,0,0,1-1.86-.74l-.8-.76h0a2.68,2.68,0,0,1-.09-3.79S26.53,52.4,26.62,52.29a2.71,2.71,0,0,1,3.72,0l.81.77h0a2.67,2.67,0,0,1,.09,3.78L20.45,68.08A2.69,2.69,0,0,1,18.5,68.91Zm8.84,4.77A2.68,2.68,0,0,1,25.48,73l-.8-.77a2.61,2.61,0,0,1-.83-1.94,2.66,2.66,0,0,1,.59-1.67L32,60.74a2.7,2.7,0,0,1,3.66,0l.8.77h0a2.68,2.68,0,0,1,.09,3.79l-7.21,7.53A2.68,2.68,0,0,1,27.34,73.68ZM39,76.79a2.72,2.72,0,0,1-2,.82,2.65,2.65,0,0,1-1.86-.74l-.8-.76a2.65,2.65,0,0,1-.83-1.94,2.69,2.69,0,0,1,.74-1.85l4.55-4.75a2.71,2.71,0,0,1,3.81-.09l.81.76h0A2.71,2.71,0,0,1,43.56,72ZM82.42,61l-.75.81a2.7,2.7,0,0,1-2,.85,2.67,2.67,0,0,1-1.83-.71L65.14,50.13l-2.2,2.36L76.56,65.1a2.66,2.66,0,0,1,.85,2,2.63,2.63,0,0,1-.71,1.82l-.76.81a2.71,2.71,0,0,1-3.8.14L59.42,58.08l-2.2,2.35L68.51,70.88a2.63,2.63,0,0,1,.83,1.93,2.66,2.66,0,0,1-.72,1.82l-.75.81a2.72,2.72,0,0,1-3.81.14L52.79,65.17h0l-2.2,2.36h0l0,0,5.64,5.21a2.66,2.66,0,0,1,0,3.67l-.76.81a2.7,2.7,0,0,1-3.79.14l-4.92-4.55a5.79,5.79,0,0,0-1.16-6.93l-.81-.77a5.93,5.93,0,0,0-4.08-1.62c-.12,0-.23,0-.34,0s0-.05,0-.08c0-1.55-1.84-4.27-1.84-4.27l-.8-.76a5.88,5.88,0,0,0-3-1.52,5.94,5.94,0,0,0,.35-2,5.86,5.86,0,0,0-1.83-4.27l-.8-.76a5.94,5.94,0,0,0-4.09-1.63c-.17,0-.34,0-.51,0a5.82,5.82,0,0,0-1.81-4.08h0l-.8-.76a6,6,0,0,0-8.38.19l-1.91,2L6.63,38.5a2.58,2.58,0,0,1-.92-2,2.62,2.62,0,0,1,.66-1.73l8.93-10a4,4,0,0,1,1.49-1,5.3,5.3,0,0,1,2-.38,4,4,0,0,1,1.53.28l4.9,2.09a12,12,0,0,0,4.59.83,12,12,0,0,0,4.6-.83l4.9-2.09a8.06,8.06,0,0,1,3-.53,7.81,7.81,0,0,1,3.23.63l1.31.65-5,3.51a5.77,5.77,0,0,0-2.46,4.74,5.68,5.68,0,0,0,1.15,3.45h0l.66.88a6.41,6.41,0,0,0,5.15,2.53,6.26,6.26,0,0,0,3.23-.88l3-1.79A5,5,0,0,1,55,36.27,5.2,5.2,0,0,1,58,37.1L66.22,43a82.54,82.54,0,0,1,6.5,5.3l9.57,8.84a2.7,2.7,0,0,1,.85,2A2.64,2.64,0,0,1,82.42,61Zm11-23.73L80.7,51.31,74.92,46a86.29,86.29,0,0,0-6.81-5.55l-8.26-5.93A8.32,8.32,0,0,0,55,33.06a8,8,0,0,0-4.15,1.06l-3,1.8a3.08,3.08,0,0,1-1.56.41,3.2,3.2,0,0,1-2.56-1.22l-.66-.89h0a2.62,2.62,0,0,1-.52-1.54,2.58,2.58,0,0,1,1.1-2.1l8.84-6.21A6.22,6.22,0,0,1,56,23.44a5.39,5.39,0,0,1,2.34.46l7.19,3.49a9.23,9.23,0,0,0,4,.83,9.91,9.91,0,0,0,5.09-1.31l7.34-4.57a3.08,3.08,0,0,1,1.62-.45,3.29,3.29,0,0,1,2.55,1.18l7.53,9.64a3.74,3.74,0,0,1-.16,4.51Z"/><path class="cls-2" d="M53.58,81.82a6.38,6.38,0,0,1-4.35-1.7l-4.38-4.06L41.7,79.35a6.47,6.47,0,0,1-4.65,2h0a6.41,6.41,0,0,1-4.42-1.76l-.81-.77a6.45,6.45,0,0,1-1.46-2.15,6.39,6.39,0,0,1-3,.75h0a6.39,6.39,0,0,1-4.42-1.76l-.81-.77a6.3,6.3,0,0,1-1.62-2.56,6.29,6.29,0,0,1-2,.31h0a6.37,6.37,0,0,1-4.42-1.76l-2.9-2.76.87.39A6.26,6.26,0,0,1,11.81,63a6.2,6.2,0,0,1-2.25-1.36l-.8-.76a6.38,6.38,0,0,1-.22-9l3.58-3.74L4.2,41.32a6.31,6.31,0,0,1-.62-9l8.93-10a7.6,7.6,0,0,1,2.87-2,8.49,8.49,0,0,1,6.36-.08l4.9,2.09a8.89,8.89,0,0,0,3.13.53,8.31,8.31,0,0,0,3.13-.53l4.9-2.09a11.79,11.79,0,0,1,4.49-.83,11.18,11.18,0,0,1,4.9,1l2.6,1.29.59-.42A9.83,9.83,0,0,1,56,19.72a9.15,9.15,0,0,1,4,.84L67.11,24a5.59,5.59,0,0,0,2.37.46,6.51,6.51,0,0,0,3.1-.74l7.35-4.57a6.78,6.78,0,0,1,3.6-1A6.91,6.91,0,0,1,89,20.79l7.53,9.64A7.1,7.1,0,0,1,98,34.85h0a7.21,7.21,0,0,1-1.8,4.85L83.77,53.47l1,1a6.4,6.4,0,0,1,2.05,4.69,6.33,6.33,0,0,1-1.72,4.35l-.75.81a6.26,6.26,0,0,1-3.33,1.86,6.06,6.06,0,0,1,.07.92,6.32,6.32,0,0,1-1.71,4.35l-.76.81a6.43,6.43,0,0,1-4.7,2,5.89,5.89,0,0,1-1.07-.11,6.27,6.27,0,0,1-1.55,3l-.75.8a6.45,6.45,0,0,1-4.71,2h0a6.4,6.4,0,0,1-4.36-1.7l-1.28-1.18A6,6,0,0,1,59.06,79l-.76.81a6.42,6.42,0,0,1-4.69,2Zm-8.77-7.16,5.1,4.72a5.39,5.39,0,0,0,3.68,1.44h0a5.43,5.43,0,0,0,4-1.71l.76-.82a5.28,5.28,0,0,0,1.21-2.19l.22-.78,2.44,2.24A5.39,5.39,0,0,0,65.88,79h0a5.47,5.47,0,0,0,4-1.72l.75-.81a5.29,5.29,0,0,0,1.38-3l.07-.57.55.14a5.24,5.24,0,0,0,5.32-1.52l.76-.81a5.36,5.36,0,0,0,1.44-3.67A5.54,5.54,0,0,0,80,65.86l-.12-.54.54-.07a5.38,5.38,0,0,0,3.26-1.64l.75-.81a5.38,5.38,0,0,0-.28-7.63l-1.78-1.64L95.47,39a6.4,6.4,0,0,0,.29-8l-7.53-9.63a5.91,5.91,0,0,0-4.7-2.23,5.71,5.71,0,0,0-3.07.86L73.12,24.6a7.34,7.34,0,0,1-3.64.9,6.69,6.69,0,0,1-2.81-.56l-7.19-3.48A8,8,0,0,0,56,20.72a9,9,0,0,0-5,1.43l-1.08.76-3.12-1.55a10.21,10.21,0,0,0-4.46-.92,10.71,10.71,0,0,0-4.1.75l-4.9,2.09a10,10,0,0,1-3.52.61,9.82,9.82,0,0,1-3.52-.61l-4.9-2.09a7.54,7.54,0,0,0-5.6.08A6.81,6.81,0,0,0,13.25,23L4.33,33a5.3,5.3,0,0,0,.52,7.57L13.58,48l-4.32,4.5a5.34,5.34,0,0,0-1.49,3.72,5.41,5.41,0,0,0,1.67,3.9l.81.76a5.31,5.31,0,0,0,2.39,1.3l.62.16-.31.56a5.34,5.34,0,0,0,1,6.47l.93.88a5.44,5.44,0,0,0,3.61,1.36h0a5.52,5.52,0,0,0,2.11-.42l.53-.23.14.57a5.36,5.36,0,0,0,1.5,2.61l.8.76a5.41,5.41,0,0,0,3.74,1.49h0a5.43,5.43,0,0,0,3-.91l.56-.37.2.64a5.37,5.37,0,0,0,1.4,2.32l.81.76A5.38,5.38,0,0,0,37,80.33h0A5.48,5.48,0,0,0,41,78.66Zm8.8,4a3.13,3.13,0,0,1-2.17-.85L46.24,73l.18-.34A5.44,5.44,0,0,0,47,70.18a5.38,5.38,0,0,0-1.68-3.9l-.8-.77A5.44,5.44,0,0,0,40.82,64h-.14l-.18,0-.53,0v-.53l.5,0h0L40,63.46c0-1.1-1.21-3.16-1.72-3.93l-.76-.72a5.37,5.37,0,0,0-2.73-1.39l-.58-.11.2-.55A5.32,5.32,0,0,0,33,51.07l-.81-.76a5.41,5.41,0,0,0-3.74-1.49l-.26,0-.73.07,0-.53a5.33,5.33,0,0,0-1.65-3.74L25,43.89a5.38,5.38,0,0,0-3.73-1.49h0a5.44,5.44,0,0,0-3.92,1.67L15.12,46.4,6.3,38.88A3.09,3.09,0,0,1,6,34.46l8.93-10a4.42,4.42,0,0,1,1.67-1.14,5.88,5.88,0,0,1,2.15-.42h0a4.52,4.52,0,0,1,1.73.32l4.89,2.09a11.51,11.51,0,0,0,4.41.79,11.49,11.49,0,0,0,4.4-.79l4.89-2.09a8.8,8.8,0,0,1,3.23-.57,8.16,8.16,0,0,1,3.46.68l2.05,1-5.68,4a5.28,5.28,0,0,0-1.2,7.48l.66.89a6,6,0,0,0,4.76,2.32,5.72,5.72,0,0,0,3-.81l3-1.79A5.33,5.33,0,0,1,55,35.77a5.66,5.66,0,0,1,3.22.92l8.26,5.92C68.38,44,71.38,46.4,73.06,48l9.56,8.85a3.11,3.11,0,0,1,1,2.33,3.14,3.14,0,0,1-.85,2.16L82,62.1a3.14,3.14,0,0,1-2.34,1,3.21,3.21,0,0,1-2.17-.84L65.17,50.84l-1.52,1.62L76.9,64.74a3.18,3.18,0,0,1,.16,4.49l-.75.81a3.16,3.16,0,0,1-2.34,1,3.21,3.21,0,0,1-2.17-.84L59.44,58.78l-1.51,1.63,10.92,10.1a3.14,3.14,0,0,1,1,2.3A3.21,3.21,0,0,1,69,75l-.76.81a3.18,3.18,0,0,1-2.34,1,3.21,3.21,0,0,1-2.17-.85L52.81,65.87,51.3,67.5l5.32,4.91a3.17,3.17,0,0,1,.08,4.38l-.76.81A3.14,3.14,0,0,1,53.61,78.61Zm-6.14-5.88L52.12,77a2.13,2.13,0,0,0,1.49.58,2.18,2.18,0,0,0,1.6-.69l.75-.81a2.15,2.15,0,0,0,0-3l-6-5.6,2.87-3.1.34.38L64.4,75.21a2.14,2.14,0,0,0,1.49.58,2.17,2.17,0,0,0,1.61-.69l.76-.81a2.18,2.18,0,0,0-.09-3.05L56.51,60.46l2.88-3.09L72.48,69.48a2.23,2.23,0,0,0,3.1-.12l.75-.81a2.12,2.12,0,0,0,.58-1.48,2.17,2.17,0,0,0-.69-1.6l-14-13,2.88-3.08L78.2,61.53a2.26,2.26,0,0,0,3.1-.11l.76-.81a2.14,2.14,0,0,0,.58-1.48,2.18,2.18,0,0,0-.69-1.6l-9.57-8.84a79.52,79.52,0,0,0-6.45-5.26L57.67,37.5A4.91,4.91,0,0,0,55,36.77a4.5,4.5,0,0,0-2.22.53l-3,1.8a6.8,6.8,0,0,1-3.49.95,7,7,0,0,1-5.55-2.72l-.67-.89a6.29,6.29,0,0,1,1.44-8.9l4.31-3-.56-.27a7.23,7.23,0,0,0-3-.58,7.76,7.76,0,0,0-2.83.49l-4.9,2.09a12.52,12.52,0,0,1-4.79.87,12.5,12.5,0,0,1-4.8-.87l-4.9-2.09a3.43,3.43,0,0,0-1.33-.24h0a4.88,4.88,0,0,0-1.77.34,3.63,3.63,0,0,0-1.31.88l-8.92,10a2.06,2.06,0,0,0-.54,1.39A2.09,2.09,0,0,0,7,38.12L15.05,45l1.58-1.65a6.47,6.47,0,0,1,4.65-2h0a6.43,6.43,0,0,1,4.42,1.76l.8.76a6.3,6.3,0,0,1,1.93,3.9h.06a6.43,6.43,0,0,1,4.42,1.76l.8.77a6.36,6.36,0,0,1,2,4.63,6.19,6.19,0,0,1-.21,1.58,6.51,6.51,0,0,1,2.69,1.52l.87.85A12.87,12.87,0,0,1,40.94,63a6.39,6.39,0,0,1,4.3,1.76l.8.76a6.39,6.39,0,0,1,2,4.63A6.28,6.28,0,0,1,47.47,72.73ZM37.05,78.11a3.18,3.18,0,0,1-2.2-.87l-.8-.77A3.17,3.17,0,0,1,33.94,72l4.55-4.76a3.3,3.3,0,0,1,4.52-.1l.8.76a3.2,3.2,0,0,1,.11,4.5l-4.56,4.75A3.16,3.16,0,0,1,37.05,78.11ZM40.8,67.24a2.2,2.2,0,0,0-1.59.67l-4.55,4.76a2.19,2.19,0,0,0,.07,3.08l.81.76a2.15,2.15,0,0,0,1.51.6,2.18,2.18,0,0,0,1.59-.67h0l4.55-4.76a2.11,2.11,0,0,0,.6-1.5,2.16,2.16,0,0,0-.67-1.58l-.8-.76A2.24,2.24,0,0,0,40.8,67.24ZM27.34,74.18h0a3.18,3.18,0,0,1-2.2-.87l-.81-.76a3.17,3.17,0,0,1-1-2.31,3.13,3.13,0,0,1,.7-2l7.54-7.87a3.19,3.19,0,0,1,4.36,0l.81.77a3.14,3.14,0,0,1,1,2.3,3.17,3.17,0,0,1-.87,2.19L29.65,73.2A3.16,3.16,0,0,1,27.34,74.18Zm6.41-13.64a2.14,2.14,0,0,0-1.46.57L24.8,68.92a2.18,2.18,0,0,0,.22,2.9l.81.76a2.15,2.15,0,0,0,1.51.6,2.2,2.2,0,0,0,1.59-.67L36.14,65a2.19,2.19,0,0,0-.07-3.08l-.81-.76A2.15,2.15,0,0,0,33.75,60.54ZM18.5,69.41h0a3.2,3.2,0,0,1-2.2-.87l-.81-.77a3.18,3.18,0,0,1-.1-4.49L26.25,52a3.26,3.26,0,0,1,4.44-.05l.8.76a3.18,3.18,0,0,1,.11,4.5L20.81,68.43A3.16,3.16,0,0,1,18.5,69.41ZM16.15,67l.84.79a2.21,2.21,0,0,0,3.1-.07L30.88,56.48a2.18,2.18,0,0,0-.08-3.08l-.8-.77a2.24,2.24,0,0,0-3,0L16.11,64a2.14,2.14,0,0,0-.6,1.5A2.18,2.18,0,0,0,16.15,67ZM14,60.16a3.18,3.18,0,0,1-2.2-.87l-.8-.76A3.17,3.17,0,0,1,10.88,54L19,45.59a3.3,3.3,0,0,1,4.51-.1l.87.84a5.18,5.18,0,0,1,.91,2.22,3.12,3.12,0,0,1-.56,1.8l-8.78,9.16A3.2,3.2,0,0,1,14,60.16Zm7.29-14.55a2.19,2.19,0,0,0-1.59.68L11.6,54.73a2.13,2.13,0,0,0-.6,1.5,2.16,2.16,0,0,0,.67,1.58h0l.81.76a2.18,2.18,0,0,0,1.51.59,2.25,2.25,0,0,0,1.28-.4l8.66-9a2.11,2.11,0,0,0,.33-1.16,4.35,4.35,0,0,0-.71-1.61l-.76-.73A2.28,2.28,0,0,0,21.28,45.61ZM80.73,52l-6.15-5.69a86.58,86.58,0,0,0-6.76-5.52l-8.26-5.92A7.73,7.73,0,0,0,55,33.56a7.61,7.61,0,0,0-3.9,1l-3,1.79a3.4,3.4,0,0,1-1.83.49,3.66,3.66,0,0,1-2.95-1.43l-.66-.88a3.13,3.13,0,0,1-.62-1.84,3.07,3.07,0,0,1,1.32-2.51L52.25,24a6.77,6.77,0,0,1,3.7-1,6.08,6.08,0,0,1,2.56.52l7.19,3.48a8.77,8.77,0,0,0,3.78.78,9.36,9.36,0,0,0,4.83-1.24l7.34-4.57a3.52,3.52,0,0,1,1.88-.52,3.81,3.81,0,0,1,2.94,1.38L94,32.4a4,4,0,0,1,.79,2.45,4,4,0,0,1-1,2.71ZM55,32.56a8.73,8.73,0,0,1,5.1,1.52L68.4,40c2,1.45,5,3.9,6.86,5.59l5.41,5L93.08,36.88A3.24,3.24,0,0,0,93.22,33l-7.54-9.64a2.76,2.76,0,0,0-2.14-1h0a2.53,2.53,0,0,0-1.35.37l-7.35,4.57a10.28,10.28,0,0,1-5.35,1.39,9.7,9.7,0,0,1-4.22-.88l-7.19-3.49A5.13,5.13,0,0,0,56,23.94a6,6,0,0,0-3.12.83L44,31a2.07,2.07,0,0,0-.49,2.92l.68.91a2.73,2.73,0,0,0,2.15,1,2.8,2.8,0,0,0,1.31-.34l3-1.8A8.61,8.61,0,0,1,55,32.56Z"/></svg>