<svg id="Layer_1" data-name="Layer 1" xmlns="http://www.w3.org/2000/svg" viewBox="0 0 100 100"><defs><style>.cls-1{fill:#f2f0eb;}.cls-2{fill:#424547;}</style></defs><circle class="cls-1" cx="50" cy="50" r="41.04"/><path class="cls-2" d="M25.55,44.85H34a1.08,1.08,0,0,0,1.08-1.08V33.86A1.08,1.08,0,0,0,34,32.78H25.55a1.09,1.09,0,0,0-1.08,1.08v9.91A1.09,1.09,0,0,0,25.55,44.85Zm1.08-9.91H32.9v7.75H26.63Z"/><path class="cls-2" d="M34,45.22H25.55a1.45,1.45,0,0,1-1.45-1.45V33.86a1.45,1.45,0,0,1,1.45-1.45H34a1.46,1.46,0,0,1,1.46,1.45v9.91A1.46,1.46,0,0,1,34,45.22ZM25.55,33.16a.7.7,0,0,0-.7.7v9.91a.7.7,0,0,0,.7.7H34a.7.7,0,0,0,.71-.7V33.86a.71.71,0,0,0-.71-.7Zm7.73,9.9h-7V34.57h7ZM27,42.31h5.52v-7H27Z"/><path class="cls-2" d="M39.32,44.85h8.43a1.08,1.08,0,0,0,1.08-1.08V33.86a1.08,1.08,0,0,0-1.08-1.08H39.32a1.09,1.09,0,0,0-1.08,1.08v9.91A1.09,1.09,0,0,0,39.32,44.85Zm1.08-9.91h6.27v7.75H40.4Z"/><path class="cls-2" d="M47.75,45.22H39.32a1.45,1.45,0,0,1-1.45-1.45V33.86a1.45,1.45,0,0,1,1.45-1.45h8.43a1.46,1.46,0,0,1,1.46,1.45v9.91A1.46,1.46,0,0,1,47.75,45.22ZM39.32,33.16a.7.7,0,0,0-.7.7v9.91a.7.7,0,0,0,.7.7h8.43a.7.7,0,0,0,.71-.7V33.86a.71.71,0,0,0-.71-.7Zm7.73,9.9H40V34.57h7Zm-6.27-.75H46.3v-7H40.78Z"/><path class="cls-2" d="M53.09,44.85h8.43a1.08,1.08,0,0,0,1.08-1.08V33.86a1.08,1.08,0,0,0-1.08-1.08H53.09A1.09,1.09,0,0,0,52,33.86v9.91A1.09,1.09,0,0,0,53.09,44.85Zm1.08-9.91h6.27v7.75H54.17Z"/><path class="cls-2" d="M61.52,45.22H53.09a1.45,1.45,0,0,1-1.45-1.45V33.86a1.45,1.45,0,0,1,1.45-1.45h8.43A1.46,1.46,0,0,1,63,33.86v9.91A1.46,1.46,0,0,1,61.52,45.22ZM53.09,33.16a.7.7,0,0,0-.7.7v9.91a.7.7,0,0,0,.7.7h8.43a.7.7,0,0,0,.71-.7V33.86a.71.71,0,0,0-.71-.7Zm7.73,9.9h-7V34.57h7Zm-6.27-.75h5.52v-7H54.55Z"/><path class="cls-2" d="M66.86,44.85h8.43a1.08,1.08,0,0,0,1.08-1.08V33.86a1.08,1.08,0,0,0-1.08-1.08H66.86a1.09,1.09,0,0,0-1.08,1.08v9.91A1.09,1.09,0,0,0,66.86,44.85Zm1.08-9.91h6.27v7.75H67.94Z"/><path class="cls-2" d="M75.29,45.22H66.86a1.45,1.45,0,0,1-1.45-1.45V33.86a1.45,1.45,0,0,1,1.45-1.45h8.43a1.46,1.46,0,0,1,1.46,1.45v9.91A1.46,1.46,0,0,1,75.29,45.22ZM66.86,33.16a.7.7,0,0,0-.7.7v9.91a.7.7,0,0,0,.7.7h8.43a.7.7,0,0,0,.71-.7V33.86a.71.71,0,0,0-.71-.7Zm7.73,9.9h-7V34.57h7Zm-6.27-.75h5.52v-7H68.32Z"/><path class="cls-2" d="M25.55,59.72H34a1.08,1.08,0,0,0,1.08-1.08v-9.9A1.08,1.08,0,0,0,34,47.66H25.55a1.08,1.08,0,0,0-1.08,1.08v9.9A1.08,1.08,0,0,0,25.55,59.72Zm1.08-9.9H32.9v7.74H26.63Z"/><path class="cls-2" d="M34,60.1H25.55a1.46,1.46,0,0,1-1.45-1.46v-9.9a1.46,1.46,0,0,1,1.45-1.46H34a1.47,1.47,0,0,1,1.46,1.46v9.9A1.47,1.47,0,0,1,34,60.1ZM25.55,48a.7.7,0,0,0-.7.71v9.9a.7.7,0,0,0,.7.71H34a.71.71,0,0,0,.71-.71v-9.9A.71.71,0,0,0,34,48Zm7.73,9.91h-7v-8.5h7ZM27,57.19h5.52v-7H27Z"/><path class="cls-2" d="M39.32,59.72h8.43a1.08,1.08,0,0,0,1.08-1.08v-9.9a1.08,1.08,0,0,0-1.08-1.08H39.32a1.08,1.08,0,0,0-1.08,1.08v9.9A1.08,1.08,0,0,0,39.32,59.72Zm1.08-9.9h6.27v7.74H40.4Z"/><path class="cls-2" d="M47.75,60.1H39.32a1.46,1.46,0,0,1-1.45-1.46v-9.9a1.46,1.46,0,0,1,1.45-1.46h8.43a1.47,1.47,0,0,1,1.46,1.46v9.9A1.47,1.47,0,0,1,47.75,60.1ZM39.32,48a.7.7,0,0,0-.7.71v9.9a.7.7,0,0,0,.7.71h8.43a.71.71,0,0,0,.71-.71v-9.9a.71.71,0,0,0-.71-.71Zm7.73,9.91H40v-8.5h7Zm-6.27-.75H46.3v-7H40.78Z"/><path class="cls-2" d="M53.09,59.72h8.43a1.08,1.08,0,0,0,1.08-1.08v-9.9a1.08,1.08,0,0,0-1.08-1.08H53.09A1.08,1.08,0,0,0,52,48.74v9.9A1.08,1.08,0,0,0,53.09,59.72Zm1.08-9.9h6.27v7.74H54.17Z"/><path class="cls-2" d="M61.52,60.1H53.09a1.46,1.46,0,0,1-1.45-1.46v-9.9a1.46,1.46,0,0,1,1.45-1.46h8.43A1.47,1.47,0,0,1,63,48.74v9.9A1.47,1.47,0,0,1,61.52,60.1ZM53.09,48a.7.7,0,0,0-.7.71v9.9a.7.7,0,0,0,.7.71h8.43a.71.71,0,0,0,.71-.71v-9.9a.71.71,0,0,0-.71-.71Zm7.73,9.91h-7v-8.5h7Zm-6.27-.75h5.52v-7H54.55Z"/><path class="cls-2" d="M66.86,59.72h8.43a1.08,1.08,0,0,0,1.08-1.08v-9.9a1.08,1.08,0,0,0-1.08-1.08H66.86a1.08,1.08,0,0,0-1.08,1.08v9.9A1.08,1.08,0,0,0,66.86,59.72Zm1.08-9.9h6.27v7.74H67.94Z"/><path class="cls-2" d="M75.29,60.1H66.86a1.46,1.46,0,0,1-1.45-1.46v-9.9a1.46,1.46,0,0,1,1.45-1.46h8.43a1.47,1.47,0,0,1,1.46,1.46v9.9A1.47,1.47,0,0,1,75.29,60.1ZM66.86,48a.7.7,0,0,0-.7.71v9.9a.7.7,0,0,0,.7.71h8.43a.71.71,0,0,0,.71-.71v-9.9a.71.71,0,0,0-.71-.71Zm7.73,9.91h-7v-8.5h7Zm-6.27-.75h5.52v-7H68.32Z"/><path class="cls-2" d="M83.48,18.54H69.84v-.65a1.08,1.08,0,0,0-1.08-1.08H31.24a1.08,1.08,0,0,0-1.08,1.08v.65H16.52a1.08,1.08,0,0,0-1.08,1.08v7.77a1.08,1.08,0,0,0,1.08,1.08h3.11V80.26H16.52a1.08,1.08,0,0,0,0,2.16h67a1.08,1.08,0,1,0,0-2.16H81.22V28.47h2.26a1.08,1.08,0,0,0,1.08-1.08V19.62A1.08,1.08,0,0,0,83.48,18.54ZM32.32,19H67.68v-.43H32.32Zm6.61,61.29v-13H49.34v13Zm12.57,0v-13H61.92v13Zm27.56,0h-15v-14A1.08,1.08,0,0,0,63,65.15H37.85a1.08,1.08,0,0,0-1.08,1.08v14h-15V28.47H79.06V80.26ZM82.4,26.31H17.6V20.7H82.4Z"/><path class="cls-2" d="M83.48,82.8h-67a1.46,1.46,0,1,1,0-2.91h2.73v-51H16.52a1.46,1.46,0,0,1-1.46-1.45V19.62a1.47,1.47,0,0,1,1.46-1.46H29.78v-.27a1.46,1.46,0,0,1,1.46-1.46H68.76a1.46,1.46,0,0,1,1.46,1.46v.27H83.48a1.46,1.46,0,0,1,1.45,1.46v7.77a1.45,1.45,0,0,1-1.45,1.45H81.59V79.89h1.89a1.46,1.46,0,0,1,0,2.91Zm-67-2.16a.7.7,0,0,0-.71.7.71.71,0,0,0,.71.71h67a.7.7,0,0,0,.7-.71.7.7,0,0,0-.7-.7H80.84V28.09h2.64a.7.7,0,0,0,.7-.7V19.62a.7.7,0,0,0-.7-.71h-14v-1a.71.71,0,0,0-.71-.71H31.24a.71.71,0,0,0-.71.71v1h-14a.71.71,0,0,0-.71.71v7.77a.7.7,0,0,0,.71.7H20V80.64Zm62.91,0H63.7V66.23a.7.7,0,0,0-.7-.7H37.85a.7.7,0,0,0-.71.7V80.64H21.41V28.09h58Zm-15-.75H78.68v-51H22.16V79.89H36.39V66.23a1.45,1.45,0,0,1,1.46-1.45H63a1.45,1.45,0,0,1,1.45,1.45Zm-2.16.75H51.13V66.94H62.29Zm-10.41-.75h9.66V67.69H51.88Zm-2.16.75H38.55V66.94H49.72ZM39.3,79.89H49V67.69H39.3ZM18,26.68H17.4c-.19,0-.38-.09-.38-.36s0-.25.2-.3V20.32H82.78v6.36H18Zm0-5.61v4.87H82V21.07Zm50.09-1.73H31.94V18.16H68.06Z"/></svg>