<svg id="Layer_1" data-name="Layer 1" xmlns="http://www.w3.org/2000/svg" viewBox="0 0 31.93 27.78"><defs><style>.cls-1{fill:#fff;}.cls-2{fill:#ebe8dd;}.cls-3{fill:#414042;}</style></defs><rect class="cls-1" x="1.67" y="2.47" width="23.64" height="23.64"/><path class="cls-2" d="M25.3,27.11H1.67a1,1,0,0,1-1-1V2.47a1,1,0,0,1,1-1H25.3a1,1,0,0,1,1,1V26.11A1,1,0,0,1,25.3,27.11Zm-22.63-2H24.3V3.47H2.67Z"/><path class="cls-3" d="M13.26,21.19l-8-8A1.5,1.5,0,1,1,7.41,11.1l5.85,5.84L28.79,1.41a1.51,1.51,0,0,1,2.12,0,1.49,1.49,0,0,1,0,2.12Z"/></svg>