<svg id="Layer_1" data-name="Layer 1" xmlns="http://www.w3.org/2000/svg" viewBox="0 0 100 100"><defs><style>.cls-1{fill:#f2f0eb;}.cls-2{fill:#424547;}</style></defs><circle class="cls-1" cx="49.18" cy="50.54" r="37.53"/><path class="cls-2" d="M79.83,16.74a3.51,3.51,0,0,1-1.11,2.67c-3.3,3.28-6.59,6.58-9.88,9.86L59.92,38.2c-1.6,1.59-3.23,3.16-4.78,4.8a4.1,4.1,0,0,1-1.86,1c-1.38.47-2.76.92-4.15,1.38-.63.21-1.26.43-1.9.63a1.18,1.18,0,0,1-1.41-1.54c.7-2.12,1.47-4.23,2.1-6.37a4.46,4.46,0,0,1,1.32-1.88L58.41,27l7.16-7.15,3.51-3.5c.15-.15.19-.25,0-.4s-.26-.26-.4-.37a1,1,0,0,0-1.4,0c-.37.34-.72.7-1.07,1.06L61.87,21a1.18,1.18,0,1,1-1.66-1.66C62,17.58,63.76,15.78,65.57,14a3.49,3.49,0,0,1,3.19-.83,3.16,3.16,0,0,1,2,1.1c.15.17.26.18.42,0,.44-.47.9-.91,1.36-1.36a3.69,3.69,0,0,1,5.08,0c.45.43.9.86,1.32,1.31A3.4,3.4,0,0,1,79.83,16.74ZM53.94,40.79a1.18,1.18,0,0,0,.32-.26L64.34,30.45l5.3-5.29c.13-.13.24-.22,0-.4-.88-.87-1.76-1.74-2.64-2.63-.17-.17-.27-.16-.44,0q-3.07,3.09-6.17,6.17-4.63,4.64-9.27,9.26c-.18.18-.2.29,0,.48.87.85,1.72,1.72,2.58,2.58A1.56,1.56,0,0,0,53.94,40.79ZM75,14.12a1.28,1.28,0,0,0-.84.47c-.81.82-1.63,1.63-2.43,2.45-1,1-2,2-3,3-.19.18-.2.3,0,.49.86.84,1.71,1.7,2.56,2.56.17.18.28.18.46,0l3.8-3.8c.55-.56,1.11-1.11,1.67-1.67a1,1,0,0,0,0-1.64c-.47-.49-1-1-1.45-1.45A1.09,1.09,0,0,0,75,14.12ZM51.7,41.94c0-.11-.14-.16-.21-.24L50,40.17c-.13-.13-.22-.17-.27,0a.94.94,0,0,1-.06.15l-.74,2.24c0,.09-.09.19,0,.28s.18,0,.26,0l2.38-.79C51.6,42.05,51.67,42,51.7,41.94Z"/><path class="cls-2" d="M82.63,69.08H35a5.72,5.72,0,0,1-5.72-5.72V40.19A5.73,5.73,0,0,1,35,34.47h7.84a1,1,0,0,1,0,2H35a3.72,3.72,0,0,0-3.72,3.72V63.36A3.72,3.72,0,0,0,35,67.08H82.63a3.73,3.73,0,0,0,3.72-3.72V40.19a3.73,3.73,0,0,0-3.72-3.72H68.12a1,1,0,0,1,0-2H82.63a5.73,5.73,0,0,1,5.72,5.72V63.36A5.73,5.73,0,0,1,82.63,69.08Z"/><path class="cls-2" d="M76.43,54.39H58.81a1,1,0,0,1,0-2H76.43a1,1,0,0,1,0,2Z"/><path class="cls-2" d="M76.43,60h-24a1,1,0,0,1,0-2h24a1,1,0,0,1,0,2Z"/></svg>