<svg id="Layer_1" data-name="Layer 1" xmlns="http://www.w3.org/2000/svg" viewBox="0 0 440 640"><defs><style>.cls-1{fill:#414042;}.cls-2{fill:#ccd9b9;}.cls-3{fill:#adc291;}.cls-4{fill:#9eb77e;}.cls-5{fill:#90ac6c;}</style></defs><path d="M151.67,17.68V7.05h8.5V9h-5.95v2.23H160v2h-5.82v4.41Z"/><path d="M161.59,13.43V7.05h2.59v6.31c0,1.49,1,2.51,2.83,2.51s2.81-1,2.81-2.51V7.05h2.61v6.38c0,2.63-1.77,4.45-5.42,4.45S161.59,16.06,161.59,13.43Z"/><path d="M182.73,17.68,177,10.75v6.93h-2.55V7.05h2.63l5.56,6.68V7.05h2.56V17.68Z"/><path d="M187.21,17.68V7.05H192c3.76,0,6.37,2.12,6.37,5.31s-2.61,5.32-6.35,5.32Zm8.5-5.32c0-1.87-1.29-3.32-3.74-3.32h-2.2v6.65H192C194.33,15.69,195.71,14.18,195.71,12.36Z"/><path d="M203.94,17.68V7.05h2.58v8.64h5.08v2Z"/><path d="M221.26,17.68l-.75-1.8h-5.15l-.76,1.8h-2.9l4.63-10.63h3.21l4.62,10.63Zm-3.33-8.37-1.87,4.58h3.75Z"/><path d="M224.33,13.43V7.05h2.59v6.31c0,1.49,1,2.51,2.83,2.51s2.81-1,2.81-2.51V7.05h2.61v6.38c0,2.63-1.77,4.45-5.42,4.45S224.33,16.06,224.33,13.43Z"/><path d="M245.47,17.68l-5.73-6.93v6.93h-2.55V7.05h2.62l5.57,6.68V7.05h2.55V17.68Z"/><path d="M249.38,12.38c0-3.29,2.79-5.51,6.41-5.51a5.56,5.56,0,0,1,5,2.6l-2.19,1a3.33,3.33,0,0,0-2.81-1.55,3.51,3.51,0,1,0,0,7,3.33,3.33,0,0,0,2.81-1.55l2.19.94a5.61,5.61,0,0,1-5,2.62C252.17,17.88,249.38,15.64,249.38,12.38Z"/><path d="M270.19,17.68V13.2h-5.67v4.48H262V7.05h2.56v4.18h5.67V7.05h2.58V17.68Z"/><path class="cls-1" d="M160.05,37.65h-6.5l-1.13,2.84h-1.77l5.15-12.81h2L163,40.49h-1.77Zm-6-1.42h5.56L156.8,29.1Z"/><path class="cls-1" d="M164.56,44V31.21H166V32.6A3.88,3.88,0,0,1,169.13,31c2.44,0,4.13,1.85,4.13,4.86s-1.69,4.88-4.13,4.88A3.79,3.79,0,0,1,166,39.09V44Zm4.2-11.76A3.42,3.42,0,0,0,166,33.75v4.19a3.43,3.43,0,0,0,2.76,1.5c1.87,0,3-1.54,3-3.6S170.63,32.27,168.76,32.27Z"/><path class="cls-1" d="M175.58,31.21H177v1.5a4,4,0,0,1,3.1-1.69V32.5a2.52,2.52,0,0,0-.58-.06A3.42,3.42,0,0,0,177,33.92v6.57h-1.44Z"/><path class="cls-1" d="M181.67,28.68a1,1,0,0,1,1.94,0,1,1,0,1,1-1.94,0Zm.25,2.53h1.44v9.28h-1.44Z"/><path class="cls-1" d="M186.24,27.68h1.44V40.49h-1.44Z"/><path class="cls-1" d="M195.12,39.23c4.61-3.63,7.11-5.77,7.11-8a2.4,2.4,0,0,0-2.68-2.34,4.28,4.28,0,0,0-3.47,1.61l-1-1a5.54,5.54,0,0,1,4.45-2c2.14,0,4.31,1.21,4.31,3.76s-2.65,5-6.23,7.82h6.29v1.42h-8.8Z"/><path class="cls-1" d="M207.79,38a3.32,3.32,0,0,0,2.75,1.3c2.6,0,3.61-2.59,3.61-5a4.52,4.52,0,0,0,0-.52,4.58,4.58,0,0,1-3.61,2,3.89,3.89,0,0,1-4.2-4.09,4.21,4.21,0,0,1,4.47-4.19c3.59,0,5,3.13,5,6.63s-1.62,6.61-5.21,6.61A4.45,4.45,0,0,1,207,39.17Zm3.08-9.09a2.8,2.8,0,0,0-2.94,2.71,2.66,2.66,0,0,0,3,2.77,3.84,3.84,0,0,0,3.19-1.91C213.94,30.87,213.1,28.89,210.87,28.89Z"/><path d="M151.09,309.94c0-3.28,2.79-5.5,6.41-5.5a5.59,5.59,0,0,1,5,2.6l-2.2,1a3.32,3.32,0,0,0-2.81-1.55,3.51,3.51,0,1,0,0,7,3.32,3.32,0,0,0,2.81-1.55l2.2.94a5.63,5.63,0,0,1-5,2.61C153.88,315.44,151.09,313.21,151.09,309.94Z"/><path d="M163.57,315.25V304.62h2.57v8.64h5.08v2Z"/><path d="M171.53,309.94c0-3.2,2.65-5.5,6.28-5.5s6.27,2.3,6.27,5.5-2.65,5.5-6.27,5.5S171.53,313.15,171.53,309.94Zm9.92,0a3.65,3.65,0,1,0-3.64,3.5A3.41,3.41,0,0,0,181.45,309.94Z"/><path d="M184.69,313.75,186.1,312a5.56,5.56,0,0,0,3.82,1.46c1.42,0,2.08-.56,2.08-1.18,0-1.85-6.91-.56-6.91-4.57,0-1.77,1.73-3.23,4.56-3.23a7.24,7.24,0,0,1,4.68,1.48l-1.43,1.69a5.52,5.52,0,0,0-3.49-1.16c-1.08,0-1.69.41-1.69,1,0,1.67,6.9.54,6.9,4.51,0,2-1.59,3.41-4.81,3.41A7.46,7.46,0,0,1,184.69,313.75Z"/><path d="M196,315.25V304.62h8.5v2h-5.95v2.23h5.82v2h-5.82v2.42h5.95v2Z"/><path d="M209.8,309.94c0-3.2,2.64-5.5,6.28-5.5s6.27,2.3,6.27,5.5-2.65,5.5-6.27,5.5S209.8,313.15,209.8,309.94Zm9.92,0a3.65,3.65,0,1,0-3.64,3.5A3.41,3.41,0,0,0,219.72,309.94Z"/><path d="M223.79,315.25V304.62h8.5v2h-5.94v2.23h5.81v2h-5.81v4.41Z"/><path d="M246.26,315.25l-5.72-6.93v6.93H238V304.62h2.63l5.56,6.68v-6.68h2.56v10.63Z"/><path d="M259.05,315.25l-.76-1.8h-5.15l-.75,1.8h-2.9l4.62-10.63h3.21L262,315.25Zm-3.33-8.37-1.88,4.58h3.75Z"/><path d="M264.32,315.25v-8.64h-3.51v-2h9.58v2H266.9v8.64Z"/><path d="M271.67,315.25V304.62h2.56v10.63Z"/><path d="M275.67,309.94c0-3.2,2.65-5.5,6.28-5.5s6.27,2.3,6.27,5.5-2.65,5.5-6.27,5.5S275.67,313.15,275.67,309.94Zm9.92,0a3.65,3.65,0,1,0-3.64,3.5A3.41,3.41,0,0,0,285.59,309.94Z"/><path d="M297.94,315.25l-5.72-6.93v6.93h-2.56V304.62h2.63l5.56,6.68v-6.68h2.56v10.63Z"/><path d="M310.73,315.25l-.76-1.8h-5.15l-.75,1.8h-2.9l4.63-10.63H309l4.63,10.63Zm-3.33-8.37-1.87,4.58h3.74Z"/><path d="M314.28,315.25V304.62h2.57v8.64h5.08v2Z"/><path d="M327,309.94c0-3.2,2.65-5.5,6.29-5.5s6.26,2.3,6.26,5.5-2.65,5.5-6.26,5.5S327,313.15,327,309.94Zm9.92,0a3.65,3.65,0,1,0-3.63,3.5A3.4,3.4,0,0,0,336.91,309.94Z"/><path d="M341,315.25V304.62h5.62c2.61,0,4,1.56,4,3.43s-1.45,3.41-4,3.41h-3.06v3.79Zm7-7.2c0-.9-.77-1.44-1.78-1.44h-2.7v2.85h2.7C347.25,309.46,348,308.92,348,308.05Z"/><path d="M351.88,315.25V304.62h8.5v2h-5.94v2.23h5.81v2h-5.81v2.42h5.94v2Z"/><path d="M370.3,315.25l-5.73-6.93v6.93H362V304.62h2.63l5.56,6.68v-6.68h2.56v10.63Z"/><path d="M151.09,329.08c0-3.29,2.79-5.5,6.41-5.5a5.59,5.59,0,0,1,5,2.6l-2.2.95a3.31,3.31,0,0,0-2.81-1.54,3.5,3.5,0,1,0,0,7,3.32,3.32,0,0,0,2.81-1.55l2.2.94a5.62,5.62,0,0,1-5,2.62C153.88,334.58,151.09,332.35,151.09,329.08Z"/><path d="M171.85,334.39l-.75-1.8H166l-.76,1.8h-2.9l4.63-10.64h3.2l4.63,10.64ZM168.52,326l-1.87,4.57h3.74Z"/><path d="M175.4,334.39V323.75H178v8.64h5.07v2Z"/><path d="M184.32,334.39V323.75h2.57v8.64H192v2Z"/><path d="M205.91,334.39l-.76-1.8H200l-.76,1.8h-2.89L201,323.75h3.21l4.62,10.64ZM202.58,326l-1.88,4.57h3.75Z"/><path d="M209.56,334.39V323.75h5.62c2.61,0,4,1.56,4,3.43s-1.44,3.41-4,3.41h-3.06v3.8Zm7-7.21c0-.89-.77-1.43-1.78-1.43h-2.7v2.85h2.7C215.83,328.6,216.6,328.06,216.6,327.18Z"/><path d="M220.46,334.39V323.75h5.61c2.62,0,4,1.56,4,3.43s-1.44,3.41-4,3.41H223v3.8Zm7-7.21c0-.89-.78-1.43-1.78-1.43H223v2.85h2.71C226.72,328.6,227.5,328.06,227.5,327.18Z"/><path d="M231.24,334.39V323.75h2.58v8.64h5.08v2Z"/><path d="M240.27,334.39V323.75h2.55v10.64Z"/><path d="M244.26,329.08c0-3.29,2.79-5.5,6.41-5.5a5.59,5.59,0,0,1,5,2.6l-2.2.95a3.3,3.3,0,0,0-2.81-1.54,3.5,3.5,0,1,0,0,7,3.3,3.3,0,0,0,2.81-1.55l2.2.94a5.62,5.62,0,0,1-5,2.62C247.05,334.58,244.26,332.35,244.26,329.08Z"/><path d="M265,334.39l-.76-1.8h-5.15l-.76,1.8h-2.9l4.63-10.64h3.21l4.62,10.64ZM261.69,326l-1.87,4.57h3.75Z"/><path d="M270.3,334.39v-8.64h-3.51v-2h9.58v2h-3.49v8.64Z"/><path d="M277.65,334.39V323.75h2.56v10.64Z"/><path d="M281.65,329.08c0-3.21,2.64-5.5,6.28-5.5s6.27,2.29,6.27,5.5-2.65,5.5-6.27,5.5S281.65,332.28,281.65,329.08Zm9.92,0a3.65,3.65,0,1,0-3.64,3.49A3.41,3.41,0,0,0,291.57,329.08Z"/><path d="M303.92,334.39l-5.72-6.94v6.94h-2.56V323.75h2.63l5.56,6.68v-6.68h2.56v10.64Z"/><path d="M312.68,334.39V323.75h5.61c2.61,0,4,1.56,4,3.43s-1.44,3.41-4,3.41h-3.06v3.8Zm7-7.21c0-.89-.78-1.43-1.79-1.43h-2.7v2.85h2.7C318.94,328.6,319.72,328.06,319.72,327.18Z"/><path d="M323.57,334.39V323.75h8.5v2h-5.94V328h5.81v2h-5.81v2.42h5.94v2Z"/><path d="M340.5,334.39l-2.36-3.78h-1.88v3.78h-2.55V323.75h5.62c2.5,0,4.05,1.45,4.05,3.43a3.17,3.17,0,0,1-2.65,3.16l2.72,4.05Zm.25-7.23c0-.87-.78-1.41-1.78-1.41h-2.71v2.87H339C340,328.62,340.75,328.07,340.75,327.16Z"/><path d="M344.93,334.39V323.75h2.55v10.64Z"/><path d="M348.92,329.08c0-3.21,2.65-5.5,6.29-5.5s6.26,2.29,6.26,5.5-2.64,5.5-6.26,5.5S348.92,332.28,348.92,329.08Zm9.93,0a3.65,3.65,0,1,0-3.64,3.49A3.41,3.41,0,0,0,358.85,329.08Z"/><path d="M362.92,334.39V323.75h4.73c3.76,0,6.38,2.12,6.38,5.31s-2.62,5.33-6.36,5.33Zm8.49-5.33c0-1.86-1.29-3.31-3.74-3.31h-2.2v6.64h2.18C370,332.39,371.41,330.88,371.41,329.06Z"/><path class="cls-1" d="M162.93,346.78l-4.36,10.66h-.66l-4.34-10.66v10.66H152V344.62h2.28l4,9.76,4-9.76h2.28v12.82h-1.59Z"/><path class="cls-1" d="M173.26,356.38a4,4,0,0,1-3.07,1.29,3.09,3.09,0,0,1-3.25-3.08,3,3,0,0,1,3.25-3,3.87,3.87,0,0,1,3.07,1.27v-1.67c0-1.25-1-2-2.34-2a3.7,3.7,0,0,0-2.85,1.28l-.67-1a4.88,4.88,0,0,1,3.71-1.53c2,0,3.59.88,3.59,3.13v6.38h-1.44Zm0-2.65a3.11,3.11,0,0,0-2.55-1.15,2,2,0,1,0,0,4.05,3.11,3.11,0,0,0,2.55-1.15Z"/><path class="cls-1" d="M178.08,359.92a1.33,1.33,0,0,0,1.38-1l.62-1.41-3.88-9.37h1.55l3.1,7.61,3.07-7.61h1.58l-4.65,11.16a2.75,2.75,0,0,1-2.73,1.88,4.52,4.52,0,0,1-1.06-.13l.23-1.31A2.18,2.18,0,0,0,178.08,359.92Z"/><path class="cls-1" d="M193.93,346.74l-2.06,2.17-1-1,3.21-3.31h1.4v12.82h-1.59Z"/><path class="cls-1" d="M201.07,350.83c-1.47-.42-2.84-1.38-2.84-3.07,0-2.31,2.25-3.33,4.38-3.33s4.4,1,4.4,3.33c0,1.69-1.38,2.65-2.86,3.07,1.59.48,3,1.65,3,3.36,0,2.17-2.07,3.48-4.59,3.48s-4.59-1.29-4.59-3.48C198,352.48,199.48,351.31,201.07,350.83Zm1.54.71c-.79.1-3,.81-3,2.48,0,1.38,1.41,2.23,3,2.23s3-.85,3-2.23C205.59,352.35,203.4,351.64,202.61,351.54Zm0-5.69c-1.56,0-2.78.79-2.78,2.12,0,1.55,2,2.07,2.78,2.21.79-.14,2.79-.66,2.79-2.21C205.4,346.64,204.15,345.85,202.61,345.85Z"/><path d="M151.56,167.36V156.72h2.57v8.64h5.08v2Z"/><path d="M168.88,167.36l-.76-1.8H163l-.76,1.8h-2.9L164,156.72h3.2l4.63,10.64ZM165.55,159l-1.87,4.57h3.74Z"/><path d="M171.94,163.1v-6.38h2.6V163c0,1.48,1,2.5,2.82,2.5s2.81-1,2.81-2.5v-6.32h2.61v6.38c0,2.63-1.76,4.45-5.42,4.45S171.94,165.73,171.94,163.1Z"/><path d="M193.08,167.36l-5.72-6.94v6.94H184.8V156.72h2.63L193,163.4v-6.68h2.56v10.64Z"/><path d="M197,162.05c0-3.29,2.79-5.5,6.41-5.5a5.59,5.59,0,0,1,5,2.6l-2.2.95a3.3,3.3,0,0,0-2.81-1.54,3.5,3.5,0,1,0,0,7,3.3,3.3,0,0,0,2.81-1.55l2.2.94a5.62,5.62,0,0,1-5,2.62C199.78,167.55,197,165.32,197,162.05Z"/><path d="M217.81,167.36v-4.48h-5.67v4.48h-2.56V156.72h2.56v4.18h5.67v-4.18h2.57v10.64Z"/><path d="M226.08,162.05c0-3.21,2.64-5.5,6.28-5.5s6.27,2.29,6.27,5.5-2.65,5.5-6.27,5.5S226.08,165.25,226.08,162.05Zm9.92,0a3.65,3.65,0,1,0-3.64,3.49A3.41,3.41,0,0,0,236,162.05Z"/><path d="M240.07,167.36V156.72h8.5v2h-5.95V161h5.82v2h-5.82v4.42Z"/><path d="M262.54,167.36l-5.73-6.94v6.94h-2.55V156.72h2.63l5.56,6.68v-6.68H265v10.64Z"/><path d="M275.32,167.36l-.75-1.8h-5.15l-.76,1.8h-2.9l4.63-10.64h3.21l4.62,10.64ZM272,159l-1.87,4.57h3.75Z"/><path d="M280.6,167.36v-8.65h-3.51v-2h9.58v2h-3.49v8.65Z"/><path d="M288,167.36V156.72h2.56v10.64Z"/><path d="M292,162.05c0-3.21,2.64-5.5,6.28-5.5s6.27,2.29,6.27,5.5-2.65,5.5-6.27,5.5S292,165.25,292,162.05Zm9.92,0a3.65,3.65,0,1,0-3.64,3.49A3.4,3.4,0,0,0,301.87,162.05Z"/><path d="M314.22,167.36l-5.72-6.94v6.94h-2.56V156.72h2.63l5.56,6.68v-6.68h2.56v10.64Z"/><path d="M327,167.36l-.76-1.8H321.1l-.75,1.8h-2.9l4.62-10.64h3.21l4.63,10.64ZM323.68,159l-1.88,4.57h3.75Z"/><path d="M330.56,167.36V156.72h2.57v8.64h5.08v2Z"/><path d="M343.27,162.05c0-3.21,2.65-5.5,6.28-5.5s6.27,2.29,6.27,5.5-2.65,5.5-6.27,5.5S343.27,165.25,343.27,162.05Zm9.92,0a3.65,3.65,0,1,0-3.64,3.49A3.4,3.4,0,0,0,353.19,162.05Z"/><path d="M357.26,167.36V156.72h5.62c2.61,0,4,1.56,4,3.43s-1.44,3.41-4,3.41h-3.06v3.8Zm7-7.21c0-.89-.77-1.44-1.78-1.44h-2.7v2.86h2.7C363.53,161.57,364.3,161,364.3,160.15Z"/><path d="M368.16,167.36V156.72h8.49v2h-5.94V161h5.82v2h-5.82v2.42h5.94v2Z"/><path d="M386.58,167.36l-5.73-6.94v6.94h-2.56V156.72h2.63l5.57,6.68v-6.68H389v10.64Z"/><path d="M151.09,181.18c0-3.28,2.79-5.5,6.41-5.5a5.59,5.59,0,0,1,5,2.6l-2.2,1a3.3,3.3,0,0,0-2.81-1.55,3.5,3.5,0,1,0,0,7,3.3,3.3,0,0,0,2.81-1.54l2.2.94a5.63,5.63,0,0,1-5,2.61C153.88,186.68,151.09,184.45,151.09,181.18Z"/><path d="M171.85,186.49l-.75-1.8H166l-.76,1.8h-2.9l4.63-10.63h3.2l4.63,10.63Zm-3.33-8.37-1.87,4.58h3.74Z"/><path d="M175.4,186.49V175.86H178v8.64h5.07v2Z"/><path d="M184.32,186.49V175.86h2.57v8.64H192v2Z"/><path d="M205.91,186.49l-.76-1.8H200l-.76,1.8h-2.89L201,175.86h3.21l4.62,10.63Zm-3.34-8.37-1.87,4.58h3.75Z"/><path d="M209.56,186.49V175.86h5.62c2.61,0,4,1.56,4,3.43s-1.44,3.41-4,3.41h-3.06v3.79Zm7-7.2c0-.9-.77-1.44-1.78-1.44h-2.7v2.85h2.7C215.83,180.7,216.6,180.16,216.6,179.29Z"/><path d="M220.46,186.49V175.86h5.61c2.62,0,4,1.56,4,3.43s-1.44,3.41-4,3.41H223v3.79Zm7-7.2c0-.9-.78-1.44-1.79-1.44H223v2.85h2.7C226.72,180.7,227.5,180.16,227.5,179.29Z"/><path d="M231.24,186.49V175.86h2.58v8.64h5.08v2Z"/><path d="M240.27,186.49V175.86h2.55v10.63Z"/><path d="M244.26,181.18c0-3.28,2.79-5.5,6.41-5.5a5.59,5.59,0,0,1,5,2.6l-2.2,1a3.3,3.3,0,0,0-2.81-1.55,3.5,3.5,0,1,0,0,7,3.3,3.3,0,0,0,2.81-1.54l2.2.94a5.63,5.63,0,0,1-5,2.61C247.05,186.68,244.26,184.45,244.26,181.18Z"/><path d="M265,186.49l-.76-1.8h-5.15l-.76,1.8h-2.89l4.62-10.63h3.21l4.62,10.63Zm-3.34-8.37-1.87,4.58h3.75Z"/><path d="M270.3,186.49v-8.64h-3.51v-2h9.58v2h-3.49v8.64Z"/><path d="M277.65,186.49V175.86h2.56v10.63Z"/><path d="M281.65,181.18c0-3.2,2.64-5.5,6.28-5.5s6.27,2.3,6.27,5.5-2.65,5.5-6.27,5.5S281.65,184.39,281.65,181.18Zm9.92,0a3.65,3.65,0,1,0-3.64,3.49A3.41,3.41,0,0,0,291.57,181.18Z"/><path d="M303.92,186.49l-5.72-6.93v6.93h-2.56V175.86h2.63l5.56,6.68v-6.68h2.56v10.63Z"/><path d="M312.68,186.49V175.86h5.61c2.61,0,4,1.56,4,3.43s-1.44,3.41-4,3.41h-3.06v3.79Zm7-7.2c0-.9-.78-1.44-1.79-1.44h-2.7v2.85h2.7C318.94,180.7,319.72,180.16,319.72,179.29Z"/><path d="M323.57,186.49V175.86h8.5v2h-5.94v2.23h5.81v2h-5.81v2.42h5.94v2Z"/><path d="M340.5,186.49l-2.36-3.78h-1.88v3.78h-2.55V175.86h5.62c2.5,0,4.05,1.45,4.05,3.43a3.17,3.17,0,0,1-2.65,3.15l2.72,4.05Zm.25-7.22c0-.88-.78-1.42-1.78-1.42h-2.71v2.87H339C340,180.72,340.75,180.18,340.75,179.27Z"/><path d="M344.93,186.49V175.86h2.55v10.63Z"/><path d="M348.92,181.18c0-3.2,2.65-5.5,6.29-5.5s6.26,2.3,6.26,5.5-2.64,5.5-6.26,5.5S348.92,184.39,348.92,181.18Zm9.93,0a3.65,3.65,0,1,0-3.64,3.49A3.41,3.41,0,0,0,358.85,181.18Z"/><path d="M362.92,186.49V175.86h4.73c3.76,0,6.38,2.12,6.38,5.31s-2.62,5.32-6.36,5.32Zm8.49-5.32c0-1.87-1.29-3.32-3.74-3.32h-2.2v6.65h2.18C370,184.5,371.41,183,371.41,181.17Z"/><path class="cls-1" d="M162.93,198.64l-4.36,10.66h-.66l-4.34-10.66V209.3H152V196.49h2.28l4,9.76,4-9.76h2.28V209.3h-1.59Z"/><path class="cls-1" d="M173.26,208.25a4,4,0,0,1-3.07,1.28,3.09,3.09,0,0,1-3.25-3.07,3,3,0,0,1,3.25-3.06,3.9,3.9,0,0,1,3.07,1.27V203c0-1.25-1-2-2.34-2a3.68,3.68,0,0,0-2.85,1.29l-.67-1a4.85,4.85,0,0,1,3.71-1.54c2,0,3.59.89,3.59,3.13v6.38h-1.44Zm0-2.66a3.13,3.13,0,0,0-2.55-1.15,2,2,0,1,0,0,4.06,3.11,3.11,0,0,0,2.55-1.16Z"/><path class="cls-1" d="M178.08,211.78a1.32,1.32,0,0,0,1.38-1l.62-1.4L176.2,200h1.55l3.1,7.61,3.07-7.61h1.58l-4.65,11.16a2.76,2.76,0,0,1-2.73,1.89,4.52,4.52,0,0,1-1.06-.14l.23-1.3A2.36,2.36,0,0,0,178.08,211.78Z"/><path class="cls-1" d="M197.21,206.05h-6.09v-1.32l5.5-8.24h2.19v8.16h1.8v1.4h-1.8v3.25h-1.6Zm-4.49-1.4h4.49V198Z"/><path d="M151.67,455V444.36h5.61c2.62,0,4,1.57,4,3.43s-1.44,3.41-4,3.41h-3.06V455Zm7-7.21c0-.89-.78-1.43-1.79-1.43h-2.7v2.85h2.7C157.93,449.21,158.71,448.67,158.71,447.79Z"/><path d="M162,449.69c0-3.21,2.64-5.5,6.28-5.5s6.26,2.29,6.26,5.5-2.64,5.5-6.26,5.5S162,452.89,162,449.69Zm9.92,0a3.65,3.65,0,1,0-3.64,3.49A3.41,3.41,0,0,0,171.91,449.69Z"/><path d="M175.15,453.5l1.4-1.77a5.62,5.62,0,0,0,3.82,1.45c1.42,0,2.09-.56,2.09-1.18,0-1.85-6.92-.56-6.92-4.56,0-1.77,1.73-3.24,4.56-3.24a7.17,7.17,0,0,1,4.68,1.49l-1.42,1.69a5.55,5.55,0,0,0-3.49-1.17c-1.08,0-1.7.42-1.7,1.06,0,1.67,6.9.54,6.9,4.51,0,1.94-1.58,3.41-4.81,3.41A7.46,7.46,0,0,1,175.15,453.5Z"/><path d="M185.59,453.5l1.41-1.77a5.6,5.6,0,0,0,3.82,1.45c1.42,0,2.08-.56,2.08-1.18,0-1.85-6.91-.56-6.91-4.56,0-1.77,1.73-3.24,4.56-3.24a7.19,7.19,0,0,1,4.68,1.49l-1.43,1.69a5.53,5.53,0,0,0-3.49-1.17c-1.08,0-1.69.42-1.69,1.06,0,1.67,6.9.54,6.9,4.51,0,1.94-1.59,3.41-4.81,3.41A7.5,7.5,0,0,1,185.59,453.5Z"/><path d="M196.87,455V444.36h2.55V455Z"/><path d="M201.44,455V444.36h6.32c2.29,0,3.46,1.29,3.46,2.71a2.44,2.44,0,0,1-2.07,2.44,2.66,2.66,0,0,1,2.3,2.6c0,1.61-1.19,2.89-3.49,2.89Zm7.17-7.53c0-.65-.54-1.11-1.41-1.11H204v2.23h3.2C208.07,448.59,208.61,448.16,208.61,447.47Zm.23,4.32c0-.67-.54-1.21-1.53-1.21H204V453h3.31C208.26,453,208.84,452.56,208.84,451.79Z"/><path d="M212.91,455V444.36h2.58V453h5.07v2Z"/><path d="M221.93,455V444.36h8.5v2h-5.94v2.23h5.82v2h-5.82V453h5.94v2Z"/><path d="M235.51,453.5l1.41-1.77a5.6,5.6,0,0,0,3.81,1.45c1.43,0,2.09-.56,2.09-1.18,0-1.85-6.91-.56-6.91-4.56,0-1.77,1.73-3.24,4.55-3.24a7.15,7.15,0,0,1,4.68,1.49l-1.42,1.69a5.55,5.55,0,0,0-3.49-1.17c-1.08,0-1.69.42-1.69,1.06,0,1.67,6.89.54,6.89,4.51,0,1.94-1.58,3.41-4.81,3.41A7.48,7.48,0,0,1,235.51,453.5Z"/><path d="M246.78,450.74v-6.38h2.6v6.32c0,1.48,1,2.5,2.82,2.5s2.81-1,2.81-2.5v-6.32h2.61v6.38c0,2.63-1.76,4.45-5.42,4.45S246.78,453.37,246.78,450.74Z"/><path d="M259.64,455V444.36H266c2.29,0,3.46,1.29,3.46,2.71a2.44,2.44,0,0,1-2.07,2.44,2.66,2.66,0,0,1,2.3,2.6c0,1.61-1.19,2.89-3.49,2.89Zm7.17-7.53c0-.65-.54-1.11-1.41-1.11h-3.2v2.23h3.2C266.27,448.59,266.81,448.16,266.81,447.47Zm.23,4.32c0-.67-.54-1.21-1.53-1.21H262.2V453h3.31C266.47,453,267,452.56,267,451.79Z"/><path d="M270.39,453.5l1.41-1.77a5.6,5.6,0,0,0,3.81,1.45c1.43,0,2.09-.56,2.09-1.18,0-1.85-6.91-.56-6.91-4.56,0-1.77,1.73-3.24,4.55-3.24a7.2,7.2,0,0,1,4.69,1.49l-1.43,1.69a5.55,5.55,0,0,0-3.49-1.17c-1.08,0-1.69.42-1.69,1.06,0,1.67,6.89.54,6.89,4.51,0,1.94-1.58,3.41-4.8,3.41A7.49,7.49,0,0,1,270.39,453.5Z"/><path d="M281.67,455V444.36h8.49v2h-5.94v2.23H290v2h-5.82V453h5.94v2Z"/><path d="M291.23,449.69c0-3.21,2.64-5.5,6.28-5.5s6.27,2.29,6.27,5.5a5.22,5.22,0,0,1-1.57,3.76l.88.91-1.78,1.29-1-1a7.51,7.51,0,0,1-2.83.53C293.87,455.19,291.23,452.89,291.23,449.69Zm7.52,3.32-1.31-1.38,1.78-1.29,1.32,1.37a3.5,3.5,0,0,0,.61-2,3.65,3.65,0,1,0-3.64,3.49A4.37,4.37,0,0,0,298.75,453Z"/><path d="M305.22,450.74v-6.38h2.59v6.32c0,1.48,1,2.5,2.83,2.5s2.81-1,2.81-2.5v-6.32h2.61v6.38c0,2.63-1.77,4.45-5.42,4.45S305.22,453.37,305.22,450.74Z"/><path d="M318.08,455V444.36h8.49v2h-5.94v2.23h5.82v2h-5.82V453h5.94v2Z"/><path d="M336.5,455l-5.73-6.94V455h-2.56V444.36h2.63l5.57,6.68v-6.68H339V455Z"/><path d="M343.76,455v-8.64h-3.52v-2h9.58v2h-3.49V455Z"/><path d="M362.16,455l-2.36-3.78h-1.87V455h-2.56V444.36H361c2.5,0,4.05,1.45,4.05,3.43a3.17,3.17,0,0,1-2.65,3.16l2.72,4.05Zm.25-7.22c0-.88-.77-1.42-1.78-1.42h-2.7v2.87h2.7C361.64,449.23,362.41,448.68,362.41,447.78Z"/><path d="M366,449.69c0-3.21,2.65-5.5,6.29-5.5s6.26,2.29,6.26,5.5-2.64,5.5-6.26,5.5S366,452.89,366,449.69Zm9.92,0a3.65,3.65,0,1,0-3.63,3.49A3.4,3.4,0,0,0,375.93,449.69Z"/><path d="M380,450.74v-6.38h2.59v6.32c0,1.48,1,2.5,2.83,2.5s2.8-1,2.8-2.5v-6.32h2.61v6.38c0,2.63-1.76,4.45-5.41,4.45S380,453.37,380,450.74Z"/><path d="M401.15,455l-5.73-6.94V455h-2.56V444.36h2.63l5.57,6.68v-6.68h2.55V455Z"/><path d="M405.63,455V444.36h4.74c3.76,0,6.37,2.12,6.37,5.31s-2.61,5.33-6.36,5.33Zm8.5-5.33c0-1.86-1.3-3.31-3.75-3.31h-2.19V453h2.18C412.74,453,414.13,451.49,414.13,449.67Z"/><path d="M417.37,453.5l1.41-1.77a5.6,5.6,0,0,0,3.81,1.45c1.43,0,2.09-.56,2.09-1.18,0-1.85-6.91-.56-6.91-4.56,0-1.77,1.73-3.24,4.55-3.24a7.2,7.2,0,0,1,4.69,1.49l-1.43,1.69a5.55,5.55,0,0,0-3.49-1.17c-1.08,0-1.69.42-1.69,1.06,0,1.67,6.89.54,6.89,4.51,0,1.94-1.58,3.41-4.8,3.41A7.49,7.49,0,0,1,417.37,453.5Z"/><path d="M151.09,468.82c0-3.2,2.65-5.5,6.28-5.5s6.27,2.3,6.27,5.5-2.65,5.5-6.27,5.5S151.09,472,151.09,468.82Zm9.92,0a3.65,3.65,0,1,0-3.64,3.5A3.41,3.41,0,0,0,161,468.82Z"/><path d="M165.08,474.13V463.5h8.5v2h-5.94v2.23h5.81v2h-5.81v4.41Z"/><path d="M187.57,474.13l-.75-1.8h-5.15l-.76,1.8H178l4.63-10.63h3.21l4.62,10.63Zm-3.33-8.37-1.87,4.58h3.75Z"/><path d="M191.23,474.13V463.5h5.62c2.61,0,4,1.56,4,3.43s-1.44,3.41-4,3.41h-3.06v3.79Zm7-7.2c0-.9-.77-1.44-1.78-1.44h-2.7v2.86h2.7C197.5,468.35,198.27,467.8,198.27,466.93Z"/><path d="M202.12,474.13V463.5h5.62c2.61,0,4,1.56,4,3.43s-1.45,3.41-4,3.41h-3.06v3.79Zm7-7.2c0-.9-.77-1.44-1.78-1.44h-2.7v2.86h2.7C208.39,468.35,209.16,467.8,209.16,466.93Z"/><path d="M212.91,474.13V463.5h2.58v8.64h5.07v2Z"/><path d="M221.93,474.13V463.5h2.56v10.63Z"/><path d="M225.93,468.82c0-3.28,2.79-5.5,6.41-5.5a5.59,5.59,0,0,1,5,2.6l-2.2,1a3.3,3.3,0,0,0-2.81-1.55,3.51,3.51,0,1,0,0,7,3.3,3.3,0,0,0,2.81-1.55l2.2.94a5.63,5.63,0,0,1-5,2.61C228.72,474.32,225.93,472.09,225.93,468.82Z"/><path d="M246.69,474.13l-.75-1.8h-5.15l-.76,1.8h-2.9l4.63-10.63H245l4.63,10.63Zm-3.33-8.37-1.87,4.58h3.74Z"/><path d="M252,474.13v-8.64h-3.51v-2H258v2h-3.5v8.64Z"/><path d="M259.32,474.13V463.5h2.55v10.63Z"/><path d="M263.31,468.82c0-3.2,2.65-5.5,6.29-5.5s6.26,2.3,6.26,5.5-2.64,5.5-6.26,5.5S263.31,472,263.31,468.82Zm9.93,0a3.65,3.65,0,1,0-3.64,3.5A3.41,3.41,0,0,0,273.24,468.82Z"/><path d="M285.59,474.13l-5.73-6.93v6.93h-2.55V463.5h2.63l5.56,6.68V463.5h2.56v10.63Z"/><path d="M302.64,474.13l-.75-1.8h-5.15l-.76,1.8h-2.9l4.63-10.63h3.2l4.63,10.63Zm-3.33-8.37-1.87,4.58h3.74Z"/><path d="M314.58,474.13l-5.72-6.93v6.93H306.3V463.5h2.63l5.56,6.68V463.5h2.56v10.63Z"/><path d="M319.07,474.13V463.5h4.73c3.77,0,6.38,2.12,6.38,5.31s-2.61,5.32-6.36,5.32Zm8.5-5.32c0-1.87-1.3-3.32-3.75-3.32h-2.2v6.65h2.18C326.18,472.14,327.57,470.63,327.57,468.81Z"/><path d="M335.33,468.82c0-3.36,2.88-5.5,6.41-5.5a5.8,5.8,0,0,1,4.95,2.38l-2.11,1a3.61,3.61,0,1,0-2.84,5.6,4.32,4.32,0,0,0,2.54-.82v-1.27h-3.17v-2h5.72v4.08a7,7,0,0,1-5.09,2C338.21,474.32,335.33,472.17,335.33,468.82Z"/><path d="M355.3,474.13l-2.36-3.78h-1.87v3.78h-2.56V463.5h5.62c2.5,0,4.05,1.45,4.05,3.43a3.17,3.17,0,0,1-2.65,3.15l2.72,4.05Zm.25-7.22c0-.88-.77-1.42-1.78-1.42h-2.7v2.87h2.7C354.78,468.36,355.55,467.82,355.55,466.91Z"/><path d="M368,474.13l-.76-1.8h-5.15l-.75,1.8h-2.9l4.63-10.63h3.2l4.63,10.63Zm-3.33-8.37-1.87,4.58h3.74Z"/><path d="M380,474.13l-5.73-6.93v6.93h-2.55V463.5h2.63l5.56,6.68V463.5h2.56v10.63Z"/><path d="M387.23,474.13v-8.64h-3.51v-2h9.58v2h-3.5v8.64Z"/><path d="M160,493.27l-.76-1.8h-5.15l-.75,1.8h-2.9L155,482.63h3.21l4.63,10.64Zm-3.33-8.37-1.88,4.57h3.75Z"/><path d="M172,493.27l-2.1-7.31-2.09,7.31H165.1l-3.44-10.64h2.86l2.11,7.69,2.29-7.69h2l2.26,7.69,2.11-7.69h2.86l-3.42,10.64Z"/><path d="M186.51,493.27l-.76-1.8h-5.14l-.76,1.8H177l4.63-10.64h3.2l4.63,10.64Zm-3.33-8.37-1.87,4.57h3.74Z"/><path d="M197,493.27l-2.36-3.78h-1.87v3.78h-2.56V482.63h5.62c2.5,0,4.05,1.45,4.05,3.43a3.17,3.17,0,0,1-2.65,3.16l2.72,4Zm.25-7.23c0-.87-.78-1.42-1.78-1.42h-2.7v2.87h2.7C196.43,487.49,197.21,487,197.21,486Z"/><path d="M201.39,493.27V482.63h4.73c3.77,0,6.38,2.12,6.38,5.31s-2.61,5.33-6.36,5.33Zm8.5-5.33c0-1.86-1.3-3.32-3.75-3.32h-2.2v6.65h2.18C208.5,491.27,209.89,489.76,209.89,487.94Z"/><path d="M213.13,491.77l1.4-1.77a5.62,5.62,0,0,0,3.82,1.45c1.42,0,2.09-.56,2.09-1.18,0-1.85-6.92-.56-6.92-4.56,0-1.77,1.73-3.24,4.56-3.24a7.22,7.22,0,0,1,4.68,1.48l-1.42,1.7a5.55,5.55,0,0,0-3.49-1.17c-1.08,0-1.7.42-1.7,1,0,1.68,6.9.55,6.9,4.52,0,1.94-1.59,3.41-4.81,3.41A7.46,7.46,0,0,1,213.13,491.77Z"/><path class="cls-1" d="M162.93,505.66l-4.36,10.66h-.66l-4.34-10.66v10.66H152V503.5h2.28l4,9.76,4-9.76h2.28v12.82h-1.59Z"/><path class="cls-1" d="M173.26,515.26a4,4,0,0,1-3.07,1.29,3.09,3.09,0,0,1-3.25-3.07,3,3,0,0,1,3.25-3.06,3.87,3.87,0,0,1,3.07,1.27V510c0-1.25-1-2-2.34-2a3.7,3.7,0,0,0-2.85,1.28l-.67-1a4.85,4.85,0,0,1,3.71-1.54c2,0,3.59.88,3.59,3.13v6.38h-1.44Zm0-2.65a3.11,3.11,0,0,0-2.56-1.15,2,2,0,1,0,0,4.05,3.11,3.11,0,0,0,2.56-1.15Z"/><path class="cls-1" d="M178.08,518.8a1.34,1.34,0,0,0,1.38-1l.62-1.41L176.2,507h1.55l3.1,7.61,3.07-7.61h1.58l-4.65,11.16a2.75,2.75,0,0,1-2.73,1.88,4.52,4.52,0,0,1-1.06-.13l.23-1.31A2.14,2.14,0,0,0,178.08,518.8Z"/><path class="cls-1" d="M191.55,515.05c4.61-3.63,7.1-5.76,7.1-8a2.39,2.39,0,0,0-2.67-2.35,4.29,4.29,0,0,0-3.47,1.62l-1-1a5.54,5.54,0,0,1,4.45-2c2.14,0,4.31,1.21,4.31,3.77s-2.65,5-6.23,7.82h6.28v1.42h-8.79Z"/><path class="cls-1" d="M208,503.31a4.45,4.45,0,0,1,3.55,1.54l-.8,1.19a3.3,3.3,0,0,0-2.75-1.31c-2.48,0-3.61,2.52-3.61,5a4.26,4.26,0,0,0,0,.5,4.58,4.58,0,0,1,3.63-2,3.88,3.88,0,0,1,4.19,4.09,4.21,4.21,0,0,1-4.5,4.19c-3.57,0-4.94-3.13-4.94-6.61S204.4,503.31,208,503.31Zm-.35,6.34a3.94,3.94,0,0,0-3.2,1.92c.15,1.6,1,3.56,3.22,3.56a2.77,2.77,0,0,0,2.94-2.71A2.65,2.65,0,0,0,207.64,509.65Z"/><rect class="cls-1" x="107.31" y="7.32" width="32.54" height="0.3"/><path class="cls-1" d="M107.36,6.34a1.13,1.13,0,1,0,1.13,1.13A1.12,1.12,0,0,0,107.36,6.34Z"/><rect class="cls-1" x="107.31" y="156.57" width="32.54" height="0.3"/><path class="cls-1" d="M107.36,155.59a1.13,1.13,0,1,0,1.13,1.13A1.13,1.13,0,0,0,107.36,155.59Z"/><rect class="cls-1" x="107.31" y="444.59" width="32.54" height="0.3"/><path class="cls-1" d="M107.36,443.61a1.13,1.13,0,1,0,1.13,1.13A1.12,1.12,0,0,0,107.36,443.61Z"/><rect class="cls-1" x="107.31" y="305.35" width="32.54" height="0.3"/><path class="cls-1" d="M107.36,304.37a1.13,1.13,0,1,0,1.13,1.13A1.13,1.13,0,0,0,107.36,304.37Z"/><rect class="cls-2" x="11.85" y="7.05" width="77.74" height="149.65"/><rect class="cls-3" x="11.85" y="156.07" width="77.74" height="149.65"/><rect class="cls-4" x="11.85" y="305.09" width="77.74" height="139.65"/><rect class="cls-5" x="11.85" y="444.1" width="77.74" height="109.65"/><rect class="cls-5" x="11.85" y="559.76" width="77.74" height="7.88"/><rect class="cls-5" x="11.85" y="573.64" width="77.74" height="7.88"/><rect class="cls-5" x="11.85" y="587.52" width="77.74" height="7.88"/><rect class="cls-5" x="11.85" y="601.4" width="77.74" height="7.88"/><polygon class="cls-5" points="50.71 635.61 4.2 608.6 50.71 608.6 97.23 608.6 50.71 635.61"/></svg>