<svg id="Layer_1" data-name="Layer 1" xmlns="http://www.w3.org/2000/svg" viewBox="0 0 100 100"><defs><style>.cls-1{fill:#f2f0eb;}.cls-2{fill:#424547;}</style></defs><circle class="cls-1" cx="50" cy="50" r="37.53"/><path class="cls-2" d="M50.12,77.1A27.17,27.17,0,0,1,24,57.27a1,1,0,0,1,1.93-.54,25.11,25.11,0,0,0,49.16-4.16,1,1,0,1,1,2,.2A27,27,0,0,1,50.12,77.1Z"/><path class="cls-2" d="M24.21,47.79h-.12a1,1,0,0,1-.87-1.11,27.11,27.11,0,0,1,53.2-3.23,1,1,0,0,1-1.94.48,25.11,25.11,0,0,0-49.28,3A1,1,0,0,1,24.21,47.79Z"/><path class="cls-2" d="M24.68,43.71l2.82.19a.86.86,0,0,1,.65,1.35L26.57,47.6,25,49.94a.86.86,0,0,1-1.49-.11L22.26,47.3,21,44.76a.87.87,0,0,1,.84-1.25Z"/><path class="cls-2" d="M75.28,56.59l-2.79-.39a.87.87,0,0,1-.56-1.4l1.74-2.22,1.74-2.22a.87.87,0,0,1,1.49.21l1,2.62L79,55.81A.87.87,0,0,1,78.08,57Z"/><path class="cls-2" d="M61.4,58.78H38.6A3.61,3.61,0,0,1,35,55.17V44.83a3.61,3.61,0,0,1,3.6-3.61H61.4A3.61,3.61,0,0,1,65,44.83V55.17A3.61,3.61,0,0,1,61.4,58.78ZM38.6,43.22A1.61,1.61,0,0,0,37,44.83V55.17a1.61,1.61,0,0,0,1.6,1.61H61.4A1.61,1.61,0,0,0,63,55.17V44.83a1.61,1.61,0,0,0-1.6-1.61Z"/><path class="cls-2" d="M50.43,53.76v1h-.67v-1a3.5,3.5,0,0,1-2.5-1.15l.54-.69a3.08,3.08,0,0,0,2,1V50.29c-1.11-.29-2.27-.67-2.27-2a2.17,2.17,0,0,1,2.27-2v-1h.67v1a3.28,3.28,0,0,1,2.15,1l-.55.66a2.58,2.58,0,0,0-1.6-.83v2.38c1.12.31,2.31.73,2.31,2.16C52.74,52.62,52.12,53.64,50.43,53.76Zm-.67-4.46V47.07c-.79,0-1.33.5-1.33,1.15S49,49.09,49.76,49.3Zm2.05,2.42c0-.75-.63-1-1.38-1.25v2.47C51.48,52.85,51.81,52.22,51.81,51.72Z"/></svg>