<svg id="Layer_1" data-name="Layer 1" xmlns="http://www.w3.org/2000/svg" viewBox="0 0 100 100"><defs><style>.cls-1{fill:#f2f0eb;}.cls-2{fill:#f3f1ec;}.cls-3{fill:#424547;}</style></defs><circle class="cls-1" cx="49.8" cy="50" r="41.04"/><ellipse class="cls-2" cx="28.94" cy="64.42" rx="18.04" ry="11.14"/><path class="cls-3" d="M28.94,77.05c-11,0-19.55-5.55-19.55-12.63S18,51.78,28.94,51.78s19.54,5.55,19.54,12.64S39.9,77.05,28.94,77.05Zm0-22.27c-9,0-16.55,4.42-16.55,9.64S20,74.05,28.94,74.05s16.54-4.41,16.54-9.63S37.91,54.78,28.94,54.78Z"/><ellipse class="cls-2" cx="28.94" cy="53.28" rx="18.04" ry="11.14"/><path class="cls-3" d="M28.94,65.92c-11,0-19.55-5.55-19.55-12.64S18,40.65,28.94,40.65,48.48,46.2,48.48,53.28,39.9,65.92,28.94,65.92Zm0-22.27c-9,0-16.55,4.41-16.55,9.63S20,62.92,28.94,62.92s16.54-4.41,16.54-9.64S37.91,43.65,28.94,43.65Z"/><ellipse class="cls-2" cx="28.94" cy="42.53" rx="18.04" ry="11.14"/><path class="cls-3" d="M28.94,55.17c-11,0-19.55-5.55-19.55-12.64S18,29.9,28.94,29.9s19.54,5.55,19.54,12.63S39.9,55.17,28.94,55.17Zm0-22.27c-9,0-16.55,4.41-16.55,9.63S20,52.17,28.94,52.17s16.54-4.41,16.54-9.64S37.91,32.9,28.94,32.9Z"/><ellipse class="cls-2" cx="28.94" cy="31.4" rx="18.04" ry="11.14"/><path class="cls-3" d="M28.94,44C18,44,9.39,38.48,9.39,31.4S18,18.76,28.94,18.76,48.48,24.31,48.48,31.4,39.9,44,28.94,44Zm0-22.27c-9,0-16.55,4.41-16.55,9.64S20,41,28.94,41s16.54-4.41,16.54-9.63S37.91,21.76,28.94,21.76Z"/><ellipse class="cls-2" cx="71.85" cy="64.8" rx="18.04" ry="11.14"/><path class="cls-3" d="M71.85,77.44c-11,0-19.54-5.55-19.54-12.64s8.58-12.63,19.54-12.63S91.39,57.72,91.39,64.8,82.81,77.44,71.85,77.44Zm0-22.27c-9,0-16.54,4.41-16.54,9.63s7.57,9.64,16.54,9.64S88.39,70,88.39,64.8,80.82,55.17,71.85,55.17Z"/><ellipse class="cls-2" cx="71.85" cy="55.61" rx="18.04" ry="11.14"/><path class="cls-3" d="M71.85,68.25c-11,0-19.54-5.55-19.54-12.64S60.89,43,71.85,43s19.54,5.55,19.54,12.63S82.81,68.25,71.85,68.25Zm0-22.27c-9,0-16.54,4.41-16.54,9.63s7.57,9.64,16.54,9.64,16.54-4.41,16.54-9.64S80.82,46,71.85,46Z"/><path class="cls-3" d="M29.4,35.49v1.07h-.72V35.5A3.83,3.83,0,0,1,26,34.25l.6-.75a3.24,3.24,0,0,0,2.13,1.11V31.72c-1.22-.32-2.48-.74-2.48-2.2a2.36,2.36,0,0,1,2.48-2.2V26.23h.72v1.11a3.56,3.56,0,0,1,2.35,1.08l-.6.73a2.8,2.8,0,0,0-1.75-.91v2.59c1.23.34,2.53.79,2.53,2.35C31.93,34.25,31.25,35.36,29.4,35.49Zm-.72-4.85V28.21c-.86.05-1.45.55-1.45,1.25S27.88,30.41,28.68,30.64Zm2.23,2.63c0-.81-.69-1.11-1.51-1.36V34.6C30.55,34.5,30.91,33.81,30.91,33.27Z"/><path class="cls-3" d="M72.31,59.62v1.07h-.72V59.63a3.83,3.83,0,0,1-2.73-1.25l.6-.75a3.29,3.29,0,0,0,2.13,1.11V55.85c-1.22-.32-2.48-.74-2.48-2.2a2.37,2.37,0,0,1,2.48-2.21V50.36h.72v1.11a3.51,3.51,0,0,1,2.35,1.08l-.6.73a2.8,2.8,0,0,0-1.75-.91V55c1.23.35,2.53.8,2.53,2.36C74.84,58.38,74.16,59.49,72.31,59.62Zm-.72-4.86V52.34c-.86,0-1.45.54-1.45,1.25S70.79,54.54,71.59,54.76Zm2.24,2.63c0-.81-.69-1.1-1.52-1.35v2.69C73.46,58.63,73.83,57.94,73.83,57.39Z"/></svg>