<?xml version="1.0" encoding="utf-8"?>
<!-- Generator: Adobe Illustrator 19.1.0, SVG Export Plug-In . SVG Version: 6.00 Build 0)  -->
<svg version="1.1" xmlns="http://www.w3.org/2000/svg" xmlns:xlink="http://www.w3.org/1999/xlink" x="0px" y="0px"
	 viewBox="0 0 150 150" enable-background="new 0 0 150 150" xml:space="preserve">
<g id="bottom">
	<g>
		<circle fill="#E8E3D4" cx="75" cy="75" r="47.038"/>
		<g>
			<g>
				<polygon fill="#2A8175" points="86.773,43.352 81.253,43.352 81.253,26.523 86.773,32.043 				"/>
				<polygon fill="#2A8175" points="56.991,43.352 51.471,43.352 51.471,32.043 56.991,26.523 				"/>
				<polygon fill="#79A883" points="51.471,32.043 86.773,32.043 81.253,26.523 56.991,26.523 				"/>
			</g>
			<polygon fill="#2A8175" points="39.093,43.352 40.353,42.806 41.615,42.26 42.877,42.806 44.096,43.334 45.314,42.806 
				46.576,42.26 47.839,42.806 49.098,43.352 49.104,43.352 50.363,42.806 51.625,42.26 52.888,42.806 54.106,43.334 55.325,42.806 
				56.587,42.26 57.849,42.806 59.109,43.352 59.114,43.352 60.374,42.806 61.636,42.26 62.898,42.806 64.117,43.334 65.335,42.806 
				66.597,42.26 67.86,42.806 69.119,43.352 69.125,43.352 70.384,42.806 71.646,42.26 72.909,42.806 74.127,43.334 75.346,42.806 
				76.608,42.26 77.87,42.806 79.13,43.352 79.135,43.352 80.395,42.806 81.657,42.26 82.919,42.806 84.138,43.334 85.356,42.806 
				86.618,42.26 87.881,42.806 89.14,43.352 89.146,43.352 90.405,42.806 91.667,42.26 92.93,42.806 94.148,43.334 95.367,42.806 
				96.629,42.26 97.891,42.806 99.151,43.352 99.153,43.352 99.153,111.721 39.09,111.721 39.09,43.352 			"/>
			<linearGradient id="SVGID_2_" gradientUnits="userSpaceOnUse" x1="52.5248" y1="76.9906" x2="87.6912" y2="76.9906">
				<stop  offset="0" style="stop-color:#FFFFFF"/>
				<stop  offset="1" style="stop-color:#000000"/>
			</linearGradient>
			<polygon opacity="0.2" fill="url(#SVGID_2_)" points="39.093,43.352 40.353,42.806 41.615,42.26 42.877,42.806 44.096,43.334 
				45.314,42.806 46.576,42.26 47.839,42.806 49.098,43.352 49.104,43.352 50.363,42.806 51.625,42.26 52.888,42.806 54.106,43.334 
				55.325,42.806 56.587,42.26 57.849,42.806 59.109,43.352 59.114,43.352 60.374,42.806 61.636,42.26 62.898,42.806 64.117,43.334 
				65.335,42.806 66.597,42.26 67.86,42.806 69.119,43.352 69.125,43.352 70.384,42.806 71.646,42.26 72.909,42.806 74.127,43.334 
				75.346,42.806 76.608,42.26 77.87,42.806 79.13,43.352 79.135,43.352 80.395,42.806 81.657,42.26 82.919,42.806 84.138,43.334 
				85.356,42.806 86.618,42.26 87.881,42.806 89.14,43.352 89.146,43.352 90.405,42.806 91.667,42.26 92.93,42.806 94.148,43.334 
				95.367,42.806 96.629,42.26 97.891,42.806 99.151,43.352 99.153,43.352 99.153,111.721 39.09,111.721 39.09,43.352 			"/>
			<g>
				<polygon fill="#79A883" points="98.53,55.108 93.009,55.108 93.009,38.279 98.53,43.799 				"/>
				<polygon fill="#79A883" points="68.747,55.108 63.227,55.108 63.227,43.799 68.747,38.279 				"/>
				<rect x="68.747" y="38.279" fill="#2A8175" width="24.262" height="5.52"/>
			</g>
			<polygon fill="#2A8175" points="50.847,55.108 39.09,43.352 39.09,111.721 50.847,123.478 			"/>
			<polygon fill="#2A8175" points="99.153,43.352 110.91,55.108 110.91,123.478 99.153,111.721 			"/>
			<polygon fill="#79A883" points="50.849,55.108 52.109,54.563 53.371,54.016 54.633,54.563 55.852,55.09 57.07,54.563 
				58.333,54.016 59.595,54.563 60.854,55.108 60.86,55.108 62.119,54.563 63.382,54.016 64.644,54.563 65.862,55.09 67.081,54.563 
				68.343,54.016 69.605,54.563 70.865,55.108 70.87,55.108 72.13,54.563 73.392,54.016 74.654,54.563 75.873,55.09 77.091,54.563 
				78.354,54.016 79.616,54.563 80.875,55.108 80.881,55.108 82.14,54.563 83.403,54.016 84.665,54.563 85.883,55.09 87.102,54.563 
				88.364,54.016 89.626,54.563 90.886,55.108 90.891,55.108 92.151,54.563 93.413,54.016 94.675,54.563 95.894,55.09 
				97.112,54.563 98.375,54.016 99.637,54.563 100.896,55.108 100.902,55.108 102.161,54.563 103.424,54.016 104.686,54.563 
				105.904,55.09 107.123,54.563 108.385,54.016 109.647,54.563 110.907,55.108 110.91,55.108 110.91,123.478 50.847,123.478 
				50.847,55.108 			"/>
			<polygon fill="#479686" points="50.847,55.108 39.09,43.352 39.09,111.721 50.847,123.478 			"/>
		</g>
	</g>
</g>
<g id="Farming" display="none">
</g>
<g id="Manufacturing" display="none">
</g>
<g id="Waste_diverted">
</g>
<g id="jobs">
</g>
<g id="consumer_ed_hover">
</g>
<g id="pop_up" display="none">
</g>
</svg>
