<?xml version="1.0" encoding="utf-8"?>
<!-- Generator: Adobe Illustrator 19.1.0, SVG Export Plug-In . SVG Version: 6.00 Build 0)  -->
<svg version="1.1" xmlns="http://www.w3.org/2000/svg" xmlns:xlink="http://www.w3.org/1999/xlink" x="0px" y="0px"
	 viewBox="0 0 150 150" enable-background="new 0 0 150 150" xml:space="preserve">
<g id="bottom">
	<g>
		<circle fill="#E8E3D4" cx="75" cy="87.131" r="47.038"/>
		<g>
			<circle fill="#79A883" cx="37.788" cy="128.095" r="7.456"/>
			<circle fill="#79A883" cx="48.518" cy="120.317" r="11.05"/>
			<circle fill="#79A883" cx="50.901" cy="103.77" r="15.384"/>
			<path fill="#79A883" d="M54.926,87.845c-8.264,8.264-8.259,21.656,0.004,29.919c8.265,8.265,21.656,8.27,29.921,0.005
				s8.263-21.659-0.002-29.924C76.585,79.583,63.19,79.581,54.926,87.845z"/>
			<path opacity="0.2" fill="#79A883" d="M54.926,87.845c-8.264,8.264-8.259,21.656,0.004,29.919
				c8.265,8.265,21.656,8.27,29.921,0.005s8.263-21.659-0.002-29.924C76.585,79.583,63.19,79.581,54.926,87.845z"/>
			<path fill="#79A883" d="M50.931,58.965c-8.263,8.263-8.257,21.658,0.005,29.921c8.262,8.262,21.655,8.266,29.918,0.003
				c8.264-8.264,8.264-21.661,0.002-29.923C72.593,50.703,59.195,50.701,50.931,58.965z"/>
			<circle fill="#79A883" cx="92.655" cy="77.088" r="27.013"/>
			<circle opacity="0.2" fill="#79A883" cx="92.655" cy="77.088" r="27.013"/>
			<path fill="#79A883" d="M62.305,23.173C50.669,34.809,50.672,53.67,62.307,65.305c11.634,11.634,30.494,11.637,42.131,0.001
				c11.635-11.635,11.633-30.497-0.001-42.131C92.803,11.54,73.94,11.538,62.305,23.173z"/>
		</g>
	</g>
</g>
</svg>
