<?xml version="1.0" encoding="utf-8"?>
<!-- Generator: Adobe Illustrator 23.0.3, SVG Export Plug-In . SVG Version: 6.00 Build 0)  -->
<svg version="1.1" id="Layer_1" xmlns="http://www.w3.org/2000/svg" xmlns:xlink="http://www.w3.org/1999/xlink" x="0px" y="0px"
	 viewBox="0 0 150 150" style="enable-background:new 0 0 150 150;" xml:space="preserve">
<style type="text/css">
	.st0{fill:#EFECE4;}
	.st1{fill:#FFFFFF;}
	.st2{fill:#78B4AB;}
	.st3{fill:#DCDDDE;}
	.st4{fill:#F5F3EE;}
	.st5{fill:#36383A;}
	.st6{opacity:0.5;fill:none;stroke:#737678;stroke-miterlimit:10;}
	.st7{opacity:0.7;}
	.st8{fill:none;stroke:#E9E6DA;stroke-miterlimit:10;}
	.st9{fill:#107669;}
	.st10{fill:#E9E6DA;}
	.st11{fill:#CF3339;}
	.st12{fill:#86A55C;}
	.st13{fill:#68813C;}
	.st14{fill:#A12B2F;}
	.st15{fill:#53575A;}
	.st16{fill:#F6F4EF;}
	.st17{fill:none;stroke:#414042;stroke-width:0.3;stroke-miterlimit:10;}
	.st18{fill:#D5E0C6;}
	.st19{fill:#C8D6B4;}
	.st20{fill:#BBCCA2;}
	.st21{fill:#AEC290;}
	.st22{fill:#A1B97F;}
	.st23{fill:#93AF6D;}
	.st24{fill:#414042;}
	.st25{fill:#EFECE4;stroke:#414042;stroke-width:3;stroke-miterlimit:10;}
	.st26{fill:#414042;stroke:#414042;stroke-width:3;stroke-miterlimit:10;}
	.st27{fill:none;stroke:#414042;stroke-width:3;stroke-miterlimit:10;}
	.st28{fill:none;stroke:#414042;stroke-width:3;stroke-miterlimit:10;stroke-dasharray:3.0344,2.0229;}
	.st29{fill:none;stroke:#414042;stroke-width:3;stroke-miterlimit:10;stroke-dasharray:3.029,2.0193;}
	.st30{fill:#53575A;stroke:#53575A;stroke-miterlimit:10;}
	.st31{fill:#6F6F71;}
	.st32{fill:none;stroke:#414042;stroke-width:3;stroke-linecap:round;stroke-miterlimit:10;}
</style>
<circle class="st0" cx="75" cy="75" r="73.28"/>
<g>
	<path class="st24" d="M81.8,95.72c2.37-1.76,3.92-4.58,3.92-7.75c0-5.33-4.34-9.67-9.67-9.67s-9.67,4.34-9.67,9.67
		c0,3.18,1.55,5.99,3.92,7.75c-2.8,1.09-5.2,2.96-6.91,5.32c-5.74-2.96-10.35-7.82-12.9-13.79c-0.7-1.63-1.24-3.35-1.62-5.12l0,0
		l4.74,3.77c0.65,0.52,1.59,0.41,2.11-0.24c0.52-0.65,0.41-1.59-0.24-2.11l-7.88-6.28c-0.65-0.52-1.59-0.41-2.11,0.24l-6.27,7.88
		c-0.52,0.65-0.41,1.59,0.24,2.11c0.31,0.24,0.68,0.35,1.03,0.32c0.41-0.03,0.8-0.22,1.07-0.56l4.05-5.09
		c0.24,1.24,0.55,2.46,0.93,3.65c2.51,7.81,8.06,14.26,15.23,18.01c-0.78,1.8-1.22,3.78-1.22,5.86c0,0.83,0.67,1.5,1.5,1.5h28
		c0.01,0,0.01,0,0.02,0c0.83,0,1.5-0.67,1.5-1.5c0-0.09-0.01-0.18-0.02-0.26C91.44,103.22,87.43,97.92,81.8,95.72z M69.38,87.97
		c0-3.68,2.99-6.67,6.67-6.67c3.68,0,6.67,2.99,6.67,6.67s-2.99,6.67-6.67,6.67C72.37,94.64,69.38,91.65,69.38,87.97z M63.64,108.2
		c0.77-5.95,6.04-10.56,12.4-10.56c6.37,0,11.64,4.62,12.4,10.56H63.64z"/>
	<path class="st24" d="M115.43,73.54c-0.11-6.22-4.12-11.53-9.75-13.72c2.37-1.76,3.92-4.58,3.92-7.75c0-5.33-4.34-9.67-9.67-9.67
		s-9.67,4.34-9.67,9.67c0,3.18,1.55,5.99,3.92,7.75c-5.71,2.22-9.75,7.65-9.75,13.98c0,0.83,0.67,1.5,1.5,1.5h17.88
		c0.02,0.35,0.03,0.7,0.03,1.06c0,5.75-1.75,11.1-4.76,15.54c-1.13,1.67-2.44,3.21-3.9,4.59l0.99-5.37c0.15-0.82-0.39-1.6-1.2-1.75
		c-0.82-0.15-1.6,0.39-1.75,1.2l-1.83,9.91c-0.15,0.82,0.39,1.6,1.2,1.75l9.91,1.83c0.82,0.15,1.6-0.39,1.75-1.2
		c0.07-0.38-0.01-0.76-0.2-1.07c-0.21-0.35-0.57-0.6-1-0.68l-6.81-1.26c0.93-0.8,1.82-1.65,2.65-2.56
		c5.06-5.52,8.15-12.87,8.15-20.93c0-0.36-0.01-0.71-0.03-1.06h6.91c0.01,0,0.01,0,0.02,0c0.83,0,1.5-0.67,1.5-1.5
		C115.45,73.72,115.45,73.63,115.43,73.54z M93.27,52.07c0-3.68,2.99-6.67,6.67-6.67s6.67,2.99,6.67,6.67
		c0,3.68-2.99,6.67-6.67,6.67S93.27,55.75,93.27,52.07z M87.53,72.3c0.77-5.95,6.04-10.56,12.4-10.56s11.64,4.62,12.4,10.56H87.53z"
		/>
	<path class="st24" d="M64.07,75.3c0.83,0,1.5-0.67,1.5-1.5c0-0.09-0.01-0.18-0.02-0.26c-0.11-6.22-4.12-11.52-9.75-13.72
		c1.86-1.39,3.22-3.42,3.71-5.77c4.62-3.44,10.35-5.49,16.54-5.49c0.29,0,0.58,0.01,0.87,0.02c2.14,0.07,4.22,0.37,6.22,0.9
		l-6.35,2.35c-0.78,0.29-1.17,1.15-0.89,1.93c0.29,0.78,1.15,1.17,1.93,0.89l9.45-3.5c0.78-0.29,1.17-1.15,0.89-1.93l-3.5-9.45
		c-0.29-0.78-1.15-1.17-1.93-0.89c-0.37,0.13-0.65,0.4-0.81,0.72c-0.19,0.36-0.23,0.8-0.07,1.21l2.06,5.55l0,0
		c-1.13-0.3-2.28-0.53-3.46-0.69c-1.44-0.21-2.9-0.32-4.4-0.32c-6.08,0-11.74,1.77-16.52,4.81c-0.89-4.42-4.8-7.76-9.48-7.76
		c-5.33,0-9.67,4.34-9.67,9.67c0,3.18,1.55,5.99,3.92,7.75c-5.71,2.22-9.75,7.65-9.75,13.98c0,0.83,0.67,1.5,1.5,1.5h28
		C64.05,75.3,64.06,75.3,64.07,75.3z M43.38,52.07c0-3.68,2.99-6.67,6.67-6.67c3.68,0,6.67,2.99,6.67,6.67
		c0,3.68-2.99,6.67-6.67,6.67C46.37,58.74,43.38,55.75,43.38,52.07z M37.64,72.3c0.77-5.95,6.04-10.56,12.4-10.56
		s11.64,4.62,12.4,10.56H37.64z"/>
</g>
</svg>
