<svg xmlns="http://www.w3.org/2000/svg" viewBox="0 0 300 300"><defs><style>.cls-1{fill:#008574;}.cls-2{fill:#fff;}</style></defs><g id="Layer_2" data-name="Layer 2"><g id="Layer_1-2" data-name="Layer 1"><g id="Ellipse_223" data-name="Ellipse 223"><circle class="cls-1" cx="150" cy="150" r="150"/></g><g id="Group_834" data-name="Group 834"><g id="Path_1214" data-name="Path 1214"><path class="cls-2" d="M164.18,201.21H75.07v-4a44.62,44.62,0,0,1,44.48-44.48h.07a44.6,44.6,0,0,1,44.55,44.48Zm-80.88-8H156a36.59,36.59,0,0,0-36.32-32.48h-.06A36.62,36.62,0,0,0,83.3,193.21Z"/></g><g id="Group_820" data-name="Group 820"><g id="Group_819" data-name="Group 819"><g id="Ellipse_215" data-name="Ellipse 215"><path class="cls-2" d="M119.63,148.43a27.16,27.16,0,1,1,27.16-27.16A27.19,27.19,0,0,1,119.63,148.43Zm0-46.32a19.16,19.16,0,1,0,19.16,19.16A19.18,19.18,0,0,0,119.63,102.11Z"/></g></g></g><g id="Path_1215" data-name="Path 1215"><path class="cls-2" d="M225.91,201.21H136.8v-4a44.56,44.56,0,0,1,89.11,0Zm-80.89-8h72.67a36.56,36.56,0,0,0-72.67,0Z"/></g><g id="Group_822" data-name="Group 822"><g id="Group_821" data-name="Group 821"><g id="Ellipse_216" data-name="Ellipse 216"><path class="cls-2" d="M181.36,148.43a27.16,27.16,0,1,1,27.15-27.16A27.19,27.19,0,0,1,181.36,148.43Zm0-46.32a19.16,19.16,0,1,0,19.15,19.16A19.18,19.18,0,0,0,181.36,102.11Z"/></g></g></g></g></g></g></svg>