<svg xmlns="http://www.w3.org/2000/svg" viewBox="0 0 300 300"><defs><style>.cls-1{fill:#00d1c3;}.cls-2{fill:#fff;}</style></defs><g id="Layer_2" data-name="Layer 2"><g id="Layer_1-2" data-name="Layer 1"><g id="Ellipse_225" data-name="Ellipse 225"><circle class="cls-1" cx="150" cy="150" r="150"/></g><g id="Group_836" data-name="Group 836"><g id="Group_828" data-name="Group 828"><g id="Path_1217" data-name="Path 1217"><polygon class="cls-2" points="175.22 240.36 147.27 207.94 118.61 240.09 118.61 176.76 126.61 176.76 126.61 219.1 147.38 195.81 167.22 218.83 167.22 176.18 175.22 176.18 175.22 240.36"/></g><g id="Group_827" data-name="Group 827"><g id="Ellipse_221" data-name="Ellipse 221"><path class="cls-2" d="M147.08,186.55a60.29,60.29,0,1,1,60.28-60.28A60.35,60.35,0,0,1,147.08,186.55Zm0-112.57a52.29,52.29,0,1,0,52.28,52.29A52.35,52.35,0,0,0,147.08,74Z"/></g></g><g id="Ellipse_222" data-name="Ellipse 222"><path class="cls-2" d="M147.08,174.13A47.87,47.87,0,1,1,195,126.27,47.92,47.92,0,0,1,147.08,174.13Zm0-87.73A39.87,39.87,0,1,0,187,126.27,39.91,39.91,0,0,0,147.08,86.4Z"/></g></g><g id="Group_830" data-name="Group 830"><g id="Group_829" data-name="Group 829"><g id="Line_574" data-name="Line 574"><rect class="cls-2" x="131.1" y="122.89" width="31.96" height="8"/></g><g id="Line_575" data-name="Line 575"><rect class="cls-2" x="131.1" y="108.05" width="31.96" height="8"/></g><g id="Line_576" data-name="Line 576"><rect class="cls-2" x="131.1" y="137.73" width="31.96" height="8"/></g></g></g></g></g></g></svg>