<svg id="Layer_1" data-name="Layer 1" xmlns="http://www.w3.org/2000/svg" viewBox="0 0 300 300"><defs><style>.cls-1{fill:#0092b7;}.cls-2{fill:#fff;}</style></defs><g id="Ellipse_226" data-name="Ellipse 226"><circle class="cls-1" cx="150" cy="150" r="150"/></g><path class="cls-2" d="M192.34,260.18l-37.54-11,12.48-62.54a38.05,38.05,0,0,1,8.45-17.3l19.93-23.11A8.89,8.89,0,0,1,208,145.05a9,9,0,0,1,2.15,12.31l-10.66,16.3a1,1,0,0,0-.14.82,1,1,0,0,0,.5.67,1.06,1.06,0,0,0,1.39-.32l15-22.61h0a56.36,56.36,0,0,0,5.46-10.51l20.25-51.54a8.81,8.81,0,0,1,11.21-4.57,8.7,8.7,0,0,1,5.45,9l0,.22-11,69.21A51.74,51.74,0,0,1,231.39,194l-16.61,15.21A43.61,43.61,0,0,0,202.73,228Zm-28.26-16.61,23,6.74,8-24.78a51.62,51.62,0,0,1,14.27-22.22L226,188.1a43.7,43.7,0,0,0,13.61-25.31l11-69a.76.76,0,0,0-.49-.71.89.89,0,0,0-1,.48l-20.07,51.14a64.71,64.71,0,0,1-6.24,12h0l-15,22.65a9.05,9.05,0,0,1-15.09-10L203.4,153a1,1,0,0,0-.31-1.57.91.91,0,0,0-1.43.11l-.11.13-19.76,22.92a29.85,29.85,0,0,0-6.66,13.64Z"/><path class="cls-2" d="M107.66,260.18,97.27,228a43.61,43.61,0,0,0-12-18.77L68.61,194A51.74,51.74,0,0,1,52.5,164.05l-11-69.43a8.7,8.7,0,0,1,5.45-9,8.81,8.81,0,0,1,11.21,4.57l.11.24,20.14,51.3a56.36,56.36,0,0,0,5.46,10.51l15,22.65a1.05,1.05,0,0,0,1.36.27,1,1,0,0,0,.5-.67,1,1,0,0,0-.14-.82L89.9,157.36a9,9,0,0,1,2.15-12.31,8.89,8.89,0,0,1,12.28,1.17l.15.17,19.79,23a38.05,38.05,0,0,1,8.45,17.3l12.48,62.54ZM49.43,93.74l11,69.05A43.7,43.7,0,0,0,74,188.1l16.61,15.21a51.62,51.62,0,0,1,14.27,22.22l8,24.78,23-6.74-11-55.36a29.85,29.85,0,0,0-6.66-13.64l-19.87-23a.91.91,0,0,0-1.43-.11A1,1,0,0,0,96.6,153l10.66,16.31A9.05,9.05,0,0,1,92.2,179.34l-15-22.7a64.71,64.71,0,0,1-6.24-12L50.87,93.51a.89.89,0,0,0-.95-.48A.76.76,0,0,0,49.43,93.74Z"/><g id="Path_985" data-name="Path 985"><path class="cls-2" d="M150,160.59a4.87,4.87,0,0,1-2.91-1.08l-.22-.17a259.21,259.21,0,0,1-20.47-16.15A125.79,125.79,0,0,1,108,123.61a59.32,59.32,0,0,1-8.85-16.36,35.61,35.61,0,0,1-2-12.13,31.56,31.56,0,0,1,6.15-18A27.81,27.81,0,0,1,126.22,65h.14a31.72,31.72,0,0,1,19,6.65l.08.07A60.48,60.48,0,0,1,150,75.86,54.31,54.31,0,0,1,155.52,71l.09-.06a31.13,31.13,0,0,1,15.57-5.79,27.22,27.22,0,0,1,22.61,8.4,31.87,31.87,0,0,1,8.8,17.86,34.23,34.23,0,0,1-1.71,15.82,58.38,58.38,0,0,1-8.19,15.49,118,118,0,0,1-15.44,17.15,248.9,248.9,0,0,1-24.19,19.51l-.15.12A4.74,4.74,0,0,1,150,160.59ZM126.19,73a19.82,19.82,0,0,0-16.35,8.64l-.09.12a23.56,23.56,0,0,0-4.62,13.47,27.61,27.61,0,0,0,1.55,9.36,51.08,51.08,0,0,0,7.66,14.15,118.43,118.43,0,0,0,17.33,18.4c5.23,4.62,11.08,9.27,18.35,14.57A244.35,244.35,0,0,0,171.85,134a109.86,109.86,0,0,0,14.4-16,50.45,50.45,0,0,0,7.09-13.39v0a26.41,26.41,0,0,0,1.31-12.09A23.94,23.94,0,0,0,188,79.1a19.29,19.29,0,0,0-16.07-6,23.37,23.37,0,0,0-11.63,4.28,47.58,47.58,0,0,0-6.45,6l-.1.11-.3.33A4.64,4.64,0,0,1,150,85.56h0a4.56,4.56,0,0,1-3.47-1.72l-.3-.32-.11-.11A52.34,52.34,0,0,0,140.43,78,23.74,23.74,0,0,0,126.29,73Z"/></g></svg>