<svg xmlns="http://www.w3.org/2000/svg" viewBox="0 0 300 300"><defs><style>.cls-1{fill:#5ca958;}.cls-2{fill:#fff;stroke:#fff;stroke-miterlimit:10;stroke-width:3.01px;}</style></defs><g id="Layer_2" data-name="Layer 2"><g id="Layer_1-2" data-name="Layer 1"><g id="Group_721" data-name="Group 721"><circle id="Ellipse_106" data-name="Ellipse 106" class="cls-1" cx="150" cy="150" r="150"/><path id="Path_986" data-name="Path 986" class="cls-2" d="M154.11,147.16v-39c12.45,1.22,20.34,8.8,20.7,20l.06,1.41h6.59l0-1.5c-.45-14.59-11.36-25-27.31-26.28V90.75h-6.6v10.93c-16.82,1.16-28,12-28,27.38,0,19.2,15.22,22,28,23.88V193c-14.25-.93-23.53-9.09-23.79-21.11l0-1.43h-6.62l.05,1.5c.44,15.51,12.58,26.37,30.39,27.35v10.92h6.59v-11c18.07-1.43,29.66-12.34,29.66-28.11C183.76,151.88,168.27,149.15,154.11,147.16Zm0,6.64C168,155.87,177,158.55,177,171.19c0,12.33-8.74,20.57-22.91,21.77Zm-27.9-24.74c0-12,8.11-20,21.3-21v38.3c-11.81-1.74-21.3-4.6-21.3-17.26Z"/></g></g></g></svg>