<svg xmlns="http://www.w3.org/2000/svg" viewBox="0 0 300 300"><defs><style>.cls-1{fill:#ffc432;}.cls-2{fill:none;stroke:#fff;stroke-miterlimit:10;stroke-width:10.13px;}</style></defs><g id="Layer_2" data-name="Layer 2"><g id="Layer_1-2" data-name="Layer 1"><g id="Group_716" data-name="Group 716"><circle id="Ellipse_171" data-name="Ellipse 171" class="cls-1" cx="150" cy="150" r="150"/><g id="Group_715" data-name="Group 715"><path id="Path_1143" data-name="Path 1143" class="cls-2" d="M175.24,173.87H134.89l-4,57.35h49.71Z"/><path id="Path_1144" data-name="Path 1144" class="cls-2" d="M174,90.61a19.16,19.16,0,0,0-13.08-16A18.29,18.29,0,0,0,150,74.34a28.83,28.83,0,0,0-20,52.92,20.39,20.39,0,0,0,3.07.9A11.1,11.1,0,0,1,142,139.05h26.15V120a51.33,51.33,0,0,1,4.44-20A18.93,18.93,0,0,0,174,90.61Z"/><line id="Line_528" data-name="Line 528" class="cls-2" x1="125.37" y1="156.95" x2="184.76" y2="156.95"/></g></g></g></g></svg>