<svg xmlns="http://www.w3.org/2000/svg" viewBox="0 0 300 300"><defs><style>.cls-1{fill:#00d1c3;}.cls-2{fill:#fff;}</style></defs><g id="Layer_2" data-name="Layer 2"><g id="Layer_1-2" data-name="Layer 1"><circle class="cls-1" cx="150" cy="150" r="150"/><g id="Group_768" data-name="Group 768"><g id="Path_1166" data-name="Path 1166"><path class="cls-2" d="M148.82,156.5,56.13,119.86l97.41-36.5,90,36.75ZM84,120.11l64.91,25.66,67.51-25.94-63-25.73Z"/></g><g id="Path_1167" data-name="Path 1167"><path class="cls-2" d="M148.73,191.88a79.57,79.57,0,0,1-22.49-3.23C106.52,182.83,95,171.28,94.52,170.8l-1.44-1.46V132.57h10v32.52a72.4,72.4,0,0,0,26.43,14.1c23.15,6.67,47.32,1.29,71.84-16l5.76,8.18C184.91,187,165,191.88,148.73,191.88Z"/></g><g id="Path_1168" data-name="Path 1168"><polygon class="cls-2" points="211.53 227.27 201.53 227.27 201.53 134.52 149.09 124.83 150.91 115 211.53 126.19 211.53 227.27"/></g></g></g></g></svg>