<svg xmlns="http://www.w3.org/2000/svg" viewBox="0 0 300 300"><defs><style>.cls-1{fill:#00b982;}.cls-2{fill:#fff;}</style></defs><g id="Layer_2" data-name="Layer 2"><g id="Layer_1-2" data-name="Layer 1"><circle class="cls-1" cx="150" cy="150" r="150"/><g id="Group_1337" data-name="Group 1337"><g id="Group_1334" data-name="Group 1334"><g id="Ellipse_438" data-name="Ellipse 438"><path class="cls-2" d="M112,143.31a29.68,29.68,0,1,1,29.67-29.68A29.71,29.71,0,0,1,112,143.31ZM112,94a19.68,19.68,0,1,0,19.67,19.67A19.69,19.69,0,0,0,112,94Z"/></g><g id="Path_1394" data-name="Path 1394"><path class="cls-2" d="M146.53,189.36H60.94v-5A51.06,51.06,0,0,1,140.53,142l-5.59,8.3a41.06,41.06,0,0,0-63.7,29h75.29Z"/></g></g><g id="Group_1335" data-name="Group 1335"><g id="Ellipse_439" data-name="Ellipse 439"><path class="cls-2" d="M158.87,189.36a29.67,29.67,0,1,1,29.67-29.67A29.71,29.71,0,0,1,158.87,189.36Zm0-49.34a19.67,19.67,0,1,0,19.67,19.67A19.7,19.7,0,0,0,158.87,140Z"/></g><g id="Path_1395" data-name="Path 1395"><path class="cls-2" d="M209.91,235.41H107.81v-5a51.05,51.05,0,1,1,102.1,0Zm-91.8-10H199.6a41.05,41.05,0,0,0-81.49,0Z"/></g></g><g id="Group_1336" data-name="Group 1336"><g id="Ellipse_440" data-name="Ellipse 440"><path class="cls-2" d="M180.25,120.28a29.67,29.67,0,1,1,29.67-29.67A29.71,29.71,0,0,1,180.25,120.28Zm0-49.34a19.67,19.67,0,1,0,19.67,19.67A19.7,19.7,0,0,0,180.25,70.94Z"/></g><g id="Path_1396" data-name="Path 1396"><path class="cls-2" d="M231.26,166.34H182.71v-10h38.34a41.06,41.06,0,0,0-81.85,4.27q0,.34,0,.69l-10,.08c0-.29,0-.57,0-.85a51.05,51.05,0,1,1,102.1.85Z"/></g></g></g></g></g></svg>