<svg xmlns="http://www.w3.org/2000/svg" viewBox="0 0 300 300"><defs><style>.cls-1{fill:#00d1c3;}.cls-2{fill:#fff;}</style></defs><g id="Layer_2" data-name="Layer 2"><g id="Layer_1-2" data-name="Layer 1"><circle class="cls-1" cx="150" cy="150" r="150"/><g id="Path_985" data-name="Path 985"><path class="cls-2" d="M150,223.23a6.37,6.37,0,0,1-3.79-1.43l-.36-.27c-12.78-9.23-22.89-17.2-31.81-25.09a195.42,195.42,0,0,1-28.56-30.33A90.92,90.92,0,0,1,71.9,141a54.46,54.46,0,0,1-3-18.49A47.85,47.85,0,0,1,78.2,95.08,42.12,42.12,0,0,1,112.94,76.8h.22a48.27,48.27,0,0,1,28.9,10.11l.11.09A93.39,93.39,0,0,1,150,94.21a83.22,83.22,0,0,1,9.37-8.34l.11-.08A47.22,47.22,0,0,1,183.06,77a41.19,41.19,0,0,1,34.23,12.65,48.64,48.64,0,0,1,13.43,27.21,52.28,52.28,0,0,1-2.6,24.07,89.75,89.75,0,0,1-12.6,23.81,183,183,0,0,1-23.9,26.55,390.52,390.52,0,0,1-37.56,30.3l-.27.21A6.24,6.24,0,0,1,150,223.23ZM112.91,86.8a32.14,32.14,0,0,0-26.51,14l-.1.15a37.84,37.84,0,0,0-7.44,21.69,44.34,44.34,0,0,0,2.47,15,81.62,81.62,0,0,0,12.13,22.4,186.52,186.52,0,0,0,27.17,28.85c8.33,7.36,17.69,14.78,29.4,23.28a379.67,379.67,0,0,0,34.85-28.28,172.42,172.42,0,0,0,22.59-25.1,79.51,79.51,0,0,0,11.22-21.19v0a42.08,42.08,0,0,0,2.1-19.4,38.44,38.44,0,0,0-10.67-21.55l-.08-.09a31.18,31.18,0,0,0-26-9.59H184a37.35,37.35,0,0,0-18.6,6.89,73.87,73.87,0,0,0-10.24,9.52l-.13.14c-.2.2-.36.38-.49.52a6,6,0,0,1-4.49,2.3h0a6,6,0,0,1-4.51-2.28c-.13-.15-.29-.32-.49-.52l-.12-.14a85.56,85.56,0,0,0-9-8.63,38.25,38.25,0,0,0-22.79-8Z"/></g></g></g></svg>