<svg xmlns="http://www.w3.org/2000/svg" viewBox="0 0 300 300"><defs><style>.cls-1{fill:#0092b7;}.cls-2{fill:#fff;}</style></defs><g id="Layer_2" data-name="Layer 2"><g id="Layer_1-2" data-name="Layer 1"><circle class="cls-1" cx="150" cy="150" r="150"/><g id="Group_765" data-name="Group 765"><g id="Path_1164" data-name="Path 1164"><path class="cls-2" d="M151.53,210.37h0a111.2,111.2,0,0,1-96.59-56.53l-2.41-4.29L55,145.27a110.8,110.8,0,0,1,193.19,0l2.4,4.28-2.41,4.28a111.2,111.2,0,0,1-96.59,56.53ZM64,149.56a100.8,100.8,0,0,0,175.06,0,100.8,100.8,0,0,0-175.06,0Z"/></g></g><g id="Group_766" data-name="Group 766"><g id="Path_1165" data-name="Path 1165"><path class="cls-2" d="M151.53,185.38h0a35.82,35.82,0,1,1,35.81-35.81A35.57,35.57,0,0,1,151.53,185.38Zm0-61.63a25.82,25.82,0,1,0,25.81,25.81A25.84,25.84,0,0,0,151.53,123.75Z"/></g></g></g></g></svg>