<svg version="1.1" xmlns="http://www.w3.org/2000/svg" xmlns:xlink="http://www.w3.org/1999/xlink" x="0px" y="0px"
	 viewBox="0 0 174.999 175" enable-background="new 0 0 174.999 175" xml:space="preserve">
	<g id="financing-icon-group">
		<g>
			<circle fill="#79A883" cx="87.5" cy="87.5" r="86.625"/>
			<g>
				<g>
					<path fill="#F7F4EE" d="M66.207,111.083c-0.809-0.577-1.615-1.73-1.615-3.232c0-2.077,1.73-3.809,3.923-3.809
						c0.809,0,1.615,0.231,2.193,0.694c6.116,4.155,12.465,6.346,18.928,6.346c7.155,0,12.349-3.693,12.349-9.462v-0.231
						c0-6.002-7.042-8.31-14.889-10.502c-9.349-2.655-19.734-5.887-19.734-16.85v-0.231c0-10.271,8.54-17.079,20.312-17.079
						c6.346,0,13.271,1.961,19.042,5.078c1.154,0.692,2.193,1.961,2.193,3.693c0,2.077-1.732,3.808-3.925,3.808
						c-0.807,0-1.501-0.231-1.963-0.462c-5.076-2.885-10.502-4.616-15.578-4.616c-7.042,0-11.542,3.693-11.542,8.655v0.231
						c0,5.655,7.386,7.848,15.35,10.271c9.232,2.771,19.156,6.347,19.156,17.08v0.231c0,11.311-9.346,17.888-21.233,17.888
						C81.324,118.584,72.671,115.7,66.207,111.083z"/>
				</g>
				<path fill="#F7F4EE" d="M90.659,63.811c-2.107,0-3.813-1.707-3.813-3.813v-17.85c0-2.106,1.706-3.813,3.813-3.813
					s3.813,1.707,3.813,3.813v17.85C94.472,62.104,92.766,63.811,90.659,63.811z"/>
				<path fill="#F7F4EE" d="M90.659,136.665c-2.107,0-3.813-1.707-3.813-3.813v-14.027c0-2.106,1.706-3.813,3.813-3.813
					s3.813,1.707,3.813,3.813v14.027C94.472,134.957,92.766,136.665,90.659,136.665z"/>
			</g>
		</g>
	</g>
</svg>
