<?xml version="1.0" encoding="utf-8"?>
<!-- Generator: Adobe Illustrator 20.1.0, SVG Export Plug-In . SVG Version: 6.00 Build 0)  -->
<svg version="1.1" xmlns="http://www.w3.org/2000/svg" xmlns:xlink="http://www.w3.org/1999/xlink" x="0px" y="0px"
	 viewBox="0 0 80 60" enable-background="new 0 0 80 60" xml:space="preserve">
<g id="bottom">
	<g>
		<g>
			<g transform="translate(-189.000000, -93.000000)">
				<g transform="translate(189.000000, 95.000000)">
					<g>
						<path fill="#414042" d="M12.014,30.546c0,0.703,0.57,1.273,1.273,1.273s1.273-0.57,1.273-1.273v-5.092
							c0-0.703-0.57-1.273-1.273-1.273s-1.273,0.57-1.273,1.273V30.546z"/>
						<path fill="#414042" d="M13.286,32.402c-1.023,0-1.855-0.833-1.855-1.856v-5.093c0-1.023,0.832-1.856,1.855-1.856
							s1.857,0.833,1.857,1.856v5.093C15.143,31.57,14.309,32.402,13.286,32.402z M13.286,24.764c-0.381,0-0.688,0.309-0.688,0.689
							v5.093c0,0.381,0.308,0.69,0.688,0.69s0.69-0.309,0.69-0.69v-5.093C13.977,25.074,13.667,24.764,13.286,24.764z"/>
					</g>
					<g>
						<path fill="#414042" d="M65.481,43.276c0,0.703,0.57,1.273,1.273,1.273s1.273-0.57,1.273-1.273v-5.092
							c0-0.703-0.57-1.273-1.273-1.273s-1.273,0.57-1.273,1.273V43.276z"/>
						<path fill="#414042" d="M66.754,45.133c-1.023,0-1.857-0.833-1.857-1.856v-5.092c0-1.024,0.834-1.856,1.857-1.856
							c1.023,0,1.857,0.833,1.857,1.856v5.092C68.611,44.3,67.777,45.133,66.754,45.133z M66.754,37.494
							c-0.381,0-0.69,0.309-0.69,0.69v5.092c0,0.381,0.31,0.69,0.69,0.69s0.69-0.309,0.69-0.69v-5.092
							C67.445,37.804,67.135,37.494,66.754,37.494z"/>
					</g>
					<g>
						<path fill="#414042" d="M66.46,39.422c0.684,0.163,1.37-0.26,1.533-0.944c0.163-0.684-0.26-1.37-0.944-1.533l-53.468-12.73
							c-0.684-0.163-1.37,0.26-1.533,0.944c-0.163,0.684,0.26,1.37,0.944,1.533L66.46,39.422z"/>
						<path fill="#414042" d="M66.754,40.041c-0.141,0-0.285-0.017-0.428-0.051L12.858,27.259c-0.483-0.114-0.893-0.411-1.153-0.834
							c-0.26-0.423-0.34-0.921-0.223-1.402c0.114-0.48,0.41-0.889,0.832-1.15c0.422-0.26,0.918-0.34,1.404-0.226l53.466,12.731
							c0.996,0.236,1.615,1.239,1.379,2.235C68.356,39.466,67.593,40.041,66.754,40.041z M13.286,24.764
							c-0.125,0-0.251,0.035-0.36,0.103c-0.157,0.096-0.267,0.248-0.31,0.427c-0.043,0.18-0.014,0.365,0.082,0.521
							c0.098,0.157,0.248,0.267,0.428,0.31l53.468,12.731l0,0c0.378,0.087,0.745-0.142,0.832-0.513
							c0.087-0.369-0.144-0.741-0.513-0.829L13.448,24.782C13.393,24.77,13.341,24.764,13.286,24.764z"/>
					</g>
					<g>
						<path fill="#414042" d="M49.264,20.003c2.235-0.419,5.175,0.877,6.381,2.807l10.031,16.049
							c0.373,0.596,1.158,0.777,1.754,0.405c0.596-0.373,0.777-1.158,0.405-1.754L57.803,21.46c-1.76-2.817-5.742-4.572-9.009-3.96
							l-35.742,6.702c-0.691,0.13-1.146,0.795-1.017,1.486c0.13,0.691,0.795,1.146,1.486,1.017L49.264,20.003z"/>
						<path fill="#414042" d="M66.759,40.04c-0.62,0-1.226-0.309-1.579-0.872L55.15,23.119c-1.08-1.728-3.773-2.918-5.778-2.543l0,0
							l-35.743,6.702c-1.016,0.191-1.978-0.477-2.167-1.482c-0.091-0.487,0.014-0.981,0.294-1.39
							c0.28-0.409,0.702-0.685,1.189-0.776l35.743-6.701c3.5-0.655,7.722,1.2,9.611,4.223L68.329,37.2
							c0.542,0.87,0.276,2.017-0.59,2.559C67.433,39.949,67.094,40.04,66.759,40.04z M50.135,19.342
							c2.269,0,4.846,1.306,6.004,3.159l10.03,16.048c0.203,0.322,0.633,0.424,0.95,0.22c0.324-0.202,0.422-0.628,0.221-0.952
							L57.31,21.77c-1.627-2.602-5.389-4.256-8.408-3.696l-35.743,6.702c-0.18,0.034-0.337,0.137-0.442,0.289
							c-0.103,0.152-0.141,0.335-0.107,0.516c0.068,0.374,0.431,0.624,0.804,0.551l35.743-6.701
							C49.472,19.371,49.8,19.342,50.135,19.342z M49.264,20.003h0.014H49.264z"/>
					</g>
					<g>
						<path fill="#414042" d="M12.014,40.73c0,0.703,0.57,1.273,1.273,1.273s1.273-0.57,1.273-1.273v-5.092
							c0-0.703-0.57-1.273-1.273-1.273s-1.273,0.57-1.273,1.273V40.73z"/>
						<path fill="#414042" d="M13.286,42.586c-1.023,0-1.855-0.833-1.855-1.856v-5.092c0-1.024,0.832-1.856,1.855-1.856
							s1.857,0.833,1.857,1.856v5.092C15.143,41.754,14.309,42.586,13.286,42.586z M13.286,34.948c-0.381,0-0.688,0.309-0.688,0.69
							v5.092c0,0.381,0.308,0.69,0.688,0.69s0.69-0.309,0.69-0.69v-5.092C13.977,35.257,13.667,34.948,13.286,34.948z"/>
					</g>
					<g>
						<path fill="#414042" d="M65.481,53.46c0,0.703,0.57,1.273,1.273,1.273s1.273-0.57,1.273-1.273v-4.535
							c0-0.703-0.57-1.273-1.273-1.273s-1.273,0.57-1.273,1.273V53.46z"/>
						<path fill="#414042" d="M66.754,55.317c-1.023,0-1.857-0.833-1.857-1.856v-4.535c0-1.023,0.834-1.856,1.857-1.856
							c1.023,0,1.857,0.833,1.857,1.856v4.535C68.611,54.484,67.777,55.317,66.754,55.317z M66.754,48.236
							c-0.381,0-0.69,0.309-0.69,0.689v4.535c0,0.381,0.31,0.69,0.69,0.69s0.69-0.309,0.69-0.69v-4.535
							C67.445,48.545,67.135,48.236,66.754,48.236z"/>
					</g>
					<g>
						<path fill="#414042" d="M66.46,54.699c0.684,0.163,1.37-0.26,1.533-0.944s-0.26-1.37-0.944-1.533l-53.468-12.73
							c-0.684-0.163-1.37,0.26-1.533,0.944c-0.163,0.684,0.26,1.37,0.944,1.533L66.46,54.699z"/>
						<path fill="#414042" d="M66.754,55.317c-0.141,0-0.285-0.017-0.428-0.051L12.858,42.536c-0.483-0.114-0.893-0.411-1.153-0.834
							c-0.26-0.423-0.34-0.921-0.223-1.402c0.114-0.48,0.41-0.889,0.832-1.15s0.918-0.341,1.404-0.226l53.466,12.731
							c0.996,0.236,1.615,1.239,1.379,2.235C68.356,54.742,67.593,55.317,66.754,55.317z M13.286,40.04
							c-0.125,0-0.251,0.035-0.36,0.103c-0.157,0.096-0.267,0.248-0.31,0.427c-0.043,0.18-0.014,0.365,0.082,0.521
							c0.098,0.157,0.248,0.267,0.428,0.31l53.468,12.731l0,0c0.378,0.086,0.745-0.142,0.832-0.513
							c0.087-0.369-0.144-0.741-0.513-0.829L13.448,40.059C13.393,40.046,13.341,40.04,13.286,40.04z"/>
					</g>
					<g>
						<path fill="#414042" d="M66.46,44.515c0.684,0.163,1.37-0.26,1.533-0.944c0.163-0.684-0.26-1.37-0.944-1.533l-53.468-12.73
							c-0.684-0.163-1.37,0.26-1.533,0.944s0.26,1.37,0.944,1.533L66.46,44.515z"/>
						<path fill="#414042" d="M66.754,45.133c-0.141,0-0.285-0.017-0.428-0.051l-53.468-12.73c-0.483-0.115-0.893-0.411-1.153-0.835
							c-0.26-0.423-0.34-0.921-0.223-1.402c0.114-0.48,0.408-0.889,0.832-1.149c0.422-0.26,0.918-0.342,1.404-0.226l53.466,12.73
							c0.996,0.236,1.613,1.239,1.379,2.235C68.356,44.558,67.593,45.133,66.754,45.133z M13.286,29.856
							c-0.128,0-0.251,0.035-0.362,0.103c-0.155,0.096-0.264,0.248-0.308,0.426c-0.043,0.18-0.014,0.365,0.082,0.521
							c0.098,0.157,0.248,0.268,0.428,0.31l53.468,12.73l0,0c0.378,0.087,0.745-0.142,0.832-0.512
							c0.087-0.369-0.144-0.742-0.513-0.83l-53.466-12.73C13.393,29.862,13.339,29.856,13.286,29.856z"/>
					</g>
					<g>
						<path fill="#414042" d="M10.919,30.382c-1.304,1.237-1.869,2.852-1.107,4.658c0.785,1.859,1.746,1.995,5.194,1.694
							c1.982-0.173,3.229-0.175,4.742,0.094c0.053,0.009,0.351,0.276,1.034,1.028c1.083,1.191,1.634,1.658,2.564,1.82
							c0.946,0.165,1.637,0.053,3.332-0.377c0.278-0.07,0.394-0.099,0.545-0.136c0.85-0.203,1.4-0.267,1.845-0.201
							c0.709,0.105,1.268,0.535,2.411,1.778c0.065,0.07,0.065,0.07,0.13,0.142c1.617,1.759,2.544,2.475,4.126,2.711
							c1.105,0.165,2.187,0.037,4.493-0.398c2.154-0.407,2.966-0.518,3.665-0.458c0.968,0.083,2.019,0.751,3.596,2.181
							c-0.417-0.378,1.305,1.204,1.694,1.533c0.692,0.584,1.256,0.959,1.842,1.162c1.01,0.349,1.8,0.324,4.774,0.043
							c1.006-0.095,1.61-0.143,2.248-0.171c1.208-0.053,2.188-0.004,3.009,0.17c0.787,0.167,1.538,0.449,2.548,0.923
							c3.892,1.827,4.681,2.003,6.177,0.137c1.298-1.619,0.931-4.206-1.191-5.66c-0.685-0.469-1.355-0.79-1.833-0.97
							c-0.658-0.247-1.392,0.085-1.64,0.744c-0.247,0.658,0.085,1.392,0.744,1.64c0.303,0.114,0.804,0.354,1.291,0.687
							c1.052,0.721,1.257,1.223,0.665,1.94c-0.36,0.437-0.534,0.397-3.13-0.822c-1.172-0.55-2.087-0.894-3.102-1.109
							c-1.064-0.225-2.244-0.284-3.648-0.223c-0.692,0.03-1.329,0.081-2.375,0.18c-2.43,0.229-3.213,0.255-3.702,0.086
							c-0.433-0.15-0.351-0.08-2.658-2.174c-1.975-1.792-3.382-2.687-5.09-2.833c-1.029-0.088-1.93,0.035-4.211,0.466
							c-2.134,0.403-3.079,0.515-3.787,0.409c-0.806-0.12-1.397-0.576-2.627-1.915c-0.065-0.071-0.065-0.071-0.131-0.142
							c-1.53-1.664-2.426-2.354-3.913-2.574c-0.846-0.125-1.668-0.029-2.809,0.243c-0.167,0.04-0.296,0.072-0.581,0.144
							c-1.313,0.334-1.818,0.415-2.268,0.337c-0.128-0.022-0.466-0.309-1.116-1.024c-1.195-1.315-1.586-1.664-2.472-1.822
							c-1.782-0.318-3.224-0.315-5.41-0.124c-2.2,0.192-2.502,0.149-2.627-0.148c-0.289-0.685-0.094-1.244,0.514-1.821
							c0.289-0.274,0.583-0.466,0.743-0.547c0.627-0.317,0.879-1.083,0.561-1.711c-0.317-0.627-1.083-0.879-1.711-0.561
							C11.902,29.593,11.413,29.913,10.919,30.382z"/>
						<path fill="#414042" d="M67.695,50.61c-1.048,0-2.347-0.568-4.341-1.504c-1.014-0.476-1.713-0.731-2.42-0.88
							c-0.75-0.158-1.684-0.211-2.864-0.158c-0.629,0.027-1.226,0.076-2.217,0.169c-3.062,0.291-3.894,0.318-5.02-0.072
							c-0.624-0.215-1.23-0.595-2.028-1.267c-1.048-0.884-1.552-1.337-1.786-1.615c-1.47-1.327-2.395-1.897-3.179-1.964
							c-0.622-0.052-1.372,0.046-3.504,0.45c-2.256,0.426-3.47,0.583-4.689,0.402c-1.795-0.269-2.83-1.11-4.468-2.893l-0.128-0.138
							c-1.169-1.274-1.6-1.53-2.069-1.6c-0.358-0.053-0.841,0.004-1.627,0.191l-0.535,0.133c-1.77,0.452-2.536,0.569-3.575,0.387
							c-1.101-0.191-1.754-0.747-2.896-2.003c-0.492-0.542-0.734-0.776-0.836-0.869c-1.315-0.222-2.465-0.238-4.457-0.064
							c-3.452,0.3-4.835,0.201-5.783-2.047c-0.802-1.9-0.36-3.785,1.244-5.308c0.627-0.595,1.199-0.926,1.486-1.07
							c0.442-0.224,0.943-0.261,1.415-0.108c0.472,0.154,0.852,0.484,1.078,0.927c0.223,0.441,0.262,0.944,0.107,1.416
							c-0.153,0.472-0.483,0.854-0.927,1.078c-0.096,0.049-0.346,0.206-0.604,0.45c-0.472,0.448-0.526,0.744-0.417,1.068
							c0.376,0.045,1.506-0.054,2.08-0.104c2.044-0.179,3.614-0.217,5.562,0.131c1.078,0.191,1.568,0.647,2.8,2.003
							c0.672,0.739,0.87,0.865,0.891,0.877c0.228,0.023,0.686-0.048,1.919-0.362l0.588-0.147c1.091-0.26,2.028-0.402,3.03-0.253
							c1.698,0.251,2.725,1.089,4.256,2.756l0.134,0.146c1.146,1.247,1.659,1.636,2.281,1.729c0.611,0.091,1.483-0.007,3.591-0.405
							c2.322-0.439,3.288-0.568,4.37-0.474c1.973,0.167,3.541,1.265,5.432,2.981l0.148,0.135c2.001,1.814,2.012,1.817,2.269,1.906
							c0.41,0.143,1.194,0.116,3.498-0.101c1.06-0.1,1.702-0.151,2.404-0.182c1.506-0.066,2.721,0.008,3.794,0.235
							c1.005,0.212,1.941,0.546,3.231,1.152c1.037,0.487,2.276,1.021,2.443,1.02c0.121-0.202,0.191-0.337,0.182-0.41
							c-0.011-0.071-0.103-0.283-0.738-0.719c-0.44-0.3-0.902-0.523-1.167-0.622c-0.465-0.174-0.834-0.519-1.037-0.971
							c-0.205-0.452-0.221-0.956-0.048-1.421c0.173-0.462,0.517-0.831,0.968-1.036c0.456-0.206,0.962-0.222,1.422-0.048
							c0.371,0.14,1.121,0.461,1.96,1.036c1.189,0.815,1.953,1.991,2.149,3.312c0.175,1.171-0.121,2.305-0.832,3.193
							C69.377,50.149,68.639,50.61,67.695,50.61z M58.923,46.881c0.875,0,1.606,0.067,2.253,0.203
							c0.8,0.169,1.574,0.449,2.675,0.966c3.997,1.878,4.304,1.762,5.473,0.3c0.506-0.631,0.715-1.445,0.59-2.292
							c-0.148-0.996-0.736-1.892-1.656-2.522c-0.763-0.524-1.449-0.808-1.709-0.906c-0.173-0.065-0.36-0.06-0.529,0.018
							c-0.166,0.076-0.294,0.212-0.358,0.384c-0.066,0.174-0.059,0.362,0.016,0.529c0.075,0.167,0.212,0.296,0.385,0.36
							c0.164,0.062,0.754,0.3,1.415,0.752c0.558,0.383,1.142,0.862,1.235,1.518c0.059,0.42-0.087,0.837-0.447,1.274
							c-0.677,0.816-1.217,0.56-3.83-0.665c-1.201-0.565-2.064-0.874-2.976-1.066c-0.973-0.205-2.08-0.273-3.502-0.211
							c-0.684,0.03-1.312,0.08-2.345,0.178c-2.465,0.232-3.331,0.269-3.949,0.056c-0.533-0.183-0.533-0.183-2.711-2.158
							l-0.148-0.135c-2.046-1.857-3.288-2.559-4.748-2.684c-0.946-0.079-1.852,0.042-4.051,0.458
							c-2.276,0.43-3.197,0.529-3.983,0.413c-1.034-0.156-1.752-0.773-2.971-2.098l-0.128-0.142
							c-1.556-1.694-2.324-2.208-3.568-2.392c-0.713-0.105-1.442-0.039-2.591,0.234l-0.572,0.142
							c-1.351,0.345-1.93,0.448-2.513,0.346c-0.228-0.04-0.494-0.158-1.447-1.207c-1.187-1.304-1.467-1.519-2.142-1.639
							c-1.625-0.289-2.951-0.319-5.257-0.117c-2.108,0.184-2.898,0.252-3.217-0.502c-0.376-0.89-0.162-1.699,0.652-2.471
							c0.33-0.313,0.672-0.538,0.88-0.644c0.166-0.084,0.289-0.226,0.346-0.4c0.057-0.175,0.041-0.362-0.041-0.526
							c-0.084-0.166-0.226-0.288-0.401-0.345c-0.178-0.059-0.36-0.042-0.524,0.04c-0.23,0.116-0.69,0.383-1.21,0.876
							c-0.868,0.824-1.741,2.188-0.971,4.007c0.592,1.406,1.025,1.651,4.607,1.34c1.887-0.165,3.222-0.197,4.894,0.101
							c0.185,0.034,0.317,0.059,1.363,1.209c1.085,1.193,1.522,1.515,2.233,1.638c0.841,0.146,1.451,0.048,3.087-0.368l0.554-0.138
							c0.95-0.227,1.547-0.288,2.067-0.211c0.936,0.138,1.636,0.742,2.755,1.96l0.13,0.14c1.641,1.789,2.454,2.333,3.782,2.531
							c0.971,0.147,1.891,0.06,4.3-0.394c2.124-0.402,3.024-0.532,3.821-0.466c1.089,0.093,2.194,0.746,3.937,2.33v0.001
							c0.011,0.009,0.021,0.019,0.03,0.029c0.31,0.284,1.358,1.243,1.65,1.489c0.681,0.575,1.178,0.891,1.656,1.057
							c0.864,0.298,1.497,0.299,4.53,0.014c1.019-0.096,1.629-0.145,2.276-0.173C58.337,46.888,58.638,46.881,58.923,46.881z
							 M10.919,30.382h0.014H10.919z"/>
					</g>
					<g>
						<path fill="#414042" d="M43.84,13.996c-0.703,0-1.273,0.547-1.273,1.267V25.46c0,0.7,0.591,1.267,1.273,1.267
							c0.703,0,1.273-0.547,1.273-1.267V15.264C45.113,14.564,44.522,13.996,43.84,13.996z"/>
						<path fill="#414042" d="M43.839,27.31c-1.005,0-1.855-0.847-1.855-1.85V15.263c0-1.037,0.816-1.85,1.855-1.85
							c1.023,0,1.857,0.83,1.857,1.85V25.46C45.696,26.497,44.88,27.31,43.839,27.31z M43.839,14.58
							c-0.392,0-0.688,0.294-0.688,0.684V25.46c0,0.364,0.321,0.684,0.688,0.684c0.394,0,0.69-0.294,0.69-0.684V15.263
							C44.529,14.893,44.213,14.58,43.839,14.58z"/>
					</g>
					<g>
						<path fill="#414042" d="M43.84,1.266c-0.703,0-1.273,0.545-1.273,1.285v2.522c0,0.71,0.591,1.285,1.273,1.285
							c0.703,0,1.273-0.545,1.273-1.285V2.551C45.113,1.841,44.522,1.266,43.84,1.266z"/>
						<path fill="#414042" d="M43.839,6.942c-1.005,0-1.855-0.856-1.855-1.868V2.551c0-1.048,0.816-1.868,1.855-1.868
							c1.023,0,1.857,0.838,1.857,1.868v2.522C45.696,6.121,44.88,6.942,43.839,6.942z M43.839,1.85
							c-0.392,0-0.688,0.301-0.688,0.701v2.522c0,0.374,0.321,0.702,0.688,0.702c0.394,0,0.69-0.302,0.69-0.702V2.551
							C44.529,2.171,44.213,1.85,43.839,1.85z"/>
					</g>
					<g>
						<path fill="#414042" d="M43.84,13.996c2.109,0,3.819-1.71,3.819-3.819s-1.71-3.819-3.819-3.819
							c-2.109,0-3.819,1.71-3.819,3.819S41.731,13.996,43.84,13.996z"/>
						<path fill="#414042" d="M43.839,14.58c-2.427,0-4.402-1.975-4.402-4.403c0-2.427,1.975-4.402,4.402-4.402
							s4.402,1.975,4.402,4.402C48.241,12.605,46.266,14.58,43.839,14.58z M43.839,6.942c-1.784,0-3.236,1.451-3.236,3.236
							c0,1.785,1.451,3.236,3.236,3.236s3.236-1.451,3.236-3.236C47.075,8.393,45.623,6.942,43.839,6.942z"/>
					</g>
				</g>
			</g>
		</g>
	</g>
</g>
<g id="pie_layer">
</g>
<g id="Pie_Layer_2" display="none">
</g>
<g id="meals_saved" display="none">
</g>
<g id="consumer_ed_hover" display="none">
</g>
<g id="pop_up" display="none">
</g>
<g id="Layer_2">
</g>
<g id="Layer_8">
</g>
</svg>
