<?xml version="1.0" encoding="utf-8"?>
<!-- Generator: Adobe Illustrator 20.1.0, SVG Export Plug-In . SVG Version: 6.00 Build 0)  -->
<svg version="1.1" xmlns="http://www.w3.org/2000/svg" xmlns:xlink="http://www.w3.org/1999/xlink" x="0px" y="0px"
	 viewBox="0 0 60 60" enable-background="new 0 0 60 60" xml:space="preserve">
<g id="bottom">
	<g>
		<g>
			<path fill="#414042" d="M39.279,16.105c-2.398,0-4.97,0.888-6.936,1.771c0.635-1.89,1.997-4.068,4.916-4.769
				c0.835-0.201,1.424-0.948,1.373-1.805v0c-0.064-1.065-1.07-1.861-2.11-1.624c-1.894,0.431-3.385,1.29-4.548,2.375
				c-0.139-0.864-0.399-1.725-0.832-2.541c-2.383-4.499-8.787-5.498-9.059-5.538l-1.275-0.19l-0.559,1.161
				c-0.119,0.247-2.89,6.106-0.503,10.607c0.107,0.201,0.224,0.393,0.346,0.58C13.538,16.665,6.6,25.36,6.6,33.301
				c0,19.551,22.935,22.87,23.167,22.9c0.078,0.011,0.156,0.016,0.233,0.016c0.1,0,0.2-0.009,0.299-0.026
				c0.231-0.04,23.101-4.226,23.101-23.474C53.401,24.799,46.01,16.105,39.279,16.105z M22.904,7.75
				c1.576,0.451,4.112,1.453,5.144,3.4c0.978,1.844,0.488,4.461-0.065,6.162c-1.575-0.451-4.111-1.453-5.143-3.401
				C21.861,12.065,22.352,9.448,22.904,7.75z M29.973,52.688c-2.363-0.4-19.872-3.9-19.872-19.388
				c0-6.612,6.233-13.693,10.62-13.693c2.144,0,4.635,1.014,6.335,1.855c-3.634,4.137-4.937,9.7-3.794,16.313
				c0.168,0.972,1.152,1.583,2.114,1.36h0c0.923-0.214,1.479-1.118,1.32-2.052c-1.056-6.185,0.331-11.037,4.122-14.456
				c0.041-0.022,0.083-0.041,0.123-0.066c1.29-0.822,5.304-2.954,8.337-2.954c4.442,0,10.621,6.606,10.621,13.109
				C49.899,48.159,32.487,52.188,29.973,52.688z"/>
			<path fill="#414042" d="M30,56.8c-0.103,0-0.205-0.007-0.31-0.021c-0.235-0.031-23.674-3.366-23.674-23.479
				c0-7.874,6.487-16.419,13.133-17.632c-2.377-4.727,0.449-10.721,0.572-10.976l0.561-1.163c0.112-0.23,0.335-0.361,0.613-0.324
				l1.274,0.19c0.28,0.04,6.95,1.05,9.488,5.842c0.287,0.539,0.515,1.123,0.684,1.743c1.176-0.898,2.534-1.527,4.051-1.872
				c0.665-0.148,1.34,0.002,1.882,0.409c0.556,0.42,0.9,1.057,0.941,1.75c0.068,1.123-0.697,2.136-1.818,2.406
				c-1.764,0.423-3.09,1.468-3.958,3.111c2.16-0.839,4.122-1.263,5.84-1.263c7.009,0,14.706,9,14.706,17.196
				c0,19.791-23.348,24.008-23.585,24.048C30.267,56.788,30.132,56.8,30,56.8z M21.148,4.424l-0.374,0.775
				c-0.114,0.236-2.759,5.844-0.513,10.08c0.1,0.186,0.207,0.363,0.319,0.537c0.112,0.173,0.123,0.391,0.034,0.574
				c-0.091,0.184-0.273,0.306-0.476,0.324c-6.296,0.513-12.956,9.039-12.956,16.588c0,19.033,22.434,22.291,22.662,22.322
				c0.116,0.017,0.237,0.013,0.358-0.007c0.226-0.039,22.614-4.148,22.614-22.899c0-7.64-7.086-16.029-13.539-16.029
				c-1.873,0-4.19,0.595-6.697,1.72c-0.214,0.096-0.46,0.056-0.631-0.1c-0.171-0.156-0.235-0.398-0.162-0.617
				c0.927-2.754,2.771-4.535,5.334-5.151c0.572-0.137,0.959-0.643,0.925-1.202c-0.018-0.351-0.194-0.674-0.476-0.887
				c-0.271-0.204-0.592-0.277-0.921-0.204c-1.654,0.377-3.094,1.128-4.281,2.233c-0.159,0.148-0.385,0.194-0.586,0.125
				c-0.205-0.07-0.353-0.247-0.387-0.459c-0.139-0.864-0.399-1.658-0.77-2.361C28.364,5.511,22.062,4.56,22,4.551L21.148,4.424z
				 M29.973,53.272c-0.032,0-0.066-0.003-0.098-0.008C27.792,52.911,9.518,49.35,9.518,33.3c0-7.082,6.519-14.276,11.204-14.276
				c2.249,0,4.826,1.042,6.592,1.916c0.164,0.08,0.28,0.232,0.314,0.41c0.036,0.178-0.014,0.362-0.134,0.498
				c-3.545,4.036-4.776,9.361-3.657,15.828c0.052,0.296,0.221,0.553,0.481,0.723c0.269,0.18,0.611,0.243,0.927,0.168
				c0.611-0.141,0.987-0.737,0.877-1.385c-1.089-6.383,0.36-11.426,4.304-14.987c0.041-0.035,0.121-0.084,0.166-0.107
				c1.365-0.865,5.512-3.063,8.686-3.063c4.787,0,11.204,6.77,11.204,13.693c0,16.018-18.308,20.127-20.395,20.543
				C30.05,53.268,30.011,53.272,29.973,53.272z M20.722,20.191c-4.054,0-10.037,6.906-10.037,13.11
				c0,14.853,16.852,18.367,19.279,18.795c2.431-0.501,19.352-4.528,19.352-19.378c0-6.048-5.89-12.526-10.037-12.526
				c-2.88,0-6.858,2.12-8.023,2.863c-0.018,0.01-0.121,0.067-0.139,0.076c-3.539,3.207-4.862,7.892-3.846,13.856
				c0.214,1.246-0.561,2.44-1.761,2.718c-0.633,0.145-1.301,0.025-1.837-0.333c-0.529-0.35-0.877-0.882-0.984-1.496
				c-1.112-6.431,0.075-12.017,3.436-16.211C24.532,20.932,22.485,20.191,20.722,20.191z M27.983,17.896
				c-0.052,0-0.107-0.007-0.159-0.023c-1.907-0.545-4.407-1.627-5.498-3.688c-1.151-2.166-0.478-5.075,0.025-6.616
				c0.096-0.298,0.403-0.467,0.715-0.38c1.905,0.546,4.404,1.629,5.496,3.687c1.146,2.16,0.476,5.072-0.023,6.616
				C28.46,17.738,28.23,17.896,27.983,17.896z M23.294,8.48c-0.362,1.3-0.784,3.564,0.062,5.158
				c0.832,1.569,2.828,2.478,4.238,2.944c0.36-1.303,0.779-3.57-0.062-5.159C26.701,9.855,24.705,8.947,23.294,8.48z"/>
		</g>
	</g>
</g>
<g id="pie_layer">
</g>
<g id="Pie_Layer_2" display="none">
</g>
<g id="meals_saved" display="none">
</g>
<g id="consumer_ed_hover" display="none">
</g>
<g id="pop_up" display="none">
</g>
<g id="Layer_2">
</g>
<g id="Layer_8">
</g>
</svg>
