<svg xmlns="http://www.w3.org/2000/svg" viewBox="0 0 300 300"><defs><style>.cls-1{fill:#00d1c3;}.cls-2{fill:#fff;}</style></defs><g id="Layer_2" data-name="Layer 2"><g id="Layer_1-2" data-name="Layer 1"><g id="Group_832-2" data-name="Group 832-2"><g id="Ellipse_213-2" data-name="Ellipse 213-2"><circle class="cls-1" cx="150" cy="150" r="150"/></g></g><g id="Group_2006" data-name="Group 2006"><g id="Group_1181" data-name="Group 1181"><g id="Group_1179" data-name="Group 1179"><g id="Path_1325" data-name="Path 1325"><path class="cls-2" d="M151,175.48a26.42,26.42,0,1,1,26.42-26.42h0A26.43,26.43,0,0,1,151,175.48Zm0-45.32a18.91,18.91,0,1,0,18.91,18.91A18.9,18.9,0,0,0,151,130.16Z"/></g></g><g id="Group_1180" data-name="Group 1180"><g id="Path_1326" data-name="Path 1326"><path class="cls-2" d="M197,217.78H104.9V214A46.06,46.06,0,0,1,197,214Zm-84.43-7.49h76.74a38.55,38.55,0,0,0-76.74,0Z"/></g></g></g><g id="Path_1589" data-name="Path 1589"><path class="cls-2" d="M206.91,167.3l-9.58-2.88a49.23,49.23,0,1,0-94.36-.28L93.38,167a59.23,59.23,0,1,1,113.53.33Z"/></g><g id="Path_1590" data-name="Path 1590"><path class="cls-2" d="M69.76,181.64a86.34,86.34,0,1,1,162.33-4.07l-9.48-3.16A76.34,76.34,0,1,0,79.08,178Z"/></g></g></g></g></svg>