<svg xmlns="http://www.w3.org/2000/svg" viewBox="0 0 300 300"><defs><style>.cls-1{fill:#00b982;}.cls-2{fill:#fff;}</style></defs><g id="Layer_2" data-name="Layer 2"><g id="Layer_1-2" data-name="Layer 1"><g id="Group_832" data-name="Group 832"><g id="Ellipse_213" data-name="Ellipse 213"><circle class="cls-1" cx="150" cy="150" r="150"/></g></g><g id="Group_833" data-name="Group 833"><g id="Path_1212" data-name="Path 1212"><path class="cls-2" d="M128.34,123V104.49c5.91.59,9.67,4.18,9.84,9.54l0,.67h3.13l0-.71c-.21-6.94-5.41-11.89-13-12.5V96.21H125.2v5.2c-8,.54-13.33,5.71-13.33,13,0,9.13,7.24,10.46,13.33,11.35v19.05c-6.78-.44-11.19-4.32-11.31-10l0-.69h-3.14l0,.72c.21,7.38,6,12.54,14.45,13V153h3.14v-5.21c8.59-.68,14.1-5.87,14.1-13.36C142.44,125.28,135.07,124,128.34,123Zm0,3.16c6.61,1,10.89,2.26,10.89,8.27s-4.15,9.79-10.89,10.36Zm-13.27-11.77c0-5.7,3.86-9.49,10.13-10v18.22C119.59,121.8,115.07,120.44,115.07,114.42Z"/></g><g id="Group_813" data-name="Group 813"><g id="Group_805" data-name="Group 805"><g id="Ellipse_203" data-name="Ellipse 203"><path class="cls-2" d="M126.94,177.74a53.46,53.46,0,1,1,53.46-53.46A53.52,53.52,0,0,1,126.94,177.74Zm0-96.92a43.46,43.46,0,1,0,43.46,43.46A43.51,43.51,0,0,0,126.94,80.82Z"/></g><g id="Line_548" data-name="Line 548"><rect class="cls-2" x="182.03" y="151.06" width="10" height="78.32" transform="translate(-79.73 187.96) rotate(-45)"/></g><g id="Rectangle_1127" data-name="Rectangle 1127"><rect class="cls-2" x="192.51" y="174.4" width="11.87" height="53.4" transform="translate(-84.08 199.22) rotate(-45)"/></g></g></g></g></g></g></svg>