<svg xmlns="http://www.w3.org/2000/svg" viewBox="0 0 300 300"><defs><style>.cls-1{fill:#008574;}.cls-2{fill:#fff;}</style></defs><g id="Layer_2" data-name="Layer 2"><g id="Layer_1-2" data-name="Layer 1"><g id="Group_832" data-name="Group 832"><g id="Ellipse_213" data-name="Ellipse 213"><circle class="cls-1" cx="150" cy="150" r="150"/></g></g><g id="Group_2008" data-name="Group 2008"><g id="Group_1181" data-name="Group 1181"><g id="Group_1179" data-name="Group 1179"><g id="Path_1325" data-name="Path 1325"><path class="cls-2" d="M87.35,149.37a23.15,23.15,0,1,1,23.15,23.15h0A23.18,23.18,0,0,1,87.35,149.37Zm39.71,0a16.56,16.56,0,1,0-16.56,16.57,16.57,16.57,0,0,0,16.56-16.57Z"/></g></g><g id="Group_1180" data-name="Group 1180"><g id="Path_1326" data-name="Path 1326"><path class="cls-2" d="M50.28,189.73V109h3.29a40.36,40.36,0,0,1,0,80.71Zm6.57-74V183a33.78,33.78,0,0,0,0-67.23Z"/></g></g></g><g id="Group_1181-2" data-name="Group 1181-2"><g id="Group_1179-2" data-name="Group 1179-2"><g id="Path_1325-2" data-name="Path 1325-2"><path class="cls-2" d="M214.4,149.38a23.15,23.15,0,1,1-23.15-23.15h0A23.18,23.18,0,0,1,214.4,149.38Zm-39.71,0a16.56,16.56,0,1,0,16.57-16.57,16.56,16.56,0,0,0-16.57,16.57Z"/></g></g><g id="Group_1180-2" data-name="Group 1180-2"><g id="Path_1326-2" data-name="Path 1326-2"><path class="cls-2" d="M251.47,109v80.71h-3.3A40.36,40.36,0,0,1,248.1,109h3.37Zm-6.57,74V115.76a33.78,33.78,0,0,0,0,67.24Z"/></g></g></g><g id="Group_1181-3" data-name="Group 1181-3"><g id="Group_1179-3" data-name="Group 1179-3"><g id="Path_1325-3" data-name="Path 1325-3"><path class="cls-2" d="M150.88,212.91A23.15,23.15,0,1,1,174,189.76h0A23.17,23.17,0,0,1,150.88,212.91Zm0-39.71a16.56,16.56,0,1,0,16.56,16.57,16.56,16.56,0,0,0-16.56-16.57h0Z"/></g></g><g id="Group_1180-3" data-name="Group 1180-3"><g id="Path_1326-3" data-name="Path 1326-3"><path class="cls-2" d="M191.23,250H110.51v-3.3a40.36,40.36,0,0,1,80.71-.07V250Zm-74-6.57h67.23a33.77,33.77,0,0,0-67.23,0Z"/></g></g></g><g id="Group_1181-4" data-name="Group 1181-4"><g id="Group_1179-4" data-name="Group 1179-4"><g id="Path_1325-4" data-name="Path 1325-4"><path class="cls-2" d="M150.88,85.85A23.15,23.15,0,1,1,127.73,109h0A23.18,23.18,0,0,1,150.88,85.85Zm0,39.71A16.56,16.56,0,1,0,134.32,109a16.55,16.55,0,0,0,16.56,16.57Z"/></g></g><g id="Group_1180-4" data-name="Group 1180-4"><g id="Path_1326-4" data-name="Path 1326-4"><path class="cls-2" d="M110.51,48.79h80.71v3.29a40.36,40.36,0,0,1-80.71.08V48.79Zm74,6.56H117.25a33.77,33.77,0,0,0,67.23,0Z"/></g></g></g></g></g></g></svg>