<?xml version="1.0" encoding="utf-8"?>
<!-- Generator: Adobe Illustrator 19.0.1, SVG Export Plug-In . SVG Version: 6.00 Build 0)  -->
<svg version="1.1" id="Layer_1" xmlns="http://www.w3.org/2000/svg" xmlns:xlink="http://www.w3.org/1999/xlink" x="0px" y="0px"
	 viewBox="170.9 119.8 846.2 537.4" style="enable-background:new 170.9 119.8 846.2 537.4;" xml:space="preserve">
<style type="text/css">
	.st0{fill:#67A9A8;stroke:#F7F4EE;stroke-linecap:round;stroke-linejoin:round;stroke-miterlimit:10;}
	.st1{fill:#D6CEB6;stroke:#F7F4EE;stroke-linecap:round;stroke-linejoin:round;stroke-miterlimit:10;}
	.st2{fill:#225577;stroke:#F7F4EE;stroke-linecap:round;stroke-linejoin:round;stroke-miterlimit:10;}
</style>
<g>
	<g>
		<path id="CT_19_" class="st0" d="M968.1,279.8l-0.9-3.9l-0.7-4l-1.5-5.5l-4.7,1l-20,4.4l0.6,3.1l1.3,6.7v7.4l-1,2.1l1.7,1.9
			l4.5-3.1l3.3-3l1.8-1.9l0.7,0.6l2.5-1.3l4.7-1L968.1,279.8z"/>
		<path id="AK_19_" class="st0" d="M310.9,532.2l-0.3,78.7l1.5,0.9l2.8,0.1l1.3-1h2.4l0.1,2.7l6.4,6.3l0.4,2.4l3.1-1.8l0.6-0.1
			l0.3-2.8l1.3-1.5l1-0.1l1.8-1.3l2.8,1.9l0.6,2.7l1.8,1l1,2.2l3.6,1.6l3.1,5.5l2.5,3.6l2.1,2.5l1.3,3.4l4.6,1.6l4.7,1.9l0.9,4
			l0.4,2.8l-0.9,3.1l-1.6,2.1l-1.5-0.7l-1.3-2.8l-2.5-1.3l-1.6-1l-0.7,0.7l1.3,2.5l0.1,3.4l-1,0.4l-1.8-1.8l-1.9-1.2l0.4,1.5
			l1.2,1.6l-0.7,0.7c0,0-0.7-0.3-1.2-0.9c-0.4-0.6-1.9-3.1-1.9-3.1l-0.9-2.1c0,0-0.3,1.2-0.9,0.9c-0.6-0.3-1.2-1.3-1.2-1.3l1.6-1.8
			l-1.3-1.3v-4.6h-0.7l-0.7,3.1l-1,0.4l-0.9-3.4l-0.6-3.4l-0.7-0.4l0.3,5.2v1l-1.3-1.2l-3.3-5.5l-1.9-0.5l-0.6-3.4l-1.5-2.7l-1.5-1
			v-2.1l1.9-1.2l-0.4-0.3l-2.4,0.6l-3.1-2.2l-2.4-2.7l-4.4-2.4l-3.7-2.4l1.2-3v-1.5l-1.6,1.5l-2.7,1l-3.4-1l-5.2-2.2h-5l-0.6,0.4
			l-5.9-3.6l-1.9-0.3l-2.5-5.4l-3.3,0.3l-3.3,1.3l0.4,4.2l1-2.7l0.9,0.3l-1.3,4l3-2.5l0.6,1.5l-3.6,4l-1.2-0.3l-0.4-1.8l-1.2-0.7
			l-1.2,1l-2.5-1.6l-2.8,1.9l-1.6,1.9l-3.1,1.9l-4.3-0.1l-0.4-1.9l3.4-0.6v-1.2l-2.1-0.6l0.9-2.2l2.1-3.6v-1.6l0.1-0.7l4-2.1
			l0.9,1.2h2.5l-1.2-2.4l-3.4-0.3l-4.6,2.5l-2.2,3.1l-1.6,2.4l-1,2.1l-3.9,1.3l-2.8,2.4l-0.3,1.5l2.1,0.9l0.7,1.9l-2.5,3l-5.9,3.9
			l-7.1,3.9l-1.9,1l-4.9,1l-4.9,2.1l1.6,1.2l-1.3,1.3l-0.4,1l-2.5-0.9l-3,0.1l-0.7,2.1h-0.9l0.3-2.2l-3.3,1.2l-2.7,0.9l-3.1-1.2
			l-2.7,1.8h-3l-1.9,1.2L205,641l-1.9-0.3l-2.4-1l-2.1,0.6l-0.9,0.9l-1.5-1v-1.8l2.8-1.2l5.8,0.6l4-1.5l1.9-1.9l2.7-0.6l1.6-0.7
			l2.5,0.1l1.5,1.2l0.9-0.3l2.1-2.5l2.8-0.9l3.1-0.6l1.2-0.3l0.6,0.5h0.7l1.2-3.4l3.7-1.3l1.8-3.4l2.1-4.2l1.5-1.3l0.3-2.4l-1.5,1.2
			l-3.1,0.6l-0.6-2.2l-1.2-0.3l-0.9,0.9l-0.1,2.7l-1.3-0.1l-1.3-5.4l-1.2,1.2l-1-0.4l-0.3-1.8l-3.7,0.1l-1.9,1l-2.4-0.3l1.3-1.3
			l0.4-2.4l-0.6-1.8l1.3-0.9l1.2-0.1l-0.6-1.6v-4l-0.9-0.9l-0.7,1.3h-5.6l-1.3-1.2l-0.6-3.6l-1.9-3.3v-0.9l1.9-0.7l0.1-1.9l1-1
			l-0.7-0.4l-1.2,0.4l-1-2.5l0.9-4.6l4.2-3l2.4-1.5l1.8-3.4l2.5-1.2l2.4,1l0.3,2.2l2.2-0.3l3-2.2l1.5,0.6l0.9,0.6h1.5l2.1-1.2l0.7-4
			c0,0,0.3-2.7,0.9-3.1c0.6-0.4,0.9-0.9,0.9-0.9l-1-1.8l-2.4,0.7l-3,0.7l-1.8-0.4l-3.3-1.6l-4.6-0.1l-3.3-3.4l0.4-3.6l0.6-2.2
			l-1.9-1.6l-1.8-3.4l0.4-0.7l6.2-0.4h1.9l0.9,0.9h0.6l-0.1-1.5l3.6-0.6l2.4,0.3l1.3,1l-1.3,1.9l-0.4,1.3l2.5,1.5l4.6,1.6l1.6-0.9
			l-2.1-4l-0.9-3l0.9-0.7l-3.1-1.8l-0.4-1l0.4-1.5l-0.7-3.6l-2.7-4.3L232,527l2.7-1.8h3l1.6,0.6l3.9-0.1l3.4-3.3l1-2.8l3.4-2.2
			l1.5,0.9l2.5-0.6l3.4-1.9l1-0.1l0.9,0.7l4.2-0.1l2.5-2.8h1l3.3,2.2l1.8,1.9l-0.4,1l0.6,1l1.5-1.5l3.6,0.3l0.3,3.4l1.8,1.3l6.5,0.6
			l5.8,3.9l1.3-0.9l4.7,2.4l1.9-0.6l1.8-0.7l4.4,1.8L310.9,532.2L310.9,532.2L310.9,532.2L310.9,532.2L310.9,532.2L310.9,532.2z
			 M205.3,558.9l1.9,4.9l-0.1,0.9l-2.7-0.3l-1.6-3.7l-1.6-1.3H199l-0.1-2.4l1.6-2.2l1,2.2l1.3,1.3L205.3,558.9z M203,589.7l3.4,0.7
			l3.4,0.9l0.7,0.9l-1.5,3.4l-2.8-0.1l-3.1-3.3L203,589.7z M184,576.7l1,2.4l1,1.5l-1,0.7l-1.9-2.8v-1.8L184,576.7L184,576.7z
			 M171.4,644.1l3.1-2.1l3.1-0.9l2.4,0.3l0.4,1.5l1.8,0.4l1.8-1.8l-0.3-1.5l2.5-0.6l2.7,2.4l-1,1.6l-4,1l-2.5-0.4l-3.4-1l-4,1.3
			l-1.5,0.3L171.4,644.1z M216.3,639.9l1.5,1.8l1.9-1.5l-1.3-1.2L216.3,639.9z M219,642.7l1-2.1l1.9,0.3l-0.7,1.8L219,642.7
			L219,642.7z M240.6,640.9l1.3,1.6l0.9-1l-0.7-1.8L240.6,640.9z M248.6,629.5l1,5.4l2.7,0.7l4.6-2.7l4-2.4l-1.5-2.2l0.4-2.2
			l-1.9,1.2l-2.7-0.7l1.5-1l1.8,0.7l3.6-1.6l0.4-1.3l-2.2-0.7l0.7-1.8l-2.5,1.8l-4.3,3.3l-4.4,2.7L248.6,629.5z M287.5,611.1
			l2.2-1.3l-0.9-1.6l-1.6,0.9L287.5,611.1z"/>
		<path id="WY_19_" class="st0" d="M491.7,246.7l-10.6-0.9l-29.4-3l-14.9-1.9l-26-3.8l-18.2-2.7l-1.3,10.3l-3.5,22.4l-4.8,28
			l-1.4,9.7l-1.5,11l6,0.9l15.5,2.1l8.1,1.1l18.9,2.3l34.2,3.8l22.4,1.9l4-40.9l1.5-23.4L491.7,246.7z"/>
		<path id="AZ_19_" class="st0" d="M292.3,471.2l-2.4,2l-0.3,1.3l0.4,0.9l17.3,9.8l11.1,7l13.5,7.9l15.4,9.2l11.3,2.2l24.5,3.2
			l1.9-12.3l3.4-24.8l6.4-49l3.9-28.4l-23.6-3.5l-25-4.2l-30.7-5.8l-2.7,16.7l-0.4,0.4l-1.6,2.4l-2.3-0.1l-1.2-2.5l-2.5-0.3
			l-0.8-1.1h-0.8l-0.8,0.5l-1.8,0.9l-0.1,6.4l-0.2,1.6l-0.5,11.6l-1.4,2l-0.5,3.1l2.5,4.5l1.2,5.4l0.7,0.9l0.9,0.5l-0.1,2.1
			l-1.5,1.3l-3.1,1.6l-1.8,1.8l-1.4,3.4l-0.5,4.5l-2.6,2.5l-1.9,0.6l-0.1,5.4l-0.4,1.6l0.4,0.7l3.4,0.5l-0.5,2.5l-1.4,2L292.3,471.2
			L292.3,471.2z"/>
		<path id="ND_19_" class="st0" d="M599,232.5l-0.6-7.8l-1.7-6.7l-1.7-12.4l-0.4-9.1l-1.7-3.2l-1.5-4.6v-9.5l0.6-3.6l-1.8-5.1
			l-27-0.5l-17.1-0.6l-24.3-1.2l-22.9-1.7l-1.2,13.1l-1.3,13.9l-2.1,23l-0.6,11.2l51.5,3.3L599,232.5z"/>
		<path id="IA_19_" class="st0" d="M686.6,299.7l0.1,1.7l2.1,0.6l0.8,1.1l0.4,1.7l3.6,3.2l0.6,2.1l-0.6,3.2l-1.7,3.4l-0.6,2.3
			l-2.1,1.7l-1.7,0.6l-4.8,1.3l-0.6,1.7l-0.6,1.9l0.6,1.3l1.7,1.5l-0.2,3.8l-1.7,1.5l-0.6,1.5v2.5l-1.7,0.4l-1.5,1.1l-0.2,1.3
			l0.2,1.9l-1.6,1.6l-3-3.1l-1-2.1l-7.1,0.6l-9,0.4l-23.3,0.8l-12.4,0.2l-8.6,0.2l-1,0.1l-1.5-5l-0.2-6.1l-1.5-3.8l-0.6-4.8
			l-2.1-3.4l-0.8-4.4l-2.5-7l-1-5l-1.3-2l-1.5-2.5l1.7-4l1.3-5.3l-2.5-1.9l-0.4-2.5l0.8-2.3h1.6h10.6l45.5-0.6l16.6-0.6l3.8-0.1
			l0.6,3.1l2.1,1.5l0.2,1.3l-1.9,3.2l0.2,3l2.3,3.6l2.3,1.1l2.7,0.4L686.6,299.7L686.6,299.7z"/>
		<path id="AR_19_" class="st0" d="M708.9,432l-4.5,0.9l-5.7-0.4l0.6-2.7l2.9-2.5l0.4-2.1l-1.7-2.7l-10.1,0.4l-19.1,0.8l-21.4,0.6
			l-21.4,0.4l1.5,6.3v7.6l1.3,10.1l0.2,34.9l2.1,1.8l2.7-1.3l2.5,1.1l0.6,10.3l20.4,0l17.6-0.8l9.9,0.1l1.4-2.4l-0.4-4l-1.3-2.7
			l1.3-1.3l-1.3-1.9l0.4-1.7l0.8-5.7l2.7-2.5l-0.6-1.9l3.4-4.8l2.5-0.8v-2.3l-0.6-1.3l2.5-4.8l2.5-1.1L701,452l2.2-1l0.9-4.3
			l-1.3-3.3l3.7-2.1l0.3-2.4l1.2-4L708.9,432z"/>
		<path id="KS_19_" class="st0" d="M628.5,414.3l-12.2,0.6l-42.6-0.4l-41.3-1.9l-22.1-1.2l3.8-60.7l20,0.7l37.1,1.3l40.5,0.4h5.6
			l2.8,2.5l2.1,0.2l1.3,0.8v2.7l-1.7,1.5l-0.4,2.1l1.9,3.2l2.3,2.7l2.3,1.7l1.3,10.7L628.5,414.3L628.5,414.3z"/>
		<path id="LA_19_" class="st0" d="M719.5,550l-1.2-2.1l-1-3.6l-3.1-2.9l1-7l-0.6-0.8l-1.7,0.2l-7.5,0.6l-22.2,0.6l-0.4-1.5l0.6-7.4
			l3.1-5.7l4.8-8.4l-0.8-1.9h1l0.6-2.9l-2.1-1.7l0.2-1.7l-1.9-4.2l-0.3-5.1h-10l-17.6,0.8l-20.4,0l0,8.8l0.6,8.6l0.6,3.6l2.3,3.8
			l0.8,4.6l4,5.1l0.2,3l0.6,0.6l-0.6,7.8l-2.7,4.6l1.5,1.9l-0.6,2.3l-0.6,6.7l-1.3,2.9l0.1,3.3l4.3-1.4l7.4-0.3l9.5,3.3l5.9,1
			l3.4-1.3l3,1l3,0.9l0.7-1.9l-3-1l-2.4,0.4l-2.5-1.5c0,0,0.1-1.2,0.7-1.3c0.6-0.1,2.8-0.9,2.8-0.9l1.6,1.3l1.6-0.9l3,0.6l1.3,2.2
			l0.3,2.1l4.2,0.3l1.6,1.6l-0.7,1.5l-1.2,0.7l1.5,1.5l7.7,3.3l3.3-1.2l0.9-2.2l2.4-0.6l1.6-1.3l1.2,0.9l0.7,2.7l-2.1,0.7l0.6,0.6
			l3.1-1.2l2.1-3.1l0.7-0.4l-1.9-0.3l0.7-1.5l-0.1-1.3l1.9-0.4l1-1.2l0.6,0.7c0,0-0.1,2.8,0.6,2.8c0.7,0,3.9,0.6,3.9,0.6l3.7,1.8
			l0.9,1.3h2.7l1,0.9l2.1-2.8v-1.3h-1.2l-3.1-2.5l-5.3-0.7l-3-2.1l1-2.5l2.1,0.3l0.1-0.6l-1.6-0.9V559h3l1.6-2.8l-1.2-1.8l-0.3-2.5
			l-1.3,0.1l-1.8,1.9l-0.6,2.4l-2.8-0.6l-0.9-1.6l1.6-1.8l1.9-1.6L719.5,550L719.5,550z"/>
		<path id="HI_19_" class="st0" d="M379.7,592.7l1.8-3.3l2.1-0.3l0.3,0.7l-1.9,2.8L379.7,592.7L379.7,592.7z M389.1,589.2l5.6,2.4
			l1.9-0.3l1.5-3.6l-0.6-3.1l-3.9-0.4l-3.7,1.6L389.1,589.2L389.1,589.2z M417.2,598.5l3.4,5.1l2.2-0.3l1-0.4l1.3,1.2l3.4-0.1
			l0.9-1.3l-2.7-1.6l-1.8-3.4l-1.9-3.3l-5.3,2.7L417.2,598.5L417.2,598.5z M435.8,606.7l1.2-1.8l4.3,0.9l0.6-0.5l5.6,0.6l-0.3,1.2
			l-2.4,1.3l-4-0.3L435.8,606.7z M440.7,611.4l1.8,3.6l2.8-1l0.3-1.5l-1.5-1.9l-3.4-0.3V611.4L440.7,611.4z M447,610.4l2.1-2.7
			l4.3,2.2l4,1l4,2.5v1.8l-3.3,1.6l-4.4,0.9l-2.2-1.3L447,610.4L447,610.4z M462.3,624.7l1.5-1.2l3.1,1.5l7,3.3l3.1,1.9l1.5,2.2
			l1.8,4l3.7,2.4l-0.3,1.2l-3.6,3l-3.9,1.3l-1.3-0.6l-2.8,1.6l-2.2,3l-2.1,2.7l-1.6-0.1l-3.3-2.4l-0.3-4.2l0.6-2.2l-1.5-5.2
			l-1.9-1.6l-0.1-2.4l2.1-0.9l1.9-2.8l0.4-0.9l-1.5-1.6L462.3,624.7L462.3,624.7z"/>
		<path id="SC_19_" class="st0" d="M864.2,494.6l-1.6,0.9l-2.4-1.2l-0.6-1.9l-1.2-3.3l-2.1-1.9l-2.4-0.6l-1.5-4.5l-2.5-5.5l-3.9-1.8
			l-1.9-1.8l-1.2-2.4l-1.9-1.8l-2.1-1.2l-2.1-2.7l-2.8-2.1l-4.2-1.6l-0.4-1.3l-2.2-2.7l-0.4-1.3l-3.1-4.8l-3.1,0.1l-3.7-2.2
			l-1.2-1.2l-0.3-1.6l0.7-1.8l2.1-0.9l-0.3-1.9l5.6-2.4l8.3-4.2l6.7-0.7l15.1-0.4l2.1,1.8l1.5,3l4-0.5l11.6-1.3l2.7,0.7l11.6,7
			l9.3,7.5l-5,5l-2.4,5.7l-0.4,5.8l-1.5,0.7l-1,2.5l-2.2,0.6l-1.9,3.3l-2.5,2.5l-2.1,3.1l-1.5,0.7l-3.3,3.1l-2.7,0.1l0.9,3l-4.6,5.1
			L864.2,494.6L864.2,494.6z"/>
		<path id="NC_19_" class="st0" d="M929.2,389.1l1.6,4.3l3.3,6l2.2,2.2l0.6,2.1l-2.2,0.1l0.7,0.6l-0.3,3.9l-2.4,1.2l-0.6,1.9
			l-1.2,2.7l-3.4,1.5l-2.2-0.3l-1.3-0.2l-1.5-1.2l0.3,1.2v0.9h1.8l0.7,1.2l-1.8,5.8h3.9l0.6,1.5l2.1-2.1l1.2-0.4l-1.8,3.3l-2.8,4.5
			h-1.2l-1-0.4l-2.5,0.6l-4.7,2.2l-5.9,4.9l-3.1,4.3l-1.8,6l-0.4,2.2l-4.3,0.5l-5.4,2l-9.1-7.6l-11.6-7l-2.7-0.7l-11.6,1.3l-4,0.4
			l-1.5-3l-2.1-1.8l-15.1,0.4l-6.7,0.7l-8.3,4.2l-5.6,2.4l-1.5,0.3l-5.3,0.9l-6.4,0.7l-6.2,0.4l0.3-4.5l1.6-1.3l2.5-0.6l0.6-3.4
			l3.9-2.5l3.6-1.3l3.9-3.3l4-1.9l0.6-2.8l3.6-3.6l0.6-0.1c0,0,0,1,0.7,1s1.8,0.3,1.8,0.3l2.1-3.3l1.9-0.6l2.1,0.3l1.5-3.3l2.7-2.4
			l0.4-1.9V405l4.2,0.7l6.5-1.2l14.5-1.8l15.7-2.4l18.9-3.5l17.6-3.5l10.5-2.7L929.2,389.1L929.2,389.1z M932.8,419.6l2.4-2.3
			l2.9-2.4l1.4-0.6l0.1-1.9l-0.6-5.7l-1.3-2.2l-0.6-1.7l0.7-0.2l2.5,5.1l0.4,4.1l-0.1,3.1l-3.1,1.4l-2.6,2.2l-1,1.1L932.8,419.6z"/>
		<path id="RI_19_" class="st0" d="M967.7,279.8l-0.4-3.9l-0.7-4l-1.6-5.4l5.3-1.4l1.5,1l3.1,4l2.7,4.1l-2.7,1.4l-1.2-0.1l-1,1.6
			l-2.2,1.8L967.7,279.8z"/>
		<path id="ME_19_" class="st0" d="M1012.8,185.3l1.8,1.9l2.1,3.4v1.8l-1.9,4.3l-1.8,0.6l-3.1,2.8l-4.4,5.1c0,0-0.6,0-1.2,0
			c-0.6,0-0.9-1.9-0.9-1.9l-1.6,0.1l-0.9,1.3l-2.2,1.3l-0.9,1.3l1.5,1.3l-0.4,0.6l-0.4,2.5l-1.8-0.1v-1.5l-0.3-1.2l-1.3,0.3l-1.6-3
			l-1.9,1.2l1.2,1.3l0.3,1l-0.7,1.2l0.3,2.8l0.1,1.5L991,218l-2.7,0.4l-0.3,2.7l-4.9,2.8l-1.2,0.4l-1.5-1.3l-2.8,3.3l0.9,3l-1.3,1.2
			l-0.1,4l-1.4,7l-2.3-1.1l-0.4-2.8l-3.6-1l-0.3-2.5l-6.7-21.6l-4.4-13.6l2.2-0.3l1.4,0.4v-2.4l0.7-5.1l2.4-4.3l1.3-3.7l-1.8-2.2
			v-5.5l0.7-0.9l0.7-2.5l-0.1-1.3l-0.1-4.5l1.6-4.5l2.7-8.2l1.9-3.9h1.2l1.2,0.1v1l1.2,2.1l2.5,0.6l0.7-0.7v-0.9l3.7-2.7l1.6-1.6
			l1.3,0.1l5.5,2.2l1.8,0.9l8.3,27.6h5.5l0.7,1.8l0.1,4.5l2.7,2.1h0.7l0.1-0.4l-0.4-1L1012.8,185.3z M993.6,213.1l1.4-1.4l1.3,1
			l0.5,2.2l-1.6,0.8L993.6,213.1L993.6,213.1z M999.7,207.7l1.6,1.7c0,0,1.2,0.1,1.2-0.2s0.2-1.9,0.2-1.9l0.8-0.7l-0.7-1.6l-1.9,0.7
			L999.7,207.7z"/>
		<path id="NH_19_" class="st0" d="M974.4,245.8l0.3-1.4l1-3l-2.3-0.8l-0.4-2.8l-3.6-1l-0.3-2.5l-6.7-21.6l-4.2-13.4l-0.8,0
			l-0.6,1.5l-0.6-0.4l-0.9-0.9l-1.3,1.8L953,206l0.3,5.2l1.8,2.5v3.7l-3.4,3.7l-2.4,1v1l1,1.6v7.9l-0.7,8.5l-0.1,4.5l0.9,1.2
			l-0.1,4.2l-0.4,1.6l1.3,1.9l15.9-3.8l2.1-0.6l1.9-3L974.4,245.8L974.4,245.8z"/>
		<path id="WV_19_" class="st0" d="M860.9,337.1l1,4.6l0.9,5.2l0.3-0.3l1.9-2.2l2.1-2.8l2.2-0.1l1.3-1.3l1.6-2.4l1.2,0.6l2.7-0.3
			l2.4-1.9l1.8-1.3l1.7-0.4l1.5,1l2.7,1.3l1.8,1.6l1.3,1.2l-1,4.6l-5.2-2.8l-4.2-1.6l-0.1,4.9l-0.4,1.9l-1.5,2.5l-0.6,1.5l-2.8,2.2
			l-0.4,2.1L870,355l-0.3,2.8l-1,5.1h-2.4l-1.2-0.7l-1.5-2.5l-1.6,0.1l-0.3,4l-1.9,6.1l-4.6,10l0.7,1.2l-0.1,2.5l-1.9,1.8l-1.3-0.3
			l-3,2.2l-2.4-0.9l-1.6,4.3c0,0-3.4,0.7-4,0.9s-2.2-1.2-2.2-1.2l-2.2,2.1l-2.4,0.6l-2.7-0.7l-1.2-1.2l-2-2.8l-2.9-1.8l-2.4-2.5
			l-2.7-3.4l-0.6-2.1l-2.4-1.3l-0.7-1.5l-0.2-4.8l2-0.1l1.8-0.7l0.1-2.5l1.5-1.3l0.1-4.6l0.9-3.6l1.2-0.6l1.2,1l0.4,1.6l1.6-0.9
			l0.4-1.5l-1-1.6v-2.2l0.9-1.2l2.1-3.1l1.2-1.3l1.9,0.4l2.1-1.5l2.8-3.1l2.1-3.6l0.3-5.2l0.4-4.6v-4.3l-1-2.8l0.9-1.3l1.2-1.2
			l3.2,18.3l4.2-0.7L860.9,337.1L860.9,337.1z"/>
		<path id="OH_19_" class="st0" d="M837.8,293.7l-6.5,3.8l-3.6,2.1l-3.1,3.4l-3.7,3.6l-3,0.7l-2.7,0.4l-5,2.4l-1.9,0.1l-3.1-2.8
			l-4.7,0.6l-2.4-1.3l-2.2-1.2l-4.5,0.6l-9.3,1.5l-7.1,1.1l1.2,13.5l1.6,12.7l2.4,21.6l0.5,5.3l3.8-0.2l2.2-0.7l2.7,1.5l1.5,4
			l5.3,0.3l1.6,1.6l1.9,0.1l2.2-1.3l2.8,0.4l1.2,1.3l2.5-2.4l1.6-1.2h1.5l0.6,2.5l1.6,0.9l3.2,2.2l2-0.1l1.8-0.7l0.1-2.5l1.5-1.3
			l0.1-4.6l0.9-3.6l1.2-0.6l1.2,1l0.4,1.6l1.6-0.9l0.4-1.5l-1-1.6v-2.2l0.9-1.2l2.1-3.1l1.2-1.3l1.9,0.4l2.1-1.5l2.8-3.1l2.1-3.6
			l0.3-5.2l0.4-4.6v-4.3l-1-2.8l0.9-1.3l1.3-0.7l-1.7-9.9L837.8,293.7L837.8,293.7z"/>
		<path id="TX_19_" class="st0" d="M493.4,421.3l20.8,1l28.5,1.1l-1.3,21.9l-0.4,16.4l0.2,1.5l4,3.4l1.9,1.1l0.6-0.2l0.6-1.9
			l1.3,1.7h1.9v-1.3l2.5,1.3l-0.4,3.6l3.8,0.2l2.3,1.1l3.8,0.6l2.3,1.7l2.1-1.9l3.1,0.6l2.3,3.2h0.8v2.1l2.1,0.6l2.1-2.1l1.7,0.6
			h2.3l0.8,2.3l4.4,1.7l1.3-0.6l1.7-3.8h1l1,1.9l3.8,0.6l3.4,1.3l2.7,0.8l1.7-0.8l0.6-2.3h4l1.9,0.8l2.5-1.9h1l0.6,1.5h3.8l1.5-1.9
			l1.7,0.4l1.9,2.3l2.9,1.7l2.9,0.8l2.5,1.2l2.1,1.8l2.7-1.3l2.5,1.1l0.6,10.2l0,8.9l0.6,8.6l0.6,3.6l2.3,3.8l0.8,4.6l4,5.1l0.2,3
			l0.6,0.6l-0.6,7.8l-2.7,4.6l1.5,1.9l-0.6,2.3l-0.6,6.7l-1.3,2.9l0.3,3.3l-5.9,1.6l-9,4.2l-0.9,1.8l-2.4,1.8l-1.9,1.3l-1.2,0.7
			l-5.2,4.9l-2.5,1.9l-4.9,3l-5.2,2.2l-5.8,3.1l-1.6,1.3l-5.3,3.3l-3.1,0.6l-3.6,5.1l-3.7,0.3l-0.9,1.8l2.1,1.8l-1.3,5.1l-1.2,4.2
			l-1,3.6l-0.7,4.2l0.7,2.2l1.6,6.4l0.9,5.7l1.6,2.5l-0.9,1.3l-2.8,1.8l-5.2-3.6l-5-1l-1.2,0.5l-3-0.6l-3.9-2.8l-4.7-1l-7-3.1
			l-1.9-3.6l-1.2-6l-3-1.8l-0.6-2.1l0.6-0.6l0.3-3.1l-1.2-0.6l-0.6-0.9l1.2-4l-1.5-2.1l-3-1.2l-3.1-4l-3.3-6.1l-3.9-2.4l0.1-1.8
			l-4.9-11.3l-0.7-3.9l-1.6-1.8l-0.1-1.3l-5.5-4.9l-2.4-2.8v-1l-2.4-1.9l-6.2-1l-6.8-0.6l-2.8-2.1l-4.2,1.6l-3.3,1.3l-2.1,3
			l-0.9,3.4l-4,5.7l-2.2,2.2l-2.4-0.9l-1.6-1l-1.8-0.6l-3.6-2.1v-0.6l-1.6-1.8l-4.7-1.9l-6.8-7.1l-2.1-4.3v-7.4l-3-6l-0.4-2.5
			l-1.5-0.9l-1-1.9l-4.6-1.9l-1.2-1.5l-6.5-7.3l-1.2-3l-4.3-2.1l-1.3-4l-2.4-2.7l-1.8-0.5l-0.6-4.3l7.3,0.6l26.6,2.5l26.6,1.5
			l2.1-21.9l3.6-51.2l1.5-17.3l1.3,0 M585.3,636.9l-0.5-6.6l-2.5-6.6l-0.5-6.5l1.4-7.6l3-6.3l3.2-5l2.9-3.3l0.6,0.2l-4.4,6.1l-4,6
			l-1.9,6.1l-0.3,4.8l0.8,5.7l2.4,6.6l0.4,4.8l0.1,1.3L585.3,636.9z"/>
		<path id="CA_19_" class="st0" d="M291.9,471.1l3.8-0.7l1.4-2l0.5-2.5l-3.4-0.5l-0.4-0.7l0.4-1.6l0.1-5.4l1.9-0.6l2.6-2.5l0.5-4.5
			l1.4-3.4l1.8-1.8l3.1-1.6l1.5-1.3l0.1-2.1l-0.9-0.5l-0.7-0.9l-1.2-5.4l-2.5-4.5l0.5-3l-2.3-3l-13.3-21L269,374.7l-20.9-31.2
			l-11.4-17.1l1.5-6.1l6.4-23.9l7.4-29l-12.4-3.4l-12.4-3.2l-11.5-3.8l-6.9-1.9l-10.5-2.7l-6.5-2.2l-1.4,4.4l-0.1,6.9l-4.7,10.9
			l-2.8,2.4l-0.3,1l-1.6,0.7l-1.3,3.9l-0.7,3l2.5,3.9l1.5,3.9l1,3.3l-0.3,6l-1.6,2.8l-0.6,5.4l-0.9,3.4l1.6,3.6l2.5,4.2l2.1,4.5
			l1.2,3.7l-0.3,3l-0.3,0.4v1.9l5.2,5.8l-0.4,2.2l-0.6,2.1l-0.6,1.8l0.1,7.6l1.9,3.4l1.8,2.4l2.5,0.4l0.9,2.5l-1,3.3l-1.9,1.5h-1
			l-0.7,3.6l0.4,2.7l3,4l1.5,4.9l1.3,4.3l1.2,2.8l3.1,5.4l1.3,2.4l0.4,2.7l1.5,0.9v2.2l-0.7,1.8l-1.6,6.6l-0.4,1.8l2.2,2.5l3.9,0.5
			l4.2,1.6l3.6,1.9h2.7l2.7,2.8l2.4,4.5l1,2.1l3.6,1.9l4.4,0.7l1.3,1.9l0.6,3l-1.3,0.6l0.3,0.9l3,0.7l2.5,0.1l2.7,4.3l3.6,3.9
			l0.7,2.1l2.4,3.9l0.3,3v8.6l0.4,1.6l9.2,1.3l18.1,2.5L291.9,471.1L291.9,471.1z M210.7,424.7l1.2,1.4l-0.1,1.2l-3-0.1l-0.5-1.1
			l-0.6-1.3L210.7,424.7L210.7,424.7z M212.5,424.7l1.1-0.6l3.3,1.9l2.8,1.1l-0.8,0.6l-4.2-0.2l-1.5-1.5L212.5,424.7L212.5,424.7z
			 M231.4,442.9l1.6,2.2l0.7,0.9l1.4,0.5l0.5-1.3l-0.9-1.6l-2.4-1.9l-1,0.1L231.4,442.9L231.4,442.9z M230.1,450.9l1.6,2.9l1.1,1.8
			l-1.3,0.2l-1.2-1.1c0,0-0.7-1.3-0.7-1.7c0-0.4,0-2,0-2L230.1,450.9z"/>
		<path id="MS_19_" class="st0" d="M739.6,544.4l-1.1,1.2h-4.7l-1.3-0.7l-1.9-0.3l-6.2,1.8l-1.6-0.7l-2.4,3.9l-1,0.7l-1-2.3l-1-3.6
			l-3.1-2.9l1-7l-0.6-0.8l-1.7,0.2l-7.5,0.6l-22.2,0.6l-0.4-1.5l0.6-7.4l3.1-5.7l4.8-8.4l-0.8-1.9h1l0.6-2.9l-2.1-1.7l0.2-1.7
			l-1.9-4.2l-0.3-4.9l1.3-2.4l-0.4-4l-1.3-2.7l1.3-1.3l-1.3-1.9l0.4-1.7l0.8-5.7l2.7-2.5l-0.6-1.9l3.4-4.8l2.5-0.8v-2.3l-0.6-1.3
			l2.5-4.8l2.5-1.1l0.1-3.1l8-0.1l22.1-1.8l5-0.2l0,5.9l0.1,15.3l-0.7,28.6l-0.1,13l2.5,17.3L739.6,544.4L739.6,544.4z"/>
		<path id="IN_19_" class="st0" d="M733.4,392.3l-0.1-3.6l0.4-4.2l2.1-2.7l1.6-3.6l2.4-3.9l-0.4-5.4l-1.6-2.5l-0.3-3l0.7-5.1
			l-0.4-6.4l-1.2-14.8l-1.2-14.2l-0.9-10.8l2.8,0.8l1.3,0.9l1-0.3l1.9-1.8l2.6-1.5l4.7-0.1l20.2-2.1l5.6-0.6l0.1,1l1.3,13.6
			l1.6,12.7l2.4,21.6l0.4,5.2l-0.4,2.1l1.3,1.3l0.3,1.8l-2.5,1.8l-3.6,1.6l-2.5,0.3l-0.4,4.2l-4.3,3.6l-2.7,3.3l0.3,2.1l-0.7,1.9
			H761l-1-1.5l-1,0.7l-2.7,1.5l0.1,3.1l-1.9,0.4l-0.7-1l-1.8-1.5l-2.7,1.3l-1.6,3l-1.6-0.7l-1.3-1.8l-3.3,0.5l-5.3,0.9L733.4,392.3z
			"/>
		<path id="MN_19_" class="st0" d="M598.8,232.5l-0.4-7.8l-1.7-6.7l-1.7-12.4l-0.4-9.1l-1.7-3.2l-1.5-4.6v-9.5l0.6-3.6l-1.7-5
			l27.6,0l0.3-7.6l0.6-0.1l2.1,0.4l1.8,0.7l0.7,5.1l1.3,5.7l1.5,1.5h4.4l0.3,1.3l5.8,0.3v1.9h4.4l0.3-1.2l1-1l2.1-0.6l1.2,0.9h2.7
			l3.6,2.4l4.9,2.2l2.2,0.4l0.4-0.9l1.3-0.4l0.4,2.7l2.4,1.2l0.4-0.4l1.2,0.1v1.9l2.4,0.9h2.8l1.5-0.7l3-3l2.4-0.4l0.7,1.6l0.4,1.2
			h0.9l0.9-0.7l8.2-0.3l1.6,2.8h0.6l0.7-1l4.1-0.3l-0.6,2.1l-3.6,1.7l-8.5,3.7l-4.4,1.9l-2.8,2.4l-2.2,3.3l-2.1,3.6l-1.6,0.7
			l-4.2,4.6l-1.2,0.1l-3.1,2.8l0.6,0.5l-2.6,2.5l-0.2,2.5v7.8l-1,1.5l-4.8,3.6l-2.1,5.5l0.4,0.2l2.3,1.9l0.6,3l-1.7,3v3.6l0.4,6.1
			l2.7,2.7h3.1l1.7,3l3.1,0.4l3.6,5.3l6.5,3.8l1.9,2.5l0.8,7H673l-16.6,0.6l-45.5,0.6h-10.6l0.5-6.3l-0.2-28l-0.4-2.7l-3.8-3.2
			l-1-1.7v-1.5l1.9-1.5l1.3-1.3L598.8,232.5L598.8,232.5z"/>
		<path id="OK_19_" class="st0" d="M510.2,411.4l-9.8-0.4l-5.9-0.4l0.2,0.2l-0.5,10.6l20,1l28.5,1.1l-1.3,21.9l-0.4,16.4l0.2,1.5
			l4,3.4l1.9,1.1l0.6-0.2l0.6-1.9l1.3,1.7h1.9v-1.3l2.5,1.3l-0.4,3.6l3.8,0.2l2.3,1.1l3.8,0.6l2.3,1.7l2.1-1.9l3.1,0.6l2.3,3.2h0.8
			v2.1l2.1,0.6l2.1-2.1l1.7,0.6h2.3l0.8,2.3l4.4,1.7l1.3-0.6l1.7-3.8h1l1,1.9l3.8,0.6l3.4,1.3l2.7,0.8l1.7-0.8l0.6-2.3h4l1.9,0.8
			l2.5-1.9h1l0.6,1.5h3.8l1.5-1.9l1.7,0.4l1.9,2.3l2.9,1.7l2.9,0.8l2.5,1.5l-0.2-35.2l-1.3-10.1V431l-1.5-6.3l-0.4-6.3l-0.2-4.1
			l-12.2,0.7l-42.6-0.4l-41.3-1.9L510.2,411.4L510.2,411.4z"/>
	</g>
	<g>
		<path id="ID_6_" class="st1" d="M294.1,278l4.4-17l4-16.3l1.3-3.9l2.3-5.5l-1.2-2.1l-2.3,0.1l-0.7-0.9l0.4-1.1l0.3-2.8l4.1-5.1
			l1.7-0.4l1-1.1l0.5-3l0.8-0.6l3.6-5.4l3.6-4l0.2-3.5L315,203l-1.2-4.1l0.4-8.9l3.4-15.2l4.1-19.2l3.5-12.4l0.7-3.5l13,2.5
			l-4.1,19.7l3.1,7l-1.3,4.2l1.7,4.2l2.9,1.3l3.4,9.5l3.4,3.4l0.4,1.1l3.1,1.1l0.4,1.9l-6.5,16.2v2.3l2.3,3h0.8l4.4-2.7l0.6-1.1
			l1.5,0.6l-0.2,4.9l2.5,11.6l2.7,2.3l0.8,0.6l1.7,2.1l-0.4,3.2l0.6,3.2l1,0.8l2.1-2.1h2.5l2.9,1.5l2.3-0.8h3.8l3.4,1.5l2.5-0.4
			l0.4-2.7l2.7-0.6l1.3,1.3l0.4,3l2.4,1.9l-3.5,22.6l-4.7,27.9l-4.4-0.7l-7.7-1.3l-9.4-1.7l-11-1.9l-11.7-2.2l-7.3-1.8l-8.5-1.7
			l-8.9-1.8L294.1,278L294.1,278z"/>
		<path id="MO_6_" class="st1" d="M676,344.5l-2.9-3l-1-2.1l-7.1,0.6l-9,0.4l-23.3,0.8l-12.4,0.2l-7.2,0.1l-2.1,0.1l1.2,2.3
			l-0.2,2.1l2.3,3.6l2.8,3.8l2.8,2.5l2.1,0.2l1.3,0.8v2.7l-1.7,1.5l-0.4,2.1l1.9,3.2l2.3,2.7l2.3,1.7l1.3,10.8l-0.6,32.6l0.2,4.3
			l0.4,6.3l21.4-0.4l21.4-0.6l19.1-0.8l10.1-0.4l1.7,2.7l-0.4,2.1l-2.9,2.5l-0.6,2.7l5.7,0.4l4.6-0.6l1.9-5.9l-0.1-5.2l2.7-1.3
			l1.3-1.5l1.9-1.1l0.2-3l0.8-1.7l-1.3-2.2l-2.7,0.3l-1.7-1.9l-1.5-3.8l0.8-2.7l-1.9-3l-1.9-4.6l-4.2-0.6l-5.9-4.9l-2.1-3.6l0.6-3
			l2.1-5.5l0.6-3.4l-2.5-1.3l-5.9-0.4l-0.8-1.3l0.2-4l-5-3.4l-6.7-7l-2.1-6.8l-0.4-3.4L676,344.5L676,344.5z"/>
		<path id="TN_6_" class="st1" d="M805.1,410l-47.7,4.6l-14.5,1.6l-4.2,0.5l-3.6,0v3.6l-7.7,0.4l-6.4,0.6l-10.2,0l-0.2,5.4l-2,5.8
			l-0.9,2.8l-1.2,4l-0.3,2.4l-3.7,2.1l1.3,3.3l-0.9,4l-1.4,1.6l7.5-0.1l22.1-1.8l4.9-0.1l7.4-0.4l25.5-2.4l9.3-0.7l7.7-0.9l7.7-1
			l4.5-0.7l0.3-4.5l1.6-1.3l2.5-0.6l0.6-3.4l3.9-2.5l3.6-1.3l3.9-3.3l4-1.9l0.6-2.8l3.6-3.6l0.6-0.1c0,0,0,1,0.7,1
			c0.7,0,1.8,0.3,1.8,0.3l2.1-3.3l1.9-0.6l2.1,0.3l1.5-3.3l2.7-2.4l0.4-1.9l0.2-3.6l-2.1,0l-2.2,1.8l-7.3,0.1l-11,1.8L805.1,410z"/>
		<path id="NY_6_" class="st1" d="M925.5,289.8l-1-0.9l-2.4-0.1L920,287l-2.2-4.9l-2.8-0.9l-2.1-2l-17.1,3.7l-39.5,8.1l-8.2,1.3
			l-0.7-6.4l2.5-1.7l1.2-1l0.9-1.5l1.6-1l1.8-1.6l0.4-1.5l1.9-2.5l1-0.9l-0.1-0.9l-1.2-2.8l-1.6-0.1l-1.8-5.7l2.7-1.6l4-1.3l3.7-1.2
			l3-0.4l5.8-0.1l1.8,1.2l1.5,0.1l1.9-1.2l2.4-1l4.8-0.4l1.9-1.6l1.6-3l1.5-1.8h1.9l1.8-1l0.1-2.1l-1.3-1.9l-0.3-1.3l1-1.9v-1.3
			h-1.6l-1.6-0.7l-0.7-1l-0.1-2.4l5.3-5.1l0.6-0.7l1.3-2.7l2.7-4.2l2.5-3.4l1.9-2.2l2.2-1.7l2.8-1.1l5-1.2l3,0.1l4.2-1.3l6.9-1.9
			l0.5,4.6l2.2,6l0.7,4.8l-0.9,3.6l2.4,4.2l0.7,1.9l-0.7,2.7l2.7,1.2l0.6,0.3l2.8,10.1l0.4,4.8l-0.4,10l0.7,5.1l0.7,3.3l1.3,6.7v7.5
			l-1,2.1l1.7,1.8l-0.2,1.4l-1.8,1.6l0.3,1.2l1.2-0.3l1.3-1.2l2.1-2.4l1-0.6l1.5,0.6l2.1,0.1l7.3-3.6l2.7-2.5l1.2-1.3l3.9,1.5
			l-3.1,3.3l-3.6,2.7l-6.5,4.9l-2.4,0.9l-5.3,1.8l-3.7,1l-1.4-0.5l-0.5-3.1l0.4-2.5l-0.1-1.9l-2.4-1l-4.2-0.9l-3.6-1L925.5,289.8z"
			/>
		<path id="UT_6_" class="st1" d="M398,401.1l-23.5-3.8l-25-4.2l-30.8-5.7l1.9-9.5l2.9-14l3-15.3l2-12.6l1.8-8.2l3.5-18.9l3.3-16.1
			l1-5.1l11.7,2.1l11,1.9l9.4,1.7l7.7,1.3l4.4,0.7l-1.5,9.8l-1.5,11l6,0.9l15.5,2.1l8.4,1.1l-2.8,20.4l-2.9,20.7L400,387l-1.4,10.2
			L398,401.1L398,401.1z"/>
		<path id="SD_6_" class="st1" d="M599.9,302.4l-0.9-1.9l-1.5-2.6l1.7-4l1.3-5.3l-2.5-1.9l-0.4-2.5l0.8-2.3h1.7l0.4-6.3l-0.2-28.1
			l-0.4-2.7l-3.8-3.2l-1-1.7v-1.5l1.9-1.5l1.3-1.3l0.3-3l-53.4-1.5l-51.6-3.6l-0.7,4.9l-1.5,14.6l-1.2,16.6l-1.5,23.7l14.3,1
			l18.5,1.1l16.4,1.1l21.8,1.1l9.9-0.4l1.9,2.1l4.4,2.7l1,0.8l4-1.3l3.6-0.4l2.5-0.2l1.7,1.3l4.6,1.5l2.7,1.5l0.4,1.5l0.8,1.9h1.7
			L599.9,302.4L599.9,302.4z"/>
		<path id="NE_6_" class="st1" d="M610.7,341.8l1.3,2.3l-0.2,2.1l2.3,3.6l2.9,3.8h-5.7l-40.5-0.4l-37.2-1.3l-20-0.7l1.6-20.6
			l-30.7-2.5l4-40.6l14.3,0.9l18.5,1.1l16.4,1.1l21.8,1.1l9.9-0.4l1.9,2.1l4.4,2.7l1,0.8l4-1.3l3.6-0.4l2.5-0.2l1.7,1.3l4.6,1.5
			l2.7,1.5l0.4,1.5l0.8,1.9h1.7l1.5-0.1l1,5l2.5,7l0.8,4.4l2.1,3.4l0.6,4.9l1.5,3.8l0.2,6.1l1.8,5.1"/>
	</g>
	<g>
		<path id="NJ_10_" class="st2" d="M925.6,290l-1.9,2.2v2.8l-1.8,2.8l-0.1,1.5l1.2,1.2l-0.1,2.2l-2.1,1l0.7,2.5l0.1,1l2.5,0.3
			l0.9,2.4l3.3,2.2l2.2,1.5v0.7l-3,2.8l-1.5,2.1l-1.3,2.5l-2.1,1.2l-1.1,0.7l-0.2,1.1l-0.6,2.4l1,2.1l3,2.7l4.5,2.1l3.7,0.6l0.1,1.3
			l-0.7,0.9l0.3,2.5h0.7l1.9-2.2l0.7-4.5l2.5-3.7l2.8-6l1-5.1l-0.6-1l-0.1-8.6l-1.5-3.1l-1,0.7l-2.5,0.3l-0.4-0.4l1-0.9l1.9-1.8
			l0.1-1l-0.4-3.2l0.4-2.5l-0.1-1.9l-2.4-1l-4.2-0.9l-3.6-1L925.6,290L925.6,290z"/>
		<path id="NV_10_" class="st2" d="M294.4,278.2l19.3,4.2l8.9,1.8l8.5,1.7l7.4,2l-1.1,5.1l-3.3,16.1l-3.5,18.9l-1.8,8.2l-2,12.5
			l-3,15.3l-2.9,14l-1.8,9.7l-2.7,16.4l-0.4,0.4l-1.6,2.4l-2.3-0.1l-1.2-2.5l-2.5-0.3l-0.8-1.1h-0.8l-0.8,0.5l-1.8,0.9l-0.1,6.4
			l-0.2,1.6l-0.5,11.6l-1.4,2l-2.3-3l-13.3-21l-17.8-26.8l-20.9-31.2l-11.4-17.1l1.5-6.1l6.4-23.9l7.2-28.9l30.9,7.5l12.6,2.7"/>
		<path id="KY_10_" class="st2" d="M828.9,389.3l-2.9,2.9l-3.9,3.3l-4.2,4.9l-1.6,1.6v1.9l-3.6,1.9l-5.2,3.1l-2.4,1.3l-47.6,4.5
			l-14.5,1.6l-4.2,0.5l-3.6,0v3.6l-7.7,0.4l-6.4,0.6l-9.6,0.2l0.9-1.1l2-1.6l1.9-1.1l0.2-3l0.8-1.7l-1.5-2.3l0.7-1.8l2.1-1.6
			l1.9-0.6l2.5,1.2l3.3,1.2l1-0.3l0.1-2.1l-1.2-2.2l0.3-2.1l1.8-1.3l2.4-0.6l1.5-0.6l-0.7-1.6l-0.6-1.8l1-0.7l1-3.1l2.7-1.6l5.3-0.9
			l3.3-0.5l1.3,1.8l1.6,0.7l1.6-3l2.7-1.3l1.8,1.5l0.7,1l1.9-0.4l-0.1-3.1l2.7-1.5l1-0.7l1,1.5h4.3l0.7-1.9l-0.3-2.1l2.7-3.3
			l4.3-3.6l0.4-4.2l2.5-0.3l3.6-1.6l2.5-1.8l-0.3-1.8l-1.3-1.3l0.5-2l3.8-0.2l2.2-0.7l2.7,1.5l1.5,4l5.3,0.3l1.6,1.6l1.9,0.1
			l2.2-1.3l2.8,0.4l1.2,1.3l2.5-2.4l1.6-1.2h1.5l0.6,2.5l1.6,0.9l3.3,1.9l0.1,5.1l0.7,1.5l2.4,1.3l0.6,2.1l2.7,3.4l2.4,2.5
			L828.9,389.3z"/>
		<path id="MI_10_" class="st2" d="M699.3,190.1l1.7-1.9l2-0.7l4.9-3.6l2.1-0.5l0.4,0.4l-4.7,4.7l-3,1.8l-1.9,0.8L699.3,190.1
			L699.3,190.1z M778.4,219.8l0.6,2.3l3,0.1l1.2-1.1c0,0-0.1-1.3-0.4-1.5c-0.3-0.1-1.5-1.7-1.5-1.7l-2,0.2l-1.5,0.1l-0.3,1
			L778.4,219.8z M806,277.9l-3-7.6l-2.1-8.4l-2.2-3l-2.4-1.6l-1.5,1l-3.6,1.6l-1.8,4.6l-2.5,3.4l-1,0.6l-1.3-0.6
			c0,0-2.4-1.3-2.2-1.9c0.1-0.6,0.4-4.6,0.4-4.6l3.1-1.2l0.7-3.1l0.6-2.4l2.2-1.5l-0.3-9.2l-1.5-2.1l-1.2-0.7l-0.7-1.9l0.7-0.7
			l1.5,0.3l0.1-1.5l-2.2-2.1l-1.2-2.4h-2.4l-4.2-1.3l-5-3.1h-2.5l-0.6,0.6l-0.9-0.4l-2.8-2.1l-2.7,1.6l-2.7,2.1l0.3,3.3l0.9,0.3
			l1.9,0.4l0.4,0.7l-2.4,0.7l-2.4,0.3l-1.3,1.6l-0.3,1.9l0.3,1.5l0.3,5.1l-3.3,1.9l-0.6-0.1v-3.9l1.2-2.2l0.6-2.2l-0.7-0.7l-1.8,0.7
			l-0.9,3.9l-2.5,1l-1.6,1.8l-0.1,0.9l0.6,0.7l-0.6,2.4l-2.1,0.4v1l0.7,2.2l-1,5.7l-1.5,3.7l0.6,4.3l0.4,1l-0.7,2.2l-0.3,0.7
			l-0.3,2.5l3.3,5.5l2.7,6l1.3,4.5l-0.7,4.3l-0.9,5.5l-2.2,4.8l-0.3,2.5l-2.8,2.9l-0.7,0.7l4.3-0.1l20.2-2.1l5.6-0.6l0.3,1.1
			l7.1-1.1l9.4-1.5l4.8-0.4l-1.2-1.1l0.1-1.3l1.9-3.4l1.8-1.6l-0.2-4.7l1.5-1.5l1-0.3l0.2-3.3l1.4-2.8l1,0.6l0.1,0.6l0.7,0.1
			l1.8-0.9L806,277.9z M685.2,217.4l1.7-1l2.5-0.7l3.3-2.1v-0.9l0.6-0.6l5.5-0.9l2.2-1.8l4-1.9l0.1-1.2l1.8-2.7l1.6-0.7l1.2-1.6
			l2.1-2.1l4-2.2l4.3-0.4l1,1l-0.3,0.9l-3.4,0.9l-1.3,2.8l-2.1,0.7l-0.4,2.2l-2.2,3l-0.3,2.4l0.7,0.4l0.9-1l3.3-2.7l1.2,1.2h2.1
			l3,0.9l1.3,1l1.3,2.8l2.5,2.5l3.6-0.1l1.3-0.9l1.5,1.2l1.5,0.4l1.2-0.7h1l1.5-0.9l3.7-3.3l3.1-1l6.1-0.3l4.2-1.8l2.4-1.2l1.3,0.1
			v5.2l0.4,0.3l2.7,0.7l1.8-0.4l5.6-1.5l1-1l1.3,0.4v6.4l3,2.8l1.2,0.6l1.2,0.9l-1.2,0.3l-0.7-0.3l-3.4-0.4l-1.9,0.6l-2.1-0.1
			l-3,1.3h-1.6l-5.3-1.2l-4.7,0.1l-1.8,2.4l-6.4,0.6l-2.2,0.7l-1,2.8l-1.2,1l-0.4-0.1l-1.3-1.5l-4.2,2.2h-0.6l-1-1.5l-0.7,0.1
			l-1.8,4l-0.9,3.7l-3.4,7.5l-1.5-1.1l-1.3-1.3l-1.5-9.5l-3.4-1.1l-1.3-2.1l-11.5-2.5l-2.3-1.1l-7.6-2.1l-7.6-1.1L685.2,217.4
			L685.2,217.4z"/>
		<path id="MT_10_" class="st2" d="M493.5,227.7l0.7-10.7l2.1-23l1.3-13.9l1.2-13.1l-29.3-3l-26.9-3.3l-26.9-3.7l-29.7-4.9
			l-16.9-3.1l-30-6.4l-4.1,19.7l3.1,7l-1.3,4.2l1.7,4.2l2.9,1.3l3.4,9.5l3.4,3.4l0.4,1.1l3.1,1.1l0.4,1.9l-6.5,16.2v2.3l2.3,3h0.8
			l4.4-2.7l0.6-1.1l1.5,0.6l-0.2,4.9l2.5,11.6l2.7,2.3l0.8,0.6l1.7,2.1l-0.4,3.2l0.6,3.2l1,0.8l2.1-2.1h2.5l2.9,1.5l2.3-0.8h3.8
			l3.4,1.5l2.5-0.4l0.4-2.7l2.7-0.6l1.3,1.3l0.4,3l2.4,2.3l1.4-10.5l18.3,2.7l26,3.8l14.9,1.9l29.5,3l10.5,1.1l1.6-14.7L493.5,227.7
			L493.5,227.7z"/>
		<path id="NM_10_" class="st2" d="M425.8,512.2l-0.7-4.5l7.3,0.6l26.7,2.5l26.7,1.5l2.1-21.9l3.6-51.2l1.5-17.3l1.3,0l0-10.8
			l-30.3-2.2l-33.9-4.1l-31.6-3.8l-3.9,28.4l-6.4,49.1l-3.4,24.8l-1.9,12.3l14.2,1.8l1.2-9.2l15.3,2.4L425.8,512.2L425.8,512.2z"/>
		<path id="WI_10_" class="st2" d="M728.2,297.5l0.1-3.9l-1.5-4.2l-0.6-5.7l-1-2.2l0.9-2.8l0.7-2.7l1.3-2.4l-0.6-3.1l-0.6-3.3
			l0.4-1.6l1.8-2.2l0.1-2.5l-0.7-1.2l0.6-2.4l0.4-3l2.5-5.2l2.7-6.3l0.1-2.1l-0.3-0.9l-0.7,0.4l-3.9,5.8l-2.5,3.7l-1.8,1.6l-0.7,2.1
			l-1.3,0.7l-1,1.8l-1.3-0.3l-0.1-1.6l1.2-2.2l1.9-4.3l1.6-1.5l1-2.1l-1.5-0.8l-1.3-1.3l-1.5-9.5l-3.4-1.1l-1.3-2.1l-11.5-2.5
			l-2.3-1.1l-7.6-2.1l-7.6-1.1l-3.8-5l-0.5,1.2l-1-0.1l-0.6-1l-2.5-0.7l-1,0.1l-1.6,0.9l-0.9-0.6l0.6-1.8l1.8-2.8l1-1l-1.8-1.3
			l-1.9,0.7l-2.7,1.8l-6.8,3l-2.7,0.6l-2.7-0.4l-0.9-0.8l-1.9,2.6l-0.2,2.5v7.8l-1,1.5l-4.8,3.6l-2.1,5.5l0.4,0.2l2.3,1.9l0.6,3
			l-1.7,3v3.6l0.4,6.1l2.7,2.7h3.1l1.7,3l3.1,0.4l3.6,5.3l6.5,3.8l1.9,2.5l0.8,6.9l0.6,3.1l2.1,1.5l0.2,1.3l-1.9,3.2l0.2,3l2.3,3.6
			l2.3,1.1l2.7,0.4l1.1,2.3h8.4l24.5-1.5L728.2,297.5L728.2,297.5z"/>
		<path id="FL_10_" class="st2" d="M859,524.6l1.9,7.6l3.4,9l4.9,8.7l3.4,5.8l4.5,5.1l3.7,3.4l1.5,2.7l-1,1.2l-0.7,1.2l2.7,6.9
			l2.7,2.7l2.4,4.9l3.3,5.4l4.2,7.6l1.2,7l0.4,11l0.6,1.6l-0.3,3.1l-2.2,1.2l0.3,1.8l-0.6,1.8l0.3,2.2l0.4,1.8l-2.5,3l-2.8,1.3
			l-3.6,0.1l-1.3,1.5l-2.2,0.9l-1.2-0.4l-1-0.9l-0.3-2.7l-0.7-3.1l-3.1-4.8l-3.3-2.1l-3.6-0.3l-0.7,1.2l-2.8-4l-0.6-3.3l-2.4-3.7
			l-1.6-1l-1.5,1.9l-1.6-0.3l-1.9-4.6l-2.7-3.6l-2.7-4.9l-2.4-2.8l-3.3-3.4l1.9-2.2l3-5.1l-0.1-1.5l-4.2-0.9L845,583l0.3,0.6
			l2.4,0.9l-1.3,4.2l-0.7,0.4l-1.6-3.7l-1.2-4.5l-0.3-2.5l1.3-4.3v-8.8l-2.8-3.4l-1.2-2.8l-4.7-1.2l-1.8-0.6l-1.5-2.4l-3.1-1.5
			l-1-3.1l-2.5-0.9l-2.2-3.4l-3.9-1.3l-2.7-1.3H814l-3.7,0.7l-0.1,1.8l0.7,0.9l-0.4,1l-2.8-0.1l-3.4,3.3l-3.3,1.8h-3.6l-3,1.2
			l-0.3-2.5l-1.5-1.8l-2.7-1l-1.5-1.3l-7.4-3.6l-7-1.6l-4,0.6l-5.5,0.4l-5.5,1.9l-3.2,0.6l-0.2-7.4l-2.4-1.8l-1.6-1.6l0.3-2.8
			l9.4-1.2l23.5-2.7l6.2-0.6l5.6-0.1l2.4,3.6l1.3,1.3l7.3,0.1l9.9-0.6l19.8-1.2l5-0.6l4.2,0l0.1,2.7l2.4,0.7l0.3-4l-1.5-4.2l1-1.5
			l5.3,0.7L859,524.6L859,524.6z M870.3,647.5l2.2-0.6l1.2-0.2l1.3-2.2l2.2-1.5l1.2,0.4l1.6,0.3l0.4,1l-3.2,1.1l-3.9,1.3l-2.2,1.1
			L870.3,647.5z M882.7,642.9l1.1,1l2.5-1.9l4.9-3.9l3.4-3.6l2.3-6.1l0.9-1.6l0.1-3.1l-0.7,0.4l-0.9,2.6l-1.3,4.2l-3,4.8l-4,3.9
			l-3.1,1.8L882.7,642.9z"/>
		<path id="GA_10_" class="st2" d="M798.4,444.6l-4.5,0.7l-7.7,1l-7.9,0.8v2l0.1,1.9l0.6,3.1l3.1,7.3l2.2,9.1l1.3,5.7l1.5,4.5
			l1.3,6.4l1.9,5.8l2.4,3.1l0.4,3.1l1.8,0.7l0.1,1.9l-1.6,4.5l-0.4,3l-0.1,1.8l1.5,4l0.3,4.9l-0.7,2.2l0.6,0.7l1.3,0.7l0.6,3.1
			l2.4,3.6l1.3,1.3l7.3,0.1l9.9-0.6l19.8-1.2l5-0.6l4.2,0l0.1,2.7l2.4,0.7l0.3-4l-1.5-4.2l1-1.5l5.3,0.7l4.6,0.3l-0.7-5.8l2.1-9.2
			l1.3-3.9l-0.4-2.4l3.7-6.4l-0.5-1.5l-1.7,0.9l-2.4-1.2l-0.6-1.9l-1.2-3.3l-2.1-1.9l-2.4-0.6l-1.5-4.5l-2.5-5.5l-3.9-1.8l-1.9-1.8
			l-1.2-2.4l-1.9-1.8l-2.1-1.2l-2.1-2.7l-2.8-2.1l-4.2-1.6l-0.4-1.3l-2.2-2.7l-0.4-1.3l-3.1-4.8l-3.1,0.1l-3.7-2.2l-1.2-1.2
			l-0.3-1.6l0.7-1.8l2.1-0.9l-0.1-2.1l-1.6,0.5l-5.3,0.9l-6.4,0.7L798.4,444.6L798.4,444.6z"/>
		<path id="MA_10_" class="st2" d="M991.6,274.8l2-0.6l0.4-1.6l0.9,0.1l0.9,2.1l-1.2,0.4l-3.6,0.1L991.6,274.8L991.6,274.8z
			 M983,275.5l2.1-2.4h1.5l1.7,1.4l-2.2,0.9l-2,1L983,275.5z M951,255.2l16-3.9l2.1-0.6l1.9-3l3.4-1.5l2.7,4.1l-2.2,4.8l-0.3,1.3
			l1.8,2.4l1-0.7h1.6l2.1,2.4l3.6,5.5l3.3,0.4l2.1-0.9l1.6-1.6l-0.7-2.5l-1.9-1.5l-1.3,0.7l-0.9-1.2l0.4-0.4l1.9-0.1l1.6,0.7
			l1.8,2.2l0.9,2.7l0.3,2.2l-3.9,1.3l-3.6,1.8l-3.6,4.2l-1.8,1.3v-0.9l2.2-1.3l0.4-1.6l-0.7-2.8l-2.7,1.3l-0.7,1.3l0.4,2.1l-2.5,1.3
			l-2.5-4.2l-3.1-4l-1.5-1L965,267l-4.7,1l-20,4.4l-0.9-5.3l0.6-9.8l4.7-0.8L951,255.2"/>
		<path id="VT_10_" class="st2" d="M940.2,257.5l-0.7-5.2l-2.8-10.1l-0.6-0.3l-2.7-1.2l0.7-2.7l-0.7-1.9l-2.4-4.2l0.9-3.6l-0.7-4.8
			l-2.2-6l-0.7-4.5l24.9-6.6l0.3,5.4l1.8,2.5v3.7l-3.4,3.7l-2.4,1v1l1,1.6v7.9l-0.7,8.5l-0.1,4.5l0.9,1.2l-0.1,4.2l-0.4,1.6l1.3,1.9
			l-6.4,1.3L940.2,257.5z"/>
		<path id="PA_10_" class="st2" d="M921.6,323.8l1-0.6l2.1-1.2l1.3-2.5l1.5-2.1l3-2.8v-0.7l-2.2-1.5l-3.3-2.2l-0.9-2.4l-2.5-0.3
			l-0.1-1l-0.7-2.5l2.1-1l0.1-2.2l-1.2-1.2l0.1-1.5l1.8-2.8v-2.8l2.2-2.2l-1.3-0.9l-2.4-0.1l-2.1-1.8l-2.2-4.9l-2.8-0.9l-2.1-2
			l-17.1,3.7l-39.5,8.1l-8.2,1.3l-0.5-6.5l-5,5.2l-1.2,0.4l-3.9,2.8l2.7,17.7l1.5,9.9l3.3,17.8l4.3-0.7l11-1.4l34.8-7.1L909,328
			l7.6-1.5l1.2-1.2l1.9-1.5L921.6,323.8L921.6,323.8z"/>
		<path id="VA_10_" class="st2" d="M829,388.6l1.8,3.3l1.2,1.2l2.7,0.7l2.4-0.6l2.2-2.1c0,0,1.6,1.3,2.2,1.2c0.6-0.1,4-0.9,4-0.9
			l1.6-4.3l2.4,0.9l3-2.2l1.3,0.3l1.9-1.8l0.1-2.5l-0.7-1.2l4.6-10l1.9-6.1l0.3-4l1.6-0.1l1.5,2.5l1.2,0.7h2.4l1-5.1l0.3-2.8
			l3.1-0.3l0.4-2.1l2.8-2.2l0.6-1.5l1.5-2.5l0.4-1.9l0.1-4.9l4.2,1.6l5.2,2.8l0.7-4.7l3.9,1.9v2.7l5,1.2l1.8,1.2l0.9-1.8l2.1,1.5
			l-1.3,3l-0.3,2.5l-1.6,2.4v1.9l0.6,1.6l4.7,1.2l1.7,1.4l4.7,0.3l2.4,2.1l3,0.6l1.2,1.2l-0.4,4.2l0.9,0.9l0.1,2.1l1.2,1.9l-0.1,1.6
			l-3-1v0.9l1.8,1.5v1l1.3,1l1.2,1.5l0.1,2.1l-2.1,1.3l0.3,0.4l2.4-0.4l3-0.6l1-0.1l3.7,6.5l-4.5,1.6l-10.5,2.7l-17.6,3.5l-18.9,3.5
			l-15.7,2.4l-14.5,1.8l-6.6,1.2l-4.1-0.6l-1.9,0l-2.2,1.8l-7.3,0.1l-11,1.8l-9.2,0.9l2.5-1.3l5.2-3.1l3.6-1.9V402l1.6-1.6l4.2-4.9
			l3.9-3.3L829,388.6L829,388.6z"/>
		<path id="WA_10_" class="st2" d="M251.1,120.3l4,1.3l8.9,2.5l7.9,1.8l18.4,5.2l21.1,5.2l14.8,3.4l-0.9,3.6l-3.5,12.4l-4.1,19.2
			l-3.4,15.2l-0.2,8.9l-12.8-3.1l-13.9-3.3l-14.2,0.1l-0.4-1.3l-5,1.9l-4.1-0.5l-2.2-1.5l-1.2,0.6l-4.3-0.2l-1.6-1.3l-4.8-1.9
			l-0.7,0.1l-4-1.4l-1.8,1.7l-5.7-0.3l-5.5-3.8l0.6-0.7l0.2-7.2l-2.1-3.6L227,173l-0.6-2.3l-2.2-0.4l-1.8-1.4l-1.6,0.9l-2.1-2.7
			l0.3-2.7l2.5-0.3l1.5-3.7l-2.4-1l0.1-3.4l4-0.6l-2.5-2.5l-1.3-6.6l0.6-2.7v-7.3l-1.6-3l2.1-8.6l1.9,0.4l2.2,2.7l2.5,2.4l3,1.8
			l4.2,1.9l2.8,0.6l2.7,1.3l3.1,0.9l2.1-0.1v-2.2l1.2-1l1.9-1.2l0.3,1l0.3,1.6l-2.1,0.4l-0.3,1.9l1.6,1.3l1,2.2l0.6,1.8l1.3-0.1
			l0.1-1.2l-0.9-1.2l-0.4-3l0.7-1.6l-0.6-1.3v-2.1l1.6-3.3l-1-2.4l-2.2-4.5l0.3-0.7L251.1,120.3z M242.5,125.8l1.9-0.1l0.4,1.3
			l1.4-1.5h2.1l0.7,1.4l-1.4,1.6l0.6,0.7l-0.7,1.9l-1.3,0.4c0,0-0.8,0.1-0.8-0.2c0-0.3,1.3-2.4,1.3-2.4l-1.6-0.5l-0.3,1.3l-0.7,0.6
			l-1.4-2.1L242.5,125.8L242.5,125.8z"/>
		<path id="CO_10_" class="st2" d="M510.1,412.2l3.8-60.7l1.5-20.7l-30.6-2.5l-22.5-1.9l-34.2-3.8l-19-2.3l-2.4,20.5l-2.9,20.7
			l-3.4,25.8l-1.4,10.2l-0.5,3.6l31.6,3.8l33.9,4.1l30.1,2l6.1,0.6l10.5,0.5"/>
		<path id="OR_10_" class="st2" d="M294.6,277.9l4.1-16.7l4-16.3l1.3-3.9l2.3-5.5l-1.2-2.1l-2.3,0.1l-0.7-0.9l0.4-1.1l0.3-2.8
			l4.1-5.1l1.7-0.4l1-1.1l0.5-3l0.8-0.6l3.6-5.4l3.6-4l0.2-3.5l-3.1-2.4l-1-3.9l-12.9-3.3l-13.9-3.3l-14.2,0.1l-0.4-1.3l-5,1.9
			l-4.1-0.5l-2.2-1.5l-1.2,0.6l-4.3-0.2l-1.6-1.3l-4.8-1.9l-0.7,0.1l-4-1.4l-1.8,1.7l-5.7-0.3l-5.5-3.8l0.6-0.7l0.2-7.2l-2.1-3.6
			L227,173l-0.6-2.3l-2.2-0.4l-5.3,1.9l-2.1,6l-3,9.2l-3,6l-4.6,13l-5.9,12.5l-7.4,11.6l-1.8,2.7l-0.7,7.9l-1.2,5.5l2,4.1l6.5,2.2
			l10.5,2.7l6.9,1.9l11.5,3.8l12.4,3.2l12.4,3.6 M294.4,278.2L251.3,268l30.9,7.5l12.6,2.7"/>
		<path class="st2" d="M933.5,349.2l-5.6,1.2l-4.6,0.1l-1.5-5.8l-1.9-8.9l-2.1-5.2l-1.2-4.1L909,328l-13.7,2.6l-34.4,7l1,4.6
			l0.9,5.2l0.3-0.3l1.9-2.2l2.1-2.8l2.2-0.1l1.3-1.3l1.6-2.4l1.2,0.6l2.7-0.3l2.4-1.9l1.8-1.3l1.7-0.4l1.5,1l2.7,1.3l1.8,1.6
			l1.1,1.4l3.8,1.6v2.7l5,1.2l1.8,1.2l0.9-1.8l2.1,1.5l-1.3,3l-0.3,2.5l-1.6,2.4v1.9l0.6,1.6l4.6,1.2l4-0.1l2.8,0.9l1.9,0.3l0.9-1.9
			l-1.3-1.9v-1.6l-2.2-1.9l-1.9-5.1l1.2-4.9l-0.1-1.9l-1.2-1.2c0,0,1.3-1.5,1.3-2.1s0.4-1.9,0.4-1.9l1.8-1.2l1.8-1.5l0.4,0.9
			l-1.3,1.5l-1.2,3.4l0.3,1l1.6,0.3l0.4,5.1l-1.9,0.9l0.3,3.3l0.4-0.1l1-1.8l1.5,1.6l-1.5,1.2l-0.3,3.1l2.4,3.1l3.6,0.4l1.5-0.7
			l3,4.8l1.6,0.4v3.3l-2.1,4.5l-0.4,6.4l1.3,3.1l1.3,0.1l1.8-3.9l0.7-3.3l0.1-6.6l2.8-4.5l1.9-6.4L933.5,349.2L933.5,349.2
			L933.5,349.2z"/>
	</g>
	<g>
		<path id="AL_11_" class="st2" d="M739.8,545.2l-1.5-14l-2.5-17.3l0.1-13l0.7-28.6l-0.1-15.4l0.2-5.9l7.1-0.3l25.5-2.4l9.3-0.8
			l-0.1,2l0.2,1.9l0.6,3.1l3.1,7.3l2.2,9.1l1.3,5.7l1.5,4.5l1.3,6.4l1.9,5.8l2.4,3.1l0.4,3.1l1.8,0.7l0.1,1.9l-1.6,4.5l-0.4,3
			l-0.1,1.8l1.5,4l0.3,4.9l-0.7,2.2l0.6,0.7l1.3,0.7l0.7,3.3h-5.8L785,528l-23.5,2.7l-9.4,1.2l-0.3,2.8l1.6,1.6l2.4,1.8l0.5,7.3
			l-6,2.4l-2.5-0.3l2.5-1.8v-0.9l-2.8-5.5l-2.1-0.6l-1.3,4l-1.2,2.5l-0.6-0.1L739.8,545.2L739.8,545.2L739.8,545.2L739.8,545.2
			L739.8,545.2z"/>
		<path id="IL_11_" class="st2" d="M733.3,392.8v-3.4l0.4-4.2l2.1-2.7l1.6-3.6l2.4-3.9l-0.4-5.4l-1.6-2.5l-0.3-3l0.7-5.1l-0.4-6.4
			l-1.2-14.8l-1.2-14.2l-0.7-10.7l-1.2-0.7l-0.7-2.4l-1.2-3.4l-1.5-1.6l-1.3-2.4l-0.2-5.1l-9.1,1.2l-25,1.6l-8-0.4l0.2,2.2l2.1,0.6
			l0.8,1.1l0.4,1.7l3.6,3.2l0.6,2.1l-0.6,3.2l-1.7,3.4l-0.6,2.3l-2.1,1.7l-1.7,0.6l-4.8,1.3l-0.6,1.7l-0.6,1.9l0.6,1.3l1.7,1.5
			l-0.2,3.8l-1.7,1.5l-0.6,1.5v2.5l-1.7,0.4l-1.5,1.1l-0.2,1.3l0.2,1.9l-1.6,1.2l-0.9,2.6l0.4,3.4l2.1,6.8l6.7,7l5,3.4l-0.2,4
			l0.8,1.3l5.9,0.4l2.5,1.3l-0.6,3.4l-2.1,5.5l-0.6,3l2.1,3.6l5.9,4.9l4.2,0.6l1.9,4.6l1.9,3l-0.8,2.7l1.5,3.8l1.7,1.9l2.7-0.3
			l0.5-1.9l2.1-1.6l1.9-0.6l2.5,1.2l3.3,1.2l1-0.3l0.1-2.1l-1.2-2.2l0.3-2.1l1.8-1.3l2.4-0.6l1.5-0.6l-0.7-1.6l-0.6-1.8l1-0.7
			L733.3,392.8L733.3,392.8z"/>
	</g>
</g>
</svg>
