<?xml version="1.0" encoding="utf-8"?>
<!-- Generator: Adobe Illustrator 19.1.0, SVG Export Plug-In . SVG Version: 6.00 Build 0)  -->
<svg version="1.1" xmlns="http://www.w3.org/2000/svg" xmlns:xlink="http://www.w3.org/1999/xlink" x="0px" y="0px"
	 viewBox="0 0 432.133 432.906" enable-background="new 0 0 432.133 432.906" xml:space="preserve">
<g id="bottom">
	<g>
		<path fill="#90A460" d="M216.304,29.505V6.725c-0.347,0-3.312,0.026-3.66,0.032l0.398,22.789
			C214.128,29.528,215.214,29.505,216.304,29.505z"/>
		<path fill="#A8B881" d="M213.042,29.546l-0.398-22.789c-1.737,0.03-1.923,0.035-3.659,0.096l0.795,22.777
			C210.866,29.593,211.953,29.565,213.042,29.546z"/>
		<path fill="#90A460" d="M209.781,29.631l-0.795-22.777c-14.468,0.505-25.748,1.99-39.854,5.247l5.116,22.158
			C185.724,31.619,197.606,30.049,209.781,29.631z"/>
		<path fill="#9BAE70" d="M174.248,34.259L169.132,12.1c-21.103,4.872-38.922,11.891-57.678,22.72l11.379,19.708
			C138.652,45.375,155.935,38.47,174.248,34.259z"/>
		<path fill="#A8B881" d="M122.832,54.529L111.454,34.82C72.538,57.288,45.241,87.077,26.25,127.804l20.624,9.617
			C63.127,102.623,89.774,73.658,122.832,54.529z"/>
		<path fill="#9BAE70" d="M29.39,216.426c0-28.237,6.273-55.006,17.484-79.006l-20.624-9.617
			c-25.256,54.161-26.764,111.77-4.378,167.179l21.094-8.522C34.218,264.829,29.39,241.193,29.39,216.426z"/>
		
			<rect x="396.506" y="267.759" transform="matrix(-0.9659 -0.2588 0.2588 -0.9659 732.5554 631.9688)" fill="#849B50" width="22.74" height="0.013"/>
		<path fill="#849B50" d="M216.312,403.347c-78.467,0-145.63-48.355-173.345-116.887l-21.094,8.522
			c25.467,63.033,74.49,106.405,140.157,124c111.865,29.974,226.847-36.408,256.827-148.269l-21.965-5.885
			C375.564,344.597,302.804,403.347,216.312,403.347z"/>
		<path fill="#52A58F" d="M396.895,264.816l21.965,5.885c0.51-1.901,0.44-1.633,0.917-3.543l-22.066-5.502
			C397.448,262.714,397.176,263.766,396.895,264.816z"/>
		<path fill="#379486" d="M397.71,261.657l22.066,5.502c0.896-3.596,1.669-7.081,2.376-10.719l-22.334-4.341
			C399.197,255.315,398.495,258.502,397.71,261.657z"/>
		<path fill="#52A58F" d="M399.819,252.098l22.334,4.341c0.707-3.638,1.296-7.158,1.812-10.828l-22.543-3.168
			C400.97,245.689,400.435,248.908,399.819,252.098z"/>
		<path fill="#379486" d="M401.422,242.444l22.543,3.168c0.548-3.899,0.9-6.985,1.243-10.908l-22.689-1.985
			C402.236,235.985,401.87,239.227,401.422,242.444z"/>
		<path fill="#52A58F" d="M403.233,216.427c0,5.49-0.251,10.921-0.715,16.292l22.689,1.985c0.474-5.422,0.798-12.833,0.798-18.276
			H403.233z"/>
		<path fill="#379486" d="M403.233,216.426C403.233,216.427,403.233,216.427,403.233,216.426l22.773,0.001
			c0-6.949-0.192-11.354-0.798-18.277l-22.689,1.985C402.982,205.505,403.233,210.936,403.233,216.426z"/>
		<path fill="#2A8175" d="M402.519,200.136l22.689-1.985c-1.261-14.42-3.335-25.607-7.324-39.521l-21.848,6.265
			C399.281,176.236,401.473,188.022,402.519,200.136z"/>
		
			<rect x="395.594" y="161.758" transform="matrix(-0.9613 0.2756 -0.2756 -0.9613 842.7397 205.0759)" fill="#2A8175" width="22.729" height="0.004"/>
		<path fill="#2F8DA7" d="M396.034,164.89l21.848-6.265c-0.096-0.334-0.938-3.177-1.04-3.509l-21.739,6.646
			C395.421,162.802,395.734,163.843,396.034,164.89z"/>
		<path fill="#808080" d="M416.81,155.007C416.794,154.957,416.79,154.944,416.81,155.007L416.81,155.007z"/>
		<path fill="#808080" d="M416.876,155.225C416.892,155.276,416.895,155.289,416.876,155.225L416.876,155.225z"/>
		<path fill="#808080" d="M416.843,155.116c-0.017-0.056-0.025-0.084-0.033-0.109C416.819,155.037,416.83,155.074,416.843,155.116z"
			/>
		<path fill="#808080" d="M416.843,155.116c0.017,0.055,0.025,0.083,0.033,0.109C416.867,155.195,416.855,155.158,416.843,155.116z"
			/>
		<path fill="#1E7F9B" d="M395.103,161.762l21.739-6.646c-0.609-1.994-1.583-4.991-2.262-6.961l-21.493,7.4
			C393.795,157.609,394.467,159.678,395.103,161.762z"/>
		<path fill="#225577" d="M393.088,155.555l21.493-7.4c-0.829-2.409-1.59-4.5-2.503-6.878l-21.225,8.147
			C391.631,151.452,392.378,153.494,393.088,155.555z"/>
		<path fill="#00708F" d="M390.852,149.424l21.225-8.147c-1.079-2.811-1.565-4.015-2.742-6.787l-20.921,8.881
			C389.263,145.37,390.071,147.39,390.852,149.424z"/>
		<path fill="#1E7F9B" d="M388.414,143.371l20.921-8.881c-2.353-5.543-5.048-11.194-7.876-16.512l-20.086,10.679
			C383.924,133.444,386.279,138.348,388.414,143.371z"/>
		<path fill="#2F8DA7" d="M381.374,128.658l20.086-10.679c-3.045-5.727-5.753-10.324-9.285-15.763l-19.09,12.397
			C376.045,119.161,378.811,123.847,381.374,128.658z"/>
		<path fill="#1E7F9B" d="M373.084,114.613l19.09-12.397c-4.1-6.313-8.164-11.908-12.902-17.758L361.57,98.794
			C365.674,103.855,369.519,109.134,373.084,114.613z"/>
		<path fill="#00708F" d="M361.57,98.794l17.703-14.336c-6.049-7.471-10.383-12.2-17.298-18.877l-15.827,16.39
			C351.622,87.258,356.772,92.876,361.57,98.794z"/>
		<path fill="#2F8DA7" d="M346.148,81.97l15.827-16.39c-10.414-10.057-22.269-19.319-34.546-26.99l-12.063,19.305
			C326.462,64.843,336.777,72.919,346.148,81.97z"/>
		<path fill="#1E7F9B" d="M315.366,57.895l12.063-19.305c-17.679-11.047-33.284-17.995-53.323-23.741l-6.266,21.853
			C284.793,41.553,300.754,48.745,315.366,57.895z"/>
		<path fill="#225577" d="M267.84,36.701l6.266-21.853c-20.467-5.869-36.465-8.119-57.747-8.123v22.779
			C234.216,29.51,251.485,32.021,267.84,36.701z"/>
		<path fill="#225577" d="M216.312,29.505c0.016,0,0.031,0,0.047,0V6.726c-0.018,0-0.036,0-0.055,0v22.779
			C216.307,29.505,216.309,29.505,216.312,29.505z"/>
		<path fill="#90A460" d="M216.269,103.005V38.159c-0.289,0-2.694,0.021-3.075,0.027l1.132,64.844
			C214.972,103.019,215.619,103.006,216.269,103.005z"/>
		<path fill="#90A460" d="M214.325,103.03l-1.132-64.844c-0.009,0-0.029,0-0.036,0c-1.464,0.025-1.635,0.03-3.075,0.08l2.263,64.816
			C213.004,103.06,213.664,103.042,214.325,103.03z"/>
		<path fill="#90A460" d="M212.346,103.082l-2.263-64.816c-0.013,0-0.022,0.001-0.036,0.001c-12.287,0.429-21.871,1.69-33.846,4.453
			l14.586,63.179C197.749,104.295,204.959,103.34,212.346,103.082z"/>
		<path fill="#90A460" d="M190.787,105.899L176.201,42.72c-0.012,0.002-0.023,0.005-0.035,0.008
			c-17.929,4.139-33.071,10.102-49.005,19.298l32.438,56.185C169.195,112.654,179.678,108.459,190.787,105.899z"/>
		<path fill="#90A460" d="M159.6,118.211l-32.438-56.185c-0.01,0.005-0.019,0.01-0.028,0.016
			C94.055,81.14,70.851,106.46,54.707,141.073l58.832,27.434C123.394,147.397,139.552,129.823,159.6,118.211z"/>
		<path fill="#90A460" d="M102.942,216.421c0-17.125,3.802-33.358,10.597-47.914l-58.832-27.434
			c-0.003,0.006-0.005,0.011-0.008,0.017c-21.471,46.044-22.753,95.019-3.721,142.123c0.001,0.003,0.002,0.006,0.004,0.009
			l60.193-24.319C105.87,245.781,102.942,231.444,102.942,216.421z"/>
		<path fill="#90A460" d="M216.359,329.838c-47.615,0-88.371-29.346-105.185-70.936l-60.193,24.319
			c21.651,53.582,63.325,90.449,119.147,105.407c95.102,25.482,192.855-30.955,218.338-126.057l-62.544-16.759
			C312.973,294.201,268.831,329.838,216.359,329.838z"/>
		
			<rect x="324.819" y="254.192" transform="matrix(-0.9659 -0.2588 0.2588 -0.9659 636.4271 592.1709)" fill="#90A460" width="64.751" height="0"/>
		
			<rect x="324.82" y="254.179" transform="matrix(-0.9659 -0.2588 0.2588 -0.9659 636.4321 592.1588)" fill="#2A8175" width="64.751" height="0.013"/>
		<path fill="#2A8175" d="M325.925,245.8l62.544,16.759c0.429-1.601,0.372-1.38,0.776-3c0.001-0.004,0.002-0.008,0.003-0.012
			l-62.828-15.665C326.261,244.524,326.096,245.162,325.925,245.8z"/>
		<path fill="#2A8175" d="M326.421,243.882l62.828,15.665c0.761-3.053,1.417-6.011,2.017-9.1c0.001-0.003,0.001-0.007,0.002-0.01
			l-63.566-12.356C327.323,240.033,326.897,241.967,326.421,243.882z"/>
		<path fill="#2A8175" d="M327.701,238.08l63.566,12.356c0.6-3.089,1.101-6.078,1.539-9.195c0-0.003,0.001-0.006,0.001-0.009
			l-64.132-9.013C328.401,234.19,328.076,236.144,327.701,238.08z"/>
		<path fill="#2A8175" d="M328.675,232.22l64.132,9.013c0.465-3.311,0.764-5.933,1.055-9.265c0-0.002,0-0.004,0-0.007l-64.521-5.645
			C329.17,228.299,328.947,230.267,328.675,232.22z"/>
		<path fill="#2A8175" d="M329.341,226.317l64.521,5.645c0.403-4.609,0.678-10.905,0.678-15.53c0-0.001,0-0.002,0-0.004h-64.765
			C329.775,219.76,329.623,223.056,329.341,226.317z"/>
		<path fill="#2A8175" d="M329.776,216.421c0,0.002,0,0.004,0,0.006h64.765c0-5.905-0.164-9.65-0.678-15.533c0,0,0-0.001,0-0.001
			l-64.52,5.645C329.624,209.795,329.776,213.09,329.776,216.421z"/>
		
			<rect x="324.152" y="176.22" transform="matrix(-0.9613 0.2756 -0.2756 -0.9613 747.8051 247.3456)" fill="#2A8175" width="64.739" height="0.004"/>
		<path fill="#2A8175" d="M325.406,185.146c1.971,6.884,3.301,14.038,3.936,21.391l64.52-5.645
			c-1.072-12.257-2.834-21.766-6.225-33.591L325.406,185.146z"/>
		
			<rect x="324.15" y="176.215" transform="matrix(-0.9613 0.2756 -0.2756 -0.9613 747.8011 247.3373)" fill="#2A8175" width="64.739" height="0.006"/>
		<path fill="#225577" d="M216.304,103.005V38.159c-0.012,0-0.023,0-0.036,0v64.846C216.28,103.005,216.292,103.005,216.304,103.005
			z"/>
		<path fill="#225577" d="M325.403,185.137l62.231-17.845c-0.081-0.283-0.79-2.678-0.882-2.977l-61.913,18.929
			C325.032,183.873,325.222,184.503,325.403,185.137z"/>
		<path fill="#225577" d="M324.84,183.244l61.913-18.929c0-0.001-0.002-0.006-0.002-0.007c-0.518-1.692-1.344-4.235-1.92-5.91
			l-61.214,21.078C324.046,180.723,324.454,181.979,324.84,183.244z"/>
		<path fill="#225577" d="M323.616,179.476l61.214-21.078c-0.001-0.002-0.002-0.005-0.003-0.007c-0.704-2.045-1.35-3.82-2.125-5.839
			l-60.444,23.202C322.732,176.986,323.186,178.225,323.616,179.476z"/>
		<path fill="#225577" d="M322.259,175.755l60.444-23.202c-0.001-0.003-0.002-0.006-0.003-0.009c-0.916-2.386-1.33-3.411-2.327-5.76
			l-59.595,25.296C321.294,173.294,321.785,174.52,322.259,175.755z"/>
		<path fill="#225577" d="M320.778,172.08l59.595-25.296c-0.001-0.003-0.003-0.006-0.004-0.009
			c-1.999-4.709-4.288-9.508-6.689-14.025l-57.176,30.4C318.052,166.055,319.482,169.032,320.778,172.08z"/>
		<path fill="#225577" d="M316.504,163.15l57.176-30.4c-0.002-0.004-0.004-0.008-0.006-0.012c-2.586-4.864-4.886-8.768-7.885-13.386
			l-54.319,35.274C313.268,157.386,314.947,160.23,316.504,163.15z"/>
		<path fill="#225577" d="M311.47,154.625l54.319-35.274c-0.003-0.005-0.006-0.009-0.009-0.014
			c-3.482-5.362-6.934-10.114-10.956-15.082l-50.345,40.769C306.971,148.096,309.305,151.3,311.47,154.625z"/>
		<path fill="#225577" d="M304.479,145.025l50.345-40.769c-0.004-0.005-0.008-0.01-0.012-0.015
			c-5.138-6.345-8.821-10.364-14.689-16.032l-45.008,46.607C298.439,138.024,301.566,141.434,304.479,145.025z"/>
		<path fill="#225577" d="M295.115,134.816l45.008-46.607c-0.005-0.005-0.01-0.01-0.016-0.016
			c-8.846-8.543-18.916-16.412-29.345-22.93l-34.334,54.946C283.164,124.424,289.426,129.324,295.115,134.816z"/>
		<path fill="#225577" d="M276.428,120.209l34.334-54.946c-0.008-0.005-0.016-0.011-0.024-0.016
			c-15.02-9.385-28.279-15.29-45.299-20.173l-17.86,62.284C257.87,110.298,267.558,114.66,276.428,120.209z"/>
		<path fill="#225577" d="M216.359,103.004V38.159c-0.018,0-0.036,0-0.055,0v64.846
			C216.323,103.005,216.341,103.004,216.359,103.004z"/>
		<path fill="#225577" d="M247.579,107.358l17.86-62.284c-0.011-0.003-0.021-0.006-0.032-0.009
			c-17.385-4.985-30.978-6.899-49.048-6.905v64.845C227.187,103.004,237.661,104.524,247.579,107.358z"/>
		<path fill="#225577" d="M386.751,164.309C386.679,164.074,386.715,164.192,386.751,164.309L386.751,164.309z"/>
		<path fill="#225577" d="M386.753,164.316L386.753,164.316C386.788,164.429,386.82,164.533,386.753,164.316z"/>
		<polygon fill="#225577" points="386.753,164.316 386.751,164.309 386.753,164.316 		"/>
	</g>
	<g>
	</g>
</g>
<g id="Waste_Diverted">
</g>
<g id="Jobs" display="none">
</g>
<g id="consumer_ed_hover" display="none">
</g>
<g id="Supply_click" display="none">
</g>
<g id="Supply_hover" display="none">
</g>
<g id="Key_Solutions" display="none">
</g>
</svg>
