<?xml version="1.0" encoding="utf-8"?>
<!-- Generator: Adobe Illustrator 19.1.0, SVG Export Plug-In . SVG Version: 6.00 Build 0)  -->
<svg version="1.1" xmlns="http://www.w3.org/2000/svg" xmlns:xlink="http://www.w3.org/1999/xlink" x="0px" y="0px"
	 viewBox="0 0 120 120" enable-background="new 0 0 120 120" xml:space="preserve">
<g id="bottom">
	<g>
		<g>
			<polygon fill="#751E32" points="26.417,40.894 59.975,24.733 93.579,40.894 101.626,76.236 113.876,76.236 103.948,32.626 
				59.971,11.477 16.052,32.631 6.124,76.108 6.124,76.236 18.352,76.236 			"/>
			<polygon fill="#922A46" points="38.38,74.064 41.735,74.064 59.989,74.064 59.984,66.167 41.73,66.167 38.376,66.167 
				38.376,62.812 38.376,51.838 38.376,48.483 41.73,48.483 59.98,48.483 59.975,24.733 26.417,40.894 18.352,76.236 38.38,76.236 
							"/>
			<rect x="41.73" y="51.838" fill="#922A46" width="16.589" height="10.974"/>
			<polygon fill="#922A46" points="41.735,79.613 41.735,106.325 57.415,92.971 			"/>
			<polygon fill="#922A46" points="44.322,108.523 59.997,108.523 59.993,95.178 			"/>
			<polygon fill="#922A46" points="38.38,76.236 18.352,76.236 18.074,77.459 18.047,108.523 38.38,108.523 38.38,77.415 			"/>
			<polygon fill="#922A46" points="44.322,77.415 59.993,90.759 59.989,77.415 			"/>
			<polygon fill="#751E32" points="59.975,24.733 59.98,48.483 78.264,48.483 81.615,48.483 81.615,51.838 81.615,62.812 
				81.615,66.167 78.264,66.167 59.984,66.167 59.989,74.064 78.268,74.064 81.619,74.064 81.619,76.236 101.626,76.236 
				93.579,40.894 			"/>
			<rect x="61.675" y="51.838" fill="#751E32" width="16.589" height="10.974"/>
			<polygon fill="#751E32" points="59.993,95.178 59.997,108.523 75.682,108.523 60.002,95.169 			"/>
			<polygon fill="#751E32" points="78.268,106.325 78.268,79.613 62.588,92.971 			"/>
			<polygon fill="#751E32" points="59.993,90.759 60.002,90.768 75.682,77.415 59.989,77.415 			"/>
			<polygon fill="#751E32" points="81.619,77.415 81.619,108.523 101.953,108.523 101.953,77.68 101.626,76.236 81.619,76.236 			
				"/>
			<polygon fill="#641326" points="59.975,24.733 93.579,40.894 101.626,76.236 113.876,76.236 103.948,32.626 59.971,11.477 			"/>
		</g>
	</g>
</g>
<g id="Waste_Diverted">
</g>
<g id="Jobs">
</g>
<g id="consumer_ed_hover">
</g>
<g id="Supply_click" display="none">
</g>
<g id="Supply_hover" display="none">
</g>
<g id="Key_Solutions" display="none">
</g>
</svg>
