<?xml version="1.0" encoding="utf-8"?>
<!-- Generator: Adobe Illustrator 19.1.0, SVG Export Plug-In . SVG Version: 6.00 Build 0)  -->
<svg version="1.1" xmlns="http://www.w3.org/2000/svg" xmlns:xlink="http://www.w3.org/1999/xlink" x="0px" y="0px"
	 viewBox="0 0 120 120" enable-background="new 0 0 120 120" xml:space="preserve">
<g id="bottom">
	<g>
		<g>
			<path fill="#B4353B" d="M12.594,107.09h94.812l-6.274-94.181H88.718l-4.406,48.65c-0.03,0.357-23.402-8.357-23.402-8.357v8.88
				c0,0.38-24.158-8.857-24.158-8.857v8.857c0,0.38-24.158-8.857-24.158-8.857V107.09z"/>
			<path fill="#A62C31" d="M20.647,94.767h11.218V75.53H20.647V94.767z"/>
			<path fill="#A62C31" d="M42.169,94.767h11.218V75.53H42.169V94.767z"/>
			<path fill="#A62C31" d="M63.692,94.767h11.222V75.53H63.692V94.767z"/>
			<path fill="#A62C31" d="M85.214,94.767h11.222V75.53H85.214V94.767z"/>
		</g>
		<polygon fill="#A62C31" points="94.99,12.91 94.99,65.373 104.861,68.898 101.131,12.91 		"/>
	</g>
</g>
<g id="Waste_Diverted">
</g>
<g id="Jobs">
</g>
<g id="consumer_ed_hover">
</g>
<g id="Supply_click" display="none">
</g>
<g id="Supply_hover" display="none">
</g>
<g id="Key_Solutions" display="none">
</g>
</svg>
