<svg xmlns="http://www.w3.org/2000/svg" viewBox="0 0 300 300"><defs><style>.cls-1{fill:#00d1c3;}.cls-2{fill:#fff;}</style></defs><g id="Layer_2" data-name="Layer 2"><g id="Layer_1-2" data-name="Layer 1"><g id="Group_832" data-name="Group 832"><g id="Ellipse_213" data-name="Ellipse 213"><circle class="cls-1" cx="150" cy="150" r="150"/></g></g><g id="Group_2003" data-name="Group 2003"><g id="Path_1214" data-name="Path 1214"><path class="cls-2" d="M163.87,200.6H73.42v-5a45.3,45.3,0,0,1,45.15-45.15h.07a45.27,45.27,0,0,1,45.22,45.15Zm-80.07-10h69.7a35.27,35.27,0,0,0-34.85-30.16h-.06A35.29,35.29,0,0,0,83.8,190.6Z"/></g><g id="Group_820" data-name="Group 820"><g id="Group_819" data-name="Group 819"><g id="Ellipse_215" data-name="Ellipse 215"><path class="cls-2" d="M118.65,148.24a28,28,0,1,1,28-28A28,28,0,0,1,118.65,148.24Zm0-45.93a18,18,0,1,0,18,18A18,18,0,0,0,118.65,102.31Z"/></g></g></g><g id="Path_1215" data-name="Path 1215"><path class="cls-2" d="M225.09,200.6H134.65v-5a45.22,45.22,0,0,1,90.44,0ZM145,190.6h69.73a35.22,35.22,0,0,0-69.73,0Z"/></g><g id="Group_822" data-name="Group 822"><g id="Group_821" data-name="Group 821"><g id="Ellipse_216" data-name="Ellipse 216"><path class="cls-2" d="M179.87,148.24a28,28,0,1,1,28-28A28,28,0,0,1,179.87,148.24Zm0-45.93a18,18,0,1,0,18,18A18,18,0,0,0,179.87,102.31Z"/></g></g></g></g></g></g></svg>