<?xml version="1.0" encoding="utf-8"?>
<!-- Generator: Adobe Illustrator 19.1.0, SVG Export Plug-In . SVG Version: 6.00 Build 0)  -->
<svg version="1.1" xmlns="http://www.w3.org/2000/svg" xmlns:xlink="http://www.w3.org/1999/xlink" x="0px" y="0px"
	 viewBox="0 0 120 120" enable-background="new 0 0 120 120" xml:space="preserve">
<g id="bottom">
	<g>
		<g>
			<polygon fill="#E9AE6C" points="64.393,21.865 23.278,55.815 23.278,107.276 105.505,107.276 105.505,55.815 			"/>
			<g>
				<g>
					<rect x="28.425" y="62.864" fill="#F0ECE3" width="15.522" height="14.011"/>
					<path fill="#CF9C61" d="M45.502,78.429H26.873V61.309h18.628V78.429z M29.98,75.319h12.415V64.415H29.98V75.319z"/>
				</g>
				<g>
					<rect x="43.947" y="62.864" fill="#F0ECE3" width="15.525" height="14.011"/>
					<path fill="#CF9C61" d="M61.024,78.429H42.395V61.309h18.628V78.429z M45.502,75.319h12.415V64.415H45.502V75.319z"/>
				</g>
				<g>
					<rect x="28.425" y="76.874" fill="#F0ECE3" width="15.522" height="14.014"/>
					<path fill="#CF9C61" d="M45.502,92.44H26.873V75.319h18.628V92.44z M29.98,89.334h12.415V78.429H29.98V89.334z"/>
				</g>
				<g>
					<rect x="43.947" y="76.874" fill="#F0ECE3" width="15.525" height="14.014"/>
					<path fill="#CF9C61" d="M61.024,92.44H42.395V75.319h18.628V92.44z M45.502,89.334h12.415V78.429H45.502V89.334z"/>
				</g>
			</g>
			<polygon fill="#CF9C61" points="64.393,21.865 64.62,107.276 105.505,107.276 105.505,55.815 			"/>
			<polygon fill="#C28F5B" points="23.278,55.815 64.393,21.865 105.505,55.815 105.505,55.866 116.635,55.866 64.393,12.724 
				12.147,55.866 23.278,55.866 			"/>
			<rect x="74.965" y="62.864" fill="#C28F5B" width="23.491" height="44.412"/>
		</g>
	</g>
</g>
<g id="Waste_Diverted">
</g>
<g id="Jobs">
</g>
<g id="consumer_ed_hover">
</g>
<g id="Supply_click" display="none">
</g>
<g id="Supply_hover" display="none">
</g>
<g id="Key_Solutions" display="none">
</g>
</svg>
