<?xml version="1.0" encoding="utf-8"?>
<!-- Generator: Adobe Illustrator 19.1.0, SVG Export Plug-In . SVG Version: 6.00 Build 0)  -->
<svg version="1.1" id="Layer_1" xmlns="http://www.w3.org/2000/svg" xmlns:xlink="http://www.w3.org/1999/xlink" x="0px" y="0px"
	 viewBox="-371 283.491 47.609 47.509" enable-background="new -371 283.491 47.609 47.509" xml:space="preserve">
<g id="bottom">
	<g>
		<g>
			<polygon points="-350.618,314.537 -344.511,310.891 -338.404,307.246 -344.511,303.6 -350.618,299.955 			"/>
			<path d="M-352.118,317.179v-19.867l16.64,9.933L-352.118,317.179z M-349.118,302.597v9.297l7.788-4.648L-349.118,302.597z"/>
		</g>
		<path d="M-347.196,328.746c-11.855,0-21.5-9.645-21.5-21.5c0-11.855,9.645-21.5,21.5-21.5s21.5,9.645,21.5,21.5
			C-325.696,319.101-335.341,328.746-347.196,328.746z M-347.196,288.746c-10.201,0-18.5,8.299-18.5,18.5s8.299,18.5,18.5,18.5
			c10.201,0,18.5-8.299,18.5-18.5S-336.995,288.746-347.196,288.746z"/>
	</g>
</g>
<g id="Farming" display="none">
</g>
<g id="Manufacturing" display="none">
</g>
<g id="Waste_diverted">
</g>
<g id="jobs">
</g>
<g id="consumer_ed_hover">
</g>
<g id="pop_up" display="none">
</g>
</svg>
