<svg id="Layer_1" data-name="Layer 1" xmlns="http://www.w3.org/2000/svg" viewBox="0 0 1444.19 416.82"><defs><style>.cls-1{fill:#efece4;}.cls-2{fill:#d5e0c6;}.cls-3{fill:#c8d6b4;}.cls-4{fill:#bbcca2;}.cls-5{fill:#aec290;}.cls-6{fill:#a1b97f;}.cls-7{fill:#93af6d;}.cls-8{fill:#86a55c;}.cls-9{fill:#414042;}</style></defs><title>ReFED-Accelerator</title><rect class="cls-1" x="-29.7" y="-8.57" width="1503.58" height="433.96"/><rect class="cls-2" x="59.06" y="204.41" width="176.95" height="34.99"/><rect class="cls-3" x="236.01" y="204.41" width="176.95" height="34.99"/><rect class="cls-4" x="412.97" y="204.41" width="176.95" height="34.99"/><rect class="cls-5" x="589.92" y="204.41" width="176.95" height="34.99"/><rect class="cls-6" x="766.87" y="204.41" width="176.95" height="34.99"/><rect class="cls-7" x="943.82" y="204.41" width="176.95" height="34.99"/><rect class="cls-8" x="1120.78" y="204.41" width="176.95" height="34.99"/><path d="M62.91,87.78H66V98.27h6.16v2.42H62.91Z"/><path d="M83.2,98.47H76.69l-.92,2.22H72.36L78,87.78h3.89l5.62,12.91H84.12Zm-5.68-2.38h4.83L80,90.16Z"/><path d="M87.71,87.78h3.15v7.67c0,1.8,1.12,3,3.39,3s3.34-1.24,3.34-3V87.78h3.15v7.74c0,3.22-2.07,5.41-6.49,5.41s-6.54-2.21-6.54-5.39Z"/><path d="M106.3,92v8.67h-3.11V87.78h3.2l6.75,8.36V87.78h3.11v12.91h-3Z"/><path d="M118,94.25c0-4,3.39-6.68,7.65-6.68a6.9,6.9,0,0,1,6.21,3.15l-2.67,1.16A4.08,4.08,0,0,0,125.65,90a4.25,4.25,0,1,0,0,8.48,4,4,0,0,0,3.54-1.88l2.67,1.14a6.92,6.92,0,0,1-6.21,3.18C121.39,100.93,118,98.22,118,94.25Z"/><path d="M143.28,95.27h-6.89v5.42h-3.11V87.78h3.11v5.07h6.89V87.78h3.12v12.91h-3.12Z"/><path d="M160.9,87.57c4.42,0,7.63,2.78,7.63,6.68s-3.21,6.68-7.63,6.68-7.61-2.79-7.61-6.68S156.51,87.57,160.9,87.57Zm0,2.44a4.24,4.24,0,1,0,4.44,4.24A4.13,4.13,0,0,0,160.9,90Z"/><path d="M170.29,87.78h10.32v2.36h-7.22V93h7.06v2.36h-7.06v5.38h-3.1Z"/><path d="M194.41,87.57c4.41,0,7.63,2.78,7.63,6.68s-3.22,6.68-7.63,6.68-7.61-2.79-7.61-6.68S190,87.57,194.41,87.57Zm0,2.44a4.24,4.24,0,1,0,4.43,4.24A4.14,4.14,0,0,0,194.41,90Z"/><path d="M203.79,87.78h6.82c3.17,0,4.9,1.9,4.9,4.16s-1.75,4.13-4.9,4.13h-3.72v4.62h-3.1Zm6.41,2.36h-3.31V93.7h3.31c1.22,0,2.14-.69,2.14-1.78A1.91,1.91,0,0,0,210.2,90.14Z"/><path d="M217,87.78h10.32v2.36H220.1V93h7.06v2.36H220.1v3h7.22v2.38H217Z"/><path d="M232.41,92v8.67h-3.1V87.78h3.19l6.76,8.36V87.78h3.1v12.91h-3Z"/><path d="M249.27,94.25c0-4,3.39-6.68,7.66-6.68a6.91,6.91,0,0,1,6.21,3.15l-2.67,1.16A4.08,4.08,0,0,0,256.93,90a4.25,4.25,0,1,0,0,8.48,4,4,0,0,0,3.54-1.88l2.67,1.14a6.93,6.93,0,0,1-6.21,3.18C252.66,100.93,249.27,98.22,249.27,94.25Z"/><path d="M273.7,98.47h-6.52l-.91,2.22h-3.42l5.65-12.91h3.89L278,100.69h-3.39ZM268,96.09h4.84l-2.41-5.93Z"/><path d="M278.93,87.78H282V98.27h6.17v2.42h-9.27Z"/><path d="M289.93,87.78H293V98.27h6.17v2.42h-9.27Z"/><path class="cls-9" d="M62.73,125.7a3.73,3.73,0,0,0,2.94,1.54A3,3,0,0,0,68.79,124V113.12h1.94V124a4.57,4.57,0,0,1-4.94,5,5,5,0,0,1-4.06-1.8Z"/><path class="cls-9" d="M81.9,127.1a5.5,5.5,0,0,1-4,1.87c-2.36,0-3.59-1.15-3.59-3.6v-8h1.75v7.42c0,2,1,2.56,2.52,2.56a4.3,4.3,0,0,0,3.33-1.7v-8.28h1.75v11.27H81.9Z"/><path class="cls-9" d="M94.76,121.31c0-2-1-2.61-2.52-2.61a4.35,4.35,0,0,0-3.34,1.75v8.24H87.15V117.42H88.9v1.63a5.59,5.59,0,0,1,4-1.91c2.36,0,3.6,1.19,3.6,3.64v7.91H94.76Z"/><path class="cls-9" d="M104.9,117.14c3.41,0,5.42,2.66,5.42,6v.44h-9.13a4,4,0,0,0,4.06,3.9,4.93,4.93,0,0,0,3.48-1.42l.84,1.14a6.13,6.13,0,0,1-4.48,1.73,5.92,5.92,0,0,1-.19-11.83Zm-3.71,5.2h7.4a3.65,3.65,0,0,0-3.71-3.76A3.77,3.77,0,0,0,101.19,122.34Z"/><path class="cls-9" d="M121.56,115.69l-2.5,2.64-1.17-1.19,3.9-4h1.7v15.57h-1.93Z"/><path class="cls-9" d="M129.46,115.69,127,118.33l-1.17-1.19,3.9-4h1.7v15.57h-1.94Z"/><path d="M415,94.25c0-4,3.39-6.68,7.66-6.68a6.91,6.91,0,0,1,6.21,3.15l-2.67,1.16A4.08,4.08,0,0,0,422.68,90a4.25,4.25,0,1,0,0,8.48,4,4,0,0,0,3.54-1.88l2.67,1.14a6.93,6.93,0,0,1-6.21,3.18C418.41,100.93,415,98.22,415,94.25Z"/><path d="M430.31,87.78h3.1V98.27h6.17v2.42h-9.27Z"/><path d="M447.63,87.57c4.42,0,7.63,2.78,7.63,6.68s-3.21,6.68-7.63,6.68S440,98.14,440,94.25,443.23,87.57,447.63,87.57Zm0,2.44a4.24,4.24,0,1,0,4.44,4.24A4.14,4.14,0,0,0,447.63,90Z"/><path d="M457.71,96.78a6.8,6.8,0,0,0,4.64,1.75c1.7,0,2.53-.72,2.53-1.46,0-1-1.27-1.29-2.95-1.64-2.38-.49-5.44-1.07-5.44-4,0-2.15,2.1-3.89,5.53-3.89a8.74,8.74,0,0,1,5.68,1.8l-1.72,2A6.7,6.7,0,0,0,461.8,90c-1.4,0-2.14.54-2.14,1.31s1.22,1.15,2.91,1.49c2.4.49,5.46,1.13,5.46,4,0,2.37-1.9,4.15-5.84,4.15A9,9,0,0,1,456,98.87Z"/><path d="M469.7,87.78H480v2.36H472.8V93h7.06v2.36H472.8v3H480v2.38H469.7Z"/><path d="M494.08,87.57c4.41,0,7.63,2.78,7.63,6.68s-3.22,6.68-7.63,6.68-7.61-2.79-7.61-6.68S489.68,87.57,494.08,87.57Zm0,2.44a4.24,4.24,0,1,0,4.44,4.24A4.14,4.14,0,0,0,494.08,90Z"/><path d="M503.46,87.78h10.32v2.36h-7.22V93h7.07v2.36h-7.07v5.38h-3.1Z"/><path d="M527.58,87.57c4.42,0,7.63,2.78,7.63,6.68s-3.21,6.68-7.63,6.68S520,98.14,520,94.25,523.18,87.57,527.58,87.57Zm0,2.44A4.24,4.24,0,1,0,532,94.25,4.14,4.14,0,0,0,527.58,90Z"/><path d="M537,87.78h6.82c3.17,0,4.9,1.9,4.9,4.16s-1.75,4.13-4.9,4.13h-3.71v4.62H537Zm6.41,2.36h-3.3V93.7h3.3c1.22,0,2.14-.69,2.14-1.78A1.91,1.91,0,0,0,543.37,90.14Z"/><path d="M550.17,87.78h10.32v2.36h-7.21V93h7.06v2.36h-7.06v3h7.21v2.38H550.17Z"/><path d="M565.59,92v8.67h-3.11V87.78h3.19l6.76,8.36V87.78h3.11v12.91h-3Z"/><path d="M582.45,94.25c0-4,3.39-6.68,7.65-6.68a6.91,6.91,0,0,1,6.21,3.15l-2.67,1.16A4.08,4.08,0,0,0,590.1,90a4.25,4.25,0,1,0,0,8.48,4,4,0,0,0,3.54-1.88l2.67,1.14a6.93,6.93,0,0,1-6.21,3.18C585.84,100.93,582.45,98.22,582.45,94.25Z"/><path d="M606.87,98.47h-6.51l-.92,2.22H596l5.64-12.91h3.89l5.62,12.91h-3.39Zm-5.68-2.38H606l-2.4-5.93Z"/><path d="M612.1,87.78h3.11V98.27h6.16v2.42H612.1Z"/><path d="M623.1,87.78h3.11V98.27h6.16v2.42H623.1Z"/><path class="cls-9" d="M415.54,125.7a3.73,3.73,0,0,0,2.94,1.54,3,3,0,0,0,3.13-3.27V113.12h1.93V124a4.57,4.57,0,0,1-4.94,5,5,5,0,0,1-4.06-1.8Z"/><path class="cls-9" d="M434.72,127.1a5.54,5.54,0,0,1-4,1.87c-2.35,0-3.59-1.15-3.59-3.6v-8h1.75v7.42c0,2,1,2.56,2.52,2.56a4.32,4.32,0,0,0,3.34-1.7v-8.28h1.75v11.27h-1.75Z"/><path class="cls-9" d="M440,113.12h1.75v15.57H440Z"/><path class="cls-9" d="M445.82,131.7a1.62,1.62,0,0,0,1.68-1.2l.74-1.7-4.71-11.38h1.89l3.76,9.24,3.73-9.24h1.91L449.18,131a3.35,3.35,0,0,1-3.32,2.29,5.34,5.34,0,0,1-1.28-.17l.28-1.58A2.65,2.65,0,0,0,445.82,131.7Z"/><path class="cls-9" d="M465.06,115.69l-2.5,2.64-1.16-1.19,3.89-4H467v15.57h-1.94Z"/><path class="cls-9" d="M476,112.89c4.25,0,5.95,4.22,5.95,8s-1.7,8-5.95,8-5.94-4.27-5.94-8S471.69,112.89,476,112.89Zm0,1.73c-3,0-4,3.19-4,6.3s1,6.32,4,6.32,4-3.22,4-6.32S478.92,114.62,476,114.62Z"/><path d="M777.83,75.14h-6.52l-.92,2.23H767l5.64-12.92h3.9l5.62,12.92h-3.39Zm-5.69-2.38H777l-2.41-5.92Z"/><path d="M781.61,70.92c0-4,3.39-6.68,7.66-6.68a6.89,6.89,0,0,1,6.21,3.16l-2.67,1.16a4.08,4.08,0,0,0-3.54-1.88,4.25,4.25,0,1,0,0,8.48,4,4,0,0,0,3.54-1.88l2.67,1.14a6.93,6.93,0,0,1-6.21,3.18C785,77.6,781.61,74.89,781.61,70.92Z"/><path d="M796.2,70.92c0-4,3.39-6.68,7.65-6.68a6.88,6.88,0,0,1,6.21,3.16l-2.67,1.16a4.07,4.07,0,0,0-3.54-1.88,4.25,4.25,0,1,0,0,8.48,4,4,0,0,0,3.54-1.88l2.67,1.14a6.92,6.92,0,0,1-6.21,3.18C799.59,77.6,796.2,74.89,796.2,70.92Z"/><path d="M811.48,64.45H821.8v2.37h-7.21v2.8h7.06V72h-7.06v3h7.21v2.38H811.48Z"/><path d="M823.8,64.45h3.1V75h6.17v2.42H823.8Z"/><path d="M834.8,64.45h10.32v2.37H837.9v2.8H845V72H837.9v3h7.22v2.38H834.8Z"/><path d="M852.49,72.74h-2.28v4.63h-3.1V64.45h6.82c3,0,4.9,1.76,4.9,4.17a3.82,3.82,0,0,1-3.2,3.83l3.28,4.92h-3.56Zm1-5.92h-3.26v3.56h3.26c1.25,0,2.19-.7,2.19-1.78S854.72,66.82,853.47,66.82Z"/><path d="M870,75.14h-6.51l-.92,2.23h-3.41l5.64-12.92h3.89l5.62,12.92h-3.39Zm-5.68-2.38h4.83l-2.4-5.92Z"/><path d="M877.22,66.87H873V64.45h11.63v2.42h-4.24v10.5h-3.13Z"/><path d="M892.53,64.24c4.41,0,7.63,2.79,7.63,6.68s-3.22,6.68-7.63,6.68-7.61-2.79-7.61-6.68S888.13,64.24,892.53,64.24Zm0,2.44A4.24,4.24,0,1,0,897,70.92,4.14,4.14,0,0,0,892.53,66.68Z"/><path d="M907.29,72.74H905v4.63h-3.1V64.45h6.82c3,0,4.9,1.76,4.9,4.17a3.82,3.82,0,0,1-3.19,3.83l3.28,4.92h-3.57Zm1-5.92H905v3.56h3.26c1.25,0,2.19-.7,2.19-1.78S909.52,66.82,908.27,66.82Z"/><path d="M921.39,73.46A6.82,6.82,0,0,0,926,75.2c1.7,0,2.54-.72,2.54-1.45,0-1-1.27-1.3-3-1.65-2.38-.48-5.44-1.06-5.44-3.95,0-2.15,2.1-3.89,5.53-3.89a8.79,8.79,0,0,1,5.69,1.8l-1.73,2a6.76,6.76,0,0,0-4.18-1.41c-1.4,0-2.14.54-2.14,1.32s1.22,1.14,2.91,1.49c2.4.48,5.46,1.12,5.46,4,0,2.36-1.9,4.14-5.83,4.14a9,9,0,0,1-6.19-2Z"/><path d="M936.59,66.87h-4.26V64.45H944v2.42h-4.24v10.5h-3.13Z"/><path d="M953.41,75.14h-6.52L946,77.37h-3.41l5.64-12.92h3.9l5.62,12.92h-3.39Zm-5.69-2.38h4.84l-2.41-5.92Z"/><path d="M964,72.74h-2.27v4.63h-3.1V64.45h6.82c3,0,4.9,1.76,4.9,4.17a3.82,3.82,0,0,1-3.2,3.83l3.28,4.92h-3.56Zm1-5.92h-3.26v3.56H965c1.24,0,2.19-.7,2.19-1.78S966.24,66.82,965,66.82Z"/><path d="M975.41,66.87h-4.27V64.45h11.64v2.42h-4.25v10.5h-3.12Z"/><path d="M998.78,75.14h-6.51l-.92,2.23h-3.41l5.64-12.92h3.89l5.62,12.92H999.7Zm-5.68-2.38h4.83l-2.4-5.92Z"/><path d="M1007.12,68.69v8.68H1004V64.45h3.19l6.76,8.37V64.45h3.11V77.37h-3Z"/><path d="M1019.52,64.45h5.75c4.57,0,7.74,2.58,7.74,6.47s-3.17,6.45-7.74,6.45h-5.75Zm5.75,10.5c2.88,0,4.57-1.84,4.57-4s-1.58-4-4.57-4h-2.65V75Z"/><path d="M773.91,96h-2.27v4.62h-3.1V87.69h6.82c3,0,4.9,1.76,4.9,4.16a3.82,3.82,0,0,1-3.2,3.84l3.28,4.91h-3.56Zm1-5.93h-3.26v3.56h3.26c1.24,0,2.18-.69,2.18-1.78S776.14,90.05,774.9,90.05Z"/><path d="M786.23,91a5,5,0,0,1,5.29,5.15v.54h-7.85c.17,1.18,1.24,2.17,3,2.17a4.68,4.68,0,0,0,2.82-.93l1.22,1.59a7.15,7.15,0,0,1-4.35,1.3c-3.21,0-5.64-1.92-5.64-4.92C780.76,93.21,783,91,786.23,91Zm-2.61,4h5.21a2.34,2.34,0,0,0-2.6-2.07A2.43,2.43,0,0,0,783.62,95.05Z"/><path d="M793.16,87.69h10.32v2.36h-7.22v2.81h7.07v2.36h-7.07v5.38h-3.1Z"/><path d="M805.21,87.69h10.32v2.36h-7.22v2.81h7.07v2.36h-7.07v3h7.22v2.38H805.21Z"/><path d="M817.52,87.69h5.75c4.57,0,7.74,2.57,7.74,6.47s-3.17,6.44-7.74,6.44h-5.75Zm5.75,10.49c2.89,0,4.57-1.84,4.57-4s-1.57-4-4.57-4h-2.65v8.07Z"/><path d="M837.94,87.69h3.11V98.18h6.17v2.42h-9.28Z"/><path d="M848.94,87.69h10.32v2.36h-7.21v2.81h7.06v2.36h-7.06v3h7.21v2.38H848.94Z"/><path d="M870.55,98.38H864l-.92,2.22H859.7l5.64-12.91h3.9l5.62,12.91h-3.39ZM864.86,96h4.84l-2.41-5.93Z"/><path d="M881.15,96h-2.27v4.62h-3.1V87.69h6.82c3,0,4.9,1.76,4.9,4.16a3.82,3.82,0,0,1-3.2,3.84l3.28,4.91H884Zm1-5.93h-3.26v3.56h3.26c1.24,0,2.19-.69,2.19-1.78S883.38,90.05,882.14,90.05Z"/><path d="M892.51,91.93v8.67H889.4V87.69h3.19l6.76,8.36V87.69h3.1V100.6h-3Z"/><path d="M904.9,87.69H908V100.6H904.9Z"/><path d="M913.56,91.93v8.67h-3.1V87.69h3.19l6.76,8.36V87.69h3.1V100.6h-3Z"/><path d="M933,87.48a7.07,7.07,0,0,1,6,2.82l-2.58,1.24A4.39,4.39,0,1,0,933,98.4a5.32,5.32,0,0,0,3.14-1V95.84h-3.89V93.48h7v4.94a8.6,8.6,0,0,1-6.21,2.44c-4.27,0-7.77-2.64-7.77-6.7S928.76,87.48,933,87.48Z"/><path d="M946.43,87.69h3.11V98.18h6.16v2.42h-9.27Z"/><path d="M966.72,98.38h-6.51l-.92,2.22h-3.41l5.64-12.91h3.89L971,100.6h-3.39ZM961,96h4.83l-2.4-5.93Z"/><path d="M972,87.69h7.68c2.77,0,4.2,1.57,4.2,3.29a3,3,0,0,1-2.52,3,3.25,3.25,0,0,1,2.8,3.18c0,1.94-1.47,3.48-4.24,3.48H972Zm7,5.19c1,0,1.7-.6,1.7-1.43A1.5,1.5,0,0,0,979,90h-3.89v2.85Zm.11,5.38c1.18,0,1.88-.6,1.88-1.53s-.66-1.51-1.88-1.51h-4v3Z"/><path d="M996.33,97.33h-2.07L993,100.6h-2l1.24-3.27h-2.1l.57-1.57h2.14L994,92.55h-2.14L992.4,91h2.21l1.22-3.31h2.06L996.66,91h2.06l1.22-3.31H1002L1000.75,91h2.12l-.52,1.55h-2.19L999,95.76h2.21l-.55,1.57h-2.25l-1.23,3.27h-2.07Zm-.28-4.78-1.18,3.21h2l1.21-3.21Z"/><path d="M1007.25,91.23l-2.43,2.19-1.77-1.65,4.59-4.08h2.71V100.6h-3.1Z"/><path class="cls-9" d="M769.12,124.93a6.57,6.57,0,0,0,4.9,2.22c2.78,0,3.66-1.49,3.66-2.68,0-1.87-1.89-2.38-3.94-2.94-2.5-.66-5.27-1.36-5.27-4.41,0-2.57,2.29-4.32,5.34-4.32a7.31,7.31,0,0,1,5.53,2.17l-1.17,1.42a6,6,0,0,0-4.5-1.86c-1.87,0-3.2,1-3.2,2.47s1.8,2,3.78,2.57c2.55.67,5.44,1.47,5.44,4.73,0,2.27-1.54,4.58-5.74,4.58a7.68,7.68,0,0,1-6-2.48Z"/><path class="cls-9" d="M787.41,117.05c3.41,0,5.41,2.66,5.41,6v.44H783.7a4,4,0,0,0,4.06,3.9,4.94,4.94,0,0,0,3.48-1.42l.84,1.14a6.13,6.13,0,0,1-4.48,1.73,5.92,5.92,0,0,1-.19-11.83Zm-3.71,5.2h7.4a3.66,3.66,0,0,0-3.71-3.76A3.76,3.76,0,0,0,783.7,122.25Z"/><path class="cls-9" d="M795.64,132.89V117.33h1.75V119a4.71,4.71,0,0,1,3.81-2c3,0,5,2.24,5,5.9s-2.05,5.93-5,5.93a4.64,4.64,0,0,1-3.81-2v6Zm5.11-14.28a4.18,4.18,0,0,0-3.36,1.8v5.08a4.2,4.2,0,0,0,3.36,1.82c2.27,0,3.62-1.86,3.62-4.36S803,118.61,800.75,118.61Z"/><path class="cls-9" d="M809.38,126.24v-7.37h-1.86v-1.54h1.86v-3.08h1.75v3.08h2.29v1.54h-2.29v7c0,.84.38,1.44,1.15,1.44a1.73,1.73,0,0,0,1.19-.46l.51,1.3a2.85,2.85,0,0,1-2.1.73C810.22,128.88,809.38,127.92,809.38,126.24Z"/><path class="cls-9" d="M820.79,117.05c3.41,0,5.41,2.66,5.41,6v.44h-9.12a4,4,0,0,0,4.06,3.9,4.94,4.94,0,0,0,3.48-1.42l.84,1.14a6.13,6.13,0,0,1-4.48,1.73,5.92,5.92,0,0,1-.19-11.83Zm-3.71,5.2h7.4a3.66,3.66,0,0,0-3.71-3.76A3.76,3.76,0,0,0,817.08,122.25Z"/><path class="cls-9" d="M842.62,120.94c0-1.42-.63-2.33-2.07-2.33a4,4,0,0,0-3,1.73v8.26h-1.75v-7.66c0-1.42-.6-2.33-2.07-2.33a3.94,3.94,0,0,0-3,1.75v8.24H829V117.33h1.75V119a4.9,4.9,0,0,1,3.64-1.91,2.9,2.9,0,0,1,3,2.1,4.72,4.72,0,0,1,3.77-2.1c2.06,0,3.15,1.14,3.15,3.4v8.15h-1.75Z"/><path class="cls-9" d="M847.87,113h1.75v6a4.69,4.69,0,0,1,3.8-2c2.94,0,5,2.33,5,5.92s-2.08,5.91-5,5.91a4.76,4.76,0,0,1-3.8-2v1.68h-1.75ZM853,127.31c2.29,0,3.64-1.84,3.64-4.34s-1.35-4.36-3.64-4.36a4.19,4.19,0,0,0-3.36,1.82v5.11A4.14,4.14,0,0,0,853,127.31Z"/><path class="cls-9" d="M866.18,117.05c3.41,0,5.42,2.66,5.42,6v.44h-9.13a4,4,0,0,0,4.06,3.9A4.93,4.93,0,0,0,870,126l.84,1.14a6.13,6.13,0,0,1-4.48,1.73,5.92,5.92,0,0,1-.19-11.83Zm-3.71,5.2h7.4a3.65,3.65,0,0,0-3.71-3.76A3.77,3.77,0,0,0,862.47,122.25Z"/><path class="cls-9" d="M874.42,117.33h1.75v1.82a4.78,4.78,0,0,1,3.75-2.06v1.8a2.91,2.91,0,0,0-.7-.07,4.11,4.11,0,0,0-3.05,1.8v8h-1.75Z"/><path class="cls-9" d="M890.53,115.6,888,118.24l-1.17-1.19,3.9-4h1.7V128.6h-1.94Z"/><path class="cls-9" d="M901.43,112.8c4.24,0,6,4.22,6,8s-1.71,8-6,8-5.95-4.27-5.95-8S897.16,112.8,901.43,112.8Zm0,1.73c-3,0-4,3.19-4,6.3s1,6.32,4,6.32,4-3.22,4-6.32S904.39,114.53,901.43,114.53Z"/><path d="M1128.48,68.5,1126,77.37h-3.31l-4.17-12.92h3.47l2.56,9.34,2.78-9.34h2.43l2.75,9.34,2.54-9.34h3.5l-4.16,12.92H1131Z"/><path d="M1139.53,64.45h3.1V77.37h-3.1Z"/><path d="M1148.19,68.69v8.68h-3.11V64.45h3.19l6.76,8.37V64.45h3.11V77.37h-3Z"/><path d="M1163.69,68.69v8.68h-3.1V64.45h3.19l6.75,8.37V64.45h3.11V77.37h-3Z"/><path d="M1176.09,64.45h10.32v2.37h-7.21v2.8h7.06V72h-7.06v3h7.21v2.38h-10.32Z"/><path d="M1193.78,72.74h-2.27v4.63h-3.11V64.45h6.82c3,0,4.9,1.76,4.9,4.17a3.82,3.82,0,0,1-3.19,3.83l3.28,4.92h-3.56Zm1-5.92h-3.25v3.56h3.25c1.25,0,2.19-.7,2.19-1.78S1196,66.82,1194.76,66.82Z"/><path d="M1201.48,70.92a12.59,12.59,0,0,1,3.45-8.56l1.75,1.16a13.11,13.11,0,0,0-2.21,7.4,12.87,12.87,0,0,0,2.21,7.36l-1.75,1.2A12.55,12.55,0,0,1,1201.48,70.92Z"/><path d="M1208.78,73.46a6.82,6.82,0,0,0,4.64,1.74c1.7,0,2.54-.72,2.54-1.45,0-1-1.27-1.3-3-1.65-2.38-.48-5.44-1.06-5.44-3.95,0-2.15,2.1-3.89,5.53-3.89a8.79,8.79,0,0,1,5.69,1.8l-1.73,2a6.76,6.76,0,0,0-4.18-1.41c-1.4,0-2.14.54-2.14,1.32s1.22,1.14,2.91,1.49c2.4.48,5.46,1.12,5.46,4,0,2.36-1.9,4.14-5.83,4.14a9,9,0,0,1-6.19-2Z"/><path d="M1219.7,63.52l1.75-1.16a12.24,12.24,0,0,1,0,17.12l-1.75-1.2a12.59,12.59,0,0,0,2.23-7.36A12.83,12.83,0,0,0,1219.7,63.52Z"/><path d="M1232.69,73.46a6.77,6.77,0,0,0,4.63,1.74c1.71,0,2.54-.72,2.54-1.45,0-1-1.27-1.3-2.95-1.65-2.39-.48-5.45-1.06-5.45-3.95,0-2.15,2.1-3.89,5.53-3.89a8.77,8.77,0,0,1,5.69,1.8l-1.73,2a6.74,6.74,0,0,0-4.18-1.41c-1.39,0-2.14.54-2.14,1.32s1.23,1.14,2.91,1.49c2.41.48,5.47,1.12,5.47,4,0,2.36-1.91,4.14-5.84,4.14a9,9,0,0,1-6.19-2Z"/><path d="M1244.67,64.45H1255v2.37h-7.22v2.8h7.07V72h-7.07v3H1255v2.38h-10.32Z"/><path d="M1257,64.45h3.11V75h6.16v2.42H1257Z"/><path d="M1268,64.45h10.32v2.37h-7.21v2.8h7.06V72h-7.06v3h7.21v2.38H1268Z"/><path d="M1279.59,70.92c0-4,3.39-6.68,7.66-6.68a6.89,6.89,0,0,1,6.21,3.16l-2.67,1.16a4.08,4.08,0,0,0-3.54-1.88,4.25,4.25,0,1,0,0,8.48,4,4,0,0,0,3.54-1.88l2.67,1.14a6.93,6.93,0,0,1-6.21,3.18C1283,77.6,1279.59,74.89,1279.59,70.92Z"/><path d="M1298.25,66.87H1294V64.45h11.63v2.42h-4.24v10.5h-3.12Z"/><path d="M1307.17,64.45h3.1V77.37h-3.1Z"/><path d="M1319.63,64.24c4.42,0,7.63,2.79,7.63,6.68s-3.21,6.68-7.63,6.68-7.61-2.79-7.61-6.68S1315.24,64.24,1319.63,64.24Zm0,2.44a4.24,4.24,0,1,0,4.44,4.24A4.13,4.13,0,0,0,1319.63,66.68Z"/><path d="M1332.12,68.69v8.68H1329V64.45h3.2l6.75,8.37V64.45h3.11V77.37h-3Z"/><path d="M1359,75.14h-6.51l-.92,2.23h-3.41l5.64-12.92h3.89l5.62,12.92h-3.39Zm-5.68-2.38h4.83l-2.41-5.92Z"/><path d="M1367.31,68.69v8.68h-3.11V64.45h3.19l6.76,8.37V64.45h3.1V77.37h-3Z"/><path d="M1379.71,64.45h5.75c4.57,0,7.74,2.58,7.74,6.47s-3.17,6.45-7.74,6.45h-5.75Zm5.75,10.5c2.88,0,4.57-1.84,4.57-4s-1.58-4-4.57-4h-2.65V75Z"/><path d="M1125.27,96H1123v4.62h-3.1V87.69h6.82c3,0,4.9,1.76,4.9,4.16a3.82,3.82,0,0,1-3.19,3.84l3.28,4.91h-3.57Zm1-5.93H1123v3.56h3.26c1.25,0,2.19-.69,2.19-1.78S1127.5,90.05,1126.25,90.05Z"/><path d="M1137.58,91a5,5,0,0,1,5.29,5.15v.54H1135a2.78,2.78,0,0,0,3,2.17,4.68,4.68,0,0,0,2.82-.93l1.23,1.59a7.18,7.18,0,0,1-4.36,1.3c-3.21,0-5.64-1.92-5.64-4.92C1132.11,93.21,1134.36,91,1137.58,91Zm-2.6,4h5.2a2.33,2.33,0,0,0-2.6-2.07A2.42,2.42,0,0,0,1135,95.05Z"/><path d="M1144.51,87.69h10.32v2.36h-7.21v2.81h7.06v2.36h-7.06v5.38h-3.11Z"/><path d="M1156.56,87.69h10.32v2.36h-7.21v2.81h7.06v2.36h-7.06v3h7.21v2.38h-10.32Z"/><path d="M1168.87,87.69h5.75c4.57,0,7.74,2.57,7.74,6.47s-3.17,6.44-7.74,6.44h-5.75Zm5.75,10.49c2.89,0,4.57-1.84,4.57-4s-1.57-4-4.57-4H1172v8.07Z"/><path d="M1189.3,87.69h3.1V98.18h6.17v2.42h-9.27Z"/><path d="M1200.3,87.69h10.32v2.36h-7.22v2.81h7.07v2.36h-7.07v3h7.22v2.38H1200.3Z"/><path d="M1221.9,98.38h-6.51l-.92,2.22h-3.41l5.64-12.91h3.89l5.62,12.91h-3.39ZM1216.22,96h4.83l-2.41-5.93Z"/><path d="M1232.51,96h-2.28v4.62h-3.1V87.69H1234c3,0,4.9,1.76,4.9,4.16a3.82,3.82,0,0,1-3.19,3.84l3.28,4.91h-3.57Zm1-5.93h-3.26v3.56h3.26c1.25,0,2.19-.69,2.19-1.78S1234.74,90.05,1233.49,90.05Z"/><path d="M1243.86,91.93v8.67h-3.11V87.69h3.2l6.75,8.36V87.69h3.11V100.6h-3Z"/><path d="M1256.26,87.69h3.1V100.6h-3.1Z"/><path d="M1264.92,91.93v8.67h-3.11V87.69h3.2l6.75,8.36V87.69h3.11V100.6h-3Z"/><path d="M1284.38,87.48a7.05,7.05,0,0,1,6,2.82l-2.58,1.24a4.39,4.39,0,1,0-3.45,6.86,5.37,5.37,0,0,0,3.15-1V95.84h-3.89V93.48h6.95v4.94a8.59,8.59,0,0,1-6.21,2.44c-4.26,0-7.76-2.64-7.76-6.7S1280.12,87.48,1284.38,87.48Z"/><path d="M1297.79,87.69h3.1V98.18h6.17v2.42h-9.27Z"/><path d="M1318.08,98.38h-6.52l-.92,2.22h-3.41l5.64-12.91h3.9l5.62,12.91H1319ZM1312.39,96h4.84l-2.41-5.93Z"/><path d="M1323.31,87.69H1331c2.78,0,4.2,1.57,4.2,3.29a3,3,0,0,1-2.52,3,3.24,3.24,0,0,1,2.8,3.18c0,1.94-1.46,3.48-4.24,3.48h-7.91Zm7,5.19c1,0,1.71-.6,1.71-1.43A1.51,1.51,0,0,0,1330.3,90h-3.89v2.85Zm.11,5.38c1.18,0,1.88-.6,1.88-1.53s-.65-1.51-1.88-1.51h-4v3Z"/><path d="M1347.69,97.33h-2.08l-1.25,3.27h-2l1.25-3.27h-2.1l.57-1.57h2.14l1.18-3.21h-2.14l.54-1.55H1346l1.23-3.31h2L1348,91h2l1.23-3.31h2.07L1352.11,91h2.12l-.53,1.55h-2.19l-1.2,3.21h2.21l-.55,1.57h-2.25l-1.22,3.27h-2.08Zm-.29-4.78-1.18,3.21h2l1.2-3.21Z"/><path d="M1356.22,97a6.2,6.2,0,0,0,4,1.48c1.77,0,2.76-.68,2.76-1.67s-.9-1.53-2.93-1.53c-.62,0-1.6,0-1.82,0v-2.4c.26,0,1.27,0,1.82,0,1.61,0,2.69-.47,2.69-1.43s-1.19-1.55-2.72-1.55a5.66,5.66,0,0,0-3.71,1.35l-1.53-1.7a7.62,7.62,0,0,1,5.57-2c3.41,0,5.51,1.35,5.51,3.5,0,1.63-1.57,2.69-3.19,2.94,1.49.14,3.41,1.17,3.41,3.1,0,2.23-2.25,3.8-5.75,3.8a7.72,7.72,0,0,1-5.75-2.08Z"/><path class="cls-9" d="M1120.27,113h5.32a7.57,7.57,0,0,1,8,7.79c0,4.43-3.15,7.77-8,7.77h-5.32Zm5.32,13.83a5.73,5.73,0,0,0,6-6c0-3.36-2.13-6.07-6-6.07h-3.39v12.11Z"/><path class="cls-9" d="M1141.42,117.05c3.41,0,5.42,2.66,5.42,6v.44h-9.13a4,4,0,0,0,4.06,3.9,4.93,4.93,0,0,0,3.48-1.42l.84,1.14a6.13,6.13,0,0,1-4.48,1.73,5.92,5.92,0,0,1-.19-11.83Zm-3.71,5.2h7.4a3.65,3.65,0,0,0-3.71-3.76A3.77,3.77,0,0,0,1137.71,122.25Z"/><path class="cls-9" d="M1154.63,117.05a4.84,4.84,0,0,1,4.13,2l-1.17,1.07a3.33,3.33,0,0,0-2.87-1.47c-2.4,0-3.9,1.84-3.9,4.34s1.5,4.36,3.9,4.36a3.38,3.38,0,0,0,2.87-1.47l1.17,1.08a4.84,4.84,0,0,1-4.13,2,5.92,5.92,0,0,1,0-11.83Z"/><path class="cls-9" d="M1166.1,117.05c3.41,0,5.42,2.66,5.42,6v.44h-9.13a4,4,0,0,0,4.06,3.9,4.93,4.93,0,0,0,3.48-1.42l.84,1.14a6.13,6.13,0,0,1-4.48,1.73,5.92,5.92,0,0,1-.19-11.83Zm-3.71,5.2h7.4a3.65,3.65,0,0,0-3.71-3.76A3.77,3.77,0,0,0,1162.39,122.25Z"/><path class="cls-9" d="M1187.94,120.94c0-1.42-.63-2.33-2.08-2.33a4,4,0,0,0-3,1.73v8.26h-1.75v-7.66c0-1.42-.6-2.33-2.07-2.33a3.91,3.91,0,0,0-3,1.75v8.24h-1.75V117.33h1.75V119a4.86,4.86,0,0,1,3.63-1.91,2.9,2.9,0,0,1,3,2.1,4.72,4.72,0,0,1,3.78-2.1c2,0,3.15,1.14,3.15,3.4v8.15h-1.75Z"/><path class="cls-9" d="M1193.18,113h1.75v6a4.71,4.71,0,0,1,3.81-2c2.94,0,5,2.33,5,5.92s-2.07,5.91-5,5.91a4.76,4.76,0,0,1-3.81-2v1.68h-1.75Zm5.11,14.27c2.29,0,3.64-1.84,3.64-4.34s-1.35-4.36-3.64-4.36a4.2,4.2,0,0,0-3.36,1.82v5.11A4.16,4.16,0,0,0,1198.29,127.31Z"/><path class="cls-9" d="M1211.5,117.05c3.4,0,5.41,2.66,5.41,6v.44h-9.12a4,4,0,0,0,4,3.9,4.93,4.93,0,0,0,3.48-1.42l.84,1.14a6.11,6.11,0,0,1-4.48,1.73,5.92,5.92,0,0,1-.18-11.83Zm-3.71,5.2h7.39a3.65,3.65,0,0,0-3.71-3.76A3.75,3.75,0,0,0,1207.79,122.25Z"/><path class="cls-9" d="M1219.73,117.33h1.75v1.82a4.78,4.78,0,0,1,3.75-2.06v1.8a2.91,2.91,0,0,0-.7-.07,4.11,4.11,0,0,0-3,1.8v8h-1.75Z"/><path class="cls-9" d="M1233,127.06c5.6-4.41,8.64-7,8.64-9.68,0-2-1.64-2.85-3.25-2.85a5.2,5.2,0,0,0-4.22,2l-1.19-1.24a6.75,6.75,0,0,1,5.41-2.45c2.59,0,5.23,1.47,5.23,4.58s-3.22,6.06-7.56,9.49h7.63v1.73H1233Z"/><path d="M234.85,312.3h3.54l4.05,9.93,4-9.93H250l-5.62,12.91h-3.89Z"/><path d="M250.92,312.3H254v12.91h-3.11Z"/><path d="M261.86,320.58h-2.28v4.63h-3.1V312.3h6.82c3,0,4.9,1.76,4.9,4.16a3.82,3.82,0,0,1-3.2,3.83l3.28,4.92h-3.56Zm1-5.92h-3.26v3.56h3.26c1.25,0,2.19-.7,2.19-1.78S264.09,314.66,262.84,314.66Z"/><path d="M273.25,314.72H269V312.3h11.63v2.42h-4.24v10.49h-3.13Z"/><path d="M282.17,312.3h3.15V320c0,1.8,1.12,3,3.39,3s3.34-1.24,3.34-3V312.3h3.15V320c0,3.21-2.07,5.4-6.49,5.4s-6.54-2.2-6.54-5.38Z"/><path d="M306.23,323h-6.52l-.92,2.23h-3.41L301,312.3h3.89l5.62,12.91h-3.39Zm-5.69-2.38h4.83l-2.4-5.92Z"/><path d="M311.45,312.3h3.11v10.49h6.17v2.42h-9.28Z"/><path d="M327.61,312.3h3.11v12.91h-3.11Z"/><path d="M336.27,316.54v8.67h-3.1V312.3h3.19l6.76,8.36V312.3h3.1v12.91h-3Z"/><path d="M348.67,312.3H359v2.36h-7.21v2.81h7.06v2.36h-7.06v5.38h-3.11Z"/><path d="M367.63,312.08c4.42,0,7.63,2.79,7.63,6.68s-3.21,6.68-7.63,6.68-7.61-2.78-7.61-6.68S363.24,312.08,367.63,312.08Zm0,2.44a4.24,4.24,0,1,0,4.44,4.24A4.13,4.13,0,0,0,367.63,314.52Z"/><path d="M382.39,320.58h-2.27v4.63H377V312.3h6.83c3,0,4.89,1.76,4.89,4.16a3.81,3.81,0,0,1-3.19,3.83l3.28,4.92h-3.56Zm1-5.92h-3.26v3.56h3.26c1.24,0,2.18-.7,2.18-1.78S384.62,314.66,383.38,314.66Z"/><path d="M403.32,315.92l-4.11,9.29h-1.36l-4.11-9.29v9.29h-3.1V312.3H395l3.54,8.05,3.54-8.05h4.38v12.91h-3.13Z"/><path d="M418.19,323h-6.51l-.92,2.23h-3.41L413,312.3h3.89l5.62,12.91h-3.39Zm-5.68-2.38h4.83l-2.41-5.92Z"/><path d="M425.39,314.72h-4.27V312.3h11.64v2.42h-4.25v10.49h-3.12Z"/><path d="M434.31,312.3h3.1v12.91h-3.1Z"/><path d="M446.77,312.08c4.42,0,7.63,2.79,7.63,6.68s-3.21,6.68-7.63,6.68-7.61-2.78-7.61-6.68S442.38,312.08,446.77,312.08Zm0,2.44a4.24,4.24,0,1,0,4.44,4.24A4.13,4.13,0,0,0,446.77,314.52Z"/><path d="M459.26,316.54v8.67h-3.1V312.3h3.19l6.76,8.36V312.3h3.1v12.91h-3Z"/><path d="M481,323h-6.51l-.92,2.23h-3.41l5.64-12.91h3.89l5.62,12.91h-3.39Zm-5.68-2.38h4.83l-2.4-5.92Z"/><path d="M486.18,312.3h3.11v10.49h6.16v2.42h-9.27Z"/><path d="M237.1,344.54a6.87,6.87,0,0,0,4.64,1.74c1.7,0,2.53-.72,2.53-1.45,0-1-1.26-1.3-3-1.65-2.38-.48-5.44-1.06-5.44-3.95,0-2.15,2.1-3.89,5.53-3.89a8.74,8.74,0,0,1,5.68,1.8l-1.72,2a6.7,6.7,0,0,0-4.18-1.41c-1.4,0-2.14.54-2.14,1.32s1.22,1.14,2.91,1.49c2.4.48,5.46,1.12,5.46,4,0,2.36-1.9,4.14-5.84,4.14a9,9,0,0,1-6.18-2.05Z"/><path d="M249.09,335.53h10.32v2.36h-7.22v2.81h7.06v2.36h-7.06v3h7.22v2.38H249.09Z"/><path d="M262.1,344.54a6.82,6.82,0,0,0,4.63,1.74c1.71,0,2.54-.72,2.54-1.45,0-1-1.27-1.3-2.95-1.65-2.39-.48-5.45-1.06-5.45-3.95,0-2.15,2.1-3.89,5.53-3.89a8.77,8.77,0,0,1,5.69,1.8l-1.73,2a6.67,6.67,0,0,0-4.17-1.41c-1.4,0-2.15.54-2.15,1.32s1.23,1.14,2.91,1.49c2.41.48,5.47,1.12,5.47,4,0,2.36-1.9,4.14-5.84,4.14a9,9,0,0,1-6.19-2.05Z"/><path d="M274.78,344.54a6.85,6.85,0,0,0,4.64,1.74c1.7,0,2.53-.72,2.53-1.45,0-1-1.27-1.3-2.95-1.65-2.38-.48-5.44-1.06-5.44-3.95,0-2.15,2.1-3.89,5.53-3.89a8.74,8.74,0,0,1,5.68,1.8l-1.72,2a6.7,6.7,0,0,0-4.18-1.41c-1.4,0-2.14.54-2.14,1.32s1.22,1.14,2.9,1.49c2.41.48,5.47,1.12,5.47,4,0,2.36-1.9,4.14-5.84,4.14a9,9,0,0,1-6.18-2.05Z"/><path d="M286.76,335.53h3.11v12.92h-3.11Z"/><path d="M299.23,335.32c4.42,0,7.63,2.79,7.63,6.68s-3.21,6.68-7.63,6.68-7.61-2.79-7.61-6.68S294.83,335.32,299.23,335.32Zm0,2.44a4.24,4.24,0,1,0,4.44,4.24A4.14,4.14,0,0,0,299.23,337.76Z"/><path d="M311.72,339.77v8.68h-3.11V335.53h3.19l6.76,8.37v-8.37h3.11v12.92h-3Z"/><path class="cls-9" d="M236.22,373.16a3.71,3.71,0,0,0,2.94,1.54,3,3,0,0,0,3.12-3.27V360.59h1.94v10.87a4.57,4.57,0,0,1-4.94,5,5,5,0,0,1-4.06-1.8Z"/><path class="cls-9" d="M255.39,374.56a5.5,5.5,0,0,1-4,1.87c-2.36,0-3.59-1.15-3.59-3.59v-8h1.75v7.42c0,2,1,2.56,2.52,2.56a4.3,4.3,0,0,0,3.33-1.7v-8.28h1.75v11.27h-1.75Z"/><path class="cls-9" d="M268.25,368.78c0-2-1-2.62-2.52-2.62a4.35,4.35,0,0,0-3.34,1.75v8.24h-1.75V364.88h1.75v1.63a5.59,5.59,0,0,1,4-1.91c2.36,0,3.6,1.19,3.6,3.64v7.91h-1.75Z"/><path class="cls-9" d="M278.39,364.6c3.41,0,5.42,2.66,5.42,6v.45h-9.13a4,4,0,0,0,4.06,3.89,4.93,4.93,0,0,0,3.48-1.42l.84,1.14a6.13,6.13,0,0,1-4.48,1.73,5.92,5.92,0,0,1-.19-11.83Zm-3.71,5.2h7.4a3.64,3.64,0,0,0-3.71-3.75A3.77,3.77,0,0,0,274.68,369.8Z"/><path class="cls-9" d="M298.17,374.61c5.6-4.41,8.63-7,8.63-9.68,0-2-1.63-2.85-3.24-2.85a5.18,5.18,0,0,0-4.22,2l-1.19-1.24a6.75,6.75,0,0,1,5.41-2.45c2.59,0,5.23,1.47,5.23,4.58s-3.22,6.06-7.56,9.49h7.63v1.73H298.17Z"/><path class="cls-9" d="M313.36,372.65a5.13,5.13,0,0,0,4.29,2.05,3.36,3.36,0,0,0,3.59-3.34,3.28,3.28,0,0,0-3.57-3.36,4.91,4.91,0,0,0-3.59,1.47l-1.42-.48v-8.4h9.52v1.72h-7.59v5.41a5.3,5.3,0,0,1,3.64-1.39,4.77,4.77,0,0,1,4.95,5c0,3.17-2.4,5.13-5.53,5.13a6.34,6.34,0,0,1-5.48-2.5Z"/><path d="M598.51,323H592l-.92,2.23h-3.41l5.64-12.91h3.9l5.61,12.91h-3.39Zm-5.69-2.38h4.83l-2.4-5.92Z"/><path d="M606.84,316.54v8.67h-3.11V312.3h3.2l6.75,8.36V312.3h3.11v12.91h-3Z"/><path d="M622.34,316.54v8.67h-3.1V312.3h3.19l6.76,8.36V312.3h3.1v12.91h-3Z"/><path d="M641.65,312.08c4.42,0,7.63,2.79,7.63,6.68s-3.21,6.68-7.63,6.68-7.61-2.78-7.61-6.68S637.26,312.08,641.65,312.08Zm0,2.44a4.24,4.24,0,1,0,4.44,4.24A4.13,4.13,0,0,0,641.65,314.52Z"/><path d="M651,312.3h3.14V320c0,1.8,1.12,3,3.39,3s3.35-1.24,3.35-3V312.3h3.15V320c0,3.21-2.08,5.4-6.5,5.4s-6.53-2.2-6.53-5.38Z"/><path d="M669.62,316.54v8.67h-3.1V312.3h3.19l6.76,8.36V312.3h3.1v12.91h-3Z"/><path d="M681.32,318.76c0-4,3.39-6.68,7.66-6.68a6.89,6.89,0,0,1,6.21,3.16l-2.67,1.16a4.08,4.08,0,0,0-3.54-1.88,4.25,4.25,0,1,0,0,8.48,4.05,4.05,0,0,0,3.54-1.87l2.67,1.14a6.92,6.92,0,0,1-6.21,3.17C684.71,325.44,681.32,322.73,681.32,318.76Z"/><path d="M696.61,312.3h10.32v2.36h-7.22v2.81h7.07v2.36h-7.07v3h7.22v2.38H696.61Z"/><path d="M721.6,315.92l-4.11,9.29h-1.35L712,315.92v9.29h-3.11V312.3h4.35l3.54,8.05,3.55-8.05h4.37v12.91H721.6Z"/><path d="M727.18,312.3H737.5v2.36h-7.21v2.81h7.06v2.36h-7.06v3h7.21v2.38H727.18Z"/><path d="M742.6,316.54v8.67h-3.11V312.3h3.2l6.75,8.36V312.3h3.11v12.91h-3Z"/><path d="M758.36,314.72H754.1V312.3h11.63v2.42h-4.24v10.49h-3.13Z"/><path d="M779.36,312.08c4.41,0,7.63,2.79,7.63,6.68s-3.22,6.68-7.63,6.68-7.61-2.78-7.61-6.68S775,312.08,779.36,312.08Zm0,2.44a4.24,4.24,0,1,0,4.44,4.24A4.14,4.14,0,0,0,779.36,314.52Z"/><path d="M788.74,312.3h10.32v2.36h-7.22v2.81h7.07v2.36h-7.07v5.38h-3.1Z"/><path d="M588.51,342c0-4,3.39-6.68,7.66-6.68a6.89,6.89,0,0,1,6.21,3.16l-2.67,1.16a4.07,4.07,0,0,0-3.54-1.88,4.25,4.25,0,1,0,0,8.48,4,4,0,0,0,3.54-1.88l2.67,1.14a6.93,6.93,0,0,1-6.21,3.18C591.9,348.68,588.51,346,588.51,342Z"/><path d="M610.71,335.32c4.42,0,7.63,2.79,7.63,6.68s-3.21,6.68-7.63,6.68-7.61-2.79-7.61-6.68S606.31,335.32,610.71,335.32Zm0,2.44a4.24,4.24,0,1,0,4.44,4.24A4.14,4.14,0,0,0,610.71,337.76Z"/><path d="M630.09,343H623.2v5.42h-3.11V335.53h3.11v5.08h6.89v-5.08h3.12v12.92h-3.12Z"/><path d="M642.55,335.32c4.42,0,7.63,2.79,7.63,6.68s-3.21,6.68-7.63,6.68-7.61-2.79-7.61-6.68S638.15,335.32,642.55,335.32Zm0,2.44A4.24,4.24,0,1,0,647,342,4.14,4.14,0,0,0,642.55,337.76Z"/><path d="M657.31,343.82H655v4.63h-3.11V335.53h6.82c3,0,4.9,1.76,4.9,4.17a3.82,3.82,0,0,1-3.19,3.83l3.28,4.92h-3.56Zm1-5.93H655v3.57h3.26c1.24,0,2.18-.7,2.18-1.78S659.54,337.89,658.3,337.89Z"/><path d="M668.7,338h-4.26v-2.42h11.63V338h-4.24v10.5H668.7Z"/><path class="cls-9" d="M599.39,373H591.5l-1.37,3.45H588l6.25-15.56h2.41l6.27,15.56h-2.14Zm-7.33-1.73h6.75l-3.36-8.66Z"/><path class="cls-9" d="M612.2,374.85a5.54,5.54,0,0,1-4,1.87c-2.35,0-3.59-1.14-3.59-3.59v-8h1.75v7.42c0,2,1,2.57,2.52,2.57a4.33,4.33,0,0,0,3.34-1.71v-8.28H614v11.27H612.2Z"/><path class="cls-9" d="M618.3,378a4.32,4.32,0,0,0,3.67,1.54c1.86,0,3.61-.91,3.61-3.39v-1.61a4.68,4.68,0,0,1-3.78,2c-2.94,0-5-2.19-5-5.83s2.05-5.86,5-5.86a4.68,4.68,0,0,1,3.78,2v-1.7h1.75v10.94c0,3.74-2.61,4.9-5.36,4.9a5.74,5.74,0,0,1-4.55-1.68Zm7.28-9.76a4.14,4.14,0,0,0-3.36-1.82c-2.26,0-3.61,1.8-3.61,4.3S620,375,622.22,375a4.16,4.16,0,0,0,3.36-1.84Z"/><path class="cls-9" d="M638.44,374.85a5.54,5.54,0,0,1-4,1.87c-2.35,0-3.59-1.14-3.59-3.59v-8h1.75v7.42c0,2,1,2.57,2.52,2.57a4.33,4.33,0,0,0,3.34-1.71v-8.28h1.75v11.27h-1.75Z"/><path class="cls-9" d="M643.61,373.69a5.13,5.13,0,0,0,3.71,1.61c1.73,0,2.66-.77,2.66-1.87s-1.37-1.63-2.89-2c-1.91-.44-4.08-.95-4.08-3.29,0-1.75,1.51-3.24,4.2-3.24a5.69,5.69,0,0,1,4.17,1.63l-.81,1.22a4.4,4.4,0,0,0-3.36-1.43c-1.54,0-2.5.7-2.5,1.71s1.28,1.44,2.75,1.79c2,.45,4.23,1,4.23,3.5,0,1.89-1.52,3.41-4.44,3.41A6,6,0,0,1,642.7,375Z"/><path class="cls-9" d="M654.88,374.08v-7.37H653v-1.54h1.87v-3.08h1.75v3.08h2.29v1.54h-2.29v7c0,.84.37,1.45,1.14,1.45a1.67,1.67,0,0,0,1.19-.47l.52,1.31a2.88,2.88,0,0,1-2.1.72C655.72,376.72,654.88,375.76,654.88,374.08Z"/><path class="cls-9" d="M666.92,374.9c5.6-4.41,8.63-7,8.63-9.68,0-2-1.63-2.85-3.24-2.85a5.2,5.2,0,0,0-4.23,2l-1.19-1.24a6.76,6.76,0,0,1,5.42-2.45c2.59,0,5.22,1.47,5.22,4.58s-3.22,6.06-7.56,9.49h7.63v1.73H666.92Z"/><path class="cls-9" d="M682.1,372.94a5.11,5.11,0,0,0,4.29,2.05,3.36,3.36,0,0,0,3.6-3.33,3.28,3.28,0,0,0-3.57-3.36,4.85,4.85,0,0,0-3.59,1.47l-1.43-.49v-8.4h9.52v1.72h-7.58V368a5.24,5.24,0,0,1,3.64-1.4,4.76,4.76,0,0,1,4.94,5c0,3.17-2.4,5.13-5.53,5.13a6.36,6.36,0,0,1-5.48-2.5Z"/><path d="M946,320.58h-2.28v4.63h-3.1V312.3h6.82c3,0,4.9,1.76,4.9,4.16a3.82,3.82,0,0,1-3.2,3.83l3.28,4.92h-3.56Zm1-5.92h-3.26v3.56h3.26c1.25,0,2.19-.7,2.19-1.78S948.18,314.66,946.93,314.66Z"/><path d="M958.26,315.63a5,5,0,0,1,5.29,5.15v.54H955.7c.17,1.18,1.25,2.17,3,2.17a4.68,4.68,0,0,0,2.82-.93l1.22,1.59a7.15,7.15,0,0,1-4.35,1.29c-3.21,0-5.64-1.91-5.64-4.91C952.79,317.81,955,315.63,958.26,315.63Zm-2.6,4h5.2a2.34,2.34,0,0,0-2.6-2.07A2.42,2.42,0,0,0,955.66,319.65Z"/><path d="M965.19,312.3h10.32v2.36H968.3v2.81h7.06v2.36H968.3v5.38h-3.11Z"/><path d="M977.24,312.3h10.32v2.36h-7.22v2.81h7.07v2.36h-7.07v3h7.22v2.38H977.24Z"/><path d="M989.55,312.3h5.75c4.57,0,7.74,2.57,7.74,6.46s-3.17,6.45-7.74,6.45h-5.75Zm5.75,10.49c2.89,0,4.57-1.84,4.57-4s-1.57-4-4.57-4h-2.64v8.07Z"/><path d="M1010,312.3h3.1v10.49h6.17v2.42H1010Z"/><path d="M1021,312.3h10.32v2.36h-7.22v2.81h7.06v2.36h-7.06v3h7.22v2.38H1021Z"/><path d="M1042.58,323h-6.52l-.91,2.23h-3.41l5.64-12.91h3.89l5.62,12.91h-3.39Zm-5.68-2.38h4.83l-2.41-5.92Z"/><path d="M1053.19,320.58h-2.28v4.63h-3.1V312.3h6.82c3,0,4.9,1.76,4.9,4.16a3.82,3.82,0,0,1-3.19,3.83l3.28,4.92h-3.57Zm1-5.92h-3.26v3.56h3.26c1.25,0,2.19-.7,2.19-1.78S1055.42,314.66,1054.17,314.66Z"/><path d="M1064.54,316.54v8.67h-3.11V312.3h3.19l6.76,8.36V312.3h3.11v12.91h-3Z"/><path d="M1076.94,312.3h3.1v12.91h-3.1Z"/><path d="M1085.6,316.54v8.67h-3.11V312.3h3.19l6.76,8.36V312.3h3.1v12.91h-3Z"/><path d="M1105.06,312.08a7.06,7.06,0,0,1,6,2.83l-2.58,1.24a4.39,4.39,0,1,0-3.45,6.85,5.38,5.38,0,0,0,3.15-1v-1.57h-3.9v-2.36h7V323a8.6,8.6,0,0,1-6.21,2.44c-4.27,0-7.76-2.63-7.76-6.7S1100.79,312.08,1105.06,312.08Z"/><path d="M1118.46,312.3h3.11v10.49h6.17v2.42h-9.28Z"/><path d="M1138.76,323h-6.52l-.92,2.23h-3.41l5.64-12.91h3.89l5.62,12.91h-3.39Zm-5.69-2.38h4.83l-2.4-5.92Z"/><path d="M1144,312.3h7.68c2.78,0,4.2,1.56,4.2,3.29a3,3,0,0,1-2.52,3,3.23,3.23,0,0,1,2.8,3.18c0,1.93-1.46,3.48-4.24,3.48H1144Zm7,5.19a1.51,1.51,0,0,0,1.71-1.44c0-.79-.66-1.41-1.71-1.41h-3.89v2.85Zm.11,5.38c1.18,0,1.88-.6,1.88-1.53s-.65-1.51-1.88-1.51h-4v3Z"/><path d="M1168.37,321.94h-2.08l-1.25,3.27h-2l1.24-3.27h-2.1l.57-1.57h2.15l1.18-3.21h-2.15l.55-1.55h2.21l1.22-3.31h2.06l-1.23,3.31h2.06l1.22-3.31h2.08l-1.27,3.31h2.12l-.52,1.55h-2.19l-1.2,3.21h2.21l-.55,1.57h-2.25l-1.22,3.27h-2.08Zm-.29-4.78-1.18,3.21h2l1.21-3.21Z"/><path d="M1175.87,323c6-3.89,7.72-5.23,7.72-6.81,0-1.13-1.16-1.69-2.39-1.69a5.52,5.52,0,0,0-3.89,1.49l-1.77-1.82a7.94,7.94,0,0,1,5.62-2.11c3.1,0,5.58,1.55,5.58,4.13,0,2.2-2.06,4.12-6,6.56h6.07v2.42h-11Z"/><path d="M1203.42,323h-6.52l-.91,2.23h-3.41l5.64-12.91h3.89l5.62,12.91h-3.39Zm-5.68-2.38h4.83l-2.41-5.92Z"/><path d="M1210.62,314.72h-4.27V312.3H1218v2.42h-4.25v10.49h-3.12Z"/><path d="M1228.07,314.72h-4.27V312.3h11.64v2.42h-4.25v10.49h-3.12Z"/><path d="M1247,319.79h-6.89v5.42H1237V312.3h3.1v5.07H1247V312.3h3.13v12.91H1247Z"/><path d="M1252.54,312.3h10.32v2.36h-7.22v2.81h7.07v2.36h-7.07v3h7.22v2.38h-10.32Z"/><path d="M940.15,346.28c6-3.89,7.72-5.23,7.72-6.82,0-1.12-1.16-1.68-2.38-1.68a5.56,5.56,0,0,0-3.9,1.49l-1.77-1.82a8,8,0,0,1,5.62-2.11c3.11,0,5.58,1.55,5.58,4.12,0,2.21-2.06,4.13-6,6.57h6.08v2.42h-11Z"/><path d="M958.59,335.34c4.15,0,6,3.33,6,6.66s-1.88,6.68-6,6.68-6-3.35-6-6.68S954.41,335.34,958.59,335.34Zm0,2.44c-2.1,0-2.89,1.84-2.89,4.22s.79,4.24,2.89,4.24,2.86-1.86,2.86-4.24S960.66,337.78,958.59,337.78Z"/><path d="M969.37,339.08l-2.43,2.18-1.77-1.64,4.59-4.09h2.71v12.92h-3.1Z"/><path d="M976.32,345.27a4.23,4.23,0,0,0,2.91,1,3.54,3.54,0,0,0,3.65-3.72v-.27a5,5,0,0,1-3.76,1.67c-2.62,0-5-1.44-5-4.19,0-2.51,2.27-4.43,5.59-4.43,4.42,0,6.28,3,6.28,6.68,0,3.89-2.47,6.66-6.78,6.66a6.86,6.86,0,0,1-4.29-1.34Zm3.54-7.57c-1.66,0-2.55,1-2.55,1.94,0,1.37,1.29,2,2.69,2a3.92,3.92,0,0,0,2.86-1.2A2.84,2.84,0,0,0,979.86,337.7Z"/><path d="M992.94,335.53h10.32v2.36h-7.21v2.81h7.06v2.36h-7.06v5.39h-3.11Z"/><path d="M1011.9,335.32c4.42,0,7.63,2.79,7.63,6.68s-3.21,6.68-7.63,6.68-7.61-2.79-7.61-6.68S1007.51,335.32,1011.9,335.32Zm0,2.44a4.24,4.24,0,1,0,4.44,4.24A4.14,4.14,0,0,0,1011.9,337.76Z"/><path d="M1028.19,335.32c4.42,0,7.63,2.79,7.63,6.68s-3.21,6.68-7.63,6.68-7.61-2.79-7.61-6.68S1023.8,335.32,1028.19,335.32Zm0,2.44a4.24,4.24,0,1,0,4.44,4.24A4.13,4.13,0,0,0,1028.19,337.76Z"/><path d="M1037.58,335.53h5.75c4.57,0,7.74,2.58,7.74,6.47s-3.17,6.45-7.74,6.45h-5.75Zm5.75,10.5c2.88,0,4.57-1.84,4.57-4s-1.58-4.05-4.57-4.05h-2.65V346Z"/><path d="M1066.59,339.58l-2.53,8.87h-3.3l-4.18-12.92h3.48l2.55,9.34,2.78-9.34h2.43l2.75,9.34,2.54-9.34h3.5l-4.16,12.92h-3.3Z"/><path d="M1086,346.22h-6.52l-.92,2.23h-3.41l5.65-12.92h3.89l5.62,12.92h-3.39Zm-5.69-2.38h4.84l-2.41-5.93Z"/><path d="M1091.74,344.54a6.87,6.87,0,0,0,4.64,1.74c1.7,0,2.54-.72,2.54-1.45,0-1-1.27-1.3-3-1.65-2.38-.48-5.44-1.06-5.44-3.95,0-2.15,2.1-3.89,5.53-3.89a8.79,8.79,0,0,1,5.69,1.8l-1.73,2a6.7,6.7,0,0,0-4.18-1.41c-1.4,0-2.14.54-2.14,1.32s1.22,1.14,2.91,1.49c2.4.48,5.46,1.12,5.46,4,0,2.36-1.9,4.14-5.83,4.14a9,9,0,0,1-6.19-2.05Z"/><path d="M1106.94,338h-4.26v-2.42h11.63V338h-4.24v10.5h-3.13Z"/><path d="M1115.86,335.53h10.33v2.36H1119v2.81H1126v2.36H1119v3h7.22v2.38h-10.33Z"/><path d="M1134,344.54a6.82,6.82,0,0,0,4.63,1.74c1.71,0,2.54-.72,2.54-1.45,0-1-1.27-1.3-3-1.65-2.39-.48-5.45-1.06-5.45-3.95,0-2.15,2.1-3.89,5.53-3.89a8.77,8.77,0,0,1,5.69,1.8l-1.73,2a6.67,6.67,0,0,0-4.17-1.41c-1.4,0-2.15.54-2.15,1.32s1.23,1.14,2.91,1.49c2.41.48,5.47,1.12,5.47,4,0,2.36-1.91,4.14-5.84,4.14a9,9,0,0,1-6.19-2.05Z"/><path d="M1146,335.53h3.15v7.67c0,1.8,1.11,3,3.39,3s3.34-1.24,3.34-3v-7.67h3.15v7.75c0,3.21-2.07,5.4-6.49,5.4s-6.54-2.21-6.54-5.38Z"/><path d="M1174.19,339.15l-4.11,9.3h-1.36l-4.11-9.3v9.3h-3.11V335.53h4.36l3.54,8.06,3.54-8.06h4.37v12.92h-3.12Z"/><path d="M1192.45,339.15l-4.11,9.3H1187l-4.11-9.3v9.3h-3.11V335.53h4.36l3.54,8.06,3.54-8.06h4.37v12.92h-3.12Z"/><path d="M1198,335.53h3.11v12.92H1198Z"/><path d="M1207,338h-4.27v-2.42h11.63V338h-4.24v10.5H1207Z"/><path class="cls-9" d="M948,360.62c4.59,0,7.72,3.45,7.72,8.05s-3.13,8.05-7.72,8.05-7.73-3.45-7.73-8.05S943.42,360.62,948,360.62Zm0,1.73c-3.5,0-5.72,2.68-5.72,6.32S944.54,375,948,375s5.71-2.7,5.71-6.32S951.51,362.35,948,362.35Z"/><path class="cls-9" d="M963.69,364.89a4.84,4.84,0,0,1,4.13,2l-1.17,1.07a3.36,3.36,0,0,0-2.87-1.47c-2.4,0-3.89,1.85-3.89,4.34s1.49,4.37,3.89,4.37a3.41,3.41,0,0,0,2.87-1.47l1.17,1.07a4.84,4.84,0,0,1-4.13,2c-3.36,0-5.62-2.57-5.62-5.93A5.57,5.57,0,0,1,963.69,364.89Z"/><path class="cls-9" d="M970.61,374.08v-7.37h-1.86v-1.54h1.86v-3.08h1.75v3.08h2.29v1.54h-2.29v7c0,.84.38,1.45,1.15,1.45a1.69,1.69,0,0,0,1.19-.47l.51,1.31a2.85,2.85,0,0,1-2.1.72C971.45,376.72,970.61,375.76,970.61,374.08Z"/><path class="cls-9" d="M976.47,370.79c0-3.26,2.15-5.9,5.58-5.9s5.57,2.64,5.57,5.9-2.14,5.93-5.57,5.93S976.47,374.06,976.47,370.79Zm9.31,0c0-2.28-1.33-4.34-3.73-4.34s-3.76,2.06-3.76,4.34,1.35,4.37,3.76,4.37S985.78,373.1,985.78,370.79Z"/><path class="cls-9" d="M990.47,360.88h1.75v6a4.69,4.69,0,0,1,3.8-2c2.94,0,5,2.33,5,5.93s-2.07,5.9-5,5.9a4.73,4.73,0,0,1-3.8-2v1.68h-1.75Zm5.1,14.28c2.29,0,3.64-1.85,3.64-4.34s-1.35-4.37-3.64-4.37a4.17,4.17,0,0,0-3.35,1.82v5.11A4.13,4.13,0,0,0,995.57,375.16Z"/><path class="cls-9" d="M1008.78,364.89c3.4,0,5.41,2.66,5.41,6v.45h-9.12a4,4,0,0,0,4.06,3.89,4.9,4.9,0,0,0,3.47-1.42l.84,1.14a6.11,6.11,0,0,1-4.48,1.73,5.92,5.92,0,0,1-.18-11.83Zm-3.71,5.2h7.39a3.64,3.64,0,0,0-3.71-3.75A3.75,3.75,0,0,0,1005.07,370.09Z"/><path class="cls-9" d="M1017,365.17h1.75V367a4.79,4.79,0,0,1,3.76-2.05v1.79a3.52,3.52,0,0,0-.7-.07,4.12,4.12,0,0,0-3.06,1.8v8H1017Z"/><path class="cls-9" d="M1030.24,374.9c5.6-4.41,8.63-7,8.63-9.68,0-2-1.63-2.85-3.24-2.85a5.2,5.2,0,0,0-4.23,2l-1.19-1.24a6.76,6.76,0,0,1,5.42-2.45c2.58,0,5.22,1.47,5.22,4.58s-3.22,6.06-7.56,9.49h7.63v1.73h-10.68Z"/><path class="cls-9" d="M1047.61,368.41c-1.79-.51-3.45-1.68-3.45-3.73,0-2.8,2.73-4,5.32-4s5.34,1.24,5.34,4c0,2.05-1.68,3.22-3.47,3.73,1.93.59,3.71,2,3.71,4.09,0,2.63-2.52,4.22-5.58,4.22s-5.58-1.56-5.58-4.22C1043.9,370.42,1045.68,369,1047.61,368.41Zm1.87.87c-1,.11-3.64,1-3.64,3,0,1.68,1.7,2.7,3.64,2.7s3.62-1,3.62-2.7C1053.1,370.26,1050.44,369.39,1049.48,369.28Zm0-6.91c-1.89,0-3.38,1-3.38,2.57,0,1.89,2.45,2.52,3.38,2.68,1-.16,3.38-.79,3.38-2.68C1052.86,363.33,1051.35,362.37,1049.48,362.37Z"/><rect class="cls-9" x="61.83" y="146.09" width="0.3" height="39.75"/><circle class="cls-9" cx="61.98" cy="185.79" r="1.13"/><rect class="cls-9" x="235.32" y="256.51" width="0.3" height="39.75"/><circle class="cls-9" cx="235.47" cy="256.56" r="1.13"/><rect class="cls-9" x="414.64" y="146.09" width="0.3" height="39.75"/><circle class="cls-9" cx="414.79" cy="185.79" r="1.13"/><rect class="cls-9" x="588.13" y="256.51" width="0.3" height="39.75"/><circle class="cls-9" cx="588.28" cy="256.56" r="1.13"/><rect class="cls-9" x="767.45" y="146.09" width="0.3" height="39.75"/><path class="cls-9" d="M766.47,185.79a1.13,1.13,0,1,0,1.13-1.13A1.13,1.13,0,0,0,766.47,185.79Z"/><rect class="cls-9" x="940.94" y="256.51" width="0.3" height="39.75"/><circle class="cls-9" cx="941.09" cy="256.56" r="1.13"/><rect class="cls-9" x="1120.26" y="146.09" width="0.3" height="39.75"/><circle class="cls-9" cx="1120.41" cy="185.79" r="1.13"/></svg>