<?xml version="1.0" encoding="utf-8"?>
<!-- Generator: Adobe Illustrator 23.0.3, SVG Export Plug-In . SVG Version: 6.00 Build 0)  -->
<svg version="1.1" id="Layer_1" xmlns="http://www.w3.org/2000/svg" xmlns:xlink="http://www.w3.org/1999/xlink" x="0px" y="0px"
	 viewBox="0 0 125 125" style="enable-background:new 0 0 125 125;" xml:space="preserve">
<style type="text/css">
	.st0{fill:#EFECE4;}
	.st1{fill:#FFFFFF;}
	.st2{fill:#78B4AB;}
	.st3{fill:#DCDDDE;}
	.st4{fill:#F5F3EE;}
	.st5{fill:#36383A;}
	.st6{opacity:0.5;fill:none;stroke:#737678;stroke-miterlimit:10;}
	.st7{opacity:0.7;}
	.st8{fill:none;stroke:#E9E6DA;stroke-miterlimit:10;}
	.st9{fill:#107669;}
	.st10{fill:#E9E6DA;}
	.st11{fill:#CF3339;}
	.st12{fill:#86A55C;}
	.st13{fill:#68813C;}
	.st14{fill:#A12B2F;}
	.st15{fill:#53575A;}
	.st16{fill:#F6F4EF;}
	.st17{fill:none;stroke:#414042;stroke-width:0.3;stroke-miterlimit:10;}
	.st18{fill:#D5E0C6;}
	.st19{fill:#C8D6B4;}
	.st20{fill:#BBCCA2;}
	.st21{fill:#AEC290;}
	.st22{fill:#A1B97F;}
	.st23{fill:#93AF6D;}
	.st24{fill:#414042;}
	.st25{fill:#EFECE4;stroke:#414042;stroke-width:3;stroke-miterlimit:10;}
	.st26{fill:#414042;stroke:#414042;stroke-width:3;stroke-miterlimit:10;}
	.st27{fill:none;stroke:#414042;stroke-width:3;stroke-miterlimit:10;}
	.st28{fill:none;stroke:#414042;stroke-width:3;stroke-miterlimit:10;stroke-dasharray:3.0344,2.0229;}
	.st29{fill:none;stroke:#414042;stroke-width:3;stroke-miterlimit:10;stroke-dasharray:3.029,2.0193;}
	.st30{fill:#53575A;stroke:#53575A;stroke-miterlimit:10;}
	.st31{fill:#6F6F71;}
	.st32{fill:none;stroke:#414042;stroke-width:3;stroke-linecap:round;stroke-miterlimit:10;}
</style>
<circle class="st0" cx="62.5" cy="62.5" r="38"/>
<g>
	<g>
		<path class="st15" d="M68.97,71.76V58.22c0-0.15,0.08-0.3,0.3-0.38l0.53-0.15c2.05-0.53,3.58-2.44,3.58-4.57v-10.5
			c0-3.88-3.12-7-7-7h-7.84c-3.88,0-7,3.12-7,7v10.5c0,2.13,1.45,4.03,3.58,4.57l0.53,0.15c0.15,0.08,0.3,0.15,0.3,0.38v13.55
			c-7.69,1.14-12.86,4.26-12.86,8.14c0,4.87,8.37,8.6,19.41,8.6s19.41-3.65,19.41-8.6C81.83,76.03,76.58,72.9,68.97,71.76z
			 M55.73,55.25c-0.99-0.23-1.6-1.14-1.6-2.13v-10.5c0-2.44,1.98-4.41,4.41-4.41h7.84c2.44,0,4.41,1.98,4.41,4.41v10.5
			c0,0.99-0.68,1.83-1.6,2.13l-0.53,0.15c-1.29,0.3-2.21,1.52-2.21,2.82v18.27c0,0.84-0.68,1.6-1.6,1.6h-4.72
			c-0.84,0-1.6-0.68-1.6-1.6V58.22c0-1.37-0.91-2.51-2.21-2.82L55.73,55.25z M74.75,83.79c-3.27,1.29-7.61,2.05-12.33,2.05
			c-4.64,0-9.06-0.76-12.33-2.05c-2.82-1.14-4.49-2.59-4.49-3.96c0-1.37,1.67-2.82,4.49-3.96c1.67-0.68,3.65-1.22,5.78-1.52v2.13
			c0,2.28,1.83,4.11,4.11,4.11h4.72c2.28,0,4.11-1.83,4.11-4.11v-2.13c2.13,0.38,4.11,0.84,5.78,1.52c2.82,1.14,4.49,2.59,4.49,3.96
			C79.24,81.2,77.57,82.72,74.75,83.79z"/>
		<path class="st15" d="M62.5,89.01c-11.35,0-19.91-3.91-19.91-9.1c0-4.04,4.92-7.31,12.86-8.57V58.3c-0.01,0-0.02-0.01-0.03-0.01
			l-0.45-0.12c-2.31-0.58-3.94-2.65-3.94-5.05v-10.5c0-4.14,3.37-7.5,7.5-7.5h7.84c4.14,0,7.5,3.37,7.5,7.5v10.5
			c0,2.33-1.66,4.46-3.95,5.05l-0.46,0.13v13.04c7.92,1.27,12.86,4.54,12.94,8.56C82.41,85.18,74.04,89.01,62.5,89.01z M58.54,36.11
			c-3.58,0-6.5,2.92-6.5,6.5v10.5c0,1.93,1.32,3.61,3.2,4.08l0.55,0.16c0.26,0.12,0.67,0.32,0.67,0.86v13.98l-0.43,0.06
			c-7.55,1.12-12.44,4.12-12.44,7.65c0,4.54,8.31,8.1,18.91,8.1c10.78,0,18.91-3.48,18.91-8.1c-0.07-3.51-4.98-6.52-12.51-7.65
			l-0.43-0.06V58.22c0-0.4,0.24-0.72,0.65-0.86l0.55-0.16c1.87-0.48,3.22-2.2,3.22-4.09v-10.5c0-3.58-2.92-6.5-6.5-6.5H58.54z
			 M62.42,86.34c-4.66,0-9.1-0.74-12.51-2.09c-3.1-1.26-4.81-2.83-4.81-4.42s1.71-3.17,4.8-4.42c1.74-0.71,3.79-1.25,5.9-1.55
			l0.57-0.08v2.71c0,1.99,1.62,3.61,3.61,3.61h4.72c2.02,0,3.61-1.59,3.61-3.61v-2.73l0.59,0.11c2.57,0.46,4.39,0.94,5.89,1.55
			c3.1,1.25,4.8,2.83,4.8,4.42c0.18,1.58-1.56,3.25-4.66,4.42C71.52,85.6,67.08,86.34,62.42,86.34z M55.38,74.93
			c-1.83,0.3-3.58,0.78-5.09,1.4c-2.58,1.04-4.18,2.38-4.18,3.5c0,1.11,1.6,2.45,4.18,3.49c3.24,1.28,7.67,2.02,12.14,2.02
			c4.54,0,8.85-0.72,12.15-2.02l0.01,0c2.53-0.96,4.14-2.34,4.02-3.43c0-1.17-1.6-2.51-4.18-3.55c-1.32-0.54-2.91-0.97-5.1-1.38
			v1.53c0,2.54-2.07,4.61-4.61,4.61h-4.72c-2.54,0-4.61-2.07-4.61-4.61V74.93z M64.86,78.58h-4.72c-1.16,0-2.1-0.94-2.1-2.1V58.22
			c0-1.12-0.75-2.08-1.82-2.33l-0.61-0.15c-1.17-0.27-1.98-1.35-1.98-2.62v-10.5c0-2.71,2.2-4.92,4.91-4.92h7.84
			c2.71,0,4.92,2.21,4.92,4.92v10.5c0,1.17-0.78,2.22-1.94,2.61l-0.55,0.16c-1.06,0.25-1.84,1.25-1.84,2.34v18.27
			C66.96,77.64,66.02,78.58,64.86,78.58z M58.54,38.7c-2.16,0-3.91,1.76-3.91,3.92v10.5c0,0.8,0.5,1.48,1.21,1.64l0.62,0.15
			c1.52,0.36,2.59,1.72,2.59,3.3v18.27c0,0.66,0.57,1.1,1.1,1.1h4.72c0.66,0,1.1-0.57,1.1-1.1V58.22c0-1.56,1.09-2.95,2.59-3.3
			l0.51-0.15c0.73-0.25,1.24-0.91,1.24-1.65v-10.5c0-2.16-1.76-3.92-3.92-3.92H58.54z"/>
	</g>
	<g>
		<path class="st15" d="M62.42,33.86c4.87,0,8.83-3.96,8.83-8.83s-3.96-8.9-8.83-8.9s-8.83,3.96-8.83,8.83S57.55,33.86,62.42,33.86z
			 M62.42,18.71c3.5,0,6.32,2.82,6.32,6.32s-2.82,6.32-6.32,6.32s-6.32-2.82-6.32-6.32S58.92,18.71,62.42,18.71z"/>
		<path class="st15" d="M62.42,34.36c-5.14,0-9.33-4.22-9.33-9.41c0-5.14,4.18-9.33,9.33-9.33c5.14,0,9.33,4.22,9.33,9.4
			C71.75,30.18,67.57,34.36,62.42,34.36z M62.42,16.63c-4.59,0-8.33,3.74-8.33,8.33c0,4.63,3.74,8.41,8.33,8.41
			c4.59,0,8.33-3.74,8.33-8.33C70.75,20.4,67.02,16.63,62.42,16.63z M62.42,31.85c-3.76,0-6.82-3.06-6.82-6.82s3.06-6.82,6.82-6.82
			c3.76,0,6.82,3.06,6.82,6.82S66.18,31.85,62.42,31.85z M62.42,19.22c-3.21,0-5.82,2.61-5.82,5.82c0,3.21,2.61,5.82,5.82,5.82
			c3.21,0,5.82-2.61,5.82-5.82C68.24,21.82,65.63,19.22,62.42,19.22z"/>
	</g>
</g>
</svg>
