<svg version="1.1" xmlns="http://www.w3.org/2000/svg" xmlns:xlink="http://www.w3.org/1999/xlink" x="0px" y="0px"
	 viewBox="0 0 175 175" enable-background="new 0 0 175 175" xml:space="preserve">
	<g id="innovation-icon-group">
		<g>
			<circle fill="#E9AE6C" cx="87.5" cy="87.5" r="86.625"/>
			<g>
				<path fill="#F7F4EE" d="M69.201,70.758c-1.219,0-2.361-0.752-2.804-1.965c-0.565-1.548,0.234-3.262,1.784-3.824l20.689-7.529
					H70.32c-1.65,0-2.985-1.335-2.985-2.985c0-1.65,1.335-2.985,2.985-2.985h35.479c1.446,0,2.688,1.041,2.938,2.466
					c0.25,1.428-0.554,2.827-1.918,3.323L70.221,70.578C69.883,70.7,69.539,70.758,69.201,70.758z"/>
				<path fill="#F7F4EE" d="M69.201,81.35c-1.219,0-2.361-0.752-2.804-1.965c-0.565-1.548,0.234-3.262,1.784-3.824l35.52-12.927
					c1.551-0.569,3.259,0.237,3.824,1.784c0.565,1.548-0.234,3.262-1.784,3.824L70.221,81.17
					C69.883,81.292,69.539,81.35,69.201,81.35z"/>
				<path fill="#F7F4EE" d="M69.201,91.748c-1.219,0-2.361-0.752-2.804-1.965c-0.565-1.548,0.234-3.262,1.784-3.824l35.52-12.927
					c1.551-0.569,3.259,0.236,3.824,1.783c0.565,1.548-0.234,3.262-1.784,3.824l-35.52,12.928
					C69.883,91.689,69.539,91.748,69.201,91.748z"/>
				<path fill="#F7F4EE" d="M69.201,102.142c-1.219,0-2.361-0.752-2.804-1.965c-0.565-1.548,0.234-3.262,1.784-3.824l35.52-12.928
					c1.551-0.562,3.259,0.234,3.824,1.784c0.565,1.548-0.234,3.262-1.784,3.824l-35.52,12.927
					C69.883,102.083,69.539,102.142,69.201,102.142z"/>
				<path fill="#F7F4EE" d="M94.805,135.171H77.724c-1.65,0-2.985-1.335-2.985-2.985c0-1.65,1.335-2.985,2.985-2.985h17.081
					c1.65,0,2.985,1.335,2.985,2.985C97.789,133.837,96.455,135.171,94.805,135.171z"/>
				<path fill="#F7F4EE" d="M95.364,127.211H77.17c-4.058,0-7.363-3.306-7.363-7.366v-1.104c0-4.064,3.305-7.369,7.363-7.369h18.194
					c4.057,0,7.363,3.305,7.363,7.369v1.104C102.727,123.906,99.421,127.211,95.364,127.211z M77.17,117.342
					c-0.769,0-1.393,0.626-1.393,1.399v1.104c0,0.769,0.624,1.396,1.393,1.396h18.194c0.769,0,1.393-0.627,1.393-1.396v-1.104
					c0-0.773-0.624-1.399-1.393-1.399H77.17z"/>
				<path fill="#F7F4EE" d="M94.805,142.575H77.724c-1.65,0-2.985-1.335-2.985-2.985c0-1.65,1.335-2.985,2.985-2.985h17.081
					c1.65,0,2.985,1.335,2.985,2.985C97.789,141.24,96.455,142.575,94.805,142.575z"/>
				<g>
					<path fill="#F7F4EE" d="M77.316,117.342c-1.043,0-2.058-0.551-2.606-1.527l-8.115-14.495c-0.804-1.437-0.292-3.256,1.148-4.063
						c1.428-0.796,3.253-0.289,4.063,1.148l8.115,14.495c0.804,1.437,0.292,3.256-1.148,4.064
						C78.313,117.22,77.811,117.342,77.316,117.342z"/>
					<path fill="#F7F4EE" d="M93.47,117.342c-0.495,0-0.997-0.122-1.458-0.379c-1.439-0.807-1.953-2.627-1.148-4.064l10.668-19.062
						c0.804-1.443,2.63-1.953,4.064-1.148c1.439,0.807,1.953,2.626,1.148,4.063l-10.668,19.063
						C95.527,116.791,94.513,117.342,93.47,117.342z"/>
				</g>
				<g>
					<path fill="#F7F4EE" d="M87.5,36.577c-1.65,0-2.985-1.335-2.985-2.985V23.469c0-1.65,1.335-2.985,2.985-2.985
						s2.985,1.335,2.985,2.985v10.123C90.485,35.242,89.15,36.577,87.5,36.577z"/>
					<path fill="#F7F4EE" d="M65.791,42.395c-1.032,0-2.035-0.537-2.583-1.492l-5.06-8.768c-0.828-1.428-0.338-3.253,1.09-4.078
						c1.433-0.825,3.253-0.335,4.075,1.093l5.06,8.768c0.828,1.428,0.338,3.253-1.09,4.078
						C66.811,42.266,66.298,42.395,65.791,42.395z"/>
					<path fill="#F7F4EE" d="M49.9,58.283c-0.507,0-1.02-0.128-1.492-0.399l-8.762-5.06c-1.428-0.825-1.918-2.65-1.09-4.078
						c0.816-1.428,2.653-1.906,4.075-1.093l8.762,5.06c1.428,0.825,1.918,2.65,1.09,4.078C51.935,57.749,50.926,58.283,49.9,58.283z"
						/>
					<path fill="#F7F4EE" d="M44.088,79.992H33.962c-1.65,0-2.985-1.335-2.985-2.985c0-1.65,1.335-2.985,2.985-2.985h10.126
						c1.65,0,2.985,1.335,2.985,2.985C47.072,78.657,45.738,79.992,44.088,79.992z"/>
					<path fill="#F7F4EE" d="M41.138,106.758c-1.026,0-2.035-0.534-2.583-1.492c-0.828-1.428-0.338-3.253,1.09-4.078l8.762-5.06
						c1.422-0.828,3.253-0.341,4.075,1.093c0.828,1.428,0.338,3.253-1.09,4.078l-8.762,5.06
						C42.158,106.63,41.645,106.758,41.138,106.758z"/>
					<path fill="#F7F4EE" d="M133.862,106.758c-0.507,0-1.02-0.128-1.492-0.399l-8.762-5.06c-1.428-0.825-1.918-2.65-1.09-4.078
						c0.822-1.431,2.653-1.912,4.075-1.093l8.762,5.06c1.428,0.825,1.918,2.65,1.09,4.078
						C135.897,106.225,134.888,106.758,133.862,106.758z"/>
					<path fill="#F7F4EE" d="M141.039,79.992h-10.126c-1.65,0-2.985-1.335-2.985-2.985c0-1.65,1.335-2.985,2.985-2.985h10.126
						c1.65,0,2.985,1.335,2.985,2.985C144.023,78.657,142.689,79.992,141.039,79.992z"/>
					<path fill="#F7F4EE" d="M125.1,58.283c-1.026,0-2.034-0.534-2.583-1.492c-0.828-1.428-0.338-3.253,1.09-4.078l8.762-5.06
						c1.423-0.822,3.253-0.341,4.075,1.093c0.828,1.428,0.338,3.253-1.09,4.078l-8.762,5.06
						C126.12,58.155,125.608,58.283,125.1,58.283z"/>
					<path fill="#F7F4EE" d="M109.209,42.395c-0.507,0-1.02-0.128-1.492-0.399c-1.428-0.825-1.918-2.65-1.09-4.078l5.061-8.768
						c0.822-1.425,2.652-1.906,4.075-1.093c1.428,0.825,1.918,2.65,1.09,4.078l-5.061,8.768
						C111.244,41.858,110.235,42.395,109.209,42.395z"/>
				</g>
			</g>
		</g>
	</g>
</svg>
