<svg version="1.1" xmlns="http://www.w3.org/2000/svg" xmlns:xlink="http://www.w3.org/1999/xlink" x="0px" y="0px"
	 viewBox="0 0 174.999 175" enable-background="new 0 0 174.999 175" xml:space="preserve">
<g id="bottom">
	<g>
		<circle fill="#922A46" cx="87.5" cy="87.5" r="86.625"/>
		<g>
			<path fill="#F7F4EE" d="M74.436,120.134c-1.65,0-2.985-1.335-2.985-2.985V57.849c0-1.65,1.335-2.985,2.985-2.985
				c1.65,0,2.985,1.335,2.985,2.985v59.301C77.42,118.8,76.085,120.134,74.436,120.134z"/>
			<path fill="#F7F4EE" d="M87.768,120.134c-1.65,0-2.985-1.335-2.985-2.985V57.849c0-1.65,1.335-2.985,2.985-2.985
				s2.985,1.335,2.985,2.985v59.301C90.752,118.8,89.417,120.134,87.768,120.134z"/>
			<path fill="#F7F4EE" d="M101.105,120.134c-1.65,0-2.985-1.335-2.985-2.985V57.849c0-1.65,1.335-2.985,2.985-2.985
				s2.985,1.335,2.985,2.985v59.301C104.09,118.8,102.755,120.134,101.105,120.134z"/>
			<path fill="#F7F4EE" d="M105.07,51.521H70.472c-1.65,0-2.985-1.335-2.985-2.985c0-1.65,1.335-2.985,2.985-2.985h34.598
				c1.65,0,2.985,1.335,2.985,2.985C108.055,50.186,106.72,51.521,105.07,51.521z"/>
			<path fill="#F7F4EE" d="M111.016,41.631H64.52c-1.65,0-2.985-1.335-2.985-2.985c0-1.65,1.335-2.985,2.985-2.985h46.497
				c1.65,0,2.985,1.335,2.985,2.985C114.001,40.296,112.666,41.631,111.016,41.631z"/>
			<path fill="#F7F4EE" d="M104.527,51.521H69.929c-1.65,0-2.985-1.335-2.985-2.985c0-1.65,1.335-2.985,2.985-2.985h34.598
				c1.65,0,2.985,1.335,2.985,2.985C107.512,50.186,106.177,51.521,104.527,51.521z"/>
			<path fill="#F7F4EE" d="M110.48,41.631H63.983c-1.65,0-2.985-1.335-2.985-2.985c0-1.65,1.335-2.985,2.985-2.985h46.497
				c1.65,0,2.985,1.335,2.985,2.985C113.464,40.296,112.13,41.631,110.48,41.631z"/>
			<path fill="#F7F4EE" d="M104.527,129.447H69.929c-1.65,0-2.985-1.335-2.985-2.985c0-1.65,1.335-2.985,2.985-2.985h34.598
				c1.65,0,2.985,1.335,2.985,2.985C107.512,128.112,106.177,129.447,104.527,129.447z"/>
			<path fill="#F7F4EE" d="M110.48,139.337H63.983c-1.65,0-2.985-1.335-2.985-2.985s1.335-2.985,2.985-2.985h46.497
				c1.65,0,2.985,1.335,2.985,2.985S112.13,139.337,110.48,139.337z"/>
		</g>
	</g>
</g>
<g id="pie_layer">
</g>
<g id="Pie_Layer_2" display="none">
</g>
<g id="meals_saved" display="none">
</g>
<g id="consumer_ed_hover" display="none">
</g>
<g id="pop_up" display="none">
</g>
<g id="Layer_2">
</g>
</svg>
