<svg xmlns="http://www.w3.org/2000/svg" viewBox="0 0 300 300"><defs><style>.cls-1{fill:#008574;}.cls-2{fill:#fff;}</style></defs><g id="Layer_2" data-name="Layer 2"><g id="Layer_1-2" data-name="Layer 1"><circle class="cls-1" cx="150" cy="150" r="150"/><g id="Group_1339" data-name="Group 1339"><g id="Path_1397" data-name="Path 1397"><path class="cls-2" d="M91.73,215.24l-4-9.19c.58-.25,14.73-6.74,11.73-22.84-.94-5-2.92-6.54-6.21-9-4.62-3.5-10.36-7.85-12.77-21.36-.94-5.27-2.89-8.81-5.82-10.53-4.12-2.43-9.41-.8-9.46-.78L62,132.05c1-.34,9.73-3.12,17.78,1.62,5.55,3.27,9.11,9.12,10.59,17.39,1.72,9.66,5.07,12.2,9,15.15,3.72,2.82,8.36,6.33,10,15.17C112.91,200.62,99.39,211.94,91.73,215.24Z"/></g><g id="Group_1338" data-name="Group 1338"><g id="Path_1398" data-name="Path 1398"><path class="cls-2" d="M138.63,236.27l-9.87-1.62c.05-.32,5.48-31.16,45.52-32.17,11.73-.3,19.45-2.7,22.3-6.92,3.14-4.66.38-12-1.45-16.91l-.28-.75c-3.06-8.22-11.18-30.07,12-44.86a28.91,28.91,0,0,1,36.63,4.06l-7.18,7a18.93,18.93,0,0,0-24-2.63c-14.41,9.21-12.37,21.3-8,33l.27.73c2.23,6,6.39,17.07.37,26-4.87,7.22-14.8,10.93-30.34,11.33C143,213.27,138.8,235.33,138.63,236.27Z"/></g><g id="Path_1399" data-name="Path 1399"><path class="cls-2" d="M134.9,144.22a47.76,47.76,0,0,1-14.72-2.68l-.36-.12a37.54,37.54,0,0,1-23.35-34.89c0-19.42,15.52-41.14,16.18-42l8.11,5.85h0c-.23.33-14.28,20.09-14.28,36.21a27.54,27.54,0,0,0,17,25.55c13.5,4.35,21.89,2,28.92-8.16a52.5,52.5,0,0,0,5.9-12.26c3.12-8.38,6.66-17.88,22.88-17.88,5.95,0,12.08,3.29,18.57,6.77s13.55,7.27,17.86,5.83c1.93-.64,3.57-2.47,5-5.58l9.08,4.2c-2.62,5.66-6.28,9.32-10.9,10.86-8.41,2.82-17.64-2.13-25.77-6.5-5.11-2.74-10.4-5.58-13.84-5.58-9.27,0-10.51,3.33-13.51,11.37a62.43,62.43,0,0,1-7,14.46C152.75,140.93,143.49,144.22,134.9,144.22Z"/></g><g id="Ellipse_441" data-name="Ellipse 441"><path class="cls-2" d="M151.09,243.79A95.13,95.13,0,0,1,129.41,56.07l1.15,4.87-1.15-4.87a95.12,95.12,0,1,1,21.68,187.72Zm.34-180.29a86.05,86.05,0,0,0-19.72,2.3,84.75,84.75,0,1,0,19.72-2.3Z"/></g></g></g></g></g></svg>