<svg xmlns="http://www.w3.org/2000/svg" viewBox="0 0 300 300"><defs><style>.cls-1{fill:#00d1c3;}.cls-2{fill:#fff;}</style></defs><g id="Layer_2" data-name="Layer 2"><g id="Layer_1-2" data-name="Layer 1"><circle class="cls-1" cx="150" cy="150" r="150"/><path class="cls-2" d="M145.24,223.92V210.55c-21.63-1.63-36.43-15.34-37-34.39l-.09-3.09H118.7l.06,3c.3,13.63,10.4,22.88,26.48,24.37V154c-14-2-34.11-5.59-34.11-30.11,0-18.87,13.66-32.59,34.11-34.45V76.08h10.5V89.7c19.37,2,32.67,15.17,33.22,33.06l.09,3.1H178.56l-.1-2.91c-.41-12.68-8.87-21.22-22.72-23v45c15.57,2.2,36.08,5.64,36.08,30.29,0,19.4-14.12,33.16-36.08,35.32v13.43Zm10.5-23.6c15.94-1.81,25.4-11.13,25.4-25.14,0-13.19-8.2-17-25.4-19.72ZM145.24,99.68c-14.71,1.68-23.44,10.67-23.44,24.24,0,13.06,8.57,17.2,23.44,19.56Z"/></g></g></svg>