<svg xmlns="http://www.w3.org/2000/svg" viewBox="0 0 600 600"><defs><style>.cls-1{fill:#479d92;}.cls-2{fill:#fff;}</style></defs><g id="Layer_2" data-name="Layer 2"><g id="Layer_1-2" data-name="Layer 1"><g id="Ellipse_83" data-name="Ellipse 83"><circle class="cls-1" cx="300" cy="300" r="300"/></g><g id="Group_817" data-name="Group 817"><g id="Group_810" data-name="Group 810"><g id="Path_1210" data-name="Path 1210"><path class="cls-2" d="M265.05,434.11c-43.49,0-78.87-32.22-78.87-71.82v-.17a71.1,71.1,0,0,1,12.41-38.51c14-21.8,17.55-56.63,17.86-60a47.85,47.85,0,0,1,47.84-47.52h0a48,48,0,0,1,47.45,41.73l0,.18c0,.42,4.48,42.06,21.25,67.81a66.23,66.23,0,0,1,10.92,36.45C343.93,401.89,308.54,434.11,265.05,434.11Zm-64.87-71.74c0,31.85,29.13,57.74,64.87,57.74s64.88-25.94,64.88-57.82a52.3,52.3,0,0,0-8.63-28.78v0c-18.39-28.21-23.14-71-23.45-73.93a33.91,33.91,0,0,0-33.55-29.43h0A33.85,33.85,0,0,0,230.45,264l0,.58c-.14,1.67-3.61,41-20.11,66.71l-.12.18A57.14,57.14,0,0,0,200.18,362.37Z"/></g><g id="Ellipse_212" data-name="Ellipse 212"><path class="cls-2" d="M259,231c-10.33,0-23.43-8.37-33.57-19.3-6.81-7.34-12-15.46-14.76-22.87-4.62-12.65-.45-19,2.45-21.74,10.26-9.52,29.69.64,43.57,15.6,6.81,7.34,12.05,15.46,14.76,22.87,4.62,12.65.44,19-2.45,21.74A14.26,14.26,0,0,1,259,231Zm-36.31-53.59c-.75,2.43,1.9,12.8,13,24.77s21.25,15.37,23.74,14.8c.75-2.43-1.9-12.8-13-24.77S225.13,176.79,222.64,177.37Z"/></g><g id="Path_1211" data-name="Path 1211"><path class="cls-2" d="M260.1,221c-.1-2-2.36-50.18,24.71-66L291.88,167c-16.36,9.59-18.39,41.67-17.8,53.22Z"/></g></g><g id="Line_564" data-name="Line 564"><rect class="cls-2" x="326.34" y="231.53" width="108.29" height="14"/></g><g id="Line_565" data-name="Line 565"><rect class="cls-2" x="346.83" y="275.44" width="87.81" height="14"/></g><g id="Line_566" data-name="Line 566"><rect class="cls-2" x="361.47" y="319.34" width="73.17" height="14"/></g><g id="Line_567" data-name="Line 567"><rect class="cls-2" x="373.17" y="363.24" width="61.46" height="14"/></g></g></g></g></svg>