<svg xmlns="http://www.w3.org/2000/svg" viewBox="0 0 600 600"><defs><style>.cls-1{fill:#0092b7;}.cls-2{fill:#fff;}</style></defs><g id="Layer_2" data-name="Layer 2"><g id="Layer_1-2" data-name="Layer 1"><g id="Ellipse_234" data-name="Ellipse 234"><circle class="cls-1" cx="300" cy="300" r="300"/></g><g id="Group_862" data-name="Group 862"><g id="Group_412" data-name="Group 412"><g id="Path_945" data-name="Path 945"><path class="cls-2" d="M341.48,424.51H258.65l-1.37-5.21c-3.35-12.63-13.31-47.54-19.52-58.52a247.07,247.07,0,0,1-14-21.55l-.35-.68c-.56-1.26-1.1-2.57-1.63-3.89a90.74,90.74,0,0,1-6.37-33.48,88.49,88.49,0,0,1,87.19-89.49h.19a88.51,88.51,0,0,1,87.26,89.53,90.21,90.21,0,0,1-6.36,33.43c-.51,1.31-1.07,2.64-1.65,3.93l-.33.65a251.81,251.81,0,0,1-14,21.55c-6.22,11-16.18,45.89-19.52,58.52l-1.38,5.21Zm-72.08-14h66.73c3.53-12.8,12.86-45.31,19.7-57.07l.39-.59a237.52,237.52,0,0,0,13.21-20.3c.44-1,.86-2,1.26-3a76.49,76.49,0,0,0,5.39-28.38,73.35,73.35,0,1,0-146.64-.1v.1a76.47,76.47,0,0,0,5.39,28.36c.4,1,.83,2.06,1.27,3.06a235.79,235.79,0,0,0,13.21,20.29l.38.6C256.53,365.2,265.87,397.71,269.4,410.51Z"/></g></g><g id="Line_424" data-name="Line 424"><rect class="cls-2" x="263.45" y="440.93" width="78.6" height="14"/></g><g id="Line_425" data-name="Line 425"><rect class="cls-2" x="271.83" y="469.31" width="61.86" height="14"/></g></g><g id="Line_582" data-name="Line 582"><rect class="cls-2" x="295.76" y="123.69" width="14" height="58.63"/></g><g id="Line_583" data-name="Line 583"><rect class="cls-2" x="366.84" y="174.09" width="58.63" height="14" transform="translate(16.75 395.06) rotate(-53.99)"/></g><g id="Line_584" data-name="Line 584"><rect class="cls-2" x="199.98" y="155.27" width="14" height="58.62" transform="translate(-70.12 195.72) rotate(-44.03)"/></g></g></g></svg>