<svg xmlns="http://www.w3.org/2000/svg" viewBox="0 0 600 600"><defs><style>.cls-1{fill:#0092b7;}.cls-2{fill:#fff;}</style></defs><g id="Layer_2" data-name="Layer 2"><g id="Layer_1-2" data-name="Layer 1"><g id="Ellipse_442" data-name="Ellipse 442"><circle class="cls-1" cx="300" cy="300" r="300"/></g><g id="Group_1345" data-name="Group 1345"><g id="Group_813-2" data-name="Group 813-2"><g id="Group_805-2" data-name="Group 805-2"><g id="Ellipse_203-2" data-name="Ellipse 203-2"><path class="cls-2" d="M336,359.63A107.89,107.89,0,1,1,443.92,251.74,108,108,0,0,1,336,359.63Zm0-201.77a93.89,93.89,0,1,0,93.89,93.88A94,94,0,0,0,336,157.86Z"/></g><g id="Line_548-2" data-name="Line 548-2"><rect class="cls-2" x="129.4" y="382.03" width="163.06" height="14" transform="translate(-213.31 263.11) rotate(-45)"/></g><g id="Rectangle_1127-2" data-name="Rectangle 1127-2"><rect class="cls-2" x="131.56" y="399.32" width="111.18" height="24.71" transform="translate(-236.28 252.91) rotate(-45)"/></g></g></g><g id="Group_1412" data-name="Group 1412"><g id="Path_1418" data-name="Path 1418"><path class="cls-2" d="M381,257.46h-7.79v-9H381a12.45,12.45,0,0,0,0-24.9H289.33a12.45,12.45,0,0,0,0,24.9h7.79v9h-7.79a21.45,21.45,0,0,1,0-42.9H381a21.45,21.45,0,0,1,0,42.9Z"/></g><g id="Line_725" data-name="Line 725"><rect class="cls-2" x="361.89" y="217.69" width="9" height="132.22"/></g><g id="Line_726" data-name="Line 726"><rect class="cls-2" x="341.43" y="217.69" width="9" height="132.22"/></g><g id="Line_727" data-name="Line 727"><rect class="cls-2" x="320.97" y="217.69" width="9" height="132.22"/></g><g id="Line_728" data-name="Line 728"><rect class="cls-2" x="300.51" y="217.69" width="9" height="132.22"/></g></g></g></g></g></svg>