<svg xmlns="http://www.w3.org/2000/svg" viewBox="0 0 600 600"><defs><style>.cls-1{fill:#00d1c3;}.cls-2{fill:#fff;}</style></defs><g id="Layer_2" data-name="Layer 2"><g id="Layer_1-2" data-name="Layer 1"><g id="Ellipse_84" data-name="Ellipse 84"><circle class="cls-1" cx="300" cy="300" r="300"/></g><g id="Group_814" data-name="Group 814"><g id="Path_1212" data-name="Path 1212"><path class="cls-2" d="M264.78,249.15V210.54c12.33,1.22,20.14,8.72,20.51,19.86l0,1.4h6.53l-.05-1.5c-.44-14.43-11.25-24.75-27-26v-11h-6.53v10.83c-16.66,1.13-27.76,11.87-27.76,27.1,0,19,15.08,21.79,27.76,23.64v39.67c-14.11-.92-23.3-9-23.56-20.9l0-1.42h-6.54l0,1.49c.44,15.36,12.46,26.11,30.09,27.08v10.81h6.53V300.75c17.89-1.41,29.38-12.21,29.38-27.82C294.15,253.82,278.81,251.12,264.78,249.15Zm0,6.56c13.75,2,22.69,4.7,22.69,17.22,0,12.21-8.65,20.37-22.69,21.56Zm-27.61-24.5c0-11.87,8-19.76,21.09-20.84v37.92c-11.69-1.71-21.09-4.54-21.09-17.07Z"/><path class="cls-2" d="M266.78,313.59H256.25V302.64c-17.64-1.7-29.64-13.11-30.09-28.88l-.09-3.55h10.55l.07,3.38c.23,10.23,7.66,17.28,19.56,18.74V256.58c-11.67-1.74-27.76-5.06-27.76-25.36,0-15.62,11.08-27.06,27.76-28.93v-11h10.53v11.18c15.81,2,26.59,13,27,27.77l.11,3.56H283.4l-.11-3.34c-.31-9.44-6.43-15.91-16.51-17.63v34.58c12.92,1.86,29.37,5.06,29.38,25.52,0,16.07-11.47,27.54-29.38,29.63Zm-6.53-4h2.53V298.9l1.84-.15c17-1.33,27.54-11.23,27.54-25.82,0-16.59-12-19.59-27.65-21.8l-1.73-.25V208.34l2.2.21c13.16,1.3,21.65,9.42,22.29,21.25h2.53c-.67-13.14-10.49-22.35-25.18-23.53l-1.84-.15V195.29h-2.53V206l-1.86.13c-15.73,1.07-25.9,10.93-25.9,25.11,0,16.51,11.8,19.58,26.05,21.66l1.71.25v43.53l-2.13-.14c-15-1-24.86-9.7-25.41-22.31h-2.53c.68,14,11.68,23.66,28.18,24.57l1.89.11Zm2.53-12.92V253.39l2.3.34c13.34,2,24.39,4.81,24.39,19.2,0,13.25-9.39,22.27-24.52,23.56Zm4-38.62v34.2c11.75-1.7,18.69-8.8,18.69-19.32C285.47,263.13,279.68,260.17,266.78,258.05Zm-6.52-7.45-2.29-.33c-11-1.62-22.8-4.55-22.8-19.05h0c0-12.91,8.78-21.66,22.92-22.83l2.17-.18Zm-4-38c-10.75,1.63-17.09,8.46-17.09,18.6h0c0,9.66,6,12.85,17.09,14.73Z"/></g><g id="Group_813" data-name="Group 813"><g id="Group_805" data-name="Group 805"><g id="Ellipse_203" data-name="Ellipse 203"><path class="cls-2" d="M261.87,359.63A107.89,107.89,0,1,1,369.76,251.74,108,108,0,0,1,261.87,359.63Zm0-201.78a93.89,93.89,0,1,0,93.89,93.89A94,94,0,0,0,261.87,157.85Z"/></g><g id="Line_548" data-name="Line 548"><rect class="cls-2" x="379.97" y="307.5" width="14" height="163.06" transform="translate(-161.74 387.57) rotate(-45)"/></g><g id="Rectangle_1127" data-name="Rectangle 1127"><rect class="cls-2" x="398.39" y="356.09" width="24.71" height="111.18" transform="translate(-170.8 411.02) rotate(-45)"/></g></g></g></g></g></g></svg>