<svg xmlns="http://www.w3.org/2000/svg" viewBox="0 0 600 600"><defs><style>.cls-1{fill:#00b982;}.cls-2{fill:#fff;}</style></defs><g id="Layer_2" data-name="Layer 2"><g id="Layer_1-2" data-name="Layer 1"><g id="Ellipse_129" data-name="Ellipse 129"><circle class="cls-1" cx="300" cy="300" r="300"/></g><g id="Group_811" data-name="Group 811"><g id="Rectangle_1129" data-name="Rectangle 1129"><path class="cls-2" d="M415.65,449.7H186.17V155.25H415.65Zm-215.48-14H401.65V169.25H200.17Z"/></g><g id="Rectangle_1130" data-name="Rectangle 1130"><path class="cls-2" d="M386.83,244.32H214V186.94H386.83ZM228,230.32H372.83V200.94H228Z"/></g><g id="Rectangle_1131" data-name="Rectangle 1131"><path class="cls-2" d="M386.92,304.62H338.79V256.49h48.13Zm-34.13-14h20.13V270.49H352.79Z"/></g><g id="Rectangle_1132" data-name="Rectangle 1132"><path class="cls-2" d="M386.92,361H338.79V312.88h48.13Zm-34.13-14h20.13V326.88H352.79Z"/></g><g id="Rectangle_1133" data-name="Rectangle 1133"><path class="cls-2" d="M386.92,421.63H338.79V373.5h48.13Zm-34.13-14h20.13V387.5H352.79Z"/></g><g id="Rectangle_1134" data-name="Rectangle 1134"><path class="cls-2" d="M323.57,304.62H275.44V256.49h48.13Zm-34.13-14h20.13V270.49H289.44Z"/></g><g id="Rectangle_1135" data-name="Rectangle 1135"><path class="cls-2" d="M323.57,361H275.44V312.88h48.13Zm-34.13-14h20.13V326.88H289.44Z"/></g><g id="Rectangle_1136" data-name="Rectangle 1136"><path class="cls-2" d="M323.57,421.63H275.44V373.5h48.13Zm-34.13-14h20.13V387.5H289.44Z"/></g><g id="Rectangle_1137" data-name="Rectangle 1137"><path class="cls-2" d="M262,304.62H213.9V256.49H262Zm-34.12-14H248V270.49H227.9Z"/></g><g id="Rectangle_1138" data-name="Rectangle 1138"><path class="cls-2" d="M262,361H213.9V312.88H262ZM227.9,347H248V326.88H227.9Z"/></g><g id="Rectangle_1139" data-name="Rectangle 1139"><path class="cls-2" d="M262,421.63H213.9V373.5H262Zm-34.12-14H248V387.5H227.9Z"/></g></g></g></g></svg>