<svg xmlns="http://www.w3.org/2000/svg" viewBox="0 0 600 600"><defs><style>.cls-1{fill:#008574;}.cls-2{fill:#fff;}</style></defs><g id="Layer_2" data-name="Layer 2"><g id="Layer_1-2" data-name="Layer 1"><g id="Ellipse_462" data-name="Ellipse 462"><circle class="cls-1" cx="300" cy="300" r="300"/></g><g id="Group_1725" data-name="Group 1725"><g id="Group_412" data-name="Group 412"><g id="Path_945" data-name="Path 945"><path class="cls-2" d="M338.38,420.89H255.67l-1.38-5.21C250.92,403,240.83,367.59,234.64,357a96,96,0,0,0-5.51-8.09,76.71,76.71,0,0,1-8.6-13.76c-.6-1.36-1.14-2.67-1.65-3.93a90.27,90.27,0,0,1-6.36-33.5c0-49.23,39.1-89.3,87.16-89.3s87.23,40.06,87.24,89.31a90.48,90.48,0,0,1-6.36,33.47c-.51,1.31-1.07,2.64-1.65,3.93-2.34,5.22-5.53,9.58-8.61,13.8a95.73,95.73,0,0,0-5.51,8.07c-6.18,10.63-16.28,46-19.64,58.72l-1.38,5.21Zm-72-14H333c3.53-12.78,12.85-45.24,19.68-57a109.35,109.35,0,0,1,6.29-9.3c2.78-3.8,5.41-7.39,7.15-11.26.48-1.08.95-2.2,1.39-3.33a76.39,76.39,0,0,0,5.39-28.33c0-41.53-32.86-75.32-73.24-75.32s-73.16,33.79-73.16,75.31A76.3,76.3,0,0,0,231.89,326c.44,1.09.92,2.24,1.43,3.4,1.71,3.8,4.34,7.39,7.11,11.19a109.66,109.66,0,0,1,6.31,9.31C253.57,361.65,262.89,394.11,266.41,406.89Z"/></g></g><g id="Line_424" data-name="Line 424"><rect class="cls-2" x="260.47" y="437.26" width="78.48" height="14"/></g><g id="Line_425" data-name="Line 425"><rect class="cls-2" x="268.83" y="465.61" width="61.76" height="14"/></g></g><g id="Path_1544" data-name="Path 1544"><path class="cls-2" d="M370.3,468.4l-7.09-12.07,41.32-24.27L393,404.6l3.5-3.33c3-2.86,5.54-5.47,7.8-8l3.36-3.73,27.72,12,21.46-35.86-24.53-19.47,1.41-4.57a137.71,137.71,0,0,0,3.7-14.92l.95-5,31.78-4.21v-41.8L437,271.32l-1.15-4.62c-1-4.09-2.23-8.17-3.61-12.13l-1.66-4.74,26.84-21-21.17-36-32.53,13.73-3.34-3.43c-1.64-1.68-3.37-3.38-5.15-5l-3.63-3.36L405.67,162l-35.86-21.46L347.22,169l-4.6-1.46c-3.42-1.09-7.15-2.08-11.4-3l-4.76-1.07-4.8-36.19h-41.8l-4.8,36.2-4.77,1.06c-3.66.82-7.13,1.73-10.33,2.7l-4.6,1.41L233,140l-36,21.17L210.83,194l-3.69,3.34c-1.67,1.5-3.36,3.13-5.17,5l-3.36,3.4-32.43-14-21.46,35.86,26.67,21.18-1.69,4.72a136.91,136.91,0,0,0-4,13.22l-1.15,4.63-33.15,4.4v41.8l31.78,4.21.95,5a139.76,139.76,0,0,0,3.37,13.78l1.38,4.58-24.74,19.32,21.16,36,27.86-11.75,3.33,3.76c2.45,2.77,5,5.47,7.68,8l3.5,3.36-11.83,27.41L237,455.8l-7.19,12L178.13,436.9,191,407.06c-.53-.54-1.06-1.09-1.58-1.65l-30,12.65-33.59-57.19,26.93-21c-.49-1.85-.94-3.71-1.37-5.57l-34-4.51V263.44l35.94-4.76q.72-2.6,1.55-5.16L126.4,230.9,160.47,174l32.67,14.1-13.83-32.78,57.19-33.59,24,30.78,1.92-.5,5.15-38.74h66.32L339.06,152c1.07.27,2.12.55,3.14.83l24.28-30.57,56.9,34.07L409.28,189l32.78-13.83,33.59,57.19L447,254.74c.41,1.31.8,2.63,1.17,3.95l35.94,4.77v66.33l-34,4.5q-.76,3.43-1.7,6.83l26.71,21.21L441,419.24,411.2,406.36,409.58,408l12.62,29.92Z"/></g></g></g></svg>