<svg xmlns="http://www.w3.org/2000/svg" viewBox="0 0 600 600"><defs><style>.cls-1{fill:#00d1c3;}.cls-2{fill:#fff;}</style></defs><g id="Layer_2" data-name="Layer 2"><g id="Layer_1-2" data-name="Layer 1"><g id="Group_2031" data-name="Group 2031"><g id="Ellipse_141" data-name="Ellipse 141"><circle class="cls-1" cx="300" cy="300" r="300"/></g><g id="Group_777" data-name="Group 777"><g id="Group_774" data-name="Group 774"><g id="Ellipse_191" data-name="Ellipse 191"><path class="cls-2" d="M224.3,275.28a53.47,53.47,0,1,1,53.47-53.47A53.53,53.53,0,0,1,224.3,275.28Zm0-92.94a39.47,39.47,0,1,0,39.47,39.47A39.52,39.52,0,0,0,224.3,182.34Z"/></g><g id="Path_1179" data-name="Path 1179"><path class="cls-2" d="M289.37,362H130.56v-7a93.75,93.75,0,0,1,146.15-77.73l-7.82,11.61a79.75,79.75,0,0,0-124,59.12h144.5Z"/></g></g><g id="Group_775" data-name="Group 775"><g id="Ellipse_192" data-name="Ellipse 192"><path class="cls-2" d="M312.59,362a53.47,53.47,0,1,1,53.47-53.47A53.53,53.53,0,0,1,312.59,362Zm0-92.94a39.47,39.47,0,1,0,39.47,39.47A39.52,39.52,0,0,0,312.59,269.08Z"/></g><g id="Path_1180" data-name="Path 1180"><path class="cls-2" d="M406.33,448.76H218.85v-7a93.74,93.74,0,0,1,187.48,0Zm-173.17-14H392a79.74,79.74,0,0,0-158.87,0Z"/></g></g><g id="Group_776" data-name="Group 776"><g id="Ellipse_193" data-name="Ellipse 193"><path class="cls-2" d="M352.86,231.91a53.47,53.47,0,1,1,53.47-53.47A53.53,53.53,0,0,1,352.86,231.91Zm0-92.94a39.47,39.47,0,1,0,39.47,39.47A39.52,39.52,0,0,0,352.86,139Z"/></g><g id="Path_1181" data-name="Path 1181"><path class="cls-2" d="M446.59,318.65H357.51v-14h74.78a79.74,79.74,0,0,0-159.18,7h-14a93.74,93.74,0,1,1,187.48,0Z"/></g></g></g></g></g></g></svg>