<svg xmlns="http://www.w3.org/2000/svg" viewBox="0 0 600 600"><defs><style>.cls-1{fill:#00b982;}.cls-2{fill:#fff;}</style></defs><g id="Layer_2" data-name="Layer 2"><g id="Layer_1-2" data-name="Layer 1"><g id="Ellipse_461" data-name="Ellipse 461"><circle class="cls-1" cx="300" cy="300" r="300"/></g><g id="Group_2010" data-name="Group 2010"><g id="Ellipse_491" data-name="Ellipse 491"><path class="cls-2" d="M300,463.25C210,463.25,136.75,390,136.75,300S210,136.75,300,136.75,463.25,210,463.25,300,390,463.25,300,463.25Zm0-312.5c-82.3,0-149.25,66.95-149.25,149.25S217.7,449.25,300,449.25,449.25,382.3,449.25,300,382.29,150.75,300,150.75Z"/></g><g id="Ellipse_492" data-name="Ellipse 492"><path class="cls-2" d="M300.23,418.26a118,118,0,1,1,118-118A118.16,118.16,0,0,1,300.23,418.26Zm0-222a104,104,0,1,0,104,104A104.14,104.14,0,0,0,300.23,196.22Z"/></g><g id="Ellipse_493" data-name="Ellipse 493"><path class="cls-2" d="M300.23,373.85a73.62,73.62,0,1,1,73.62-73.61A73.69,73.69,0,0,1,300.23,373.85Zm0-133.23a59.62,59.62,0,1,0,59.62,59.62A59.68,59.68,0,0,0,300.23,240.62Z"/></g><g id="Line_897" data-name="Line 897"><rect class="cls-2" x="254.38" y="234.33" width="214.49" height="14" transform="translate(-67.8 309.21) rotate(-42.7)"/></g></g><g id="Path_1602" data-name="Path 1602"><polygon class="cls-2" points="427.8 179.4 446.45 120.62 459.8 124.86 448.3 161.08 484.19 154 486.91 167.73 427.8 179.4"/></g><g id="Path_1603" data-name="Path 1603"><polygon class="cls-2" points="271.55 323.15 290.2 264.37 303.55 268.61 292.05 304.83 327.94 297.75 330.66 311.48 271.55 323.15"/></g></g></g></svg>