<svg xmlns="http://www.w3.org/2000/svg" viewBox="0 0 600 600"><defs><style>.cls-1{fill:#0092b7;}.cls-2{fill:#fff;}</style></defs><g id="Layer_2" data-name="Layer 2"><g id="Layer_1-2" data-name="Layer 1"><g id="Ellipse_139" data-name="Ellipse 139"><circle class="cls-1" cx="300" cy="300" r="300"/></g><g id="Group_2009" data-name="Group 2009"><g id="Group_1181" data-name="Group 1181"><g id="Group_1179" data-name="Group 1179"><g id="Path_1325" data-name="Path 1325"><path class="cls-2" d="M194.34,308.93a45.85,45.85,0,1,1,45.84-45.86h0A45.9,45.9,0,0,1,194.34,308.93Zm0-78.65a32.81,32.81,0,1,0,32.82,32.81,32.81,32.81,0,0,0-32.82-32.81Z"/></g></g><g id="Group_1180" data-name="Group 1180"><g id="Path_1326" data-name="Path 1326"><path class="cls-2" d="M274.27,382.35H114.42v-6.54a79.93,79.93,0,1,1,159.85,0h0Zm-146.51-13H260.94a66.9,66.9,0,0,0-133.17,0Z"/></g></g></g><g id="Path_1592" data-name="Path 1592"><path class="cls-2" d="M290.87,286.08l-13.56-3.51a87.45,87.45,0,0,0-29.19-89.39L257,182.35A101.49,101.49,0,0,1,290.87,286.08Z"/></g><g id="Path_1593" data-name="Path 1593"><path class="cls-2" d="M335,303l-13.41-4a133.94,133.94,0,0,0-43.68-142.27l8.86-10.84A147.9,147.9,0,0,1,335,303Z"/></g><g id="Group_1181-2" data-name="Group 1181-2"><g id="Group_1179-2" data-name="Group 1179-2"><g id="Path_1325-2" data-name="Path 1325-2"><path class="cls-2" d="M416.11,296.24a45.85,45.85,0,1,1-45.84,45.85h0A45.89,45.89,0,0,1,416.11,296.24Zm0,78.65a32.82,32.82,0,1,0-32.82-32.81h0A32.81,32.81,0,0,0,416.11,374.89Z"/></g></g><g id="Group_1180-2" data-name="Group 1180-2"><g id="Path_1326-2" data-name="Path 1326-2"><path class="cls-2" d="M336.18,222.83H496v6.54a79.93,79.93,0,0,1-159.85,0Zm146.51,13H349.53a66.9,66.9,0,0,0,133.16,0Z"/></g></g></g><g id="Path_1594" data-name="Path 1594"><path class="cls-2" d="M353.46,422.83a101.52,101.52,0,0,1-33.87-103.74l13.55,3.52A87.47,87.47,0,0,0,362.33,412Z"/></g><g id="Path_1595" data-name="Path 1595"><path class="cls-2" d="M323.7,459.28a147.92,147.92,0,0,1-48.23-157.11l13.41,4a134,134,0,0,0,43.68,142.27Z"/></g></g></g></g></svg>