<svg xmlns="http://www.w3.org/2000/svg" viewBox="0 0 600 600"><defs><style>.cls-1{fill:#5ca958;}.cls-2{fill:#fff;}</style></defs><g id="Layer_2" data-name="Layer 2"><g id="Layer_1-2" data-name="Layer 1"><g id="Ellipse_140" data-name="Ellipse 140"><circle class="cls-1" cx="300" cy="300" r="300"/></g><g id="Group_782" data-name="Group 782"><g id="Group_778" data-name="Group 778"><g id="Path_1183" data-name="Path 1183"><path class="cls-2" d="M298.55,393a169.69,169.69,0,0,1-147.63-86.4l-1.65-2.93,1.65-2.93a169.33,169.33,0,0,1,295.26,0l1.65,2.93-1.65,2.93A169.7,169.7,0,0,1,298.55,393ZM163,303.65a157.39,157.39,0,0,0,271.06,0,157.37,157.37,0,0,0-271.06,0Z"/></g></g><g id="Group_780" data-name="Group 780"><g id="Path_1185" data-name="Path 1185"><path class="cls-2" d="M298.55,393a169.69,169.69,0,0,1-147.63-86.4l-1.65-2.93,1.65-2.93a169.33,169.33,0,0,1,295.26,0l1.65,2.93-1.65,2.93A169.7,169.7,0,0,1,298.55,393ZM163,303.65a157.39,157.39,0,0,0,271.06,0,157.37,157.37,0,0,0-271.06,0Z"/></g></g></g><g id="Path_1187" data-name="Path 1187"><path class="cls-2" d="M300.62,349.37a7.74,7.74,0,0,1-4.64-1.65l-.16-.12c-7.57-5.47-13.57-10.2-18.88-14.89a119.12,119.12,0,0,1-17.28-18.35,57.36,57.36,0,0,1-8.55-15.81,35.81,35.81,0,0,1-2-12.2v-.11A32,32,0,0,1,255.31,268,28.7,28.7,0,0,1,279,255.62h.14a32.25,32.25,0,0,1,19.37,6.76l.14.11c.68.56,1.35,1.14,2,1.73,1-.86,2-1.69,3-2.47l.15-.11a31.7,31.7,0,0,1,15.79-5.89,28.19,28.19,0,0,1,23.34,8.62,32.46,32.46,0,0,1,8.95,18.17,34.59,34.59,0,0,1-1.72,16,56.39,56.39,0,0,1-7.94,15,110.17,110.17,0,0,1-14.5,16.11,230.45,230.45,0,0,1-22.34,18l-.07.06A7.66,7.66,0,0,1,300.62,349.37ZM263.1,286.54a21.81,21.81,0,0,0,1.22,7.38,43.28,43.28,0,0,0,6.47,11.95,105.63,105.63,0,0,0,15.3,16.25l.08.07c4.16,3.68,8.82,7.41,14.45,11.58a218.06,218.06,0,0,0,17.61-14.5,96.76,96.76,0,0,0,12.68-14.08,42.35,42.35,0,0,0,6-11.31l0,0a20.56,20.56,0,0,0,1-9.46,18.4,18.4,0,0,0-5.09-10.24l-.12-.12A14.14,14.14,0,0,0,321,269.67l-.15,0a17.73,17.73,0,0,0-8.8,3.24,39.09,39.09,0,0,0-5.37,5l-.39.42a7.52,7.52,0,0,1-5.62,2.68h0a7.55,7.55,0,0,1-5.62-2.64l-.4-.43a44.2,44.2,0,0,0-4.8-4.58A18.1,18.1,0,0,0,279,269.62h-.07a14.67,14.67,0,0,0-12.1,6.4l-.15.21A18.1,18.1,0,0,0,263.1,286.54Z"/></g><g id="Line_539" data-name="Line 539"><rect class="cls-2" x="286.75" y="119.19" width="14" height="58.54"/></g><g id="Line_542" data-name="Line 542"><rect class="cls-2" x="365.29" y="165.51" width="58.54" height="14" transform="translate(23.04 390.25) rotate(-53.99)"/></g><g id="Line_544" data-name="Line 544"><rect class="cls-2" x="184.71" y="146.73" width="14" height="58.54" transform="translate(-68.45 182.69) rotate(-44.03)"/></g><g id="Line_540" data-name="Line 540"><rect class="cls-2" x="293" y="423.58" width="14" height="58.54"/></g><g id="Line_541" data-name="Line 541"><rect class="cls-2" x="157.21" y="424.72" width="58.54" height="14" transform="translate(-272.38 328.72) rotate(-53.99)"/></g><g id="Line_543" data-name="Line 543"><rect class="cls-2" x="397.99" y="398.95" width="14" height="58.54" transform="translate(-183.82 401.8) rotate(-44.03)"/></g></g></g></svg>