<svg xmlns="http://www.w3.org/2000/svg" viewBox="0 0 600 600"><defs><style>.cls-1{fill:#dc354d;}.cls-2{fill:#fff;}</style></defs><g id="Layer_2" data-name="Layer 2"><g id="Layer_1-2" data-name="Layer 1"><g id="Group_1203" data-name="Group 1203"><g id="Ellipse_85" data-name="Ellipse 85"><circle class="cls-1" cx="300" cy="300" r="300"/></g><g id="Group_831" data-name="Group 831"><g id="Group_828" data-name="Group 828"><g id="Path_1217" data-name="Path 1217"><polygon class="cls-2" points="348.63 478.43 293.88 414.89 237.65 477.95 237.65 354.17 251.65 354.17 251.65 441.21 294.06 393.65 334.63 440.74 334.63 353 348.63 353 348.63 478.43"/></g><g id="Group_827" data-name="Group 827"><g id="Ellipse_221" data-name="Ellipse 221"><path class="cls-2" d="M293.46,372.72A119.31,119.31,0,1,1,412.77,253.41,119.44,119.44,0,0,1,293.46,372.72Zm0-224.61a105.31,105.31,0,1,0,105.31,105.3A105.42,105.42,0,0,0,293.46,148.11Z"/></g></g><g id="Ellipse_222" data-name="Ellipse 222"><path class="cls-2" d="M293.46,347.94A94.53,94.53,0,1,1,388,253.41,94.63,94.63,0,0,1,293.46,347.94Zm0-175.06A80.53,80.53,0,1,0,374,253.41,80.62,80.62,0,0,0,293.46,172.88Z"/></g></g><g id="Group_830" data-name="Group 830"><g id="Group_829" data-name="Group 829"><g id="Line_574" data-name="Line 574"><rect class="cls-2" x="261.58" y="247.66" width="63.77" height="14"/></g><g id="Line_575" data-name="Line 575"><rect class="cls-2" x="261.58" y="218.05" width="63.77" height="14"/></g><g id="Line_576" data-name="Line 576"><rect class="cls-2" x="261.58" y="277.27" width="63.77" height="14"/></g></g></g></g></g></g></g></svg>