<svg xmlns="http://www.w3.org/2000/svg" viewBox="0 0 600 600"><defs><style>.cls-1{fill:#630a53;}.cls-2{fill:#fff;}</style></defs><g id="Layer_2" data-name="Layer 2"><g id="Layer_1-2" data-name="Layer 1"><g id="Group_1206" data-name="Group 1206"><g id="Ellipse_83" data-name="Ellipse 83"><circle class="cls-1" cx="300" cy="300" r="300"/></g><g id="Group_823" data-name="Group 823"><g id="Path_1214" data-name="Path 1214"><path class="cls-2" d="M326.6,400.49H150.78v-7a87.91,87.91,0,0,1,175.82,0Zm-161.49-14H312.27a73.91,73.91,0,0,0-147.16,0Z"/></g><g id="Group_820" data-name="Group 820"><g id="Group_819" data-name="Group 819"><g id="Ellipse_215" data-name="Ellipse 215"><path class="cls-2" d="M238.69,295.18A53.21,53.21,0,1,1,291.9,242,53.27,53.27,0,0,1,238.69,295.18Zm0-92.41A39.21,39.21,0,1,0,277.9,242,39.24,39.24,0,0,0,238.69,202.77Z"/></g></g></g><g id="Path_1215" data-name="Path 1215"><path class="cls-2" d="M449.76,400.49H273.94v-7a87.91,87.91,0,1,1,175.82,0Zm-161.49-14H435.43a73.91,73.91,0,0,0-147.16,0Z"/></g><g id="Group_822" data-name="Group 822"><g id="Group_821" data-name="Group 821"><g id="Ellipse_216" data-name="Ellipse 216"><path class="cls-2" d="M361.85,295.18A53.21,53.21,0,1,1,415.06,242,53.26,53.26,0,0,1,361.85,295.18Zm0-92.41A39.21,39.21,0,1,0,401.06,242,39.24,39.24,0,0,0,361.85,202.77Z"/></g></g></g></g></g></g></g></svg>