<svg xmlns="http://www.w3.org/2000/svg" viewBox="0 0 600 600"><defs><style>.cls-1{fill:#b40863;}.cls-2{fill:#fff;}</style></defs><g id="Layer_2" data-name="Layer 2"><g id="Layer_1-2" data-name="Layer 1"><g id="Group_1202" data-name="Group 1202"><g id="Ellipse_84" data-name="Ellipse 84"><circle class="cls-1" cx="300" cy="300" r="300"/></g><g id="Group_824" data-name="Group 824"><g id="Ellipse_217" data-name="Ellipse 217"><path class="cls-2" d="M298.86,237.34a52,52,0,1,1,52-52A52,52,0,0,1,298.86,237.34Zm0-90a38,38,0,1,0,38,38A38,38,0,0,0,298.86,147.38Z"/></g><g id="Ellipse_218" data-name="Ellipse 218"><path class="cls-2" d="M298.86,464.6a52,52,0,1,1,52-52A52,52,0,0,1,298.86,464.6Zm0-90a38,38,0,1,0,38,38A38,38,0,0,0,298.86,374.64Z"/></g><g id="Ellipse_219" data-name="Ellipse 219"><path class="cls-2" d="M412.49,351a52,52,0,1,1,52-52A52,52,0,0,1,412.49,351Zm0-90a38,38,0,1,0,38,38A38,38,0,0,0,412.49,261Z"/></g><g id="Ellipse_220" data-name="Ellipse 220"><path class="cls-2" d="M185.23,351a52,52,0,1,1,52-52A52,52,0,0,1,185.23,351Zm0-90a38,38,0,1,0,38,38A38,38,0,0,0,185.23,261Z"/></g><g id="Rectangle_1142" data-name="Rectangle 1142"><path class="cls-2" d="M298.86,424.94,173.58,299.67,298.86,174.39,424.14,299.67ZM193.38,299.67,298.86,405.14,404.34,299.67,298.86,194.19Z"/></g></g></g></g></g></svg>