<svg xmlns="http://www.w3.org/2000/svg" viewBox="0 0 600 600"><defs><style>.cls-1{fill:#ffc432;}.cls-2{fill:#fff;}</style></defs><g id="Layer_2" data-name="Layer 2"><g id="Layer_1-2" data-name="Layer 1"><g id="Ellipse_146" data-name="Ellipse 146"><circle class="cls-1" cx="300" cy="300" r="300"/></g><g id="Group_757" data-name="Group 757"><g id="Path_1159" data-name="Path 1159"><polygon class="cls-2" points="161.99 489.44 149.7 482.75 233.47 328.93 304.84 363.29 376.29 233.03 388.56 239.76 310.73 381.66 239.4 347.32 161.99 489.44"/></g><g id="Group_462" data-name="Group 462"><g id="Polygon_8" data-name="Polygon 8"><polygon class="cls-2" points="382.83 277.23 379.61 238.33 347.68 260.79 339.62 249.33 391.55 212.82 396.79 276.08 382.83 277.23"/></g></g></g><g id="Group_2011" data-name="Group 2011"><g id="Ellipse_501" data-name="Ellipse 501"><path class="cls-2" d="M375,366.38A122.63,122.63,0,1,1,497.62,243.75,122.77,122.77,0,0,1,375,366.38Zm0-231.26A108.63,108.63,0,1,0,483.62,243.75,108.75,108.75,0,0,0,375,135.12Z"/></g><g id="Ellipse_502" data-name="Ellipse 502"><path class="cls-2" d="M375,332.78a89,89,0,1,1,89-89A89.13,89.13,0,0,1,375,332.78Zm0-164.06a75,75,0,1,0,75,75A75.11,75.11,0,0,0,375,168.72Z"/></g><g id="Ellipse_503" data-name="Ellipse 503"><path class="cls-2" d="M375,300a56.22,56.22,0,1,1,56.22-56.22A56.28,56.28,0,0,1,375,300Zm0-98.44a42.22,42.22,0,1,0,42.22,42.22A42.27,42.27,0,0,0,375,201.53Z"/></g></g></g></g></svg>