<?xml version="1.0" encoding="utf-8"?>
<!-- Generator: Adobe Illustrator 19.1.0, SVG Export Plug-In . SVG Version: 6.00 Build 0)  -->
<svg version="1.1" xmlns="http://www.w3.org/2000/svg" xmlns:xlink="http://www.w3.org/1999/xlink" x="0px" y="0px"
	 viewBox="0 0 125 34" enable-background="new 0 0 125 34" xml:space="preserve">
<g id="bottom">
	<g>
		<g>
			<circle fill="#EBE6DA" cx="17.171" cy="17" r="16.753"/>
			<g>
				<path fill="#D13239" d="M20.083,25.781c-0.014-0.011-0.031-0.021-0.043-0.032l0.001-0.002
					C20.006,25.723,9.273,15.015,9.273,15.015l-0.337-0.336c-0.028-0.033-0.046-0.072-0.072-0.108
					c-0.007-0.008-0.01-0.015-0.016-0.023c-0.079-0.083-0.092-0.099-0.102-0.114c-0.305-0.39-0.497-0.841-0.585-1.307
					c-0.076,0.193-0.139,0.39-0.186,0.591v0c-0.002,0.005-0.003,0.01-0.004,0.015c-0.031,0.134-0.054,0.271-0.072,0.408
					c-0.003,0.02-0.007,0.041-0.01,0.061c-0.018,0.151-0.028,0.468-0.028,0.468c0,0.001,0,5.757,0,5.757c0,0.003,0,0.008,0,0.01
					c0,0.004,0,0.007,0,0.01c0.003,1.153,0.468,2.196,1.222,2.955l0.025,0.025l2.158,2.159c0.754,0.718,1.773,1.162,2.895,1.163
					l0.006,0.001l0.004-0.001l5.77,0.001l0,0h0.002c0,0,0.275-0.008,0.413-0.022c0.021-0.002,0.043-0.006,0.065-0.008
					c0.007,0,0.016-0.003,0.024-0.004c0.032-0.003,0.245-0.034,0.318-0.048c0.045-0.008,0.087-0.021,0.13-0.031h0.002
					c0.026-0.006,0.05-0.013,0.076-0.02c0.066-0.017,0.128-0.031,0.191-0.05c0.067-0.02,0.135-0.045,0.202-0.07
					c0.041-0.015,0.08-0.03,0.119-0.045c-0.464-0.087-0.915-0.283-1.307-0.587C20.166,25.858,20.15,25.845,20.083,25.781z"/>
				<path fill="#88A65B" d="M9.352,11.246c-0.592,0.8-0.582,1.903,0.031,2.694c0.057,0.073,2.909,2.908,2.909,2.908l2.381-2.383
					l2.046,2.046l0.001-8.38L8.34,8.132l2.044,2.045C10.385,10.177,9.361,11.231,9.352,11.246z"/>
				<path fill="#6A813B" d="M18.3,15.836l1.368-1.37v0.001l0.002-0.001l2.383,2.383l2.512-2.512c0.073-0.056,0.144-0.116,0.21-0.183
					c0.067-0.066,0.126-0.138,0.183-0.21c0.617-0.791,0.625-1.896,0.033-2.698c-0.011-0.014-0.02-0.028-0.033-0.044
					c-0.007-0.006-0.013-0.014-0.021-0.019c0.008,0.005,0.012,0.01,0.019,0.015c-0.047-0.062-0.998-1.019-0.998-1.019l2.048-2.046
					l-8.383-0.001v8.38l0.675-0.674C18.302,15.848,18.302,15.848,18.3,15.836z"/>
				<path fill="#A22A2E" d="M26.457,14.254c0-0.022-0.003-0.043-0.007-0.065c-0.001-0.005-0.001-0.011-0.003-0.018
					c-0.003-0.031-0.01-0.062-0.015-0.093c-0.01-0.077-0.018-0.156-0.035-0.231c-0.009-0.041-0.017-0.08-0.028-0.119
					c0-0.004,0-0.007-0.003-0.01v0.001c-0.006-0.025-0.013-0.05-0.018-0.076c-0.018-0.065-0.031-0.131-0.05-0.194
					c-0.021-0.068-0.045-0.134-0.068-0.2c-0.017-0.043-0.032-0.085-0.049-0.127c-0.083,0.47-0.281,0.924-0.589,1.318
					c-0.044,0.061-0.093,0.115-0.139,0.167c-0.016,0.026-0.03,0.051-0.05,0.075l-7.64,7.64c0,0,2.834,2.852,2.911,2.909
					c0.672,0.522,1.573,0.606,2.322,0.254c0.174-0.154,2.295-2.112,2.295-2.112c0.734-0.758,1.189-1.789,1.189-2.929
					c0-0.814,0-5.772,0-5.773C26.481,14.53,26.472,14.391,26.457,14.254z"/>
			</g>
		</g>
		<g>
			<g>
				<path fill="#88A65B" d="M40.413,8.129h8.805c2.847,0,4.815,0.745,6.064,2.022c1.092,1.064,1.65,2.501,1.65,4.337v0.053
					c0,2.846-1.516,4.735-3.829,5.719l4.442,6.491h-5.961l-3.749-5.64h-0.053h-2.208v5.64h-5.16V8.129z M48.977,17.067
					c1.756,0,2.766-0.851,2.766-2.208v-0.053c0-1.464-1.063-2.208-2.791-2.208h-3.379v4.469H48.977z"/>
				<path fill="#88A65B" d="M57.597,19.621v-0.053c0-4.203,3.007-7.528,7.262-7.528c4.975,0,7.262,3.644,7.262,7.874
					c0,0.319,0,0.692-0.026,1.037h-9.63c0.4,1.57,1.543,2.368,3.114,2.368c1.195,0,2.153-0.452,3.19-1.463l2.794,2.314
					c-1.383,1.755-3.379,2.926-6.251,2.926C60.789,27.096,57.597,24.091,57.597,19.621z M67.387,18.371
					c-0.186-1.597-1.117-2.608-2.501-2.608c-1.329,0-2.234,1.038-2.499,2.608H67.387z"/>
				<path fill="#555759" d="M73.773,8.129h14.896v4.522h-9.736v3.166h8.806V20.1h-8.806v6.651h-5.16V8.129z"/>
				<path fill="#555759" d="M90.212,8.129h14.977v4.389h-9.87v2.82h8.939v4.071H95.32v2.952h10.002v4.39h-15.11V8.129z"/>
				<path fill="#555759" d="M106.893,8.129h7.183c6.649,0,10.506,3.83,10.506,9.205v0.052c0,5.374-3.911,9.364-10.613,9.364h-7.075
					V8.129z M114.154,22.175c3.086,0,5.136-1.703,5.136-4.709v-0.053c0-2.98-2.05-4.709-5.136-4.709h-2.101v9.47H114.154z"/>
			</g>
		</g>
	</g>
</g>
<g id="Farming" display="none">
</g>
<g id="Manufacturing" display="none">
</g>
<g id="Waste_diverted">
</g>
<g id="jobs">
</g>
<g id="consumer_ed_hover">
</g>
<g id="pop_up" display="none">
</g>
</svg>
