<?xml version="1.0" encoding="utf-8"?>
<!-- Generator: Adobe Illustrator 19.1.0, SVG Export Plug-In . SVG Version: 6.00 Build 0)  -->
<svg version="1.1" xmlns="http://www.w3.org/2000/svg" xmlns:xlink="http://www.w3.org/1999/xlink" x="0px" y="0px"
	 viewBox="0 0 343.663 45.565" enable-background="new 0 0 343.663 45.565" xml:space="preserve">
<g id="bottom">
	<g>
		<g>
			<g>
				<path fill="#555759" d="M198.532,21.196l-2.238-3.344h-1.808v3.344h-2.296V10.745h4.775c2.463,0,3.942,1.298,3.942,3.449v0.03
					c0,1.687-0.911,2.746-2.24,3.24l2.553,3.732H198.532z M198.576,14.314c0-0.986-0.684-1.493-1.804-1.493h-2.285v3h2.331
					c1.119,0,1.759-0.598,1.759-1.478V14.314z"/>
				<path fill="#555759" d="M209.732,17.986h-5.568c0.224,1.029,0.942,1.567,1.956,1.567c0.761,0,1.314-0.239,1.941-0.821
					l1.296,1.149c-0.744,0.927-1.819,1.493-3.268,1.493c-2.403,0-4.179-1.687-4.179-4.135v-0.03c0-2.284,1.628-4.164,3.955-4.164
					c2.673,0,3.896,2.075,3.896,4.343v0.03C209.762,17.643,209.749,17.777,209.732,17.986z M205.866,14.866
					c-0.939,0-1.552,0.673-1.732,1.702h3.42C207.418,15.553,206.822,14.866,205.866,14.866z"/>
				<path fill="#555759" d="M213.857,21.33c-1.39,0-2.331-0.552-2.331-2.404v-3.792h-0.954v-1.941h0.954v-2.046h2.269v2.046h1.881
					v1.941h-1.881v3.419c0,0.522,0.224,0.777,0.731,0.777c0.42,0,0.791-0.105,1.12-0.284v1.821
					C215.169,21.151,214.617,21.33,213.857,21.33z"/>
				<path fill="#555759" d="M222.112,21.196v-4.464c0-1.075-0.507-1.627-1.373-1.627c-0.866,0-1.419,0.552-1.419,1.627v4.464h-2.267
					V10.298h2.267v4.031c0.523-0.673,1.197-1.283,2.345-1.283c1.716,0,2.715,1.134,2.715,2.97v5.181H222.112z"/>
				<path fill="#555759" d="M226.103,12.313v-2.015h2.388v2.015H226.103z M226.162,21.196v-8.002h2.268v8.002H226.162z"/>
				<path fill="#555759" d="M235.33,21.196v-4.464c0-1.075-0.508-1.627-1.374-1.627c-0.867,0-1.418,0.552-1.418,1.627v4.464h-2.271
					v-8.002h2.271v1.135c0.522-0.673,1.194-1.283,2.342-1.283c1.717,0,2.717,1.134,2.717,2.97v5.181H235.33z"/>
				<path fill="#555759" d="M244.423,21.196l-2.089-3.269l-0.792,0.835v2.434h-2.27V10.298h2.27v5.807l2.658-2.911h2.717
					l-3.047,3.149l3.152,4.853H244.423z"/>
				<path fill="#555759" d="M254.534,12.835v2.225h4.986v2.089h-4.986v4.047h-2.301V10.745h7.959v2.089H254.534z"/>
				<path fill="#555759" d="M265.197,21.375c-2.478,0-4.315-1.837-4.315-4.135v-0.03c0-2.299,1.85-4.164,4.344-4.164
					c2.478,0,4.314,1.835,4.314,4.135v0.029C269.54,19.509,267.689,21.375,265.197,21.375z M267.302,17.209
					c0-1.18-0.852-2.209-2.105-2.209c-1.3,0-2.075,0.999-2.075,2.179v0.029c0,1.18,0.852,2.209,2.105,2.209
					c1.301,0,2.076-0.999,2.076-2.179V17.209z"/>
				<path fill="#555759" d="M274.813,21.375c-2.477,0-4.312-1.837-4.312-4.135v-0.03c0-2.299,1.848-4.164,4.341-4.164
					c2.48,0,4.315,1.835,4.315,4.135v0.029C279.157,19.509,277.306,21.375,274.813,21.375z M276.918,17.209
					c0-1.18-0.853-2.209-2.105-2.209c-1.299,0-2.074,0.999-2.074,2.179v0.029c0,1.18,0.849,2.209,2.103,2.209
					c1.299,0,2.076-0.999,2.076-2.179V17.209z"/>
				<path fill="#555759" d="M286.28,21.196v-1.15c-0.551,0.747-1.312,1.299-2.491,1.299c-1.867,0-3.645-1.464-3.645-4.136V17.18
					c0-2.673,1.747-4.135,3.645-4.135c1.207,0,1.953,0.551,2.491,1.193v-3.94h2.268v10.898H286.28z M286.31,17.18
					c0-1.329-0.879-2.21-1.94-2.21c-1.061,0-1.954,0.866-1.954,2.21v0.029c0,1.329,0.893,2.209,1.954,2.209
					c1.061,0,1.94-0.88,1.94-2.209V17.18z"/>
				<path fill="#555759" d="M306.186,21.271h-2l-2.359-6.838l-2.359,6.838h-2.001l-3.567-10.525h2.462l2.164,7.077l2.344-7.107
					h1.972l2.343,7.107l2.164-7.077h2.403L306.186,21.271z"/>
				<path fill="#555759" d="M314.564,21.196V20.33c-0.55,0.613-1.312,1.016-2.416,1.016c-1.51,0-2.747-0.866-2.747-2.45v-0.029
					c0-1.746,1.327-2.553,3.224-2.553c0.806,0,1.389,0.134,1.956,0.329v-0.135c0-0.941-0.584-1.463-1.718-1.463
					c-0.867,0-1.479,0.164-2.211,0.433l-0.567-1.732c0.883-0.388,1.748-0.642,3.104-0.642c2.48,0,3.57,1.284,3.57,3.448v4.644
					H314.564z M314.61,17.971c-0.387-0.179-0.897-0.299-1.448-0.299c-0.968,0-1.567,0.388-1.567,1.105v0.03
					c0,0.612,0.507,0.971,1.24,0.971c1.058,0,1.775-0.582,1.775-1.404V17.971z"/>
				<path fill="#555759" d="M321.226,21.345c-1.119,0-2.375-0.373-3.431-1.209l0.968-1.493c0.867,0.627,1.777,0.955,2.524,0.955
					c0.656,0,0.956-0.238,0.956-0.597v-0.029c0-0.493-0.778-0.658-1.658-0.926c-1.12-0.329-2.388-0.851-2.388-2.404v-0.03
					c0-1.628,1.311-2.538,2.924-2.538c1.016,0,2.12,0.343,2.987,0.925l-0.867,1.568c-0.79-0.462-1.58-0.746-2.164-0.746
					c-0.553,0-0.836,0.239-0.836,0.552v0.03c0,0.448,0.762,0.657,1.626,0.955c1.12,0.374,2.419,0.911,2.419,2.374v0.03
					C324.286,20.54,322.958,21.345,321.226,21.345z"/>
				<path fill="#555759" d="M328.171,21.33c-1.387,0-2.329-0.552-2.329-2.404v-3.792h-0.955v-1.941h0.955v-2.046h2.269v2.046h1.883
					v1.941h-1.883v3.419c0,0.522,0.226,0.777,0.73,0.777c0.42,0,0.795-0.105,1.122-0.284v1.821
					C329.484,21.151,328.931,21.33,328.171,21.33z"/>
				<path fill="#555759" d="M338.579,17.986h-5.57c0.224,1.029,0.94,1.567,1.956,1.567c0.762,0,1.313-0.239,1.94-0.821l1.3,1.149
					c-0.747,0.927-1.822,1.493-3.27,1.493c-2.406,0-4.181-1.687-4.181-4.135v-0.03c0-2.284,1.626-4.164,3.955-4.164
					c2.674,0,3.898,2.075,3.898,4.343v0.03C338.608,17.643,338.593,17.777,338.579,17.986z M334.71,14.866
					c-0.94,0-1.551,0.673-1.731,1.702h3.419C336.264,15.553,335.667,14.866,334.71,14.866z"/>
			</g>
		</g>
		<g>
			<circle fill="#EBE6DA" cx="27.546" cy="22.783" r="22.783"/>
			<g>
				<path fill="#D13239" d="M31.506,34.725c-0.019-0.015-0.042-0.028-0.059-0.043l0.001-0.002
					c-0.047-0.035-14.643-14.596-14.643-14.596l-0.458-0.458c-0.038-0.046-0.062-0.098-0.097-0.147
					c-0.009-0.01-0.013-0.02-0.022-0.031c-0.107-0.113-0.125-0.135-0.138-0.155c-0.414-0.531-0.677-1.143-0.795-1.778
					c-0.104,0.263-0.188,0.53-0.253,0.803v-0.001c-0.003,0.006-0.004,0.014-0.006,0.021c-0.042,0.182-0.074,0.368-0.097,0.555
					c-0.004,0.027-0.009,0.056-0.013,0.083c-0.024,0.205-0.038,0.637-0.038,0.637c0,0.001,0,7.829,0,7.829c0,0.004,0,0.01,0,0.014
					c0,0.005,0,0.01,0,0.014c0.004,1.568,0.637,2.987,1.661,4.019l0.034,0.034l2.935,2.936c1.026,0.977,2.411,1.58,3.937,1.582
					l0.008,0.001l0.006-0.001l7.847,0.001l0,0h0.003c0,0,0.374-0.011,0.562-0.029c0.029-0.003,0.059-0.008,0.088-0.011
					c0.009,0,0.022-0.004,0.033-0.005c0.044-0.005,0.333-0.047,0.433-0.066c0.062-0.012,0.118-0.028,0.177-0.042h0.003
					c0.036-0.009,0.068-0.018,0.103-0.027c0.09-0.023,0.174-0.042,0.259-0.068c0.091-0.027,0.183-0.062,0.274-0.095
					c0.056-0.02,0.109-0.041,0.162-0.061c-0.631-0.118-1.244-0.385-1.777-0.798C31.618,34.828,31.597,34.811,31.506,34.725z"/>
				<path fill="#88A65B" d="M16.912,14.958c-0.805,1.087-0.792,2.589,0.043,3.664c0.078,0.099,3.956,3.955,3.956,3.955l3.239-3.24
					l2.782,2.782l0.001-11.397l-11.397,0.001l2.78,2.781C18.317,13.504,16.925,14.937,16.912,14.958z"/>
				<path fill="#6A813B" d="M29.081,21.2l1.86-1.863v0.001l0.003-0.001l3.24,3.24l3.416-3.416c0.099-0.076,0.196-0.158,0.286-0.249
					c0.091-0.09,0.171-0.187,0.249-0.286c0.839-1.075,0.85-2.579,0.045-3.67c-0.014-0.019-0.027-0.039-0.045-0.059
					c-0.009-0.009-0.018-0.019-0.028-0.026c0.01,0.006,0.016,0.013,0.026,0.02c-0.064-0.085-1.358-1.386-1.358-1.386l2.785-2.783
					l-11.4-0.001v11.396l0.917-0.917C29.084,21.216,29.084,21.216,29.081,21.2z"/>
				<path fill="#A22A2E" d="M40.174,19.049c0-0.029-0.004-0.058-0.009-0.088c-0.001-0.007-0.001-0.015-0.004-0.024
					c-0.005-0.042-0.013-0.084-0.021-0.127c-0.013-0.105-0.025-0.212-0.047-0.315c-0.012-0.056-0.023-0.109-0.038-0.162
					c0-0.005,0-0.009-0.003-0.014v0.001c-0.009-0.034-0.017-0.068-0.025-0.103c-0.025-0.088-0.043-0.178-0.068-0.264
					c-0.028-0.092-0.062-0.182-0.093-0.272c-0.024-0.058-0.044-0.115-0.066-0.172c-0.113,0.639-0.382,1.257-0.801,1.793
					c-0.06,0.082-0.127,0.156-0.189,0.227c-0.022,0.035-0.041,0.07-0.068,0.102l-10.39,10.39c0,0,3.854,3.878,3.958,3.956
					c0.914,0.71,2.139,0.825,3.158,0.345c0.236-0.21,3.121-2.873,3.121-2.873c0.998-1.031,1.617-2.434,1.617-3.983
					c0-1.107,0-7.849,0-7.851C40.207,19.424,40.195,19.235,40.174,19.049z"/>
			</g>
		</g>
		<g>
			<g>
				<path fill="#88A65B" d="M59.153,10.719h11.974c3.871,0,6.548,1.013,8.247,2.749c1.485,1.447,2.244,3.401,2.244,5.898v0.072
					c0,3.87-2.061,6.439-5.207,7.778l6.041,8.828h-8.107l-5.099-7.669h-0.072h-3.003v7.669h-7.018V10.719z M70.8,22.874
					c2.388,0,3.762-1.157,3.762-3.003V19.8c0-1.991-1.446-3.003-3.796-3.003h-4.595v6.077H70.8z"/>
				<path fill="#88A65B" d="M82.523,26.346v-0.072c0-5.716,4.089-10.238,9.876-10.238c6.765,0,9.876,4.956,9.876,10.709
					c0,0.433,0,0.941-0.036,1.41H89.143c0.544,2.135,2.098,3.22,4.235,3.22c1.625,0,2.928-0.615,4.339-1.989l3.799,3.147
					c-1.881,2.387-4.595,3.979-8.501,3.979C86.864,36.513,82.523,32.426,82.523,26.346z M95.836,24.648
					c-0.253-2.171-1.518-3.546-3.401-3.546c-1.807,0-3.038,1.411-3.399,3.546H95.836z"/>
				<path fill="#555759" d="M104.521,10.719h20.258v6.15h-13.241v4.306h11.976v5.824h-11.976v9.045h-7.017V10.719z"/>
				<path fill="#555759" d="M126.878,10.719h20.368v5.969h-13.422v3.835h12.156v5.536h-12.156v4.015h13.602v5.97h-20.548V10.719z"/>
				<path fill="#555759" d="M149.563,10.719h9.768c9.042,0,14.288,5.209,14.288,12.518v0.071c0,7.308-5.319,12.735-14.434,12.735
					h-9.622V10.719z M159.437,29.82c4.197,0,6.984-2.316,6.984-6.403v-0.072c0-4.052-2.787-6.403-6.984-6.403h-2.857V29.82H159.437z
					"/>
			</g>
		</g>
		<rect x="182.339" y="0" fill="#555759" width="1.122" height="45.544"/>
		<g>
			<path fill="#555759" d="M193.058,35.775l1.253-0.26l1.116-7.008h-0.459c-0.62,0.025-0.88,0.248-1.476,0.905l-1.079,1.241
				l-0.187-0.063l0.683-2.505h6.637l-0.013,2.505l-0.211,0.063l-0.731-1.241c-0.409-0.682-0.632-0.88-1.203-0.905h-0.448
				l-1.115,7.008l1.191,0.26l-0.038,0.211h-3.958L193.058,35.775z"/>
			<path fill="#555759" d="M203.258,35.391c0-0.187,0.038-0.448,0.087-0.658l0.398-2.146c0.161-0.893,0.087-1.389-0.658-1.389
				c-0.435,0-0.757,0.137-1.266,0.422l-0.731,4.366h-1.252l1.326-7.963l-0.782-0.509v-0.124l2.184-0.621l0.05,0.038l-0.731,4.465
				l0.048,0.025c0.82-0.733,1.438-1.093,2.073-1.093c1.004,0,1.25,0.857,1.029,2.035l-0.486,2.542
				c-0.098,0.522,0.063,0.646,1.131,0.67l0.025,0.088c-0.547,0.346-1.164,0.582-1.651,0.582
				C203.469,36.123,203.258,35.813,203.258,35.391z"/>
			<path fill="#555759" d="M207.082,31.384l-0.781-0.509v-0.124l2.123-0.62l0.05,0.037l-0.239,1.413l0.052,0.038
				c0.435-0.782,1.054-1.427,1.662-1.427c0.508,0,0.819,0.311,0.819,0.733c0,0.433-0.336,0.806-0.756,0.806
				c-0.36,0-0.622-0.186-0.844-0.484c-0.335,0.111-0.634,0.334-0.932,0.695l-0.668,4.044h-1.253L207.082,31.384z"/>
			<path fill="#555759" d="M210.719,33.84c0-1.787,1.352-3.635,3.202-3.635c1.301,0,2.121,0.794,2.121,2.283
				c0,1.786-1.328,3.635-3.177,3.635C211.563,36.123,210.719,35.316,210.719,33.84z M214.665,32.45c0-1.103-0.373-1.81-1.042-1.81
				c-1.031,0-1.514,1.947-1.514,3.225c0,1.116,0.359,1.824,1.04,1.824C214.18,35.688,214.665,33.741,214.665,32.45z"/>
			<path fill="#555759" d="M216.691,34.088l0.507-2.704l-0.793-0.509v-0.124l2.197-0.62l0.049,0.037l-0.671,3.573
				c-0.16,0.868-0.085,1.363,0.671,1.363c0.458,0,0.806-0.148,1.29-0.434l0.594-3.287l-0.804-0.509v-0.124l2.208-0.62l0.048,0.037
				l-0.83,4.614c-0.099,0.522,0.025,0.633,1.128,0.67l0.025,0.088c-0.547,0.346-1.128,0.582-1.625,0.582
				c-0.645,0-0.845-0.434-0.781-1.104l-0.063-0.037c-0.794,0.769-1.452,1.142-2.07,1.142
				C216.716,36.123,216.478,35.204,216.691,34.088z"/>
			<path fill="#555759" d="M221.942,37.127c0-0.806,0.78-1.352,1.922-1.537l0.422-1.328c-0.807-0.211-1.278-0.843-1.278-1.65
				c0-1.253,1.143-2.407,2.605-2.407c0.632,0,1.154,0.199,1.487,0.571c0.41-0.496,0.845-0.806,1.23-0.806
				c0.435,0,0.694,0.286,0.694,0.633c0,0.384-0.236,0.67-0.584,0.67c-0.247,0-0.483-0.186-0.52-0.496l-0.682,0.161
				c0.187,0.272,0.298,0.608,0.298,1.005c0,1.254-1.128,2.395-2.591,2.395h-0.174c-0.086,0.371-0.013,0.471,0.484,0.644
				c1.786,0.621,2.158,1.105,2.158,1.811c0,0.968-1.054,1.911-2.791,1.911C222.897,38.703,221.942,37.959,221.942,37.127z
				 M226.307,37.388c0-0.583-0.743-1.054-2.419-1.551c-0.47,0.273-0.669,0.658-0.669,1.104c0,0.707,0.758,1.34,1.885,1.34
				C225.861,38.281,226.307,37.97,226.307,37.388z M226.257,31.843c0-0.719-0.273-1.253-0.829-1.253
				c-0.771,0-1.131,1.265-1.131,2.134c0,0.707,0.273,1.252,0.832,1.252C225.898,33.976,226.257,32.711,226.257,31.843z"/>
			<path fill="#555759" d="M232.102,35.391c0-0.187,0.037-0.448,0.087-0.658l0.398-2.146c0.161-0.893,0.086-1.389-0.659-1.389
				c-0.434,0-0.758,0.137-1.265,0.422l-0.731,4.366h-1.253l1.327-7.963l-0.781-0.509v-0.124l2.183-0.621l0.049,0.038l-0.732,4.465
				l0.05,0.025c0.818-0.733,1.439-1.093,2.071-1.093c1.005,0,1.253,0.857,1.031,2.035l-0.485,2.542
				c-0.099,0.522,0.063,0.646,1.129,0.67l0.025,0.088c-0.545,0.346-1.166,0.582-1.649,0.582
				C232.314,36.123,232.102,35.813,232.102,35.391z"/>
			<path fill="#555759" d="M237.058,35.775l1.191-0.26l1.103-6.958l-1.103-0.261l0.036-0.211h6.217l-0.05,2.394l-0.199,0.074
				l-0.832-1.204c-0.409-0.583-0.595-0.793-1.39-0.818l-1.153-0.025l-0.52,3.299h0.372c0.793,0,1.217-0.323,1.626-1.165l0.16-0.348
				h0.225l-0.559,3.461h-0.199l-0.062-0.384c-0.136-0.819-0.459-1.129-1.24-1.129h-0.384l-0.534,3.312l1.638-0.037
				c0.708-0.013,1.029-0.247,1.502-0.732l1.289-1.351l0.174,0.073l-0.634,2.481h-6.709L237.058,35.775z"/>
			<path fill="#555759" d="M245.248,33.865c0-1.934,1.539-3.66,3.274-3.66c0.979,0,1.489,0.559,1.489,1.117
				c0,0.447-0.286,0.781-0.682,0.781c-0.484,0-0.782-0.334-0.782-0.868c0-0.236,0.049-0.496,0.136-0.719
				c-1.053,0.038-2.108,1.502-2.108,3.126c0,1.154,0.609,1.65,1.426,1.65c0.547,0,1.055-0.236,1.49-0.584l0.097,0.112
				c-0.495,0.818-1.325,1.303-2.144,1.303C246.029,36.123,245.248,35.105,245.248,33.865z"/>
			<path fill="#555759" d="M250.362,33.84c0-1.787,1.352-3.635,3.2-3.635c1.302,0,2.12,0.794,2.12,2.283
				c0,1.786-1.327,3.635-3.175,3.635C251.206,36.123,250.362,35.316,250.362,33.84z M254.309,32.45c0-1.103-0.374-1.81-1.044-1.81
				c-1.03,0-1.514,1.947-1.514,3.225c0,1.116,0.361,1.824,1.042,1.824C253.822,35.688,254.309,33.741,254.309,32.45z"/>
			<path fill="#555759" d="M259.743,35.391c0-0.187,0.038-0.448,0.087-0.658l0.408-2.146c0.162-0.893,0.088-1.389-0.669-1.389
				c-0.434,0-0.743,0.137-1.253,0.422l-0.732,4.366h-1.253l0.77-4.602l-0.783-0.509v-0.124l2.11-0.62l0.05,0.037l-0.174,1.153
				l0.048,0.037c0.843-0.768,1.501-1.153,2.134-1.153c1.005,0,1.253,0.857,1.03,2.035l-0.485,2.542
				c-0.099,0.522,0.063,0.646,1.13,0.67l0.025,0.088c-0.547,0.346-1.168,0.582-1.651,0.582
				C259.967,36.123,259.743,35.813,259.743,35.391z"/>
			<path fill="#555759" d="M262.636,33.84c0-1.787,1.352-3.635,3.202-3.635c1.301,0,2.12,0.794,2.12,2.283
				c0,1.786-1.327,3.635-3.176,3.635C263.481,36.123,262.636,35.316,262.636,33.84z M266.582,32.45c0-1.103-0.374-1.81-1.042-1.81
				c-1.03,0-1.516,1.947-1.516,3.225c0,1.116,0.361,1.824,1.043,1.824C266.098,35.688,266.582,33.741,266.582,32.45z"/>
			<path fill="#555759" d="M274.932,35.391c0-0.187,0.039-0.448,0.089-0.658l0.395-2.146c0.174-0.955,0.1-1.389-0.57-1.389
				c-0.383,0-0.708,0.137-1.215,0.422l-0.733,4.366h-1.253l0.571-3.399c0.161-0.967,0.125-1.389-0.533-1.389
				c-0.398,0-0.707,0.137-1.216,0.422l-0.733,4.366h-1.265l0.783-4.602l-0.783-0.509v-0.124l2.108-0.62l0.05,0.037l-0.172,1.153
				l0.048,0.037c0.843-0.768,1.514-1.153,2.12-1.153c0.684,0,0.968,0.497,0.98,1.129l0.052,0.037
				c0.83-0.769,1.524-1.166,2.145-1.166c0.857,0,1.13,0.782,0.895,2.035l-0.485,2.542c-0.087,0.497,0.023,0.646,1.129,0.67
				l0.037,0.088c-0.557,0.346-1.178,0.582-1.663,0.582C275.143,36.123,274.932,35.813,274.932,35.391z"/>
			<path fill="#555759" d="M278.187,34.931l0.646-3.547l-0.806-0.509v-0.124l2.232-0.62l0.051,0.037l-0.83,4.602
				c-0.101,0.533,0.023,0.657,1.139,0.682l0.025,0.088c-0.557,0.346-1.203,0.582-1.699,0.582
				C278.249,36.123,278.04,35.676,278.187,34.931z M279.168,28.531c0-0.546,0.383-1.117,0.929-1.117c0.361,0,0.634,0.26,0.634,0.719
				c0,0.534-0.359,1.117-0.905,1.117C279.465,29.251,279.168,28.977,279.168,28.531z"/>
			<path fill="#555759" d="M280.857,33.865c0-1.934,1.537-3.66,3.272-3.66c0.982,0,1.49,0.559,1.49,1.117
				c0,0.447-0.286,0.781-0.683,0.781c-0.485,0-0.782-0.334-0.782-0.868c0-0.236,0.049-0.496,0.136-0.719
				c-1.054,0.038-2.109,1.502-2.109,3.126c0,1.154,0.608,1.65,1.427,1.65c0.546,0,1.055-0.236,1.489-0.584l0.099,0.112
				c-0.497,0.818-1.325,1.303-2.145,1.303C281.637,36.123,280.857,35.105,280.857,33.865z"/>
			<path fill="#555759" d="M285.745,34.869c0-0.483,0.321-0.806,0.694-0.806c0.522,0,0.808,0.571,0.559,1.364
				c0.273,0.174,0.632,0.273,0.967,0.273c0.532,0,0.843-0.298,0.843-0.807c0-0.348-0.186-0.658-0.768-1.03l-0.534-0.347
				c-0.696-0.434-1.079-0.843-1.079-1.514c0-0.893,0.856-1.799,2.158-1.799c0.992,0,1.513,0.522,1.513,1.054
				c0,0.398-0.259,0.659-0.607,0.659c-0.459,0-0.793-0.472-0.855-1.166c-0.162-0.087-0.311-0.124-0.473-0.124
				c-0.469,0-0.706,0.359-0.706,0.757c0,0.397,0.273,0.707,0.733,0.98l0.619,0.385c0.708,0.434,1.067,0.869,1.067,1.488
				c0,0.98-0.843,1.886-2.308,1.886C286.49,36.123,285.745,35.564,285.745,34.869z"/>
			<path fill="#555759" d="M293.191,34.162c0-1.886,1.775-3.957,3.674-3.957c0.322,0,0.631,0.075,0.954,0.236l0.658-0.359
				l0.087,0.05l-0.818,4.651c-0.087,0.497,0,0.633,1.126,0.67l0.028,0.088c-0.545,0.346-1.179,0.582-1.676,0.582
				c-0.545,0-0.768-0.385-0.781-0.943l-0.062-0.037c-0.484,0.607-0.957,0.98-1.601,0.98
				C293.923,36.123,293.191,35.391,293.191,34.162z M296.517,34.758l0.557-3.251c-0.298-0.421-0.669-0.657-1.042-0.657
				c-0.855,0-1.487,1.612-1.487,2.99c0,0.88,0.371,1.389,0.956,1.389C295.897,35.229,296.158,35.056,296.517,34.758z"/>
			<path fill="#555759" d="M303.021,35.391c0-0.187,0.037-0.448,0.086-0.658l0.41-2.146c0.162-0.893,0.087-1.389-0.671-1.389
				c-0.433,0-0.743,0.137-1.251,0.422l-0.733,4.366h-1.253l0.771-4.602l-0.784-0.509v-0.124l2.109-0.62l0.05,0.037l-0.173,1.153
				l0.049,0.037c0.843-0.768,1.499-1.153,2.134-1.153c1.004,0,1.251,0.857,1.028,2.035l-0.483,2.542
				c-0.1,0.522,0.063,0.646,1.129,0.67l0.025,0.088c-0.546,0.346-1.168,0.582-1.649,0.582
				C303.244,36.123,303.021,35.813,303.021,35.391z"/>
			<path fill="#555759" d="M305.852,34.137c0-1.861,1.772-3.932,3.721-3.932c0.149,0,0.298,0.013,0.447,0.05l0.373-2.233
				l-0.781-0.509v-0.124l2.181-0.621l0.051,0.038l-1.341,7.975c-0.086,0.534,0.063,0.646,1.13,0.67l0.025,0.088
				c-0.547,0.346-1.179,0.582-1.686,0.582c-0.534,0-0.77-0.385-0.77-0.943l-0.062-0.037c-0.496,0.607-0.955,0.98-1.651,0.98
				C306.608,36.123,305.852,35.391,305.852,34.137z M309.263,34.758l0.557-3.251c-0.31-0.421-0.708-0.657-1.079-0.657
				c-0.917,0-1.536,1.612-1.536,2.965c0,0.905,0.37,1.414,1.041,1.414C308.643,35.229,308.903,35.056,309.263,34.758z"/>
			<path fill="#555759" d="M314.191,35.775l1.191-0.26l1.104-6.958l-1.104-0.261l0.037-0.211h3.388c2.319,0,3.894,1.215,3.894,3.337
				c0,2.505-1.798,4.564-5.147,4.564h-3.398L314.191,35.775z M317.689,35.527c2.407-0.086,3.376-2.258,3.376-4.353
				c0-1.514-0.708-2.618-2.37-2.655l-0.681-0.012l-1.119,7.046L317.689,35.527z"/>
			<path fill="#555759" d="M323.029,34.162c0-1.886,1.773-3.957,3.671-3.957c0.324,0,0.634,0.075,0.955,0.236l0.659-0.359
				l0.086,0.05l-0.819,4.651c-0.087,0.497,0,0.633,1.129,0.67l0.025,0.088c-0.547,0.346-1.178,0.582-1.674,0.582
				c-0.546,0-0.77-0.385-0.783-0.943l-0.06-0.037c-0.485,0.607-0.957,0.98-1.601,0.98C323.76,36.123,323.029,35.391,323.029,34.162z
				 M326.353,34.758l0.557-3.251c-0.296-0.421-0.669-0.657-1.04-0.657c-0.855,0-1.488,1.612-1.488,2.99
				c0,0.88,0.37,1.389,0.954,1.389C325.732,35.229,325.994,35.056,326.353,34.758z"/>
			<path fill="#555759" d="M329.667,34.535l0.586-3.473h-0.894l0.025-0.187l1.263-0.943l1.005-1.153l0.224,0.061l-0.275,1.589h1.576
				l-0.112,0.633h-1.564l-0.544,3.187c-0.074,0.472-0.074,0.732,0.11,0.882c0.151,0.123,0.425,0.186,0.945,0.186
				c0.184,0,0.421-0.012,0.683-0.037v0.173c-0.535,0.298-1.278,0.645-1.949,0.645C329.743,36.097,329.483,35.564,329.667,34.535z"/>
			<path fill="#555759" d="M333.192,34.162c0-1.886,1.775-3.957,3.673-3.957c0.322,0,0.633,0.075,0.955,0.236l0.657-0.359
				l0.087,0.05l-0.82,4.651c-0.087,0.497,0,0.633,1.128,0.67l0.026,0.088c-0.546,0.346-1.179,0.582-1.675,0.582
				c-0.546,0-0.769-0.385-0.783-0.943l-0.06-0.037c-0.485,0.607-0.956,0.98-1.601,0.98
				C333.924,36.123,333.192,35.391,333.192,34.162z M336.519,34.758l0.556-3.251c-0.298-0.421-0.668-0.657-1.04-0.657
				c-0.855,0-1.489,1.612-1.489,2.99c0,0.88,0.373,1.389,0.955,1.389C335.897,35.229,336.158,35.056,336.519,34.758z"/>
		</g>
	</g>
</g>
<g id="Farming" display="none">
</g>
<g id="Manufacturing" display="none">
</g>
<g id="Waste_diverted">
</g>
<g id="jobs">
</g>
<g id="consumer_ed_hover">
</g>
<g id="pop_up" display="none">
</g>
</svg>
