<?xml version="1.0" encoding="utf-8"?>
<!-- Generator: Adobe Illustrator 19.1.0, SVG Export Plug-In . SVG Version: 6.00 Build 0)  -->
<svg version="1.1" xmlns="http://www.w3.org/2000/svg" xmlns:xlink="http://www.w3.org/1999/xlink" x="0px" y="0px"
	 viewBox="0 0 250 249.999" enable-background="new 0 0 250 249.999" xml:space="preserve">
<g id="bottom">
	<g>
		<path fill="#D1E9E7" d="M125,0C56.855,0,1.486,54.539,0.067,122.344h2.088h0.566h41.768c-0.836-3.684-1.336-7.439-1.336-11.273
			c0-25.619,20.84-46.463,46.461-46.463c5.668,0,11.196,1.011,16.439,3.005c7.363,2.797,13.855,7.402,18.947,13.412
			c5.092-6.01,11.585-10.615,18.948-13.412c5.242-1.994,10.77-3.005,16.438-3.005c25.622,0,46.462,20.844,46.462,46.463
			c0,3.835-0.5,7.589-1.336,11.273h41.768h1.991h0.662C248.514,54.539,193.145,0,125,0z"/>
		<path fill="#A1D4D0" d="M249.271,127.653h-1.991h-43.245c-13.848,41.787-74.954,71.972-77.874,73.393
			c-0.368,0.179-0.762,0.267-1.161,0.267c-0.399,0-0.793-0.088-1.161-0.267c-2.919-1.421-64.025-31.606-77.874-73.393H2.721H2.156
			H0.067C1.485,195.459,56.855,249.999,125,249.999c68.146,0,123.516-54.54,124.933-122.346H249.271z"/>
		<path fill="#D1E9E7" d="M160.386,69.918c-5.02,0-9.914,0.894-14.551,2.657c-7.477,2.842-13.939,7.789-18.688,14.305
			c-1.006,1.374-3.288,1.374-4.294,0c-4.75-6.516-11.211-11.463-18.688-14.305c-4.636-1.763-9.531-2.657-14.551-2.657
			c-22.692,0-41.152,18.461-41.152,41.152c0,3.824,0.538,7.584,1.478,11.273c0.178,0.698,0.379,1.39,0.587,2.083
			c0.057,0.192,0.121,0.382,0.18,0.573c0.278,0.888,0.56,1.775,0.885,2.654c13.288,35.934,64.97,63.7,73.407,68.032
			c8.438-4.332,60.12-32.098,73.407-68.032c0.325-0.879,0.607-1.766,0.885-2.654c0.06-0.191,0.123-0.381,0.18-0.573
			c0.208-0.693,0.409-1.385,0.587-2.083c0.94-3.69,1.479-7.449,1.479-11.273C201.539,88.379,183.078,69.918,160.386,69.918z"/>
		<path fill="#5AB7B2" d="M249.986,124.427c-0.003-0.698-0.038-1.388-0.053-2.083h-0.662h-1.991h-41.768
			c0.836-3.684,1.336-7.439,1.336-11.273c0-25.619-20.84-46.463-46.462-46.463c-5.668,0-11.196,1.011-16.438,3.005
			c-7.363,2.797-13.856,7.402-18.948,13.412c-5.092-6.01-11.584-10.615-18.947-13.412c-5.243-1.994-10.771-3.005-16.439-3.005
			c-25.621,0-46.461,20.844-46.461,46.463c0,3.835,0.5,7.589,1.336,11.273H2.721H2.156H0.067c-0.015,0.695-0.05,1.385-0.052,2.083
			C0.014,124.618,0,124.808,0,125c0,0.89,0.049,1.768,0.067,2.654h2.088h0.566h43.244c13.849,41.787,74.954,71.972,77.874,73.393
			c0.368,0.179,0.762,0.267,1.161,0.267c0.4,0,0.793-0.088,1.161-0.267c2.919-1.421,64.026-31.606,77.874-73.393h43.245h1.991h0.662
			C249.951,126.768,250,125.89,250,125C250,124.808,249.986,124.618,249.986,124.427z M198.408,127.653
			c-13.287,35.934-64.969,63.7-73.407,68.032c-8.437-4.332-60.119-32.098-73.407-68.032c-0.325-0.879-0.607-1.766-0.885-2.654
			c-0.06-0.191-0.123-0.381-0.18-0.573c-0.208-0.693-0.409-1.385-0.587-2.083c-0.94-3.69-1.478-7.449-1.478-11.273
			c0-22.692,18.46-41.152,41.152-41.152c5.02,0,9.915,0.894,14.551,2.657c7.477,2.842,13.939,7.789,18.688,14.305
			c1.006,1.374,3.288,1.374,4.294,0c4.75-6.516,11.211-11.463,18.688-14.305c4.636-1.763,9.531-2.657,14.551-2.657
			c22.692,0,41.152,18.461,41.152,41.152c0,3.824-0.538,7.584-1.479,11.273c-0.178,0.698-0.379,1.39-0.587,2.083
			c-0.057,0.192-0.121,0.382-0.18,0.573C199.015,125.888,198.733,126.775,198.408,127.653z"/>
	</g>
</g>
<g id="pie_layer" display="none">
</g>
<g id="Pie_Layer_2" display="none">
</g>
<g id="meals_saved" display="none">
</g>
<g id="consumer_ed_hover" display="none">
</g>
<g id="pop_up" display="none">
</g>
<g id="Layer_9">
</g>
<g id="Layer_2" display="none">
</g>
<g id="Layer_8">
</g>
<g id="Layer_10">
</g>
</svg>
