<?xml version="1.0" encoding="utf-8"?>
<!-- Generator: Adobe Illustrator 19.1.0, SVG Export Plug-In . SVG Version: 6.00 Build 0)  -->
<svg version="1.1" xmlns="http://www.w3.org/2000/svg" xmlns:xlink="http://www.w3.org/1999/xlink" x="0px" y="0px"
	 viewBox="0 0 250 250" enable-background="new 0 0 250 250" xml:space="preserve">
<g id="bottom">
	<g>
		<g>
			<path fill="#D1E9E7" d="M220.585,44.483v4.277v73.583h26.695h2.653C249.313,92.702,238.395,65.604,220.585,44.483z"/>
			<path fill="#D1E9E7" d="M0.067,122.344H2.72h26.696V57.196c0-1.467,1.187-2.655,2.654-2.655H76.08
				c1.468,0,2.655,1.188,2.655,2.655v26.069c1.872-2.073,3.852-4.043,5.983-5.85c0.065-0.067,0.099-0.154,0.172-0.215
				c0.049-0.042,0.111-0.052,0.162-0.089c4.586-3.832,9.727-7.013,15.285-9.414V28.362c0-1.468,1.188-2.655,2.655-2.655h44.009
				c1.468,0,2.655,1.187,2.655,2.655v39.336c5.552,2.398,10.688,5.575,15.271,9.401c0.057,0.041,0.126,0.053,0.182,0.1
				c0.083,0.069,0.121,0.166,0.194,0.242c2.121,1.801,4.092,3.762,5.956,5.827V11.764V8.879C156.948,3.171,141.348,0,125,0
				C56.855,0,1.485,54.539,0.067,122.344z"/>
		</g>
		<path fill="#A1D4D0" d="M247.28,127.654h-29.35h-30.662c-0.113,2.667-0.383,5.289-0.823,7.86
			c-0.006,0.109,0.028,0.212,0.009,0.323c-0.017,0.097-0.072,0.174-0.099,0.267c-1.281,7.089-3.751,13.755-7.216,19.8
			c-0.042,0.098-0.045,0.202-0.1,0.296c-0.107,0.188-0.241,0.35-0.384,0.5c-3.556,5.996-8.055,11.36-13.342,15.849
			c-0.075,0.08-0.116,0.181-0.202,0.253c-0.063,0.053-0.14,0.072-0.207,0.118c-5.381,4.489-11.55,8.034-18.235,10.521
			c-0.113,0.061-0.2,0.153-0.325,0.198c-0.139,0.05-0.278,0.047-0.417,0.074c-6.553,2.344-13.577,3.687-20.925,3.688h-0.001
			c-0.001,0-0.001,0-0.001,0c-0.001,0-0.003,0-0.004,0c-7.353,0-14.383-1.345-20.94-3.692c-0.133-0.026-0.266-0.022-0.398-0.07
			c-0.119-0.043-0.202-0.131-0.311-0.189c-6.699-2.489-12.881-6.043-18.272-10.543c-0.059-0.042-0.128-0.058-0.184-0.106
			c-0.077-0.065-0.112-0.154-0.18-0.225c-5.313-4.505-9.829-9.894-13.397-15.918c-0.128-0.141-0.253-0.286-0.352-0.458
			c-0.05-0.086-0.052-0.182-0.092-0.272c-3.476-6.058-5.953-12.741-7.234-19.848c-0.023-0.085-0.073-0.155-0.089-0.243
			c-0.018-0.1,0.014-0.194,0.007-0.294c-0.441-2.581-0.714-5.212-0.827-7.89H32.071H2.72H0.067C1.484,195.46,56.854,250,125,250
			s123.516-54.54,124.933-122.346H247.28z"/>
		<g>
			<path fill="#A1D4D0" d="M176.57,11.141v2.951V89.92c0.79,1.157,1.497,2.371,2.209,3.583c0.082,0.103,0.191,0.177,0.259,0.295
				c0.055,0.094,0.058,0.199,0.1,0.296c3.471,6.056,5.943,12.734,7.222,19.837c0.023,0.083,0.078,0.147,0.093,0.233
				c0.019,0.11-0.014,0.212-0.009,0.321c0.439,2.571,0.709,5.193,0.823,7.859h28.006V42.516v-3.926
				C204.31,27.139,191.196,17.776,176.57,11.141z"/>
			<path fill="#A1D4D0" d="M70.87,94.07c0.039-0.09,0.042-0.186,0.092-0.272c0.062-0.108,0.162-0.173,0.237-0.268
				c0.717-1.221,1.43-2.445,2.227-3.611V59.851h-38.7v62.493h28.001c0.113-2.677,0.385-5.309,0.827-7.89
				c0.006-0.098-0.024-0.191-0.007-0.291c0.014-0.078,0.064-0.136,0.084-0.211C64.911,106.833,67.389,100.138,70.87,94.07z"/>
			<path fill="#A1D4D0" d="M124.999,62.597c0.001,0,0.001,0,0.001,0h0.001c6.755,0.001,13.248,1.114,19.345,3.109V31.017h-38.699
				v34.687c6.098-1.995,12.591-3.107,19.347-3.107C124.996,62.597,124.998,62.597,124.999,62.597z"/>
			<path fill="#D1E9E7" d="M170.054,102.053c0.421,0.824,0.83,1.654,1.207,2.503c1.092,2.461,1.965,5.032,2.657,7.679
				c0.121,0.461,0.249,0.917,0.356,1.383l2.297-0.405l4.099-0.723c-0.929-4.133-2.325-8.08-4.099-11.823
				c-0.294-0.622-0.58-1.249-0.897-1.858l-1.756,1.014l-2.657,1.533L170.054,102.053z"/>
			<path fill="#D1E9E7" d="M167.401,97.452l3.859-2.228l1.746-1.008c-0.558-0.866-1.143-1.708-1.746-2.542
				c-2.251-3.116-4.807-5.985-7.627-8.587l-4.161,4.959C162.476,90.851,165.148,93.995,167.401,97.452z"/>
			<path fill="#D1E9E7" d="M100.338,80.842c0.865-0.485,1.76-0.917,2.656-1.351c0.741-0.36,1.466-0.75,2.227-1.075l-2.218-6.093
				c-0.003,0.001-0.006,0.002-0.009,0.003c-0.907,0.38-1.773,0.833-2.656,1.258c-3.52,1.695-6.836,3.731-9.912,6.083l4.167,4.966
				C96.423,83.252,98.328,81.969,100.338,80.842z"/>
			<path fill="#D1E9E7" d="M82.597,97.45c2.253-3.456,4.926-6.601,7.93-9.406l-4.163-4.962c-2.82,2.601-5.377,5.472-7.629,8.589
				c-0.602,0.833-1.188,1.675-1.745,2.541l1.745,1.008L82.597,97.45z"/>
			<path fill="#D1E9E7" d="M74.519,127.654c-0.047-0.884-0.135-1.758-0.135-2.654v-0.001c0-0.193,0.027-0.379,0.029-0.571
				c0.009-0.702,0.07-1.39,0.106-2.084c0.061-1.177,0.138-2.347,0.279-3.501l-1.372-0.242l-5.005-0.883
				c-0.195,1.524-0.311,3.067-0.383,4.626c-0.032,0.696-0.099,1.382-0.106,2.084c-0.001,0.192-0.029,0.378-0.029,0.571V125
				c0,0.896,0.093,1.768,0.135,2.654c0.072,1.559,0.188,3.104,0.383,4.628l6.377-1.125
				C74.657,130.002,74.581,128.831,74.519,127.654z"/>
			<path fill="#D1E9E7" d="M75.724,136.384l-6.396,1.128c1.082,4.819,2.774,9.405,4.995,13.681l5.621-3.245
				C78.089,144.32,76.663,140.448,75.724,136.384z"/>
			<path fill="#D1E9E7" d="M144.781,171.583l2.216,6.088c4.527-1.897,8.724-4.402,12.573-7.344l-4.163-4.962
				C152.138,167.834,148.595,169.957,144.781,171.583z"/>
			<path fill="#D1E9E7" d="M127.655,175.48v6.476c4.971-0.23,9.795-1.03,14.358-2.458l-2.221-6.101
				C135.926,174.582,131.852,175.261,127.655,175.48z"/>
			<path fill="#D1E9E7" d="M90.428,170.331c3.85,2.942,8.048,5.447,12.575,7.344l2.217-6.091c-3.815-1.626-7.358-3.748-10.627-6.217
				L90.428,170.331z"/>
			<path fill="#D1E9E7" d="M107.987,179.502c4.562,1.427,9.388,2.225,14.359,2.455v-6.477c-4.196-0.22-8.27-0.899-12.137-2.082
				L107.987,179.502z"/>
			<path fill="#D1E9E7" d="M82.597,152.548l-5.607,3.237c2.642,4.107,5.8,7.834,9.375,11.131l4.163-4.961
				C87.523,159.15,84.85,156.005,82.597,152.548z"/>
			<path fill="#D1E9E7" d="M170.054,147.945l5.62,3.245c2.219-4.275,3.911-8.86,4.995-13.679l-6.395-1.128
				C173.334,140.447,171.908,144.319,170.054,147.945z"/>
			<path fill="#D1E9E7" d="M159.472,161.954l4.16,4.958c3.575-3.297,6.732-7.024,9.374-11.13l-5.605-3.236
				C165.148,156.003,162.476,159.149,159.472,161.954z"/>
			<path fill="#D1E9E7" d="M69.327,112.489l4.098,0.722l2.297,0.405c0.108-0.467,0.238-0.925,0.358-1.388
				c0.691-2.645,1.563-5.213,2.654-7.671c0.377-0.85,0.787-1.681,1.21-2.506l-1.21-0.698l-2.654-1.533l-1.758-1.015
				c-0.317,0.609-0.603,1.237-0.897,1.859C71.652,104.407,70.256,108.356,69.327,112.489z"/>
			<path fill="#D1E9E7" d="M122.345,74.52v-6.48c-4.972,0.23-9.796,1.029-14.359,2.456l2.222,6.106
				C114.076,75.418,118.15,74.74,122.345,74.52z"/>
			<path fill="#D1E9E7" d="M139.792,76.603l2.222-6.104c-4.562-1.428-9.387-2.227-14.359-2.458v6.479
				C131.852,74.74,135.926,75.418,139.792,76.603z"/>
			<path fill="#D1E9E7" d="M149.658,80.839c2.012,1.128,3.919,2.412,5.75,3.795l4.163-4.962c-3.076-2.352-6.392-4.389-9.913-6.086
				c-0.881-0.424-1.747-0.877-2.653-1.257c-0.003-0.001-0.005-0.002-0.007-0.003l-2.217,6.091c0.76,0.324,1.483,0.713,2.224,1.072
				C147.899,79.924,148.793,80.355,149.658,80.839z"/>
			<path fill="#D1E9E7" d="M181.958,122.344c-0.072-1.558-0.187-3.102-0.383-4.625l-5.005,0.883l-1.372,0.242
				c0.141,1.154,0.217,2.324,0.278,3.5c0.037,0.694,0.098,1.382,0.106,2.084c0.002,0.192,0.029,0.378,0.029,0.571V125
				c0,0.896-0.088,1.769-0.135,2.654c-0.061,1.177-0.137,2.348-0.279,3.503l6.378,1.124c0.195-1.524,0.311-3.068,0.383-4.627
				c0.042-0.886,0.135-1.758,0.135-2.654v-0.001c0-0.193-0.027-0.379-0.029-0.571C182.057,123.726,181.991,123.04,181.958,122.344z"
				/>
			<path fill="#A1D4D0" d="M154.097,159.676c0.678-0.57,1.321-1.178,1.965-1.786c2.539-2.4,4.814-5.07,6.747-7.995
				c0.487-0.738,0.935-1.502,1.38-2.27c0.444-0.766,0.861-1.545,1.26-2.339c1.557-3.093,2.766-6.381,3.585-9.827
				c0.204-0.859,0.384-1.723,0.538-2.6c0.154-0.869,0.299-1.739,0.402-2.624c0.098-0.851,0.143-1.716,0.193-2.581
				c0.052-0.883,0.135-1.758,0.135-2.654v-0.001c0-0.193-0.027-0.379-0.029-0.571c-0.009-0.701-0.065-1.39-0.106-2.084
				c-0.05-0.864-0.094-1.729-0.193-2.579c-0.102-0.884-0.248-1.756-0.401-2.624c-0.154-0.876-0.334-1.741-0.538-2.599
				c-0.819-3.446-2.029-6.736-3.586-9.829c-0.399-0.792-0.816-1.572-1.26-2.338c-0.445-0.767-0.893-1.533-1.38-2.27
				c-1.932-2.925-4.207-5.595-6.746-7.994c-0.643-0.608-1.287-1.216-1.965-1.787c-0.678-0.569-1.393-1.092-2.103-1.622
				c-0.765-0.571-1.535-1.134-2.336-1.657c-0.866-0.564-1.747-1.108-2.653-1.613c-0.864-0.482-1.76-0.909-2.657-1.336
				c-0.465-0.221-0.916-0.465-1.39-0.67c-0.81-0.352-1.647-0.645-2.481-0.95c-0.83-0.303-1.655-0.611-2.507-0.866
				c-3.296-0.987-6.753-1.572-10.314-1.78c-0.883-0.051-1.759-0.134-2.654-0.134H125c-0.896,0-1.771,0.083-2.654,0.134
				c-3.561,0.208-7.019,0.793-10.314,1.779c-0.852,0.256-1.678,0.563-2.509,0.866c-0.833,0.304-1.67,0.598-2.479,0.949
				c-0.475,0.206-0.928,0.451-1.395,0.673c-0.897,0.426-1.792,0.852-2.654,1.334c-0.907,0.506-1.789,1.049-2.656,1.615
				c-0.8,0.522-1.568,1.084-2.332,1.654c-0.711,0.53-1.426,1.052-2.104,1.622c-0.678,0.57-1.321,1.178-1.965,1.786
				c-2.54,2.4-4.814,5.069-6.747,7.994c-0.487,0.739-0.937,1.504-1.381,2.271c-0.444,0.765-0.86,1.544-1.26,2.336
				c-1.558,3.094-2.768,6.384-3.587,9.831c-0.204,0.859-0.384,1.723-0.538,2.599c-0.153,0.869-0.299,1.739-0.401,2.624
				c-0.099,0.851-0.142,1.716-0.193,2.58c-0.04,0.693-0.097,1.383-0.106,2.084c-0.003,0.192-0.029,0.378-0.029,0.571V125
				c0,0.896,0.083,1.771,0.134,2.654c0.051,0.866,0.095,1.731,0.193,2.583c0.103,0.884,0.249,1.755,0.402,2.624
				c0.154,0.876,0.335,1.741,0.538,2.6c0.819,3.446,2.029,6.735,3.586,9.828c0.4,0.793,0.817,1.573,1.26,2.339
				c0.445,0.767,0.893,1.531,1.38,2.269c1.934,2.926,4.209,5.596,6.749,7.996c0.643,0.608,1.286,1.216,1.964,1.786
				c0.678,0.569,1.394,1.092,2.105,1.622c2.791,2.082,5.804,3.875,9.037,5.276c0.809,0.352,1.646,0.645,2.479,0.949
				c0.831,0.303,1.657,0.612,2.509,0.866c3.296,0.987,6.753,1.571,10.314,1.779c0.884,0.052,1.759,0.135,2.654,0.135h0.001
				c0.896,0,1.772-0.083,2.654-0.135c3.561-0.207,7.019-0.793,10.314-1.78c0.851-0.255,1.678-0.563,2.507-0.866
				c0.834-0.304,1.671-0.598,2.481-0.95c3.232-1.401,6.245-3.195,9.035-5.276C152.703,160.768,153.418,160.246,154.097,159.676z
				 M134.004,141.976c-0.739,0.457-1.535,0.854-2.392,1.192c-0.805,0.317-1.652,0.571-2.543,0.769
				c-0.234,0.052-0.459,0.118-0.698,0.161v5.923c0,0.693-0.281,1.313-0.716,1.786c-0.485,0.527-1.166,0.869-1.939,0.869
				c-0.254,0-0.484-0.078-0.716-0.144c-1.11-0.318-1.939-1.297-1.939-2.51v-5.729c-0.238-0.024-0.482-0.027-0.716-0.061
				c-0.486-0.068-0.946-0.187-1.413-0.292c-0.887-0.199-1.737-0.453-2.544-0.773c-0.848-0.337-1.657-0.721-2.395-1.178
				c-0.397-0.245-0.751-0.524-1.11-0.801c-0.724-0.557-1.375-1.163-1.927-1.833c-0.607-0.739-1.098-1.536-1.459-2.39
				c-0.126-0.299-0.22-0.609-0.313-0.921c-0.062-0.211-0.165-0.408-0.212-0.625c-0.311-1.431,0.597-2.847,2.028-3.158
				c0.764-0.157,1.498,0.028,2.08,0.434c0.27,0.189,0.504,0.423,0.688,0.702c0.176,0.267,0.317,0.563,0.39,0.897
				c0.03,0.139,0.103,0.276,0.154,0.416c0.054,0.149,0.09,0.3,0.166,0.448c0.301,0.586,0.772,1.157,1.391,1.675
				c0.126,0.106,0.279,0.199,0.417,0.3c0.552,0.403,1.175,0.778,1.905,1.08c0.649,0.268,1.383,0.464,2.153,0.619
				c0.139,0.028,0.275,0.057,0.417,0.08c0.709,0.118,1.446,0.202,2.237,0.202h0.001c0.774,0,1.515-0.085,2.237-0.206
				c0.141-0.024,0.279-0.054,0.418-0.083c0.761-0.153,1.489-0.351,2.151-0.619c0.724-0.294,1.355-0.658,1.917-1.064
				c0.14-0.1,0.283-0.199,0.411-0.305c0.613-0.51,1.07-1.084,1.37-1.701c0.216-0.442,0.36-0.899,0.381-1.376
				c0.003-0.049,0.024-0.095,0.024-0.144c0-0.156-0.027-0.277-0.033-0.425c-0.036-0.867-0.166-1.617-0.424-2.246
				c-0.01-0.024-0.013-0.055-0.024-0.08c-0.324-0.754-0.825-1.357-1.512-1.871c-0.047-0.034-0.095-0.07-0.144-0.104
				c-0.027-0.018-0.062-0.033-0.088-0.051c-0.36-0.245-0.766-0.473-1.222-0.684c-0.072-0.032-0.159-0.062-0.233-0.094
				c-0.317-0.139-0.635-0.277-0.996-0.406c-0.158-0.056-0.337-0.112-0.504-0.167c-0.292-0.097-0.603-0.192-0.922-0.287
				c-0.053-0.016-0.099-0.032-0.153-0.047c-0.184-0.054-0.36-0.11-0.554-0.164c-0.051-0.014-0.112-0.028-0.163-0.042
				c-0.028-0.008-0.06-0.015-0.087-0.023c-0.097-0.027-0.205-0.054-0.304-0.08c-0.314-0.085-0.631-0.169-0.968-0.255
				c-0.16-0.04-0.294-0.079-0.459-0.12c-0.039-0.01-0.081-0.022-0.12-0.032c-0.154-0.039-0.321-0.083-0.479-0.123
				c-0.169-0.042-0.341-0.088-0.513-0.132c-0.245-0.063-0.48-0.121-0.729-0.188c-0.275-0.075-0.552-0.166-0.831-0.247
				c-0.034-0.01-0.069-0.022-0.103-0.032c-0.093-0.027-0.187-0.056-0.28-0.085c-0.036-0.011-0.071-0.022-0.107-0.033
				c-0.043-0.013-0.086-0.025-0.129-0.039c-0.202-0.063-0.404-0.116-0.607-0.184c-0.327-0.111-0.642-0.249-0.965-0.375
				c-0.113-0.044-0.225-0.088-0.337-0.134c-0.344-0.141-0.687-0.277-1.021-0.438c-0.452-0.219-0.883-0.469-1.305-0.734
				c-0.037-0.023-0.077-0.04-0.113-0.063c-0.585-0.374-1.126-0.805-1.625-1.287c-0.581-0.56-1.105-1.184-1.525-1.919
				c-0.348-0.612-0.616-1.304-0.823-2.058c-0.245-0.897-0.405-1.875-0.405-3.002c0-0.096,0.032-0.184,0.036-0.28
				c0.001-0.027,0.009-0.052,0.01-0.078c0.052-1.115,0.33-2.175,0.815-3.156c0.401-0.808,0.937-1.553,1.589-2.236
				c0.237-0.248,0.495-0.483,0.762-0.712c0.677-0.581,1.413-1.118,2.258-1.557c0.762-0.396,1.594-0.714,2.469-0.975
				c0.419-0.125,0.861-0.212,1.301-0.304c0.242-0.05,0.467-0.128,0.716-0.167v-5.37c0-1.213,0.828-2.193,1.939-2.51
				c0.233-0.067,0.462-0.145,0.716-0.145c0.773,0,1.454,0.342,1.939,0.869c0.435,0.472,0.716,1.092,0.716,1.786v5.399
				c0.235,0.039,0.469,0.079,0.7,0.127c0.889,0.187,1.741,0.438,2.546,0.763c0.854,0.345,1.642,0.769,2.37,1.251
				c0.38,0.253,0.736,0.523,1.075,0.81c0.701,0.592,1.324,1.24,1.818,1.962c0.273,0.398,0.522,0.81,0.721,1.242
				c0.288,0.626,0.292,1.301,0.098,1.911c-0.103,0.324-0.266,0.622-0.485,0.886c-0.213,0.257-0.48,0.469-0.791,0.635
				c-0.047,0.024-0.075,0.067-0.123,0.09c-0.186,0.085-0.382,0.095-0.575,0.136c-0.871,0.179-1.762-0.056-2.389-0.675
				c-0.221-0.218-0.421-0.464-0.557-0.762c-0.121-0.263-0.309-0.524-0.524-0.781c-0.056-0.067-0.118-0.133-0.18-0.198
				c-0.126-0.134-0.261-0.264-0.412-0.393c-0.498-0.425-1.126-0.808-1.861-1.123c-0.639-0.274-1.357-0.488-2.146-0.627
				c-0.141-0.025-0.277-0.055-0.422-0.074c-0.486-0.065-0.988-0.109-1.517-0.109c-0.249,0-0.477,0.032-0.716,0.047
				c-0.759,0.047-1.482,0.147-2.137,0.323c-0.182,0.049-0.345,0.112-0.518,0.169c-0.721,0.24-1.378,0.534-1.922,0.89
				c-0.597,0.391-1.07,0.84-1.41,1.31c-0.273,0.377-0.434,0.766-0.517,1.157c-0.011,0.056-0.022,0.111-0.029,0.167
				c-0.014,0.1-0.053,0.202-0.053,0.303c0,1.052,0.213,1.855,0.619,2.525l0.702,0.837c0.073,0.065,0.147,0.131,0.227,0.192
				c0.596,0.467,1.382,0.861,2.382,1.222c0.312,0.113,0.653,0.226,1.009,0.335c0.137,0.042,0.278,0.085,0.422,0.128
				c0.37,0.108,0.757,0.22,1.171,0.331c0.017,0.004,0.036,0.009,0.053,0.014c0.027,0.007,0.057,0.014,0.084,0.022
				c0.354,0.093,0.703,0.187,1.09,0.284c0.062,0.016,0.111,0.029,0.173,0.045c0.023,0.006,0.041,0.011,0.065,0.017
				c0.027,0.007,0.054,0.014,0.081,0.021c0.379,0.095,0.768,0.194,1.163,0.296c0.046,0.012,0.093,0.025,0.139,0.037
				c0.107,0.028,0.215,0.057,0.323,0.086c0.267,0.071,0.536,0.146,0.807,0.223c0.287,0.082,0.575,0.167,0.864,0.256
				c0.111,0.034,0.222,0.073,0.333,0.108c0.149,0.048,0.299,0.095,0.449,0.146c0.812,0.278,1.616,0.599,2.391,0.978
				c0.061,0.03,0.121,0.065,0.182,0.095c0.171,0.086,0.341,0.174,0.508,0.266c0.335,0.185,0.66,0.385,0.978,0.597
				c0.267,0.179,0.524,0.372,0.775,0.572c0.282,0.225,0.551,0.464,0.81,0.718c0.454,0.444,0.872,0.932,1.24,1.478
				c0.099,0.147,0.19,0.303,0.281,0.458c0.386,0.65,0.703,1.375,0.947,2.179c0.029,0.097,0.06,0.192,0.086,0.291
				c0.249,0.917,0.398,1.937,0.429,3.074c0.004,0.143,0.022,0.271,0.022,0.418c0,0.846-0.148,1.657-0.379,2.441
				c-0.09,0.306-0.233,0.592-0.355,0.887c-0.357,0.861-0.82,1.678-1.43,2.424c-0.55,0.674-1.169,1.309-1.896,1.869
				C134.805,141.509,134.395,141.733,134.004,141.976z"/>
		</g>
		<g>
			<path fill="#5AB7B2" d="M249.986,124.428c-0.003-0.698-0.038-1.388-0.052-2.084h-2.653h-26.695V48.761v-4.277
				c-0.872-1.034-1.752-2.062-2.657-3.068c-0.864-0.96-1.759-1.891-2.653-2.825v3.926v79.828h-28.006
				c-0.113-2.667-0.383-5.288-0.823-7.859c-0.006-0.109,0.027-0.211,0.009-0.321c-0.016-0.085-0.07-0.15-0.093-0.233
				c-1.279-7.103-3.751-13.781-7.222-19.837c-0.042-0.098-0.046-0.202-0.1-0.296c-0.068-0.118-0.177-0.192-0.259-0.295
				c-0.712-1.212-1.419-2.425-2.209-3.583V14.091v-2.951c-0.884-0.401-1.758-0.818-2.653-1.199c-0.876-0.373-1.77-0.709-2.657-1.062
				v2.885v71.504c-1.864-2.064-3.835-4.026-5.956-5.827c-0.072-0.076-0.111-0.173-0.194-0.242c-0.056-0.047-0.125-0.059-0.182-0.1
				c-4.583-3.826-9.719-7.003-15.271-9.401V28.362c0-1.468-1.187-2.655-2.655-2.655h-44.009c-1.467,0-2.655,1.187-2.655,2.655
				v39.334c-5.558,2.401-10.699,5.582-15.285,9.414c-0.051,0.037-0.113,0.047-0.162,0.089c-0.073,0.061-0.107,0.148-0.172,0.215
				c-2.131,1.807-4.111,3.777-5.983,5.85V57.196c0-1.467-1.187-2.655-2.655-2.655H32.071c-1.467,0-2.654,1.188-2.654,2.655v65.148
				H2.72H0.067c-0.014,0.696-0.05,1.385-0.052,2.084C0.013,124.62,0,124.808,0,125c0,0.89,0.048,1.768,0.067,2.654H2.72h29.35
				h30.657c0.113,2.677,0.385,5.309,0.827,7.89c0.006,0.1-0.025,0.193-0.007,0.294c0.016,0.088,0.066,0.158,0.089,0.243
				c1.281,7.108,3.758,13.79,7.234,19.848c0.039,0.09,0.042,0.186,0.092,0.272c0.098,0.172,0.224,0.317,0.352,0.458
				c3.568,6.025,8.084,11.413,13.397,15.918c0.068,0.071,0.103,0.161,0.18,0.225c0.056,0.047,0.125,0.064,0.184,0.106
				c5.391,4.5,11.573,8.053,18.272,10.543c0.108,0.058,0.192,0.146,0.311,0.189c0.132,0.048,0.265,0.045,0.398,0.07
				c6.557,2.347,13.587,3.692,20.94,3.692c0.001,0,0.003,0,0.004,0c0.001,0,0.001,0,0.001,0h0.001
				c7.348-0.001,14.372-1.344,20.925-3.688c0.139-0.027,0.279-0.024,0.417-0.074c0.125-0.045,0.212-0.137,0.325-0.198
				c6.684-2.487,12.853-6.032,18.235-10.521c0.067-0.046,0.144-0.065,0.207-0.118c0.086-0.072,0.127-0.172,0.202-0.253
				c5.287-4.489,9.786-9.853,13.342-15.849c0.143-0.15,0.277-0.312,0.384-0.5c0.055-0.094,0.059-0.199,0.1-0.296
				c3.465-6.045,5.936-12.71,7.216-19.8c0.027-0.093,0.082-0.17,0.099-0.267c0.019-0.111-0.014-0.214-0.009-0.323
				c0.439-2.571,0.71-5.193,0.823-7.86h30.662h29.35h2.653C249.951,126.768,250,125.89,250,125
				C250,124.808,249.986,124.62,249.986,124.428z M127.655,181.957v-6.476c4.196-0.22,8.271-0.899,12.137-2.083l2.221,6.101
				C137.451,180.927,132.626,181.726,127.655,181.957z M67.903,125L67.903,125c0-0.194,0.027-0.38,0.029-0.572
				c0.007-0.702,0.074-1.388,0.106-2.084c0.072-1.558,0.188-3.102,0.383-4.626l5.005,0.883l1.372,0.242
				c-0.141,1.154-0.217,2.324-0.279,3.501c-0.037,0.694-0.098,1.382-0.106,2.084c-0.001,0.192-0.029,0.378-0.029,0.571V125
				c0,0.896,0.088,1.769,0.135,2.654c0.062,1.177,0.138,2.349,0.279,3.504l-6.377,1.125c-0.195-1.525-0.312-3.069-0.383-4.628
				C67.996,126.768,67.903,125.896,67.903,125z M34.726,59.851h38.7v30.067c-0.797,1.166-1.51,2.39-2.227,3.611
				c-0.075,0.095-0.174,0.16-0.237,0.268c-0.05,0.086-0.052,0.182-0.092,0.272c-3.481,6.068-5.959,12.763-7.239,19.883
				c-0.02,0.075-0.07,0.134-0.084,0.211c-0.017,0.1,0.014,0.192,0.007,0.291c-0.441,2.581-0.714,5.213-0.827,7.89H34.726V59.851z
				 M100.338,73.585c0.883-0.425,1.749-0.878,2.656-1.258c0.003-0.001,0.006-0.002,0.009-0.003l2.218,6.093
				c-0.761,0.324-1.486,0.714-2.227,1.075c-0.896,0.434-1.791,0.866-2.656,1.351c-2.01,1.127-3.915,2.41-5.745,3.792l-4.167-4.966
				C93.502,77.316,96.818,75.28,100.338,73.585z M169.973,130.235c-0.103,0.885-0.248,1.756-0.402,2.624
				c-0.154,0.876-0.334,1.741-0.538,2.6c-0.819,3.446-2.029,6.734-3.585,9.827c-0.4,0.793-0.817,1.573-1.26,2.339
				c-0.444,0.767-0.892,1.532-1.38,2.27c-1.932,2.925-4.208,5.595-6.747,7.995c-0.644,0.608-1.287,1.216-1.965,1.786
				c-0.678,0.57-1.393,1.093-2.104,1.622c-2.79,2.081-5.804,3.875-9.035,5.276c-0.81,0.352-1.647,0.645-2.481,0.95
				c-0.83,0.303-1.656,0.612-2.507,0.866c-3.296,0.987-6.753,1.573-10.314,1.78c-0.883,0.052-1.759,0.135-2.654,0.135H125
				c-0.896,0-1.771-0.083-2.654-0.135c-3.561-0.208-7.019-0.792-10.314-1.779c-0.851-0.255-1.678-0.563-2.509-0.866
				c-0.833-0.304-1.67-0.597-2.479-0.949c-3.232-1.401-6.246-3.194-9.037-5.276c-0.711-0.53-1.426-1.052-2.105-1.622
				c-0.678-0.57-1.321-1.178-1.964-1.786c-2.54-2.4-4.815-5.07-6.749-7.996c-0.487-0.738-0.935-1.502-1.38-2.269
				c-0.444-0.766-0.861-1.545-1.26-2.339c-1.558-3.093-2.767-6.382-3.586-9.828c-0.204-0.859-0.384-1.723-0.538-2.6
				c-0.153-0.869-0.299-1.739-0.402-2.624c-0.098-0.852-0.142-1.717-0.193-2.583c-0.052-0.883-0.134-1.758-0.134-2.654v-0.001
				c0-0.193,0.026-0.379,0.029-0.571c0.009-0.701,0.065-1.39,0.106-2.084c0.051-0.864,0.094-1.729,0.193-2.58
				c0.102-0.885,0.248-1.755,0.401-2.624c0.154-0.876,0.335-1.741,0.538-2.599c0.819-3.447,2.029-6.737,3.587-9.831
				c0.4-0.792,0.816-1.571,1.26-2.336c0.444-0.767,0.894-1.533,1.381-2.271c1.933-2.925,4.208-5.594,6.747-7.994
				c0.643-0.608,1.286-1.216,1.965-1.786c0.678-0.57,1.393-1.092,2.104-1.622c0.764-0.57,1.533-1.132,2.332-1.654
				c0.867-0.566,1.749-1.109,2.656-1.615c0.863-0.482,1.757-0.909,2.654-1.334c0.467-0.222,0.92-0.467,1.395-0.673
				c0.809-0.351,1.646-0.645,2.479-0.949c0.831-0.303,1.657-0.611,2.509-0.866c3.296-0.986,6.753-1.571,10.314-1.779
				c0.884-0.051,1.759-0.134,2.654-0.134h0.001c0.896,0,1.772,0.083,2.654,0.134c3.561,0.208,7.019,0.793,10.314,1.78
				c0.852,0.256,1.678,0.563,2.507,0.866c0.834,0.304,1.671,0.598,2.481,0.95c0.474,0.205,0.925,0.449,1.39,0.67
				c0.897,0.426,1.793,0.853,2.657,1.336c0.906,0.505,1.787,1.049,2.653,1.613c0.801,0.523,1.571,1.086,2.336,1.657
				c0.711,0.53,1.426,1.052,2.103,1.622c0.678,0.571,1.322,1.179,1.965,1.787c2.539,2.399,4.814,5.069,6.746,7.994
				c0.487,0.738,0.935,1.503,1.38,2.27c0.444,0.766,0.861,1.545,1.26,2.338c1.558,3.093,2.767,6.383,3.586,9.829
				c0.204,0.858,0.383,1.723,0.538,2.599c0.153,0.869,0.299,1.74,0.401,2.624c0.099,0.851,0.143,1.715,0.193,2.579
				c0.041,0.693,0.097,1.383,0.106,2.084c0.003,0.192,0.029,0.378,0.029,0.571V125c0,0.896-0.083,1.771-0.135,2.654
				C170.116,128.519,170.072,129.384,169.973,130.235z M74.323,98.805l1.758,1.015l2.654,1.533l1.21,0.698
				c-0.422,0.825-0.833,1.656-1.21,2.506c-1.091,2.459-1.963,5.026-2.654,7.671c-0.121,0.462-0.25,0.921-0.358,1.388l-2.297-0.405
				l-4.098-0.722c0.928-4.133,2.324-8.082,4.098-11.825C73.72,100.042,74.005,99.415,74.323,98.805z M107.986,70.496
				c4.563-1.427,9.388-2.226,14.359-2.456v6.48c-4.196,0.22-8.27,0.898-12.137,2.082L107.986,70.496z M139.792,76.603
				c-3.866-1.184-7.94-1.863-12.137-2.082v-6.479c4.972,0.23,9.796,1.03,14.359,2.458L139.792,76.603z M144.347,65.705
				c-6.097-1.995-12.59-3.108-19.345-3.109h-0.001c-0.001,0-0.001,0-0.001,0c-0.001,0-0.003,0-0.004,0
				c-6.756,0-13.249,1.113-19.347,3.107V31.017h38.699V65.705z M176.57,113.213l-2.297,0.405c-0.107-0.465-0.235-0.922-0.356-1.383
				c-0.692-2.647-1.565-5.219-2.657-7.679c-0.377-0.849-0.786-1.679-1.207-2.503l1.207-0.697l2.657-1.533l1.756-1.014
				c0.317,0.609,0.602,1.236,0.897,1.858c1.774,3.743,3.17,7.69,4.099,11.823L176.57,113.213z M171.26,95.223l-3.859,2.228
				c-2.253-3.456-4.925-6.601-7.929-9.406l4.161-4.959c2.82,2.601,5.376,5.47,7.627,8.587c0.602,0.834,1.188,1.675,1.746,2.542
				L171.26,95.223z M155.407,84.634c-1.831-1.383-3.738-2.667-5.75-3.795c-0.864-0.485-1.759-0.915-2.653-1.349
				c-0.741-0.36-1.464-0.749-2.224-1.072l2.217-6.091c0.002,0.001,0.004,0.002,0.007,0.003c0.906,0.38,1.772,0.833,2.653,1.257
				c3.521,1.696,6.837,3.733,9.913,6.086L155.407,84.634z M86.364,83.083l4.163,4.962c-3.005,2.805-5.677,5.95-7.93,9.406
				l-3.862-2.23l-1.745-1.008c0.557-0.866,1.143-1.708,1.745-2.541C80.987,88.555,83.544,85.684,86.364,83.083z M75.724,136.384
				c0.939,4.064,2.365,7.936,4.22,11.563l-5.621,3.245c-2.22-4.276-3.912-8.861-4.995-13.681L75.724,136.384z M82.597,152.548
				c2.253,3.457,4.926,6.602,7.931,9.408l-4.163,4.961c-3.575-3.298-6.733-7.025-9.375-11.131L82.597,152.548z M94.594,165.366
				c3.268,2.469,6.811,4.591,10.627,6.217l-2.217,6.091c-4.527-1.897-8.726-4.402-12.575-7.344L94.594,165.366z M110.209,173.398
				c3.867,1.184,7.941,1.863,12.137,2.082v6.477c-4.971-0.23-9.796-1.028-14.359-2.455L110.209,173.398z M146.997,177.671
				l-2.216-6.088c3.814-1.627,7.358-3.749,10.626-6.218l4.163,4.962C155.721,173.27,151.523,175.774,146.997,177.671z
				 M163.632,166.912l-4.16-4.958c3.005-2.805,5.676-5.951,7.93-9.408l5.605,3.236C170.364,159.888,167.207,163.615,163.632,166.912
				z M175.674,151.19l-5.62-3.245c1.854-3.626,3.28-7.498,4.219-11.562l6.395,1.128C179.585,142.33,177.893,146.914,175.674,151.19z
				 M181.958,127.654c-0.072,1.559-0.187,3.103-0.383,4.627l-6.378-1.124c0.141-1.155,0.217-2.326,0.279-3.503
				c0.047-0.884,0.135-1.758,0.135-2.654v-0.001c0-0.193-0.027-0.379-0.029-0.571c-0.008-0.702-0.07-1.39-0.106-2.084
				c-0.061-1.177-0.137-2.347-0.278-3.5l1.372-0.242l5.005-0.883c0.195,1.523,0.311,3.067,0.383,4.625
				c0.033,0.696,0.099,1.382,0.106,2.084c0.001,0.192,0.029,0.378,0.029,0.571V125C182.093,125.896,182,126.768,181.958,127.654z"/>
			<path fill="#5AB7B2" d="M138.769,130.123c-0.027-0.099-0.057-0.194-0.086-0.291c-0.243-0.803-0.561-1.528-0.947-2.179
				c-0.092-0.155-0.182-0.311-0.281-0.458c-0.368-0.546-0.787-1.034-1.24-1.478c-0.258-0.253-0.528-0.493-0.81-0.718
				c-0.251-0.2-0.508-0.393-0.775-0.572c-0.317-0.212-0.642-0.412-0.978-0.597c-0.167-0.093-0.337-0.18-0.508-0.266
				c-0.061-0.031-0.121-0.065-0.182-0.095c-0.775-0.38-1.579-0.701-2.391-0.978c-0.15-0.051-0.3-0.098-0.449-0.146
				c-0.111-0.036-0.223-0.074-0.333-0.108c-0.289-0.09-0.577-0.174-0.864-0.256c-0.271-0.077-0.54-0.152-0.807-0.223
				c-0.108-0.029-0.216-0.058-0.323-0.086c-0.046-0.011-0.093-0.024-0.139-0.037c-0.395-0.102-0.784-0.201-1.163-0.296
				c-0.027-0.006-0.055-0.014-0.081-0.021c-0.024-0.006-0.042-0.011-0.065-0.017c-0.062-0.016-0.111-0.029-0.173-0.045
				c-0.386-0.097-0.736-0.19-1.09-0.284c-0.027-0.008-0.057-0.015-0.084-0.022c-0.017-0.004-0.036-0.009-0.053-0.014
				c-0.414-0.111-0.801-0.223-1.171-0.331c-0.144-0.042-0.285-0.085-0.422-0.128c-0.355-0.109-0.696-0.223-1.009-0.335
				c-1.001-0.361-1.787-0.756-2.382-1.222c-0.08-0.062-0.154-0.127-0.227-0.192c-0.281-0.252-0.517-0.53-0.702-0.837
				c-0.406-0.67-0.619-1.474-0.619-2.525c0-0.1,0.039-0.202,0.053-0.303c0.008-0.056,0.018-0.111,0.029-0.167
				c0.083-0.391,0.244-0.78,0.517-1.157c0.34-0.47,0.813-0.919,1.41-1.31c0.543-0.356,1.2-0.65,1.922-0.89
				c0.173-0.057,0.336-0.12,0.518-0.169c0.655-0.176,1.378-0.276,2.137-0.323c0.24-0.015,0.467-0.047,0.716-0.047
				c0.529,0,1.031,0.044,1.517,0.109c0.145,0.019,0.281,0.049,0.422,0.074c0.79,0.139,1.507,0.352,2.146,0.627
				c0.736,0.315,1.363,0.698,1.861,1.123c0.151,0.129,0.286,0.259,0.412,0.393c0.062,0.065,0.124,0.131,0.18,0.198
				c0.215,0.257,0.403,0.518,0.524,0.781c0.136,0.299,0.336,0.544,0.557,0.762c0.627,0.619,1.518,0.854,2.389,0.675
				c0.193-0.04,0.389-0.05,0.575-0.136c0.048-0.022,0.077-0.065,0.123-0.09c0.311-0.166,0.578-0.378,0.791-0.635
				c0.219-0.264,0.382-0.562,0.485-0.886c0.194-0.609,0.189-1.285-0.098-1.911c-0.2-0.432-0.449-0.843-0.721-1.242
				c-0.493-0.721-1.116-1.37-1.818-1.962c-0.34-0.286-0.695-0.557-1.075-0.81c-0.728-0.482-1.516-0.907-2.37-1.251
				c-0.805-0.325-1.657-0.576-2.546-0.763c-0.23-0.048-0.464-0.088-0.7-0.127v-5.399c0-0.694-0.281-1.314-0.716-1.786
				c-0.485-0.527-1.166-0.869-1.939-0.869c-0.254,0-0.484,0.078-0.716,0.145c-1.11,0.317-1.939,1.297-1.939,2.51v5.37
				c-0.248,0.039-0.474,0.116-0.716,0.167c-0.441,0.091-0.882,0.179-1.301,0.304c-0.875,0.261-1.707,0.579-2.469,0.975
				c-0.846,0.439-1.581,0.976-2.258,1.557c-0.266,0.229-0.525,0.464-0.762,0.712c-0.651,0.683-1.188,1.428-1.589,2.236
				c-0.485,0.981-0.764,2.04-0.815,3.156c-0.001,0.027-0.009,0.052-0.01,0.078c-0.004,0.095-0.036,0.184-0.036,0.28
				c0,1.127,0.16,2.105,0.405,3.002c0.207,0.754,0.474,1.446,0.823,2.058c0.419,0.736,0.944,1.36,1.525,1.919
				c0.5,0.482,1.04,0.913,1.625,1.287c0.036,0.023,0.076,0.04,0.113,0.063c0.422,0.264,0.853,0.515,1.305,0.734
				c0.334,0.161,0.677,0.297,1.021,0.438c0.112,0.046,0.223,0.09,0.337,0.134c0.323,0.126,0.638,0.264,0.965,0.375
				c0.203,0.068,0.405,0.121,0.607,0.184c0.043,0.014,0.086,0.026,0.129,0.039c0.036,0.011,0.071,0.022,0.107,0.033
				c0.093,0.029,0.187,0.057,0.28,0.085c0.034,0.01,0.068,0.022,0.103,0.032c0.279,0.081,0.556,0.172,0.831,0.247
				c0.249,0.067,0.485,0.125,0.729,0.188c0.172,0.045,0.344,0.09,0.513,0.132c0.158,0.04,0.324,0.085,0.479,0.123
				c0.039,0.01,0.081,0.022,0.12,0.032c0.165,0.041,0.299,0.08,0.459,0.12c0.337,0.086,0.654,0.17,0.968,0.255
				c0.099,0.026,0.207,0.053,0.304,0.08c0.027,0.008,0.059,0.015,0.087,0.023c0.051,0.014,0.112,0.029,0.163,0.042
				c0.194,0.054,0.37,0.11,0.554,0.164c0.054,0.016,0.1,0.032,0.153,0.047c0.319,0.095,0.63,0.19,0.922,0.287
				c0.167,0.055,0.346,0.111,0.504,0.167c0.362,0.129,0.68,0.267,0.996,0.406c0.074,0.032,0.161,0.062,0.233,0.094
				c0.456,0.211,0.861,0.439,1.222,0.684c0.026,0.018,0.061,0.033,0.088,0.051c0.048,0.034,0.097,0.07,0.144,0.104
				c0.686,0.513,1.187,1.117,1.512,1.871c0.011,0.024,0.014,0.055,0.024,0.08c0.258,0.629,0.388,1.379,0.424,2.246
				c0.006,0.148,0.033,0.269,0.033,0.425c0,0.049-0.022,0.095-0.024,0.144c-0.022,0.477-0.165,0.934-0.381,1.376
				c-0.301,0.617-0.757,1.19-1.37,1.701c-0.128,0.106-0.271,0.205-0.411,0.305c-0.562,0.406-1.193,0.77-1.917,1.064
				c-0.662,0.268-1.39,0.467-2.151,0.619c-0.139,0.029-0.276,0.059-0.418,0.083c-0.722,0.121-1.463,0.206-2.237,0.206H125
				c-0.792,0-1.528-0.084-2.237-0.202c-0.142-0.024-0.279-0.052-0.417-0.08c-0.77-0.155-1.505-0.351-2.153-0.619
				c-0.73-0.301-1.353-0.676-1.905-1.08c-0.138-0.101-0.291-0.195-0.417-0.3c-0.619-0.518-1.09-1.089-1.391-1.675
				c-0.076-0.148-0.112-0.299-0.166-0.448c-0.05-0.139-0.123-0.277-0.154-0.416c-0.073-0.333-0.214-0.63-0.39-0.897
				c-0.184-0.279-0.418-0.513-0.688-0.702c-0.581-0.406-1.316-0.591-2.08-0.434c-1.431,0.312-2.339,1.727-2.028,3.158
				c0.047,0.216,0.149,0.413,0.212,0.625c0.093,0.312,0.187,0.622,0.313,0.921c0.36,0.853,0.851,1.65,1.459,2.39
				c0.551,0.67,1.203,1.276,1.927,1.833c0.359,0.277,0.713,0.556,1.11,0.801c0.738,0.457,1.546,0.841,2.395,1.178
				c0.807,0.32,1.657,0.574,2.544,0.773c0.467,0.106,0.927,0.224,1.413,0.292c0.233,0.034,0.478,0.037,0.716,0.061v5.729
				c0,1.213,0.828,2.192,1.939,2.51c0.233,0.067,0.462,0.144,0.716,0.144c0.773,0,1.454-0.342,1.939-0.869
				c0.435-0.473,0.716-1.093,0.716-1.786v-5.923c0.239-0.042,0.464-0.109,0.698-0.161c0.892-0.197,1.738-0.452,2.543-0.769
				c0.857-0.337,1.652-0.734,2.392-1.192c0.392-0.243,0.802-0.467,1.156-0.739c0.728-0.561,1.347-1.195,1.896-1.869
				c0.609-0.747,1.072-1.563,1.43-2.424c0.122-0.295,0.265-0.581,0.355-0.887c0.231-0.785,0.379-1.596,0.379-2.441
				c0-0.146-0.018-0.275-0.022-0.418C139.168,132.06,139.018,131.04,138.769,130.123z"/>
		</g>
	</g>
</g>
<g id="pie_layer" display="none">
</g>
<g id="Pie_Layer_2" display="none">
</g>
<g id="meals_saved" display="none">
</g>
<g id="consumer_ed_hover" display="none">
</g>
<g id="pop_up" display="none">
</g>
<g id="Layer_9">
</g>
<g id="Layer_2" display="none">
</g>
<g id="Layer_8">
</g>
<g id="Layer_10">
</g>
</svg>
