<svg xmlns="http://www.w3.org/2000/svg" viewBox="0 0 300 300"><defs><style>.cls-1{fill:#0092b7;}.cls-2{fill:#fff;}</style></defs><g id="Layer_2" data-name="Layer 2"><g id="Layer_1-2" data-name="Layer 1"><g id="Ellipse_226" data-name="Ellipse 226"><circle class="cls-1" cx="150" cy="150" r="150"/></g><g id="Group_840" data-name="Group 840"><g id="Group_837" data-name="Group 837"><g id="Ellipse_227" data-name="Ellipse 227"><path class="cls-2" d="M115.7,139a24.66,24.66,0,1,1,24.65-24.66A24.69,24.69,0,0,1,115.7,139Zm0-41.32a16.66,16.66,0,1,0,16.65,16.66A16.67,16.67,0,0,0,115.7,97.66Z"/></g><g id="Path_1218" data-name="Path 1218"><path class="cls-2" d="M144.61,177.54H73.14v-4a42.56,42.56,0,0,1,66.36-35.3L135,144.87a34.58,34.58,0,0,0-53.66,24.67h63.25Z"/></g></g><g id="Group_838" data-name="Group 838"><g id="Ellipse_228" data-name="Ellipse 228"><path class="cls-2" d="M154.94,177.54a24.66,24.66,0,1,1,24.66-24.66A24.69,24.69,0,0,1,154.94,177.54Zm0-41.32a16.66,16.66,0,1,0,16.66,16.66A16.67,16.67,0,0,0,154.94,136.22Z"/></g><g id="Path_1219" data-name="Path 1219"><path class="cls-2" d="M197.57,216.09H112.33l.07-4.06a42.56,42.56,0,0,1,85.1,0Zm-76.88-8H189.2a34.57,34.57,0,0,0-68.51,0Z"/></g></g><g id="Group_839" data-name="Group 839"><g id="Ellipse_229" data-name="Ellipse 229"><path class="cls-2" d="M172.84,119.7A24.66,24.66,0,1,1,197.5,95,24.69,24.69,0,0,1,172.84,119.7Zm0-41.32A16.66,16.66,0,1,0,189.5,95,16.67,16.67,0,0,0,172.84,78.38Z"/></g><g id="Path_1220" data-name="Path 1220"><path class="cls-2" d="M215.47,158.25H174.91v-8H207.1a34.56,34.56,0,0,0-68.81,4.07l-8-.13a42.56,42.56,0,0,1,85.1,0Z"/></g></g></g></g></g></svg>