<?xml version="1.0" encoding="utf-8"?>
<!-- Generator: Adobe Illustrator 19.1.0, SVG Export Plug-In . SVG Version: 6.00 Build 0)  -->
<svg version="1.1" xmlns="http://www.w3.org/2000/svg" xmlns:xlink="http://www.w3.org/1999/xlink" x="0px" y="0px"
	 viewBox="0 0 345 344.953" enable-background="new 0 0 345 344.953" xml:space="preserve">
<g id="bottom">
	<g>
		<path fill="#E2DCCA" d="M54.965,171.757c0-64.919,52.604-117.55,117.511-117.597V1.423c-94.47,0-171.054,76.583-171.054,171.054
			c0,94.47,76.583,171.054,171.054,171.054v-54.177C107.569,289.307,54.965,236.676,54.965,171.757z"/>
		<path fill="#9BCAC0" d="M335.159,119.618l-50.529,16.418c3.588,11.266,5.531,23.266,5.531,35.721
			c0,64.947-52.65,117.597-117.598,117.597c-0.029,0-0.057-0.001-0.086-0.001v54.177c18.894,0,34.889-2.533,52.858-8.372
			C315.182,305.966,364.352,209.465,335.159,119.618z"/>
		<path fill="#78BEB5" d="M172.563,54.159c52.492,0,96.945,34.396,112.067,81.877l50.529-16.418
			C311.804,47.741,248.053,1.423,172.477,1.423V54.16C172.506,54.16,172.534,54.159,172.563,54.159z"/>
		<path fill="#78BEB5" d="M245.512,197.558l0.471,0.167c0,0,0,0,0,0l1.886,0.667l2.357,0.833c3.114-8.803,4.693-18.044,4.693-27.468
			c0-8.648-1.348-16.986-3.831-24.823l-4.755,1.545c2.325,7.35,3.585,15.169,3.585,23.278
			C249.919,180.611,248.437,189.292,245.512,197.558z"/>
		<path fill="#78BEB5" d="M172.563,89.401v5c34.545,0,63.868,22.765,73.771,54.079l4.755-1.545
			C240.533,113.617,209.326,89.401,172.563,89.401z"/>
		<polygon fill="#EBE6DA" points="245.984,197.724 245.984,197.725 247.869,198.391 		"/>
		<path fill="#9BCAC0" d="M245.984,197.725l-0.471-0.167c-10.906,30.837-40.222,51.555-72.95,51.555v0.5
			C205.501,249.613,235.007,228.76,245.984,197.725z"/>
		<path fill="#9BCAC0" d="M249.755,199.058c-11.541,32.631-42.562,54.555-77.192,54.555v0.5c34.842,0,66.052-22.058,77.664-54.888
			l-2.357-0.833L249.755,199.058z"/>
		<path fill="#9BCAC0" d="M249.755,199.058l-1.886-0.667l-1.886-0.667c-10.977,31.036-40.482,51.888-73.421,51.888v4
			C207.193,253.613,238.214,231.689,249.755,199.058z"/>
	</g>
</g>
<g id="Farming" display="none">
</g>
<g id="Manufacturing" display="none">
</g>
<g id="Waste_diverted">
</g>
<g id="jobs">
</g>
<g id="consumer_ed_hover">
</g>
<g id="pop_up" display="none">
</g>
</svg>
