<?xml version="1.0" encoding="utf-8"?>
<!-- Generator: Adobe Illustrator 19.1.0, SVG Export Plug-In . SVG Version: 6.00 Build 0)  -->
<svg version="1.1" xmlns="http://www.w3.org/2000/svg" xmlns:xlink="http://www.w3.org/1999/xlink" x="0px" y="0px"
	 viewBox="0 0 150 150" enable-background="new 0 0 150 150" xml:space="preserve">
<g id="bottom">
	<g>
		<circle fill="#E8E3D4" cx="75" cy="75" r="47.038"/>
		<g>
			<rect x="37.857" y="28.154" fill="#338574" width="49.992" height="50.324"/>
			<polygon fill="#555759" points="56.143,46.058 37.857,78.478 87.849,79.679 106.139,46.058 			"/>
			<polygon fill="#08786B" points="56.143,46.058 37.857,78.478 87.849,79.679 106.139,46.058 			"/>
			<rect x="56.143" y="46.058" fill="#79A883" width="49.996" height="75.788"/>
			<path fill="#589C8D" d="M98.558,62.863c0,9.29-7.794,16.816-17.42,16.816c-9.618,0-17.418-7.527-17.418-16.816V46.058h34.838
				V62.863z"/>
			<path fill="#589C8D" d="M74.414,110.346c0,2.854-2.394,5.164-5.346,5.164c-2.954,0-5.348-2.309-5.348-5.164
				c0-2.848,2.394-5.156,5.348-5.156C72.02,105.19,74.414,107.498,74.414,110.346z"/>
			<path fill="#589C8D" d="M98.558,110.346c0,2.854-2.392,5.164-5.344,5.164c-2.956,0-5.346-2.309-5.346-5.164
				c0-2.848,2.39-5.156,5.346-5.156C96.165,105.19,98.558,107.498,98.558,110.346z"/>
			<g>
				<ellipse fill="#08786B" cx="51.645" cy="37.522" rx="5.347" ry="5.16"/>
				<path fill="#08786B" d="M81.138,37.522c0,2.852-2.394,5.16-5.344,5.16c-2.954,0-5.35-2.308-5.35-5.16
					c0-2.851,2.396-5.159,5.35-5.159C78.743,32.362,81.138,34.671,81.138,37.522z"/>
			</g>
		</g>
	</g>
</g>
<g id="Farming" display="none">
</g>
<g id="Manufacturing" display="none">
</g>
<g id="Waste_diverted">
</g>
<g id="jobs">
</g>
<g id="consumer_ed_hover">
</g>
<g id="pop_up" display="none">
</g>
</svg>
