<?xml version="1.0" encoding="utf-8"?>
<!-- Generator: Adobe Illustrator 19.1.0, SVG Export Plug-In . SVG Version: 6.00 Build 0)  -->
<svg version="1.1" xmlns="http://www.w3.org/2000/svg" xmlns:xlink="http://www.w3.org/1999/xlink" x="0px" y="0px"
	 viewBox="0 0 250 250" enable-background="new 0 0 250 250" xml:space="preserve">
<g id="bottom">
	<g>
		<path fill="#D1E9E7" d="M58.588,122.37c3.09-2.214,7.208-3.72,12.424-3.72h0.908h14.019v-0.83
			c0-11.379,9.258-20.637,20.637-20.637h36.849c11.379,0,20.637,9.258,20.637,20.637v0.83h14.019h0.909
			c5.213,0,9.331,1.507,12.421,3.72h56.65h0.654C247.311,55.226,192.481,1.218,125,1.218c-67.48,0-122.31,54.008-123.716,121.152
			h2.069H58.588z M100.414,66.085l-7.255,4.19c-0.416,0.238-0.868,0.352-1.315,0.352c-0.904,0-1.792-0.47-2.275-1.315
			c-0.729-1.257-0.298-2.865,0.96-3.592l7.255-4.19c1.248-0.724,2.866-0.303,3.59,0.962
			C102.104,63.751,101.673,65.359,100.414,66.085z M160.427,69.312c-0.483,0.845-1.371,1.315-2.275,1.315
			c-0.448,0-0.899-0.114-1.315-0.352l-7.255-4.19c-1.258-0.727-1.69-2.334-0.96-3.593c0.724-1.263,2.336-1.679,3.59-0.962
			l7.255,4.19C160.725,66.447,161.157,68.055,160.427,69.312z M153.993,41.075l8.252-1.456c1.396-0.259,2.787,0.699,3.045,2.131
			c0.252,1.43-0.703,2.794-2.131,3.046l-8.252,1.455c-0.153,0.029-0.308,0.042-0.462,0.042c-1.247,0-2.357-0.896-2.583-2.172
			C151.61,42.69,152.565,41.327,153.993,41.075z M142.208,24.258l5.386-6.419c0.934-1.112,2.588-1.253,3.703-0.323
			c1.114,0.932,1.257,2.591,0.323,3.702l-5.386,6.419c-0.519,0.622-1.264,0.941-2.013,0.941c-0.596,0-1.197-0.203-1.69-0.617
			C141.418,27.028,141.273,25.37,142.208,24.258z M122.372,10.573c0-1.453,1.175-2.628,2.628-2.628s2.629,1.175,2.629,2.628v8.378
			c0,1.453-1.176,2.628-2.629,2.628s-2.628-1.175-2.628-2.628V10.573z M125,27.501c10.522,0,19.082,8.56,19.082,19.082
			c0,6.772-3.682,13.058-9.51,16.455v4.975v7.933v1.315v6.618c0,1.453-1.175,2.629-2.628,2.629h-13.885
			c-1.453,0-2.629-1.176-2.629-2.629v-6.618v-1.315v-7.933v-4.975c-5.828-3.395-9.51-9.68-9.51-16.455
			C105.919,36.061,114.479,27.501,125,27.501z M98.705,17.513c1.108-0.938,2.767-0.786,3.702,0.326l5.382,6.419
			c0.934,1.112,0.791,2.77-0.323,3.705c-0.494,0.413-1.094,0.614-1.69,0.614c-0.75,0-1.494-0.321-2.013-0.941l-5.382-6.419
			C97.447,20.107,97.59,18.448,98.705,17.513z M87.757,39.619l8.246,1.456c1.428,0.252,2.383,1.615,2.131,3.046
			c-0.226,1.275-1.335,2.172-2.583,2.172c-0.153,0-0.308-0.013-0.462-0.042l-8.247-1.455c-1.427-0.252-2.383-1.616-2.131-3.046
			C84.963,40.318,86.355,39.363,87.757,39.619z"/>
		<path fill="#D1E9E7" d="M148.503,117.602c0-2.68-2.183-4.863-4.863-4.863h-37.28c-2.681,0-4.863,2.183-4.863,4.863v1.048h47.006
			V117.602z"/>
		<g>
			<path fill="#D1E9E7" d="M186.939,148.268l-47.277,19.18v8.539c0,1.453-1.176,2.628-2.629,2.628h-24.063
				c-1.453,0-2.629-1.176-2.629-2.628v-8.539l-47.344-19.206c-2.575-0.96-4.72-2.329-6.455-3.945v50.386
				c0,8.48,6.902,15.382,15.379,15.382h106.161c8.478,0,15.379-6.902,15.379-15.382v-50.397
				C191.713,145.915,189.546,147.295,186.939,148.268z"/>
			<path fill="#D1E9E7" d="M96.24,117.602c0-5.581,4.539-10.121,10.121-10.121h37.28c5.581,0,10.121,4.539,10.121,10.121v1.048
				h5.042v-0.83c0-8.48-6.902-15.379-15.379-15.379h-36.849c-8.478,0-15.379,6.899-15.379,15.379v0.83h5.043V117.602z"/>
			<path fill="#D1E9E7" d="M64.901,143.343l45.466,18.444c0.072-1.388,1.196-2.498,2.602-2.498h24.063
				c1.405,0,2.528,1.108,2.602,2.495l45.4-18.416c4.684-1.749,7.447-4.904,7.696-8.516c0.044-0.645,0.035-1.3-0.086-1.97
				c-0.33-1.825-1.382-3.688-3.062-5.255c-1.142-1.065-2.59-1.972-4.345-2.628c-0.604-0.225-1.247-0.408-1.923-0.567
				c-1.32-0.31-2.733-0.525-4.325-0.525h-0.909h-14.019h-2.629h-2.628h-5.042h-2.631h-2.628h-47.006h-2.629H96.24h-5.043h-2.63
				h-2.628H71.92h-0.908c-1.593,0-3.008,0.216-4.327,0.525c-0.675,0.158-1.32,0.342-1.923,0.567
				c-1.757,0.656-3.205,1.563-4.347,2.628c-1.681,1.567-2.733,3.43-3.063,5.255c-0.121,0.672-0.129,1.33-0.084,1.977
				C57.523,138.468,60.278,141.617,64.901,143.343z"/>
			<path fill="#D1E9E7" d="M119.172,59.071c0.924,0.431,1.516,1.36,1.516,2.38v3.933h1.684v-6.767l-5.15-5.945
				c-0.95-1.099-0.832-2.759,0.266-3.71c1.094-0.95,2.758-0.832,3.708,0.264L125,53.62l3.8-4.39c0.95-1.099,2.609-1.215,3.707-0.27
				c1.099,0.95,1.218,2.611,0.267,3.711l-5.145,5.947v6.767h1.684v-3.933c0-1.02,0.59-1.95,1.515-2.38
				c4.858-2.276,7.995-7.179,7.995-12.488c0-7.624-6.203-13.824-13.823-13.824c-7.62,0-13.823,6.2-13.823,13.824
				C111.177,51.894,114.315,56.795,119.172,59.071z"/>
		</g>
		<path fill="#5AB7B2" d="M127.63,58.617l-0.642,0.741c-0.498,0.575-1.222,0.907-1.988,0.907c-0.765,0-1.489-0.332-1.988-0.907
			l-0.641-0.741v6.767h5.258V58.617z"/>
		<path fill="#5AB7B2" d="M125,55.006c1.453,0,2.629,1.176,2.629,2.629v0.981l5.145-5.947c0.95-1.099,0.832-2.76-0.267-3.711
			c-1.099-0.945-2.758-0.83-3.707,0.27l-3.8,4.39l-3.805-4.393c-0.95-1.097-2.614-1.214-3.708-0.264
			c-1.099,0.95-1.217,2.611-0.266,3.71l5.15,5.945v-0.981C122.372,56.182,123.547,55.006,125,55.006z"/>
		<path fill="#5AB7B2" d="M125,60.265c0.765,0,1.489-0.332,1.988-0.907l0.642-0.741v-0.981c0-1.453-1.176-2.629-2.629-2.629
			s-2.628,1.176-2.628,2.629v0.981l0.641,0.741C123.511,59.933,124.235,60.265,125,60.265z"/>
		<g>
			<path fill="#A1D4D0" d="M248.061,127.628h-51.857c0.791,1.411,1.356,2.875,1.617,4.321c0.121,0.667,0.145,1.322,0.167,1.976
				c0.462,1.714,0.732,3.507,0.732,5.364v55.394c0,11.381-9.259,20.64-20.638,20.64H71.92c-11.379,0-20.637-9.258-20.637-20.64
				v-55.394c0-1.85,0.267-3.635,0.727-5.343c0.02-0.661,0.045-1.323,0.167-1.998c0.262-1.446,0.828-2.91,1.618-4.321H3.353H1.284
				C2.688,194.773,57.518,248.782,125,248.782c67.482,0,122.312-54.009,123.716-121.154H248.061z"/>
			<polygon fill="#A1D4D0" points="134.402,169.581 134.402,166.745 134.402,164.549 132.821,164.549 117.173,164.549 
				115.599,164.549 115.599,166.746 115.599,169.581 115.599,173.357 134.402,173.357 			"/>
			<polygon fill="#A1D4D0" points="129.314,70.642 127.63,70.642 122.372,70.642 120.688,70.642 120.688,73.317 129.314,73.317 			
				"/>
			<polygon fill="#A1D4D0" points="129.314,79.89 129.314,78.576 120.688,78.576 120.688,79.89 120.688,81.251 129.314,81.251 			
				"/>
		</g>
		<g>
			<path fill="#5AB7B2" d="M248.768,124.433c-0.003-0.691-0.038-1.375-0.052-2.063h-0.654h-56.65
				c-3.091-2.214-7.208-3.72-12.421-3.72h-0.909h-14.019v-0.83c0-11.379-9.258-20.637-20.637-20.637h-36.849
				c-11.379,0-20.637,9.258-20.637,20.637v0.83H71.92h-0.908c-5.215,0-9.334,1.507-12.424,3.72H3.353H1.284
				c-0.014,0.688-0.049,1.372-0.051,2.063c-0.002,0.19-0.014,0.377-0.014,0.567c0,0.882,0.048,1.751,0.066,2.628h2.069h50.442
				c-0.791,1.411-1.357,2.875-1.618,4.321c-0.122,0.674-0.147,1.337-0.167,1.998c-0.459,1.708-0.727,3.492-0.727,5.343v55.394
				c0,11.381,9.258,20.64,20.637,20.64h106.161c11.379,0,20.638-9.258,20.638-20.64v-55.394c0-1.858-0.27-3.65-0.732-5.364
				c-0.022-0.654-0.046-1.309-0.167-1.976c-0.261-1.446-0.826-2.91-1.617-4.321h51.857h0.654c0.019-0.877,0.067-1.747,0.067-2.628
				C248.782,124.81,248.768,124.623,248.768,124.433z M193.46,194.683c0,8.48-6.902,15.382-15.379,15.382H71.92
				c-8.478,0-15.379-6.902-15.379-15.382v-50.386c1.735,1.616,3.88,2.985,6.455,3.945l47.344,19.206v8.539
				c0,1.453,1.176,2.628,2.629,2.628h24.063c1.453,0,2.629-1.176,2.629-2.628v-8.539l47.277-19.18
				c2.608-0.973,4.774-2.353,6.522-3.982V194.683z M91.197,117.82c0-8.48,6.902-15.379,15.379-15.379h36.849
				c8.478,0,15.379,6.899,15.379,15.379v0.83h-5.042v-1.048c0-5.581-4.54-10.121-10.121-10.121h-37.28
				c-5.582,0-10.121,4.539-10.121,10.121v1.048h-5.043V117.82z M192.644,132.883c0.121,0.67,0.13,1.324,0.086,1.97
				c-0.249,3.612-3.012,6.767-7.696,8.516l-45.4,18.416c-0.074-1.387-1.197-2.495-2.602-2.495h-24.063
				c-1.406,0-2.53,1.109-2.602,2.498l-45.466-18.444c-4.623-1.726-7.378-4.875-7.633-8.483c-0.045-0.648-0.037-1.305,0.084-1.977
				c0.329-1.825,1.382-3.688,3.063-5.255c1.142-1.065,2.59-1.972,4.347-2.628c0.603-0.225,1.247-0.408,1.923-0.567
				c1.32-0.31,2.734-0.525,4.327-0.525h0.908h14.019h2.628h2.63h5.043h2.628h2.629h47.006h2.628h2.631h5.042h2.628h2.629h14.019
				h0.909c1.591,0,3.005,0.216,4.325,0.525c0.675,0.158,1.319,0.342,1.923,0.567c1.756,0.656,3.203,1.563,4.345,2.628
				C191.262,129.195,192.314,131.059,192.644,132.883z M134.402,164.549v2.197v2.836v3.777h-18.804v-3.776v-2.835v-2.197h1.574
				h15.648H134.402z M148.503,118.649h-47.006v-1.048c0-2.68,2.183-4.863,4.863-4.863h37.28c2.68,0,4.863,2.183,4.863,4.863V118.649
				z"/>
			<path fill="#5AB7B2" d="M115.429,63.038v4.975v7.933v1.315v6.618c0,1.453,1.176,2.629,2.629,2.629h13.885
				c1.453,0,2.628-1.176,2.628-2.629v-6.618v-1.315v-7.933v-4.975c5.828-3.398,9.51-9.683,9.51-16.455
				c0-10.522-8.56-19.082-19.082-19.082c-10.521,0-19.082,8.56-19.082,19.082C105.919,53.358,109.601,59.643,115.429,63.038z
				 M138.823,46.583c0,5.309-3.137,10.212-7.995,12.488c-0.924,0.431-1.515,1.36-1.515,2.38v3.933h-1.684h-5.258h-1.684v-3.933
				c0-1.02-0.591-1.95-1.516-2.38c-4.857-2.276-7.995-7.177-7.995-12.488c0-7.624,6.203-13.824,13.823-13.824
				C132.621,32.759,138.823,38.959,138.823,46.583z M129.314,79.89v1.361h-8.627V79.89v-1.314h8.627V79.89z M120.688,73.317v-2.675
				h1.684h5.258h1.684v2.675H120.688z"/>
			<path fill="#5AB7B2" d="M125,21.58c1.453,0,2.629-1.175,2.629-2.628v-8.378c0-1.453-1.176-2.628-2.629-2.628
				s-2.628,1.175-2.628,2.628v8.378C122.372,20.405,123.547,21.58,125,21.58z"/>
			<path fill="#5AB7B2" d="M103.762,27.636c0.519,0.619,1.263,0.941,2.013,0.941c0.596,0,1.196-0.2,1.69-0.614
				c1.114-0.935,1.257-2.593,0.323-3.705l-5.382-6.419c-0.934-1.112-2.593-1.264-3.702-0.326c-1.115,0.934-1.258,2.593-0.324,3.704
				L103.762,27.636z"/>
			<path fill="#5AB7B2" d="M86.842,44.796l8.247,1.455c0.154,0.029,0.309,0.042,0.462,0.042c1.248,0,2.358-0.896,2.583-2.172
				c0.252-1.431-0.703-2.794-2.131-3.046l-8.246-1.456c-1.402-0.256-2.794,0.699-3.046,2.131
				C84.459,43.18,85.415,44.544,86.842,44.796z"/>
			<path fill="#5AB7B2" d="M97.785,61.531l-7.255,4.19c-1.258,0.727-1.69,2.334-0.96,3.592c0.483,0.845,1.371,1.315,2.275,1.315
				c0.447,0,0.899-0.114,1.315-0.352l7.255-4.19c1.258-0.727,1.69-2.334,0.96-3.593C100.651,61.227,99.033,60.807,97.785,61.531z"/>
			<path fill="#5AB7B2" d="M152.211,61.531c-1.254-0.717-2.866-0.301-3.59,0.962c-0.729,1.258-0.298,2.866,0.96,3.593l7.255,4.19
				c0.416,0.238,0.867,0.352,1.315,0.352c0.904,0,1.792-0.47,2.275-1.315c0.729-1.257,0.298-2.865-0.96-3.592L152.211,61.531z"/>
			<path fill="#5AB7B2" d="M154.445,46.292c0.154,0,0.309-0.013,0.462-0.042l8.252-1.455c1.428-0.252,2.383-1.616,2.131-3.046
				c-0.257-1.432-1.648-2.39-3.045-2.131l-8.252,1.456c-1.428,0.252-2.383,1.615-2.132,3.046
				C152.088,45.396,153.197,46.292,154.445,46.292z"/>
			<path fill="#5AB7B2" d="M144.221,28.577c0.749,0,1.494-0.319,2.013-0.941l5.386-6.419c0.934-1.111,0.791-2.77-0.323-3.702
				c-1.115-0.93-2.768-0.789-3.703,0.323l-5.386,6.419c-0.935,1.112-0.791,2.77,0.323,3.703
				C143.024,28.374,143.625,28.577,144.221,28.577z"/>
		</g>
	</g>
</g>
<g id="pie_layer" display="none">
</g>
<g id="Pie_Layer_2" display="none">
</g>
<g id="meals_saved" display="none">
</g>
<g id="consumer_ed_hover" display="none">
</g>
<g id="pop_up" display="none">
</g>
<g id="Layer_9">
</g>
<g id="Layer_2" display="none">
</g>
<g id="Layer_8">
</g>
<g id="Layer_10">
</g>
</svg>
