<?xml version="1.0" encoding="utf-8"?>
<!-- Generator: Adobe Illustrator 19.1.0, SVG Export Plug-In . SVG Version: 6.00 Build 0)  -->
<svg version="1.1" xmlns="http://www.w3.org/2000/svg" xmlns:xlink="http://www.w3.org/1999/xlink" x="0px" y="0px"
	 viewBox="0 0 250 250" enable-background="new 0 0 250 250" xml:space="preserve">
<g id="bottom">
	<g>
		<g>
			<path fill="#D1E9E7" d="M46.302,28.302c0.8,0,1.493,0.371,1.98,0.93c0.406,0.466,0.675,1.058,0.675,1.726v18.056h5.051
				c1.467,0,2.655,1.188,2.655,2.655v12.497h57.776V15.857V3.086V0.477c-25.94,2.172-49.633,12.237-68.643,27.825H46.302z"/>
			<path fill="#D1E9E7" d="M163.722,6.144v3.069v6.644v33.9l17.999-12.616c0.912-0.638,2.136-0.638,3.049,0l22.184,15.546
				c0.71,0.498,1.131,1.31,1.131,2.176v10.971l16.125-11.301l2.086-1.462c0.21-0.146,0.438-0.25,0.672-0.329
				C211.591,31.084,189.505,14.54,163.722,6.144z"/>
		</g>
		<g>
			<path fill="#A1D4D0" d="M249.273,127.353v0.301h-0.716h-1.991h-3.812c-0.16,0.03-0.307,0.095-0.476,0.095H230.62
				c-0.169,0-0.316-0.065-0.476-0.095h-40.594c-0.16,0.03-0.307,0.095-0.477,0.095h-11.657c-0.169,0-0.316-0.065-0.476-0.095
				h-15.398c-0.16,0.03-0.307,0.095-0.476,0.095h-43.973h-8.09H98.878h-44.87H2.01H0.07c0.55,25.379,8.645,48.888,22.158,68.376
				h2.606H223.74h4.033c13.583-19.59,21.695-43.242,22.168-68.772H249.273z M28.267,160.662H7.256h-0.23v-0.805v-4.504h21.24
				V160.662z M70.746,160.662h-21.24v-5.31h21.24V160.662z M113.226,160.662h-21.24v-5.31h21.24V160.662z M155.706,160.662h-21.24
				v-5.31h21.24V160.662z M198.185,160.662h-21.239v-5.31h21.239V160.662z M219.425,160.662v-5.31h21.239v5.31H219.425z"/>
			<path fill="#A1D4D0" d="M243.526,85.304c-2.721-8.128-6.249-15.88-10.499-23.167l-2.552-1.79v4.003v9.682l7.877,6.803
				L243.526,85.304z"/>
			<rect x="56.663" y="69.475" fill="#A1D4D0" width="57.776" height="14.966"/>
			<rect x="64.747" y="100.586" fill="#A1D4D0" width="23.386" height="13.767"/>
			<rect x="101.533" y="100.586" fill="#A1D4D0" width="4.817" height="21.758"/>
			<path fill="#A1D4D0" d="M158.412,7.533V4.552C147.773,1.607,136.577,0,125,0c-1.762,0-3.507,0.061-5.251,0.133V2.77v10.432
				h38.663V7.533z"/>
			<polygon fill="#A1D4D0" points="180.591,44.418 163.722,56.244 163.722,72.672 180.591,58.103 			"/>
			<polygon fill="#A1D4D0" points="202.774,56.244 185.901,44.418 185.901,58.103 202.774,72.673 			"/>
			<polygon fill="#A1D4D0" points="225.166,60.348 208.292,72.174 208.292,88.603 225.166,74.033 			"/>
		</g>
		<g>
			<path fill="#D1E9E7" d="M246.358,95.029c-0.027-0.108-0.048-0.217-0.075-0.325l-2.696-2.329l-1.862-1.609l-1.212-1.047
				L227.82,78.757L215.126,89.72l-3.076,2.655l-3.074,2.654l-0.684,0.591v26.423h19.673v-19.998c0-1.467,1.188-2.655,2.655-2.655
				h11.657c0.703,0,1.332,0.284,1.807,0.729c0.517,0.485,0.848,1.161,0.848,1.926v2.736v17.262h1.625h0.786v-22.74
				C247.044,97.868,246.707,96.446,246.358,95.029z M226.348,113.57c0,1.468-1.188,2.655-2.655,2.655h-11.657
				c-1.467,0-2.654-1.187-2.654-2.655v-11.525c0-1.467,1.187-2.655,2.654-2.655h11.657c1.467,0,2.655,1.188,2.655,2.655V113.57z"/>
			<path fill="#D1E9E7" d="M56.663,122.344h39.56V97.931c0-1.468,1.187-2.655,2.654-2.655h10.127c1.468,0,2.655,1.187,2.655,2.655
				v24.414h2.779V89.751H56.663V122.344z M59.437,97.931c0-1.468,1.187-2.655,2.655-2.655h28.696c1.468,0,2.655,1.187,2.655,2.655
				v19.077c0,1.467-1.187,2.655-2.655,2.655H62.092c-1.468,0-2.655-1.188-2.655-2.655V97.931z"/>
			<path fill="#D1E9E7" d="M119.749,66.82v20.275v35.249h38.663v-29.97v-13.9V54.863v-36.35h-38.663V66.82z M139.558,24.419
				c0-1.468,1.188-2.655,2.655-2.655h10.771c1.467,0,2.654,1.187,2.654,2.655v5.82c0,1.468-1.187,2.655-2.654,2.655h-10.771
				c-1.467,0-2.655-1.187-2.655-2.655V24.419z M139.558,38.803c0-1.467,1.188-2.655,2.655-2.655h10.771
				c1.467,0,2.654,1.188,2.654,2.655v5.821c0,1.467-1.187,2.655-2.654,2.655h-10.771c-1.467,0-2.655-1.188-2.655-2.655V38.803z
				 M139.558,53.185c0-1.468,1.188-2.655,2.655-2.655h10.771c1.467,0,2.654,1.187,2.654,2.655v5.821
				c0,1.467-1.187,2.654-2.654,2.654h-10.771c-1.467,0-2.655-1.187-2.655-2.654V53.185z M139.558,67.569
				c0-1.467,1.188-2.654,2.655-2.654h10.771c1.467,0,2.654,1.187,2.654,2.654v5.821c0,1.468-1.187,2.655-2.654,2.655h-10.771
				c-1.467,0-2.655-1.187-2.655-2.655V67.569z M139.558,81.952c0-1.467,1.188-2.655,2.655-2.655h10.771
				c1.467,0,2.654,1.188,2.654,2.655v5.821c0,1.467-1.187,2.655-2.654,2.655h-10.771c-1.467,0-2.655-1.188-2.655-2.655V81.952z
				 M139.558,96.334c0-1.467,1.188-2.655,2.655-2.655h10.771c1.467,0,2.654,1.188,2.654,2.655v5.823
				c0,1.468-1.187,2.655-2.654,2.655h-10.771c-1.467,0-2.655-1.187-2.655-2.655V96.334z M139.558,110.718
				c0-1.467,1.188-2.655,2.655-2.655h10.771c1.467,0,2.654,1.188,2.654,2.655v5.821c0,1.467-1.187,2.655-2.654,2.655h-10.771
				c-1.467,0-2.655-1.188-2.655-2.655V110.718z M122.524,24.419c0-1.468,1.187-2.655,2.654-2.655h10.77
				c1.468,0,2.655,1.187,2.655,2.655v5.82c0,1.468-1.187,2.655-2.655,2.655h-10.77c-1.467,0-2.654-1.187-2.654-2.655V24.419z
				 M122.524,38.803c0-1.467,1.187-2.655,2.654-2.655h10.77c1.468,0,2.655,1.188,2.655,2.655v5.821c0,1.467-1.187,2.655-2.655,2.655
				h-10.77c-1.467,0-2.654-1.188-2.654-2.655V38.803z M122.524,53.185c0-1.468,1.187-2.655,2.654-2.655h10.77
				c1.468,0,2.655,1.187,2.655,2.655v5.821c0,1.467-1.187,2.654-2.655,2.654h-10.77c-1.467,0-2.654-1.187-2.654-2.654V53.185z
				 M122.524,67.569c0-1.467,1.187-2.654,2.654-2.654h10.77c1.468,0,2.655,1.187,2.655,2.654v5.821c0,1.468-1.187,2.655-2.655,2.655
				h-10.77c-1.467,0-2.654-1.187-2.654-2.655V67.569z M122.524,81.952c0-1.467,1.187-2.655,2.654-2.655h10.77
				c1.468,0,2.655,1.188,2.655,2.655v5.821c0,1.467-1.187,2.655-2.655,2.655h-10.77c-1.467,0-2.654-1.188-2.654-2.655V81.952z
				 M122.524,96.334c0-1.467,1.187-2.655,2.654-2.655h10.77c1.468,0,2.655,1.188,2.655,2.655v5.823c0,1.468-1.187,2.655-2.655,2.655
				h-10.77c-1.467,0-2.654-1.187-2.654-2.655V96.334z M122.524,110.718c0-1.467,1.187-2.655,2.654-2.655h10.77
				c1.468,0,2.655,1.188,2.655,2.655v5.821c0,1.467-1.187,2.655-2.655,2.655h-10.77c-1.467,0-2.654-1.188-2.654-2.655V110.718z"/>
			<rect x="127.834" y="27.073" fill="#D1E9E7" width="5.46" height="0.511"/>
			<rect x="127.834" y="41.458" fill="#D1E9E7" width="5.46" height="0.51"/>
			<rect x="127.834" y="55.84" fill="#D1E9E7" width="5.46" height="0.51"/>
			<rect x="127.834" y="70.225" fill="#D1E9E7" width="5.46" height="0.51"/>
			<rect x="127.834" y="84.607" fill="#D1E9E7" width="5.46" height="0.51"/>
			<rect x="127.834" y="98.988" fill="#D1E9E7" width="5.46" height="0.514"/>
			<rect x="127.834" y="113.373" fill="#D1E9E7" width="5.46" height="0.511"/>
			<rect x="144.868" y="27.073" fill="#D1E9E7" width="5.46" height="0.511"/>
			<rect x="144.868" y="41.458" fill="#D1E9E7" width="5.46" height="0.51"/>
			<rect x="144.868" y="55.84" fill="#D1E9E7" width="5.46" height="0.51"/>
			<rect x="144.868" y="70.225" fill="#D1E9E7" width="5.46" height="0.51"/>
			<rect x="144.868" y="84.607" fill="#D1E9E7" width="5.46" height="0.51"/>
			<rect x="144.868" y="98.988" fill="#D1E9E7" width="5.46" height="0.514"/>
			<rect x="144.868" y="113.373" fill="#D1E9E7" width="5.46" height="0.511"/>
			<path fill="#D1E9E7" d="M43.647,51.668V33.612h-0.585h-3.303c-1.859,1.734-3.659,3.529-5.409,5.372h2.25
				c0.232,0,0.44,0.076,0.655,0.132c1.141,0.297,2,1.288,2,2.522c0,1.468-1.187,3.166-2.654,3.166h-4.593h-2.871
				c-1.19,1.421-2.344,2.873-3.471,4.348h2.729H36.6c1.467,0,2.654,1.187,2.654,2.655c0,1.467-1.187,3.166-2.654,3.166H24.05h-2.604
				c-0.966,1.426-1.891,2.883-2.799,4.351h2.494h22.822c1.467,0,2.654,1.187,2.654,2.655c0,1.467-1.187,3.166-2.654,3.166H17.64
				h-2.397c-0.781,1.429-1.517,2.886-2.244,4.348h2.311h28.652c1.467,0,2.654,1.188,2.654,2.655c0,1.468-1.187,3.166-2.654,3.166
				H12.524h-2.235c-0.622,1.435-1.205,2.889-1.774,4.351h2.169h33.279c1.467,0,2.654,1.187,2.654,2.655
				c0,1.467-1.187,3.166-2.654,3.166H8.525H6.413c-0.479,1.438-0.935,2.887-1.362,4.348h2.064h36.848
				c1.467,0,2.654,1.188,2.654,2.655c0,1.468-1.187,3.166-2.654,3.166H5.522H4.149c-0.22,0-0.416-0.075-0.622-0.126
				c-0.436,1.805-0.841,3.622-1.197,5.457c0.475-0.574,1.11-0.981,1.819-0.981h0.366h39.448c1.467,0,2.654,1.188,2.654,2.655
				c0,1.468-1.187,3.166-2.654,3.166H4.149c-0.238,0-0.452-0.077-0.671-0.135c-0.77-0.206-1.408-0.711-1.734-1.425
				c-0.991,5.928-1.555,11.996-1.679,18.174h1.377v-0.095h0.565h0.151h49.195V87.095V66.82V54.323h-5.051
				C44.835,54.323,43.647,53.136,43.647,51.668z M43.963,115.995H4.149c-0.695,0-1.315-0.281-1.787-0.716
				c-0.526-0.485-0.868-1.166-0.868-1.939c0-0.963,0.538-1.981,1.304-2.598c0.401-0.323,0.846-0.568,1.351-0.568h39.814
				c1.467,0,2.654,1.187,2.654,2.655C46.618,114.296,45.43,115.995,43.963,115.995z"/>
			<path fill="#D1E9E7" d="M163.722,79.69V89.72v2.655v2.654v27.014h11.04v-19.998c0-1.467,1.187-2.655,2.655-2.655h11.657
				c1.468,0,2.655,1.188,2.655,2.655v19.998h11.045V95.029v-2.654V89.72V79.69l-19.528-16.863L163.722,79.69z M188.152,80.873
				c0,2.777-2.261,5.038-5.04,5.038c-2.774,0-5.035-2.261-5.035-5.038c0-2.78,2.261-5.04,5.035-5.04
				C185.89,75.833,188.152,78.093,188.152,80.873z"/>
			<polygon fill="#D1E9E7" points="180.073,122.043 180.073,122.344 186.419,122.344 186.419,122.043 186.419,104.701 
				180.073,104.701 			"/>
			<polygon fill="#D1E9E7" points="233.276,122.043 233.276,122.344 239.622,122.344 239.622,122.043 239.622,104.701 
				233.276,104.701 			"/>
			<rect x="214.691" y="104.701" fill="#D1E9E7" width="6.347" height="6.215"/>
		</g>
		<g>
			<path fill="#5AB7B2" d="M5.522,95.655h38.441c1.467,0,2.654-1.698,2.654-3.166c0-1.467-1.187-2.655-2.654-2.655H7.115H5.051
				c-0.258,0.883-0.515,1.766-0.754,2.656c-0.046,0.171-0.1,0.339-0.145,0.51c-0.221,0.838-0.42,1.685-0.624,2.53
				c0.205,0.05,0.401,0.126,0.622,0.126H5.522z"/>
			<path fill="#5AB7B2" d="M3.478,105.69c0.22,0.058,0.433,0.135,0.671,0.135h39.814c1.467,0,2.654-1.698,2.654-3.166
				c0-1.467-1.187-2.655-2.654-2.655H4.515H4.149c-0.708,0-1.344,0.407-1.819,0.981c-0.212,1.087-0.403,2.183-0.586,3.28
				C2.069,104.979,2.708,105.484,3.478,105.69z"/>
			<path fill="#5AB7B2" d="M249.992,124.697c0-0.09-0.006-0.179-0.006-0.27c-0.039-8.609-0.946-17.011-2.642-25.125v22.74h-0.786
				h-1.625v-17.262v-2.736c0-0.764-0.332-1.441-0.848-1.926c-0.474-0.445-1.104-0.729-1.807-0.729H230.62
				c-1.467,0-2.655,1.188-2.655,2.655v19.998h-19.673V95.62l0.684-0.591l3.074-2.654l3.076-2.655l12.695-10.962l12.692,10.962
				l1.212,1.047l1.862,1.609l2.696,2.329c-0.194-0.781-0.402-1.555-0.611-2.329c-0.205-0.758-0.424-1.51-0.642-2.263
				c-0.038-0.131-0.073-0.263-0.112-0.393c-0.436-1.484-0.902-2.955-1.391-4.415l-5.174-4.469l-7.877-6.803v-9.682v-4.003
				l2.552,1.79c-0.824-1.413-1.675-2.806-2.552-4.182c-0.327-0.514-0.652-1.03-0.986-1.538c-0.187-0.284-0.362-0.577-0.551-0.86
				c-0.638-0.953-1.307-1.881-1.97-2.815c-0.234,0.079-0.462,0.182-0.672,0.329l-2.086,1.462l-16.125,11.301V54.863
				c0-0.866-0.421-1.678-1.131-2.176L184.77,37.141c-0.912-0.638-2.136-0.638-3.049,0l-17.999,12.616v-33.9V9.213V6.144
				c-0.882-0.287-1.765-0.57-2.656-0.838c-0.879-0.264-1.767-0.508-2.654-0.754v2.981v5.669h-38.663V2.77V0.133
				c-0.888,0.037-1.772,0.087-2.654,0.142c-0.889,0.055-1.772,0.128-2.656,0.202v2.609v12.771v48.308H56.663V51.668
				c0-1.467-1.188-2.655-2.655-2.655h-5.051V30.957c0-0.668-0.268-1.26-0.675-1.726c-0.487-0.558-1.18-0.93-1.98-0.93h-0.505
				c-1.052,0.863-2.072,1.761-3.095,2.657c-0.994,0.871-1.977,1.752-2.943,2.654h3.303h0.585v18.056
				c0,1.467,1.188,2.654,2.655,2.654h5.051V66.82v20.275v35.249H2.158H2.007H1.442v0.095H0.065c-0.014,0.663-0.047,1.321-0.05,1.988
				C0.014,124.619,0,124.808,0,125c0,0.032,0.003,0.063,0.003,0.095c0.001,0.89,0.047,1.769,0.067,2.654h1.94h51.998h44.87h10.127
				h8.09h43.973c0.169,0,0.316-0.065,0.476-0.095h15.398c0.16,0.03,0.307,0.095,0.476,0.095h11.657c0.169,0,0.317-0.065,0.477-0.095
				h40.594c0.16,0.03,0.307,0.095,0.476,0.095h11.657c0.169,0,0.316-0.065,0.476-0.095h3.812h1.991h0.716v-0.301h0.668
				c0.015-0.786,0.06-1.564,0.06-2.353C250,124.898,249.993,124.799,249.992,124.697z M208.292,72.174l16.874-11.826v13.684
				l-16.874,14.57V72.174z M233.276,122.043v-17.342h6.347v17.342v0.301h-6.347V122.043z M106.35,122.344h-4.817v-21.758h4.817
				V122.344z M202.774,89.72v2.655v2.654v27.014h-11.045v-19.998c0-1.467-1.187-2.655-2.655-2.655h-11.657
				c-1.468,0-2.655,1.188-2.655,2.655v19.998h-11.04V95.029v-2.654V89.72V79.69l19.524-16.863l19.528,16.863V89.72z
				 M180.073,122.344v-0.301v-17.342h6.347v17.342v0.301H180.073z M202.774,56.244v16.429l-16.873-14.57V44.418L202.774,56.244z
				 M180.591,58.103l-16.869,14.569V56.244l16.869-11.826V58.103z M158.412,54.863v23.612v13.9v29.97h-38.663V87.095V66.82V18.512
				h38.663V54.863z M114.439,84.441H56.663V69.475h57.776V84.441z M56.663,89.751h57.776v32.594h-2.779V97.931
				c0-1.468-1.187-2.655-2.655-2.655H98.878c-1.467,0-2.654,1.187-2.654,2.655v24.414h-39.56V89.751z"/>
			<path fill="#5AB7B2" d="M90.788,95.276H62.092c-1.468,0-2.655,1.187-2.655,2.655v19.077c0,1.467,1.187,2.655,2.655,2.655h28.696
				c1.468,0,2.655-1.188,2.655-2.655V97.931C93.443,96.463,92.256,95.276,90.788,95.276z M88.133,114.353H64.747v-13.767h23.386
				V114.353z"/>
			<path fill="#5AB7B2" d="M125.178,32.894h10.77c1.468,0,2.655-1.187,2.655-2.655v-5.82c0-1.468-1.187-2.655-2.655-2.655h-10.77
				c-1.467,0-2.654,1.187-2.654,2.655v5.82C122.524,31.707,123.711,32.894,125.178,32.894z M127.834,27.073h5.46v0.511h-5.46V27.073
				z"/>
			<path fill="#5AB7B2" d="M125.178,47.279h10.77c1.468,0,2.655-1.188,2.655-2.655v-5.821c0-1.467-1.187-2.655-2.655-2.655h-10.77
				c-1.467,0-2.654,1.188-2.654,2.655v5.821C122.524,46.091,123.711,47.279,125.178,47.279z M127.834,41.458h5.46v0.51h-5.46V41.458
				z"/>
			<path fill="#5AB7B2" d="M125.178,61.66h10.77c1.468,0,2.655-1.187,2.655-2.654v-5.821c0-1.468-1.187-2.655-2.655-2.655h-10.77
				c-1.467,0-2.654,1.187-2.654,2.655v5.821C122.524,60.473,123.711,61.66,125.178,61.66z M127.834,55.84h5.46v0.51h-5.46V55.84z"/>
			<path fill="#5AB7B2" d="M125.178,76.045h10.77c1.468,0,2.655-1.187,2.655-2.655v-5.821c0-1.467-1.187-2.654-2.655-2.654h-10.77
				c-1.467,0-2.654,1.187-2.654,2.654v5.821C122.524,74.858,123.711,76.045,125.178,76.045z M127.834,70.225h5.46v0.51h-5.46V70.225
				z"/>
			<path fill="#5AB7B2" d="M125.178,90.427h10.77c1.468,0,2.655-1.188,2.655-2.655v-5.821c0-1.467-1.187-2.655-2.655-2.655h-10.77
				c-1.467,0-2.654,1.188-2.654,2.655v5.821C122.524,89.24,123.711,90.427,125.178,90.427z M127.834,84.607h5.46v0.51h-5.46V84.607z
				"/>
			<path fill="#5AB7B2" d="M125.178,104.812h10.77c1.468,0,2.655-1.187,2.655-2.655v-5.823c0-1.467-1.187-2.655-2.655-2.655h-10.77
				c-1.467,0-2.654,1.188-2.654,2.655v5.823C122.524,103.625,123.711,104.812,125.178,104.812z M127.834,98.988h5.46v0.514h-5.46
				V98.988z"/>
			<path fill="#5AB7B2" d="M125.178,119.194h10.77c1.468,0,2.655-1.188,2.655-2.655v-5.821c0-1.467-1.187-2.655-2.655-2.655h-10.77
				c-1.467,0-2.654,1.188-2.654,2.655v5.821C122.524,118.006,123.711,119.194,125.178,119.194z M127.834,113.373h5.46v0.511h-5.46
				V113.373z"/>
			<path fill="#5AB7B2" d="M142.213,32.894h10.771c1.467,0,2.654-1.187,2.654-2.655v-5.82c0-1.468-1.187-2.655-2.654-2.655h-10.771
				c-1.467,0-2.655,1.187-2.655,2.655v5.82C139.558,31.707,140.746,32.894,142.213,32.894z M144.868,27.073h5.46v0.511h-5.46V27.073
				z"/>
			<path fill="#5AB7B2" d="M142.213,47.279h10.771c1.467,0,2.654-1.188,2.654-2.655v-5.821c0-1.467-1.187-2.655-2.654-2.655h-10.771
				c-1.467,0-2.655,1.188-2.655,2.655v5.821C139.558,46.091,140.746,47.279,142.213,47.279z M144.868,41.458h5.46v0.51h-5.46V41.458
				z"/>
			<path fill="#5AB7B2" d="M142.213,61.66h10.771c1.467,0,2.654-1.187,2.654-2.654v-5.821c0-1.468-1.187-2.655-2.654-2.655h-10.771
				c-1.467,0-2.655,1.187-2.655,2.655v5.821C139.558,60.473,140.746,61.66,142.213,61.66z M144.868,55.84h5.46v0.51h-5.46V55.84z"/>
			<path fill="#5AB7B2" d="M142.213,76.045h10.771c1.467,0,2.654-1.187,2.654-2.655v-5.821c0-1.467-1.187-2.654-2.654-2.654h-10.771
				c-1.467,0-2.655,1.187-2.655,2.654v5.821C139.558,74.858,140.746,76.045,142.213,76.045z M144.868,70.225h5.46v0.51h-5.46V70.225
				z"/>
			<path fill="#5AB7B2" d="M142.213,90.427h10.771c1.467,0,2.654-1.188,2.654-2.655v-5.821c0-1.467-1.187-2.655-2.654-2.655h-10.771
				c-1.467,0-2.655,1.188-2.655,2.655v5.821C139.558,89.24,140.746,90.427,142.213,90.427z M144.868,84.607h5.46v0.51h-5.46V84.607z
				"/>
			<path fill="#5AB7B2" d="M142.213,104.812h10.771c1.467,0,2.654-1.187,2.654-2.655v-5.823c0-1.467-1.187-2.655-2.654-2.655
				h-10.771c-1.467,0-2.655,1.188-2.655,2.655v5.823C139.558,103.625,140.746,104.812,142.213,104.812z M144.868,98.988h5.46v0.514
				h-5.46V98.988z"/>
			<path fill="#5AB7B2" d="M142.213,119.194h10.771c1.467,0,2.654-1.188,2.654-2.655v-5.821c0-1.467-1.187-2.655-2.654-2.655
				h-10.771c-1.467,0-2.655,1.188-2.655,2.655v5.821C139.558,118.006,140.746,119.194,142.213,119.194z M144.868,113.373h5.46v0.511
				h-5.46V113.373z"/>
			<path fill="#5AB7B2" d="M43.963,65.145c1.467,0,2.654-1.698,2.654-3.166c0-1.468-1.187-2.655-2.654-2.655H21.142h-2.494
				c-0.542,0.876-1.062,1.765-1.584,2.654c-0.099,0.169-0.195,0.341-0.293,0.511c-0.512,0.884-1.037,1.758-1.528,2.655h2.397H43.963
				z"/>
			<path fill="#5AB7B2" d="M43.963,75.314c1.467,0,2.654-1.698,2.654-3.166c0-1.467-1.187-2.655-2.654-2.655H15.311H13
				c-0.436,0.88-0.863,1.764-1.279,2.656c-0.08,0.169-0.153,0.342-0.231,0.511c-0.407,0.881-0.813,1.762-1.2,2.654h2.235H43.963z"/>
			<path fill="#5AB7B2" d="M36.6,54.974c1.467,0,2.654-1.698,2.654-3.166c0-1.468-1.187-2.655-2.654-2.655h-8.206h-2.729
				c-0.67,0.876-1.321,1.763-1.968,2.656c-0.122,0.169-0.241,0.341-0.363,0.511c-0.632,0.882-1.278,1.754-1.887,2.654h2.604H36.6z"
				/>
			<path fill="#5AB7B2" d="M36.6,44.805c1.467,0,2.654-1.698,2.654-3.166c0-1.235-0.859-2.225-2-2.522
				c-0.215-0.056-0.423-0.132-0.655-0.132h-2.25c-0.832,0.877-1.665,1.754-2.471,2.655c-0.15,0.167-0.293,0.342-0.442,0.51
				c-0.777,0.876-1.548,1.757-2.3,2.655h2.871H36.6z"/>
			<path fill="#5AB7B2" d="M43.963,85.485c1.467,0,2.654-1.698,2.654-3.166c0-1.468-1.187-2.655-2.654-2.655H10.684H8.515
				c-0.345,0.884-0.706,1.76-1.03,2.654c-0.062,0.169-0.113,0.342-0.173,0.511c-0.314,0.878-0.603,1.769-0.899,2.655h2.112H43.963z"
				/>
			<path fill="#5AB7B2" d="M4.149,115.995h39.814c1.467,0,2.654-1.698,2.654-3.166c0-1.468-1.187-2.655-2.654-2.655H4.149
				c-0.505,0-0.95,0.245-1.351,0.568c-0.766,0.617-1.304,1.635-1.304,2.598c0,0.773,0.342,1.454,0.868,1.939
				C2.834,115.714,3.454,115.995,4.149,115.995z"/>
			<path fill="#5AB7B2" d="M24.833,196.126h-2.606c0.619,0.893,1.246,1.779,1.888,2.654c0.657,0.897,1.332,1.777,2.011,2.656
				C48.991,230.967,84.762,250,125,250s76.009-19.033,98.873-48.564c0.68-0.879,1.355-1.759,2.011-2.656
				c0.642-0.876,1.268-1.762,1.888-2.654h-4.033H24.833z"/>
			<rect x="91.986" y="155.352" fill="#5AB7B2" width="21.24" height="5.31"/>
			<rect x="134.465" y="155.352" fill="#5AB7B2" width="21.24" height="5.31"/>
			<rect x="49.506" y="155.352" fill="#5AB7B2" width="21.24" height="5.31"/>
			<polygon fill="#5AB7B2" points="28.267,155.352 7.027,155.352 7.027,159.857 7.027,160.662 7.256,160.662 28.267,160.662 			"/>
			<rect x="176.946" y="155.352" fill="#5AB7B2" width="21.239" height="5.31"/>
			<rect x="219.425" y="155.352" fill="#5AB7B2" width="21.239" height="5.31"/>
			<path fill="#5AB7B2" d="M178.076,80.873c0,2.777,2.261,5.038,5.035,5.038c2.779,0,5.04-2.261,5.04-5.038
				c0-2.78-2.261-5.04-5.04-5.04C180.337,75.833,178.076,78.093,178.076,80.873z"/>
			<path fill="#5AB7B2" d="M212.035,99.39c-1.467,0-2.654,1.188-2.654,2.655v11.525c0,1.468,1.187,2.655,2.654,2.655h11.657
				c1.467,0,2.655-1.187,2.655-2.655v-11.525c0-1.467-1.188-2.655-2.655-2.655H212.035z M221.038,110.915h-6.347v-6.215h6.347
				V110.915z"/>
		</g>
	</g>
</g>
<g id="pie_layer" display="none">
</g>
<g id="Pie_Layer_2" display="none">
</g>
<g id="meals_saved" display="none">
</g>
<g id="consumer_ed_hover" display="none">
</g>
<g id="pop_up" display="none">
</g>
<g id="Layer_9">
</g>
<g id="Layer_2" display="none">
</g>
<g id="Layer_8">
</g>
<g id="Layer_10">
</g>
</svg>
