<?xml version="1.0" encoding="utf-8"?>
<!-- Generator: Adobe Illustrator 24.1.0, SVG Export Plug-In . SVG Version: 6.00 Build 0)  -->
<svg version="1.1" id="Layer_1" xmlns="http://www.w3.org/2000/svg" xmlns:xlink="http://www.w3.org/1999/xlink" x="0px" y="0px"
	 viewBox="0 0 440 526" style="enable-background:new 0 0 440 526;" xml:space="preserve">
<style type="text/css">
	.st0{fill:#414042;}
	.st1{fill:#CCD9B9;}
	.st2{fill:#ADC291;}
	.st3{fill:#9EB77E;}
	.st4{fill:#90AC6C;}
</style>
<path d="M151.7,23.7V13.1h8.5V15h-5.9v2.2h5.8v2h-5.8v4.4L151.7,23.7z"/>
<path d="M161.6,19.4v-6.4h2.6v6.3c0,1.5,1,2.5,2.8,2.5s2.8-1,2.8-2.5v-6.3h2.6v6.4c0,2.6-1.8,4.5-5.4,4.5S161.6,22.1,161.6,19.4z"/>
<path d="M182.7,23.7l-5.7-6.9v6.9h-2.6V13.1h2.6l5.6,6.7v-6.7h2.6v10.6H182.7z"/>
<path d="M187.2,23.7V13.1h4.8c3.8,0,6.4,2.1,6.4,5.3s-2.6,5.3-6.4,5.3H187.2z M195.7,18.4c0-1.9-1.3-3.3-3.7-3.3h-2.2v6.7h2.2
	C194.3,21.7,195.7,20.2,195.7,18.4z"/>
<path d="M203.9,23.7V13.1h2.6v8.6h5.1v2L203.9,23.7z"/>
<path d="M221.3,23.7l-0.8-1.8h-5.1l-0.8,1.8h-2.9l4.6-10.6h3.2l4.6,10.6H221.3z M217.9,15.3l-1.9,4.6h3.8L217.9,15.3z"/>
<path d="M224.3,19.4v-6.4h2.6v6.3c0,1.5,1,2.5,2.8,2.5s2.8-1,2.8-2.5v-6.3h2.6v6.4c0,2.6-1.8,4.5-5.4,4.5S224.3,22.1,224.3,19.4z"/>
<path d="M245.5,23.7l-5.7-6.9v6.9h-2.6V13.1h2.6l5.6,6.7v-6.7h2.6v10.6H245.5z"/>
<path d="M249.4,18.4c0-3.3,2.8-5.5,6.4-5.5c2-0.1,3.9,0.9,5,2.6l-2.2,1c-0.6-1-1.7-1.5-2.8-1.6c-1.9-0.1-3.6,1.3-3.8,3.2
	s1.3,3.6,3.2,3.8c0.2,0,0.4,0,0.5,0c1.1,0,2.2-0.6,2.8-1.5l2.2,0.9c-1.1,1.7-3,2.7-5,2.6C252.2,23.9,249.4,21.6,249.4,18.4z"/>
<path d="M270.2,23.7v-4.5h-5.7v4.5H262V13.1h2.6v4.2h5.7v-4.2h2.6v10.6H270.2z"/>
<path class="st0" d="M160.1,43.7h-6.5l-1.1,2.8h-1.8l5.1-12.8h2l5.2,12.8h-1.8L160.1,43.7z M154.1,42.2h5.6l-2.8-7.1L154.1,42.2z"/>
<path class="st0" d="M164.6,50V37.2h1.4v1.4c0.7-1,1.9-1.6,3.1-1.6c2.4,0,4.1,1.8,4.1,4.9s-1.7,4.9-4.1,4.9c-1.3,0-2.4-0.6-3.1-1.7
	V50H164.6z M168.8,38.2c-1.1,0-2.1,0.6-2.8,1.5v4.2c0.6,0.9,1.7,1.5,2.8,1.5c1.9,0,3-1.5,3-3.6S170.6,38.3,168.8,38.2L168.8,38.2z"
	/>
<path class="st0" d="M175.6,37.2h1.4v1.5c0.7-1,1.9-1.6,3.1-1.7v1.5c-0.2,0-0.4-0.1-0.6-0.1c-1,0.1-1.9,0.6-2.5,1.5v6.6h-1.4
	L175.6,37.2z"/>
<path class="st0" d="M181.7,34.7c0.1-0.5,0.7-0.9,1.2-0.7c0.4,0.1,0.6,0.4,0.7,0.7c0.1,0.5-0.2,1.1-0.7,1.2
	c-0.5,0.1-1.1-0.2-1.2-0.7C181.6,35,181.6,34.8,181.7,34.7z M181.9,37.2h1.4v9.3h-1.4V37.2z"/>
<path class="st0" d="M186.2,33.7h1.4v12.8h-1.4V33.7z"/>
<path class="st0" d="M195.1,45.2c4.6-3.6,7.1-5.8,7.1-8c0-1.3-1.1-2.4-2.4-2.4c-0.1,0-0.2,0-0.2,0c-1.3,0-2.6,0.6-3.5,1.6l-1-1
	c1.1-1.3,2.7-2.1,4.4-2c2.1,0,4.3,1.2,4.3,3.8c0,2.5-2.6,5-6.2,7.8h6.3v1.4h-8.8L195.1,45.2z"/>
<path class="st0" d="M207.8,44c0.7,0.9,1.7,1.3,2.8,1.3c2.6,0,3.6-2.6,3.6-5c0-0.2,0-0.3,0-0.5c-0.8,1.2-2.2,1.9-3.6,2
	c-2.1,0.2-4-1.4-4.2-3.6c0-0.2,0-0.4,0-0.5c0-2.3,1.9-4.2,4.2-4.2c0.1,0,0.2,0,0.2,0c3.6,0,5,3.1,5,6.6s-1.6,6.6-5.2,6.6
	c-1.4,0.1-2.7-0.5-3.6-1.6L207.8,44z M210.9,34.9c-1.5-0.1-2.9,1.1-2.9,2.7c0,0,0,0,0,0.1c-0.1,1.5,1.1,2.7,2.5,2.8
	c0.2,0,0.3,0,0.5,0c1.3,0,2.5-0.8,3.2-1.9C213.9,36.9,213.1,34.9,210.9,34.9L210.9,34.9z"/>
<path d="M151.1,255.9c0-3.3,2.8-5.5,6.4-5.5c2-0.1,3.9,0.9,5,2.6l-2.2,1c-0.6-1-1.7-1.6-2.8-1.5c-1.9-0.1-3.6,1.3-3.8,3.2
	c-0.1,1.9,1.3,3.6,3.2,3.8c0.2,0,0.4,0,0.5,0c1.1,0,2.2-0.6,2.8-1.5l2.2,0.9c-1.1,1.7-3,2.7-5,2.6
	C153.9,261.4,151.1,259.2,151.1,255.9z"/>
<path d="M163.6,261.3v-10.6h2.6v8.6h5.1v2L163.6,261.3z"/>
<path d="M171.5,255.9c0-3.2,2.6-5.5,6.3-5.5s6.3,2.3,6.3,5.5c0,3.2-2.6,5.5-6.3,5.5S171.5,259.2,171.5,255.9z M181.4,255.9
	c0.1-2-1.5-3.7-3.5-3.8c-2-0.1-3.7,1.5-3.8,3.5c-0.1,2,1.5,3.7,3.5,3.8c0.1,0,0.1,0,0.2,0c1.9,0.1,3.5-1.3,3.6-3.2
	C181.5,256.2,181.5,256.1,181.4,255.9z"/>
<path d="M184.7,259.8l1.4-1.8c1,1,2.4,1.5,3.8,1.5c1.4,0,2.1-0.6,2.1-1.2c0-1.9-6.9-0.6-6.9-4.6c0-1.8,1.7-3.2,4.6-3.2
	c1.7-0.1,3.3,0.5,4.7,1.5l-1.4,1.7c-1-0.8-2.2-1.2-3.5-1.2c-1.1,0-1.7,0.4-1.7,1c0,1.7,6.9,0.5,6.9,4.5c0,2-1.6,3.4-4.8,3.4
	C188,261.5,186.1,260.9,184.7,259.8z"/>
<path d="M196,261.3v-10.6h8.5v2h-5.9v2.2h5.8v2h-5.8v2.4h5.9v2L196,261.3z"/>
<path d="M209.8,255.9c0-3.2,2.6-5.5,6.3-5.5s6.3,2.3,6.3,5.5c0,3.2-2.6,5.5-6.3,5.5S209.8,259.2,209.8,255.9z M219.7,255.9
	c0.1-2-1.5-3.7-3.5-3.8c-2-0.1-3.7,1.5-3.8,3.5c-0.1,2,1.5,3.7,3.5,3.8c0.1,0,0.1,0,0.2,0c1.9,0.1,3.5-1.3,3.6-3.2
	C219.7,256.2,219.7,256.1,219.7,255.9z"/>
<path d="M223.8,261.3v-10.6h8.5v2h-5.9v2.2h5.8v2h-5.8v4.4L223.8,261.3z"/>
<path d="M246.3,261.3l-5.7-6.9v6.9H238v-10.6h2.6l5.6,6.7v-6.7h2.6v10.6H246.3z"/>
<path d="M259,261.3l-0.8-1.8h-5.1l-0.8,1.8h-2.9l4.6-10.6h3.2l4.7,10.6H259z M255.7,252.9l-1.9,4.6h3.7L255.7,252.9z"/>
<path d="M264.3,261.3v-8.6h-3.5v-2h9.6v2h-3.5v8.6H264.3z"/>
<path d="M271.7,261.3v-10.6h2.6v10.6H271.7z"/>
<path d="M275.7,255.9c0-3.2,2.6-5.5,6.3-5.5s6.3,2.3,6.3,5.5c0,3.2-2.6,5.5-6.3,5.5S275.7,259.2,275.7,255.9z M285.6,255.9
	c0.1-2-1.5-3.7-3.5-3.8c-2-0.1-3.7,1.5-3.8,3.5c-0.1,2,1.5,3.7,3.5,3.8c0.1,0,0.1,0,0.2,0c1.9,0.1,3.5-1.3,3.6-3.2
	C285.6,256.2,285.6,256.1,285.6,255.9L285.6,255.9z"/>
<path d="M297.9,261.3l-5.7-6.9v6.9h-2.6v-10.6h2.6l5.6,6.7v-6.7h2.6v10.6H297.9z"/>
<path d="M310.7,261.3l-0.8-1.8h-5.1l-0.8,1.8h-2.9l4.6-10.6h3.2l4.6,10.6H310.7z M307.4,252.9l-1.9,4.6h3.7L307.4,252.9z"/>
<path d="M314.3,261.3v-10.6h2.6v8.6h5.1v2L314.3,261.3z"/>
<path d="M327,255.9c0-3.2,2.6-5.5,6.3-5.5s6.3,2.3,6.3,5.5c0,3.2-2.6,5.5-6.3,5.5S327,259.2,327,255.9z M336.9,255.9
	c0.1-2-1.5-3.7-3.5-3.8c-2-0.1-3.7,1.5-3.8,3.5c-0.1,2,1.5,3.7,3.5,3.8c0.1,0,0.1,0,0.2,0c1.9,0.1,3.5-1.3,3.6-3.2
	C336.9,256.2,336.9,256.1,336.9,255.9L336.9,255.9z"/>
<path d="M341,261.3v-10.6h5.6c2.6,0,4,1.6,4,3.4s-1.5,3.4-4,3.4h-3.1v3.8H341z M348,254.1c0-0.9-0.8-1.4-1.8-1.4h-2.7v2.9h2.7
	C347.2,255.5,348,254.9,348,254.1z"/>
<path d="M351.9,261.3v-10.6h8.5v2h-5.9v2.2h5.8v2h-5.8v2.4h5.9v2L351.9,261.3z"/>
<path d="M370.3,261.3l-5.7-6.9v6.9H362v-10.6h2.6l5.6,6.7v-6.7h2.6v10.6H370.3z"/>
<path d="M151.1,275.1c0-3.3,2.8-5.5,6.4-5.5c2-0.1,3.9,0.9,5,2.6l-2.2,1c-0.6-1-1.7-1.5-2.8-1.5c-1.9,0-3.5,1.6-3.5,3.5
	s1.6,3.5,3.5,3.5c1.1,0,2.2-0.6,2.8-1.5l2.2,0.9c-1.1,1.7-3,2.7-5,2.6C153.9,280.6,151.1,278.4,151.1,275.1z"/>
<path d="M171.9,280.4l-0.8-1.8H166l-0.8,1.8h-2.9l4.6-10.6h3.2l4.6,10.6H171.9z M168.5,272l-1.9,4.6h3.7L168.5,272z"/>
<path d="M175.4,280.4v-10.6h2.6v8.6h5.1v2H175.4z"/>
<path d="M184.3,280.4v-10.6h2.6v8.6h5.1v2H184.3z"/>
<path d="M205.9,280.4l-0.8-1.8H200l-0.8,1.8h-2.9l4.6-10.6h3.2l4.6,10.6H205.9z M202.6,272l-1.9,4.6h3.8L202.6,272z"/>
<path d="M209.6,280.4v-10.6h5.6c2.6,0,4,1.6,4,3.4s-1.4,3.4-4,3.4h-3.1v3.8L209.6,280.4z M216.6,273.2c0-0.9-0.8-1.4-1.8-1.4h-2.7
	v2.9h2.7C215.8,274.6,216.6,274.1,216.6,273.2L216.6,273.2z"/>
<path d="M220.5,280.4v-10.6h5.6c2.6,0,4,1.6,4,3.4s-1.4,3.4-4,3.4H223v3.8L220.5,280.4z M227.5,273.2c0-0.9-0.8-1.4-1.8-1.4H223v2.9
	h2.7C226.7,274.6,227.5,274.1,227.5,273.2L227.5,273.2z"/>
<path d="M231.2,280.4v-10.6h2.6v8.6h5.1v2H231.2z"/>
<path d="M240.3,280.4v-10.6h2.6v10.6H240.3z"/>
<path d="M244.3,275.1c0-3.3,2.8-5.5,6.4-5.5c2-0.1,3.9,0.9,5,2.6l-2.2,1c-0.6-1-1.7-1.5-2.8-1.5c-1.9,0-3.5,1.6-3.5,3.5
	s1.6,3.5,3.5,3.5c1.1,0,2.2-0.6,2.8-1.5l2.2,0.9c-1.1,1.7-3,2.7-5,2.6C247.1,280.6,244.3,278.4,244.3,275.1z"/>
<path d="M265,280.4l-0.8-1.8h-5.1l-0.8,1.8h-2.9l4.6-10.6h3.2l4.6,10.6H265z M261.7,272l-1.9,4.6h3.8L261.7,272z"/>
<path d="M270.3,280.4v-8.6h-3.5v-2h9.6v2h-3.5v8.6H270.3z"/>
<path d="M277.6,280.4v-10.6h2.6v10.6H277.6z"/>
<path d="M281.6,275.1c0-3.2,2.6-5.5,6.3-5.5s6.3,2.3,6.3,5.5s-2.6,5.5-6.3,5.5S281.6,278.3,281.6,275.1z M291.6,275.1
	c0.1-2-1.5-3.7-3.5-3.8c-2-0.1-3.7,1.5-3.8,3.5c-0.1,2,1.5,3.7,3.5,3.8c0.1,0,0.1,0,0.2,0c1.9,0.1,3.5-1.3,3.6-3.2
	C291.6,275.3,291.6,275.2,291.6,275.1z"/>
<path d="M303.9,280.4l-5.7-6.9v6.9h-2.6v-10.6h2.6l5.6,6.7v-6.7h2.6v10.6H303.9z"/>
<path d="M312.7,280.4v-10.6h5.6c2.6,0,4,1.6,4,3.4s-1.4,3.4-4,3.4h-3.1v3.8L312.7,280.4z M319.7,273.2c0-0.9-0.8-1.4-1.8-1.4h-2.7
	v2.9h2.7C318.9,274.6,319.7,274.1,319.7,273.2L319.7,273.2z"/>
<path d="M323.6,280.4v-10.6h8.5v2h-5.9v2.2h5.8v2h-5.8v2.4h5.9v2L323.6,280.4z"/>
<path d="M340.5,280.4l-2.4-3.8h-1.9v3.8h-2.5v-10.6h5.6c2.5,0,4,1.5,4,3.4c0,1.6-1.1,2.9-2.6,3.2l2.7,4L340.5,280.4z M340.8,273.2
	c0-0.9-0.8-1.4-1.8-1.4h-2.7v2.9h2.7C340,274.6,340.8,274.1,340.8,273.2z"/>
<path d="M344.9,280.4v-10.6h2.5v10.6H344.9z"/>
<path d="M348.9,275.1c0-3.2,2.6-5.5,6.3-5.5s6.3,2.3,6.3,5.5s-2.6,5.5-6.3,5.5S348.9,278.3,348.9,275.1z M358.9,275.1
	c0.1-2-1.5-3.7-3.5-3.8c-2-0.1-3.7,1.5-3.8,3.5c-0.1,2,1.5,3.7,3.5,3.8c0.1,0,0.1,0,0.2,0c1.9,0.1,3.5-1.3,3.6-3.2
	C358.9,275.3,358.9,275.2,358.9,275.1z"/>
<path d="M362.9,280.4v-10.6h4.7c3.8,0,6.4,2.1,6.4,5.3s-2.6,5.3-6.4,5.3L362.9,280.4z M371.4,275.1c0-1.9-1.3-3.3-3.7-3.3h-2.2v6.6
	h2.2C370,278.4,371.4,276.9,371.4,275.1L371.4,275.1z"/>
<path class="st0" d="M162.9,292.8l-4.4,10.7h-0.7l-4.3-10.7v10.7H152v-12.8h2.3l4,9.8l4-9.8h2.3v12.8H163L162.9,292.8z"/>
<path class="st0" d="M173.3,302.4c-0.8,0.9-1.9,1.3-3.1,1.3c-1.7,0.1-3.2-1.2-3.2-2.9c0-0.1,0-0.1,0-0.2c0-1.7,1.3-3,3-3
	c0.1,0,0.2,0,0.3,0c1.2-0.1,2.3,0.4,3.1,1.3v-1.7c0-1.2-1-2-2.3-2c-1.1,0-2.1,0.5-2.9,1.3l-0.7-1c1-1,2.3-1.6,3.7-1.5
	c2,0,3.6,0.9,3.6,3.1v6.4h-1.4V302.4z M173.3,299.7c-0.6-0.8-1.6-1.2-2.6-1.1c-1.1,0-2,0.9-2,2s0.9,2,2,2c1,0,1.9-0.4,2.6-1.1V299.7
	z"/>
<path class="st0" d="M178.1,305.9c0.6,0,1.2-0.4,1.4-1l0.6-1.4l-3.9-9.4h1.6l3.1,7.6l3.1-7.6h1.6l-4.6,11.2
	c-0.4,1.2-1.5,1.9-2.7,1.9c-0.4,0-0.7,0-1.1-0.1l0.2-1.3C177.5,305.8,177.8,305.9,178.1,305.9z"/>
<path class="st0" d="M193.9,292.7l-2.1,2.2l-1-1l3.2-3.3h1.4v12.8h-1.6L193.9,292.7z"/>
<path class="st0" d="M201.1,296.8c-1.5-0.4-2.8-1.4-2.8-3.1c0-2.3,2.2-3.3,4.4-3.3s4.4,1,4.4,3.3c0,1.7-1.4,2.6-2.9,3.1
	c1.6,0.5,3,1.6,3,3.4c0,2.2-2.1,3.5-4.6,3.5s-4.6-1.3-4.6-3.5C198,298.5,199.5,297.3,201.1,296.8z M202.6,297.5
	c-0.8,0.1-3,0.8-3,2.5c0,1.4,1.4,2.2,3,2.2s3-0.9,3-2.2C205.6,298.4,203.4,297.6,202.6,297.5L202.6,297.5z M202.6,291.9
	c-1.6,0-2.8,0.8-2.8,2.1c0,1.5,2,2.1,2.8,2.2c0.8-0.1,2.8-0.7,2.8-2.2C205.4,292.6,204.1,291.9,202.6,291.9L202.6,291.9z"/>
<path d="M151.6,143.4v-10.6h2.6v8.6h5.1v2H151.6z"/>
<path d="M168.9,143.4l-0.8-1.8H163l-0.8,1.8h-2.9l4.7-10.6h3.2l4.6,10.6H168.9z M165.6,135l-1.9,4.6h3.7L165.6,135z"/>
<path d="M171.9,139.1v-6.4h2.6v6.3c0,1.5,1,2.5,2.8,2.5s2.8-1,2.8-2.5v-6.3h2.6v6.4c0,2.6-1.8,4.4-5.4,4.4S171.9,141.7,171.9,139.1z
	"/>
<path d="M193.1,143.4l-5.7-6.9v6.9h-2.6v-10.6h2.6l5.6,6.7v-6.7h2.6v10.6H193.1z"/>
<path d="M197,138.1c0-3.3,2.8-5.5,6.4-5.5c2-0.1,3.9,0.9,5,2.6l-2.2,0.9c-0.6-1-1.7-1.5-2.8-1.5c-1.9,0-3.5,1.6-3.5,3.5
	s1.6,3.5,3.5,3.5c1.1,0,2.2-0.6,2.8-1.6l2.2,0.9c-1.1,1.7-3,2.7-5,2.6C199.8,143.6,197,141.3,197,138.1z"/>
<path d="M217.8,143.4v-4.5h-5.7v4.5h-2.6v-10.6h2.6v4.2h5.7v-4.2h2.6v10.6H217.8z"/>
<path d="M226.1,138.1c0-3.2,2.6-5.5,6.3-5.5s6.3,2.3,6.3,5.5s-2.6,5.5-6.3,5.5S226.1,141.3,226.1,138.1z M236,138.1
	c0.1-2-1.5-3.7-3.5-3.8c-2-0.1-3.7,1.5-3.8,3.5s1.5,3.7,3.5,3.8c0.1,0,0.1,0,0.2,0c1.9,0.1,3.5-1.3,3.6-3.2
	C236,138.3,236,138.2,236,138.1z"/>
<path d="M240.1,143.4v-10.6h8.5v2h-5.9v2.3h5.8v2h-5.8v4.4L240.1,143.4z"/>
<path d="M262.5,143.4l-5.7-6.9v6.9h-2.6v-10.6h2.6l5.6,6.7v-6.7h2.6v10.6H262.5z"/>
<path d="M275.3,143.4l-0.8-1.8h-5.1l-0.8,1.8h-2.9l4.6-10.6h3.2l4.6,10.6H275.3z M272,135l-1.9,4.6h3.8L272,135z"/>
<path d="M280.6,143.4v-8.6h-3.5v-2h9.6v2h-3.5v8.6H280.6z"/>
<path d="M288,143.4v-10.6h2.6v10.6H288z"/>
<path d="M292,138.1c0-3.2,2.6-5.5,6.3-5.5s6.3,2.3,6.3,5.5s-2.6,5.5-6.3,5.5S292,141.3,292,138.1z M301.9,138.1
	c0.1-2-1.5-3.7-3.5-3.8c-2-0.1-3.7,1.5-3.8,3.5c-0.1,2,1.5,3.7,3.5,3.8c0.1,0,0.1,0,0.2,0c1.9,0.1,3.5-1.3,3.6-3.2
	C301.9,138.2,301.9,138.1,301.9,138.1L301.9,138.1z"/>
<path d="M314.2,143.4l-5.7-6.9v6.9h-2.6v-10.6h2.6l5.6,6.7v-6.7h2.6v10.6H314.2z"/>
<path d="M327,143.4l-0.8-1.8h-5.1l-0.8,1.8h-2.9l4.6-10.6h3.2l4.6,10.6H327z M323.7,135l-1.9,4.6h3.8L323.7,135z"/>
<path d="M330.6,143.4v-10.6h2.6v8.6h5.1v2H330.6z"/>
<path d="M343.3,138.1c0-3.2,2.6-5.5,6.3-5.5s6.3,2.3,6.3,5.5s-2.6,5.5-6.3,5.5S343.3,141.3,343.3,138.1z M353.2,138.1
	c0.1-2-1.5-3.7-3.5-3.8c-2-0.1-3.7,1.5-3.8,3.5c-0.1,2,1.5,3.7,3.5,3.8c0.1,0,0.1,0,0.2,0c1.9,0.1,3.5-1.3,3.6-3.1
	C353.2,138.3,353.2,138.2,353.2,138.1z"/>
<path d="M357.3,143.4v-10.6h5.6c2.6,0,4,1.6,4,3.4s-1.4,3.4-4,3.4h-3.1v3.8H357.3z M364.3,136.2c0-0.9-0.8-1.4-1.8-1.4h-2.7v2.9h2.7
	C363.5,137.6,364.3,137,364.3,136.2L364.3,136.2z"/>
<path d="M368.2,143.4v-10.6h8.5v2h-5.9v2.3h5.8v2h-5.8v2.4h5.9v2L368.2,143.4z"/>
<path d="M386.6,143.4l-5.7-6.9v6.9h-2.6v-10.6h2.6l5.6,6.7v-6.7h2.5v10.6H386.6z"/>
<path d="M151.1,157.2c0-3.3,2.8-5.5,6.4-5.5c2-0.1,3.9,0.9,5,2.6l-2.2,1c-0.6-1-1.7-1.6-2.8-1.6c-1.9,0-3.5,1.6-3.5,3.5
	s1.6,3.5,3.5,3.5c1.1,0,2.2-0.6,2.8-1.5l2.2,0.9c-1.1,1.7-3,2.7-5,2.6C153.9,162.7,151.1,160.5,151.1,157.2z"/>
<path d="M171.9,162.5l-0.8-1.8H166l-0.8,1.8h-2.9l4.6-10.6h3.2l4.6,10.6H171.9z M168.5,154.1l-1.9,4.6h3.7L168.5,154.1z"/>
<path d="M175.4,162.5v-10.6h2.6v8.6h5.1v2L175.4,162.5z"/>
<path d="M184.3,162.5v-10.6h2.6v8.6h5.1v2L184.3,162.5z"/>
<path d="M205.9,162.5l-0.8-1.8H200l-0.8,1.8h-2.9l4.6-10.6h3.2l4.6,10.6H205.9z M202.6,154.1l-1.9,4.6h3.8L202.6,154.1z"/>
<path d="M209.6,162.5v-10.6h5.6c2.6,0,4,1.6,4,3.4s-1.4,3.4-4,3.4h-3.1v3.8L209.6,162.5z M216.6,155.3c0-0.9-0.8-1.4-1.8-1.4h-2.7
	v2.9h2.7C215.8,156.7,216.6,156.2,216.6,155.3L216.6,155.3z"/>
<path d="M220.5,162.5v-10.6h5.6c2.6,0,4,1.6,4,3.4s-1.4,3.4-4,3.4H223v3.8L220.5,162.5z M227.5,155.3c0-0.9-0.8-1.4-1.8-1.4H223v2.9
	h2.7C226.7,156.7,227.5,156.2,227.5,155.3L227.5,155.3z"/>
<path d="M231.2,162.5v-10.6h2.6v8.6h5.1v2L231.2,162.5z"/>
<path d="M240.3,162.5v-10.6h2.6v10.6H240.3z"/>
<path d="M244.3,157.2c0-3.3,2.8-5.5,6.4-5.5c2-0.1,3.9,0.9,5,2.6l-2.2,1c-0.6-1-1.7-1.6-2.8-1.6c-1.9,0-3.5,1.6-3.5,3.5
	s1.6,3.5,3.5,3.5c1.1,0,2.2-0.6,2.8-1.5l2.2,0.9c-1.1,1.7-3,2.7-5,2.6C247.1,162.7,244.3,160.5,244.3,157.2z"/>
<path d="M265,162.5l-0.8-1.8h-5.1l-0.8,1.8h-2.9l4.6-10.6h3.2l4.6,10.6H265z M261.7,154.1l-1.9,4.6h3.8L261.7,154.1z"/>
<path d="M270.3,162.5v-8.6h-3.5v-2h9.6v2h-3.5v8.6H270.3z"/>
<path d="M277.6,162.5v-10.6h2.6v10.6H277.6z"/>
<path d="M281.6,157.2c0-3.2,2.6-5.5,6.3-5.5s6.3,2.3,6.3,5.5s-2.6,5.5-6.3,5.5S281.6,160.4,281.6,157.2z M291.6,157.2
	c0.1-2-1.5-3.7-3.5-3.8c-2-0.1-3.7,1.5-3.8,3.5c-0.1,2,1.5,3.7,3.5,3.8c0.1,0,0.1,0,0.2,0c1.9,0.1,3.5-1.3,3.6-3.2
	C291.6,157.4,291.6,157.3,291.6,157.2z"/>
<path d="M303.9,162.5l-5.7-6.9v6.9h-2.6v-10.6h2.6l5.6,6.7v-6.7h2.6v10.6H303.9z"/>
<path d="M312.7,162.5v-10.6h5.6c2.6,0,4,1.6,4,3.4s-1.4,3.4-4,3.4h-3.1v3.8L312.7,162.5z M319.7,155.3c0-0.9-0.8-1.4-1.8-1.4h-2.7
	v2.9h2.7C318.9,156.7,319.7,156.2,319.7,155.3L319.7,155.3z"/>
<path d="M323.6,162.5v-10.6h8.5v2h-5.9v2.2h5.8v2h-5.8v2.4h5.9v2L323.6,162.5z"/>
<path d="M340.5,162.5l-2.4-3.8h-1.9v3.8h-2.5v-10.6h5.6c2.5,0,4,1.4,4,3.4c0,1.6-1.1,2.9-2.6,3.1l2.7,4.1L340.5,162.5z M340.8,155.3
	c0-0.9-0.8-1.4-1.8-1.4h-2.7v2.9h2.7C340,156.7,340.8,156.2,340.8,155.3z"/>
<path d="M344.9,162.5v-10.6h2.5v10.6H344.9z"/>
<path d="M348.9,157.2c0-3.2,2.6-5.5,6.3-5.5s6.3,2.3,6.3,5.5s-2.6,5.5-6.3,5.5S348.9,160.4,348.9,157.2z M358.9,157.2
	c0.1-2-1.5-3.7-3.5-3.8c-2-0.1-3.7,1.5-3.8,3.5c-0.1,2,1.5,3.7,3.5,3.8c0.1,0,0.1,0,0.2,0c1.9,0.1,3.5-1.3,3.6-3.2
	C358.9,157.4,358.9,157.3,358.9,157.2z"/>
<path d="M362.9,162.5v-10.6h4.7c3.8,0,6.4,2.1,6.4,5.3s-2.6,5.3-6.4,5.3H362.9z M371.4,157.2c0-1.9-1.3-3.3-3.7-3.3h-2.2v6.6h2.2
	C370,160.5,371.4,159,371.4,157.2z"/>
<path class="st0" d="M162.9,174.6l-4.4,10.7h-0.7l-4.3-10.7v10.7H152v-12.8h2.3l4,9.8l4-9.8h2.3v12.8H163L162.9,174.6z"/>
<path class="st0" d="M173.3,184.3c-0.8,0.9-1.9,1.3-3.1,1.3c-1.7,0.1-3.2-1.2-3.2-2.9c0,0,0-0.1,0-0.1c0-1.7,1.3-3,2.9-3.1
	c0.1,0,0.2,0,0.3,0c1.2-0.1,2.3,0.4,3.1,1.3V179c0-1.2-1-2-2.3-2c-1.1,0-2.1,0.5-2.9,1.3l-0.7-1c1-1,2.3-1.6,3.7-1.5
	c2,0,3.6,0.9,3.6,3.1v6.4h-1.4V184.3z M173.3,181.6c-0.6-0.8-1.6-1.2-2.6-1.1c-1.1,0-2,0.9-2,2s0.9,2,2,2c1,0,1.9-0.4,2.6-1.2V181.6
	z"/>
<path class="st0" d="M178.1,187.8c0.6,0,1.2-0.4,1.4-1l0.6-1.4l-3.9-9.4h1.6l3.1,7.6l3.1-7.6h1.6l-4.6,11.2
	c-0.4,1.2-1.5,1.9-2.7,1.9c-0.4,0-0.7-0.1-1.1-0.1l0.2-1.3C177.5,187.7,177.8,187.8,178.1,187.8z"/>
<path class="st0" d="M197.2,182.1h-6.1v-1.3l5.5-8.2h2.2v8.2h1.8v1.4h-1.8v3.2h-1.6V182.1z M192.7,180.7h4.5V174L192.7,180.7z"/>
<path d="M151.7,371v-10.6h5.6c2.6,0,4,1.6,4,3.4s-1.4,3.4-4,3.4h-3.1v3.8H151.7z M158.7,363.8c0-0.9-0.8-1.4-1.8-1.4h-2.7v2.9h2.7
	C157.9,365.2,158.7,364.7,158.7,363.8L158.7,363.8z"/>
<path d="M162,365.7c0-3.2,2.6-5.5,6.3-5.5s6.3,2.3,6.3,5.5s-2.6,5.5-6.3,5.5S162,368.9,162,365.7z M171.9,365.7
	c0.1-2-1.5-3.7-3.5-3.8c-2-0.1-3.7,1.5-3.8,3.5s1.5,3.7,3.5,3.8c0.1,0,0.1,0,0.2,0c1.9,0.1,3.5-1.3,3.6-3.2
	C171.9,365.9,171.9,365.8,171.9,365.7L171.9,365.7z"/>
<path d="M175.1,369.5l1.4-1.8c1,0.9,2.4,1.5,3.8,1.5c1.4,0,2.1-0.6,2.1-1.2c0-1.9-6.9-0.6-6.9-4.6c0-1.8,1.7-3.2,4.6-3.2
	c1.7-0.1,3.3,0.5,4.7,1.5l-1.4,1.7c-1-0.8-2.2-1.2-3.5-1.2c-1.1,0-1.7,0.4-1.7,1.1c0,1.7,6.9,0.5,6.9,4.5c0,1.9-1.6,3.4-4.8,3.4
	C178.4,371.3,176.6,370.7,175.1,369.5z"/>
<path d="M185.6,369.5l1.4-1.8c1,0.9,2.4,1.5,3.8,1.5c1.4,0,2.1-0.6,2.1-1.2c0-1.9-6.9-0.6-6.9-4.6c0-1.8,1.7-3.2,4.6-3.2
	c1.7-0.1,3.3,0.5,4.7,1.5l-1.4,1.7c-1-0.8-2.2-1.2-3.5-1.2c-1.1,0-1.7,0.4-1.7,1.1c0,1.7,6.9,0.5,6.9,4.5c0,1.9-1.6,3.4-4.8,3.4
	C188.9,371.3,187,370.7,185.6,369.5z"/>
<path d="M196.9,371v-10.6h2.6V371H196.9z"/>
<path d="M201.4,371v-10.6h6.3c2.3,0,3.5,1.3,3.5,2.7c0,1.2-0.9,2.3-2.1,2.4c1.3,0.2,2.3,1.3,2.3,2.6c0,1.6-1.2,2.9-3.5,2.9H201.4z
	 M208.6,363.5c0-0.6-0.5-1.1-1.4-1.1H204v2.2h3.2C208.1,364.6,208.6,364.2,208.6,363.5z M208.8,367.8c0-0.7-0.5-1.2-1.5-1.2H204v2.4
	h3.3C208.3,369,208.8,368.6,208.8,367.8z"/>
<path d="M212.9,371v-10.6h2.6v8.6h5.1v2H212.9z"/>
<path d="M221.9,371v-10.6h8.5v2h-5.9v2.2h5.8v2h-5.8v2.4h5.9v2H221.9z"/>
<path d="M235.5,369.5l1.4-1.8c1,0.9,2.4,1.5,3.8,1.5c1.4,0,2.1-0.6,2.1-1.2c0-1.9-6.9-0.6-6.9-4.6c0-1.8,1.7-3.2,4.6-3.2
	c1.7-0.1,3.3,0.5,4.7,1.5l-1.4,1.7c-1-0.8-2.2-1.2-3.5-1.2c-1.1,0-1.7,0.4-1.7,1.1c0,1.7,6.9,0.5,6.9,4.5c0,1.9-1.6,3.4-4.8,3.4
	C238.8,371.3,236.9,370.7,235.5,369.5z"/>
<path d="M246.8,366.7v-6.4h2.6v6.3c0,1.5,1,2.5,2.8,2.5s2.8-1,2.8-2.5v-6.3h2.6v6.4c0,2.6-1.8,4.5-5.4,4.5S246.8,369.4,246.8,366.7z
	"/>
<path d="M259.6,371v-10.6h6.4c2.3,0,3.5,1.3,3.5,2.7c0,1.2-0.9,2.3-2.1,2.4c1.3,0.2,2.3,1.3,2.3,2.6c0,1.6-1.2,2.9-3.5,2.9H259.6z
	 M266.8,363.5c0-0.6-0.5-1.1-1.4-1.1h-3.2v2.2h3.2C266.3,364.6,266.8,364.2,266.8,363.5L266.8,363.5z M267,367.8
	c0-0.7-0.5-1.2-1.5-1.2h-3.3v2.4h3.3C266.5,369,267,368.6,267,367.8L267,367.8z"/>
<path d="M270.4,369.5l1.4-1.8c1,0.9,2.4,1.5,3.8,1.5c1.4,0,2.1-0.6,2.1-1.2c0-1.9-6.9-0.6-6.9-4.6c0-1.8,1.7-3.2,4.5-3.2
	c1.7-0.1,3.4,0.5,4.7,1.5l-1.4,1.7c-1-0.8-2.2-1.2-3.5-1.2c-1.1,0-1.7,0.4-1.7,1.1c0,1.7,6.9,0.5,6.9,4.5c0,1.9-1.6,3.4-4.8,3.4
	C273.7,371.3,271.8,370.7,270.4,369.5z"/>
<path d="M281.7,371v-10.6h8.5v2h-5.9v2.2h5.8v2h-5.8v2.4h5.9v2H281.7z"/>
<path d="M291.2,365.7c0-3.2,2.6-5.5,6.3-5.5s6.3,2.3,6.3,5.5c0,1.4-0.6,2.8-1.6,3.8l0.9,0.9l-1.8,1.3l-1-1c-0.9,0.4-1.9,0.5-2.8,0.5
	C293.9,371.2,291.2,368.9,291.2,365.7z M298.8,369l-1.3-1.4l1.8-1.3l1.3,1.4c0.4-0.6,0.6-1.3,0.6-2c0.1-2-1.5-3.7-3.5-3.8
	c-2-0.1-3.7,1.5-3.8,3.5c-0.1,2,1.5,3.7,3.5,3.8c0.1,0,0.1,0,0.2,0C297.9,369.2,298.3,369.1,298.8,369L298.8,369z"/>
<path d="M305.2,366.7v-6.4h2.6v6.3c0,1.5,1,2.5,2.8,2.5s2.8-1,2.8-2.5v-6.3h2.6v6.4c0,2.6-1.8,4.5-5.4,4.5S305.2,369.4,305.2,366.7z
	"/>
<path d="M318.1,371v-10.6h8.5v2h-5.9v2.2h5.8v2h-5.8v2.4h5.9v2H318.1z"/>
<path d="M336.5,371l-5.7-6.9v6.9h-2.6v-10.6h2.6l5.6,6.7v-6.7h2.6V371H336.5z"/>
<path d="M343.8,371v-8.6h-3.5v-2h9.6v2h-3.5v8.6H343.8z"/>
<path d="M362.2,371l-2.4-3.8h-1.9v3.8h-2.6v-10.6h5.6c2.5,0,4,1.5,4,3.4c0,1.6-1.1,2.9-2.6,3.2l2.7,4L362.2,371z M362.4,363.8
	c0-0.9-0.8-1.4-1.8-1.4h-2.7v2.9h2.7C361.6,365.2,362.4,364.7,362.4,363.8z"/>
<path d="M366,365.7c0-3.2,2.6-5.5,6.3-5.5s6.3,2.3,6.3,5.5s-2.6,5.5-6.3,5.5S366,368.9,366,365.7z M375.9,365.7
	c0.1-2-1.5-3.7-3.5-3.8c-2-0.1-3.7,1.5-3.8,3.5c-0.1,2,1.5,3.7,3.5,3.8c0.1,0,0.1,0,0.2,0c1.9,0.1,3.5-1.3,3.6-3.1
	C375.9,365.9,375.9,365.8,375.9,365.7L375.9,365.7z"/>
<path d="M380,366.7v-6.4h2.6v6.3c0,1.5,1,2.5,2.8,2.5s2.8-1,2.8-2.5v-6.3h2.6v6.4c0,2.6-1.8,4.5-5.4,4.5S380,369.4,380,366.7z"/>
<path d="M401.1,371l-5.7-6.9v6.9h-2.6v-10.6h2.6l5.6,6.7v-6.7h2.5V371H401.1z"/>
<path d="M405.6,371v-10.6h4.7c3.8,0,6.4,2.1,6.4,5.3s-2.6,5.3-6.4,5.3L405.6,371z M414.1,365.7c0-1.9-1.3-3.3-3.8-3.3h-2.2v6.6h2.2
	C412.7,369,414.1,367.5,414.1,365.7z"/>
<path d="M417.4,369.5l1.4-1.8c1,0.9,2.4,1.5,3.8,1.5c1.4,0,2.1-0.6,2.1-1.2c0-1.9-6.9-0.6-6.9-4.6c0-1.8,1.7-3.2,4.5-3.2
	c1.7-0.1,3.4,0.5,4.7,1.5l-1.4,1.7c-1-0.8-2.2-1.2-3.5-1.2c-1.1,0-1.7,0.4-1.7,1.1c0,1.7,6.9,0.5,6.9,4.5c0,1.9-1.6,3.4-4.8,3.4
	C420.6,371.3,418.8,370.7,417.4,369.5z"/>
<path d="M151.1,384.8c0-3.2,2.6-5.5,6.3-5.5s6.3,2.3,6.3,5.5s-2.6,5.5-6.3,5.5S151.1,388,151.1,384.8z M161,384.8
	c0.1-2-1.5-3.7-3.5-3.8c-2-0.1-3.7,1.5-3.8,3.5s1.5,3.7,3.5,3.8c0.1,0,0.1,0,0.2,0c1.9,0.1,3.5-1.3,3.6-3.2
	C161,385,161,384.9,161,384.8L161,384.8z"/>
<path d="M165.1,390.1v-10.6h8.5v2h-5.9v2.2h5.8v2h-5.8v4.4L165.1,390.1z"/>
<path d="M187.6,390.1l-0.8-1.8h-5.1l-0.8,1.8H178l4.6-10.6h3.2l4.6,10.6H187.6z M184.2,381.8l-1.9,4.6h3.8L184.2,381.8z"/>
<path d="M191.2,390.1v-10.6h5.6c2.6,0,4,1.6,4,3.4s-1.4,3.4-4,3.4h-3.1v3.8H191.2z M198.2,382.9c0-0.9-0.8-1.4-1.8-1.4h-2.7v2.9h2.7
	C197.5,384.4,198.3,383.8,198.2,382.9L198.2,382.9z"/>
<path d="M202.1,390.1v-10.6h5.6c2.6,0,4,1.6,4,3.4s-1.4,3.4-4,3.4h-3.1v3.8H202.1z M209.1,382.9c0-0.9-0.8-1.4-1.8-1.4h-2.7v2.9h2.7
	C208.4,384.4,209.2,383.8,209.1,382.9L209.1,382.9z"/>
<path d="M212.9,390.1v-10.6h2.6v8.6h5.1v2L212.9,390.1z"/>
<path d="M221.9,390.1v-10.6h2.6v10.6H221.9z"/>
<path d="M225.9,384.8c0-3.3,2.8-5.5,6.4-5.5c2-0.1,3.9,0.9,5,2.6l-2.2,1c-0.6-1-1.7-1.6-2.8-1.5c-1.9-0.1-3.6,1.3-3.8,3.2
	c-0.1,1.9,1.3,3.6,3.2,3.8c0.2,0,0.4,0,0.5,0c1.1,0,2.2-0.6,2.8-1.5l2.2,0.9c-1.1,1.7-3,2.7-5,2.6
	C228.7,390.3,225.9,388.1,225.9,384.8z"/>
<path d="M246.7,390.1l-0.8-1.8h-5.1l-0.8,1.8h-2.9l4.6-10.6h3.2l4.6,10.6H246.7z M243.4,381.8l-1.9,4.6h3.7L243.4,381.8z"/>
<path d="M252,390.1v-8.6h-3.5v-2h9.5v2h-3.5v8.6H252z"/>
<path d="M259.3,390.1v-10.6h2.5v10.6H259.3z"/>
<path d="M263.3,384.8c0-3.2,2.6-5.5,6.3-5.5s6.3,2.3,6.3,5.5s-2.6,5.5-6.3,5.5S263.3,388,263.3,384.8z M273.2,384.8
	c0.1-2-1.5-3.7-3.5-3.8c-2-0.1-3.7,1.5-3.8,3.5c-0.1,2,1.5,3.7,3.5,3.8c0.1,0,0.1,0,0.2,0c1.9,0.1,3.5-1.3,3.6-3.2
	C273.2,385,273.2,384.9,273.2,384.8z"/>
<path d="M285.6,390.1l-5.7-6.9v6.9h-2.5v-10.6h2.6l5.6,6.7v-6.7h2.6v10.6H285.6z"/>
<path d="M302.6,390.1l-0.8-1.8h-5.1l-0.8,1.8h-2.9l4.6-10.6h3.2l4.6,10.6H302.6z M299.3,381.8l-1.9,4.6h3.7L299.3,381.8z"/>
<path d="M314.6,390.1l-5.7-6.9v6.9h-2.6v-10.6h2.6l5.6,6.7v-6.7h2.6v10.6H314.6z"/>
<path d="M319.1,390.1v-10.6h4.7c3.8,0,6.4,2.1,6.4,5.3s-2.6,5.3-6.4,5.3H319.1z M327.6,384.8c0-1.9-1.3-3.3-3.8-3.3h-2.2v6.6h2.2
	C326.2,388.1,327.6,386.6,327.6,384.8z"/>
<path d="M335.3,384.8c0-3.4,2.9-5.5,6.4-5.5c1.9-0.1,3.8,0.8,5,2.4l-2.1,1c-1.1-1.7-3.3-2.1-5-1c-1.7,1.1-2.1,3.3-1,5
	c0.7,1.1,1.9,1.7,3.2,1.6c0.9,0,1.8-0.3,2.5-0.8v-1.3h-3.2v-2h5.7v4.1c-1.4,1.3-3.2,2.1-5.1,2C338.2,390.3,335.3,388.2,335.3,384.8z
	"/>
<path d="M355.3,390.1l-2.4-3.8h-1.9v3.8h-2.6v-10.6h5.6c2.5,0,4,1.5,4,3.4c0,1.6-1.1,2.9-2.6,3.1l2.7,4L355.3,390.1z M355.5,382.9
	c0-0.9-0.8-1.4-1.8-1.4h-2.7v2.9h2.7C354.8,384.4,355.5,383.8,355.5,382.9z"/>
<path d="M368,390.1l-0.8-1.8h-5.1l-0.8,1.8h-2.9l4.6-10.6h3.2l4.6,10.6H368z M364.7,381.8l-1.9,4.6h3.7L364.7,381.8z"/>
<path d="M380,390.1l-5.7-6.9v6.9h-2.5v-10.6h2.6l5.6,6.7v-6.7h2.6v10.6H380z"/>
<path d="M387.2,390.1v-8.6h-3.5v-2h9.6v2h-3.5v8.6H387.2z"/>
<path d="M160,409.3l-0.8-1.8h-5.1l-0.8,1.8h-2.9l4.6-10.6h3.2l4.6,10.6L160,409.3z M156.7,400.9l-1.9,4.6h3.8L156.7,400.9z"/>
<path d="M172,409.3l-2.1-7.3l-2.1,7.3h-2.7l-3.4-10.6h2.9l2.1,7.7l2.3-7.7h2l2.3,7.7l2.1-7.7h2.9l-3.4,10.6H172z"/>
<path d="M186.5,409.3l-0.8-1.8h-5.1l-0.8,1.8H177l4.6-10.6h3.2l4.6,10.6H186.5z M183.2,400.9l-1.9,4.6h3.7L183.2,400.9z"/>
<path d="M197,409.3l-2.4-3.8h-1.9v3.8h-2.6v-10.6h5.6c2.5,0,4.1,1.5,4.1,3.4c0,1.6-1.1,2.9-2.6,3.2l2.7,4L197,409.3z M197.2,402
	c0-0.9-0.8-1.4-1.8-1.4h-2.7v2.9h2.7C196.4,403.5,197.2,403,197.2,402L197.2,402z"/>
<path d="M201.4,409.3v-10.6h4.7c3.8,0,6.4,2.1,6.4,5.3s-2.6,5.3-6.4,5.3H201.4z M209.9,403.9c0-1.9-1.3-3.3-3.8-3.3h-2.2v6.6h2.2
	C208.5,407.3,209.9,405.8,209.9,403.9z"/>
<path d="M213.1,407.8l1.4-1.8c1,0.9,2.4,1.5,3.8,1.5c1.4,0,2.1-0.6,2.1-1.2c0-1.9-6.9-0.6-6.9-4.6c0-1.8,1.7-3.2,4.6-3.2
	c1.7-0.1,3.3,0.5,4.7,1.5l-1.4,1.7c-1-0.8-2.2-1.2-3.5-1.2c-1.1,0-1.7,0.4-1.7,1c0,1.7,6.9,0.5,6.9,4.5c0,1.9-1.6,3.4-4.8,3.4
	C216.4,409.5,214.6,408.9,213.1,407.8z"/>
<path class="st0" d="M162.9,421.7l-4.4,10.7h-0.7l-4.3-10.7v10.7H152v-12.8h2.3l4,9.8l4-9.8h2.3v12.8H163L162.9,421.7z"/>
<path class="st0" d="M173.3,431.3c-0.8,0.9-1.9,1.3-3.1,1.3c-1.7,0.1-3.2-1.2-3.2-2.9c0,0,0-0.1,0-0.1c0-1.7,1.3-3,2.9-3.1
	c0.1,0,0.2,0,0.3,0c1.2-0.1,2.3,0.4,3.1,1.3V426c0-1.2-1-2-2.3-2c-1.1,0-2.1,0.5-2.9,1.3l-0.7-1c1-1,2.3-1.6,3.7-1.5
	c2,0,3.6,0.9,3.6,3.1v6.4h-1.4V431.3z M173.3,428.6c-0.6-0.8-1.6-1.2-2.6-1.1c-1.1,0-2,0.9-2,2c0,1.1,0.9,2,2,2c1,0,1.9-0.4,2.6-1.2
	V428.6z"/>
<path class="st0" d="M178.1,434.8c0.6,0,1.2-0.4,1.4-1l0.6-1.4l-3.9-9.4h1.6l3.1,7.6l3.1-7.6h1.6l-4.6,11.2
	c-0.4,1.2-1.5,1.9-2.7,1.9c-0.4,0-0.7,0-1.1-0.1l0.2-1.3C177.5,434.7,177.8,434.8,178.1,434.8z"/>
<path class="st0" d="M191.6,431.1c4.6-3.6,7.1-5.8,7.1-8c0-1.3-1.1-2.4-2.4-2.4c-0.1,0-0.2,0-0.3,0c-1.3,0-2.6,0.6-3.5,1.6l-1-1
	c1.1-1.3,2.7-2.1,4.4-2c2.1,0,4.3,1.2,4.3,3.8s-2.6,5-6.2,7.8h6.3v1.4h-8.8L191.6,431.1z"/>
<path class="st0" d="M208,419.3c1.4-0.1,2.7,0.5,3.6,1.5l-0.8,1.2c-0.6-0.9-1.7-1.3-2.8-1.3c-2.5,0-3.6,2.5-3.6,5c0,0.2,0,0.3,0,0.5
	c0.8-1.2,2.2-2,3.6-2c2.1-0.2,4,1.4,4.2,3.6c0,0.2,0,0.4,0,0.5c0,2.3-1.9,4.2-4.2,4.2c-0.1,0-0.2,0-0.3,0c-3.6,0-4.9-3.1-4.9-6.6
	S204.4,419.3,208,419.3z M207.6,425.7c-1.3,0.1-2.5,0.8-3.2,1.9c0.1,1.6,1,3.6,3.2,3.6c1.5,0.1,2.8-1.1,2.9-2.6c0,0,0-0.1,0-0.1
	c0.1-1.5-1-2.7-2.5-2.8C207.9,425.6,207.8,425.6,207.6,425.7L207.6,425.7z"/>
<rect x="97.3" y="13.3" class="st0" width="42.5" height="0.3"/>
<path class="st0" d="M97.4,12.3c-0.6,0-1.1,0.5-1.1,1.1s0.5,1.1,1.1,1.1c0.6,0,1.1-0.5,1.1-1.1c0,0,0,0,0,0
	C98.5,12.9,98,12.3,97.4,12.3C97.4,12.3,97.4,12.3,97.4,12.3z"/>
<rect x="97.3" y="132.6" class="st0" width="42.5" height="0.3"/>
<path class="st0" d="M97.4,131.6c-0.6,0-1.1,0.5-1.1,1.1c0,0.6,0.5,1.1,1.1,1.1c0.6,0,1.1-0.5,1.1-1.1S98,131.6,97.4,131.6
	L97.4,131.6z"/>
<rect x="97.3" y="360.6" class="st0" width="42.5" height="0.3"/>
<path class="st0" d="M97.4,359.6c-0.6,0-1.1,0.5-1.1,1.1s0.5,1.1,1.1,1.1c0.6,0,1.1-0.5,1.1-1.1C98.5,360.1,98,359.6,97.4,359.6
	C97.4,359.6,97.4,359.6,97.4,359.6z"/>
<rect x="97.3" y="251.4" class="st0" width="42.5" height="0.3"/>
<path class="st0" d="M97.4,250.4c-0.6,0-1.1,0.5-1.1,1.1s0.5,1.1,1.1,1.1c0.6,0,1.1-0.5,1.1-1.1S98,250.4,97.4,250.4L97.4,250.4z"/>
<rect x="21.9" y="13.1" class="st1" width="57.7" height="119.6"/>
<rect x="21.9" y="132.1" class="st2" width="57.7" height="119.6"/>
<rect x="21.9" y="251.1" class="st3" width="57.7" height="109.6"/>
<rect x="21.9" y="360.1" class="st4" width="57.7" height="79.6"/>
<rect x="21.9" y="445.8" class="st4" width="57.7" height="7.9"/>
<rect x="21.9" y="459.6" class="st4" width="57.7" height="7.9"/>
<rect x="21.9" y="473.5" class="st4" width="57.7" height="7.9"/>
<rect x="21.9" y="487.4" class="st4" width="57.7" height="7.9"/>
<polygon class="st4" points="50.7,521.6 14.2,494.6 50.7,494.6 87.2,494.6 "/>
</svg>
