<svg xmlns="http://www.w3.org/2000/svg" width="333" height="190" viewBox="0 0 333 190">
    <defs>
        <filter id="a" width="103.5%" height="127.9%" x="-1.8%" y="-14.5%" filterUnits="objectBoundingBox">
            <feOffset dy="2" in="SourceAlpha" result="shadowOffsetOuter1"/>
            <feGaussianBlur in="shadowOffsetOuter1" result="shadowBlurOuter1" stdDeviation="5.5"/>
            <feColorMatrix in="shadowBlurOuter1" result="shadowMatrixOuter1" values="0 0 0 0 0 0 0 0 0 0 0 0 0 0 0 0 0 0 0.180140399 0"/>
            <feMerge>
                <feMergeNode in="shadowMatrixOuter1"/>
                <feMergeNode in="SourceGraphic"/>
            </feMerge>
        </filter>
    </defs>
    <g fill="none" fill-rule="evenodd" filter="url(#a)" transform="translate(-159 -10)">
        <path fill="#8CC140" d="M222.989 175.16a81.687 81.687 0 0 0 27.037 4.575c45.436 0 82.401-37.117 82.401-82.74a82.872 82.872 0 0 0-42.99-72.645l3.6-6.687A90.482 90.482 0 0 1 340 96.996c0 49.814-40.363 90.341-89.974 90.341a89.22 89.22 0 0 1-29.557-5.006l2.52-7.17"/>
        <path fill="#3AA547" d="M314.766 137.769c-14.514 21.652-38.77 34.731-64.883 34.987-44.05 0-79.883-35.56-79.883-79.267 0-11.155 2.3-21.948 6.834-32.082l6.927 3.172c-4.07 9.132-6.133 18.86-6.133 28.91 0 39.532 32.396 71.694 72.217 71.694 23.41-.23 45.228-11.926 58.356-31.29l6.565 3.876"/>
        <path fill="#006F3C" d="M221.242 144.957c-18.754-10.584-30.405-30.537-30.405-52.072 0-32.906 26.65-59.677 59.408-59.677a62.909 62.909 0 0 1 31.742 8.593 63.975 63.975 0 0 1 22.292 21.93h8.685c-12.322-23.513-36.349-38.115-62.72-38.115-36.924 0-66.963 30.176-66.963 67.269 0 24.247 13.11 46.724 34.211 58.662l3.75-6.59zm27.313-66.715v-6.639h-30.391v6.64h3.27v26.472h-3.27v6.603h15.086v-6.603h-3.782V94.49h15.841v-6.875h-15.841v-9.373h19.087zm68.857.09l.01-6.639-14.627-.02-.01 6.639 3.297.004-.036 26.473-3.297-.004-.008 6.602 14.626.02.009-6.603-3.296-.003.036-26.473 3.296.004zm-33.423-6.685l14.375.02-.01 6.64-3.298-.005-.035 26.472 3.298.004-.01 6.604-11.172-.016.04-30.812-9.972 24.607-3.558-.004-10.075-24.67-.04 30.849-11.165-.015.01-6.604 3.276.005.037-26.473-3.277-.004.009-6.64 14.687.02 8.481 21.047 8.4-21.025z"/>
        <g fill="#006F3C">
            <path d="M355 78.653v2.383h3.888v9.367h2.81v-9.367h3.885v-2.383zM374.736 78.653v4.65h-5.076v-4.65h-2.754v11.75h2.754v-4.717h5.076v4.717h2.754v-11.75zM380.135 78.653v11.75h9.26v-2.3h-6.6v-2.467h5.732v-2.3h-5.733v-2.384h6.515v-2.3zM397.333 78.653v11.75h2.677v-4.55h5.802v-2.349h-5.802v-2.501h6.584v-2.35zM418.713 85.34v-.035c0-2.073-1.542-3.8-3.713-3.8-2.172 0-3.678 1.692-3.678 3.766v.034c0 2.073 1.54 3.8 3.714 3.8 2.17 0 3.677-1.693 3.677-3.765m-10.212 0v-.035c0-3.437 2.75-6.252 6.535-6.252 3.781 0 6.496 2.78 6.496 6.218v.034c0 3.438-2.75 6.253-6.532 6.253-3.784 0-6.499-2.78-6.499-6.218M433.608 85.34v-.035c0-2.073-1.541-3.8-3.714-3.8-2.17 0-3.677 1.692-3.677 3.766v.034c0 2.073 1.541 3.8 3.713 3.8s3.678-1.693 3.678-3.765m-10.211 0v-.035c0-3.437 2.75-6.252 6.533-6.252 3.783 0 6.498 2.78 6.498 6.218v.034c0 3.438-2.75 6.253-6.534 6.253-3.782 0-6.497-2.78-6.497-6.218M443.616 88.95c2.207 0 3.698-1.468 3.698-3.61v-.035c0-2.142-1.49-3.644-3.698-3.644h-2.084v7.289h2.084zm-4.781-9.69h4.781c3.854 0 6.518 2.608 6.518 6.01v.035c0 3.403-2.664 6.046-6.518 6.046h-4.781V79.259zM358.696 107.746h2.699V95.654h-2.7zM364.462 95.655h2.487l5.746 7.444v-7.444h2.662v12.09h-2.294l-5.939-7.685v7.686h-2.662zM383.089 105.345c2.207 0 3.696-1.468 3.696-3.61v-.035c0-2.142-1.49-3.644-3.696-3.644h-2.085v7.289h2.085zm-4.783-9.69h4.783c3.853 0 6.516 2.608 6.516 6.01v.035c0 3.403-2.663 6.046-6.516 6.046h-4.783V95.654zM391.818 102.564v-6.91h2.698v6.84c0 1.97.998 2.988 2.645 2.988 1.646 0 2.644-.984 2.644-2.901v-6.926h2.698v6.823c0 3.662-2.084 5.457-5.378 5.457-3.293 0-5.307-1.813-5.307-5.371M404.418 105.984l1.594-1.883c1.105.898 2.26 1.469 3.661 1.469 1.104 0 1.77-.432 1.77-1.14v-.035c0-.674-.422-1.019-2.47-1.538-2.47-.621-4.065-1.295-4.065-3.696v-.034c0-2.194 1.787-3.645 4.292-3.645 1.787 0 3.31.553 4.554 1.538l-1.401 2.003c-1.086-.743-2.155-1.192-3.188-1.192-1.033 0-1.576.466-1.576 1.054v.034c0 .795.526 1.054 2.645 1.59 2.487.638 3.89 1.52 3.89 3.627v.034c0 2.401-1.858 3.749-4.504 3.749-1.856 0-3.73-.64-5.202-1.935M419.069 98.107h-3.732v-2.452h10.16v2.452h-3.73v9.639h-2.698zM433 101.528c1.313 0 2.066-.692 2.066-1.71v-.035c0-1.14-.806-1.727-2.12-1.727h-2.68v3.472H433zm-5.43-5.874h5.604c1.559 0 2.768.432 3.573 1.226.683.674 1.052 1.625 1.052 2.765v.034c0 1.952-1.068 3.178-2.628 3.748l2.995 4.318h-3.152l-2.629-3.868h-2.118v3.868h-2.697v-12.09zM443.253 102.978l-4.712-7.324h3.153l2.925 4.854 2.978-4.854h3.066l-4.712 7.273v4.819h-2.698zM363.278 119.08l-1.627-3.92-1.63 3.92h3.257zm-2.837-7.117h2.487l5.256 12.177h-2.82l-1.123-2.711h-5.184l-1.121 2.71h-2.75l5.255-12.176zM369.066 122.378l1.594-1.882c1.103.897 2.26 1.469 3.66 1.469 1.104 0 1.77-.433 1.77-1.141v-.035c0-.673-.421-1.019-2.47-1.537-2.47-.622-4.065-1.296-4.065-3.697v-.034c0-2.193 1.787-3.645 4.293-3.645 1.786 0 3.31.553 4.554 1.538L377 115.417c-1.087-.742-2.154-1.192-3.187-1.192-1.034 0-1.577.466-1.577 1.054v.034c0 .795.525 1.054 2.645 1.59 2.488.638 3.889 1.52 3.889 3.627v.034c0 2.402-1.857 3.749-4.503 3.749-1.856 0-3.73-.64-5.201-1.935M380.106 122.378l1.594-1.882c1.104.897 2.259 1.469 3.661 1.469 1.103 0 1.77-.433 1.77-1.141v-.035c0-.673-.423-1.019-2.47-1.537-2.47-.622-4.066-1.296-4.066-3.697v-.034c0-2.193 1.787-3.645 4.292-3.645 1.787 0 3.311.553 4.555 1.538l-1.401 2.003c-1.087-.742-2.156-1.192-3.189-1.192-1.034 0-1.576.466-1.576 1.054v.034c0 .795.526 1.054 2.645 1.59 2.488.638 3.89 1.52 3.89 3.627v.034c0 2.402-1.858 3.749-4.503 3.749-1.857 0-3.731-.64-5.202-1.935M401.831 118.13v-.036c0-2.071-1.541-3.799-3.714-3.799-2.172 0-3.678 1.692-3.678 3.765v.034c0 2.074 1.542 3.8 3.714 3.8 2.172 0 3.678-1.693 3.678-3.765m-10.212 0v-.035c0-3.437 2.75-6.252 6.534-6.252 3.783 0 6.498 2.78 6.498 6.218v.034c0 3.438-2.75 6.254-6.534 6.254-3.783 0-6.498-2.782-6.498-6.219M406.514 118.13v-.036c0-3.437 2.628-6.252 6.394-6.252 2.312 0 3.696.76 4.834 1.865l-1.716 1.952c-.946-.846-1.91-1.364-3.135-1.364-2.068 0-3.557 1.692-3.557 3.765v.034c0 2.074 1.454 3.8 3.557 3.8 1.4 0 2.258-.552 3.223-1.416l1.717 1.71c-1.262 1.33-2.664 2.16-5.029 2.16-3.608 0-6.288-2.746-6.288-6.219M420.113 124.14h2.698v-12.09h-2.698zM432.92 119.08l-1.629-3.92-1.63 3.92h3.259zm-2.839-7.117h2.489l5.255 12.177h-2.82l-1.122-2.711h-5.184l-1.122 2.71h-2.75l5.254-12.176zM440.998 114.501h-3.73v-2.451h10.16v2.451h-3.732v9.64h-2.698zM449.621 124.14h2.699v-12.09h-2.699zM465.056 118.13v-.036c0-2.071-1.54-3.799-3.712-3.799-2.173 0-3.679 1.692-3.679 3.765v.034c0 2.074 1.542 3.8 3.714 3.8 2.171 0 3.677-1.693 3.677-3.765m-10.211 0v-.035c0-3.437 2.75-6.252 6.534-6.252 3.782 0 6.497 2.78 6.497 6.218v.034c0 3.438-2.75 6.254-6.532 6.254-3.784 0-6.5-2.782-6.5-6.219M470.283 112.049h2.487l5.746 7.445v-7.445h2.661v12.091h-2.293l-5.938-7.686v7.686h-2.663z"/>
        </g>
    </g>
</svg>
