<svg version="1.1" id="logoNewseasons" role="group" aria-label="logo-NewSeasons" xmlns="http://www.w3.org/2000/svg" xmlns:xlink="http://www.w3.org/1999/xlink" x="0px" y="0px"
	 viewBox="0 0 100 23.7" enable-background="new 0 0 100 23.7" xml:space="preserve">
<g>
	<rect class="green" x="33.9" y="13.6" fill="#D6E03D" width="44.9" height="9.4"/>
	<g>

		<path class="green" fill="#D6E03D" d="M33.9,13.7H1V3.1c0-1.4,1.2-2.6,2.6-2.6h30.3L33.9,13.7z"/>
		<polygon class="black" points="41.6,20.3 40.9,20.3 40.9,17.6 40.9,17.6 39.5,19.8 38,17.6 38,17.6 38,20.3
			37.4,20.3 37.4,16.5 38,16.5 39.5,18.7 40.9,16.5 41.6,16.5 		"/>
		<path class="black" d="M47.4,18.8h-1.7l0.8-1.6L47.4,18.8z M46.9,16.5h-0.7l-2.1,3.9h0.7l0.5-0.9h2.4l0.5,0.9H49
			L46.9,16.5z"/>
		<path class="black" d="M52.4,18.1v-1h1.8c0.5,0,0.8,0,0.8,0.5c0,0.4-0.3,0.5-0.7,0.5H52.4z M54.6,18.7
			c0.5-0.1,1-0.3,1-1.2c0-0.8-0.7-1.1-1.5-1.1h-2.4v3.9h0.7v-1.6h1.4l1.1,1.6h0.8L54.6,18.7z"/>
		<polygon class="black" points="62.5,20.3 61.7,20.3 60.2,18.3 59.5,19 59.5,20.3 58.9,20.3 58.9,16.5 59.5,16.5
			59.5,18.2 61.4,16.5 62.3,16.5 60.8,17.9 		"/>
		<polygon class="black" points="68.9,20.3 65.4,20.3 65.4,16.5 68.8,16.5 68.8,17.1 66.1,17.1 66.1,18 67.6,18
			67.6,18.7 66.1,18.7 66.1,19.7 68.9,19.7 		"/>
		<polygon class="black" points="73.8,20.3 73.1,20.3 73.1,17.1 71.6,17.1 71.6,16.5 75.3,16.5 75.3,17.1 73.8,17.1
			"/>
		<path class="black" d="M3.6,0.1c-1.6,0-3,1.3-3,3v10.9h32.8h0v9.5h45.7v-9.5h17.2c1.6,0,3-1.3,3-3v-11H3.6z
			 M33.5,13.2h-32V3.1C1.5,2,2.4,1,3.6,1h29.9V13.2z M78.3,22.7h-44v-8.6h44V22.7z"/>
		<polygon class="black" points="30.9,3.5 28.9,10.8 26.9,10.8 25.6,6.1 24.3,10.8 22.3,10.8 20.3,3.5 22.7,3.5
			23.6,7.7 24.7,3.5 26.8,3.5 28.2,7.7 29.4,3.5 		"/>
		<polygon class="black" points="9.3,10.8 5.7,6.6 5.7,10.8 4.4,10.8 4.4,3.5 6.4,3.5 10,7.8 10,3.5 11.3,3.5
			11.3,10.8 		"/>
		<polygon class="black" points="13.1,10.8 13.1,3.5 19.1,3.5 19.1,4.9 15.5,4.9 15.5,6.2 18,6.2 18,7.5 15.5,7.5
			15.5,9.5 19.1,9.5 19.1,10.8 		"/>
		<path class="green" fill="#D6E03D" d="M40.2,11c-1.6,0-2.8-0.7-3.5-1.5l0.7-0.9c0.7,0.5,1.5,1,2.5,1
			c0.6,0,1-0.3,1-0.6c0-0.4-0.5-0.6-1.7-1.1c-1.5-0.6-2.2-1.4-2.2-2.3c0-1.2,1.1-2.3,3-2.3c1.4,0,2.7,0.6,3.4,1.2l-0.6,1
			c-0.7-0.4-1.4-0.7-2.4-0.7c-0.4,0-0.7,0.2-0.7,0.5c0,0.2,0.3,0.6,1.4,0.9c2.1,0.8,2.7,1.7,2.7,2.6C43.5,9.9,42.4,11,40.2,11"/>
		<polygon class="green" fill="#D6E03D" points="45.5,10.8 45.5,3.5 51.5,3.5 51.5,4.8 47.9,4.8 47.9,6.2 50.4,6.2
			50.4,7.5 47.9,7.5 47.9,9.4 51.5,9.4 51.5,10.8 		"/>
		<path class="green" fill="#D6E03D" d="M57.4,8.3h-2.1L56.3,6L57.4,8.3z M61.2,10.8l-3.4-7.3h-1.8l-3.4,7.3h1.5
			l0.5-1.2H58l0.5,1.2H61.2z"/>
		<path class="green" fill="#D6E03D" d="M65.3,11c-1.6,0-2.8-0.7-3.5-1.5l0.7-0.9c0.7,0.5,1.5,1,2.5,1
			c0.6,0,1-0.3,1-0.6c0-0.4-0.5-0.6-1.7-1.1c-1.5-0.6-2.2-1.4-2.2-2.3c0-1.2,1.1-2.3,3-2.3c1.4,0,2.7,0.6,3.4,1.2l-0.6,1
			c-0.7-0.4-1.4-0.7-2.4-0.7c-0.4,0-0.7,0.2-0.7,0.5c0,0.2,0.3,0.6,1.4,0.9c2.1,0.8,2.7,1.7,2.7,2.6C68.6,9.9,67.5,11,65.3,11"/>
		<path class="green" fill="#D6E03D" d="M75.7,7.1c0,1.3-0.7,2.4-1.5,2.4s-1.5-1.1-1.5-2.4s0.7-2.4,1.5-2.4
			S75.7,5.8,75.7,7.1 M78.4,7.1c0-2.2-1.8-3.9-4.1-3.9c-2.3,0-4.1,1.7-4.1,3.9c0,2.1,1.8,3.9,4.1,3.9C76.5,11,78.4,9.3,78.4,7.1"/>
		<polygon class="green" fill="#D6E03D" points="85.1,10.8 81.5,6.5 81.5,10.8 80.2,10.8 80.2,3.5 82.1,3.5 85.7,7.8
			85.7,3.5 87.1,3.5 87.1,10.8 		"/>
		<path class="green" fill="#D6E03D" d="M92.3,11c-1.6,0-2.8-0.7-3.5-1.5l0.7-0.9c0.7,0.5,1.5,1,2.5,1
			c0.6,0,1-0.3,1-0.6c0-0.4-0.5-0.6-1.7-1.1C89.8,7.3,89,6.5,89,5.5c0-1.2,1.1-2.3,3-2.3c1.4,0,2.7,0.6,3.4,1.2l-0.6,1
			c-0.7-0.4-1.4-0.7-2.4-0.7c-0.4,0-0.7,0.2-0.7,0.5c0,0.2,0.3,0.6,1.4,0.9c2.1,0.8,2.7,1.7,2.7,2.6C95.6,9.9,94.5,11,92.3,11"/>
	</g>
</g>
</svg>
