<?xml version="1.0" encoding="utf-8"?>
<!-- Generator: Adobe Illustrator 19.0.1, SVG Export Plug-In . SVG Version: 6.00 Build 0)  -->
<svg version="1.1" id="Layer_1" xmlns="http://www.w3.org/2000/svg" xmlns:xlink="http://www.w3.org/1999/xlink" x="0px" y="0px"
	 viewBox="0 0 33.5 33.5" style="enable-background:new 0 0 33.5 33.5;" xml:space="preserve">
<style type="text/css">
	.st0{fill:#EBE6DA;}
	.st1{fill:#D13239;}
	.st2{fill:#88A65B;}
	.st3{fill:#6B823B;}
	.st4{fill:#A32B2F;}
</style>
<g>
	<circle class="st0" cx="16.8" cy="16.8" r="16.8"/>
	<g>
		<path class="st1" d="M19.7,25.5C19.7,25.5,19.6,25.5,19.7,25.5L19.7,25.5C19.6,25.5,8.9,14.8,8.9,14.8l-0.3-0.3c0,0,0-0.1-0.1-0.1
			c0,0,0,0,0,0c-0.1-0.1-0.1-0.1-0.1-0.1c-0.3-0.4-0.5-0.8-0.6-1.3c-0.1,0.2-0.1,0.4-0.2,0.6l0,0c0,0,0,0,0,0c0,0.1-0.1,0.3-0.1,0.4
			c0,0,0,0,0,0.1c0,0.2,0,0.5,0,0.5c0,0,0,5.8,0,5.8c0,0,0,0,0,0c0,0,0,0,0,0c0,1.2,0.5,2.2,1.2,3l0,0l2.2,2.2
			c0.8,0.7,1.8,1.2,2.9,1.2l0,0l0,0l5.8,0l0,0h0c0,0,0.3,0,0.4,0c0,0,0,0,0.1,0c0,0,0,0,0,0c0,0,0.2,0,0.3,0c0,0,0.1,0,0.1,0h0
			c0,0,0,0,0.1,0c0.1,0,0.1,0,0.2,0c0.1,0,0.1,0,0.2-0.1c0,0,0.1,0,0.1,0C20.6,26.1,20.1,25.9,19.7,25.5
			C19.7,25.6,19.7,25.6,19.7,25.5z"/>
		<path class="st2" d="M8.9,11c-0.6,0.8-0.6,1.9,0,2.7c0.1,0.1,2.9,2.9,2.9,2.9l2.4-2.4l2,2l0-8.4l-8.4,0l2,2C10,9.9,8.9,11,8.9,11z
			"/>
		<path class="st3" d="M17.9,15.6l1.4-1.4v0l0,0l2.4,2.4l2.5-2.5c0.1-0.1,0.1-0.1,0.2-0.2c0.1-0.1,0.1-0.1,0.2-0.2
			c0.6-0.8,0.6-1.9,0-2.7c0,0,0,0,0,0c0,0,0,0,0,0c0,0,0,0,0,0c0-0.1-1-1-1-1l2-2l-8.4,0v8.4L17.9,15.6
			C17.9,15.6,17.9,15.6,17.9,15.6z"/>
		<path class="st4" d="M26,14C26,14,26,14,26,14C26,13.9,26,13.9,26,14c0-0.1,0-0.1,0-0.2c0-0.1,0-0.2,0-0.2c0,0,0-0.1,0-0.1
			c0,0,0,0,0,0v0c0,0,0-0.1,0-0.1c0-0.1,0-0.1,0-0.2c0-0.1,0-0.1-0.1-0.2c0,0,0-0.1,0-0.1c-0.1,0.5-0.3,0.9-0.6,1.3
			c0,0.1-0.1,0.1-0.1,0.2c0,0,0,0.1,0,0.1l-7.6,7.6c0,0,2.8,2.9,2.9,2.9c0.7,0.5,1.6,0.6,2.3,0.3c0.2-0.2,2.3-2.1,2.3-2.1
			c0.7-0.8,1.2-1.8,1.2-2.9c0-0.8,0-5.8,0-5.8C26.1,14.3,26.1,14.1,26,14z"/>
	</g>
</g>
</svg>
