<svg xmlns="http://www.w3.org/2000/svg" viewBox="0 0 600 600"><defs><style>.cls-1{fill:#5ca958;}.cls-2{fill:#fff;}</style></defs><g id="Layer_2" data-name="Layer 2"><g id="Layer_1-2" data-name="Layer 1"><g id="Group_1583" data-name="Group 1583"><g id="Group_1175" data-name="Group 1175"><g id="Group_1168" data-name="Group 1168"><g id="Group_1167" data-name="Group 1167"><g id="Ellipse_408" data-name="Ellipse 408"><circle class="cls-1" cx="300" cy="300" r="300"/></g></g></g><polygon class="cls-2" points="271.69 430.78 315.37 405.76 322.62 418.42 313.31 423.76 350.3 423.76 361.79 349.39 376.21 351.62 362.81 438.36 314.26 438.36 322.62 443.15 315.37 455.81 271.69 430.78"/><polygon class="cls-2" points="229.49 438.35 210.62 300.85 206.76 310.73 193.16 305.43 211.46 258.53 242.67 298.03 231.22 307.08 225.16 299.42 242.22 423.72 265.72 423.72 265.69 438.35 229.49 438.35"/><polygon class="cls-2" points="352.95 295.38 366.47 289.87 370.64 300.12 380.38 225.51 214.17 225.51 217.17 247.6 202.71 249.62 197.46 210.95 397 210.95 385.32 300.53 390.97 293.16 402.56 302.03 371.91 342 352.95 295.38"/><path class="cls-2" d="M190.53,199.26v-14.6h68.21a38.46,38.46,0,0,1,38-35.86h.55a38.86,38.86,0,0,1,38.53,35.86H404v14.6Zm130.56-14.6a24,24,0,0,0-23.8-20.78l0-2v2a24,24,0,0,0-23.82,20.78Z"/></g></g></g></g></svg>