<svg xmlns="http://www.w3.org/2000/svg" viewBox="0 0 600 600"><defs><style>.cls-1{fill:#048dc6;}.cls-2{fill:#fff;}</style></defs><g id="Layer_2" data-name="Layer 2"><g id="Layer_1-2" data-name="Layer 1"><g id="Ellipse_286" data-name="Ellipse 286"><g id="Ellipse_405" data-name="Ellipse 405"><circle class="cls-1" cx="300" cy="300" r="300"/></g></g><path class="cls-2" d="M480.72,256.61A122.89,122.89,0,0,0,235.25,248H150.91V457.64H360.55V379.46A123,123,0,0,0,480.72,256.61ZM165.37,443.19V262.47h69.72a123,123,0,0,0,111,116.46v64.26Zm192.46-78.14a108.44,108.44,0,0,1,0-216.88h0a108.44,108.44,0,0,1,0,216.87Z"/><polygon class="cls-2" points="365.06 206.02 350.6 206.02 350.6 249.39 307.23 249.39 307.23 263.85 350.6 263.85 350.6 307.22 365.06 307.22 365.06 263.85 408.43 263.85 408.43 249.39 365.06 249.39 365.06 206.02"/></g></g></svg>