<svg xmlns="http://www.w3.org/2000/svg" viewBox="0 0 300 300"><defs><style>.cls-1{fill:#00d1c3;}.cls-2{fill:#fff;}</style></defs><g id="Layer_2" data-name="Layer 2"><g id="Layer_1-2" data-name="Layer 1"><g id="Ellipse_288" data-name="Ellipse 288"><g id="Ellipse_407" data-name="Ellipse 407"><circle class="cls-1" cx="150" cy="150" r="150"/></g></g><path class="cls-2" d="M165.49,114.66a58.81,58.81,0,0,0,43.8-55.28l.1-3.6-3.59-.17a58.89,58.89,0,0,0-59.65,43.57,154.13,154.13,0,0,0-26.3-47.39l-5.55,4.76a149.45,149.45,0,0,1,28.37,56.6,62.14,62.14,0,1,0,22.82,1.51Zm2.46-38h0a51,51,0,0,1,33.77-13.73,51.5,51.5,0,0,1-50,46.38A51,51,0,0,1,168,76.62ZM150,229.79A54.88,54.88,0,0,1,150,120h0a54.88,54.88,0,0,1,0,109.76Z"/><polygon class="cls-2" points="153.66 149.3 146.34 149.3 146.34 171.25 124.39 171.25 124.39 178.57 146.34 178.57 146.34 200.52 153.66 200.52 153.66 178.57 175.61 178.57 175.61 171.25 153.66 171.25 153.66 149.3"/></g></g></svg>