<svg xmlns="http://www.w3.org/2000/svg" viewBox="0 0 600 600"><defs><style>.cls-1{fill:#045b80;}.cls-2{fill:#fff;}</style></defs><g id="Layer_2" data-name="Layer 2"><g id="Layer_1-2" data-name="Layer 1"><g id="Ellipse_284" data-name="Ellipse 284"><g id="Ellipse_403" data-name="Ellipse 403"><circle class="cls-1" cx="300" cy="300" r="300"/></g></g><g id="Group_1187" data-name="Group 1187"><g id="Group_1186" data-name="Group 1186"><path class="cls-2" d="M136,446.92V255.24l80.1,29.67v-31.3L294.72,284V255.26l77.16,28.46L385,128.5l52.89-1.92,20.17,320.81Zm308.16-12.58L425.71,140.08l-28.67,1L383.45,301.89,307.79,274v29.08l-78.64-30.41v31L149.06,274V433.9Zm-70.05-14.55V346.68h48.64v73.11Zm35.61-13V359.7H387.16v47.05Zm-104.59,13V346.68h48.64v73.11Zm35.61-13V359.7H318.18v47.05Zm-104.6,13V346.68H284.8v73.11Zm35.61-13V359.7H249.2v47.05ZM165,419.79V346.68H213.6v73.11Zm35.61-13V359.7H178v47.05Z"/></g></g></g></g></svg>