<svg id="Layer_1" data-name="Layer 1" xmlns="http://www.w3.org/2000/svg" viewBox="0 0 24 24"><defs><style>.cls-1{fill:#257;}.cls-2{fill:#fff;}</style></defs><title>date-labeling</title><circle class="cls-1" cx="12" cy="12" r="10.89"/><path class="cls-2" d="M12,23.81A11.81,11.81,0,1,1,23.81,12,11.82,11.82,0,0,1,12,23.81ZM12,2A10,10,0,1,0,22,12,10,10,0,0,0,12,2Z"/><path class="cls-2" d="M6.41,12a1.38,1.38,0,0,1,1.38-1.38h8.42a1.38,1.38,0,0,1,0,2.76H7.79A1.38,1.38,0,0,1,6.41,12Z"/><path class="cls-2" d="M12,6.41a1.38,1.38,0,0,1,1.38,1.38v8.42a1.38,1.38,0,0,1-2.76,0V7.79A1.38,1.38,0,0,1,12,6.41Z"/></svg>