<?xml version="1.0" encoding="utf-8"?>
<svg version="1.1" xmlns="http://www.w3.org/2000/svg" xmlns:xlink="http://www.w3.org/1999/xlink" x="0px" y="0px"
   viewBox="0 0 250 250.001" enable-background="new 0 0 250 250.001" xml:space="preserve">
  <g id="bottom">
    <g>
      <path fill="#BDCAD6" d="M249.986,124.428C249.675,55.657,193.844,0,125.001,0S0.324,55.657,0.014,124.428h1.427v-2.083h33.662
        c-7.9-19.322-8.529-39.079-8.559-40.253c-0.036-1.465,1.121-2.683,2.583-2.722c1.706-0.036,39.503-0.752,63.605,23.35
        c5.448,5.449,8.35,12.476,8.771,19.625h20.844v-6.974c-15.461-1.352-27.639-14.351-27.639-30.154
        c0-31.196,27.214-60.167,28.369-61.386c1.016-1.061,2.692-1.099,3.75-0.096c1.161,1.102,28.462,27.382,28.462,61.482
        c0,15.804-12.172,28.803-27.633,30.154v6.974h20.845c0.419-7.149,3.321-14.176,8.769-19.625
        c24.102-24.1,61.946-23.394,63.601-23.35c1.461,0.039,2.618,1.257,2.582,2.722c-0.029,1.174-0.658,20.931-8.559,40.253h33.662
        v2.083H249.986z"/>
      <g>
        <path fill="#7C98AF" d="M148.642,127.655h-20.985v43.756l27.831-27.83C151.583,138.926,149.306,133.37,148.642,127.655z"/>
        <path fill="#7C98AF" d="M15.235,157.093c-2.438-2.408-3.117-6.217-1.432-9.396l2.386-4.49c1.716-3.22,5.32-4.751,8.715-4.017
          c-2.508-2.402-3.254-6.241-1.548-9.461l1.101-2.074H1.441v-3.227H0.014C0.013,124.62,0,124.808,0,125
          c0,13.155,2.044,25.83,5.811,37.739l0.836-1.572C8.339,157.985,11.896,156.432,15.235,157.093z"/>
        <path fill="#7C98AF" d="M122.347,127.655h-20.985c-0.663,5.717-2.942,11.273-6.848,15.928l27.833,27.833V127.655z"/>
        <path fill="#7C98AF" d="M35.459,180.088c1.623-3.062,4.978-4.636,8.193-4.144c-2.204-2.416-2.775-6.054-1.147-9.111l2.349-4.418
          c1.624-3.057,4.947-4.633,8.189-4.143c-2.204-2.42-2.769-6.054-1.147-9.109l0.669-1.258c-0.922-0.728-1.82-1.5-2.671-2.351
          c-4.127-4.127-7.526-8.872-10.323-13.87c-0.076,1.078-0.36,2.157-0.899,3.172l-1.244,2.344c-1.431,2.694-4.19,4.232-7.042,4.232
          c-0.552,0-1.107-0.083-1.657-0.201c2.493,2.405,3.235,6.235,1.533,9.447l-2.385,4.49c-1.691,3.184-5.264,4.739-8.593,4.078
          c2.438,2.409,3.117,6.22,1.427,9.402l-2.39,4.493c-1.4,2.625-4.074,4.112-6.834,4.193c3.7,8.014,8.199,15.583,13.438,22.572
          l1.142-2.149c1.623-3.057,4.942-4.636,8.187-4.143c-2.203-2.419-2.769-6.054-1.145-9.108L35.459,180.088z"/>
        <path fill="#7C98AF" d="M231.585,172.966l-2.395-4.504c-1.707-3.205-1.001-7.047,1.477-9.453
          c-3.395,0.705-6.958-0.856-8.659-4.058l-2.396-4.504c-1.717-3.231-0.958-7.09,1.573-9.493c-0.569,0.126-1.142,0.209-1.713,0.209
          c-2.846,0-5.6-1.533-7.031-4.222l-1.249-2.343c-0.472-0.885-0.738-1.82-0.855-2.758c-2.782,4.941-6.149,9.631-10.232,13.714
          c-0.851,0.851-1.75,1.622-2.672,2.35l0.671,1.259c1.623,3.054,1.056,6.689-1.147,9.109c3.225-0.488,6.565,1.086,8.187,4.143
          l2.349,4.418c1.628,3.057,1.058,6.695-1.145,9.111c3.174-0.49,6.565,1.082,8.193,4.144l2.349,4.418
          c1.623,3.054,1.058,6.689-1.147,9.108c3.237-0.488,6.565,1.087,8.189,4.143l1.142,2.15c5.277-7.038,9.802-14.665,13.517-22.742
          C235.749,177.149,233.01,175.646,231.585,172.966z"/>
        <path fill="#7C98AF" d="M212.218,209.654l-2.349-4.418c-1.624-3.054-1.058-6.689,1.145-9.109
          c-3.235,0.47-6.565-1.089-8.187-4.143l-2.349-4.418c-1.628-3.057-1.058-6.695,1.147-9.111c-3.189,0.474-6.566-1.082-8.195-4.144
          l-2.349-4.418c-1.623-3.054-1.058-6.689,1.147-9.108c-3.241,0.472-6.565-1.089-8.187-4.143l-1.344-2.527
          c-1.331,0.177-2.668,0.297-4.009,0.297c-6.925,0-13.837-2.37-19.446-7.077l-31.585,31.584v31.964
          c0,1.468-1.188,2.655-2.655,2.655s-2.655-1.187-2.655-2.655v-31.959L90.76,147.337c-5.608,4.705-12.524,7.075-19.449,7.075
          c-1.341,0-2.676-0.12-4.007-0.297l-1.344,2.527c-1.623,3.054-4.958,4.61-8.187,4.143c2.203,2.419,2.768,6.054,1.145,9.108
          l-2.349,4.418c-1.628,3.062-5.019,4.613-8.193,4.144c2.204,2.416,2.775,6.054,1.147,9.111l-2.349,4.418
          c-1.628,3.054-4.968,4.608-8.189,4.143c2.204,2.42,2.769,6.054,1.147,9.109l-2.349,4.418c-0.566,1.065-1.378,1.889-2.283,2.568
          c22.705,23.294,54.403,37.779,89.502,37.779c35.097,0,66.796-14.484,89.5-37.778
          C213.596,211.544,212.784,210.719,212.218,209.654z"/>
        <path fill="#7C98AF" d="M249.986,124.428h-1.428v3.227h-23.021l0.958,1.794c1.726,3.237,0.964,7.11-1.578,9.514
          c3.395-0.759,7.038,0.763,8.759,4.002l2.396,4.504c1.706,3.204,1.001,7.047-1.478,9.453c3.375-0.708,6.954,0.856,8.659,4.057
          l0.936,1.76C247.956,150.83,250,138.155,250,125C250,124.808,249.987,124.62,249.986,124.428z"/>
      </g>
      <g>
        <path fill="#7C98AF" d="M100.018,85.216c0,12.876,9.796,23.504,22.329,24.834V55.2c0-1.468,1.188-2.655,2.655-2.655
          s2.655,1.187,2.655,2.655v54.85c12.529-1.33,22.324-11.958,22.324-24.833c0-26.77-18.755-49.083-24.89-55.661
          C119.018,36.615,100.018,60.678,100.018,85.216z"/>
        <path fill="#7C98AF" d="M88.978,106.475C70.082,87.578,41.012,85.043,32.015,84.721c0.477,6.328,2.306,22.483,8.907,37.624
          c0.305,0.699,0.64,1.388,0.966,2.083c0.089,0.191,0.182,0.382,0.272,0.572c0.427,0.892,0.862,1.777,1.325,2.655
          c2.713,5.145,6.04,10.021,10.165,14.146c0.523,0.523,1.071,1.004,1.627,1.47c4.054,3.402,8.939,5.315,13.933,5.732
          c6.247,0.523,12.654-1.282,17.787-5.428l-9.57-9.57l-6.35-6.35l-2.626-2.626L68.422,125l-0.573-0.572l-2.083-2.083L48.21,104.789
          c-1.036-1.037-1.036-2.718,0-3.754c1.036-1.037,2.718-1.037,3.754,0l21.311,21.31l2.083,2.083L75.93,125l2.655,2.655
          l12.168,12.167c2.904-3.595,4.639-7.816,5.254-12.167c0.124-0.881,0.204-1.766,0.234-2.655c0.007-0.191,0.026-0.381,0.027-0.572
          c0.009-0.696-0.021-1.39-0.071-2.083C95.783,116.558,93.393,110.888,88.978,106.475z"/>
        <path fill="#7C98AF" d="M161.026,106.475c-4.413,4.413-6.805,10.083-7.218,15.87c-0.05,0.693-0.08,1.387-0.071,2.083
          c0.003,0.191,0.02,0.381,0.027,0.572c0.03,0.889,0.11,1.773,0.234,2.655c0.615,4.35,2.349,8.569,5.252,12.164l12.163-12.164
          l2.655-2.655l0.573-0.572l2.083-2.083l21.31-21.31c1.038-1.037,2.718-1.037,3.756,0c1.036,1.036,1.036,2.717,0,3.754
          l-17.557,17.556l-2.083,2.083L181.578,125l-0.027,0.026l-2.628,2.628l-6.349,6.349l-9.571,9.57
          c5.135,4.15,11.54,5.956,17.786,5.433c4.995-0.417,9.88-2.33,13.935-5.735c0.556-0.467,1.104-0.947,1.627-1.47
          c4.124-4.125,7.45-9.001,10.165-14.146c0.463-0.878,0.896-1.763,1.324-2.655c0.091-0.19,0.183-0.381,0.273-0.572
          c0.326-0.695,0.66-1.384,0.965-2.083c6.601-15.141,8.43-31.296,8.907-37.624C208.987,85.043,179.923,87.578,161.026,106.475z"/>
      </g>
      <path fill="#1C5A7D" d="M214.896,122.345c7.902-19.322,8.531-39.079,8.559-40.253c0.036-1.465-1.121-2.683-2.582-2.722
        c-1.656-0.044-39.499-0.75-63.601,23.35c-5.448,5.449-8.35,12.476-8.769,19.625h-20.845v-6.974
        c15.461-1.352,27.633-14.351,27.633-30.154c0-34.1-27.302-60.38-28.462-61.482c-1.058-1.003-2.733-0.964-3.75,0.096
        c-1.155,1.219-28.369,30.19-28.369,61.386c0,15.804,12.178,28.803,27.639,30.154v6.974h-20.844
        c-0.42-7.149-3.322-14.176-8.771-19.625c-24.102-24.102-61.9-23.387-63.605-23.35c-1.463,0.039-2.619,1.257-2.583,2.722
        c0.03,1.174,0.659,20.931,8.559,40.253H1.441v2.083v3.227h23.016l-1.101,2.074c-1.706,3.22-0.959,7.058,1.548,9.461
        c-3.395-0.734-6.999,0.797-8.715,4.017l-2.386,4.49c-1.684,3.179-1.005,6.988,1.432,9.396c-3.34-0.661-6.897,0.892-8.588,4.074
        l-0.836,1.572c1.585,5.013,3.497,9.879,5.676,14.597c2.759-0.081,5.434-1.568,6.834-4.193l2.39-4.493
        c1.69-3.182,1.011-6.993-1.427-9.402c3.33,0.661,6.902-0.894,8.593-4.078l2.385-4.49c1.703-3.212,0.961-7.042-1.533-9.447
        c0.55,0.118,1.105,0.201,1.657,0.201c2.852,0,5.611-1.538,7.042-4.232l1.244-2.344c0.539-1.016,0.823-2.094,0.899-3.172
        c2.798,4.999,6.196,9.744,10.323,13.87c0.851,0.851,1.748,1.623,2.671,2.351l-0.669,1.258c-1.623,3.054-1.058,6.689,1.147,9.109
        c-3.242-0.49-6.565,1.086-8.189,4.143l-2.349,4.418c-1.628,3.057-1.058,6.695,1.147,9.111c-3.215-0.492-6.571,1.082-8.193,4.144
        l-2.349,4.418c-1.624,3.054-1.058,6.689,1.145,9.108c-3.245-0.493-6.565,1.087-8.187,4.143l-1.142,2.149
        c3.251,4.338,6.796,8.44,10.574,12.315c0.905-0.679,1.717-1.503,2.283-2.568l2.349-4.418c1.623-3.054,1.058-6.689-1.147-9.109
        c3.221,0.465,6.561-1.089,8.189-4.143l2.349-4.418c1.628-3.057,1.058-6.695-1.147-9.111c3.174,0.469,6.565-1.082,8.193-4.144
        l2.349-4.418c1.623-3.054,1.058-6.689-1.145-9.108c3.23,0.467,6.565-1.089,8.187-4.143l1.344-2.527
        c1.331,0.177,2.666,0.297,4.007,0.297c6.925,0,13.84-2.37,19.449-7.075l31.588,31.587v31.959c0,1.468,1.188,2.655,2.655,2.655
        s2.655-1.187,2.655-2.655v-31.964l31.585-31.584c5.608,4.706,12.521,7.077,19.446,7.077c1.341,0,2.678-0.12,4.009-0.297
        l1.344,2.527c1.623,3.054,4.947,4.615,8.187,4.143c-2.204,2.419-2.769,6.054-1.147,9.108l2.349,4.418
        c1.628,3.062,5.005,4.618,8.195,4.144c-2.204,2.416-2.775,6.054-1.147,9.111l2.349,4.418c1.623,3.054,4.952,4.613,8.187,4.143
        c-2.203,2.42-2.769,6.054-1.145,9.109l2.349,4.418c0.566,1.065,1.378,1.89,2.283,2.569c3.777-3.875,7.321-7.977,10.574-12.315
        l-1.142-2.15c-1.624-3.057-4.952-4.631-8.189-4.143c2.204-2.419,2.769-6.054,1.147-9.108l-2.349-4.418
        c-1.628-3.062-5.019-4.633-8.193-4.144c2.203-2.416,2.773-6.054,1.145-9.111l-2.349-4.418c-1.623-3.057-4.962-4.631-8.187-4.143
        c2.203-2.42,2.769-6.054,1.147-9.109l-0.671-1.259c0.922-0.728,1.821-1.499,2.672-2.35c4.083-4.083,7.45-8.774,10.232-13.714
        c0.117,0.938,0.383,1.873,0.855,2.758l1.249,2.343c1.431,2.689,4.185,4.222,7.031,4.222c0.57,0,1.144-0.083,1.713-0.209
        c-2.53,2.403-3.29,6.262-1.573,9.493l2.396,4.504c1.701,3.202,5.264,4.763,8.659,4.058c-2.478,2.406-3.184,6.248-1.477,9.453
        l2.395,4.504c1.425,2.68,4.164,4.183,7.007,4.2c2.146-4.665,4.03-9.473,5.597-14.426l-0.936-1.76
        c-1.706-3.202-5.284-4.765-8.659-4.057c2.479-2.406,3.184-6.249,1.478-9.453l-2.396-4.504c-1.721-3.238-5.364-4.761-8.759-4.002
        c2.542-2.404,3.304-6.277,1.578-9.514l-0.958-1.794h23.021v-3.227v-2.083H214.896z M206.515,127.655
        c-2.715,5.145-6.04,10.021-10.165,14.146c-0.523,0.523-1.071,1.004-1.627,1.47c-4.054,3.405-8.939,5.317-13.935,5.735
        c-6.246,0.523-12.651-1.282-17.786-5.433l9.571-9.57l6.349-6.349l2.628-2.628l0.027-0.026l0.572-0.572l2.083-2.083l17.557-17.556
        c1.036-1.037,1.036-2.718,0-3.754c-1.038-1.037-2.718-1.037-3.756,0l-21.31,21.31l-2.083,2.083L174.068,125l-2.655,2.655
        l-12.163,12.164c-2.904-3.595-4.638-7.814-5.252-12.164c-0.124-0.881-0.204-1.766-0.234-2.655
        c-0.007-0.191-0.024-0.381-0.027-0.572c-0.009-0.696,0.021-1.39,0.071-2.083c0.413-5.787,2.805-11.457,7.218-15.87
        c18.897-18.897,47.961-21.432,56.958-21.754c-0.476,6.328-2.306,22.483-8.907,37.624c-0.305,0.699-0.639,1.388-0.965,2.083
        c-0.09,0.191-0.182,0.382-0.273,0.572C207.411,125.892,206.978,126.777,206.515,127.655z M69.21,149.003
        c-4.994-0.417-9.879-2.33-13.933-5.732c-0.556-0.466-1.104-0.947-1.627-1.47c-4.124-4.125-7.451-9.001-10.165-14.146
        c-0.463-0.878-0.898-1.763-1.325-2.655c-0.09-0.19-0.183-0.381-0.272-0.572c-0.326-0.695-0.662-1.384-0.966-2.083
        c-6.601-15.141-8.429-31.296-8.907-37.624c8.997,0.322,38.067,2.857,56.963,21.754c4.415,4.413,6.805,10.083,7.218,15.87
        c0.05,0.693,0.08,1.387,0.071,2.083c-0.001,0.191-0.02,0.381-0.027,0.572c-0.03,0.889-0.11,1.773-0.234,2.655
        c-0.615,4.351-2.35,8.572-5.254,12.167l-12.168-12.167L75.93,125l-0.572-0.572l-2.083-2.083l-21.311-21.31
        c-1.036-1.037-2.718-1.037-3.754,0c-1.036,1.036-1.036,2.717,0,3.754l17.556,17.556l2.083,2.083L68.422,125l0.029,0.029
        l2.626,2.626l6.35,6.35l9.57,9.57C81.863,147.721,75.457,149.525,69.21,149.003z M127.657,110.05V55.2
        c0-1.468-1.188-2.655-2.655-2.655s-2.655,1.187-2.655,2.655v54.85c-12.534-1.33-22.329-11.958-22.329-24.834
        c0-24.538,19-48.602,25.073-55.661c6.135,6.578,24.89,28.891,24.89,55.661C149.981,98.092,140.186,108.719,127.657,110.05z
         M94.514,143.583c3.906-4.655,6.185-10.211,6.848-15.928h20.985v43.761L94.514,143.583z M127.657,171.411v-43.756h20.985
        c0.663,5.716,2.941,11.271,6.845,15.926L127.657,171.411z"/>
    </g>
  </g>
</svg>
