<?xml version="1.0" encoding="utf-8"?>
<!-- Generator: Adobe Illustrator 19.1.0, SVG Export Plug-In . SVG Version: 6.00 Build 0)  -->
<svg version="1.1" xmlns="http://www.w3.org/2000/svg" xmlns:xlink="http://www.w3.org/1999/xlink" x="0px" y="0px"
	 viewBox="0 0 250 249.999" enable-background="new 0 0 250 249.999" xml:space="preserve">
<g id="bottom">
	<g>
		<g>
			<path fill="#D1E9E7" d="M122.342,39.534L100.877,2.349C44.23,13.428,1.315,62.753,0.068,122.344h79.619V95.993V71.282
				c0-9.701,21.04-14.945,42.656-15.344V39.534z"/>
			<path fill="#D1E9E7" d="M249.984,124.427c-0.272-60.524-43.554-110.87-100.861-122.078l-21.47,37.185v16.404
				c21.621,0.399,42.661,5.643,42.661,15.344v24.711v26.351h78.955v2.083H249.984z"/>
			<path fill="#D1E9E7" d="M164.214,79.39c-0.697,0.404-1.45,0.793-2.257,1.168c-0.806,0.374-1.66,0.733-2.557,1.074
				c-0.169,0.064-0.34,0.128-0.511,0.191c-1.808,0.662-3.779,1.259-5.887,1.787c-0.172,0.043-0.347,0.085-0.52,0.128
				c-1.044,0.254-2.116,0.496-3.23,0.719c-0.008,0.001-0.017,0.004-0.025,0.005c-2.38,0.478-4.911,0.879-7.557,1.208
				c-0.052,0.006-0.104,0.013-0.156,0.02c-2.512,0.307-5.125,0.545-7.82,0.709c-0.262,0.016-0.524,0.028-0.788,0.043
				c-0.976,0.054-1.96,0.097-2.955,0.13c-0.397,0.014-0.793,0.028-1.192,0.039c-1.016,0.026-2.039,0.04-3.07,0.045
				c-0.23,0.001-0.459,0.011-0.689,0.011c-0.231,0-0.461-0.009-0.69-0.011c-1.03-0.005-2.054-0.019-3.069-0.045
				c-0.399-0.011-0.795-0.025-1.192-0.039c-0.995-0.034-1.978-0.077-2.953-0.13c-0.263-0.015-0.527-0.027-0.789-0.043
				c-2.694-0.163-5.304-0.402-7.815-0.709c-0.056-0.007-0.111-0.014-0.166-0.021c-2.642-0.327-5.17-0.728-7.547-1.205
				c-0.013-0.002-0.025-0.006-0.038-0.008c-1.108-0.223-2.174-0.463-3.213-0.716c-0.178-0.044-0.356-0.086-0.533-0.13
				c-2.104-0.527-4.072-1.123-5.877-1.784c-0.175-0.064-0.347-0.129-0.519-0.194c-0.893-0.34-1.746-0.697-2.549-1.07
				c-0.809-0.376-1.564-0.766-2.262-1.17c-0.085-0.049-0.166-0.099-0.249-0.148c-0.18-0.107-0.369-0.213-0.541-0.321v17.072
				c0,4.009,15.956,10.071,40.002,10.071c24.05,0,40.006-6.062,40.006-10.071V78.921c-0.172,0.108-0.362,0.214-0.541,0.321
				C164.38,79.292,164.298,79.341,164.214,79.39z"/>
			<path fill="#D1E9E7" d="M84.997,150.984v27.733c0,4.009,15.956,10.071,40.002,10.071c24.05,0,40.006-6.062,40.006-10.071v-27.733
				c-8.037,5.126-24.069,7.785-40.006,7.785C109.065,158.769,93.033,156.111,84.997,150.984z"/>
			<path fill="#D1E9E7" d="M163.028,68.627c-4.702-3.417-17.627-7.04-35.374-7.376v5.297c7.672,0.137,14.898,0.862,21.129,2.079
				c3.688,0.72,7.013,1.615,9.894,2.655c1.849,0.666,3.52,1.391,4.961,2.173c0.874-0.756,1.367-1.495,1.367-2.173
				C165.004,70.46,164.3,69.551,163.028,68.627z"/>
			<path fill="#D1E9E7" d="M84.997,71.282c0,0.678,0.492,1.418,1.367,2.173c1.441-0.783,3.113-1.507,4.961-2.173
				c2.882-1.039,6.208-1.935,9.894-2.655c6.231-1.217,13.456-1.942,21.123-2.079v-5.297c-17.744,0.337-30.667,3.959-35.37,7.376
				C85.7,69.551,84.997,70.46,84.997,71.282z"/>
		</g>
		<g>
			<path fill="#91CDC8" d="M0.001,125.048v-0.049v-0.049c0,0.016-0.001,0.032-0.001,0.049S0.001,125.032,0.001,125.048z"/>
			<path fill="#91CDC8" d="M249.984,124.427h-0.716v0.573v2.654h-53.064l1.281,2.479c0.674,1.304,0.161,2.903-1.141,3.578
				c-0.389,0.199-0.803,0.296-1.219,0.296c-0.958,0-1.887-0.523-2.359-1.437l-2.438-4.719c-0.032-0.063-0.028-0.132-0.056-0.197
				h-19.959v15.734v35.331c0,10.097-22.796,15.381-45.315,15.381c-22.517,0-45.312-5.284-45.312-15.381v-35.331v-15.734H61.242
				c-0.031,0.073-0.028,0.152-0.068,0.223l-2.488,4.688c-0.476,0.9-1.395,1.41-2.343,1.41c-0.421,0-0.851-0.099-1.246-0.311
				c-1.296-0.687-1.788-2.295-1.099-3.588l1.286-2.422H0.068c0.506,24.236,7.896,46.769,20.314,65.728
				c0.023-0.049,0.02-0.101,0.045-0.149l2.49-4.691c0.689-1.298,2.307-1.791,3.587-1.102c1.296,0.69,1.789,2.295,1.099,3.592
				l-2.488,4.69c-0.449,0.849-1.295,1.335-2.187,1.389C45.567,229.097,82.831,249.999,125,249.999
				c42.624,0,80.244-21.351,102.806-53.923c-0.193,0.044-0.382,0.14-0.576,0.14c-0.96,0-1.887-0.524-2.359-1.439l-2.432-4.719
				c-0.675-1.304-0.162-2.903,1.14-3.575c1.308-0.669,2.91-0.161,3.579,1.144l2.432,4.718c0.124,0.24,0.166,0.495,0.213,0.747
				C242.56,173.498,250,150.124,250,124.999C250,124.808,249.986,124.619,249.984,124.427z M36.482,174.331l-4.439,8.351
				c-0.478,0.897-1.395,1.408-2.345,1.408c-0.426,0-0.85-0.099-1.244-0.311c-1.296-0.687-1.789-2.295-1.099-3.591l4.439-8.351
				c0.689-1.299,2.318-1.782,3.589-1.097C36.679,171.427,37.171,173.035,36.482,174.331z M45.364,157.626l-4.439,8.351
				c-0.478,0.898-1.395,1.408-2.345,1.408c-0.426,0-0.85-0.099-1.244-0.311c-1.296-0.687-1.789-2.295-1.099-3.591l4.439-8.351
				c0.689-1.296,2.318-1.775,3.589-1.096C45.562,154.722,46.053,156.33,45.364,157.626z M54.247,140.921l-4.444,8.354
				c-0.478,0.897-1.395,1.408-2.343,1.408c-0.426,0-0.851-0.098-1.246-0.311c-1.296-0.69-1.788-2.297-1.099-3.591l4.444-8.354
				c0.689-1.297,2.318-1.779,3.589-1.097C54.444,138.02,54.936,139.627,54.247,140.921z M203.6,150.431
				c-0.96,0-1.888-0.523-2.36-1.439l-4.236-8.214c-0.675-1.301-0.161-2.903,1.14-3.575c1.302-0.664,2.904-0.163,3.578,1.143
				l4.237,8.214c0.675,1.301,0.161,2.904-1.14,3.575C204.43,150.335,204.01,150.431,203.6,150.431z M213.296,166.56
				c-0.389,0.2-0.809,0.296-1.217,0.296c-0.96,0-1.888-0.524-2.36-1.439l-4.236-8.214c-0.675-1.301-0.162-2.904,1.14-3.575
				c1.308-0.661,2.904-0.161,3.579,1.143l4.236,8.214C215.112,164.287,214.597,165.889,213.296,166.56z M221.775,182.988
				c-0.389,0.199-0.809,0.295-1.219,0.295c-0.96,0-1.888-0.523-2.36-1.439l-4.236-8.214c-0.675-1.301-0.161-2.904,1.14-3.575
				c1.302-0.661,2.904-0.161,3.578,1.143l4.237,8.214C223.59,180.714,223.076,182.316,221.775,182.988z"/>
			<path fill="#91CDC8" d="M124.999,153.459c24.05,0,40.006-6.062,40.006-10.073v-18.96v-20.798
				c-16.101,10.216-63.906,10.218-80.007,0v20.798v18.96C84.997,147.397,100.953,153.459,124.999,153.459z"/>
		</g>
		<g>
			<path fill="#5AB7B2" d="M170.314,122.344V95.993V71.282c0-9.701-21.04-14.945-42.661-15.344V39.534l21.47-37.185
				c-0.92-0.18-1.849-0.337-2.777-0.496c-0.93-0.161-1.856-0.335-2.793-0.474C137.498,0.478,131.305,0,125,0
				s-12.498,0.478-18.553,1.379c-0.937,0.139-1.863,0.314-2.793,0.474c-0.929,0.159-1.857,0.316-2.777,0.496l21.466,37.185v16.404
				c-21.616,0.399-42.656,5.643-42.656,15.344v24.711v26.351H0.068H0.001v2.607v0.049v0.049v2.605h0.066h55.217l-1.286,2.422
				c-0.689,1.294-0.197,2.901,1.099,3.588c0.395,0.213,0.824,0.311,1.246,0.311c0.948,0,1.867-0.511,2.343-1.41l2.488-4.688
				c0.039-0.071,0.037-0.15,0.068-0.223h18.445v15.734v35.331c0,10.097,22.796,15.381,45.312,15.381
				c22.52,0,45.315-5.284,45.315-15.381v-35.331v-15.734h19.959c0.028,0.065,0.024,0.134,0.056,0.197l2.438,4.719
				c0.472,0.913,1.401,1.437,2.359,1.437c0.416,0,0.83-0.097,1.219-0.296c1.302-0.674,1.815-2.274,1.141-3.578l-1.281-2.479h53.064
				v-2.654v-0.573v-2.083H170.314z M165.004,178.717c0,4.009-15.956,10.071-40.006,10.071c-24.046,0-40.002-6.062-40.002-10.071
				v-27.733c8.036,5.126,24.068,7.785,40.002,7.785c15.936,0,31.969-2.659,40.006-7.785V178.717z M86.972,68.627
				c4.703-3.417,17.626-7.04,35.37-7.376v5.297c-7.667,0.137-14.892,0.862-21.123,2.079c-3.686,0.72-7.013,1.615-9.894,2.655
				c-1.849,0.666-3.52,1.391-4.961,2.173c-0.875-0.756-1.367-1.495-1.367-2.173C84.997,70.46,85.7,69.551,86.972,68.627z
				 M165.004,71.282c0,0.678-0.493,1.418-1.367,2.173c-1.441-0.783-3.113-1.507-4.961-2.173c-2.882-1.039-6.207-1.935-9.894-2.655
				c-6.231-1.217-13.456-1.942-21.129-2.079v-5.297c17.747,0.337,30.672,3.959,35.374,7.376
				C164.3,69.551,165.004,70.46,165.004,71.282z M84.997,78.921c0.172,0.108,0.361,0.214,0.541,0.321
				c0.083,0.049,0.165,0.099,0.249,0.148c0.702,0.407,1.458,0.797,2.262,1.17c0.799,0.371,1.649,0.728,2.549,1.07
				c0.172,0.065,0.344,0.13,0.519,0.194c1.805,0.661,3.773,1.257,5.877,1.784c0.176,0.044,0.355,0.087,0.533,0.13
				c1.038,0.253,2.105,0.493,3.213,0.716c0.013,0.002,0.025,0.006,0.038,0.008c2.377,0.477,4.905,0.879,7.547,1.205
				c0.055,0.007,0.11,0.014,0.166,0.021c2.511,0.307,5.121,0.546,7.815,0.709c0.262,0.016,0.526,0.028,0.789,0.043
				c0.975,0.053,1.959,0.097,2.953,0.13c0.397,0.014,0.793,0.028,1.192,0.039c1.015,0.026,2.039,0.04,3.069,0.045
				c0.23,0.001,0.459,0.011,0.69,0.011c0.23,0,0.459-0.009,0.689-0.011c1.031-0.005,2.054-0.019,3.07-0.045
				c0.399-0.011,0.795-0.025,1.192-0.039c0.995-0.034,1.978-0.077,2.955-0.13c0.263-0.015,0.526-0.027,0.788-0.043
				c2.696-0.163,5.308-0.402,7.82-0.709c0.052-0.007,0.104-0.013,0.156-0.02c2.646-0.328,5.177-0.73,7.557-1.208
				c0.008-0.001,0.017-0.004,0.025-0.005c1.113-0.223,2.185-0.466,3.23-0.719c0.173-0.042,0.348-0.085,0.52-0.128
				c2.108-0.528,4.079-1.124,5.887-1.787c0.172-0.063,0.342-0.127,0.511-0.191c0.903-0.343,1.756-0.702,2.557-1.074
				c0.802-0.373,1.557-0.762,2.257-1.168c0.085-0.049,0.166-0.099,0.249-0.148c0.179-0.107,0.369-0.213,0.541-0.321v17.072
				c0,4.009-15.956,10.071-40.006,10.071c-24.046,0-40.002-6.062-40.002-10.071V78.921z M165.004,143.387
				c0,4.01-15.956,10.073-40.006,10.073c-24.046,0-40.002-6.062-40.002-10.073v-18.96v-20.798c16.101,10.218,63.906,10.216,80.007,0
				v20.798V143.387z"/>
			<path fill="#5AB7B2" d="M214.437,162.985l-4.236-8.214c-0.675-1.304-2.271-1.804-3.579-1.143
				c-1.302,0.671-1.815,2.274-1.14,3.575l4.236,8.214c0.472,0.914,1.401,1.439,2.36,1.439c0.409,0,0.829-0.096,1.217-0.296
				C214.597,165.889,215.112,164.287,214.437,162.985z"/>
			<path fill="#5AB7B2" d="M205.959,146.56l-4.237-8.214c-0.674-1.307-2.276-1.807-3.578-1.143c-1.301,0.672-1.815,2.274-1.14,3.575
				l4.236,8.214c0.472,0.915,1.401,1.439,2.36,1.439c0.41,0,0.83-0.096,1.219-0.295C206.119,149.464,206.633,147.861,205.959,146.56
				z"/>
			<path fill="#5AB7B2" d="M222.915,179.413l-4.237-8.214c-0.674-1.304-2.276-1.804-3.578-1.143
				c-1.301,0.671-1.815,2.274-1.14,3.575l4.236,8.214c0.472,0.915,1.401,1.439,2.36,1.439c0.41,0,0.83-0.096,1.219-0.295
				C223.076,182.316,223.59,180.714,222.915,179.413z"/>
			<path fill="#5AB7B2" d="M229.59,192.345l-2.432-4.718c-0.669-1.305-2.271-1.813-3.579-1.144c-1.302,0.672-1.815,2.271-1.14,3.575
				l2.432,4.719c0.472,0.915,1.399,1.439,2.359,1.439c0.194,0,0.383-0.097,0.576-0.14c0.217-0.049,0.437-0.049,0.643-0.156
				c1.061-0.547,1.558-1.709,1.354-2.828C229.756,192.84,229.714,192.585,229.59,192.345z"/>
			<path fill="#5AB7B2" d="M26.504,187.439c-1.281-0.689-2.898-0.197-3.587,1.102l-2.49,4.691c-0.025,0.048-0.023,0.101-0.045,0.149
				c-0.579,1.269-0.104,2.777,1.144,3.442c0.395,0.21,0.824,0.309,1.246,0.309c0.054,0,0.104-0.018,0.156-0.021
				c0.892-0.054,1.737-0.54,2.187-1.389l2.488-4.69C28.294,189.734,27.801,188.129,26.504,187.439z"/>
			<path fill="#5AB7B2" d="M35.383,170.74c-1.271-0.685-2.9-0.202-3.589,1.097l-4.439,8.351c-0.69,1.296-0.197,2.904,1.099,3.591
				c0.395,0.213,0.819,0.311,1.244,0.311c0.95,0,1.867-0.511,2.345-1.408l4.439-8.351C37.171,173.035,36.679,171.427,35.383,170.74z
				"/>
			<path fill="#5AB7B2" d="M53.148,137.33c-1.271-0.682-2.9-0.2-3.589,1.097l-4.444,8.354c-0.689,1.294-0.197,2.901,1.099,3.591
				c0.395,0.213,0.82,0.311,1.246,0.311c0.948,0,1.866-0.511,2.343-1.408l4.444-8.354C54.936,139.627,54.444,138.02,53.148,137.33z"
				/>
			<path fill="#5AB7B2" d="M44.265,154.035c-1.271-0.679-2.9-0.2-3.589,1.096l-4.439,8.351c-0.69,1.296-0.197,2.904,1.099,3.591
				c0.395,0.213,0.819,0.311,1.244,0.311c0.95,0,1.867-0.511,2.345-1.408l4.439-8.351C46.053,156.33,45.562,154.722,44.265,154.035z
				"/>
		</g>
	</g>
</g>
<g id="pie_layer" display="none">
</g>
<g id="Pie_Layer_2" display="none">
</g>
<g id="meals_saved" display="none">
</g>
<g id="consumer_ed_hover" display="none">
</g>
<g id="pop_up" display="none">
</g>
<g id="Layer_9">
</g>
<g id="Layer_2" display="none">
</g>
<g id="Layer_8">
</g>
<g id="Layer_10">
</g>
</svg>
