<svg xmlns="http://www.w3.org/2000/svg" viewBox="0 0 300 300"><defs><style>.cls-1{fill:#009dde;}.cls-2{fill:#fff;}</style></defs><g id="Layer_2" data-name="Layer 2"><g id="Layer_1-2" data-name="Layer 1"><g id="Ellipse_287" data-name="Ellipse 287"><g id="Ellipse_406" data-name="Ellipse 406"><circle class="cls-1" cx="150" cy="150" r="150"/></g></g><path class="cls-2" d="M186.61,165.42H225.4v-3.66a44.89,44.89,0,0,0-30-42.32,25.73,25.73,0,1,0-29.85,0A45,45,0,0,0,140,142.49a45.41,45.41,0,0,0-5.65-2.44,25.73,25.73,0,0,0,10.83-21h0a25.73,25.73,0,1,0-40.65,21A44.88,44.88,0,0,0,74.6,182.37V186h62.22a44.85,44.85,0,0,0-20.28,37.54v3.67h89.73v-3.67a44.86,44.86,0,0,0-30-42.32A25.71,25.71,0,0,0,186.61,165.42Zm-24.5-66.93a18.42,18.42,0,0,1,18.42-18.42h0A18.44,18.44,0,0,1,199,98.49h0a18.41,18.41,0,0,1-18.07,18.41h-.69A18.42,18.42,0,0,1,162.11,98.49Zm14.74,25.93a37.55,37.55,0,0,1,41.06,33.68H187a25.72,25.72,0,0,0-33.61-22.27A37.43,37.43,0,0,1,176.85,124.42Zm-75.8-5.33a18.41,18.41,0,0,1,18.41-18.41h0a18.42,18.42,0,1,1-18.41,18.42Zm-12.72,42.3a37.49,37.49,0,0,1,31-16.57h.2a37.4,37.4,0,0,1,17.84,4.56,44.32,44.32,0,0,0-1.34,6.44,26.38,26.38,0,0,0-.39,4.48c0,.19,0,.38,0,.58s0,.58,0,.88h0a25.63,25.63,0,0,0,7.73,17H82.09A37.58,37.58,0,0,1,88.33,161.39Zm110.45,58.54H124a37.55,37.55,0,0,1,74.75,0Zm-37.37-41.24h-.36A18.41,18.41,0,0,1,143,161a36.93,36.93,0,0,1,.32-4.23,18.41,18.41,0,1,1,18.42,21.92Z"/></g></g></svg>