<svg xmlns="http://www.w3.org/2000/svg" viewBox="0 0 600 600"><defs><style>.cls-1{fill:#fff;}.cls-2{fill:#006995;}</style></defs><g id="Layer_2" data-name="Layer 2"><g id="Layer_1-2" data-name="Layer 1"><g id="Line_655" data-name="Line 655"><rect class="cls-1" x="256.07" y="253.64" width="114.71" height="11.96"/></g><g id="Line_656" data-name="Line 656"><rect class="cls-1" x="256.07" y="306.22" width="114.71" height="11.96"/></g><g id="Line_657" data-name="Line 657"><rect class="cls-1" x="256.07" y="358.79" width="114.71" height="11.96"/></g><g id="Rectangle_1248" data-name="Rectangle 1248"><path class="cls-1" d="M362.42,208.25H271.6v-55h90.82Zm-78.86-12h66.9V165.23h-66.9Z"/></g><g id="Ellipse_285" data-name="Ellipse 285"><g id="Ellipse_404" data-name="Ellipse 404"><circle class="cls-2" cx="300" cy="300" r="300"/></g></g><g id="Group_1155" data-name="Group 1155"><g id="Path_1310" data-name="Path 1310"><path class="cls-1" d="M418.39,464.88H194.29V154h66.8V168.5H208.75V450.43H403.93V168.5H348.16V154h70.23Z"/></g></g><g id="Group_1156" data-name="Group 1156"><g id="Rectangle_1285" data-name="Rectangle 1285"><rect class="cls-1" x="244.89" y="234.77" width="115.66" height="12.06"/></g></g><g id="Group_1157" data-name="Group 1157"><g id="Rectangle_1286" data-name="Rectangle 1286"><rect class="cls-1" x="244.89" y="287.77" width="115.66" height="12.06"/></g></g><g id="Group_1158" data-name="Group 1158"><g id="Rectangle_1287" data-name="Rectangle 1287"><rect class="cls-1" x="244.89" y="340.79" width="115.66" height="12.06"/></g></g><g id="Group_1159" data-name="Group 1159"><g id="Rectangle_1288" data-name="Rectangle 1288"><rect class="cls-1" x="244.89" y="393.8" width="115.66" height="12.06"/></g></g><g id="Group_1160" data-name="Group 1160"><g id="Path_1311" data-name="Path 1311"><path class="cls-1" d="M352.12,189H260.55V133.57h91.57ZM272.61,177h67.45V145.63H272.61Z"/></g></g></g></g></svg>