<svg xmlns="http://www.w3.org/2000/svg" viewBox="0 0 600 600"><defs><style>.cls-1{fill:#003a52;}.cls-2{fill:#fff;}</style></defs><g id="Layer_2" data-name="Layer 2"><g id="Layer_1-2" data-name="Layer 1"><g id="Ellipse_283" data-name="Ellipse 283"><g id="Ellipse_402" data-name="Ellipse 402"><circle class="cls-1" cx="300" cy="300" r="300"/></g></g><g id="Group_1149" data-name="Group 1149"><g id="Group_1148" data-name="Group 1148"><g id="Group_1147" data-name="Group 1147"><g id="Group_1142" data-name="Group 1142"><g id="Path_1303" data-name="Path 1303"><path class="cls-2" d="M299.65,284.47l-5-4.89a114.81,114.81,0,0,1,0-164l5-4.9,5,4.9a114.81,114.81,0,0,1,0,164Zm0-153.48a100.61,100.61,0,0,0,0,133.18,100.57,100.57,0,0,0,0-133.17Z"/></g></g><g id="Group_1143" data-name="Group 1143"><g id="Path_1304" data-name="Path 1304"><path class="cls-2" d="M317.12,348.23c-1.85,0-3.7-.05-5.55-.13l-7-.32.19-7A114.8,114.8,0,0,1,425,229.18l7,.32-.2,7a114.8,114.8,0,0,1-114.7,111.72Zm99.94-104.84A100.5,100.5,0,0,0,319.49,334a100.49,100.49,0,0,0,97.57-90.59Z"/></g></g><g id="Group_1144" data-name="Group 1144"><g id="Path_1305" data-name="Path 1305"><path class="cls-2" d="M282.89,348.23A114.8,114.8,0,0,1,168.2,236.51l-.19-7,7-.33A114.82,114.82,0,0,1,295.27,340.76l.2,7-7,.33C286.59,348.17,284.73,348.23,282.89,348.23ZM182.94,243.39A100.56,100.56,0,0,0,280.53,334a99.72,99.72,0,0,0-31.66-63.76h0a99.72,99.72,0,0,0-65.93-26.84Z"/></g></g><g id="Group_1145" data-name="Group 1145"><g id="Path_1306" data-name="Path 1306"><path class="cls-2" d="M317.1,454.19c-1.84,0-3.69,0-5.53-.12l-7-.33.19-7A114.8,114.8,0,0,1,425,335.14l7,.32-.2,7A114.78,114.78,0,0,1,317.1,454.19Zm100-104.84a99.75,99.75,0,0,0-65.93,26.81h0a99.67,99.67,0,0,0-31.64,63.75,100.49,100.49,0,0,0,97.57-90.59Z"/></g></g><g id="Group_1146" data-name="Group 1146"><g id="Path_1307" data-name="Path 1307"><path class="cls-2" d="M282.91,454.19A114.82,114.82,0,0,1,168.2,342.46l-.19-7,7-.33a114.46,114.46,0,0,1,83.59,30.54h0a114,114,0,0,1,36.65,81l.2,7-7,.32C286.6,454.15,284.75,454.19,282.91,454.19Zm-100-104.85a100.54,100.54,0,0,0,97.59,90.57,99.74,99.74,0,0,0-31.66-63.75h0a99.74,99.74,0,0,0-65.93-26.84Z"/></g></g></g></g></g></g></g></svg>