<?xml version="1.0" encoding="utf-8"?>
<!-- Generator: Adobe Illustrator 20.1.0, SVG Export Plug-In . SVG Version: 6.00 Build 0)  -->
<svg version="1.1" id="Layer_1" xmlns="http://www.w3.org/2000/svg" xmlns:xlink="http://www.w3.org/1999/xlink" x="0px" y="0px"
	 viewBox="0 0 900 900" enable-background="new 0 0 900 900" xml:space="preserve">
<g>
	<g>
		<path id="CT_19_" fill="#67A9A8" stroke="#F7F4EE" stroke-linecap="round" stroke-linejoin="round" stroke-miterlimit="10" d="
			M824.128,333.805l-0.886-3.875l-0.741-4.023l-1.483-5.513l-4.745,1.043l-20.022,4.395l0.593,3.054l1.334,6.704v7.449l-1.039,2.086
			l1.681,1.944l4.545-3.134l3.262-2.979l1.78-1.936l0.741,0.595l2.521-1.341l4.745-1.043L824.128,333.805z"/>
		<path id="AK_19_" fill="#67A9A8" stroke="#F7F4EE" stroke-linecap="round" stroke-linejoin="round" stroke-miterlimit="10" d="
			M166.919,586.184l-0.295,78.665l1.483,0.895l2.816,0.147l1.334-1.044h2.373l0.148,2.682l6.377,6.258l0.445,2.382l3.115-1.791
			l0.592-0.146l0.296-2.831l1.335-1.489l1.038-0.149l1.779-1.34l2.818,1.936l0.592,2.682l1.779,1.044l1.038,2.235l3.561,1.634
			l3.114,5.513l2.52,3.575l2.076,2.534l1.333,3.425l4.596,1.639l4.746,1.938l0.887,4.022l0.447,2.831l-0.889,3.13l-1.631,2.085
			l-1.483-0.744l-1.335-2.831l-2.52-1.342l-1.632-1.044l-0.741,0.746l1.334,2.538l0.146,3.427l-1.038,0.447l-1.779-1.789
			l-1.928-1.196l0.446,1.489l1.185,1.639l-0.74,0.744c0,0-0.742-0.297-1.187-0.893s-1.929-3.129-1.929-3.129l-0.887-2.085
			c0,0-0.296,1.193-0.888,0.893c-0.594-0.297-1.187-1.34-1.187-1.34l1.633-1.789l-1.335-1.342v-4.624h-0.742l-0.742,3.13
			l-1.038,0.447l-0.89-3.425l-0.592-3.427l-0.742-0.447l0.297,5.214v1.044l-1.335-1.193l-3.263-5.511l-1.928-0.451l-0.592-3.425
			l-1.482-2.682l-1.482-1.044v-2.079l1.928-1.193l-0.446-0.297l-2.374,0.596l-3.114-2.235l-2.373-2.682l-4.449-2.382L171.813,672
			l1.187-2.978v-1.491l-1.633,1.491l-2.668,1.044l-3.41-1.044l-5.19-2.233h-5.042l-0.592,0.447l-5.931-3.577l-1.926-0.294
			l-2.521-5.367l-3.263,0.297l-3.261,1.342l0.445,4.171l1.04-2.682l0.887,0.297l-1.335,4.022l2.967-2.532l0.594,1.489l-3.562,4.024
			l-1.186-0.297l-0.446-1.791l-1.185-0.744l-1.188,1.044l-2.519-1.639l-2.817,1.936l-1.633,1.938l-3.114,1.936l-4.3-0.149
			l-0.445-1.936l3.409-0.596v-1.193l-2.075-0.596l0.888-2.233l2.075-3.577v-1.639l0.148-0.744l4.002-2.087l0.89,1.193h2.52
			l-1.186-2.381l-3.409-0.299l-4.597,2.538l-2.224,3.129l-1.631,2.382l-1.038,2.085l-3.857,1.342l-2.815,2.381l-0.297,1.489
			l2.076,0.893l0.742,1.938l-2.521,2.978l-5.931,3.874l-7.117,3.874l-1.927,1.044l-4.896,1.043l-4.894,2.086l1.634,1.196
			l-1.336,1.34l-0.446,1.043l-2.521-0.895l-2.966,0.149l-0.741,2.085h-0.889l0.296-2.235l-3.262,1.196L73.2,692.42l-3.114-1.191
			l-2.668,1.791h-2.968l-1.928,1.193l-1.481,0.746l-1.929-0.299l-2.374-1.043l-2.074,0.596l-0.889,0.893l-1.483-1.044v-1.787
			l2.817-1.194l5.784,0.598l4.002-1.491l1.928-1.938l2.669-0.596l1.633-0.746l2.521,0.149l1.481,1.194l0.889-0.297l2.075-2.534
			l2.817-0.893l3.114-0.596l1.186-0.297l0.594,0.451h0.741l1.186-3.427l3.708-1.344l1.78-3.427l2.075-4.171l1.482-1.342l0.297-2.381
			l-1.483,1.193l-3.114,0.596l-0.593-2.233l-1.187-0.297l-0.888,0.893l-0.148,2.682l-1.334-0.149l-1.333-5.364l-1.188,1.193
			l-1.038-0.447l-0.295-1.791l-3.709,0.149l-1.929,1.044l-2.373-0.297l1.335-1.342l0.445-2.382l-0.593-1.789l1.335-0.893
			l1.186-0.149l-0.593-1.637v-4.024l-0.889-0.893l-0.741,1.34h-5.634l-1.333-1.191l-0.592-3.577l-1.929-3.278v-0.893l1.929-0.746
			l0.146-1.936l1.04-1.043l-0.742-0.449l-1.187,0.449l-1.038-2.536l0.888-4.618l4.152-2.978l2.375-1.491l1.779-3.425l2.52-1.193
			l2.373,1.044l0.295,2.231l2.224-0.294l2.967-2.235l1.482,0.596l0.889,0.596h1.481l2.076-1.193l0.743-4.033
			c0,0,0.295-2.684,0.89-3.13c0.592-0.449,0.887-0.895,0.887-0.895l-1.038-1.787l-2.374,0.744l-2.967,0.746l-1.779-0.447
			l-3.263-1.639l-4.597-0.149l-3.261-3.427l0.446-3.575l0.592-2.233l-1.928-1.639l-1.781-3.427l0.447-0.744l6.228-0.447h1.928
			l0.888,0.891h0.594l-0.148-1.489l3.56-0.596l2.372,0.297l1.334,1.043l-1.334,1.94l-0.445,1.34l2.521,1.489l4.596,1.637
			l1.633-0.893l-2.075-4.022l-0.889-2.978l0.889-0.746l-3.114-1.789l-0.446-1.043l0.446-1.491l-0.742-3.575l-2.669-4.32
			l-2.224-3.874l2.669-1.792h2.967l1.631,0.602l3.856-0.147l3.41-3.278l1.038-2.831l3.41-2.235l1.482,0.893l2.519-0.596l3.41-1.942
			l1.039-0.144l0.888,0.74l4.152-0.144l2.521-2.831h1.039l3.263,2.235l1.779,1.938l-0.446,1.043l0.592,1.043l1.483-1.489l3.56,0.297
			l0.295,3.427l1.78,1.34l6.524,0.596l5.783,3.874l1.334-0.893l4.745,2.382l1.927-0.596l1.779-0.744l4.45,1.787l4.003,2.684v-0.002
			h0.007v-0.01H166.919z M61.338,612.854l1.928,4.917l-0.148,0.893l-2.669-0.297l-1.632-3.724l-1.633-1.342H54.96l-0.148-2.381
			l1.631-2.235l1.04,2.235l1.334,1.34L61.338,612.854z M58.964,643.694l3.41,0.746l3.41,0.893l0.742,0.895l-1.483,3.425
			l-2.817-0.147l-3.114-3.278L58.964,643.694z M39.985,630.732l1.039,2.384l1.038,1.489l-1.038,0.746l-1.928-2.831v-1.789
			L39.985,630.732L39.985,630.732z M27.381,698.074l3.115-2.085l3.114-0.895l2.373,0.299l0.445,1.489l1.78,0.447l1.78-1.787
			l-0.297-1.491l2.521-0.596l2.669,2.381l-1.039,1.639l-4.004,1.043l-2.521-0.449l-3.409-1.043l-4.004,1.34l-1.481,0.297
			L27.381,698.074z M72.311,693.903l1.482,1.787l1.928-1.489l-1.334-1.193L72.311,693.903z M74.98,696.732l1.038-2.085l1.929,0.299
			l-0.742,1.787H74.98z M96.63,694.946l1.334,1.639l0.89-1.043l-0.742-1.792L96.63,694.946z M104.637,683.473l1.04,5.364
			l2.669,0.746l4.595-2.682l4.003-2.384l-1.482-2.235l0.446-2.235l-1.928,1.198l-2.669-0.746l1.481-1.044l1.781,0.746l3.56-1.639
			l0.445-1.342l-2.224-0.742l0.742-1.791l-2.52,1.791l-4.3,3.278l-4.45,2.682L104.637,683.473z M143.489,665.149l2.224-1.342
			l-0.889-1.639l-1.631,0.895L143.489,665.149z"/>
		<path id="WY_19_" fill="#67A9A8" stroke="#F7F4EE" stroke-linecap="round" stroke-linejoin="round" stroke-miterlimit="10" d="
			M347.748,300.73l-10.56-0.892l-29.433-3.037l-14.89-1.897l-26.004-3.792l-18.247-2.739l-1.301,10.3l-3.523,22.358l-4.823,28.022
			l-1.403,9.691l-1.531,10.957l5.984,0.855l15.491,2.106l8.101,1.084l18.868,2.274l34.182,3.793l22.44,1.897l3.985-40.876
			l1.471-23.387L347.748,300.73z"/>
		<path id="AZ_19_" fill="#67A9A8" stroke="#F7F4EE" stroke-linecap="round" stroke-linejoin="round" stroke-miterlimit="10" d="
			M148.272,525.198l-2.412,1.989l-0.295,1.34l0.446,0.895l17.348,9.827l11.123,7.002l13.493,7.895l15.422,9.237l11.27,2.235
			l24.521,3.232l1.88-12.265l3.442-24.811l6.39-49.032l3.906-28.389l-23.593-3.538l-24.956-4.214l-30.662-5.823l-2.68,16.674
			l-0.42,0.421l-1.573,2.423l-2.307-0.105l-1.154-2.529l-2.516-0.316l-0.839-1.054h-0.84l-0.839,0.528l-1.784,0.947l-0.104,6.427
			l-0.211,1.582l-0.524,11.59l-1.363,2.002l-0.524,3.051l2.515,4.531l1.155,5.375l0.731,0.949l0.945,0.529l-0.104,2.106
			l-1.468,1.265l-3.145,1.581l-1.783,1.791l-1.362,3.372l-0.526,4.529l-2.619,2.529l-1.888,0.633l-0.105,5.375l-0.418,1.58
			l0.418,0.737l3.356,0.527l-0.525,2.529l-1.361,2.002L148.272,525.198L148.272,525.198z"/>
		<path id="ND_19_" fill="#67A9A8" stroke="#F7F4EE" stroke-linecap="round" stroke-linejoin="round" stroke-miterlimit="10" d="
			M454.973,286.478l-0.629-7.796l-1.674-6.742l-1.677-12.432l-0.416-9.06l-1.677-3.16l-1.468-4.636v-9.481l0.629-3.582l-1.794-5.068
			l-26.952-0.52l-17.053-0.596l-24.318-1.192l-22.883-1.736l-1.159,13.115l-1.259,13.906l-2.069,22.992l-0.593,11.192l51.525,3.322
			L454.973,286.478z"/>
		<path id="IA_19_" fill="#67A9A8" stroke="#F7F4EE" stroke-linecap="round" stroke-linejoin="round" stroke-miterlimit="10" d="
			M542.58,353.69l0.053,1.686l2.098,0.632l0.839,1.054l0.419,1.686l3.564,3.16l0.629,2.107l-0.629,3.161l-1.676,3.371l-0.629,2.318
			l-2.098,1.686l-1.677,0.632l-4.823,1.263l-0.629,1.686l-0.629,1.897l0.629,1.264l1.675,1.475l-0.211,3.792l-1.677,1.475
			l-0.628,1.475v2.529l-1.674,0.421l-1.471,1.054l-0.21,1.264l0.21,1.897l-1.571,1.633l-3.043-3.108l-1.046-2.106l-7.131,0.631
			l-9.02,0.421l-23.278,0.843l-12.373,0.211l-8.599,0.211l-1.002,0.112l-1.516-4.958l-0.213-6.11l-1.467-3.793l-0.629-4.846
			l-2.099-3.372l-0.84-4.424l-2.515-6.95l-1.048-4.952l-1.259-2.002l-1.468-2.528l1.675-4.004l1.258-5.267l-2.516-1.897
			l-0.417-2.529l0.84-2.317h1.571h10.59l45.508-0.632l16.566-0.632l3.773-0.106l0.629,3.055l2.1,1.475l0.211,1.264l-1.888,3.161
			l0.212,2.95l2.304,3.582l2.307,1.054l2.726,0.421L542.58,353.69L542.58,353.69z"/>
		<path id="AR_19_" fill="#67A9A8" stroke="#F7F4EE" stroke-linecap="round" stroke-linejoin="round" stroke-miterlimit="10" d="
			M564.923,485.987l-4.467,0.866l-5.661-0.422l0.629-2.738l2.933-2.529l0.419-2.106l-1.677-2.738l-10.064,0.421l-19.083,0.843
			l-21.391,0.633l-21.394,0.421l1.471,6.32v7.585l1.259,10.114l0.21,34.87l2.098,1.791l2.727-1.264l2.515,1.054l0.606,10.35
			l20.368-0.026l17.618-0.844l9.907,0.131l1.364-2.449l-0.37-4.003l-1.259-2.739l1.259-1.264l-1.259-1.896l0.42-1.687l0.839-5.689
			l2.729-2.529l-0.629-1.896l3.356-4.847l2.516-0.844v-2.318l-0.629-1.264l2.516-4.847l2.515-1.052l-0.271-3.368l2.249-1.039
			l0.886-4.32l-1.334-3.278l3.71-2.087l0.295-2.382l1.24-4.038L564.923,485.987z"/>
		<path id="KS_19_" fill="#67A9A8" stroke="#F7F4EE" stroke-linecap="round" stroke-linejoin="round" stroke-miterlimit="10" d="
			M484.543,468.31l-12.164,0.633l-42.571-0.421l-41.314-1.897l-22.149-1.159l3.8-60.681l20.026,0.738l37.116,1.264l40.474,0.421
			h5.558l2.831,2.529l2.1,0.211l1.259,0.843v2.739l-1.677,1.476l-0.42,2.106l1.888,3.161l2.306,2.739l2.304,1.686l1.259,10.747
			L484.543,468.31L484.543,468.31z"/>
		<path id="LA_19_" fill="#67A9A8" stroke="#F7F4EE" stroke-linecap="round" stroke-linejoin="round" stroke-miterlimit="10" d="
			M575.45,603.991l-1.152-2.099l-1.048-3.582l-3.145-2.949l1.047-6.952l-0.629-0.844l-1.674,0.211l-7.549,0.633l-22.229,0.631
			l-0.417-1.475l0.629-7.375l3.146-5.689l4.823-8.427l-0.839-1.903h1.046l0.629-2.944l-2.099-1.685l0.213-1.687l-1.887-4.214
			l-0.315-5.06h-9.963l-17.619,0.847l-20.368,0.022l0.026,8.828l0.629,8.638l0.627,3.582l2.307,3.793l0.839,4.634l3.987,5.057
			l0.211,2.951l0.629,0.631l-0.629,7.796l-2.727,4.636l1.469,1.896l-0.629,2.318l-0.629,6.742l-1.259,2.949l0.112,3.333l4.299-1.4
			l7.414-0.297l9.491,3.278l5.93,1.044l3.41-1.342l2.966,1.043l2.966,0.895l0.741-1.938l-2.965-1.044l-2.374,0.447l-2.522-1.484
			c0,0,0.146-1.198,0.741-1.34c0.593-0.149,2.816-0.895,2.816-0.895l1.633,1.342l1.634-0.895l2.967,0.596l1.333,2.235l0.295,2.086
			l4.154,0.299l1.633,1.634l-0.74,1.489l-1.188,0.746l1.483,1.489l7.71,3.278l3.262-1.193l0.887-2.235l2.373-0.596l1.634-1.34
			l1.187,0.893l0.741,2.682l-2.075,0.746l0.592,0.596l3.115-1.193l2.075-3.129l0.741-0.449l-1.927-0.297l0.74-1.489l-0.146-1.342
			l1.928-0.447l1.039-1.193l0.593,0.742c0,0-0.145,2.829,0.594,2.829c0.74,0,3.854,0.602,3.854,0.602l3.708,1.787l0.889,1.342h2.669
			l1.039,0.893l2.076-2.831v-1.34h-1.188l-3.114-2.54l-5.337-0.742l-2.966-2.082l1.039-2.54l2.075,0.299l0.147-0.596l-1.634-0.893
			v-0.449h2.968l1.633-2.829l-1.188-1.789l-0.295-2.532l-1.333,0.147l-1.782,1.938l-0.592,2.381l-2.814-0.595l-0.889-1.637
			l1.634-1.789l1.853-1.637L575.45,603.991L575.45,603.991z"/>
		<path id="HI_19_" fill="#67A9A8" stroke="#F7F4EE" stroke-linecap="round" stroke-linejoin="round" stroke-miterlimit="10" d="
			M235.726,646.674l1.779-3.278l2.076-0.299l0.296,0.746l-1.929,2.831H235.726z M245.067,643.247l5.636,2.384l1.927-0.299
			l1.483-3.575l-0.593-3.129l-3.855-0.449l-3.707,1.639L245.067,643.247L245.067,643.247z M273.242,652.484l3.408,5.066l2.224-0.299
			l1.038-0.447l1.335,1.193l3.41-0.149l0.888-1.34l-2.669-1.639l-1.78-3.427l-1.927-3.278l-5.337,2.682L273.242,652.484
			L273.242,652.484z M291.778,660.678l1.185-1.789l4.301,0.895l0.592-0.454l5.635,0.596l-0.295,1.198l-2.375,1.342l-4.002-0.299
			L291.778,660.678z M296.672,665.446l1.779,3.577l2.817-1.044l0.295-1.489l-1.483-1.936l-3.408-0.299V665.446L296.672,665.446z
			 M303.049,664.404l2.075-2.682l4.301,2.235l4.001,1.043l4.004,2.532v1.792l-3.263,1.635l-4.449,0.893l-2.224-1.34L303.049,664.404
			L303.049,664.404z M318.322,678.706l1.48-1.193l3.115,1.489l6.971,3.278l3.115,1.938l1.479,2.233l1.78,4.024l3.71,2.384
			l-0.296,1.191l-3.56,2.98l-3.855,1.34l-1.334-0.596l-2.816,1.634l-2.224,2.98l-2.075,2.682l-1.632-0.149l-3.262-2.381
			l-0.296-4.173l0.593-2.235l-1.481-5.216l-1.928-1.637l-0.148-2.382l2.076-0.891l1.928-2.831l0.445-0.893l-1.482-1.639
			L318.322,678.706L318.322,678.706z"/>
		<path id="SC_19_" fill="#67A9A8" stroke="#F7F4EE" stroke-linecap="round" stroke-linejoin="round" stroke-miterlimit="10" d="
			M720.179,548.642l-1.631,0.893l-2.376-1.191l-0.59-1.938l-1.187-3.278l-2.073-1.936l-2.375-0.602l-1.481-4.469l-2.521-5.513
			l-3.855-1.787l-1.928-1.791l-1.186-2.383l-1.928-1.788l-2.076-1.193l-2.076-2.684l-2.815-2.085l-4.154-1.637l-0.445-1.342
			l-2.224-2.682l-0.445-1.34l-3.114-4.768l-3.116,0.146l-3.707-2.234l-1.187-1.193l-0.296-1.636l0.742-1.791l2.075-0.891
			l-0.296-1.94l5.636-2.382l8.304-4.173l6.673-0.744l15.126-0.449l2.075,1.789l1.481,2.98l4.003-0.45l11.566-1.34l2.668,0.745
			l11.565,7l9.272,7.486l-4.975,5.031l-2.374,5.659l-0.445,5.809l-1.482,0.746l-1.039,2.533l-2.224,0.596l-1.929,3.279l-2.521,2.534
			l-2.072,3.13l-1.483,0.744l-3.262,3.129l-2.668,0.147l0.888,2.98l-4.596,5.062L720.179,548.642L720.179,548.642z"/>
		<path id="NC_19_" fill="#67A9A8" stroke="#F7F4EE" stroke-linecap="round" stroke-linejoin="round" stroke-miterlimit="10" d="
			M785.192,443.15l1.569,4.33l3.262,5.96l2.224,2.235l0.592,2.086l-2.224,0.149l0.741,0.596l-0.296,3.874l-2.373,1.193l-0.593,1.939
			l-1.187,2.682l-3.41,1.486l-2.224-0.294l-1.334-0.151l-1.483-1.193l0.296,1.193v0.892h1.78l0.741,1.193l-1.78,5.809h3.855
			l0.593,1.491l2.074-2.086l1.189-0.449l-1.781,3.278l-2.815,4.47h-1.187l-1.04-0.449l-2.521,0.596l-4.745,2.233l-5.931,4.917
			l-3.114,4.32l-1.781,5.96l-0.445,2.233l-4.302,0.45l-5.407,2.047l-9.124-7.56l-11.566-7.002l-2.667-0.745l-11.566,1.34
			l-4.004,0.449l-1.481-2.978l-2.074-1.79l-15.127,0.447l-6.673,0.746l-8.304,4.171l-5.635,2.384l-1.48,0.295l-5.338,0.893
			l-6.377,0.744l-6.228,0.449l0.295-4.469l1.634-1.344l2.521-0.595l0.593-3.426l3.855-2.534l3.56-1.342l3.855-3.278l4.004-1.938
			l0.592-2.83l3.561-3.576l0.593-0.147c0,0,0,1.043,0.741,1.043s1.78,0.295,1.78,0.295l2.075-3.278l1.927-0.596l2.076,0.297
			l1.482-3.278l2.668-2.383l0.448-1.937v-3.649l4.152,0.67l6.546-1.192l14.512-1.789l15.718-2.384l18.898-3.477l17.581-3.524
			l10.529-2.682L785.192,443.15L785.192,443.15z M788.765,473.551l2.374-2.309l2.893-2.382l1.408-0.595l0.146-1.864l-0.594-5.662
			l-1.332-2.158l-0.594-1.712l0.667-0.223l2.521,5.066l0.373,4.097l-0.148,3.129l-3.114,1.416l-2.595,2.235l-1.038,1.117
			L788.765,473.551z"/>
		<path id="RI_19_" fill="#67A9A8" stroke="#F7F4EE" stroke-linecap="round" stroke-linejoin="round" stroke-miterlimit="10" d="
			M823.684,333.805l-0.443-3.875l-0.741-4.023l-1.556-5.438l5.263-1.416l1.483,1.043l3.115,4.023l2.668,4.098l-2.669,1.416
			l-1.187-0.148l-1.041,1.639l-2.224,1.788L823.684,333.805z"/>
		<path id="ME_19_" fill="#67A9A8" stroke="#F7F4EE" stroke-linecap="round" stroke-linejoin="round" stroke-miterlimit="10" d="
			M868.764,239.348l1.779,1.936l2.076,3.426v1.788l-1.928,4.321l-1.779,0.595l-3.115,2.831l-4.449,5.065c0,0-0.593,0-1.187,0
			c-0.592,0-0.889-1.937-0.889-1.937l-1.632,0.149l-0.888,1.341l-2.224,1.341l-0.886,1.341l1.482,1.341l-0.446,0.595l-0.446,2.532
			l-1.779-0.148v-1.49l-0.296-1.192l-1.334,0.298l-1.633-2.979l-1.928,1.192l1.187,1.341l0.295,1.043l-0.74,1.192l0.295,2.831
			l0.147,1.49l-1.482,2.383l-2.668,0.447l-0.296,2.682l-4.894,2.831l-1.187,0.447l-1.482-1.341l-2.815,3.278l0.887,2.979
			l-1.335,1.192l-0.147,4.023l-1.446,7.024l-2.259-1.065l-0.446-2.831l-3.56-1.043l-0.296-2.532l-6.673-21.603l-4.37-13.616
			l2.239-0.318l1.391,0.378v-2.383l0.739-5.066l2.375-4.32l1.334-3.724l-1.78-2.235v-5.512l0.741-0.894l0.74-2.533l-0.146-1.341
			l-0.146-4.469l1.632-4.47l2.669-8.194l1.927-3.873h1.187l1.188,0.148v1.043l1.187,2.085l2.52,0.596l0.742-0.746v-0.894
			l3.707-2.682l1.633-1.639l1.333,0.149l5.489,2.235l1.78,0.894l8.304,27.562h5.486l0.742,1.788l0.148,4.47l2.666,2.086h0.741
			l0.148-0.447l-0.445-1.043L868.764,239.348z M849.563,267.131l1.409-1.416l1.26,0.969l0.519,2.235l-1.555,0.819L849.563,267.131
			L849.563,267.131z M855.716,261.693l1.633,1.712c0,0,1.186,0.075,1.186-0.223s0.222-1.862,0.222-1.862l0.815-0.746l-0.74-1.639
			l-1.854,0.671L855.716,261.693z"/>
		<path id="NH_19_" fill="#67A9A8" stroke="#F7F4EE" stroke-linecap="round" stroke-linejoin="round" stroke-miterlimit="10" d="
			M830.377,299.755l0.277-1.41l1-3.033l-2.332-0.842l-0.446-2.831l-3.559-1.043l-0.297-2.532l-6.673-21.603l-4.22-13.403
			l-0.823-0.005l-0.593,1.49l-0.593-0.447l-0.886-0.894l-1.334,1.788l-0.881,5.055l0.289,5.223l1.779,2.532v3.725l-3.409,3.724
			l-2.374,1.043v1.043l1.039,1.639v7.894l-0.739,8.492l-0.148,4.47l0.887,1.192l-0.146,4.172l-0.447,1.639l1.335,1.862l15.867-3.8
			l2.074-0.595l1.929-2.979L830.377,299.755L830.377,299.755z"/>
		<path id="WV_19_" fill="#67A9A8" stroke="#F7F4EE" stroke-linecap="round" stroke-linejoin="round" stroke-miterlimit="10" d="
			M716.936,391.076l1.021,4.557l0.886,5.215l0.296-0.298l1.928-2.235l2.073-2.831l2.224-0.148l1.334-1.341l1.632-2.384l1.188,0.595
			l2.668-0.298l2.373-1.937l1.841-1.339l1.692-0.447l1.509,1.041l2.669,1.341l1.779,1.639l1.261,1.193l-0.964,4.619l-5.191-2.831
			l-4.152-1.639l-0.148,4.917l-0.445,1.937l-1.483,2.533l-0.592,1.489l-2.816,2.235l-0.447,2.086l-3.114,0.298l-0.295,2.831
			l-1.039,5.065h-2.373l-1.187-0.745l-1.483-2.533l-1.631,0.149l-0.296,4.023l-1.929,6.108l-4.595,9.981l0.74,1.193l-0.146,2.533
			l-1.927,1.79l-1.334-0.297l-2.969,2.233l-2.372-0.891l-1.633,4.319c0,0-3.409,0.743-4.003,0.892
			c-0.594,0.149-2.224-1.193-2.224-1.193l-2.224,2.085l-2.373,0.596l-2.669-0.744l-1.187-1.193l-2.011-2.787l-2.884-1.831
			l-2.375-2.534l-2.667-3.427l-0.594-2.086l-2.374-1.341l-0.742-1.49l-0.219-4.842l2-0.075l1.781-0.746l0.147-2.532l1.48-1.341
			l0.148-4.619l0.886-3.576l1.189-0.595l1.187,1.043l0.445,1.639l1.632-0.894l0.448-1.49l-1.04-1.639v-2.235l0.889-1.192
			l2.075-3.129l1.187-1.341l1.928,0.447l2.072-1.49l2.818-3.129l2.075-3.576l0.295-5.214l0.447-4.619v-4.32l-1.039-2.831
			l0.888-1.341l1.176-1.193l3.204,18.272l4.247-0.693L716.936,391.076L716.936,391.076z"/>
		<path id="OH_19_" fill="#67A9A8" stroke="#F7F4EE" stroke-linecap="round" stroke-linejoin="round" stroke-miterlimit="10" d="
			M693.786,347.693l-6.526,3.839l-3.56,2.086l-3.114,3.426l-3.71,3.576l-2.967,0.745l-2.669,0.447l-5.042,2.384l-1.927,0.149
			l-3.115-2.831l-4.745,0.595l-2.374-1.341l-2.185-1.245l-4.488,0.648l-9.343,1.49l-7.117,1.118l1.186,13.485l1.634,12.664
			l2.374,21.602l0.519,5.289l3.782-0.223l2.224-0.746l2.668,1.49l1.483,4.023l5.336,0.298l1.633,1.639l1.928,0.149l2.224-1.341
			l2.817,0.447l1.186,1.341l2.521-2.383l1.634-1.193h1.48l0.593,2.533l1.634,0.894l3.189,2.16l2-0.075l1.781-0.746l0.146-2.532
			l1.482-1.341l0.148-4.619l0.887-3.576l1.188-0.595l1.187,1.043l0.445,1.639l1.633-0.894l0.446-1.49l-1.039-1.636v-2.235
			l0.888-1.192l2.075-3.13l1.187-1.341l1.929,0.447l2.073-1.49l2.816-3.13l2.075-3.576l0.295-5.214l0.447-4.619v-4.32l-1.04-2.831
			l0.888-1.341l1.26-0.671l-1.706-9.908L693.786,347.693L693.786,347.693z"/>
		<path id="TX_19_" fill="#67A9A8" stroke="#F7F4EE" stroke-linecap="round" stroke-linejoin="round" stroke-miterlimit="10" d="
			M349.436,475.315l20.813,1.003l28.521,1.052l-1.259,21.912l-0.419,16.436l0.213,1.475l3.985,3.371l1.887,1.053l0.629-0.211
			l0.629-1.896l1.258,1.682h1.887v-1.264l2.517,1.264l-0.42,3.582l3.775,0.214l2.304,1.054l3.774,0.631l2.307,1.687l2.097-1.9
			l3.146,0.636l2.307,3.16h0.839v2.106l2.098,0.631l2.098-2.106l1.676,0.633h2.307l0.839,2.318l4.403,1.685l1.259-0.631l1.674-3.799
			h1.048l1.047,1.896l3.774,0.633l3.357,1.27l2.726,0.842l1.675-0.842l0.629-2.318h3.987l1.887,0.842l2.516-1.896h1.046l0.628,1.475
			h3.775l1.468-1.896l1.677,0.421l1.887,2.318l2.933,1.685l2.935,0.844l2.516,1.159l2.098,1.791l2.726-1.264l2.516,1.054
			l0.616,10.232l0.013,8.942l0.629,8.638l0.628,3.582l2.307,3.793l0.839,4.634l3.985,5.057l0.212,2.951l0.629,0.631l-0.629,7.796
			l-2.728,4.636l1.471,1.896l-0.629,2.318l-0.629,6.742l-1.258,2.949l0.256,3.304l-5.929,1.609l-9.046,4.171l-0.889,1.789
			l-2.373,1.792l-1.928,1.342l-1.186,0.746l-5.191,4.915l-2.52,1.938l-4.894,2.978l-5.191,2.229l-5.783,3.13l-1.631,1.342
			l-5.338,3.278l-3.115,0.596l-3.56,5.064l-3.708,0.297l-0.888,1.791l2.075,1.787l-1.333,5.066l-1.188,4.171l-1.04,3.577
			l-0.739,4.171l0.739,2.233l1.634,6.406l0.887,5.66l1.634,2.534l-0.889,1.34l-2.815,1.791l-5.189-3.575l-5.041-1.044l-1.188,0.453
			l-2.968-0.596l-3.855-2.831l-4.745-1.044l-6.97-3.129l-1.928-3.577l-1.186-5.96l-2.969-1.791l-0.593-2.086l0.593-0.596
			l0.296-3.129l-1.186-0.594l-0.593-0.895l1.187-4.022l-1.483-2.087l-2.966-1.193l-3.115-4.024l-3.262-6.109l-3.855-2.381
			l0.148-1.792l-4.897-11.32l-0.74-3.878l-1.633-1.789l-0.148-1.34l-5.486-4.917l-2.375-2.831v-1.044l-2.373-1.936l-6.23-1.043
			l-6.822-0.596l-2.815-2.086l-4.154,1.639l-3.263,1.34l-2.073,2.98l-0.888,3.425l-4.004,5.662l-2.224,2.229l-2.376-0.889
			l-1.631-1.044l-1.78-0.596l-3.562-2.086v-0.596l-1.633-1.787l-4.745-1.942l-6.823-7.148l-2.075-4.32v-7.449l-2.967-5.964
			l-0.446-2.532l-1.482-0.893l-1.038-1.938l-4.597-1.936l-1.186-1.491l-6.524-7.3l-1.186-2.98l-4.301-2.086l-1.334-4.022
			l-2.373-2.682l-1.779-0.451l-0.596-4.31l7.341,0.631l26.634,2.529l26.635,1.476l2.099-21.912l3.563-51.2l1.468-17.276l1.258,0.023
			 M441.327,690.922l-0.52-6.556l-2.521-6.63l-0.522-6.481l1.409-7.598l3.04-6.33l3.188-4.992l2.893-3.278l0.593,0.225l-4.375,6.107
			l-4.003,6.035l-1.854,6.107l-0.295,4.769l0.814,5.66l2.376,6.63l0.445,4.769l0.147,1.34L441.327,690.922z"/>
		<path id="CA_19_" fill="#67A9A8" stroke="#F7F4EE" stroke-linecap="round" stroke-linejoin="round" stroke-miterlimit="10" d="
			M147.937,525.103l3.796-0.746l1.361-2.002l0.525-2.529l-3.356-0.526l-0.418-0.738l0.418-1.58l0.105-5.373l1.888-0.633l2.619-2.529
			l0.526-4.529l1.362-3.372l1.783-1.791l3.146-1.584l1.467-1.263l0.104-2.106l-0.945-0.528l-0.731-0.949l-1.154-5.375l-2.516-4.531
			l0.531-3.012l-2.311-2.993l-13.317-20.967l-17.826-26.76l-20.866-31.183l-11.358-17.122l1.501-6.051l6.397-23.914l7.445-28.971
			l-12.373-3.371l-12.375-3.161l-11.534-3.793l-6.92-1.897l-10.486-2.738l-6.467-2.223l-1.45,4.354l-0.148,6.853l-4.745,10.875
			l-2.817,2.384l-0.295,1.043l-1.634,0.746l-1.333,3.873l-0.742,2.979l2.521,3.873l1.481,3.874l1.04,3.278l-0.297,5.96l-1.632,2.83
			l-0.592,5.364l-0.889,3.426l1.632,3.576l2.521,4.172l2.075,4.47l1.186,3.725l-0.295,2.979l-0.297,0.447v1.937l5.19,5.81
			l-0.445,2.235l-0.592,2.086l-0.594,1.788l0.148,7.598l1.927,3.426l1.78,2.384l2.521,0.447l0.888,2.532l-1.038,3.278l-1.928,1.49
			h-1.038l-0.742,3.576l0.445,2.682l2.966,4.023l1.483,4.918l1.335,4.319l1.186,2.829l3.114,5.365l1.335,2.382l0.445,2.682
			l1.483,0.893v2.234l-0.742,1.79l-1.634,6.556l-0.445,1.79l2.224,2.533l3.855,0.45l4.152,1.638l3.56,1.938h2.67l2.669,2.831
			l2.374,4.469l1.039,2.087l3.56,1.936l4.448,0.746l1.334,1.936l0.593,2.98l-1.335,0.594l0.297,0.895l2.966,0.744l2.52,0.146
			l2.669,4.317l3.559,3.877l0.742,2.086l2.374,3.877l0.295,2.978v8.643l0.445,1.637l9.193,1.34l18.092,2.534L147.937,525.103
			L147.937,525.103z M66.678,478.691l1.185,1.416l-0.147,1.193l-2.966-0.074l-0.52-1.119l-0.593-1.34L66.678,478.691L66.678,478.691
			z M68.454,478.691l1.114-0.596l3.261,1.938l2.816,1.117l-0.815,0.596l-4.153-0.223l-1.482-1.489L68.454,478.691L68.454,478.691z
			 M87.437,496.942l1.631,2.161l0.742,0.893l1.409,0.522l0.519-1.341l-0.889-1.639l-2.446-1.862l-0.965,0.149V496.942
			L87.437,496.942z M86.103,504.913l1.631,2.905l1.112,1.789l-1.333,0.223l-1.188-1.121c0,0-0.665-1.341-0.665-1.712
			c0-0.374,0-2.012,0-2.012L86.103,504.913z"/>
		<path id="MS_19_" fill="#67A9A8" stroke="#F7F4EE" stroke-linecap="round" stroke-linejoin="round" stroke-miterlimit="10" d="
			M595.645,598.438l-1.066,1.158h-4.745l-1.334-0.744l-1.928-0.299l-6.228,1.792l-1.634-0.746l-2.373,3.874l-1.011,0.72
			l-1.031-2.296l-1.048-3.582l-3.145-2.947l1.047-6.952l-0.629-0.844l-1.674,0.211l-7.549,0.633l-22.229,0.631l-0.417-1.475
			l0.629-7.377l3.145-5.689l4.823-8.427l-0.839-1.901h1.045l0.629-2.945l-2.098-1.685l0.212-1.687l-1.887-4.214l-0.261-4.926
			l1.259-2.449l-0.37-4.003l-1.258-2.738l1.258-1.264l-1.258-1.896l0.418-1.687l0.84-5.689l2.728-2.531l-0.629-1.896l3.356-4.848
			l2.516-0.844v-2.318l-0.629-1.262l2.516-4.847l2.516-1.054l0.098-3.145l7.958-0.069l22.098-1.79l5.033-0.213l0.008,5.872
			l0.146,15.346l-0.74,28.604l-0.147,12.962l2.521,17.282L595.645,598.438L595.645,598.438z"/>
		<path id="IN_19_" fill="#67A9A8" stroke="#F7F4EE" stroke-linecap="round" stroke-linejoin="round" stroke-miterlimit="10" d="
			M589.392,446.288l-0.147-3.575l0.446-4.173l2.075-2.682l1.632-3.575l2.373-3.874l-0.445-5.364l-1.631-2.532l-0.297-2.979
			l0.742-5.066l-0.445-6.407l-1.189-14.75l-1.187-14.153l-0.887-10.802l2.815,0.82l1.334,0.894l1.041-0.298l1.925-1.788l2.595-1.49
			l4.672-0.149l20.168-2.085l5.635-0.596l0.147,1.043l1.334,13.558l1.632,12.664l2.376,21.603l0.445,5.214l-0.445,2.086l1.334,1.341
			l0.295,1.788l-2.52,1.788l-3.56,1.639l-2.521,0.298l-0.448,4.172l-4.3,3.576l-2.669,3.278l0.296,2.086l-0.741,1.937h-4.301
			l-1.041-1.489l-1.038,0.744l-2.669,1.491l0.148,3.129l-1.928,0.449l-0.741-1.043l-1.78-1.489l-2.668,1.34l-1.632,2.98
			l-1.634-0.746l-1.334-1.79l-3.263,0.45l-5.335,0.893L589.392,446.288z"/>
		<path id="MN_19_" fill="#67A9A8" stroke="#F7F4EE" stroke-linecap="round" stroke-linejoin="round" stroke-miterlimit="10" d="
			M454.764,286.478l-0.42-7.796l-1.674-6.742l-1.677-12.432l-0.416-9.06l-1.677-3.16l-1.468-4.636v-9.481l0.629-3.582l-1.673-5.024
			l27.64,0.032l0.296-7.598l0.593-0.148l2.075,0.447l1.78,0.746l0.741,5.066l1.332,5.661l1.482,1.489h4.449l0.297,1.341l5.783,0.298
			v1.937h4.447l0.295-1.192l1.039-1.043l2.074-0.596l1.187,0.894h2.668l3.562,2.384l4.894,2.235l2.224,0.447l0.447-0.894
			l1.335-0.447l0.445,2.682l2.373,1.192l0.445-0.447l1.189,0.148v1.937l2.373,0.894h2.815l1.484-0.746l2.965-2.979l2.376-0.447
			l0.739,1.639l0.448,1.193h0.886l0.889-0.746l8.156-0.298l1.632,2.831h0.595l0.652-1l4.075-0.341l-0.565,2.101l-3.611,1.693
			l-8.483,3.742l-4.381,1.85l-2.817,2.383l-2.224,3.278l-2.076,3.576l-1.632,0.745l-4.154,4.619l-1.186,0.149l-3.115,2.831
			l0.631,0.501l-2.583,2.495l-0.21,2.529v7.796l-1.048,1.475l-4.823,3.582l-2.099,5.478l0.418,0.211l2.307,1.897l0.628,2.95
			l-1.677,2.95v3.582l0.42,6.11l2.726,2.738h3.146l1.675,2.95l3.145,0.421l3.564,5.268l6.501,3.792l1.887,2.529l0.84,6.953h-3.775
			l-16.565,0.632l-45.506,0.632h-10.591l0.525-6.32l-0.211-28.022l-0.419-2.739l-3.774-3.16l-1.046-1.686v-1.475l1.887-1.475
			l1.259-1.263L454.764,286.478L454.764,286.478z"/>
		<path id="OK_19_" fill="#67A9A8" stroke="#F7F4EE" stroke-linecap="round" stroke-linejoin="round" stroke-miterlimit="10" d="
			M366.214,465.36l-9.805-0.421l-5.897-0.449l0.236,0.184l-0.495,10.64l20.001,1.003l28.521,1.052l-1.259,21.912l-0.418,16.436
			l0.212,1.475l3.985,3.371l1.887,1.053l0.629-0.211l0.629-1.896l1.258,1.682h1.888v-1.264l2.516,1.264l-0.42,3.582l3.775,0.214
			l2.305,1.054l3.774,0.631l2.306,1.687l2.097-1.9l3.146,0.636l2.307,3.16h0.839v2.106l2.098,0.631l2.099-2.106l1.675,0.633h2.307
			l0.839,2.318l4.403,1.685l1.259-0.631l1.674-3.799h1.048l1.048,1.896l3.773,0.633l3.357,1.27l2.726,0.842l1.676-0.842l0.629-2.318
			h3.986l1.887,0.842l2.516-1.896h1.046l0.628,1.475h3.775l1.468-1.896l1.677,0.421l1.887,2.318l2.933,1.685l2.935,0.844
			l2.516,1.475l-0.211-35.186l-1.259-10.114v-7.585l-1.469-6.32l-0.417-6.321l-0.213-4.109l-12.163,0.737l-42.571-0.421
			l-41.314-1.896L366.214,465.36L366.214,465.36z"/>
	</g>
	<g>
		<path id="ID_6_" fill="#D6CEB6" stroke="#F7F4EE" stroke-linecap="round" stroke-linejoin="round" stroke-miterlimit="10" d="
			M150.133,332.032l4.36-17.037l3.989-16.347l1.26-3.902l2.309-5.484l-1.155-2.109l-2.309,0.105l-0.733-0.949l0.419-1.055
			l0.315-2.847l4.094-5.062l1.678-0.422l1.049-1.055l0.527-2.953l0.84-0.633l3.567-5.381l3.568-4.008l0.21-3.48l-3.148-2.424
			l-1.207-4.06l0.368-8.911l3.359-15.187l4.094-19.194l3.464-12.446l0.698-3.509l12.967,2.48l-4.113,19.696l3.147,6.961l-1.26,4.218
			l1.679,4.218l2.939,1.266l3.359,9.492l3.359,3.374l0.419,1.055l3.15,1.055l0.418,1.899l-6.509,16.242v2.32l2.308,2.953h0.841
			l4.408-2.742l0.63-1.055l1.47,0.633l-0.21,4.851l2.518,11.601l2.729,2.321l0.841,0.633l1.679,2.109l-0.419,3.164l0.63,3.164
			l1.049,0.844l2.1-2.109h2.519l2.939,1.477l2.307-0.844h3.779l3.359,1.477l2.519-0.422l0.42-2.742l2.729-0.633l1.26,1.266
			l0.419,2.953l2.415,1.899l-3.464,22.57l-4.723,27.949l-4.409-0.738l-7.665-1.266l-9.447-1.688l-11.02-1.899l-11.652-2.163
			l-7.348-1.846l-8.503-1.688l-8.925-1.793L150.133,332.032L150.133,332.032z"/>
		<path id="MO_6_" fill="#D6CEB6" stroke="#F7F4EE" stroke-linecap="round" stroke-linejoin="round" stroke-miterlimit="10" d="
			M531.976,398.525l-2.939-2.953l-1.046-2.11l-7.139,0.633l-9.03,0.422l-23.304,0.844l-12.387,0.211l-7.243,0.106l-2.1,0.105
			l1.155,2.321l-0.21,2.109l2.307,3.585l2.834,3.797l2.833,2.531l2.101,0.211l1.26,0.844v2.742l-1.678,1.477l-0.42,2.109
			l1.889,3.164l2.309,2.742l2.307,1.688l1.259,10.76l-0.629,32.587l0.212,4.321l0.417,6.327l21.417-0.42l21.415-0.632l19.105-0.846
			l10.075-0.42l1.679,2.74l-0.42,2.11l-2.936,2.532l-0.63,2.741l5.667,0.422l4.62-0.634l1.89-5.905l-0.134-5.194l2.653-1.344
			l1.26-1.478l1.888-1.053l0.212-2.953l0.84-1.687l-1.26-2.24l-2.729,0.341l-1.679-1.9l-1.47-3.797l0.84-2.741l-1.889-2.952
			l-1.889-4.64l-4.198-0.633l-5.878-4.852l-2.1-3.586l0.63-2.952l2.099-5.485l0.63-3.374l-2.519-1.266l-5.878-0.422l-0.842-1.265
			l0.212-4.008l-5.038-3.374l-6.72-6.961l-2.101-6.75l-0.417-3.374L531.976,398.525L531.976,398.525z"/>
		<path id="TN_6_" fill="#D6CEB6" stroke="#F7F4EE" stroke-linecap="round" stroke-linejoin="round" stroke-miterlimit="10" d="
			M661.075,464.021l-47.654,4.625l-14.472,1.638l-4.243,0.475l-3.553-0.026v3.579l-7.719,0.447l-6.384,0.597l-10.189,0.05
			l-0.243,5.383l-1.964,5.79l-0.914,2.782l-1.241,4.04l-0.295,2.385l-3.711,2.088l1.335,3.284l-0.889,4.027l-1.411,1.564
			l7.497-0.072l22.122-1.793l4.9-0.149l7.422-0.447l25.534-2.387l9.34-0.743l7.733-0.894l7.719-1.044l4.454-0.744l0.295-4.474
			l1.636-1.345l2.524-0.597l0.593-3.43l3.86-2.538l3.564-1.343l3.86-3.282l4.008-1.938l0.594-2.834l3.564-3.581l0.595-0.148
			c0,0,0,1.045,0.741,1.045c0.742,0,1.783,0.295,1.783,0.295l2.076-3.282l1.929-0.598l2.078,0.296l1.483-3.282l2.671-2.385
			l0.448-1.94l0.162-3.629l-2.093,0.05l-2.227,1.793l-7.273,0.148l-11.017,1.754L661.075,464.021z"/>
		<path id="NY_6_" fill="#D6CEB6" stroke="#F7F4EE" stroke-linecap="round" stroke-linejoin="round" stroke-miterlimit="10" d="
			M781.471,343.804l-1.041-0.895l-2.374-0.149l-2.078-1.79l-2.227-4.922l-2.759-0.859l-2.144-1.975l-17.072,3.728l-39.487,8.054
			l-8.165,1.342l-0.679-6.387l2.459-1.666l1.19-1.044l0.887-1.491l1.636-1.044l1.781-1.64l0.446-1.492l1.931-2.535l1.039-0.895
			l-0.145-0.895l-1.189-2.834l-1.636-0.149l-1.781-5.668l2.672-1.64l4.005-1.342l3.714-1.193l2.97-0.447l5.79-0.149l1.781,1.193
			l1.483,0.149l1.931-1.194l2.375-1.044l4.75-0.447l1.931-1.64l1.636-2.983l1.481-1.791h1.931l1.781-1.044l0.148-2.088l-1.336-1.939
			l-0.295-1.342l1.041-1.939v-1.342h-1.635l-1.635-0.745l-0.743-1.044l-0.147-2.386l5.342-5.072l0.593-0.745l1.336-2.685
			l2.672-4.177l2.524-3.43l1.93-2.237l2.217-1.684l2.83-1.149l5.048-1.193l2.972,0.149l4.157-1.342l6.948-1.911l0.477,4.594
			l2.227,5.966l0.742,4.773l-0.89,3.58l2.376,4.177l0.742,1.939l-0.742,2.685l2.672,1.193l0.594,0.298l2.82,10.142l0.446,4.773
			l-0.446,9.993l0.741,5.072l0.741,3.282l1.336,6.712v7.457l-1.04,2.089l1.688,1.838l-0.208,1.444l-1.781,1.64l0.296,1.193
			l1.188-0.298l1.336-1.193l2.078-2.387l1.039-0.596l1.483,0.596l2.076,0.149l7.274-3.58l2.671-2.535l1.188-1.342l3.86,1.492
			l-3.121,3.282l-3.563,2.685l-6.532,4.922l-2.375,0.895l-5.342,1.79l-3.713,1.044l-1.392-0.492l-0.534-3.09l0.447-2.535
			l-0.149-1.938l-2.375-1.044l-4.159-0.895l-3.565-1.044L781.471,343.804z"/>
		<path id="UT_6_" fill="#D6CEB6" stroke="#F7F4EE" stroke-linecap="round" stroke-linejoin="round" stroke-miterlimit="10" d="
			M254.009,455.056l-23.512-3.797l-24.983-4.218l-30.768-5.703l1.901-9.485l2.939-14.027l3.044-15.293l1.994-12.551l1.785-8.226
			l3.464-18.878l3.252-16.137l1.024-5.144l11.68,2.083l11.02,1.899l9.448,1.688l7.664,1.266l4.409,0.738l-1.511,9.808l-1.533,10.969
			l5.991,0.856l15.509,2.109l8.424,1.085l-2.84,20.417l-2.937,20.672l-3.448,25.818l-1.382,10.249L254.009,455.056L254.009,455.056z
			"/>
		<path id="SD_6_" fill="#D6CEB6" stroke="#F7F4EE" stroke-linecap="round" stroke-linejoin="round" stroke-miterlimit="10" d="
			M455.876,356.4L455,354.515l-1.544-2.605l1.676-4.008l1.259-5.273l-2.518-1.899l-0.417-2.531l0.84-2.32h1.679l0.416-6.328
			l-0.21-28.054l-0.419-2.742l-3.777-3.163l-1.048-1.688v-1.477l1.889-1.477l1.259-1.266l0.315-2.953l-53.43-1.477l-51.582-3.586
			l-0.704,4.871l-1.48,14.64l-1.235,16.558l-1.472,23.73l14.278,0.95l18.472,1.055l16.377,1.055l21.835,1.055l9.868-0.422
			l1.889,2.109l4.408,2.742l1.05,0.844l3.988-1.266l3.567-0.422l2.519-0.211l1.679,1.266l4.618,1.477l2.73,1.477l0.419,1.477
			l0.84,1.899h1.679L455.876,356.4L455.876,356.4z"/>
		<path id="NE_6_" fill="#D6CEB6" stroke="#F7F4EE" stroke-linecap="round" stroke-linejoin="round" stroke-miterlimit="10" d="
			M466.683,395.783l1.259,2.321l-0.21,2.11l2.309,3.585l2.936,3.797h-5.668l-40.519-0.422l-37.157-1.266l-20.049-0.738l1.574-20.566
			l-30.652-2.531l3.99-40.604l14.278,0.949l18.472,1.055l16.377,1.055l21.835,1.055l9.868-0.422l1.889,2.11l4.408,2.742l1.049,0.844
			l3.989-1.266l3.567-0.422l2.519-0.211l1.679,1.266l4.618,1.477l2.73,1.477l0.419,1.477l0.84,1.899h1.679l1.47-0.106l1.049,4.957
			l2.517,6.958l0.842,4.43l2.1,3.374l0.63,4.851l1.469,3.797l0.214,6.117l1.779,5.075"/>
	</g>
	<g>
		<path id="NJ_10_" fill="#225577" stroke="#F7F4EE" stroke-linecap="round" stroke-linejoin="round" stroke-miterlimit="10" d="
			M781.63,343.996l-1.929,2.237v2.834l-1.783,2.834l-0.146,1.492l1.188,1.194l-0.148,2.237l-2.078,1.044l0.742,2.535l0.148,1.044
			l2.523,0.298l0.888,2.386l3.265,2.237l2.227,1.492v0.745l-2.971,2.834l-1.481,2.089l-1.336,2.535l-2.077,1.193l-1.115,0.671
			l-0.221,1.119l-0.56,2.404l1.005,2.07l2.968,2.684l4.453,2.089l3.712,0.596l0.148,1.342l-0.741,0.895l0.295,2.535h0.742
			l1.929-2.237l0.742-4.474l2.524-3.729l2.819-5.966l1.04-5.07l-0.595-1.044l-0.148-8.65l-1.482-3.132l-1.041,0.746l-2.523,0.298
			l-0.446-0.447l1.04-0.895l1.929-1.79l0.059-1.009l-0.353-3.168l0.445-2.535l-0.148-1.938l-2.375-1.044l-4.157-0.895l-3.565-1.044
			L781.63,343.996L781.63,343.996z"/>
		<path id="NV_10_" fill="#225577" stroke="#F7F4EE" stroke-linecap="round" stroke-linejoin="round" stroke-miterlimit="10" d="
			M150.372,332.225l19.265,4.162l8.923,1.792l8.501,1.687l7.399,1.95l-1.102,5.114l-3.253,16.135l-3.463,18.876l-1.787,8.225
			l-1.992,12.549l-3.045,15.291l-2.938,14.026l-1.808,9.688l-2.705,16.359l-0.419,0.421l-1.575,2.425l-2.308-0.105l-1.156-2.531
			l-2.519-0.316l-0.84-1.055h-0.838l-0.839,0.529l-1.787,0.948l-0.103,6.433l-0.212,1.585l-0.525,11.599l-1.361,2.03l-2.312-2.976
			l-13.329-20.987l-17.842-26.785l-20.887-31.214l-11.37-17.142l1.502-6.057l6.405-23.938l7.242-28.919l30.858,7.508l12.594,2.741"
			/>
		<path id="KY_10_" fill="#225577" stroke="#F7F4EE" stroke-linecap="round" stroke-linejoin="round" stroke-miterlimit="10" d="
			M684.893,443.259l-2.863,2.893l-3.859,3.284l-4.157,4.921l-1.635,1.637v1.94l-3.563,1.941l-5.194,3.133l-2.398,1.297
			l-47.626,4.518l-14.47,1.639l-4.241,0.473l-3.554-0.024v3.576l-7.717,0.449l-6.383,0.599l-9.577,0.188l0.925-1.147l2.002-1.628
			l1.89-1.052l0.21-2.953l0.84-1.685l-1.476-2.346l0.734-1.755l2.077-1.638l1.929-0.597l2.524,1.194l3.266,1.194l1.039-0.299
			l0.148-2.088l-1.187-2.237l0.295-2.088l1.783-1.341l2.375-0.597l1.484-0.597l-0.742-1.64l-0.593-1.791l1.04-0.744l0.966-3.055
			l2.744-1.564l5.343-0.892l3.264-0.451l1.337,1.792l1.633,0.746l1.635-2.983l2.67-1.341l1.784,1.491l0.74,1.044l1.93-0.447
			l-0.148-3.133l2.671-1.491l1.042-0.744l1.04,1.489h4.305l0.742-1.938l-0.295-2.088l2.669-3.281l4.307-3.579l0.445-4.176
			l2.524-0.298l3.564-1.64l2.525-1.79l-0.296-1.79l-1.336-1.342l0.52-2.014l3.785-0.223l2.227-0.745l2.672,1.491l1.481,4.027
			l5.343,0.297l1.633,1.64l1.931,0.149l2.227-1.342l2.818,0.447l1.189,1.342l2.523-2.385l1.635-1.194h1.483l0.594,2.536l1.635,0.895
			l3.266,1.939l0.147,5.069l0.741,1.492l2.377,1.342l0.594,2.089l2.67,3.429l2.376,2.537L684.893,443.259z"/>
		<path id="MI_10_" fill="#225577" stroke="#F7F4EE" stroke-linecap="round" stroke-linejoin="round" stroke-miterlimit="10" d="
			M555.259,244.114l1.676-1.898l1.994-0.738l4.934-3.586l2.099-0.527l0.42,0.422l-4.724,4.746l-3.044,1.792l-1.889,0.847
			L555.259,244.114L555.259,244.114z M634.384,273.753l0.593,2.312l2.971,0.149l1.188-1.119c0,0-0.075-1.342-0.374-1.491
			c-0.295-0.149-1.482-1.715-1.482-1.715l-2.004,0.223l-1.484,0.149l-0.295,1.044L634.384,273.753z M661.99,331.917l-2.972-7.606
			l-2.074-8.351l-2.227-2.982l-2.376-1.64l-1.483,1.044l-3.564,1.64l-1.781,4.623l-2.524,3.43l-1.04,0.597l-1.337-0.597
			c0,0-2.374-1.342-2.227-1.939c0.148-0.597,0.446-4.624,0.446-4.624l3.119-1.193l0.741-3.132l0.595-2.386l2.227-1.492l-0.295-9.246
			l-1.482-2.089l-1.191-0.745l-0.739-1.939l0.739-0.745l1.484,0.298l0.148-1.492l-2.227-2.088l-1.188-2.386h-2.376l-4.157-1.342
			l-5.049-3.133h-2.524l-0.593,0.597l-0.888-0.447l-2.819-2.089l-2.671,1.64l-2.67,2.089l0.295,3.28l0.891,0.298l1.93,0.447
			l0.445,0.745l-2.375,0.746l-2.376,0.298l-1.337,1.64l-0.295,1.939l0.295,1.492l0.295,5.071l-3.264,1.938l-0.595-0.149v-3.876
			l1.188-2.237l0.593-2.237l-0.74-0.745l-1.784,0.745l-0.887,3.878l-2.524,1.044l-1.635,1.79l-0.148,0.895l0.594,0.745l-0.594,2.386
			l-2.077,0.447v1.044l0.742,2.237l-1.04,5.668l-1.483,3.728l0.595,4.325l0.445,1.044l-0.742,2.237l-0.295,0.745l-0.295,2.536
			l3.264,5.517l2.671,5.966l1.337,4.474l-0.742,4.325l-0.889,5.517l-2.227,4.772l-0.296,2.535l-2.829,2.87l-0.685,0.709l4.256-0.149
			l20.187-2.088l5.642-0.597l0.295,1.119l7.124-1.119l9.352-1.492l4.788-0.426l-1.228-1.065l0.148-1.342l1.929-3.43l1.835-1.603
			l-0.204-4.66l1.468-1.473l1.003-0.317l0.203-3.281l1.41-2.796l0.966,0.559l0.148,0.597l0.74,0.149l1.782-0.895L661.99,331.917z
			 M541.245,271.428l1.699-0.953l2.524-0.746l3.265-2.088v-0.895l0.594-0.597l5.496-0.895l2.227-1.79l4.008-1.938l0.148-1.193
			l1.781-2.684l1.633-0.745l1.188-1.64l2.078-2.089l4.006-2.237l4.306-0.447l1.04,1.044l-0.295,0.895l-3.414,0.895l-1.336,2.834
			l-2.075,0.746l-0.448,2.237l-2.227,2.982l-0.297,2.386l0.742,0.447l0.89-1.044l3.264-2.684l1.189,1.193h2.075l2.971,0.895
			l1.336,1.044l1.336,2.834l2.524,2.535l3.563-0.149l1.336-0.895l1.483,1.193l1.482,0.447l1.188-0.746h1.042l1.481-0.895
			l3.712-3.281l3.117-1.044l6.089-0.298l4.157-1.79l2.376-1.193l1.337,0.149v5.219l0.446,0.298l2.67,0.746l1.782-0.447l5.641-1.492
			l1.04-1.044l1.336,0.447v6.412l2.969,2.834l1.188,0.597l1.189,0.895l-1.189,0.298l-0.741-0.298l-3.413-0.447l-1.93,0.596
			l-2.077-0.149l-2.97,1.342h-1.634l-5.342-1.193l-4.749,0.149l-1.784,2.385l-6.382,0.597l-2.227,0.745l-1.041,2.834l-1.187,1.044
			l-0.447-0.149l-1.336-1.492l-4.157,2.237h-0.594l-1.041-1.492l-0.741,0.149l-1.782,4.027l-0.889,3.728l-3.444,7.506l-1.495-1.058
			l-1.26-1.266l-1.472-9.491l-3.359-1.055l-1.259-2.109l-11.545-2.53l-2.307-1.055l-7.556-2.109l-7.557-1.055L541.245,271.428
			L541.245,271.428z"/>
		<path id="MT_10_" fill="#225577" stroke="#F7F4EE" stroke-linecap="round" stroke-linejoin="round" stroke-miterlimit="10" d="
			M349.451,281.657l0.742-10.731l2.071-23.014l1.26-13.92l1.16-13.128l-29.342-3.034l-26.866-3.28l-26.866-3.729l-29.688-4.921
			l-16.923-3.132l-30.047-6.395l-4.114,19.693l3.148,6.96l-1.26,4.218l1.679,4.218l2.938,1.266l3.36,9.491l3.359,3.374l0.419,1.055
			l3.149,1.055l0.419,1.898l-6.508,16.24v2.32l2.307,2.953h0.842l4.408-2.741l0.63-1.055l1.47,0.633l-0.211,4.85l2.518,11.599
			l2.73,2.32l0.841,0.633l1.679,2.108l-0.419,3.164l0.63,3.164l1.049,0.844l2.1-2.108h2.519L227.57,296l2.308-0.844h3.779
			l3.359,1.477l2.519-0.422l0.42-2.742l2.729-0.632l1.26,1.265l0.418,2.953l2.371,2.296l1.407-10.521l18.265,2.742l26.03,3.796
			l14.904,1.898l29.463,3.04l10.532,1.11l1.557-14.676L349.451,281.657L349.451,281.657z"/>
		<path id="NM_10_" fill="#225577" stroke="#F7F4EE" stroke-linecap="round" stroke-linejoin="round" stroke-miterlimit="10" d="
			M281.848,566.205l-0.743-4.464l7.347,0.632l26.661,2.531l26.662,1.477l2.1-21.934l3.568-51.25l1.47-17.294l1.259,0.026
			l-0.013-10.81l-30.305-2.217l-33.917-4.082l-31.646-3.799l-3.855,28.375l-6.396,49.081l-3.446,24.835l-1.882,12.278l14.196,1.834
			l1.187-9.244l15.289,2.385L281.848,566.205L281.848,566.205z"/>
		<path id="WI_10_" fill="#225577" stroke="#F7F4EE" stroke-linecap="round" stroke-linejoin="round" stroke-miterlimit="10" d="
			M584.227,351.468l0.132-3.891l-1.484-4.176l-0.593-5.667l-1.04-2.237l0.89-2.834l0.741-2.684l1.335-2.386l-0.594-3.132
			l-0.594-3.281l0.448-1.637l1.781-2.237l0.148-2.535l-0.741-1.194l0.594-2.386l0.445-2.982l2.524-5.219l2.671-6.264l0.148-2.089
			l-0.297-0.895l-0.742,0.447l-3.859,5.816l-2.524,3.728l-1.781,1.64l-0.742,2.089l-1.337,0.745l-1.04,1.79l-1.336-0.298
			l-0.148-1.64l1.188-2.237l1.929-4.325l1.635-1.492l1.007-2.114l-1.496-0.835l-1.258-1.266l-1.472-9.491l-3.359-1.055l-1.259-2.109
			l-11.545-2.53l-2.307-1.055l-7.556-2.109l-7.557-1.055l-3.829-4.986l-0.487,1.163l-1.041-0.149l-0.594-1.044l-2.524-0.745
			l-1.039,0.148l-1.635,0.895l-0.887-0.597l0.594-1.79l1.781-2.834l1.04-1.044l-1.781-1.342l-1.931,0.745l-2.671,1.79l-6.828,2.982
			l-2.671,0.597l-2.669-0.447l-0.901-0.81l-1.947,2.615l-0.21,2.53v7.804l-1.049,1.477l-4.828,3.586l-2.101,5.483l0.418,0.211
			l2.309,1.898l0.629,2.953l-1.679,2.953v3.586l0.42,6.116l2.729,2.741h3.149l1.679,2.953l3.146,0.422l3.568,5.272l6.508,3.797
			l1.889,2.531l0.841,6.855l0.629,3.058l2.103,1.477l0.21,1.266l-1.889,3.164l0.211,2.953l2.308,3.586l2.306,1.055l2.732,0.422
			l1.125,2.319h8.423l24.455-1.477L584.227,351.468L584.227,351.468z"/>
		<path id="FL_10_" fill="#225577" stroke="#F7F4EE" stroke-linecap="round" stroke-linejoin="round" stroke-miterlimit="10" d="
			M714.982,578.583l1.917,7.567l3.424,8.988l4.899,8.65l3.414,5.815l4.453,5.071l3.711,3.429l1.483,2.684l-1.041,1.194l-0.742,1.194
			l2.671,6.86l2.672,2.684l2.375,4.921l3.265,5.369l4.158,7.606l1.187,7.011l0.446,11.035l0.593,1.64l-0.295,3.132l-2.227,1.194
			l0.297,1.793l-0.594,1.791l0.295,2.235l0.446,1.792l-2.523,2.977l-2.818,1.341l-3.564,0.149l-1.337,1.491l-2.227,0.89
			l-1.188-0.447l-1.039-0.894l-0.297-2.684l-0.742-3.132l-3.118-4.774l-3.265-2.088l-3.563-0.297l-0.742,1.194l-2.819-4.028
			l-0.595-3.281l-2.375-3.728l-1.634-1.044l-1.484,1.938l-1.633-0.294l-1.93-4.63l-2.672-3.578l-2.671-4.916l-2.375-2.834
			l-3.266-3.429l1.93-2.237l2.97-5.071l-0.148-1.491l-4.158-0.894l-1.484,0.597l0.297,0.595l2.376,0.896l-1.336,4.175l-0.742,0.447
			l-1.635-3.725l-1.187-4.474l-0.295-2.535l1.336-4.325v-8.8l-2.818-3.429l-1.188-2.834l-4.749-1.194l-1.782-0.601l-1.483-2.384
			l-3.118-1.493l-1.04-3.132l-2.524-0.894l-2.227-3.431l-3.859-1.341l-2.67-1.343h-2.377l-3.712,0.746l-0.148,1.789l0.742,0.896
			l-0.446,1.044l-2.819-0.149l-3.412,3.283l-3.265,1.791h-3.565l-2.97,1.194l-0.295-2.537l-1.483-1.791l-2.672-1.045l-1.483-1.341
			l-7.421-3.58l-6.978-1.636l-4.007,0.597l-5.493,0.449l-5.493,1.938l-3.194,0.568l-0.218-7.429l-2.376-1.789l-1.635-1.64
			l0.297-2.834l9.352-1.194l23.451-2.684l6.236-0.597l5.641-0.148l2.376,3.578l1.336,1.341l7.272,0.149l9.936-0.599l19.754-1.196
			l4.999-0.619l4.202,0.024l0.148,2.684l2.376,0.744l0.295-4.026l-1.483-4.177l1.04-1.491l5.343,0.746L714.982,578.583
			L714.982,578.583z M726.338,701.544l2.227-0.597l1.188-0.223l1.336-2.163l2.152-1.491l1.188,0.447l1.557,0.299l0.375,0.968
			l-3.191,1.12l-3.859,1.341l-2.152,1.12L726.338,701.544z M738.733,696.92l1.113,0.97l2.524-1.944l4.901-3.878l3.412-3.58
			l2.304-6.113l0.887-1.566l0.148-3.132l-0.668,0.447l-0.89,2.616l-1.334,4.243l-2.971,4.848l-4.006,3.883l-3.118,1.789
			L738.733,696.92z"/>
		<path id="GA_10_" fill="#225577" stroke="#F7F4EE" stroke-linecap="round" stroke-linejoin="round" stroke-miterlimit="10" d="
			M654.421,498.648l-4.453,0.744l-7.718,1.044l-7.867,0.82v2.014l0.148,1.94l0.594,3.132l3.117,7.31l2.227,9.098l1.336,5.664
			l1.481,4.474l1.336,6.412l1.93,5.815l2.375,3.132l0.448,3.133l1.782,0.744l0.148,1.94l-1.635,4.473l-0.446,2.983l-0.148,1.791
			l1.484,4.026l0.295,4.921l-0.742,2.237l0.595,0.746l1.336,0.744l0.593,3.132l2.378,3.58l1.336,1.341l7.272,0.149l9.935-0.597
			l19.752-1.194l5.001-0.62l4.202,0.024l0.148,2.686l2.375,0.744l0.295-4.026l-1.48-4.177l1.039-1.491l5.343,0.746l4.57,0.292
			l-0.713-5.811l2.076-9.246l1.336-3.878l-0.445-2.385l3.711-6.412l-0.55-1.493l-1.675,0.894l-2.376-1.192l-0.588-1.94l-1.187-3.281
			l-2.075-1.938l-2.378-0.603l-1.481-4.473l-2.524-5.518l-3.859-1.789l-1.93-1.792l-1.187-2.385l-1.93-1.79l-2.078-1.194
			l-2.078-2.686l-2.818-2.089l-4.158-1.637l-0.446-1.343l-2.227-2.684l-0.445-1.341l-3.117-4.776l-3.118,0.149l-3.711-2.236
			l-1.188-1.195l-0.296-1.636l0.742-1.792l2.078-0.895l-0.148-2.108l-1.633,0.465l-5.343,0.896l-6.383,0.744L654.421,498.648
			L654.421,498.648z"/>
		<path id="MA_10_" fill="#225577" stroke="#F7F4EE" stroke-linecap="round" stroke-linejoin="round" stroke-miterlimit="10" d="
			M847.57,328.794l1.991-0.633l0.42-1.582l0.944,0.105l0.945,2.108l-1.157,0.422l-3.567,0.105L847.57,328.794L847.57,328.794z
			 M838.964,329.532l2.1-2.423h1.472l1.676,1.371l-2.204,0.949l-1.991,0.95L838.964,329.532z M807.012,309.247l16.028-3.878
			l2.077-0.596l1.931-2.982l3.431-1.534l2.653,4.071l-2.227,4.772l-0.297,1.342l1.784,2.386l1.039-0.745h1.635l2.077,2.386
			l3.563,5.517l3.264,0.447l2.078-0.895l1.635-1.64l-0.741-2.535l-1.93-1.492l-1.336,0.746l-0.89-1.193l0.447-0.447l1.931-0.149
			l1.634,0.745l1.781,2.237l0.89,2.684l0.295,2.237l-3.859,1.342l-3.564,1.79l-3.566,4.176l-1.781,1.342v-0.895l2.227-1.342
			l0.446-1.64l-0.742-2.833l-2.671,1.342l-0.74,1.342l0.445,2.088l-2.523,1.341l-2.522-4.177l-3.118-4.027l-1.484-1.044
			l-5.267,1.417l-4.675,0.969l-20.041,4.399l-0.887-5.294l0.594-9.768l4.749-0.82L807.012,309.247"/>
		<path id="VT_10_" fill="#225577" stroke="#F7F4EE" stroke-linecap="round" stroke-linejoin="round" stroke-miterlimit="10" d="
			M796.175,311.485l-0.741-5.22l-2.82-10.141l-0.594-0.298l-2.671-1.193l0.742-2.684l-0.742-1.939l-2.376-4.176l0.891-3.579
			l-0.742-4.772l-2.227-5.966l-0.737-4.541l24.931-6.643l0.297,5.368l1.781,2.535v3.729l-3.412,3.729l-2.377,1.044v1.044l1.04,1.64
			v7.904l-0.74,8.501l-0.148,4.474l0.888,1.193l-0.147,4.176l-0.447,1.64l1.337,1.864l-6.383,1.267L796.175,311.485z"/>
		<path id="PA_10_" fill="#225577" stroke="#F7F4EE" stroke-linecap="round" stroke-linejoin="round" stroke-miterlimit="10" d="
			M777.622,377.849l1.039-0.597l2.077-1.193l1.337-2.535l1.481-2.089l2.971-2.834v-0.745l-2.227-1.492l-3.265-2.237l-0.889-2.386
			l-2.523-0.298l-0.148-1.044l-0.742-2.535l2.077-1.044l0.148-2.237l-1.188-1.194l0.147-1.491l1.783-2.834v-2.834l2.15-2.237
			l-1.262-0.895l-2.375-0.148l-2.077-1.793l-2.227-4.921l-2.758-0.859l-2.142-1.975l-17.07,3.728l-39.484,8.053l-8.164,1.342
			l-0.453-6.535l-5.039,5.194l-1.188,0.447l-3.857,2.776l2.672,17.655l1.549,9.918l3.28,17.769l4.252-0.693l10.967-1.386
			l34.824-7.071l13.657-2.604l7.624-1.496l1.182-1.162l1.931-1.492L777.622,377.849L777.622,377.849z"/>
		<path id="VA_10_" fill="#225577" stroke="#F7F4EE" stroke-linecap="round" stroke-linejoin="round" stroke-miterlimit="10" d="
			M684.998,442.573l1.781,3.281l1.187,1.194l2.672,0.744l2.375-0.595l2.227-2.089c0,0,1.634,1.343,2.227,1.194
			c0.593-0.148,4.007-0.894,4.007-0.894l1.634-4.322l2.376,0.891l2.971-2.234l1.336,0.296l1.929-1.791l0.147-2.535l-0.742-1.194
			l4.601-9.992l1.93-6.114l0.295-4.027l1.635-0.149l1.484,2.536l1.188,0.745h2.374l1.04-5.07l0.296-2.834l3.117-0.298l0.446-2.088
			l2.82-2.237l0.593-1.491l1.484-2.536l0.446-1.939l0.148-4.921l4.157,1.64l5.196,2.834l0.742-4.698l3.859,1.864v2.684l5.047,1.193
			l1.781,1.193l0.889-1.79l2.076,1.492l-1.336,2.982l-0.295,2.535l-1.635,2.386v1.939l0.594,1.64l4.65,1.25l1.731,1.435l4.749,0.298
			l2.376,2.089l2.97,0.596l1.189,1.194l-0.448,4.175l0.89,0.895l0.148,2.088l1.188,1.939l-0.148,1.64l-2.969-1.044v0.895
			l1.783,1.492v1.044l1.336,1.044l1.186,1.491l0.148,2.088l-2.077,1.343l0.295,0.449l2.376-0.449l2.969-0.597l1.041-0.149
			l3.741,6.484l-4.482,1.568l-10.541,2.686l-17.597,3.527l-18.917,3.483l-15.737,2.385l-14.523,1.792l-6.553,1.195l-4.144-0.572
			l-1.945-0.025l-2.227,1.792l-7.272,0.149l-11.01,1.752l-9.181,0.859l2.531-1.271l5.195-3.133l3.565-1.94v-1.94l1.634-1.638
			l4.158-4.921l3.857-3.281L684.998,442.573L684.998,442.573z"/>
		<path id="WA_10_" fill="#225577" stroke="#F7F4EE" stroke-linecap="round" stroke-linejoin="round" stroke-miterlimit="10" d="
			M107.141,174.282l4.008,1.342l8.906,2.535l7.866,1.79l18.405,5.219l21.078,5.222l14.803,3.428l-0.923,3.583l-3.464,12.444
			l-4.094,19.192l-3.358,15.185l-0.177,8.948l-12.838-3.149l-13.854-3.269l-14.168,0.106l-0.419-1.266l-5.038,1.898l-4.094-0.528
			l-2.203-1.477l-1.156,0.633l-4.304-0.211l-1.574-1.266l-4.828-1.897l-0.734,0.105l-3.99-1.371l-1.783,1.687l-5.668-0.316
			l-5.459-3.796l0.63-0.739l0.211-7.171l-2.1-3.586l-3.778-0.528l-0.63-2.32l-2.16-0.43l-1.762-1.382l-1.634,0.895l-2.077-2.684
			l0.295-2.684l2.524-0.298l1.484-3.729l-2.376-1.044l0.148-3.43l4.008-0.597l-2.524-2.535l-1.337-6.563l0.594-2.684v-7.308
			l-1.634-2.982l2.078-8.65l1.931,0.447l2.227,2.684l2.524,2.386l2.968,1.79l4.157,1.938l2.819,0.597l2.672,1.342l3.117,0.895
			l2.078-0.149V188.3l1.187-1.044l1.93-1.193l0.297,1.044l0.295,1.64l-2.078,0.446l-0.296,1.939l1.634,1.342l1.04,2.237l0.593,1.79
			l1.336-0.149l0.148-1.194l-0.89-1.193l-0.446-2.982l0.742-1.64l-0.593-1.342v-2.089l1.634-3.281l-1.04-2.386l-2.227-4.474
			l0.296-0.746L107.141,174.282z M98.458,179.798l1.856-0.149l0.446,1.267l1.411-1.492h2.15l0.743,1.417l-1.41,1.566l0.594,0.745
			l-0.669,1.864l-1.261,0.374c0,0-0.815,0.075-0.815-0.223c0-0.295,1.336-2.385,1.336-2.385l-1.557-0.522l-0.297,1.342l-0.666,0.596
			l-1.411-2.088L98.458,179.798L98.458,179.798z"/>
		<path id="CO_10_" fill="#225577" stroke="#F7F4EE" stroke-linecap="round" stroke-linejoin="round" stroke-miterlimit="10" d="
			M366.121,466.201l3.778-60.738l1.47-20.671l-30.648-2.53l-22.462-1.898l-34.215-3.797l-18.997-2.32l-2.414,20.458l-2.937,20.669
			l-3.448,25.816l-1.382,10.248l-0.527,3.586l31.593,3.797l33.917,4.082l30.083,2.032l6.113,0.634l10.496,0.527"/>
		<path id="OR_10_" fill="#225577" stroke="#F7F4EE" stroke-linecap="round" stroke-linejoin="round" stroke-miterlimit="10" d="
			M150.64,331.853l4.093-16.662l3.991-16.345l1.26-3.902l2.307-5.483l-1.156-2.108l-2.308,0.105l-0.733-0.949l0.419-1.055
			l0.315-2.847l4.094-5.061l1.679-0.422l1.048-1.055l0.526-2.953l0.841-0.633l3.568-5.38l3.567-4.008l0.21-3.48l-3.149-2.423
			l-0.963-3.864l-12.891-3.307l-13.853-3.269l-14.168,0.105l-0.42-1.265l-5.036,1.897l-4.094-0.527l-2.204-1.477l-1.157,0.633
			l-4.304-0.211l-1.574-1.266l-4.828-1.897l-0.735,0.105l-3.989-1.371l-1.785,1.687l-5.668-0.316l-5.459-3.797l0.63-0.738
			l0.212-7.171l-2.1-3.586l-3.779-0.528l-0.63-2.32l-2.161-0.43l-5.324,1.899l-2.078,5.966l-2.969,9.246l-2.97,5.966l-4.602,12.975
			l-5.936,12.527l-7.421,11.632l-1.782,2.684l-0.743,7.904l-1.187,5.517l2.045,4.142l6.475,2.225l10.496,2.741l6.927,1.898
			l11.545,3.797l12.386,3.164l12.386,3.586 M150.372,332.225l-43.08-10.204l30.858,7.511l12.594,2.741"/>
		<path fill="#225577" stroke="#F7F4EE" stroke-linecap="round" stroke-linejoin="round" stroke-miterlimit="10" d="
			M789.495,403.203l-5.638,1.192l-4.602,0.149l-1.481-5.816l-1.93-8.948l-2.077-5.22l-1.183-4.058l-7.622,1.497l-13.659,2.604
			l-34.387,6.966l1.04,4.623l0.888,5.22l0.295-0.298l1.93-2.237l2.077-2.834l2.227-0.148l1.336-1.342l1.635-2.386l1.188,0.596
			l2.669-0.298l2.376-1.939l1.842-1.34l1.694-0.447l1.512,1.042l2.67,1.342l1.783,1.64l1.113,1.417l3.784,1.565v2.684l5.047,1.193
			l1.781,1.193l0.89-1.79l2.076,1.492l-1.334,2.982l-0.297,2.535l-1.633,2.387v1.939l0.594,1.64l4.649,1.25l3.958-0.057l2.821,0.895
			l1.929,0.295l0.888-1.938l-1.336-1.939v-1.64l-2.227-1.938l-1.93-5.071l1.188-4.921l-0.148-1.938l-1.188-1.194
			c0,0,1.337-1.491,1.337-2.088s0.445-1.939,0.445-1.939l1.782-1.193l1.783-1.492l0.446,0.895l-1.337,1.492l-1.187,3.43l0.295,1.044
			l1.635,0.298l0.445,5.071l-1.93,0.895l0.296,3.281l0.445-0.149l1.04-1.79l1.483,1.64l-1.483,1.193l-0.295,3.132l2.375,3.133
			l3.564,0.447l1.483-0.746l2.97,4.772l1.635,0.447v3.281l-2.078,4.473l-0.446,6.413l1.336,3.132l1.337,0.149l1.782-3.877
			l0.741-3.281l0.148-6.563l2.819-4.474l1.929-6.413v-5.217L789.495,403.203L789.495,403.203z"/>
	</g>
	<g>
		<path id="AL_11_" fill="#225577" stroke="#F7F4EE" stroke-linecap="round" stroke-linejoin="round" stroke-miterlimit="10" d="
			M595.849,599.172l-1.481-14.025l-2.525-17.306l0.145-12.979l0.743-28.643l-0.147-15.366l0.15-5.924l7.124-0.341l25.539-2.387
			l9.342-0.818l-0.138,2.015l0.15,1.943l0.593,3.133l3.118,7.312l2.227,9.1l1.334,5.668l1.485,4.476l1.336,6.415l1.929,5.815
			l2.377,3.134l0.447,3.133l1.785,0.745l0.145,1.941l-1.633,4.476l-0.446,2.983l-0.149,1.793l1.485,4.027l0.295,4.923l-0.742,2.238
			l0.594,0.747l1.336,0.743l0.742,3.284h-5.791l-6.237,0.597l-23.461,2.685l-9.356,1.194l-0.295,2.835l1.636,1.641l2.376,1.789
			l0.532,7.324l-6.028,2.375l-2.525-0.295l2.525-1.793v-0.896l-2.819-5.52l-2.078-0.597l-1.336,4.029l-1.188,2.54l-0.594-0.148
			h-2.523v-0.006h0.003L595.849,599.172L595.849,599.172z"/>
		<path id="IL_11_" fill="#225577" stroke="#F7F4EE" stroke-linecap="round" stroke-linejoin="round" stroke-miterlimit="10" d="
			M589.316,446.849v-3.43l0.446-4.179l2.079-2.685l1.633-3.58l2.376-3.88l-0.446-5.371l-1.634-2.536l-0.296-2.983l0.743-5.073
			l-0.446-6.415l-1.191-14.77l-1.187-14.173l-0.743-10.742l-1.188-0.746l-0.743-2.386l-1.188-3.431l-1.482-1.641l-1.337-2.386
			l-0.217-5.066l-9.092,1.211l-24.989,1.582l-7.983-0.396l0.213,2.189l2.101,0.633l0.84,1.055l0.419,1.688l3.568,3.165l0.628,2.109
			l-0.628,3.165l-1.678,3.375l-0.63,2.321l-2.102,1.688l-1.679,0.633l-4.83,1.266l-0.628,1.687l-0.63,1.899l0.63,1.266l1.678,1.477
			l-0.211,3.797l-1.68,1.478l-0.629,1.477v2.532l-1.677,0.422l-1.473,1.055l-0.21,1.266l0.21,1.899l-1.575,1.213l-0.944,2.584
			l0.419,3.375l2.101,6.751l6.722,6.962l5.04,3.375l-0.212,4.009l0.842,1.266l5.881,0.422l2.519,1.266l-0.63,3.375l-2.102,5.484
			l-0.63,2.953l2.104,3.587l5.88,4.853l4.199,0.632l1.89,4.64l1.89,2.953l-0.84,2.74l1.47,3.8l1.679,1.9l2.724-0.311l0.528-1.892
			l2.079-1.64l1.93-0.597l2.524,1.194l3.266,1.195l1.04-0.298l0.149-2.088l-1.188-2.238l0.295-2.088l1.784-1.342l2.377-0.597
			l1.482-0.597l-0.739-1.641l-0.595-1.791l1.041-0.745L589.316,446.849L589.316,446.849z"/>
	</g>
</g>
</svg>
