<svg xmlns="http://www.w3.org/2000/svg" viewBox="0 0 600 600"><defs><style>.cls-1{fill:#00d1c3;}.cls-2{fill:#fff;}</style></defs><g id="Layer_2" data-name="Layer 2"><g id="Layer_1-2" data-name="Layer 1"><g id="Ellipse_236" data-name="Ellipse 236"><circle class="cls-1" cx="300" cy="300" r="300"/></g><g id="Group_863" data-name="Group 863"><g id="Ellipse_185" data-name="Ellipse 185"><path class="cls-2" d="M286.1,270a60.23,60.23,0,1,1,60.22-60.23A60.29,60.29,0,0,1,286.1,270Zm0-106.45a46.23,46.23,0,1,0,46.22,46.22A46.27,46.27,0,0,0,286.1,163.59Z"/></g><g id="Path_1158" data-name="Path 1158"><path class="cls-2" d="M279.84,386.43H174.35v-7a111.76,111.76,0,0,1,216.18-39.85l-13.08,5A97.77,97.77,0,0,0,188.6,372.43h91.24Z"/></g></g><g id="Group_864" data-name="Group 864"><g id="Path_1159" data-name="Path 1159"><polygon class="cls-2" points="251.72 450.76 239.43 444.06 315.31 304.72 379.69 335.72 443.84 218.77 456.12 225.51 385.58 354.09 321.24 323.11 251.72 450.76"/></g><g id="Group_462" data-name="Group 462"><g id="Polygon_8" data-name="Polygon 8"><polygon class="cls-2" points="449.67 262.27 446.86 228.37 419.02 247.94 410.97 236.49 458.8 202.86 463.62 261.12 449.67 262.27"/></g></g></g></g></g></svg>