<svg xmlns="http://www.w3.org/2000/svg" viewBox="0 0 600 600"><defs><style>.cls-1{fill:#5ca958;}.cls-2{fill:none;}.cls-3{fill:#fff;}</style></defs><g id="Layer_2" data-name="Layer 2"><g id="Layer_1-2" data-name="Layer 1"><g id="Ellipse_235" data-name="Ellipse 235"><circle class="cls-1" cx="300" cy="300" r="300"/></g><g id="Ellipse_237" data-name="Ellipse 237"><ellipse class="cls-2" cx="300" cy="297.5" rx="170" ry="172.5"/><path class="cls-3" d="M300,467c-92.08,0-167-76-167-169.5S207.92,128,300,128s167,76,167,169.5S392.08,467,300,467Zm0-325c-84.36,0-153,69.76-153,155.5S215.64,453,300,453s153-69.76,153-155.5S384.36,142,300,142Z"/></g><path class="cls-3" d="M293.87,392.72V375.5c-27.86-2.11-46.93-19.76-47.62-44.3l-.12-4h13.55l.08,3.8c.38,17.56,13.4,29.48,34.11,31.39V302.71c-18-2.64-43.94-7.2-43.94-38.79,0-24.3,17.59-42,43.94-44.37V202.28h13.52v17.54c25,2.58,42.09,19.54,42.8,42.6l.12,4H336.79l-.13-3.75c-.53-16.34-11.43-27.33-29.27-29.69V290.9c20.05,2.84,46.48,7.27,46.48,39,0,25-18.19,42.72-46.48,45.49v17.31Zm13.52-30.41c20.53-2.32,32.72-14.32,32.72-32.37,0-17-10.56-21.94-32.72-25.4ZM293.87,232.68c-18.94,2.17-30.19,13.74-30.19,31.23,0,16.82,11,22.15,30.19,25.19Z"/></g></g></svg>