<svg version="1.1" id="Layer_1" xmlns="http://www.w3.org/2000/svg" xmlns:xlink="http://www.w3.org/1999/xlink" x="0px" y="0px"
	 viewBox="133 176.1 986.8 220" style="enable-background:new 133 176.1 986.8 220;" xml:space="preserve">
<style type="text/css">
	.st0{fill:#E9AE6C;}
	.st1{fill:#DC8650;}
	.st2{fill:#C22E33;}
	.st3{fill:#922A46;}
	.st4{opacity:0.3;fill:#922A46;enable-background:new    ;}
	.st5{opacity:0.3;fill:#D13239;enable-background:new    ;}
	.st6{opacity:0.3;fill:#D3663B;enable-background:new    ;}
	.st7{opacity:0.3;fill:#E9AE6C;enable-background:new    ;}
	.st8{opacity:0.15;fill:#922A46;enable-background:new    ;}
	.st9{opacity:0.15;fill:#D13239;enable-background:new    ;}
	.st10{opacity:0.15;fill:#D3663B;enable-background:new    ;}
	.st11{opacity:0.15;fill:#E9AE6C;enable-background:new    ;}
	.st12{fill:#751E32;}
	.st13{fill:#641326;}
	.st14{fill:none;}
	.st15{fill:#858688;}
	.st16{fill:#D3663B;}
	.st17{fill:#F7F4EE;}
	.st18{fill:#F1EDE4;}
	.st19{fill:#C05D34;}
	.st20{fill:#747677;}
	.st21{fill:#E7786F;}
	.st22{fill:#D13239;}
	.st23{opacity:0.2;fill:#555759;enable-background:new    ;}
	.st24{fill:#CF9C61;}
	.st25{fill:#C28F5B;}
	.st26{fill:#A62C31;}
	.st28{font-size:21.0079px;}
	.st29{display:none;}
</style>
<g id="graph-waste-volume-group">
	<g>
		<g>
			<g>
				<rect x="703.9" y="324.3" class="st0" width="407" height="32.2"/>
			</g>
		</g>
		<g>
			<g>
				<rect x="306.6" y="324.3" class="st1" width="397.3" height="32.2"/>
			</g>
		</g>
		<g>
			<g>
				<rect x="296.9" y="324.3" class="st2" width="9.7" height="32.2"/>
			</g>
		</g>
		<g>
			<g>
				<rect x="141.9" y="324.3" class="st3" width="155" height="32.2"/>
			</g>
		</g>
		<polygon class="st4" points="141.9,324.3 141.9,308.1 242.1,308.1 296.9,324.3 		"/>
		<polygon class="st5" points="296.9,324.3 306.6,324.3 368.8,308.1 268.6,308.1 		"/>
		<polygon class="st6" points="306.6,324.3 455.1,308.1 555.4,308.1 703.9,324.3 		"/>
		<polygon class="st7" points="703.9,324.3 856.2,308.1 956.4,308.1 1110.9,324.3 		"/>
		<rect x="141.9" y="184.6" class="st8" width="100.2" height="123.5"/>
		<rect x="268.6" y="184.6" class="st9" width="100.2" height="123.5"/>
		<rect x="455.1" y="184.6" class="st10" width="100.2" height="123.5"/>
		<rect x="856.2" y="184.6" class="st11" width="100.2" height="123.5"/>
		<g>
			<g>
				<polygon class="st12" points="168,219.6 192,208 216,219.6 221.7,244.8 230.5,244.8 223.4,213.7 192,198.6 160.6,213.7 
					153.5,244.7 153.5,244.8 162.2,244.8 				"/>
				<polygon class="st3" points="176.5,243.3 178.9,243.3 192,243.3 192,237.6 178.9,237.6 176.5,237.6 176.5,235.2 176.5,227.4 
					176.5,225 178.9,225 192,225 192,208 168,219.6 162.2,244.8 176.5,244.8 				"/>
				<rect x="178.9" y="227.4" class="st3" width="11.9" height="7.8"/>
				<polygon class="st3" points="178.9,247.2 178.9,266.3 190.1,256.8 				"/>
				<polygon class="st3" points="180.8,267.9 192,267.9 192,258.4 				"/>
				<polygon class="st3" points="176.5,244.8 162.2,244.8 162,245.7 162,267.9 176.5,267.9 176.5,245.7 				"/>
				<polygon class="st3" points="180.8,245.7 192,255.2 192,245.7 				"/>
				<polygon class="st12" points="192,208 192,225 205,225 207.4,225 207.4,227.4 207.4,235.2 207.4,237.6 205,237.6 192,237.6 
					192,243.3 205,243.3 207.4,243.3 207.4,244.8 221.7,244.8 216,219.6 				"/>
				<rect x="193.2" y="227.4" class="st12" width="11.9" height="7.8"/>
				<polygon class="st12" points="192,258.4 192,267.9 203.2,267.9 192,258.4 				"/>
				<polygon class="st12" points="205,266.3 205,247.2 193.8,256.8 				"/>
				<polygon class="st12" points="192,255.2 192,255.2 203.2,245.7 192,245.7 				"/>
				<polygon class="st12" points="207.4,245.7 207.4,267.9 222,267.9 222,245.9 221.7,244.8 207.4,244.8 				"/>
				<polygon class="st13" points="192,208 216,219.6 221.7,244.8 230.5,244.8 223.4,213.7 192,198.6 				"/>
			</g>
		</g>
		<g>
			<g>
				<polygon class="st14" points="473.6,267.9 473.6,233.5 473.6,228.4 473.6,225.9 473.6,265.5 516.4,267.9 516.4,267.9 				"/>
				<polygon class="st14" points="530.9,267.9 518.8,267.9 518.8,267.9 530.9,267.9 				"/>
				<polygon class="st14" points="533.4,267.9 536.9,267.9 536.9,267.9 				"/>
				<rect x="510.3" y="240.6" class="st15" width="0" height="17.8"/>
				<path class="st16" d="M473.6,233.5v34.4h42.8v-27.3v-2.4h2.4h12.1h2.4v2.4v27.3h3.5v-34.4L473.6,233.5L473.6,233.5z
					 M512.7,240.6v17.8v2.4h-2.4h-30.5h-2.4v-2.4v-17.8v-2.4h2.4h30.5h2.4V240.6z"/>
				<rect x="530.9" y="240.6" class="st16" width="0" height="27.3"/>
				<polygon class="st17" points="479,225.9 479,225.9 479,226 				"/>
				<polygon class="st17" points="531.5,225.9 531.5,225.9 531.5,226 				"/>
				<rect x="536.9" y="233.5" class="st17" width="0" height="34.4"/>
				<rect x="518.8" y="240.6" class="st16" width="12.1" height="27.3"/>
				<rect x="532.1" y="266.7" class="st17" width="0" height="2.4"/>
				<polygon class="st17" points="516.4,267.9 518.8,267.9 518.8,267.9 				"/>
				<rect x="479.7" y="240.6" class="st18" width="30.5" height="17.8"/>
				<path class="st17" d="M479.7,238.1h-2.4v2.4v17.8v2.4h2.4h30.5h2.4v-2.4v-17.8v-2.4h-2.4H479.7z M510.3,258.3L510.3,258.3h-30.5
					v-17.8h30.5l0,0V258.3z"/>
				<rect x="473.6" y="228.4" class="st19" width="63.3" height="5.2"/>
				<rect x="536.9" y="228.4" class="st20" width="0" height="5.2"/>
				<polygon class="st21" points="489.9,226 489.9,225.9 479,225.9 479,226 				"/>
				<polygon class="st22" points="489.9,225.9 489.9,226 500.7,226 500.7,225.9 				"/>
				<polygon class="st22" points="479,225.9 473.6,225.9 471.2,225.9 471.2,226 479,226 				"/>
				<polygon class="st21" points="520.6,226 531.5,226 531.5,225.9 520.6,225.9 				"/>
				<polygon class="st22" points="509.8,225.9 509.8,226 520.6,226 520.6,225.9 				"/>
				<polygon class="st22" points="539.3,226 539.3,225.9 536.9,225.9 531.5,225.9 531.5,226 				"/>
				<rect x="500.7" y="225.9" class="st21" width="9" height="0.1"/>
				<rect x="473.6" y="207.4" class="st16" width="63.3" height="5.3"/>
				<polygon class="st18" points="491.7,212.5 482.6,212.5 479,228.6 489.9,228.6 				"/>
				<polygon class="st22" points="500.7,228.6 500.7,212.5 491.7,212.5 489.9,228.6 				"/>
				<polygon class="st22" points="473.6,228.6 479,228.6 482.6,212.5 473.6,212.5 468.1,228.6 471.2,228.6 471.2,228.6 				"/>
				<polygon class="st18" points="531.5,228.6 527.9,212.5 518.8,212.5 520.6,228.6 				"/>
				<polygon class="st22" points="520.6,228.6 518.8,212.5 509.8,212.5 509.8,228.6 				"/>
				<polygon class="st22" points="539.3,228.6 539.3,228.6 542.4,228.6 536.9,212.5 527.9,212.5 531.5,228.6 536.9,228.6 				"/>
				<rect x="500.7" y="212.5" class="st18" width="9" height="16.1"/>
				<polygon class="st23" points="505.3,267.8 536.9,267.9 536.9,228.4 542.4,228.6 536.9,212.7 536.9,207.4 505.3,207.4 				"/>
			</g>
		</g>
		<g>
			<g>
				<polygon class="st0" points="907.4,206.9 878,231.1 878,267.9 936.8,267.9 936.8,231.1 				"/>
				<g>
					<g>
						<rect x="881.7" y="236.2" class="st18" width="11.1" height="10"/>
						<path class="st24" d="M893.9,247.3h-13.3v-12.2h13.3V247.3z M882.8,245.1h8.9v-7.8h-8.9V245.1z"/>
					</g>
					<g>
						<rect x="892.8" y="236.2" class="st18" width="11.1" height="10"/>
						<path class="st24" d="M905,247.3h-13.3v-12.2H905V247.3z M893.9,245.1h8.9v-7.8h-8.9V245.1z"/>
					</g>
					<g>
						<rect x="881.7" y="246.2" class="st18" width="11.1" height="10"/>
						<path class="st24" d="M893.9,257.3h-13.3v-12.2h13.3V257.3z M882.8,255.1h8.9v-7.8h-8.9V255.1z"/>
					</g>
					<g>
						<rect x="892.8" y="246.2" class="st18" width="11.1" height="10"/>
						<path class="st24" d="M905,257.3h-13.3v-12.2H905V257.3z M893.9,255.1h8.9v-7.8h-8.9V255.1z"/>
					</g>
				</g>
				<polygon class="st24" points="907.4,206.9 907.5,267.9 936.8,267.9 936.8,231.1 				"/>
				<polygon class="st25" points="878,231.1 907.4,206.9 936.8,231.1 936.8,231.2 944.7,231.2 907.4,200.3 870.1,231.2 878,231.2 
									"/>
				<rect x="914.9" y="236.2" class="st25" width="16.8" height="31.7"/>
			</g>
		</g>
		<g>
			<g>
				<path class="st22" d="M285.2,267.9H353l-4.5-67.3h-8.9l-3.1,34.8c0,0.3-16.7-6-16.7-6v6.3c0,0.3-17.3-6.3-17.3-6.3v6.3
					c0,0.3-17.3-6.3-17.3-6.3L285.2,267.9L285.2,267.9z"/>
				<path class="st26" d="M291,259.1h8v-13.7h-8V259.1z"/>
				<path class="st26" d="M306.4,259.1h8v-13.7h-8V259.1z"/>
				<path class="st26" d="M321.7,259.1h8v-13.7h-8V259.1z"/>
				<path class="st26" d="M337.1,259.1h8v-13.7h-8V259.1z"/>
			</g>
			<polygon class="st26" points="344.1,200.6 344.1,238.1 351.2,240.6 348.5,200.6 			"/>
		</g>
	</g>
	<text transform="matrix(1 0 0 1 171.5546 293.5142)" class="st3 st27 st28">10M</text>
	<text transform="matrix(1 0 0 1 305.6745 293.5137)" class="st22 st27 st28">1M</text>
	<text transform="matrix(1 0 0 1 484.6472 293.5142)" class="st16 st27 st28">25M</text>
	<text transform="matrix(1 0 0 1 884.8112 293.5142)" class="st0 st27 st28">27M</text>
	<text transform="matrix(1 0 0 1 171.5546 384.5142)" class="st3 st27 st28">16%</text>
	<text transform="matrix(1 0 0 1 305.6745 384.5137)" class="st22 st27 st28">2%</text>
	<text transform="matrix(1 0 0 1 484.6472 384.5142)" class="st16 st27 st28">40%</text>
	<text transform="matrix(1 0 0 1 884.8112 384.5142)" class="st0 st27 st28">43%</text>
</g>
</svg>
