<svg version="1.1" xmlns="http://www.w3.org/2000/svg" xmlns:xlink="http://www.w3.org/1999/xlink" x="0px" y="0px"
	 viewBox="0 0 1037.421 276.727" enable-background="new 0 0 1037.421 276.727" xml:space="preserve">
<g id="bottom">
	<g opacity="0.2">
		<g>
			<line fill="none" stroke="#555759" stroke-miterlimit="10" x1="3.56" y1="217.812" x2="986.752" y2="217.812"/>
		</g>
	</g>
	<g opacity="0.2">
		<g>
			<line fill="none" stroke="#555759" stroke-miterlimit="10" x1="3.56" y1="156.45" x2="986.752" y2="156.45"/>
		</g>
	</g>
	<g opacity="0.2">
		<g>
			<line fill="none" stroke="#555759" stroke-miterlimit="10" x1="3.56" y1="95.089" x2="986.752" y2="95.089"/>
		</g>
	</g>
	<g opacity="0.2">
		<g>
			<line fill="none" stroke="#555759" stroke-miterlimit="10" x1="3.56" y1="33.728" x2="986.752" y2="33.728"/>
		</g>
	</g>
	<g>
		<g>
			<rect x="814.956" y="40.265" fill="#E8AE6C" width="162.92" height="178.045"/>
		</g>
	</g>
	<g>
		<g>
			<rect x="544.491" y="143.606" fill="#DA844F" width="162.92" height="74.704"/>
		</g>
	</g>
	<g>
		<g>
			<rect x="274.026" y="217.314" fill="#D13239" width="162.92" height="0.996"/>
		</g>
	</g>
	<g>
		<g>
			<rect x="3.561" y="189.425" fill="#922B47" width="162.92" height="28.886"/>
		</g>
	</g>
	<text transform="matrix(1 0 0 1 60.2386 179.4247)" fill="#922B47" font-size="21.5871px">$15B</text>
	<text transform="matrix(1 0 0 1 335.2262 207.3142)" fill="#D13239" font-size="21.5871px">$2B</text>
	<text transform="matrix(1 0 0 1 599.7226 133.6061)" fill="#DA844F" font-size="21.5871px">$57B</text>
	<text transform="matrix(1 0 0 1 865.3091 30.2655)" fill="#E8AE6C" font-size="21.5871px">$144B</text>
	<g>
		<text transform="matrix(1 0 0 1 60.8914 245.816)" fill="#555759" font-size="15.2091px">FARMS</text>
	</g>
	<g>
		<text transform="matrix(1 0 0 1 292.3611 249.5804)" fill="#555759" font-size="15.2091px">MANUFACTURERS</text>
	</g>
	<g>
		<text transform="matrix(1 0 0 1 870.553 249.5804)" fill="#555759" font-size="15.2091px">HOMES</text>
	</g>
	<g>
		<text transform="matrix(1 0 0 1 556.3852 249.5792)"><tspan x="0" y="0" fill="#555759" font-size="15.2091px">CONSUMER-FACING</tspan><tspan x="26.38" y="17.662" fill="#555759" font-size="15.2091px">BUSINESSES</tspan></text>
	</g>
	<g>
		<text transform="matrix(1 0 0 1 1000.4211 33.7276)" fill="#555759" font-size="12px">$150B</text>
	</g>
	<g>
		<text transform="matrix(1 0 0 1 1000.4211 93.3839)" fill="#555759" font-size="12px">$100B</text>
	</g>
	<g>
		<text transform="matrix(1 0 0 1 1000.4211 153.0402)" fill="#555759" font-size="12px">$50B</text>
	</g>
	<g>
		<text transform="matrix(1 0 0 1 1000.4211 212.6966)" fill="#555759" font-size="12px">$0</text>
	</g>
</g>
</svg>
