<?xml version="1.0" encoding="utf-8"?>
<!-- Generator: Adobe Illustrator 20.1.0, SVG Export Plug-In . SVG Version: 6.00 Build 0)  -->
<svg version="1.1" id="Layer_1" xmlns="http://www.w3.org/2000/svg" xmlns:xlink="http://www.w3.org/1999/xlink" x="0px" y="0px"
	 viewBox="0 0 900 900" enable-background="new 0 0 900 900" xml:space="preserve">
<g>
	<g>
		<path id="CT_2_" fill="#E2DCCA" stroke="#F4F1E9" stroke-width="0.8632" stroke-miterlimit="10" d="M823.241,334.232l-0.884-3.866
			l-0.739-4.013l-1.479-5.5l-4.733,1.041l-19.974,4.385l0.592,3.047l1.331,6.689v7.431l-1.036,2.081l1.677,1.939l4.534-3.127
			l3.254-2.972l1.776-1.932l0.739,0.594l2.515-1.338l4.733-1.041L823.241,334.232z"/>
		<path id="NJ_2_" fill="#E2DCCA" stroke="#F4F1E9" stroke-width="0.8632" stroke-miterlimit="10" d="M780.786,343.892l-1.922,2.229
			v2.824l-1.777,2.824l-0.145,1.487l1.184,1.19l-0.148,2.23l-2.071,1.041l0.74,2.526l0.148,1.041l2.514,0.297l0.885,2.378
			l3.254,2.229l2.219,1.487v0.743l-2.961,2.824l-1.476,2.082l-1.331,2.526l-2.07,1.189l-1.111,0.668l-0.221,1.115l-0.558,2.396
			l1.001,2.063l2.958,2.675l4.438,2.081l3.699,0.594l0.147,1.338l-0.738,0.892l0.294,2.526h0.739l1.922-2.23l0.74-4.459l2.515-3.716
			l2.809-5.946l1.037-5.053l-0.593-1.041l-0.147-8.621l-1.477-3.121l-1.038,0.744l-2.514,0.297l-0.445-0.446l1.037-0.892
			l1.922-1.784l0.058-1.006l-0.352-3.157l0.444-2.526l-0.148-1.932l-2.367-1.041l-4.143-0.892l-3.553-1.041L780.786,343.892
			L780.786,343.892z"/>
		<path id="NV_2_" fill="#E2DCCA" stroke="#F4F1E9" stroke-width="0.8632" stroke-miterlimit="10" d="M151.649,332.161l19.2,4.148
			l8.893,1.786l8.472,1.682l7.374,1.944l-1.098,5.097l-3.242,16.081l-3.451,18.813l-1.781,8.198l-1.985,12.507l-3.035,15.24
			l-2.928,13.978l-1.801,9.655l-2.696,16.304l-0.418,0.42l-1.57,2.417l-2.3-0.105l-1.152-2.523l-2.51-0.315l-0.837-1.051h-0.835
			l-0.836,0.527l-1.781,0.945l-0.103,6.411l-0.211,1.58l-0.523,11.56l-1.357,2.023l-2.304-2.966l-13.285-20.917l-17.782-26.695
			l-20.817-31.109l-11.332-17.085l1.497-6.037l6.383-23.857l7.217-28.821l30.754,7.483l12.552,2.732"/>
		<path id="AK_2_" fill="#E2DCCA" stroke="#F4F1E9" stroke-width="0.8632" stroke-miterlimit="10" d="M167.591,586.013
			l-0.294,78.478l1.479,0.893l2.809,0.147l1.331-1.042h2.367l0.148,2.675l6.361,6.244l0.444,2.377l3.107-1.786l0.591-0.145
			l0.295-2.824l1.332-1.486l1.035-0.149l1.775-1.337l2.811,1.932l0.591,2.675l1.775,1.042l1.036,2.229l3.552,1.63l3.106,5.5
			l2.514,3.566l2.071,2.528l1.33,3.417l4.585,1.635l4.734,1.934l0.885,4.012l0.446,2.824l-0.887,3.122l-1.627,2.081l-1.479-0.742
			l-1.332-2.824l-2.514-1.339l-1.628-1.042l-0.739,0.744l1.331,2.532l0.146,3.419l-1.035,0.446l-1.775-1.785l-1.923-1.193
			l0.445,1.486l1.182,1.635l-0.738,0.742c0,0-0.74-0.296-1.184-0.891c-0.444-0.595-1.924-3.121-1.924-3.121l-0.885-2.081
			c0,0-0.295,1.19-0.886,0.891c-0.593-0.296-1.184-1.337-1.184-1.337l1.629-1.785l-1.332-1.339v-4.613h-0.74l-0.74,3.122
			l-1.035,0.446l-0.888-3.417l-0.591-3.419l-0.74-0.446l0.296,5.202v1.042l-1.332-1.19l-3.255-5.498l-1.923-0.45l-0.591-3.417
			l-1.478-2.675l-1.478-1.042v-2.074l1.923-1.19l-0.445-0.296l-2.368,0.595l-3.106-2.229l-2.367-2.675l-4.438-2.377l-3.699-2.376
			l1.184-2.971v-1.488l-1.629,1.488l-2.661,1.042l-3.402-1.042l-5.177-2.228h-5.03l-0.591,0.446l-5.917-3.568l-1.921-0.293
			l-2.515-5.355l-3.255,0.296l-3.253,1.339l0.444,4.161l1.038-2.675l0.885,0.296l-1.332,4.012l2.96-2.526l0.593,1.486l-3.553,4.014
			l-1.183-0.296l-0.445-1.786l-1.182-0.742l-1.185,1.042l-2.513-1.635l-2.81,1.932l-1.629,1.933l-3.106,1.932l-4.29-0.149
			l-0.444-1.932l3.401-0.595v-1.19l-2.07-0.595l0.886-2.228l2.07-3.568v-1.635l0.148-0.742l3.992-2.082l0.888,1.19h2.514
			l-1.183-2.376l-3.401-0.298l-4.586,2.532l-2.219,3.121l-1.627,2.377l-1.036,2.081l-3.848,1.339l-2.808,2.376l-0.296,1.486
			l2.071,0.891l0.74,1.934l-2.515,2.971l-5.917,3.865l-7.1,3.865l-1.922,1.042l-4.884,1.041l-4.882,2.081l1.63,1.193l-1.333,1.337
			l-0.445,1.041l-2.515-0.893l-2.959,0.149l-0.739,2.081h-0.887l0.295-2.229l-3.254,1.193l-2.663,0.887l-3.106-1.188l-2.661,1.786
			h-2.961l-1.923,1.19l-1.477,0.744l-1.924-0.298l-2.368-1.041l-2.069,0.595l-0.887,0.891l-1.479-1.042v-1.783l2.81-1.192
			l5.77,0.597l3.992-1.488l1.923-1.933l2.663-0.595l1.629-0.744l2.515,0.149l1.477,1.192l0.887-0.296l2.07-2.528l2.81-0.891
			l3.106-0.595l1.183-0.296l0.593,0.45h0.739l1.183-3.419l3.699-1.341l1.776-3.419l2.07-4.161l1.478-1.339l0.296-2.376l-1.479,1.19
			l-3.106,0.595l-0.592-2.228l-1.184-0.296l-0.886,0.891l-0.148,2.675l-1.331-0.149l-1.33-5.351l-1.185,1.19l-1.036-0.446
			l-0.294-1.786l-3.7,0.149l-1.924,1.042l-2.367-0.296l1.332-1.339l0.444-2.377l-0.592-1.785l1.332-0.891l1.183-0.149l-0.592-1.633
			v-4.014l-0.887-0.891l-0.739,1.337h-5.62l-1.33-1.188l-0.591-3.568l-1.924-3.27v-0.891l1.924-0.744l0.146-1.932l1.038-1.041
			l-0.74-0.448l-1.184,0.448l-1.036-2.53l0.886-4.607l4.142-2.971l2.369-1.488l1.775-3.417l2.514-1.19l2.367,1.042l0.294,2.226
			l2.219-0.293l2.96-2.229l1.478,0.595l0.887,0.595h1.477l2.071-1.19l0.741-4.023c0,0,0.294-2.677,0.888-3.122
			c0.591-0.448,0.885-0.893,0.885-0.893l-1.036-1.783l-2.368,0.742l-2.96,0.744l-1.775-0.446l-3.255-1.635l-4.586-0.149
			l-3.253-3.419l0.445-3.566l0.591-2.228l-1.923-1.635l-1.777-3.419l0.446-0.742l6.213-0.446h1.923l0.886,0.889h0.593l-0.148-1.486
			l3.551-0.595l2.366,0.296l1.331,1.041l-1.331,1.935l-0.444,1.337l2.515,1.486l4.585,1.633l1.629-0.891l-2.07-4.012l-0.887-2.971
			l0.887-0.744l-3.106-1.785l-0.445-1.041l0.445-1.488l-0.74-3.566l-2.663-4.31l-2.219-3.865l2.663-1.787h2.96l1.627,0.601
			l3.847-0.147l3.402-3.27l1.036-2.824l3.402-2.229l1.478,0.891l2.513-0.595l3.402-1.937l1.037-0.143l0.886,0.738l4.142-0.143
			l2.515-2.824h1.037l3.255,2.229l1.775,1.933l-0.445,1.041l0.591,1.041l1.479-1.486l3.551,0.296l0.294,3.419l1.776,1.337
			l6.508,0.595l5.769,3.865l1.331-0.891l4.733,2.377l1.922-0.595l1.775-0.742l4.439,1.783l3.993,2.677v-0.002h0.007v-0.01H167.591z
			 M62.26,612.619l1.923,4.905l-0.148,0.891l-2.662-0.296l-1.628-3.715l-1.629-1.339h-2.219l-0.148-2.376l1.627-2.229l1.038,2.229
			l1.331,1.337L62.26,612.619z M59.891,643.387l3.402,0.744l3.402,0.891l0.74,0.893l-1.479,3.417l-2.81-0.147l-3.106-3.27
			L59.891,643.387z M40.958,630.455l1.037,2.378l1.036,1.486l-1.036,0.744l-1.923-2.824v-1.785L40.958,630.455L40.958,630.455z
			 M28.383,697.637l3.107-2.081l3.106-0.893l2.367,0.298l0.444,1.486l1.776,0.446l1.776-1.783l-0.296-1.488l2.515-0.595l2.663,2.376
			l-1.037,1.635l-3.994,1.041l-2.515-0.448l-3.401-1.041l-3.994,1.337l-1.477,0.296L28.383,697.637z M73.207,693.476l1.478,1.783
			l1.923-1.486l-1.331-1.19L73.207,693.476z M75.87,696.299l1.036-2.081l1.924,0.298l-0.74,1.783H75.87z M97.469,694.517
			l1.331,1.635l0.888-1.041l-0.74-1.787L97.469,694.517z M105.456,683.072l1.038,5.351l2.663,0.744l4.584-2.675l3.993-2.378
			l-1.478-2.229l0.445-2.229l-1.923,1.195l-2.663-0.744l1.477-1.042l1.777,0.744l3.551-1.635l0.444-1.339l-2.219-0.74l0.74-1.786
			l-2.514,1.786l-4.29,3.27l-4.439,2.675L105.456,683.072z M144.216,664.791l2.219-1.339l-0.887-1.635l-1.627,0.893L144.216,664.791
			z"/>
		<path id="KY_2_" fill="#2A8175" stroke="#F4F1E9" stroke-width="0.8632" stroke-miterlimit="10" d="M684.374,442.822l-2.854,2.884
			l-3.846,3.273l-4.143,4.905l-1.63,1.632v1.933l-3.551,1.934l-5.176,3.122l-2.39,1.292l-47.466,4.502l-14.422,1.634l-4.227,0.471
			l-3.542-0.024v3.564l-7.692,0.448l-6.361,0.597l-9.545,0.188l0.922-1.144l1.995-1.622l1.883-1.048l0.209-2.943l0.837-1.679
			l-1.471-2.338l0.732-1.749l2.07-1.633l1.922-0.595l2.515,1.19l3.255,1.19l1.035-0.298l0.148-2.081l-1.183-2.229l0.294-2.081
			l1.777-1.337l2.367-0.595l1.479-0.595l-0.74-1.635l-0.591-1.785l1.036-0.742l0.962-3.045l2.735-1.559l5.325-0.889l3.253-0.45
			l1.333,1.786l1.627,0.744l1.629-2.973l2.661-1.337l1.778,1.486l0.737,1.041l1.923-0.446l-0.147-3.122l2.662-1.486l1.039-0.742
			l1.036,1.484h4.29l0.739-1.932l-0.294-2.081l2.66-3.27l4.292-3.567l0.444-4.162l2.515-0.297l3.552-1.635l2.516-1.784l-0.295-1.784
			l-1.331-1.338l0.518-2.007l3.773-0.222l2.219-0.743l2.663,1.486l1.476,4.013l5.325,0.296l1.627,1.635l1.924,0.149l2.219-1.338
			l2.808,0.446l1.185,1.338l2.514-2.377l1.63-1.19h1.478l0.592,2.527l1.629,0.892l3.255,1.933l0.146,5.052l0.738,1.487l2.369,1.338
			l0.592,2.081l2.661,3.417l2.368,2.528L684.374,442.822z"/>
		<path id="MI_2_" fill="#E2DCCA" stroke="#F4F1E9" stroke-width="0.8632" stroke-miterlimit="10" d="M555.175,244.346l1.67-1.892
			l1.987-0.735l4.917-3.574l2.092-0.525l0.419,0.42l-4.708,4.73l-3.034,1.786l-1.883,0.844L555.175,244.346L555.175,244.346z
			 M634.035,273.885l0.591,2.304l2.961,0.149l1.184-1.115c0,0-0.074-1.338-0.372-1.486c-0.294-0.149-1.477-1.709-1.477-1.709
			l-1.998,0.223l-1.479,0.149l-0.294,1.041L634.035,273.885z M661.548,331.854l-2.962-7.58l-2.067-8.323l-2.219-2.972l-2.368-1.635
			l-1.478,1.041l-3.552,1.635l-1.775,4.608l-2.515,3.418l-1.037,0.595l-1.333-0.595c0,0-2.366-1.338-2.219-1.933
			c0.148-0.595,0.444-4.608,0.444-4.608l3.108-1.189l0.738-3.121l0.593-2.378l2.219-1.487l-0.294-9.215l-1.477-2.081l-1.187-0.743
			l-0.736-1.933l0.736-0.743l1.479,0.297l0.148-1.487l-2.219-2.081l-1.184-2.378h-2.368l-4.143-1.338l-5.032-3.122h-2.515
			l-0.591,0.595l-0.885-0.446l-2.809-2.082l-2.662,1.635l-2.661,2.081l0.294,3.269l0.888,0.297l1.923,0.446l0.444,0.743
			l-2.367,0.744l-2.368,0.297l-1.332,1.635l-0.294,1.933l0.294,1.487l0.294,5.054l-3.253,1.932l-0.593-0.149v-3.863l1.184-2.229
			l0.591-2.23l-0.737-0.743l-1.778,0.743l-0.884,3.865l-2.515,1.041l-1.629,1.784l-0.147,0.892l0.592,0.743l-0.592,2.378
			l-2.07,0.446v1.041l0.739,2.23l-1.037,5.649l-1.478,3.715l0.593,4.31l0.444,1.041l-0.74,2.229l-0.294,0.743l-0.294,2.527
			l3.253,5.499l2.662,5.946l1.332,4.459l-0.74,4.31l-0.886,5.499l-2.219,4.756l-0.295,2.526l-2.82,2.86l-0.682,0.707l4.242-0.149
			l20.119-2.081l5.623-0.595l0.294,1.115l7.1-1.115l9.321-1.487l4.772-0.424l-1.224-1.062l0.147-1.338l1.922-3.418l1.829-1.598
			l-0.204-4.645l1.463-1.468l0.999-0.316l0.203-3.27l1.406-2.787l0.963,0.557l0.148,0.595l0.737,0.149l1.776-0.892L661.548,331.854z
			 M541.209,271.568l1.693-0.95l2.515-0.744l3.254-2.081v-0.892l0.592-0.595l5.477-0.892l2.219-1.784l3.994-1.932l0.148-1.189
			l1.775-2.675l1.628-0.743l1.184-1.635l2.071-2.081l3.992-2.229l4.291-0.446l1.037,1.041l-0.294,0.892l-3.402,0.892l-1.331,2.824
			l-2.068,0.744l-0.447,2.229l-2.219,2.972l-0.296,2.378l0.74,0.446l0.887-1.041l3.253-2.675l1.185,1.189h2.068l2.961,0.892
			l1.331,1.041l1.331,2.824l2.515,2.526l3.551-0.149l1.331-0.892l1.478,1.189l1.477,0.446l1.184-0.744h1.039l1.476-0.892l3.699-3.27
			l3.106-1.041l6.068-0.297l4.143-1.784l2.368-1.189l1.332,0.149v5.202l0.445,0.297l2.661,0.744l1.776-0.446l5.622-1.487
			l1.037-1.041l1.331,0.446v6.391l2.959,2.824l1.184,0.595l1.185,0.892l-1.185,0.297l-0.738-0.297l-3.401-0.446l-1.923,0.594
			l-2.07-0.149l-2.96,1.338h-1.628l-5.324-1.189l-4.733,0.149l-1.778,2.377l-6.36,0.595l-2.219,0.743l-1.038,2.824l-1.183,1.041
			l-0.446-0.149l-1.331-1.487l-4.143,2.23h-0.592l-1.038-1.487l-0.738,0.149l-1.776,4.013l-0.886,3.715l-3.432,7.48l-1.49-1.055
			l-1.256-1.261l-1.467-9.459l-3.348-1.051l-1.255-2.102l-11.507-2.522l-2.299-1.051l-7.53-2.102l-7.531-1.051L541.209,271.568
			L541.209,271.568z"/>
		<path id="WY_2_" fill="#E2DCCA" stroke="#F4F1E9" stroke-width="0.8632" stroke-miterlimit="10" d="M347.991,301.237l-10.535-0.89
			l-29.363-3.03l-14.854-1.892l-25.942-3.783l-18.204-2.733l-1.298,10.276l-3.514,22.305l-4.812,27.956l-1.4,9.668l-1.527,10.931
			l5.97,0.853l15.454,2.101l8.082,1.081l18.823,2.268l34.101,3.784l22.386,1.892l3.975-40.779l1.468-23.332L347.991,301.237z"/>
		<path id="MT_2_" fill="#E2DCCA" stroke="#F4F1E9" stroke-width="0.8632" stroke-miterlimit="10" d="M350.059,281.762l0.739-10.695
			l2.064-22.937l1.256-13.873l1.156-13.084l-29.244-3.024l-26.776-3.269l-26.776-3.716l-29.588-4.905l-16.866-3.121l-29.946-6.374
			l-4.1,19.627l3.137,6.936l-1.256,4.204l1.673,4.204l2.928,1.261l3.348,9.459l3.348,3.363l0.418,1.051l3.138,1.051l0.418,1.892
			l-6.486,16.185v2.312l2.299,2.943h0.839l4.393-2.732l0.628-1.051l1.465,0.631l-0.21,4.834l2.509,11.56l2.721,2.312l0.838,0.631
			l1.673,2.101l-0.418,3.153l0.628,3.153l1.045,0.841l2.093-2.101h2.51l2.928,1.472l2.3-0.841h3.766l3.348,1.472l2.51-0.42
			l0.419-2.733l2.72-0.63l1.256,1.26l0.417,2.943l2.363,2.288l1.402-10.486l18.204,2.733l25.942,3.783l14.854,1.892l29.364,3.03
			l10.497,1.107l1.552-14.627L350.059,281.762L350.059,281.762z"/>
		<path id="ID_2_" fill="#E2DCCA" stroke="#F4F1E9" stroke-width="0.8632" stroke-miterlimit="10" d="M151.649,332.161l4.345-16.977
			l3.975-16.29l1.256-3.889l2.301-5.465l-1.151-2.101l-2.301,0.105l-0.731-0.946l0.418-1.051l0.314-2.838l4.08-5.044l1.672-0.42
			l1.045-1.051l0.525-2.943l0.837-0.631l3.555-5.362l3.556-3.994l0.209-3.468l-3.137-2.415l-1.203-4.046l0.367-8.88l3.348-15.134
			l4.08-19.128l3.452-12.402l0.696-3.496l12.922,2.472l-4.099,19.627l3.136,6.936l-1.256,4.204l1.673,4.204l2.929,1.261l3.348,9.459
			l3.348,3.363l0.418,1.051l3.139,1.051l0.417,1.892l-6.486,16.185v2.312l2.3,2.943h0.838l4.393-2.733l0.628-1.051l1.465,0.631
			l-0.209,4.834l2.509,11.56l2.72,2.312l0.838,0.631l1.673,2.101l-0.418,3.153l0.628,3.153l1.045,0.841l2.093-2.101h2.51
			l2.929,1.472l2.299-0.841h3.766l3.348,1.472l2.51-0.42l0.419-2.733l2.72-0.631l1.256,1.261l0.418,2.943L247.73,299l-3.452,22.491
			l-4.707,27.851l-4.394-0.735l-7.638-1.261l-9.414-1.682l-10.982-1.892l-11.611-2.155l-7.322-1.839l-8.473-1.682l-8.893-1.786
			L151.649,332.161L151.649,332.161z"/>
		<path id="AZ_2_" fill="#2A8175" stroke="#F4F1E9" stroke-width="0.8632" stroke-miterlimit="10" d="M148.988,525.172l-2.406,1.984
			l-0.294,1.337l0.445,0.893l17.307,9.804l11.097,6.985l13.461,7.876l15.385,9.215l11.244,2.229l24.463,3.224l1.875-12.236
			l3.434-24.752l6.375-48.916l3.897-28.322l-23.538-3.529l-24.897-4.204l-30.589-5.809l-2.674,16.634l-0.419,0.42l-1.57,2.417
			l-2.301-0.105l-1.151-2.523l-2.51-0.315l-0.837-1.051h-0.838l-0.837,0.527l-1.78,0.945l-0.104,6.411l-0.21,1.578l-0.523,11.562
			l-1.359,1.998l-0.523,3.044l2.509,4.52l1.152,5.362l0.73,0.946l0.943,0.528l-0.104,2.101l-1.465,1.262l-3.137,1.577l-1.779,1.786
			l-1.358,3.364l-0.525,4.518l-2.613,2.523l-1.884,0.632l-0.105,5.362l-0.417,1.576l0.417,0.735l3.348,0.526l-0.524,2.523
			l-1.357,1.998L148.988,525.172L148.988,525.172z"/>
		<path id="NM_2_" fill="#E2DCCA" stroke="#F4F1E9" stroke-width="0.8632" stroke-miterlimit="10" d="M282.683,565.355l-0.741-4.449
			l7.322,0.63l26.571,2.523l26.572,1.472l2.093-21.86l3.556-51.078l1.465-17.236l1.255,0.025l-0.013-10.773l-30.203-2.21
			l-33.803-4.069l-31.539-3.786l-3.842,28.279L245,531.74l-3.434,24.752l-1.876,12.236l14.148,1.828l1.183-9.213l15.238,2.377
			L282.683,565.355L282.683,565.355z"/>
		<path id="ND_2_" fill="#E2DCCA" stroke="#F4F1E9" stroke-width="0.8632" stroke-miterlimit="10" d="M454.961,287.018l-0.628-7.777
			l-1.67-6.726l-1.673-12.402l-0.415-9.039l-1.673-3.152l-1.465-4.625v-9.458l0.628-3.574l-1.789-5.056l-26.888-0.518l-17.013-0.595
			l-24.261-1.189l-22.829-1.732l-1.156,13.084l-1.256,13.873l-2.065,22.937l-0.592,11.165l51.403,3.314L454.961,287.018z"/>
		<path id="IA_2_" fill="#2A8175" stroke="#F4F1E9" stroke-width="0.8632" stroke-miterlimit="10" d="M542.36,354.071l0.053,1.682
			l2.093,0.631l0.837,1.051l0.418,1.682l3.556,3.152l0.628,2.102l-0.628,3.153l-1.672,3.363l-0.628,2.312l-2.093,1.682l-1.673,0.631
			l-4.812,1.26l-0.628,1.682l-0.628,1.892l0.628,1.261l1.671,1.472l-0.21,3.783l-1.673,1.472l-0.627,1.472v2.523l-1.67,0.42
			l-1.468,1.051l-0.209,1.261l0.209,1.892l-1.568,1.629l-3.036-3.101l-1.044-2.101l-7.114,0.63l-8.998,0.42l-23.223,0.841
			l-12.344,0.21l-8.579,0.21l-0.999,0.111l-1.512-4.946l-0.212-6.096l-1.464-3.784l-0.628-4.834l-2.094-3.364l-0.838-4.414
			l-2.509-6.934l-1.045-4.94l-1.256-1.998l-1.464-2.522l1.671-3.994l1.255-5.255l-2.51-1.892l-0.416-2.523l0.838-2.312h1.568h10.565
			l45.4-0.631l16.527-0.631l3.764-0.106l0.628,3.048l2.095,1.472l0.21,1.261l-1.884,3.153l0.211,2.943l2.298,3.574l2.301,1.051
			l2.72,0.42L542.36,354.071L542.36,354.071z"/>
		<path id="WI_2_" fill="#E2DCCA" stroke="#F4F1E9" stroke-width="0.8632" stroke-miterlimit="10" d="M584.046,351.339l0.132-3.878
			l-1.479-4.162l-0.591-5.648l-1.037-2.229l0.887-2.824l0.738-2.675l1.33-2.378l-0.592-3.121l-0.592-3.27l0.447-1.632l1.775-2.229
			l0.147-2.526l-0.738-1.19l0.592-2.378l0.444-2.972l2.515-5.202l2.662-6.243l0.148-2.082l-0.296-0.892l-0.739,0.446l-3.846,5.797
			l-2.515,3.715l-1.775,1.635l-0.739,2.081l-1.332,0.743l-1.036,1.784l-1.331-0.297l-0.147-1.635l1.184-2.229l1.922-4.31l1.63-1.487
			l1.004-2.107l-1.491-0.832l-1.254-1.261l-1.467-9.459l-3.348-1.051l-1.255-2.102l-11.507-2.522l-2.299-1.051l-7.53-2.102
			l-7.531-1.051l-3.816-4.969l-0.485,1.16l-1.038-0.149l-0.592-1.041l-2.515-0.743l-1.035,0.148l-1.63,0.892l-0.884-0.595
			l0.592-1.784l1.775-2.824l1.036-1.041l-1.775-1.338l-1.924,0.743l-2.662,1.784l-6.805,2.972l-2.662,0.595l-2.66-0.446
			l-0.898-0.807l-1.94,2.607l-0.209,2.522v7.777l-1.045,1.472l-4.812,3.574l-2.094,5.465l0.417,0.21l2.301,1.892l0.627,2.943
			l-1.673,2.943v3.574l0.419,6.096l2.72,2.732h3.138l1.673,2.943l3.135,0.42l3.556,5.255l6.486,3.784l1.883,2.523l0.838,6.832
			l0.627,3.048l2.096,1.472l0.209,1.261l-1.883,3.153l0.21,2.943l2.3,3.574l2.298,1.051l2.723,0.42l1.121,2.311h8.395l24.373-1.472
			L584.046,351.339L584.046,351.339z"/>
		<path id="MO_2_" fill="#2A8175" stroke="#F4F1E9" stroke-width="0.8632" stroke-miterlimit="10" d="M532.161,398.422l-2.929-2.943
			l-1.043-2.102l-7.115,0.631l-8.998,0.42l-23.223,0.841l-12.344,0.21l-7.217,0.106l-2.093,0.105l1.151,2.312l-0.209,2.101
			l2.299,3.573l2.824,3.784l2.823,2.523l2.094,0.21l1.256,0.841v2.733l-1.672,1.472l-0.419,2.101l1.883,3.153l2.301,2.733
			l2.299,1.682l1.255,10.722l-0.627,32.473l0.211,4.306l0.416,6.305l21.342-0.419l21.34-0.63l19.038-0.843l10.04-0.419l1.673,2.73
			l-0.419,2.102l-2.926,2.523l-0.628,2.731l5.647,0.42l4.604-0.632l1.884-5.884l-0.134-5.176l2.643-1.34l1.256-1.473l1.882-1.049
			l0.211-2.943l0.837-1.681l-1.256-2.232l-2.72,0.34l-1.673-1.893l-1.465-3.784l0.837-2.731l-1.883-2.942l-1.883-4.624l-4.184-0.631
			l-5.858-4.835l-2.093-3.574l0.628-2.941l2.092-5.466l0.628-3.363l-2.51-1.261l-5.858-0.42l-0.839-1.26l0.211-3.994l-5.021-3.363
			l-6.697-6.936l-2.094-6.726l-0.416-3.363L532.161,398.422L532.161,398.422z"/>
		<path id="AR_2_" fill="#E2DCCA" stroke="#F4F1E9" stroke-width="0.8632" stroke-miterlimit="10" d="M564.651,486.053l-4.456,0.863
			l-5.648-0.421l0.628-2.732l2.926-2.523l0.419-2.101l-1.673-2.732l-10.04,0.42l-19.038,0.841l-21.34,0.632l-21.343,0.42
			l1.468,6.305v7.567l1.256,10.09l0.209,34.788l2.093,1.786l2.721-1.261l2.509,1.051l0.604,10.325l20.32-0.025l17.576-0.842
			l9.883,0.131l1.36-2.443l-0.37-3.993l-1.256-2.732l1.256-1.261l-1.256-1.891l0.419-1.683l0.837-5.675l2.723-2.523l-0.628-1.891
			l3.348-4.835l2.51-0.842v-2.312l-0.628-1.261l2.51-4.835l2.509-1.049l-0.271-3.36l2.244-1.037l0.884-4.31l-1.331-3.27l3.701-2.082
			l0.294-2.377l1.237-4.028L564.651,486.053z"/>
		<path id="KS_2_" fill="#E2DCCA" stroke="#F4F1E9" stroke-width="0.8632" stroke-miterlimit="10" d="M484.461,468.418
			l-12.135,0.632l-42.47-0.42l-41.216-1.893l-22.096-1.157l3.791-60.537l19.979,0.736l37.028,1.261l40.378,0.42h5.545l2.824,2.523
			l2.095,0.21l1.256,0.841v2.733l-1.673,1.473l-0.419,2.101l1.884,3.153l2.3,2.733l2.298,1.682l1.256,10.721L484.461,468.418
			L484.461,468.418z"/>
		<path id="LA_2_" fill="#E2DCCA" stroke="#F4F1E9" stroke-width="0.8632" stroke-miterlimit="10" d="M575.152,603.778l-1.149-2.094
			l-1.045-3.574l-3.137-2.942l1.044-6.935l-0.628-0.842l-1.67,0.21l-7.531,0.632l-22.176,0.63l-0.416-1.472l0.628-7.358l3.138-5.675
			l4.812-8.407l-0.837-1.899h1.044l0.628-2.937l-2.094-1.681l0.212-1.683l-1.883-4.204l-0.314-5.048h-9.939l-17.577,0.845
			l-20.32,0.022l0.025,8.807l0.628,8.617l0.625,3.574l2.301,3.784l0.837,4.623l3.977,5.045l0.21,2.944l0.628,0.63l-0.628,7.777
			l-2.721,4.625l1.466,1.891l-0.628,2.312l-0.628,6.726l-1.256,2.942l0.112,3.325l4.289-1.397l7.396-0.296l9.469,3.27l5.916,1.042
			l3.402-1.339l2.959,1.041l2.959,0.893l0.739-1.933l-2.958-1.042l-2.368,0.446l-2.516-1.48c0,0,0.146-1.195,0.739-1.337
			c0.592-0.149,2.809-0.893,2.809-0.893l1.629,1.339l1.63-0.893l2.96,0.595l1.33,2.229l0.294,2.081l4.144,0.298l1.629,1.63
			l-0.738,1.486l-1.185,0.744l1.479,1.486l7.692,3.27l3.254-1.19l0.885-2.229l2.367-0.595l1.63-1.337l1.184,0.891l0.739,2.675
			l-2.07,0.744l0.591,0.595l3.107-1.19l2.07-3.121l0.739-0.448l-1.922-0.296l0.738-1.486l-0.146-1.339l1.923-0.446l1.036-1.19
			l0.591,0.74c0,0-0.144,2.822,0.593,2.822c0.738,0,3.845,0.601,3.845,0.601l3.699,1.783l0.887,1.339h2.662l1.036,0.891l2.071-2.824
			v-1.337h-1.185l-3.106-2.534l-5.324-0.74l-2.959-2.077l1.036-2.534l2.07,0.298l0.147-0.595l-1.63-0.891v-0.448h2.961l1.629-2.822
			l-1.185-1.785l-0.294-2.526l-1.33,0.147l-1.778,1.933l-0.591,2.376l-2.807-0.594l-0.887-1.633l1.63-1.785l1.849-1.633
			L575.152,603.778L575.152,603.778z"/>
		<path id="HI_2_" fill="#E2DCCA" stroke="#F4F1E9" stroke-width="0.8632" stroke-miterlimit="10" d="M236.234,646.36l1.775-3.27
			l2.071-0.298l0.295,0.744l-1.924,2.824H236.234z M245.553,642.941l5.622,2.378l1.922-0.298l1.479-3.566l-0.592-3.121l-3.846-0.448
			l-3.698,1.635L245.553,642.941L245.553,642.941z M273.661,652.156l3.4,5.054l2.219-0.298l1.035-0.446l1.332,1.19l3.402-0.149
			l0.886-1.337l-2.663-1.635l-1.776-3.419l-1.922-3.27l-5.324,2.675L273.661,652.156L273.661,652.156z M292.154,660.331l1.182-1.785
			l4.291,0.893l0.591-0.453l5.621,0.595l-0.294,1.195l-2.369,1.339l-3.992-0.298L292.154,660.331z M297.036,665.087l1.775,3.568
			l2.81-1.042l0.294-1.486l-1.479-1.932l-3.4-0.298V665.087L297.036,665.087z M303.397,664.047l2.07-2.675l4.291,2.229l3.991,1.041
			l3.994,2.526v1.787l-3.255,1.631l-4.438,0.891l-2.219-1.337L303.397,664.047L303.397,664.047z M318.634,678.316l1.476-1.19
			l3.107,1.486l6.954,3.27l3.108,1.934l1.475,2.228l1.776,4.014l3.701,2.378l-0.295,1.188l-3.551,2.973l-3.846,1.337l-1.331-0.595
			l-2.809,1.63l-2.219,2.973l-2.07,2.675l-1.628-0.149l-3.254-2.376l-0.295-4.163l0.592-2.229l-1.477-5.204l-1.923-1.633
			l-0.148-2.377l2.071-0.889l1.923-2.824l0.444-0.891l-1.478-1.635L318.634,678.316L318.634,678.316z"/>
		<path id="FL_2_" fill="#E2DCCA" stroke="#F4F1E9" stroke-width="0.8632" stroke-miterlimit="10" d="M714.362,577.691l1.911,7.542
			l3.413,8.958l4.882,8.621l3.402,5.796l4.438,5.054l3.698,3.417l1.478,2.675l-1.038,1.19l-0.739,1.19l2.662,6.836l2.663,2.675
			l2.367,4.905l3.254,5.351l4.144,7.58l1.183,6.987l0.445,10.998l0.591,1.635l-0.294,3.121l-2.219,1.19l0.296,1.787l-0.592,1.785
			l0.294,2.228l0.445,1.786l-2.514,2.967l-2.808,1.337l-3.552,0.149l-1.332,1.486l-2.219,0.887l-1.184-0.446l-1.035-0.891
			l-0.296-2.675l-0.739-3.121l-3.107-4.758l-3.254-2.081l-3.551-0.296l-0.739,1.19l-2.809-4.014l-0.593-3.27l-2.367-3.715
			l-1.628-1.041l-1.479,1.932l-1.627-0.293l-1.923-4.615l-2.663-3.566l-2.662-4.899l-2.367-2.824l-3.255-3.417l1.923-2.229
			l2.96-5.054l-0.147-1.486l-4.144-0.891l-1.479,0.595l0.296,0.593l2.368,0.893l-1.331,4.161l-0.74,0.446l-1.629-3.712l-1.183-4.459
			l-0.294-2.526l1.331-4.31v-8.77l-2.808-3.417l-1.184-2.824l-4.733-1.19l-1.776-0.599l-1.478-2.376l-3.107-1.488l-1.036-3.121
			l-2.515-0.891l-2.219-3.419l-3.846-1.337l-2.661-1.339h-2.369l-3.699,0.744l-0.147,1.783l0.74,0.893l-0.445,1.041l-2.809-0.149
			l-3.4,3.272l-3.254,1.785h-3.553l-2.96,1.19l-0.294-2.528l-1.478-1.785l-2.663-1.042l-1.478-1.337l-7.396-3.568l-6.954-1.631
			l-3.993,0.595l-5.474,0.448l-5.474,1.932l-3.184,0.566l-0.217-7.404l-2.368-1.783l-1.63-1.635l0.296-2.824l9.321-1.19
			l23.373-2.675l6.215-0.595l5.622-0.147l2.368,3.566l1.331,1.337l7.248,0.149l9.902-0.597l19.687-1.192l4.982-0.617l4.188,0.024
			l0.147,2.675l2.368,0.742l0.294-4.012l-1.478-4.163l1.036-1.486l5.325,0.744L714.362,577.691L714.362,577.691z M725.68,700.239
			l2.219-0.595l1.184-0.223l1.331-2.156l2.145-1.486l1.184,0.446l1.552,0.298l0.373,0.964l-3.181,1.116l-3.846,1.337l-2.145,1.116
			L725.68,700.239z M738.033,695.63l1.11,0.966l2.515-1.937l4.884-3.865l3.4-3.568l2.296-6.093l0.884-1.561l0.147-3.121
			l-0.666,0.446l-0.887,2.608l-1.329,4.229l-2.961,4.831l-3.992,3.87l-3.107,1.783L738.033,695.63z"/>
		<path id="SC_2_" fill="#2A8175" stroke="#F4F1E9" stroke-width="0.8632" stroke-miterlimit="10" d="M719.538,548.56l-1.627,0.891
			l-2.37-1.188l-0.588-1.934l-1.184-3.27l-2.068-1.932l-2.369-0.6l-1.477-4.458l-2.515-5.5l-3.846-1.783L699.57,527l-1.183-2.378
			l-1.923-1.784l-2.071-1.19l-2.071-2.677l-2.808-2.081l-4.144-1.633l-0.444-1.339l-2.219-2.675l-0.444-1.337l-3.106-4.757
			l-3.108,0.146l-3.698-2.229l-1.184-1.19l-0.295-1.632l0.74-1.786l2.07-0.889l-0.295-1.935l5.622-2.377l8.285-4.163l6.657-0.742
			l15.09-0.448l2.07,1.785l1.477,2.973l3.993-0.449l11.539-1.337l2.661,0.743l11.538,6.984l9.25,7.468l-4.963,5.019l-2.368,5.646
			l-0.444,5.795l-1.478,0.744l-1.037,2.527l-2.219,0.595l-1.924,3.271l-2.515,2.528l-2.067,3.122l-1.479,0.742l-3.254,3.121
			l-2.662,0.147l0.886,2.973l-4.585,5.05L719.538,548.56L719.538,548.56z"/>
		<path id="GA_2_" fill="#E2DCCA" stroke="#F4F1E9" stroke-width="0.8632" stroke-miterlimit="10" d="M654.004,498.025l-4.438,0.742
			l-7.692,1.041l-7.841,0.817v2.007l0.148,1.934l0.592,3.121l3.106,7.285l2.219,9.067l1.331,5.645l1.476,4.459l1.331,6.391
			l1.923,5.796l2.367,3.121l0.447,3.122l1.776,0.742l0.147,1.933l-1.63,4.458l-0.445,2.973l-0.147,1.785l1.479,4.012l0.294,4.905
			l-0.739,2.229l0.593,0.744l1.331,0.742l0.591,3.121l2.37,3.568l1.331,1.337l7.247,0.149l9.901-0.595l19.686-1.19l4.984-0.618
			l4.188,0.024l0.148,2.677l2.367,0.742l0.294-4.012l-1.475-4.163l1.035-1.486l5.325,0.744l4.555,0.291l-0.711-5.791l2.069-9.215
			l1.331-3.865l-0.444-2.377l3.698-6.391l-0.548-1.488l-1.67,0.891l-2.368-1.188l-0.586-1.934l-1.183-3.27l-2.068-1.932l-2.37-0.6
			l-1.476-4.458l-2.515-5.5l-3.846-1.783L699.571,527l-1.183-2.378l-1.923-1.784l-2.071-1.19l-2.071-2.677l-2.808-2.082
			l-4.144-1.632l-0.444-1.339l-2.219-2.675l-0.444-1.337l-3.106-4.76l-3.107,0.149l-3.698-2.229l-1.184-1.191l-0.295-1.631
			l0.739-1.786l2.071-0.892l-0.148-2.101l-1.627,0.464l-5.325,0.893l-6.361,0.742L654.004,498.025L654.004,498.025z"/>
		<path id="AL_2_" fill="#E2DCCA" stroke="#F4F1E9" stroke-width="0.8632" stroke-miterlimit="10" d="M595.421,598.056
			l-1.475-13.973l-2.515-17.241l0.144-12.931l0.74-28.537l-0.146-15.309l0.15-5.902l7.098-0.339l25.444-2.378l9.307-0.815
			l-0.138,2.007l0.149,1.935l0.591,3.121l3.106,7.284l2.219,9.066l1.329,5.647l1.479,4.459l1.331,6.391l1.922,5.793l2.368,3.122
			l0.445,3.121l1.778,0.742l0.144,1.933l-1.627,4.459l-0.444,2.971l-0.148,1.786l1.479,4.012l0.294,4.905l-0.739,2.229l0.592,0.744
			l1.331,0.74l0.739,3.272h-5.769l-6.213,0.595l-23.373,2.675l-9.321,1.19l-0.294,2.824l1.63,1.635l2.367,1.783l0.53,7.297
			l-6.006,2.366l-2.515-0.294l2.515-1.786v-0.893l-2.808-5.5l-2.07-0.595l-1.331,4.014l-1.184,2.53l-0.592-0.147h-2.513v-0.006
			h0.003L595.421,598.056L595.421,598.056z"/>
		<path id="NC_2_" fill="#E2DCCA" stroke="#F4F1E9" stroke-width="0.8632" stroke-miterlimit="10" d="M784.396,443.319l1.565,4.319
			l3.254,5.946l2.219,2.229l0.591,2.081l-2.219,0.149l0.739,0.595l-0.295,3.865l-2.367,1.19l-0.592,1.934l-1.184,2.675l-3.402,1.483
			l-2.219-0.293l-1.331-0.151l-1.479-1.19l0.295,1.19v0.89h1.776l0.739,1.191l-1.776,5.795h3.846l0.591,1.488l2.069-2.082
			l1.186-0.448l-1.777,3.27l-2.808,4.459h-1.184l-1.038-0.448l-2.515,0.595l-4.733,2.228l-5.917,4.905l-3.106,4.31l-1.777,5.946
			l-0.444,2.228l-4.292,0.449l-5.394,2.042l-9.102-7.542l-11.539-6.985l-2.66-0.743l-11.539,1.337l-3.994,0.448l-1.477-2.97
			l-2.069-1.785l-15.091,0.446l-6.657,0.744l-8.285,4.161l-5.621,2.378l-1.476,0.294l-5.325,0.891l-6.361,0.742l-6.213,0.448
			l0.294-4.458l1.63-1.341l2.515-0.594l0.591-3.418l3.846-2.528l3.551-1.339l3.846-3.27l3.994-1.934l0.591-2.823l3.552-3.567
			l0.592-0.147c0,0,0,1.041,0.739,1.041s1.776,0.294,1.776,0.294l2.07-3.27l1.922-0.595l2.071,0.296l1.478-3.27l2.661-2.378
			l0.447-1.933v-3.641l4.142,0.668l6.53-1.189l14.477-1.785l15.681-2.378l18.853-3.469l17.539-3.515l10.504-2.675L784.396,443.319
			L784.396,443.319z M787.961,473.647l2.368-2.303l2.887-2.377l1.405-0.594l0.146-1.86l-0.593-5.649l-1.329-2.153l-0.593-1.708
			l0.666-0.222l2.515,5.054l0.372,4.088l-0.148,3.121l-3.106,1.412l-2.589,2.229l-1.036,1.114L787.961,473.647z"/>
		<path id="TN_2_" fill="#E2DCCA" stroke="#F4F1E9" stroke-width="0.8632" stroke-miterlimit="10" d="M660.81,463.69l-47.488,4.609
			l-14.422,1.633l-4.228,0.473l-3.541-0.025v3.566l-7.692,0.446l-6.361,0.595l-10.154,0.05l-0.242,5.364l-1.957,5.769l-0.911,2.772
			l-1.237,4.026l-0.294,2.377l-3.698,2.081l1.33,3.272l-0.886,4.013l-1.406,1.558l7.471-0.072l22.045-1.786l4.883-0.149l7.396-0.446
			l25.445-2.378l9.307-0.74l7.706-0.891l7.692-1.041l4.438-0.742l0.294-4.458l1.63-1.341l2.515-0.595l0.591-3.418l3.846-2.529
			l3.551-1.339l3.846-3.27l3.994-1.932l0.592-2.824l3.551-3.568l0.593-0.147c0,0,0,1.042,0.738,1.042
			c0.739,0,1.777,0.294,1.777,0.294l2.069-3.27l1.922-0.596l2.071,0.295l1.478-3.27l2.661-2.377l0.447-1.934l0.161-3.616
			l-2.085,0.05l-2.219,1.786l-7.248,0.147l-10.979,1.748L660.81,463.69z"/>
		<path id="RI_2_" fill="#E2DCCA" stroke="#F4F1E9" stroke-width="0.8632" stroke-miterlimit="10" d="M822.798,334.232l-0.442-3.866
			l-0.739-4.013l-1.553-5.425l5.251-1.412l1.479,1.041l3.107,4.013l2.661,4.089l-2.663,1.412l-1.184-0.148l-1.039,1.635
			l-2.219,1.784L822.798,334.232z"/>
		<path id="MA_2_" fill="#E2DCCA" stroke="#F4F1E9" stroke-width="0.8632" stroke-miterlimit="10" d="M846.505,328.741l1.984-0.631
			l0.419-1.576l0.941,0.105l0.942,2.101l-1.153,0.42l-3.555,0.105L846.505,328.741L846.505,328.741z M837.927,329.476l2.093-2.415
			h1.467l1.67,1.366l-2.197,0.946l-1.984,0.946L837.927,329.476z M806.083,309.26l15.974-3.865l2.07-0.594l1.924-2.972l3.419-1.529
			l2.644,4.057l-2.219,4.756l-0.296,1.338l1.778,2.378l1.036-0.743h1.629l2.07,2.378l3.551,5.499l3.253,0.446l2.071-0.892
			l1.629-1.635l-0.738-2.526l-1.923-1.487l-1.331,0.744l-0.887-1.189l0.446-0.446l1.924-0.149l1.628,0.743l1.775,2.23l0.887,2.675
			l0.294,2.23l-3.846,1.338l-3.552,1.784l-3.554,4.162l-1.775,1.338v-0.892l2.219-1.338l0.444-1.635l-0.739-2.823l-2.662,1.338
			l-0.737,1.338l0.444,2.081l-2.514,1.337l-2.513-4.163l-3.107-4.013l-1.479-1.041l-5.249,1.412l-4.659,0.965l-19.974,4.385
			l-0.884-5.276l0.592-9.735l4.733-0.817L806.083,309.26"/>
		<path id="ME_2_" fill="#E2DCCA" stroke="#F4F1E9" stroke-width="0.8632" stroke-miterlimit="10" d="M867.771,239.999l1.775,1.932
			l2.071,3.418v1.784l-1.923,4.311l-1.775,0.594l-3.107,2.824l-4.438,5.053c0,0-0.592,0-1.184,0c-0.591,0-0.887-1.933-0.887-1.933
			l-1.628,0.149l-0.886,1.338l-2.219,1.338l-0.884,1.338l1.478,1.338l-0.445,0.594l-0.445,2.526l-1.775-0.148v-1.487l-0.295-1.189
			l-1.331,0.297l-1.629-2.972l-1.923,1.189l1.184,1.338l0.294,1.041l-0.738,1.189l0.294,2.824l0.147,1.487l-1.478,2.378
			l-2.661,0.446l-0.295,2.675l-4.882,2.824L837,278.94l-1.478-1.338l-2.808,3.27l0.885,2.972l-1.332,1.189l-0.147,4.013
			l-1.442,7.007l-2.254-1.062l-0.445-2.824l-3.551-1.041l-0.295-2.526l-6.657-21.552l-4.36-13.583l2.233-0.318l1.388,0.377v-2.378
			l0.737-5.054l2.369-4.31l1.331-3.715l-1.776-2.229v-5.499l0.739-0.892l0.738-2.527l-0.146-1.338l-0.146-4.458l1.628-4.459
			l2.662-8.174l1.922-3.864h1.184l1.185,0.148v1.041l1.184,2.081l2.514,0.595l0.74-0.744v-0.892l3.698-2.675l1.629-1.635l1.33,0.149
			l5.476,2.229l1.776,0.892l8.285,27.497h5.473l0.74,1.784l0.148,4.459l2.659,2.081h0.739l0.148-0.446l-0.444-1.041L867.771,239.999
			z M848.615,267.717l1.406-1.412l1.258,0.966l0.518,2.23l-1.552,0.817L848.615,267.717L848.615,267.717z M854.754,262.292
			l1.629,1.708c0,0,1.183,0.074,1.183-0.223c0-0.297,0.221-1.858,0.221-1.858l0.813-0.744l-0.738-1.635l-1.85,0.669L854.754,262.292
			z"/>
		<path id="NH_2_" fill="#E2DCCA" stroke="#F4F1E9" stroke-width="0.8632" stroke-miterlimit="10" d="M829.475,300.264l0.276-1.407
			l0.997-3.026l-2.327-0.84l-0.445-2.824l-3.55-1.041l-0.296-2.526l-6.657-21.552l-4.21-13.371l-0.821-0.005l-0.592,1.487
			l-0.592-0.446l-0.884-0.892l-1.331,1.784l-0.879,5.043l0.289,5.21l1.775,2.526v3.716l-3.401,3.715l-2.368,1.041v1.041l1.037,1.635
			v7.875l-0.737,8.472l-0.148,4.459l0.885,1.189l-0.146,4.162l-0.446,1.635l1.332,1.858l15.829-3.791l2.069-0.594l1.924-2.972
			L829.475,300.264L829.475,300.264z"/>
		<path id="VT_2_" fill="#E2DCCA" stroke="#F4F1E9" stroke-width="0.8632" stroke-miterlimit="10" d="M795.282,311.491l-0.738-5.203
			l-2.81-10.107l-0.592-0.297l-2.662-1.189l0.739-2.675l-0.739-1.933l-2.368-4.162l0.888-3.567l-0.74-4.756l-2.219-5.946
			l-0.734-4.526l24.847-6.621l0.296,5.35l1.775,2.526v3.716l-3.4,3.716l-2.369,1.041v1.041l1.037,1.635v7.877l-0.737,8.472
			l-0.148,4.459l0.885,1.189l-0.146,4.162l-0.446,1.635l1.332,1.858l-6.361,1.263L795.282,311.491z"/>
		<path id="NY_2_" fill="#E2DCCA" stroke="#F4F1E9" stroke-width="0.8632" stroke-miterlimit="10" d="M780.786,343.892L779.749,343
			l-2.366-0.149l-2.071-1.784l-2.219-4.905l-2.749-0.856l-2.136-1.968l-17.012,3.715l-39.35,8.026l-8.136,1.338l-0.677-6.364
			l2.45-1.66l1.186-1.041l0.884-1.486l1.63-1.041l1.775-1.635l0.444-1.487l1.924-2.526l1.035-0.892l-0.144-0.892l-1.185-2.824
			l-1.63-0.149l-1.775-5.648l2.662-1.635l3.991-1.338l3.701-1.189l2.96-0.446l5.769-0.149l1.775,1.189l1.478,0.149l1.924-1.19
			l2.367-1.041l4.733-0.446l1.924-1.635l1.63-2.972l1.476-1.785h1.924l1.775-1.041l0.147-2.081l-1.331-1.933l-0.294-1.338
			l1.037-1.933v-1.338h-1.629l-1.629-0.743l-0.74-1.041l-0.146-2.378l5.323-5.054l0.591-0.743l1.331-2.675l2.663-4.162l2.515-3.418
			l1.923-2.229l2.21-1.678l2.82-1.145l5.03-1.189l2.962,0.149l4.142-1.338l6.924-1.904l0.475,4.578l2.219,5.946l0.739,4.756
			l-0.887,3.567l2.368,4.162l0.739,1.933l-0.739,2.675l2.662,1.189l0.592,0.297l2.81,10.107l0.444,4.756L794.547,321l0.738,5.054
			l0.738,3.27l1.331,6.689v7.431l-1.036,2.082l1.682,1.832l-0.207,1.439l-1.775,1.635l0.295,1.189l1.184-0.297l1.331-1.189
			l2.071-2.378l1.035-0.594l1.478,0.594l2.069,0.149l7.249-3.567l2.662-2.526l1.184-1.338l3.846,1.487l-3.11,3.27l-3.55,2.675
			l-6.509,4.905l-2.367,0.892l-5.323,1.784l-3.7,1.041l-1.387-0.49l-0.533-3.079l0.445-2.526l-0.148-1.932l-2.367-1.041
			l-4.144-0.892l-3.552-1.041L780.786,343.892z"/>
		<path id="PA_2_" fill="#E2DCCA" stroke="#F4F1E9" stroke-width="0.8632" stroke-miterlimit="10" d="M776.792,377.632l1.036-0.595
			l2.07-1.189l1.332-2.526l1.476-2.081l2.961-2.824v-0.743l-2.219-1.487l-3.254-2.229l-0.886-2.378l-2.514-0.297l-0.148-1.041
			l-0.739-2.526l2.07-1.041l0.148-2.229l-1.184-1.19l0.146-1.486l1.777-2.824v-2.824l2.143-2.23L779.749,343l-2.367-0.148
			l-2.07-1.787l-2.219-4.905l-2.749-0.856l-2.135-1.968l-17.012,3.715l-39.351,8.026l-8.137,1.338l-0.452-6.513l-5.022,5.176
			l-1.184,0.446l-3.844,2.767l2.663,17.596l1.544,9.884l3.269,17.71l4.237-0.691l10.93-1.381l34.707-7.048l13.611-2.595l7.598-1.491
			l1.178-1.159l1.924-1.487L776.792,377.632L776.792,377.632z"/>
		<path id="DE_3_" fill="#E2DCCA" stroke="#F4F1E9" stroke-width="0.8632" stroke-miterlimit="10" d="M775.754,380.754l0.741-1.933
			l0.222-1.189h-1.849l-1.923,1.487l-1.332,1.338l1.332,3.864l2.07,5.203l1.922,8.918l1.478,5.797l4.585-0.149l5.62-1.114
			l-2.071-6.763l-0.885,0.446l-3.254-2.23l-1.63-4.31l-1.776-3.27l-2.07-0.892l-1.923-3.269L775.754,380.754z"/>
		<path id="WV_2_" fill="#E2DCCA" stroke="#F4F1E9" stroke-width="0.8632" stroke-miterlimit="10" d="M716.303,391.368l1.018,4.546
			l0.884,5.203l0.295-0.297l1.923-2.229l2.068-2.824l2.219-0.148l1.331-1.338l1.628-2.378l1.185,0.594l2.661-0.297l2.367-1.933
			l1.836-1.336l1.688-0.446l1.505,1.039l2.662,1.338l1.775,1.635l1.258,1.19l-0.962,4.608l-5.178-2.824l-4.142-1.635l-0.148,4.905
			l-0.444,1.933l-1.479,2.527l-0.591,1.486l-2.809,2.229l-0.446,2.081l-3.106,0.297l-0.294,2.824l-1.037,5.053h-2.367l-1.184-0.743
			l-1.479-2.527l-1.627,0.149l-0.295,4.013l-1.924,6.094l-4.584,9.958l0.738,1.19l-0.146,2.527l-1.922,1.785l-1.331-0.296
			l-2.962,2.228l-2.366-0.889l-1.629,4.309c0,0-3.401,0.741-3.993,0.89c-0.592,0.149-2.219-1.19-2.219-1.19l-2.219,2.081
			l-2.367,0.595l-2.662-0.742l-1.184-1.19l-2.006-2.78l-2.877-1.827l-2.369-2.528l-2.66-3.419l-0.593-2.081l-2.368-1.338
			l-0.74-1.487l-0.219-4.83l1.996-0.074l1.777-0.744l0.147-2.526l1.476-1.338l0.148-4.608l0.884-3.567l1.186-0.594l1.184,1.041
			l0.444,1.635l1.628-0.892l0.447-1.487l-1.038-1.635v-2.229l0.887-1.189l2.07-3.121l1.184-1.338l1.923,0.446l2.067-1.487
			l2.811-3.121l2.07-3.567l0.294-5.202l0.446-4.608v-4.31l-1.037-2.824l0.886-1.338l1.174-1.19l3.197,18.229l4.237-0.691
			L716.303,391.368L716.303,391.368z"/>
		<path id="VA_2_" fill="#2A8175" stroke="#F4F1E9" stroke-width="0.8632" stroke-miterlimit="10" d="M684.479,442.138l1.775,3.27
			l1.183,1.19l2.663,0.742l2.367-0.593l2.219-2.082c0,0,1.628,1.339,2.219,1.19c0.591-0.147,3.993-0.891,3.993-0.891l1.628-4.307
			l2.368,0.888l2.961-2.227l1.331,0.295l1.922-1.785l0.146-2.526l-0.739-1.19l4.585-9.959l1.923-6.094l0.294-4.013l1.629-0.149
			l1.479,2.527l1.184,0.743h2.366l1.037-5.053l0.295-2.824l3.106-0.297l0.445-2.081l2.81-2.229l0.591-1.486l1.479-2.527l0.444-1.933
			l0.147-4.905l4.143,1.635l5.178,2.824l0.739-4.682l3.846,1.858v2.675l5.03,1.189l1.775,1.189l0.886-1.784l2.069,1.487
			l-1.331,2.972l-0.294,2.526l-1.63,2.378v1.933l0.592,1.635l4.634,1.246l1.725,1.43l4.733,0.297l2.368,2.082l2.96,0.594l1.185,1.19
			l-0.447,4.161l0.887,0.892l0.147,2.081l1.184,1.933l-0.148,1.635l-2.959-1.041v0.892l1.777,1.487v1.041l1.331,1.041l1.182,1.486
			l0.148,2.081l-2.07,1.339l0.294,0.448l2.368-0.448l2.959-0.595l1.038-0.149l3.728,6.462l-4.467,1.563l-10.505,2.677l-17.538,3.515
			l-18.853,3.471l-15.684,2.377l-14.474,1.786l-6.531,1.191l-4.13-0.57l-1.938-0.025l-2.219,1.785l-7.247,0.149l-10.973,1.746
			l-9.15,0.856l2.523-1.267l5.177-3.122l3.553-1.933v-1.934l1.628-1.633l4.144-4.905l3.844-3.27L684.479,442.138L684.479,442.138z"
			/>
		<path id="OH_2_" fill="#E2DCCA" stroke="#F4F1E9" stroke-width="0.8632" stroke-miterlimit="10" d="M693.208,348.088l-6.51,3.83
			L683.146,354l-3.106,3.418l-3.701,3.567l-2.96,0.743l-2.662,0.446l-5.03,2.378l-1.922,0.149l-3.107-2.824l-4.733,0.594
			l-2.368-1.338l-2.18-1.242l-4.477,0.647l-9.321,1.487l-7.1,1.115l1.183,13.453l1.63,12.634l2.368,21.551l0.518,5.276l3.773-0.222
			l2.219-0.744l2.661,1.487l1.479,4.013l5.323,0.297l1.629,1.635l1.923,0.149l2.219-1.338l2.81,0.446l1.183,1.338l2.515-2.378
			l1.63-1.19h1.476l0.591,2.527l1.63,0.892l3.182,2.155l1.996-0.074l1.777-0.744l0.145-2.526l1.478-1.338l0.148-4.608l0.885-3.567
			l1.185-0.594l1.184,1.041l0.444,1.635l1.629-0.892l0.445-1.487l-1.037-1.632v-2.229l0.886-1.189l2.07-3.122l1.184-1.338
			l1.924,0.446l2.068-1.487l2.809-3.122l2.07-3.567l0.294-5.202l0.446-4.608v-4.31l-1.038-2.824l0.886-1.338l1.258-0.669
			l-1.702-9.884L693.208,348.088L693.208,348.088z"/>
		<path id="WA_2_" fill="#E2DCCA" stroke="#F4F1E9" stroke-width="0.8632" stroke-miterlimit="10" d="M108.563,174.749l3.994,1.338
			l8.877,2.526l7.84,1.784l18.343,5.202l21.007,5.205l14.753,3.416l-0.92,3.571l-3.452,12.402l-4.08,19.128l-3.347,15.134
			l-0.176,8.918l-12.795-3.138l-13.808-3.258l-14.121,0.106l-0.418-1.261l-5.021,1.892l-4.08-0.526l-2.196-1.472l-1.152,0.631
			l-4.289-0.21l-1.569-1.261l-4.812-1.891l-0.732,0.105l-3.976-1.366l-1.777,1.682l-5.649-0.315l-5.44-3.783l0.628-0.736l0.21-7.147
			l-2.093-3.574l-3.765-0.526l-0.628-2.312l-2.153-0.429l-1.756-1.377l-1.629,0.892l-2.07-2.675l0.294-2.675l2.515-0.297
			l1.479-3.716l-2.368-1.041l0.147-3.418l3.994-0.595l-2.515-2.526l-1.332-6.54l0.592-2.675v-7.283l-1.628-2.972l2.071-8.621
			l1.924,0.446l2.219,2.675l2.515,2.378l2.958,1.784l4.143,1.932l2.809,0.595l2.663,1.338l3.106,0.892l2.071-0.149v-2.229
			l1.183-1.041l1.923-1.189l0.296,1.041l0.294,1.635l-2.071,0.445l-0.295,1.933l1.629,1.338l1.037,2.23l0.591,1.784l1.331-0.149
			l0.147-1.19l-0.887-1.189l-0.444-2.972l0.739-1.635l-0.591-1.338v-2.081l1.629-3.27l-1.037-2.378l-2.219-4.459l0.295-0.744
			L108.563,174.749z M99.909,180.246l1.85-0.149l0.444,1.263l1.407-1.487h2.143l0.74,1.412l-1.406,1.561l0.592,0.743l-0.666,1.858
			l-1.257,0.372c0,0-0.813,0.074-0.813-0.222c0-0.294,1.331-2.377,1.331-2.377l-1.552-0.52l-0.296,1.338l-0.664,0.594l-1.407-2.081
			L99.909,180.246L99.909,180.246z"/>
		<path id="TX_2_" fill="#E2DCCA" stroke="#F4F1E9" stroke-width="0.8632" stroke-miterlimit="10" d="M349.675,475.407l20.764,1
			l28.454,1.049l-1.256,21.86l-0.418,16.397l0.212,1.472l3.975,3.363l1.883,1.05l0.628-0.21l0.628-1.891l1.255,1.678h1.883v-1.261
			l2.511,1.261l-0.419,3.574l3.766,0.213l2.298,1.051l3.765,0.63l2.301,1.683l2.092-1.896l3.138,0.634l2.301,3.152h0.837v2.101
			l2.093,0.63l2.093-2.101l1.672,0.632h2.301l0.837,2.312l4.393,1.681l1.256-0.63l1.671-3.79h1.045l1.045,1.891l3.765,0.632
			l3.349,1.267l2.72,0.84l1.671-0.84l0.628-2.312h3.977l1.883,0.84l2.51-1.891h1.044l0.627,1.472h3.766l1.465-1.891l1.673,0.42
			l1.883,2.312l2.926,1.681l2.928,0.842l2.51,1.157l2.093,1.786l2.72-1.261l2.51,1.051l0.615,10.208l0.013,8.921l0.628,8.617
			l0.627,3.574l2.301,3.784l0.837,4.623l3.975,5.045l0.211,2.944l0.628,0.63l-0.628,7.777l-2.722,4.625l1.468,1.891l-0.628,2.312
			l-0.628,6.726l-1.255,2.942l0.255,3.296l-5.915,1.605l-9.025,4.161l-0.887,1.785l-2.367,1.787l-1.923,1.339l-1.183,0.744
			l-5.178,4.903l-2.514,1.934l-4.882,2.971l-5.178,2.224l-5.769,3.122l-1.627,1.339l-5.325,3.27l-3.107,0.595l-3.551,5.052
			l-3.699,0.296l-0.886,1.786l2.07,1.783l-1.33,5.054l-1.185,4.161l-1.038,3.568l-0.737,4.161l0.737,2.228l1.63,6.391l0.885,5.647
			l1.63,2.528l-0.887,1.337l-2.808,1.786l-5.176-3.566l-5.029-1.042l-1.185,0.452l-2.961-0.595l-3.846-2.824l-4.733-1.042
			l-6.953-3.121l-1.923-3.568l-1.183-5.946l-2.962-1.786l-0.592-2.081l0.592-0.595l0.295-3.121l-1.183-0.593l-0.592-0.893
			l1.184-4.012l-1.479-2.082l-2.959-1.19l-3.107-4.014l-3.254-6.095l-3.846-2.376l0.148-1.787l-4.885-11.293l-0.738-3.869
			l-1.629-1.785l-0.148-1.337l-5.473-4.905l-2.369-2.824v-1.042l-2.367-1.932l-6.215-1.041l-6.805-0.595l-2.808-2.081l-4.144,1.635
			l-3.255,1.337l-2.068,2.973l-0.886,3.417l-3.994,5.649l-2.219,2.224l-2.37-0.887l-1.627-1.042l-1.776-0.595l-3.553-2.081v-0.595
			l-1.629-1.783l-4.733-1.937l-6.806-7.131l-2.07-4.31v-7.431l-2.96-5.949l-0.445-2.526l-1.478-0.891l-1.036-1.934l-4.586-1.932
			l-1.183-1.488l-6.508-7.282l-1.183-2.973l-4.291-2.081l-1.331-4.012l-2.367-2.675l-1.775-0.45l-0.595-4.3l7.324,0.63l26.571,2.523
			l26.572,1.473l2.094-21.86l3.555-51.079l1.465-17.235l1.255,0.023 M441.347,690.503l-0.518-6.54l-2.515-6.614l-0.52-6.466
			l1.406-7.58l3.033-6.315l3.181-4.98l2.887-3.27l0.592,0.224l-4.365,6.093l-3.993,6.021l-1.85,6.093l-0.294,4.758l0.812,5.647
			l2.37,6.614l0.444,4.758l0.147,1.337L441.347,690.503z"/>
		<path id="CA_2_" fill="#2A8175" stroke="#F4F1E9" stroke-width="0.8632" stroke-miterlimit="10" d="M148.654,525.077l3.787-0.744
			l1.357-1.998l0.524-2.523l-3.348-0.525l-0.417-0.736l0.417-1.576l0.105-5.36l1.884-0.632l2.613-2.523l0.525-4.518l1.358-3.364
			l1.779-1.786l3.138-1.58l1.464-1.26l0.104-2.101l-0.943-0.527l-0.73-0.946l-1.151-5.362l-2.51-4.52l0.53-3.005l-2.306-2.986
			l-13.286-20.917l-17.783-26.697l-20.817-31.109l-11.331-17.082l1.497-6.037l6.382-23.857l7.428-28.902L96.58,318.54l-12.346-3.153
			l-11.507-3.784l-6.903-1.892l-10.461-2.732l-6.452-2.217l-1.446,4.344l-0.148,6.837l-4.733,10.85l-2.81,2.378l-0.294,1.041
			l-1.63,0.744l-1.33,3.864l-0.74,2.972l2.515,3.864l1.477,3.865l1.038,3.27l-0.296,5.946l-1.628,2.823l-0.591,5.351l-0.887,3.418
			l1.628,3.567l2.515,4.162l2.07,4.459l1.183,3.716l-0.294,2.972l-0.296,0.446v1.933l5.177,5.796l-0.444,2.229l-0.591,2.081
			l-0.593,1.784l0.148,7.58l1.922,3.418l1.776,2.378l2.515,0.446l0.886,2.526l-1.036,3.27l-1.923,1.487h-1.035l-0.74,3.567
			l0.444,2.675l2.959,4.013l1.479,4.906l1.332,4.309l1.183,2.822l3.106,5.353l1.332,2.377l0.444,2.675l1.479,0.891v2.229
			l-0.74,1.785l-1.63,6.54l-0.444,1.785l2.219,2.527l3.846,0.449l4.142,1.634l3.551,1.933h2.664l2.662,2.824l2.368,4.458
			l1.037,2.082l3.551,1.932l4.437,0.744l1.331,1.932l0.592,2.973l-1.332,0.593l0.296,0.893l2.959,0.742l2.514,0.146l2.663,4.307
			l3.55,3.868l0.74,2.081l2.368,3.868l0.294,2.97v8.622l0.444,1.633l9.172,1.337l18.049,2.528L148.654,525.077L148.654,525.077z
			 M67.588,478.775l1.182,1.412l-0.147,1.19l-2.959-0.074l-0.518-1.116l-0.592-1.337L67.588,478.775L67.588,478.775z
			 M69.359,478.775l1.111-0.595l3.253,1.933l2.809,1.114l-0.813,0.595l-4.143-0.222l-1.478-1.486L69.359,478.775L69.359,478.775z
			 M88.297,496.983l1.627,2.156l0.74,0.891l1.406,0.52l0.518-1.338l-0.887-1.635l-2.441-1.858l-0.963,0.149V496.983L88.297,496.983z
			 M86.966,504.935l1.627,2.898l1.11,1.785l-1.33,0.222l-1.185-1.118c0,0-0.664-1.338-0.664-1.708c0-0.373,0-2.007,0-2.007
			L86.966,504.935z"/>
		<path id="UT_2_" fill="#E2DCCA" stroke="#F4F1E9" stroke-width="0.8632" stroke-miterlimit="10" d="M255.163,454.757l-23.43-3.784
			l-24.896-4.204l-30.661-5.683l1.894-9.452l2.929-13.978l3.034-15.24l1.987-12.507l1.779-8.198l3.452-18.813l3.241-16.081
			l1.02-5.126l11.64,2.076l10.982,1.892l9.415,1.682l7.637,1.261l4.394,0.735l-1.505,9.774l-1.528,10.931l5.97,0.853l15.455,2.101
			l8.395,1.081l-2.83,20.345l-2.927,20.6l-3.436,25.728l-1.377,10.213L255.163,454.757L255.163,454.757z"/>
		<path id="CO_2_" fill="#2A8175" stroke="#F4F1E9" stroke-width="0.8632" stroke-miterlimit="10" d="M366.674,465.686l3.765-60.534
			l1.465-20.602l-30.545-2.522l-22.386-1.892l-34.101-3.784l-18.933-2.312l-2.406,20.389l-2.927,20.6l-3.436,25.729l-1.377,10.213
			l-0.525,3.574l31.486,3.784l33.803,4.069l29.982,2.025l6.093,0.632l10.461,0.525"/>
		<path id="OR_2_" fill="#2A8175" stroke="#F4F1E9" stroke-width="0.8632" stroke-miterlimit="10" d="M151.917,331.79l4.079-16.606
			l3.977-16.29l1.256-3.889l2.299-5.465l-1.152-2.101l-2.3,0.105l-0.731-0.946l0.418-1.051l0.314-2.838l4.08-5.044l1.673-0.42
			l1.045-1.051l0.524-2.943l0.838-0.631l3.556-5.362l3.555-3.994l0.209-3.468l-3.138-2.415l-0.96-3.851l-12.848-3.296l-13.807-3.258
			l-14.121,0.105l-0.419-1.26l-5.019,1.891l-4.08-0.525l-2.197-1.472l-1.153,0.631l-4.289-0.21l-1.569-1.261l-4.812-1.891
			l-0.732,0.105l-3.975-1.366l-1.779,1.682l-5.649-0.315l-5.44-3.784l0.628-0.735l0.211-7.147l-2.093-3.574l-3.766-0.526
			l-0.628-2.312l-2.154-0.429l-5.306,1.893l-2.071,5.946l-2.959,9.215l-2.96,5.946l-4.586,12.931l-5.916,12.485l-7.396,11.593
			l-1.776,2.675l-0.74,7.877l-1.183,5.499l2.038,4.128l6.453,2.217l10.461,2.732l6.903,1.892l11.506,3.784l12.345,3.153
			l12.345,3.574 M151.649,332.161l-42.936-10.17l30.754,7.486l12.552,2.732"/>
		<path id="SD_2_" fill="#E2DCCA" stroke="#F4F1E9" stroke-width="0.8632" stroke-miterlimit="10" d="M456.326,356.444l-0.873-1.879
			l-1.538-2.596l1.67-3.994l1.255-5.255l-2.509-1.892l-0.416-2.523l0.837-2.311h1.673l0.415-6.306l-0.209-27.956L456.213,299
			l-3.764-3.152l-1.045-1.682v-1.472l1.883-1.472l1.255-1.261l0.314-2.943l-53.244-1.472l-51.402-3.574l-0.701,4.854l-1.475,14.589
			l-1.231,16.5l-1.467,23.647l14.228,0.946l18.407,1.051l16.32,1.051l21.759,1.051l9.833-0.42l1.883,2.101l4.393,2.733l1.046,0.841
			l3.974-1.261l3.555-0.42l2.51-0.21l1.673,1.261l4.602,1.472l2.721,1.472l0.418,1.472l0.837,1.892h1.673L456.326,356.444
			L456.326,356.444z"/>
		<path id="NE_2_" fill="#E2DCCA" stroke="#F4F1E9" stroke-width="0.8632" stroke-miterlimit="10" d="M467.095,395.69l1.255,2.312
			l-0.209,2.102l2.301,3.573l2.926,3.784h-5.649l-40.378-0.42l-37.028-1.261l-19.979-0.735l1.569-20.494l-30.545-2.523l3.976-40.463
			l14.228,0.946l18.407,1.051l16.32,1.051l21.759,1.051l9.833-0.42l1.883,2.102l4.393,2.732l1.045,0.841l3.975-1.261l3.555-0.42
			l2.51-0.21l1.673,1.261l4.602,1.472l2.721,1.472l0.418,1.472l0.837,1.892h1.673l1.465-0.106l1.045,4.94l2.509,6.934l0.839,4.415
			l2.093,3.363l0.628,4.834l1.464,3.784l0.213,6.096l1.773,5.058"/>
		<path id="MS_2_" fill="#E2DCCA" stroke="#F4F1E9" stroke-width="0.8632" stroke-miterlimit="10" d="M595.3,598.237l-1.063,1.155
			h-4.733l-1.331-0.742l-1.923-0.298l-6.213,1.787l-1.63-0.744l-2.367,3.865l-1.009,0.718l-1.029-2.291l-1.045-3.574l-3.137-2.94
			l1.044-6.935l-0.628-0.842l-1.67,0.21l-7.531,0.632l-22.176,0.63l-0.416-1.472l0.628-7.36l3.137-5.675l4.812-8.407l-0.837-1.897
			h1.043l0.628-2.938l-2.093-1.681l0.211-1.683l-1.883-4.204l-0.26-4.914l1.256-2.444l-0.369-3.993l-1.255-2.732l1.255-1.261
			l-1.255-1.891l0.417-1.683l0.838-5.675l2.722-2.525l-0.628-1.892l3.349-4.836l2.51-0.842v-2.312l-0.628-1.259l2.51-4.835
			l2.51-1.051l0.098-3.137l7.94-0.069l22.045-1.785l5.021-0.212l0.008,5.858l0.146,15.31l-0.738,28.537l-0.147,12.931l2.515,17.241
			L595.3,598.237L595.3,598.237z"/>
		<path id="IN_2_" fill="#E2DCCA" stroke="#F4F1E9" stroke-width="0.8632" stroke-miterlimit="10" d="M589.061,446.448l-0.147-3.566
			l0.445-4.163l2.07-2.675l1.628-3.566l2.367-3.865l-0.444-5.351l-1.627-2.526l-0.296-2.972l0.74-5.054l-0.444-6.392l-1.186-14.715
			l-1.184-14.12l-0.885-10.776l2.808,0.818l1.331,0.892l1.039-0.297l1.92-1.784l2.589-1.487l4.661-0.149l20.12-2.081l5.621-0.595
			l0.147,1.041l1.331,13.526l1.628,12.634l2.37,21.552l0.444,5.202l-0.444,2.082l1.331,1.338l0.294,1.784l-2.514,1.784l-3.551,1.635
			l-2.515,0.297l-0.447,4.162l-4.29,3.567l-2.662,3.27l0.295,2.081l-0.739,1.933h-4.29l-1.039-1.486l-1.036,0.742l-2.663,1.488
			l0.148,3.121l-1.923,0.448l-0.739-1.041l-1.776-1.486l-2.662,1.337l-1.628,2.973l-1.63-0.744l-1.331-1.785l-3.255,0.449
			l-5.323,0.891L589.061,446.448z"/>
		<path id="IL_2_" fill="#E2DCCA" stroke="#F4F1E9" stroke-width="0.8632" stroke-miterlimit="10" d="M588.912,446.299v-3.417
			l0.444-4.163l2.071-2.675l1.627-3.566l2.367-3.865l-0.444-5.351l-1.628-2.526l-0.295-2.972l0.74-5.054l-0.444-6.392l-1.187-14.715
			l-1.182-14.12l-0.74-10.702l-1.184-0.743l-0.74-2.378l-1.184-3.418l-1.476-1.635l-1.332-2.378l-0.216-5.047l-9.058,1.207
			l-24.896,1.576l-7.954-0.394l0.212,2.18l2.093,0.631l0.837,1.051l0.418,1.682l3.555,3.153l0.626,2.101l-0.626,3.153l-1.671,3.363
			l-0.628,2.312l-2.094,1.682l-1.672,0.631l-4.812,1.261l-0.626,1.681l-0.628,1.892l0.628,1.261l1.671,1.472l-0.21,3.783
			l-1.673,1.473l-0.627,1.472v2.523l-1.67,0.42l-1.468,1.051l-0.209,1.261l0.209,1.892l-1.57,1.209l-0.941,2.575l0.418,3.363
			l2.093,6.726l6.697,6.936l5.021,3.363l-0.211,3.994l0.839,1.261l5.859,0.42l2.509,1.261l-0.628,3.363l-2.094,5.464l-0.628,2.942
			l2.096,3.574l5.858,4.835l4.184,0.63l1.883,4.623l1.883,2.942l-0.837,2.73l1.465,3.786l1.672,1.893l2.714-0.31l0.526-1.885
			l2.071-1.634l1.923-0.595l2.514,1.19l3.254,1.191l1.036-0.297l0.148-2.081l-1.184-2.229l0.294-2.081l1.777-1.337l2.368-0.595
			l1.476-0.595l-0.736-1.635l-0.593-1.785l1.037-0.742L588.912,446.299L588.912,446.299z"/>
		<path id="MN_2_" fill="#E2DCCA" stroke="#F4F1E9" stroke-width="0.8632" stroke-miterlimit="10" d="M454.753,287.018l-0.419-7.777
			l-1.67-6.726l-1.673-12.402l-0.415-9.039l-1.673-3.152l-1.465-4.625v-9.458l0.628-3.574l-1.67-5.012l27.574,0.032l0.295-7.58
			l0.592-0.148l2.07,0.446l1.776,0.744l0.739,5.054l1.329,5.648l1.478,1.486h4.438l0.296,1.338l5.769,0.297v1.933h4.436l0.294-1.189
			l1.037-1.041l2.069-0.595l1.184,0.892h2.662l3.554,2.378l4.882,2.229l2.219,0.446l0.446-0.892l1.332-0.446l0.444,2.675
			l2.367,1.189l0.444-0.446l1.186,0.148v1.933l2.367,0.892h2.808l1.48-0.744l2.958-2.972l2.37-0.446l0.737,1.635l0.447,1.19h0.884
			l0.887-0.744l8.136-0.297l1.628,2.824h0.594l0.651-0.997l4.065-0.34l-0.564,2.096l-3.602,1.689l-8.463,3.733l-4.37,1.846
			l-2.81,2.378l-2.219,3.27l-2.071,3.567l-1.628,0.743l-4.144,4.608l-1.183,0.149l-3.107,2.824l0.63,0.5l-2.577,2.489l-0.209,2.523
			v7.777l-1.045,1.472l-4.812,3.574l-2.094,5.465l0.417,0.21l2.301,1.892l0.627,2.943l-1.673,2.943v3.574l0.419,6.096l2.72,2.732
			h3.138l1.671,2.943l3.137,0.42l3.556,5.256l6.486,3.783l1.883,2.523l0.838,6.936h-3.766l-16.526,0.631l-45.398,0.631h-10.566
			l0.524-6.305l-0.21-27.956l-0.418-2.733l-3.765-3.152l-1.044-1.682v-1.472l1.883-1.472l1.256-1.26L454.753,287.018
			L454.753,287.018z"/>
		<path id="OK_2_" fill="#E2DCCA" stroke="#F4F1E9" stroke-width="0.8632" stroke-miterlimit="10" d="M366.413,465.476l-9.782-0.419
			l-5.883-0.448l0.236,0.184l-0.494,10.615l19.953,1l28.454,1.049l-1.256,21.86l-0.417,16.397l0.211,1.472l3.975,3.363l1.883,1.05
			l0.628-0.21l0.628-1.891l1.255,1.678h1.884v-1.261l2.51,1.261l-0.419,3.574l3.766,0.213l2.299,1.051l3.765,0.63l2.3,1.683
			l2.092-1.896l3.138,0.634l2.301,3.152h0.837v2.101l2.093,0.63l2.094-2.101l1.671,0.632h2.301l0.837,2.312l4.393,1.681l1.256-0.63
			l1.67-3.79h1.045l1.045,1.891l3.764,0.632l3.349,1.267l2.72,0.84l1.672-0.84l0.628-2.312h3.976l1.883,0.84l2.51-1.891h1.044
			l0.627,1.472h3.766l1.465-1.891l1.673,0.42l1.883,2.312l2.926,1.681l2.928,0.842l2.51,1.472l-0.21-35.103l-1.256-10.09v-7.567
			l-1.466-6.305l-0.416-6.306l-0.212-4.099l-12.135,0.735l-42.47-0.42l-41.216-1.891L366.413,465.476L366.413,465.476z"/>
		<path fill="#E2DCCA" stroke="#F4F1E9" stroke-width="0.8632" stroke-miterlimit="10" d="M775.313,411.445l-1.702,0.446
			l1.036,2.304l0.147,1.635l1.037,1.709c0,0,0.814-0.817,0.814-1.114c0-0.297-0.666-2.824-0.666-2.824L775.313,411.445z"/>
		<path fill="#E2DCCA" stroke="#F4F1E9" stroke-width="0.8632" stroke-miterlimit="10" d="M788.625,402.9l-5.619,1.188l-4.586,0.149
			l-1.476-5.797l-1.923-8.918l-2.07-5.203l-1.179-4.044l-7.596,1.492l-13.613,2.595l-34.271,6.942l1.037,4.608l0.885,5.203
			l0.294-0.297l1.923-2.229l2.07-2.824l2.219-0.148l1.331-1.338l1.63-2.378l1.184,0.594l2.66-0.297l2.368-1.933l1.836-1.336
			l1.688-0.446l1.507,1.039l2.661,1.338l1.777,1.635l1.11,1.412l3.772,1.56v2.675l5.03,1.189l1.775,1.189l0.887-1.784l2.069,1.487
			l-1.329,2.972l-0.296,2.526l-1.627,2.378v1.933l0.592,1.635l4.633,1.246l3.945-0.057l2.811,0.892l1.922,0.294l0.885-1.932
			l-1.331-1.933v-1.635l-2.219-1.932l-1.923-5.054l1.184-4.905l-0.148-1.932l-1.184-1.19c0,0,1.332-1.486,1.332-2.081
			c0-0.595,0.444-1.933,0.444-1.933l1.776-1.189l1.777-1.487l0.445,0.892l-1.332,1.487l-1.183,3.418l0.294,1.041l1.63,0.297
			l0.444,5.054l-1.923,0.892l0.295,3.27l0.444-0.149l1.037-1.784l1.478,1.635l-1.478,1.189l-0.294,3.121l2.367,3.122l3.552,0.446
			l1.478-0.744l2.96,4.756l1.629,0.446v3.27l-2.071,4.458l-0.444,6.392l1.331,3.121l1.332,0.149l1.776-3.864l0.738-3.27l0.147-6.54
			l2.809-4.459l1.922-6.392v-5.199L788.625,402.9L788.625,402.9z"/>
	</g>
</g>
</svg>
