<svg version="1.1" xmlns="http://www.w3.org/2000/svg" xmlns:xlink="http://www.w3.org/1999/xlink" x="0px" y="0px"
	 viewBox="0 0 320 440" enable-background="new 0 0 320 440" xml:space="preserve">
<g id="bottom">
	<g>
		<g>
			<rect x="16.854" y="256.637" fill="#E9AE6C" width="54.201" height="173.663"/>
		</g>
	</g>
	<g>
		<g>
			<rect x="16.854" y="87.108" fill="#DC8650" width="54.201" height="169.528"/>
		</g>
	</g>
	<g>
		<g>
			<rect x="16.854" y="82.973" fill="#C22E33" width="54.201" height="4.135"/>
		</g>
	</g>
	<g>
		<g>
			<rect x="16.854" y="16.816" fill="#922A46" width="54.201" height="66.157"/>
		</g>
	</g>
	<polygon opacity="0.3" fill="#922A46" points="71.055,16.815 85.057,16.815 85.057,64.815 71.055,82.973 	"/>
	<polygon opacity="0.3" fill="#D13239" points="71.055,82.973 71.055,87.107 85.057,123.285 85.057,75.285 	"/>
	<polygon opacity="0.3" fill="#D3663B" points="71.055,87.107 85.057,147.872 85.057,195.872 71.055,256.636 	"/>
	<polygon opacity="0.3" fill="#E9AE6C" points="71.055,256.636 85.057,319.468 85.057,367.468 71.055,430.3 	"/>
	<rect x="85.057" y="16.815" opacity="0.15" fill="#922A46" width="53.797" height="48"/>
	<rect x="85.057" y="75.285" opacity="0.15" fill="#D13239" width="53.797" height="48"/>
	<rect x="85.057" y="147.872" opacity="0.15" fill="#D3663B" width="53.797" height="48"/>
	<rect x="85.057" y="319.468" opacity="0.15" fill="#E9AE6C" width="53.797" height="48"/>
	<g>
		<g>
			<polygon fill="#751E32" points="100.467,34.209 112.07,28.621 123.688,34.209 126.471,46.429 130.706,46.429 127.274,31.35 
				112.068,24.038 96.883,31.352 93.451,46.385 93.451,46.429 97.678,46.429 			"/>
			<polygon fill="#922A46" points="104.603,45.678 105.763,45.678 112.074,45.678 112.073,42.947 105.762,42.947 104.602,42.947 
				104.602,41.787 104.602,37.993 104.602,36.833 105.762,36.833 112.071,36.833 112.07,28.621 100.467,34.209 97.678,46.429 
				104.603,46.429 			"/>
			<rect x="105.762" y="37.993" fill="#922A46" width="5.736" height="3.794"/>
			<polygon fill="#922A46" points="105.763,47.596 105.763,56.832 111.185,52.215 			"/>
			<polygon fill="#922A46" points="106.658,57.592 112.078,57.592 112.076,52.978 			"/>
			<polygon fill="#922A46" points="104.603,46.429 97.678,46.429 97.582,46.852 97.573,57.592 104.603,57.592 104.603,46.836 			"/>
			<polygon fill="#922A46" points="106.658,46.836 112.076,51.45 112.074,46.836 			"/>
			<polygon fill="#751E32" points="112.07,28.621 112.071,36.833 118.393,36.833 119.552,36.833 119.552,37.993 119.552,41.787 
				119.552,42.947 118.393,42.947 112.073,42.947 112.074,45.678 118.395,45.678 119.553,45.678 119.553,46.429 126.471,46.429 
				123.688,34.209 			"/>
			<rect x="112.657" y="37.993" fill="#751E32" width="5.736" height="3.794"/>
			<polygon fill="#751E32" points="112.076,52.978 112.078,57.592 117.5,57.592 112.079,52.975 			"/>
			<polygon fill="#751E32" points="118.395,56.832 118.395,47.596 112.973,52.215 			"/>
			<polygon fill="#751E32" points="112.076,51.45 112.079,51.453 117.5,46.836 112.074,46.836 			"/>
			<polygon fill="#751E32" points="119.553,46.836 119.553,57.592 126.584,57.592 126.584,46.928 126.471,46.429 119.553,46.429 			
				"/>
			<polygon fill="#641326" points="112.07,28.621 123.688,34.209 126.471,46.429 130.706,46.429 127.274,31.35 112.068,24.038 			
				"/>
		</g>
	</g>
	<g>
		<g>
			<polygon fill="none" points="95.628,186.518 95.628,169.893 95.628,167.398 95.628,166.219 95.628,185.339 116.318,186.518 
				116.318,186.518 			"/>
			<polygon fill="none" points="123.356,186.518 117.497,186.518 117.497,186.518 123.356,186.518 123.356,186.518 			"/>
			<rect x="124.535" y="186.518" fill="none" width="1.711" height="0"/>
			<rect x="113.357" y="173.296" fill="#858688" width="0" height="8.592"/>
			<path fill="#D3663B" d="M95.628,169.893v16.625h20.69v-13.222v-1.179h1.179h5.859h1.179v1.179v13.222h1.711v-16.625H95.628z
				 M114.536,173.296v8.592v1.179h-1.179h-14.76h-1.179v-1.179v-8.592v-1.179h1.179h14.76h1.179V173.296z"/>
			<rect x="123.356" y="173.296" fill="#D3663B" width="0" height="13.222"/>
			<polygon fill="#F7F4EE" points="98.237,166.219 98.237,166.219 98.231,166.248 			"/>
			<polygon fill="#F7F4EE" points="123.636,166.219 123.636,166.219 123.642,166.248 			"/>
			<rect x="126.245" y="169.893" fill="#F7F4EE" width="0" height="16.625"/>
			<rect x="117.497" y="173.296" fill="#D3663B" width="5.859" height="13.222"/>
			<rect x="123.945" y="185.928" fill="#F7F4EE" width="0" height="1.179"/>
			<rect x="116.318" y="186.518" fill="#F7F4EE" width="1.179" height="0"/>
			<rect x="98.597" y="173.296" fill="#F1EDE4" width="14.76" height="8.592"/>
			<path fill="#F7F4EE" d="M98.597,172.117h-1.179v1.179v8.592v1.179h1.179h14.76h1.179v-1.179v-8.592v-1.179h-1.179H98.597z
				 M113.357,181.888L113.357,181.888h-14.76v-8.592h14.76l0,0V181.888z"/>
			<rect x="95.628" y="167.398" fill="#C05D34" width="30.618" height="2.495"/>
			<rect x="126.245" y="167.398" fill="#747677" width="0" height="2.495"/>
			<polygon fill="#E7786F" points="103.501,166.248 103.505,166.219 98.237,166.219 98.231,166.248 			"/>
			<rect x="103.503" y="166.219" fill="#D13239" width="5.249" height="0.03"/>
			<polygon fill="#D13239" points="98.237,166.219 95.628,166.219 94.449,166.219 94.449,166.248 98.231,166.248 			"/>
			<polygon fill="#E7786F" points="118.372,166.248 123.642,166.248 123.636,166.219 118.368,166.219 			"/>
			<rect x="113.123" y="166.219" fill="#D13239" width="5.249" height="0.029"/>
			<polygon fill="#D13239" points="127.424,166.248 127.424,166.219 126.245,166.219 123.636,166.219 123.642,166.248 			"/>
			<rect x="108.75" y="166.219" fill="#E7786F" width="4.373" height="0.029"/>
			<rect x="95.628" y="157.256" fill="#D3663B" width="30.618" height="2.557"/>
			<polygon fill="#F1EDE4" points="104.376,159.727 99.993,159.727 98.237,167.497 103.505,167.497 			"/>
			<polygon fill="#D13239" points="108.75,167.497 108.75,159.727 104.376,159.727 103.505,167.497 			"/>
			<polygon fill="#D13239" points="95.628,167.497 98.237,167.497 99.992,159.727 95.618,159.727 92.939,167.526 94.449,167.526 
				94.449,167.497 			"/>
			<polygon fill="#F1EDE4" points="123.636,167.497 121.88,159.727 117.497,159.727 118.368,167.497 			"/>
			<polygon fill="#D13239" points="118.368,167.497 117.497,159.727 113.123,159.727 113.123,167.497 			"/>
			<polygon fill="#D13239" points="127.424,167.497 127.424,167.526 128.934,167.526 126.255,159.727 121.881,159.727 
				123.636,167.497 126.245,167.497 			"/>
			<rect x="108.75" y="159.727" fill="#F1EDE4" width="4.373" height="7.77"/>
			<polygon opacity="0.2" fill="#555759" points="110.937,186.488 126.245,186.518 126.245,167.397 128.934,167.526 
				126.245,159.813 126.245,157.227 110.937,157.227 			"/>
		</g>
	</g>
	<g>
		<g>
			<polygon fill="#E9AE6C" points="111.057,330.283 96.841,342.021 96.841,359.814 125.271,359.814 125.271,342.021 			"/>
			<g>
				<g>
					<rect x="98.621" y="344.459" fill="#F1EDE4" width="5.367" height="4.844"/>
					<path fill="#CF9C61" d="M104.525,349.84h-6.441v-5.92h6.441V349.84z M99.158,348.765h4.293v-3.77h-4.293V348.765z"/>
				</g>
				<g>
					<rect x="103.987" y="344.459" fill="#F1EDE4" width="5.368" height="4.844"/>
					<path fill="#CF9C61" d="M109.892,349.84h-6.441v-5.92h6.441V349.84z M104.525,348.765h4.293v-3.77h-4.293V348.765z"/>
				</g>
				<g>
					<rect x="98.621" y="349.303" fill="#F1EDE4" width="5.367" height="4.845"/>
					<path fill="#CF9C61" d="M104.525,354.685h-6.441v-5.92h6.441V354.685z M99.158,353.611h4.293v-3.77h-4.293V353.611z"/>
				</g>
				<g>
					<rect x="103.987" y="349.303" fill="#F1EDE4" width="5.368" height="4.845"/>
					<path fill="#CF9C61" d="M109.892,354.685h-6.441v-5.92h6.441V354.685z M104.525,353.611h4.293v-3.77h-4.293V353.611z"/>
				</g>
			</g>
			<polygon fill="#CF9C61" points="111.057,330.283 111.135,359.814 125.271,359.814 125.271,342.021 			"/>
			<polygon fill="#C28F5B" points="96.841,342.021 111.057,330.283 125.271,342.021 125.271,342.039 129.12,342.039 
				111.057,327.123 92.993,342.039 96.841,342.039 			"/>
			<rect x="114.712" y="344.459" fill="#C28F5B" width="8.122" height="15.356"/>
		</g>
	</g>
	<g>
		<g>
			<path fill="#D13239" d="M91.635,115.567h32.782l-2.169-32.563h-4.292l-1.523,16.821c-0.01,0.123-8.091-2.89-8.091-2.89v3.07
				c0,0.131-8.353-3.062-8.353-3.062v3.062c0,0.131-8.353-3.062-8.353-3.062V115.567z"/>
			<path fill="#A62C31" d="M94.419,111.306h3.879v-6.651h-3.879V111.306z"/>
			<path fill="#A62C31" d="M101.861,111.306h3.879v-6.651h-3.879V111.306z"/>
			<path fill="#A62C31" d="M109.302,111.306h3.88v-6.651h-3.88V111.306z"/>
			<path fill="#A62C31" d="M116.744,111.306h3.88v-6.651h-3.88V111.306z"/>
		</g>
		<polygon fill="#A62C31" points="120.124,83.004 120.124,101.143 123.537,102.362 122.247,83.004 		"/>
	</g>
	<text transform="matrix(1 0 0 1 148.8535 57.0479)" fill="#922A46" font-size="24px">16%</text>
	<text transform="matrix(1 0 0 1 148.8537 115.5186)" fill="#D13239" font-size="24px">2%</text>
	<text transform="matrix(1 0 0 1 148.8535 201.8726)" fill="#D3663B" font-size="24px">40%</text>
	<text transform="matrix(1 0 0 1 148.8537 360.7012)" fill="#E9AE6C" font-size="24px">43%</text>
	<g>
		<text transform="matrix(1 0 0 1 148.8535 33.0996)" fill="#555759" font-size="15px">FARMS</text>
	</g>
	<g>
		<text transform="matrix(1 0 0 1 148.8532 93.1074)" fill="#555759" font-size="15px">MANUFACTURERS</text>
	</g>
	<g>
		<text transform="matrix(1 0 0 1 148.8534 336.2544)" fill="#555759" font-size="15px">HOMES</text>
	</g>
	<g>
		<text transform="matrix(1 0 0 1 148.8534 159.2747)"><tspan x="0" y="0" fill="#555759" font-size="15px">CONSUMER-FACING</tspan><tspan x="0" y="17" fill="#555759" font-size="15px">BUSINESSES</tspan></text>
	</g>
</g>
</svg>
