<svg version="1.1" xmlns="http://www.w3.org/2000/svg" xmlns:xlink="http://www.w3.org/1999/xlink" x="0px" y="0px"
	 viewBox="0 0 250 250" enable-background="new 0 0 250 250" xml:space="preserve">
	<g id="consumers-icon-group">
		<g>
			<path fill="#D1E9E7" d="M125,1.226C58.378,1.226,3.912,54.139,1.348,120.141h28.064h31.864h10.666v-14.616V52.194
				c0-0.673,0.271-1.27,0.679-1.741l9.546-16.982c0.472-0.844,1.369-1.369,2.34-1.369h80.988c0.971,0,1.868,0.524,2.34,1.369
				l9.545,16.982c0.409,0.471,0.68,1.068,0.68,1.741v53.331v14.616h10.665h31.865h28.063C246.089,54.139,191.622,1.226,125,1.226z"/>
			<g>
				<path fill="#A1D4D0" d="M227.89,127.685l18.219,22.869c1.559-7.402,2.431-15.049,2.599-22.869H227.89z"/>
				<path fill="#A1D4D0" d="M98.035,215.475c0,1.485-1.201,2.686-2.686,2.686h-12.28c-1.485,0-2.686-1.201-2.686-2.686v-2.143h-5.755
					c-1.037,0-1.908-0.604-2.357-1.463l-5.874,22.123c16.713,9.023,35.73,14.281,55.916,14.714v-35.374H98.035V215.475z"/>
				<path fill="#A1D4D0" d="M194.347,127.685l34.378,64.729c6.993-10.722,12.372-22.581,15.785-35.247l-23.487-29.483H194.347z"/>
				<path fill="#A1D4D0" d="M71.942,127.685H61.739l-37.031,69.724c9.857,13.614,22.397,25.157,36.861,33.825l10.373-39.063V127.685z
					"/>
				<path fill="#A1D4D0" d="M1.293,127.685c0.168,7.819,1.039,15.467,2.599,22.869l18.218-22.869H1.293z"/>
				<path fill="#A1D4D0" d="M178.059,127.685v64.487l10.372,39.063c14.464-8.668,27.005-20.211,36.861-33.825l-37.031-69.724H178.059
					z"/>
				<path fill="#A1D4D0" d="M175.373,213.331h-5.755v2.143c0,1.485-1.201,2.686-2.685,2.686h-12.281
					c-1.485,0-2.686-1.201-2.686-2.686v-2.143h-24.279v35.374c20.186-0.434,39.203-5.692,55.916-14.714l-5.874-22.123
					C177.281,212.728,176.409,213.331,175.373,213.331z"/>
				<path fill="#A1D4D0" d="M28.977,127.685L5.49,157.167c3.413,12.666,8.792,24.524,15.785,35.247l34.378-64.729H28.977z"/>
			</g>
			<g>
				<path fill="#D1E9E7" d="M77.313,54.88v47.96h95.373V54.88H77.313z M90.277,94.632c0,1.484-1.202,2.686-2.686,2.686h-2.691
					c-1.485,0-2.686-1.202-2.686-2.686V63.083c0-1.485,1.201-2.686,2.686-2.686h2.691c1.484,0,2.686,1.201,2.686,2.686V94.632z"/>
				<path fill="#D1E9E7" d="M77.313,120.141v2.172v2.107v0.58v0.513v2.172v44.256v0.001v20.939v0.001v15.078h45.001h5.372h45.001
					v-15.078v-0.001v-20.939v-0.001v-44.256v-2.172v-0.513v-0.58v-2.107v-2.172v-11.929H77.313V120.141z M82.213,116.414
					c0-1.485,1.201-2.686,2.686-2.686h2.691c1.484,0,2.686,1.201,2.686,2.686v3.727v2.172v0.812v1.295v0.58v2.685v16.379v0.001
					v15.779c0,1.485-1.202,2.686-2.686,2.686h-2.218h-0.474c-1.485,0-2.686-1.201-2.686-2.686v-6.353v-0.002v-25.803v-2.172v-0.513
					v-0.58v-2.107v-2.172V116.414z"/>
				<polygon fill="#D1E9E7" points="163.921,37.473 86.08,37.473 79.312,49.508 170.688,49.508 			"/>
			</g>
			<g>
				<path fill="#5AB7B2" d="M248.707,122.313c-0.015-0.725-0.027-1.45-0.055-2.172h-28.063h-31.865h-10.665v-14.616V52.194
					c0-0.673-0.271-1.27-0.68-1.741l-9.545-16.982c-0.472-0.844-1.37-1.369-2.34-1.369H84.506c-0.971,0-1.867,0.524-2.34,1.369
					l-9.546,16.982c-0.408,0.471-0.679,1.068-0.679,1.741v53.331v14.616H61.276H29.412H1.348c-0.028,0.722-0.055,7.544-0.055,7.544
					H22.11L3.892,150.553v0.001c0.47,2.228,1.009,4.429,1.597,6.61c0.001,0.001,0.001,0.002,0.001,0.002l23.487-29.482h26.676
					l-34.378,64.729c0.001,0.001,0.001,0.001,0.001,0.001c1.104,1.694,2.246,3.357,3.43,4.991c0.001,0.001,0.001,0.001,0.001,0.002
					l37.031-69.724h10.203v64.487l-10.373,39.063h0.001c1.588,0.952,3.194,1.876,4.827,2.757h0.001l5.874-22.123
					c0.449,0.859,1.32,1.463,2.357,1.463h5.755v2.143c0,1.485,1.201,2.686,2.686,2.686h12.28c1.485,0,2.686-1.201,2.686-2.686v-2.143
					h24.279v35.374c0.897,0.02,1.785,0.068,2.686,0.068s1.79-0.049,2.686-0.068v-35.374h24.279v2.143
					c0,1.485,1.201,2.686,2.686,2.686h12.281c1.484,0,2.685-1.201,2.685-2.686v-2.143h5.755c1.036,0,1.908-0.604,2.356-1.463
					l5.874,22.123l0.001,0c1.634-0.881,3.24-1.805,4.828-2.757v0l-10.372-39.063v-64.487h10.202l37.031,69.724
					c0.001-0.001,0.001-0.001,0.001-0.001c1.183-1.635,2.326-3.298,3.43-4.991l0.001-0.003l-34.378-64.729h26.676l23.487,29.483
					c0,0,0.001-0.001,0.001-0.003c0.588-2.182,1.128-4.383,1.597-6.61l0.001-0.001l-18.219-22.869h20.817V122.313z M172.687,127.685
					v44.256v0.001v20.939v0.001v15.078h-45.001h-5.372H77.313v-15.078v-0.001v-20.939v-0.001v-44.256v-2.172v-0.513v-0.58v-2.107
					v-2.172v-11.929h95.373v11.929v2.172v2.107v0.58v0.513V127.685z M163.921,37.473l6.768,12.035H79.312l6.768-12.035H163.921z
					 M77.313,54.88h95.373v47.96H77.313V54.88z"/>
				<path fill="#5AB7B2" d="M87.591,60.396h-2.691c-1.485,0-2.686,1.201-2.686,2.686v31.549c0,1.484,1.201,2.686,2.686,2.686h2.691
					c1.484,0,2.686-1.202,2.686-2.686V63.083C90.277,61.598,89.075,60.396,87.591,60.396z"/>
				<path fill="#5AB7B2" d="M87.591,113.727h-2.691c-1.485,0-2.686,1.201-2.686,2.686v3.727v2.172v2.107v0.58v0.513v2.172v25.803
					v0.002v6.353c0,1.485,1.201,2.686,2.686,2.686h0.474h2.218c1.484,0,2.686-1.201,2.686-2.686v-15.779v-0.001v-16.379v-2.685v-0.58
					v-1.295v-0.812v-2.172v-3.727C90.277,114.929,89.075,113.727,87.591,113.727z"/>
			</g>
		</g>
	</g>
</svg>
