<svg version="1.1" xmlns="http://www.w3.org/2000/svg" xmlns:xlink="http://www.w3.org/1999/xlink" x="0px" y="0px"
	 viewBox="0 0 250 250" enable-background="new 0 0 250 250" xml:space="preserve">
	<g id="federal-government-icon-group">
		<g>
			<path fill="#D1E9E7" d="M125,0C56.855,0,1.486,54.539,0.067,122.344h2.654h65.197V71.647h-34.25c-1.468,0-2.655-1.187-2.655-2.655
				v-1.573c0.923-10.937,9.697-19.259,20.42-19.583h1.188c0.026,0,0.052,0,0.052,0h107.646c0.161-0.044,0.866-0.046,1.218,0
				c11.507,0.35,20.545,9.643,20.545,21.157v53.352h65.192h2.658C248.515,54.539,193.145,0,125,0z"/>
			<g>
				<path fill="#D1E9E7" d="M107.598,179.213h69.18l-0.003-51.559V125v-0.573v-2.083l-0.002-53.352
					c0-8.626-6.778-15.587-15.427-15.847c-0.098-0.005-0.456-0.039-0.555-0.055c-0.02,0.026-0.207,0.05-0.399,0.055H66.088
					c0.159,0.141,0.301,0.3,0.455,0.445c0.266,0.249,0.528,0.5,0.78,0.762c0.221,0.23,0.433,0.467,0.644,0.708
					c0.243,0.276,0.479,0.557,0.708,0.846c0.195,0.246,0.382,0.495,0.565,0.749c0.221,0.307,0.432,0.619,0.637,0.939
					c0.165,0.257,0.327,0.515,0.481,0.779c0.197,0.339,0.38,0.685,0.558,1.035c0.134,0.263,0.269,0.524,0.392,0.792
					c0.172,0.375,0.324,0.759,0.475,1.146c0.1,0.26,0.208,0.517,0.299,0.782c0.144,0.418,0.263,0.846,0.38,1.274
					c0.068,0.25,0.147,0.495,0.207,0.749c0.113,0.482,0.195,0.974,0.275,1.468c0.034,0.212,0.083,0.42,0.111,0.635
					c0.093,0.714,0.154,1.437,0.174,2.171c0.015,0.119,0.047,0.446,0.047,0.565c0,0.213-0.021,0.418-0.047,0.62v52.732v2.083V125
					v2.654v52.903c0.01,0.093,0.015,0.187,0.015,0.28c0.011,0.088,0.062,0.848,0.067,0.936c0.384,8.197,7.125,14.835,15.344,15.081
					h0.944c8.219-0.246,14.96-6.884,15.349-15.11C105.011,180.329,106.182,179.213,107.598,179.213z M86.125,66.338h77.658
					c1.468,0,2.655,1.187,2.655,2.654c0,1.468-1.187,2.655-2.655,2.655H86.125c-1.467,0-2.655-1.187-2.655-2.655
					C83.47,67.525,84.658,66.338,86.125,66.338z M86.125,82.268h77.658c1.468,0,2.655,1.187,2.655,2.655
					c0,1.467-1.187,2.654-2.655,2.654H86.125c-1.467,0-2.655-1.187-2.655-2.654C83.47,83.455,84.658,82.268,86.125,82.268z
					 M86.125,98.197h77.658c1.468,0,2.655,1.187,2.655,2.655c0,1.467-1.187,2.655-2.655,2.655H86.125
					c-1.467,0-2.655-1.188-2.655-2.655C83.47,99.385,84.658,98.197,86.125,98.197z M86.125,114.127h77.658
					c1.468,0,2.655,1.187,2.655,2.655c0,1.467-1.187,2.655-2.655,2.655H86.125c-1.467,0-2.655-1.188-2.655-2.655
					C83.47,115.314,84.658,114.127,86.125,114.127z M165.79,160.097l-1.566,1.807l-0.337,2.365c-0.15,1.029-0.881,1.877-1.882,2.17
					l-2.287,0.672l-1.566,1.805c-0.513,0.591-1.25,0.917-2.006,0.917c-0.249,0-0.503-0.036-0.747-0.106l-2.292-0.674l-2.292,0.674
					c-0.98,0.283-2.069-0.026-2.753-0.811l-1.566-1.805l-2.287-0.672c-1.001-0.293-1.732-1.141-1.882-2.17l-0.337-2.365l-1.566-1.807
					c-0.679-0.783-0.84-1.893-0.409-2.836l0.991-2.173l-0.342-2.365c-0.146-1.029,0.321-2.05,1.192-2.611l2.012-1.294l0.991-2.173
					c0.436-0.944,1.379-1.55,2.416-1.55h2.391l2.006-1.291c0.871-0.565,2.002-0.565,2.873,0l2.006,1.291h2.39
					c1.037,0,1.981,0.607,2.417,1.55l0.991,2.173l2.011,1.294c0.871,0.561,1.338,1.581,1.193,2.611l-0.342,2.365l0.991,2.173
					C166.63,158.204,166.469,159.314,165.79,160.097z M163.783,135.367H86.125c-1.467,0-2.655-1.187-2.655-2.655
					c0-1.467,1.188-2.655,2.655-2.655h77.658c1.468,0,2.655,1.188,2.655,2.655C166.438,134.18,165.251,135.367,163.783,135.367z
					 M131.048,148.642c0,1.468-1.188,2.655-2.655,2.655H86.125c-1.467,0-2.655-1.187-2.655-2.655c0-1.467,1.188-2.655,2.655-2.655
					h42.267C129.86,145.987,131.048,147.175,131.048,148.642z M86.125,167.227c-1.467,0-2.655-1.187-2.655-2.654
					c0-1.468,1.188-2.655,2.655-2.655h42.267c1.467,0,2.655,1.187,2.655,2.655c0,1.467-1.188,2.654-2.655,2.654H86.125z"/>
				<path fill="#D1E9E7" d="M179.474,184.524c-0.02,0-0.036,0-0.036,0h-0.01h-69.45c-0.204,1.203-0.513,2.372-0.913,3.497
					c-0.006,0.019-0.01,0.037-0.017,0.055c-0.397,1.11-0.889,2.176-1.458,3.193c-0.016,0.029-0.029,0.06-0.046,0.089
					c-0.569,1.006-1.221,1.957-1.941,2.853c-0.026,0.032-0.047,0.067-0.074,0.099c-0.724,0.891-1.521,1.718-2.377,2.481
					c-0.022,0.019-0.039,0.044-0.061,0.063h94.293c0.125,0,0.508,0.037,0.638,0.055c0.01-0.026,0.197-0.049,0.388-0.055
					c7.281-0.217,13.369-5.374,14.94-12.331H179.474z"/>
			</g>
			<g>
				<path fill="#5AB7B2" d="M218.911,181.949l-0.176-0.716c-0.291-1.184-1.354-2.02-2.578-2.02h-34.074v-51.559V125v-0.573v-2.083
					V68.992c0-11.514-9.038-20.807-20.545-21.157c-0.352-0.046-1.057-0.044-1.218,0H52.673c0,0-0.026,0-0.052,0
					c-1.452,0-2.634,1.164-2.655,2.616c-0.001,0.08,0.036,0.148,0.042,0.226c0.1,1.341,1.164,2.426,2.535,2.468
					c1.005,0.03,1.982,0.165,2.932,0.375c0.304,0.067,0.586,0.184,0.884,0.268c0.621,0.176,1.239,0.36,1.827,0.608
					c0.364,0.154,0.7,0.349,1.049,0.528c0.48,0.247,0.958,0.498,1.408,0.792c0.374,0.244,0.72,0.518,1.072,0.792
					c0.371,0.29,0.734,0.587,1.079,0.909c0.366,0.343,0.707,0.704,1.04,1.081c0.266,0.3,0.518,0.612,0.762,0.932
					c0.345,0.452,0.665,0.917,0.961,1.406c0.165,0.273,0.31,0.559,0.459,0.843c0.305,0.579,0.588,1.166,0.824,1.786
					c0.075,0.199,0.128,0.408,0.197,0.611c0.244,0.729,0.462,1.466,0.605,2.241c0.001,0.006,0.001,0.013,0.003,0.02
					c0.154,0.835,0.292,1.678,0.319,2.556c-0.002,0.02-0.006,0.068-0.009,0.098c-0.017,0.154-0.037,0.393-0.037,0.493v2.162v50.697
					v2.083V125v2.654v53.164c0,0.062,0,0.127,0.006,0.189h-0.006c0,0.283,0.032,0.557,0.088,0.985
					c0.513,10.98,9.515,19.843,20.571,20.172h1.099h0.078h107.507c0.13,0.018,0.549,0.055,0.674,0.055
					c0.228,0,0.446-0.024,0.627-0.055c10.723-0.322,19.497-8.642,20.415-19.355C219.004,182.522,218.983,182.232,218.911,181.949z
					 M198.024,196.909c-0.13-0.018-0.513-0.055-0.638-0.055h-94.293c0.022-0.019,0.039-0.044,0.061-0.063
					c0.856-0.764,1.653-1.591,2.377-2.481c0.027-0.032,0.048-0.067,0.074-0.099c0.72-0.896,1.372-1.848,1.941-2.853
					c0.017-0.029,0.03-0.06,0.046-0.089c0.569-1.017,1.061-2.082,1.458-3.193c0.006-0.018,0.011-0.036,0.017-0.055
					c0.4-1.126,0.709-2.294,0.913-3.497h69.45h0.01c0,0,0.016,0,0.036,0h33.877c-1.571,6.956-7.659,12.113-14.94,12.331
					C198.22,196.86,198.034,196.883,198.024,196.909z M73.244,180.837c0-0.093-0.005-0.187-0.015-0.28v-52.903V125v-0.573v-2.083
					V69.612c0.026-0.202,0.047-0.407,0.047-0.62c0-0.119-0.032-0.446-0.047-0.565c-0.02-0.734-0.081-1.458-0.174-2.171
					c-0.029-0.215-0.077-0.422-0.111-0.635c-0.08-0.494-0.162-0.986-0.275-1.468c-0.06-0.254-0.139-0.5-0.207-0.749
					c-0.118-0.429-0.237-0.856-0.38-1.274c-0.09-0.266-0.198-0.523-0.299-0.782c-0.151-0.386-0.303-0.771-0.475-1.146
					c-0.123-0.268-0.258-0.53-0.392-0.792c-0.179-0.35-0.362-0.697-0.558-1.035c-0.154-0.264-0.316-0.522-0.481-0.779
					c-0.205-0.319-0.416-0.632-0.637-0.939c-0.183-0.254-0.37-0.503-0.565-0.749c-0.228-0.289-0.465-0.57-0.708-0.846
					c-0.21-0.24-0.423-0.478-0.644-0.708c-0.252-0.262-0.515-0.513-0.78-0.762c-0.154-0.145-0.296-0.304-0.455-0.445h94.304
					c0.192-0.005,0.379-0.029,0.399-0.055c0.099,0.016,0.457,0.05,0.555,0.055c8.65,0.259,15.427,7.221,15.427,15.847l0.002,53.352
					v2.083V125v2.654l0.003,51.559h-69.18c-1.416,0-2.587,1.115-2.649,2.531c-0.389,8.226-7.13,14.864-15.349,15.11h-0.944
					c-8.219-0.246-14.96-6.884-15.344-15.081C73.306,181.685,73.255,180.924,73.244,180.837z"/>
				<path fill="#5AB7B2" d="M86.125,71.647h77.658c1.468,0,2.655-1.187,2.655-2.655c0-1.467-1.187-2.654-2.655-2.654H86.125
					c-1.467,0-2.655,1.187-2.655,2.654C83.47,70.46,84.658,71.647,86.125,71.647z"/>
				<path fill="#5AB7B2" d="M86.125,87.577h77.658c1.468,0,2.655-1.187,2.655-2.654c0-1.468-1.187-2.655-2.655-2.655H86.125
					c-1.467,0-2.655,1.187-2.655,2.655C83.47,86.39,84.658,87.577,86.125,87.577z"/>
				<path fill="#5AB7B2" d="M86.125,103.508h77.658c1.468,0,2.655-1.188,2.655-2.655c0-1.468-1.187-2.655-2.655-2.655H86.125
					c-1.467,0-2.655,1.187-2.655,2.655C83.47,102.32,84.658,103.508,86.125,103.508z"/>
				<path fill="#5AB7B2" d="M86.125,119.438h77.658c1.468,0,2.655-1.188,2.655-2.655c0-1.468-1.187-2.655-2.655-2.655H86.125
					c-1.467,0-2.655,1.187-2.655,2.655C83.47,118.25,84.658,119.438,86.125,119.438z"/>
				<path fill="#5AB7B2" d="M86.125,135.367h77.658c1.468,0,2.655-1.187,2.655-2.655c0-1.467-1.187-2.655-2.655-2.655H86.125
					c-1.467,0-2.655,1.188-2.655,2.655C83.47,134.18,84.658,135.367,86.125,135.367z"/>
				<path fill="#5AB7B2" d="M86.125,151.297h42.267c1.467,0,2.655-1.187,2.655-2.655c0-1.467-1.188-2.655-2.655-2.655H86.125
					c-1.467,0-2.655,1.188-2.655,2.655C83.47,150.11,84.658,151.297,86.125,151.297z"/>
				<path fill="#5AB7B2" d="M86.125,167.227h42.267c1.467,0,2.655-1.187,2.655-2.654c0-1.468-1.188-2.655-2.655-2.655H86.125
					c-1.467,0-2.655,1.187-2.655,2.655C83.47,166.04,84.658,167.227,86.125,167.227z"/>
			</g>
			<g>
				<path fill="#A1D4D0" d="M247.275,127.654h-65.192v51.559h34.074c1.224,0,2.287,0.836,2.578,2.02l0.176,0.716
					c0.073,0.283,0.093,0.573,0.067,0.861c-0.918,10.713-9.692,19.034-20.415,19.355c-0.182,0.031-0.399,0.055-0.627,0.055
					c-0.125,0-0.544-0.037-0.674-0.055H89.754h-0.078h-1.099c-11.056-0.329-20.058-9.192-20.571-20.172
					c-0.057-0.428-0.088-0.702-0.088-0.985h0.006c-0.006-0.062-0.006-0.127-0.006-0.189v-53.164H2.721H0.067
					C1.484,195.46,56.855,250,125,250c68.146,0,123.516-54.54,124.933-122.346H247.275z"/>
				<path fill="#A1D4D0" d="M67.643,66.318c-0.142-0.774-0.364-1.513-0.605-2.241c-0.069-0.202-0.122-0.412-0.197-0.611
					c-0.233-0.62-0.522-1.207-0.824-1.786c-0.149-0.284-0.294-0.57-0.459-0.843c-0.294-0.49-0.619-0.954-0.961-1.406
					c-0.243-0.321-0.495-0.632-0.762-0.932c-0.331-0.377-0.676-0.739-1.04-1.081c-0.345-0.322-0.708-0.619-1.079-0.909
					c-0.35-0.274-0.7-0.548-1.072-0.792c-0.451-0.294-0.928-0.545-1.408-0.792c-0.348-0.179-0.686-0.375-1.049-0.528
					c-0.588-0.248-1.206-0.432-1.827-0.608c-0.297-0.084-0.581-0.201-0.884-0.268c-0.95-0.21-1.927-0.345-2.932-0.375h-1.032
					c-7.509,0.228-13.789,5.808-15.033,13.192h31.168C67.645,66.331,67.645,66.324,67.643,66.318z"/>
				<path fill="#A1D4D0" d="M147.132,160.377l0.207,1.447l1.4,0.41c0.487,0.145,0.928,0.425,1.26,0.811l0.96,1.105l1.4-0.413
					c0.244-0.07,0.492-0.106,0.747-0.106c0.254,0,0.503,0.037,0.747,0.106l1.4,0.413l0.96-1.105c0.332-0.386,0.772-0.666,1.26-0.811
					l1.4-0.41l0.207-1.447c0.073-0.503,0.291-0.975,0.622-1.359l0.96-1.11l-0.607-1.329c-0.212-0.462-0.285-0.975-0.212-1.478
					l0.207-1.447l-1.229-0.79c-0.425-0.275-0.767-0.667-0.98-1.128l-0.607-1.329h-1.462c-0.508,0-1.006-0.146-1.437-0.423
					l-1.229-0.791l-1.229,0.791c-0.43,0.277-0.928,0.423-1.436,0.423h-1.462l-0.607,1.329c-0.212,0.462-0.555,0.853-0.98,1.128
					l-1.229,0.79l0.207,1.447c0.073,0.503,0,1.016-0.212,1.478l-0.607,1.329l0.96,1.11
					C146.842,159.402,147.06,159.874,147.132,160.377z"/>
			</g>
			<g>
				<path fill="#5AB7B2" d="M0.067,122.344c-0.014,0.695-0.05,1.385-0.052,2.083C0.014,124.619,0,124.808,0,125
					c0,0.89,0.049,1.768,0.067,2.654h2.654h65.197V125v-0.573v-2.083H2.721H0.067z"/>
				<path fill="#5AB7B2" d="M249.986,124.427c-0.003-0.698-0.038-1.388-0.052-2.083h-2.658h-65.192v2.083V125v2.654h65.192h2.658
					C249.952,126.768,250,125.89,250,125C250,124.808,249.987,124.619,249.986,124.427z"/>
				<path fill="#5AB7B2" d="M36.479,66.338c1.245-7.384,7.524-12.964,15.033-13.192h1.032c-1.372-0.042-2.436-1.127-2.535-2.468
					c-0.006-0.078-0.043-0.146-0.042-0.226c0.021-1.452,1.203-2.616,2.655-2.616h-1.188c-10.723,0.324-19.497,8.647-20.42,19.583
					v1.573c0,1.468,1.187,2.655,2.655,2.655h34.25v-2.162c0-0.1,0.021-0.34,0.037-0.493c0.003-0.03,0.007-0.078,0.009-0.098
					c-0.027-0.879-0.164-1.721-0.319-2.556H36.479z"/>
				<path fill="#5AB7B2" d="M165.209,155.088l0.342-2.365c0.145-1.029-0.322-2.05-1.193-2.611l-2.011-1.294l-0.991-2.173
					c-0.436-0.944-1.38-1.55-2.417-1.55h-2.39l-2.006-1.291c-0.871-0.565-2.002-0.565-2.873,0l-2.006,1.291h-2.391
					c-1.037,0-1.98,0.607-2.416,1.55l-0.991,2.173l-2.012,1.294c-0.871,0.561-1.338,1.581-1.192,2.611l0.342,2.365l-0.991,2.173
					c-0.431,0.943-0.27,2.053,0.409,2.836l1.566,1.807l0.337,2.365c0.15,1.029,0.881,1.877,1.882,2.17l2.287,0.672l1.566,1.805
					c0.684,0.785,1.773,1.094,2.753,0.811l2.292-0.674l2.292,0.674c0.244,0.07,0.498,0.106,0.747,0.106
					c0.757,0,1.493-0.327,2.006-0.917l1.566-1.805l2.287-0.672c1.001-0.293,1.732-1.141,1.882-2.17l0.337-2.365l1.566-1.807
					c0.679-0.783,0.84-1.893,0.41-2.836L165.209,155.088z M159.702,159.018c-0.332,0.384-0.549,0.856-0.622,1.359l-0.207,1.447
					l-1.4,0.41c-0.487,0.145-0.928,0.425-1.26,0.811l-0.96,1.105l-1.4-0.413c-0.243-0.07-0.492-0.106-0.747-0.106
					c-0.254,0-0.502,0.037-0.747,0.106l-1.4,0.413l-0.96-1.105c-0.332-0.386-0.772-0.666-1.26-0.811l-1.4-0.41l-0.207-1.447
					c-0.073-0.503-0.29-0.975-0.622-1.359l-0.96-1.11l0.607-1.329c0.212-0.462,0.286-0.975,0.212-1.478l-0.207-1.447l1.229-0.79
					c0.425-0.275,0.767-0.667,0.98-1.128l0.607-1.329h1.462c0.508,0,1.006-0.146,1.436-0.423l1.229-0.791l1.229,0.791
					c0.431,0.277,0.929,0.423,1.437,0.423h1.462l0.607,1.329c0.212,0.462,0.555,0.853,0.98,1.128l1.229,0.79l-0.207,1.447
					c-0.073,0.503,0,1.016,0.212,1.478l0.607,1.329L159.702,159.018z"/>
			</g>
		</g>
	</g>
</svg>
