<svg version="1.1" xmlns="http://www.w3.org/2000/svg" xmlns:xlink="http://www.w3.org/1999/xlink" x="0px" y="0px"
	 viewBox="0 0 250 250.001" enable-background="new 0 0 250 250.001" xml:space="preserve">
	<g id="retailers-icon-group">
		<g>
			<path fill="#D1E9E7" d="M249.986,124.428C249.676,55.657,193.844,0,125,0S0.324,55.657,0.014,124.428h1.429v-2.083h1.281h57.03
				l6.229-11.632v-50.28c0-1.468,1.187-2.655,2.655-2.655h23.35v-6.803H68.86c-1.467,0-2.655-1.187-2.655-2.655V23.926
				c0-1.467,1.188-2.654,2.655-2.654h63.305c1.467,0,2.655,1.187,2.655,2.654v24.393c0,1.468-1.188,2.655-2.655,2.655h-23.127v6.803
				h72.322c1.467,0,2.655,1.187,2.655,2.655v50.532l6.126,11.38h57.138h1.276v2.083H249.986z"/>
			<path fill="#D1E9E7" d="M205.198,189.787v-26.283H44.799v26.283H205.198z M124.999,168.68c4.392,0,7.965,3.573,7.965,7.965
				c0,4.392-3.573,7.965-7.965,7.965s-7.965-3.573-7.965-7.965C117.034,172.252,120.606,168.68,124.999,168.68z"/>
			<path fill="#D1E9E7" d="M71.292,63.087v45.633h107.413V63.087H71.292z M106.414,100.755c0,1.467-1.187,2.654-2.654,2.654H79.257
				c-1.467,0-2.654-1.187-2.654-2.654V71.052c0-1.467,1.187-2.654,2.654-2.654h24.502c1.467,0,2.654,1.187,2.654,2.654V100.755z
				 M173.395,100.755c0,1.467-1.188,2.654-2.655,2.654h-56.362c-1.467,0-2.654-1.187-2.654-2.654V71.052
				c0-1.467,1.187-2.654,2.654-2.654h56.362c1.467,0,2.655,1.187,2.655,2.654V100.755z"/>
			<path fill="#D1E9E7" d="M129.51,26.581H71.515v19.083h23.127h11.74h23.127V26.581z M124.2,37.699c0,1.467-1.188,2.654-2.655,2.654
				H91.578c-1.467,0-2.654-1.187-2.654-2.654v-3.153c0-1.468,1.187-2.655,2.654-2.655h29.967c1.467,0,2.655,1.187,2.655,2.655V37.699
				z"/>
			<rect x="97.297" y="50.974" fill="#D1E9E7" width="6.43" height="6.08"/>
			<path fill="#D1E9E7" d="M73.454,120.11c0.421-0.967,1.375-1.594,2.432-1.594h10.501c0.856,0,1.66,0.415,2.157,1.11
				c0.503,0.697,0.633,1.592,0.353,2.403l-0.108,0.317h5.986l0.433-1.797c0.291-1.193,1.354-2.033,2.583-2.033h10.505
				c0.773,0,1.505,0.337,2.013,0.92c0.502,0.584,0.726,1.359,0.617,2.123l-0.116,0.786h6.179l0.061-1.299
				c0.062-1.416,1.229-2.53,2.649-2.53h10.506c1.421,0,2.588,1.115,2.65,2.53l0.06,1.299h6.179l-0.116-0.786
				c-0.109-0.764,0.114-1.54,0.617-2.123c0.508-0.584,1.239-0.92,2.012-0.92h10.5c1.224,0,2.292,0.84,2.583,2.033l0.434,1.797h5.991
				l-0.108-0.317c-0.281-0.811-0.151-1.706,0.352-2.403c0.498-0.695,1.301-1.11,2.157-1.11h10.501c1.058,0,2.012,0.627,2.432,1.594
				l0.973,2.235h6.686l-4.476-8.315H70.229l-4.453,8.315h6.704L73.454,120.11z"/>
			<path fill="#D1E9E7" d="M203.409,158.195l-16.441-30.54h-7.344c0.182,0.716,0.131,1.472-0.281,2.1
				c-0.487,0.749-1.322,1.2-2.219,1.2h-11.17c-1.136,0-2.146-0.721-2.509-1.797l-0.514-1.504h-6.524l0.006,0.023
				c0.192,0.791,0.006,1.626-0.497,2.264c-0.503,0.64-1.271,1.014-2.085,1.014h-11.17c-1.317,0-2.432-0.965-2.629-2.266l-0.153-1.034
				h-6.717l0.024,0.521c0.036,0.726-0.228,1.434-0.731,1.957c-0.497,0.524-1.192,0.822-1.919,0.822h-11.169
				c-0.726,0-1.421-0.298-1.919-0.822c-0.503-0.523-0.767-1.231-0.731-1.957l0.024-0.521h-6.716l-0.153,1.034
				c-0.197,1.301-1.312,2.266-2.629,2.266H96.074c-0.814,0-1.582-0.373-2.085-1.011c-0.503-0.641-0.69-1.476-0.498-2.267l0.006-0.023
				h-6.524l-0.514,1.504c-0.363,1.076-1.374,1.797-2.509,1.797H72.78c-0.897,0-1.732-0.451-2.219-1.2
				c-0.413-0.629-0.464-1.385-0.281-2.1h-7.348l-16.355,30.54H203.409z M142.162,136.828c0.508-0.584,1.24-0.921,2.013-0.921h37.413
				c1.057,0,2.012,0.627,2.432,1.594l4.387,10.081c0.358,0.822,0.28,1.768-0.212,2.515c-0.487,0.749-1.322,1.2-2.219,1.2h-40.307
				c-1.317,0-2.432-0.965-2.624-2.266l-1.494-10.08C141.437,138.189,141.66,137.414,142.162,136.828z M116.24,138.44
				c0.062-1.418,1.229-2.533,2.649-2.533h12.124c1.416,0,2.588,1.115,2.649,2.53l0.472,10.081c0.036,0.726-0.228,1.431-0.731,1.957
				c-0.497,0.523-1.192,0.822-1.919,0.822h-13.062c-0.726,0-1.421-0.299-1.919-0.822c-0.502-0.524-0.767-1.232-0.731-1.955
				L116.24,138.44z M88.596,148.02l2.428-10.08c0.29-1.192,1.353-2.033,2.582-2.033h12.124c0.772,0,1.504,0.337,2.012,0.921
				c0.502,0.583,0.726,1.358,0.617,2.123l-1.488,10.08c-0.197,1.301-1.312,2.266-2.629,2.266H91.179
				c-0.814,0-1.581-0.373-2.085-1.011C88.591,149.646,88.404,148.811,88.596,148.02z M65.878,137.504
				c0.425-0.97,1.38-1.597,2.438-1.597h12.123c0.856,0,1.66,0.415,2.157,1.11c0.503,0.698,0.633,1.592,0.358,2.404l-3.443,10.08
				c-0.368,1.073-1.38,1.797-2.515,1.797H63.934c-0.897,0-1.732-0.451-2.219-1.198c-0.492-0.749-0.57-1.695-0.217-2.515
				L65.878,137.504z"/>
			<polygon fill="#D1E9E7" points="139.402,124.428 139.094,122.345 132.915,122.345 133.012,124.428 		"/>
			<polygon fill="#D1E9E7" points="116.892,124.428 116.988,122.345 110.809,122.345 110.501,124.428 		"/>
			<polygon fill="#D1E9E7" points="94.274,124.428 94.775,122.345 88.789,122.345 88.077,124.428 		"/>
			<polygon fill="#D1E9E7" points="161.828,124.428 161.116,122.345 155.125,122.345 155.628,124.428 		"/>
			<polygon fill="#D1E9E7" points="178.33,124.428 185.231,124.428 184.109,122.345 177.423,122.345 		"/>
			<polygon fill="#D1E9E7" points="72.481,122.345 65.776,122.345 64.661,124.428 71.574,124.428 		"/>
			<polygon fill="#D1E9E7" points="71.574,124.428 64.661,124.428 64.354,125.001 71.324,125.001 		"/>
			<polygon fill="#D1E9E7" points="133.039,125.001 133.162,127.654 139.879,127.654 139.487,125.001 		"/>
			<polygon fill="#D1E9E7" points="155.766,125.001 156.407,127.654 162.93,127.654 162.023,125.001 		"/>
			<path fill="#D1E9E7" d="M70.348,127.24l0.976-2.239h-6.97l-1.421,2.654h7.348C70.314,127.517,70.291,127.372,70.348,127.24z"/>
			<polygon fill="#D1E9E7" points="178.58,125.001 185.539,125.001 185.231,124.428 178.33,124.428 		"/>
			<polygon fill="#D1E9E7" points="110.501,124.428 110.418,125.001 116.865,125.001 116.892,124.428 		"/>
			<polygon fill="#D1E9E7" points="88.077,124.428 87.881,125.001 94.136,125.001 94.274,124.428 		"/>
			<polygon fill="#D1E9E7" points="133.012,124.428 133.039,125.001 139.487,125.001 139.402,124.428 		"/>
			<polygon fill="#D1E9E7" points="110.418,125.001 110.026,127.654 116.741,127.654 116.865,125.001 		"/>
			<polygon fill="#D1E9E7" points="87.881,125.001 86.974,127.654 93.497,127.654 94.136,125.001 		"/>
			<polygon fill="#D1E9E7" points="155.628,124.428 155.766,125.001 162.023,125.001 161.828,124.428 		"/>
			<path fill="#D1E9E7" d="M179.556,127.24c0.058,0.133,0.034,0.277,0.069,0.415h7.344l-1.429-2.654h-6.959L179.556,127.24z"/>
			<g>
				<path fill="#A1D4D0" d="M249.986,124.428h-1.431v0.573v2.654h-1.276H193l17.192,31.938c0.025,0.047,0.034,0.098,0.056,0.146
					c0.032,0.067,0.052,0.136,0.078,0.206c0.099,0.271,0.161,0.549,0.169,0.833c0.001,0.026,0.014,0.047,0.014,0.072v31.593
					c0,1.467-1.187,2.655-2.655,2.655H42.144c-1.467,0-2.655-1.188-2.655-2.655v-31.593c0-0.029,0.016-0.053,0.017-0.083
					c0.009-0.276,0.068-0.546,0.164-0.81c0.028-0.078,0.051-0.152,0.085-0.225c0.021-0.043,0.028-0.09,0.051-0.134l17.105-31.943
					H2.724H1.443v-2.654v-0.573H0.014C0.013,124.62,0,124.808,0,125.001c0,42.744,21.467,80.46,54.195,103.001v-1.895h2.004h137.603
					h2v1.896C228.531,205.463,250,167.746,250,125.001C250,124.808,249.986,124.62,249.986,124.428z"/>
				<rect x="81.912" y="73.707" fill="#A1D4D0" width="19.192" height="24.393"/>
				<rect x="117.034" y="73.707" fill="#A1D4D0" width="51.052" height="24.393"/>
				<path fill="#A1D4D0" d="M122.343,176.645c0,1.465,1.193,2.655,2.655,2.655c1.462,0,2.655-1.19,2.655-2.655
					c0-1.465-1.193-2.655-2.655-2.655C123.536,173.99,122.343,175.18,122.343,176.645z"/>
				<polygon fill="#A1D4D0" points="76.727,141.217 70.058,141.217 67.984,145.988 75.098,145.988 			"/>
				<polygon fill="#A1D4D0" points="94.549,145.988 101.949,145.988 102.654,141.217 95.695,141.217 			"/>
				<polygon fill="#A1D4D0" points="128.478,141.217 121.426,141.217 121.203,145.988 128.701,145.988 			"/>
				<polygon fill="#A1D4D0" points="147.96,145.988 181.925,145.988 179.846,141.217 147.249,141.217 			"/>
				<polygon fill="#A1D4D0" points="82.273,125.001 82.469,124.428 82.675,123.825 77.623,123.825 77.363,124.428 77.115,125.001 
					76.835,125.645 82.052,125.645 			"/>
				<polygon fill="#A1D4D0" points="105.047,125.001 105.131,124.428 105.221,123.825 99.88,123.825 99.736,124.428 99.599,125.001 
					99.444,125.645 104.951,125.645 			"/>
				<polygon fill="#A1D4D0" points="127.698,124.428 127.67,123.825 122.235,123.825 122.205,124.428 122.178,125.001 
					122.147,125.645 127.757,125.645 127.726,125.001 			"/>
				<polygon fill="#A1D4D0" points="150.164,124.428 150.019,123.825 144.683,123.825 144.772,124.428 144.857,125.001 
					144.952,125.645 150.46,125.645 150.304,125.001 			"/>
				<polygon fill="#A1D4D0" points="167.435,124.428 167.631,125.001 167.852,125.645 173.069,125.645 172.789,125.001 
					172.542,124.428 172.28,123.825 167.23,123.825 			"/>
			</g>
			<g>
				<path fill="#5AB7B2" d="M248.554,122.345h-58.413l-6.126-11.38V60.432c0-1.468-1.188-2.655-2.655-2.655h-72.322v-6.803h23.127
					c1.467,0,2.655-1.187,2.655-2.655V23.926c0-1.467-1.188-2.654-2.655-2.654H68.86c-1.467,0-2.655,1.187-2.655,2.654v24.393
					c0,1.468,1.188,2.655,2.655,2.655h23.127v6.803h-23.35c-1.468,0-2.655,1.187-2.655,2.655v50.28l-6.229,11.632H1.295H0.014v2.083
					v0.573v2.654h1.281h55.616l-17.105,31.943c-0.023,0.043-0.03,0.09-0.051,0.134c-0.034,0.073-0.058,0.149-0.085,0.225
					c-0.092,0.256-0.154,0.525-0.164,0.81c-0.001,0.029-0.017,0.054-0.017,0.083v31.593c0,1.467,1.188,2.655,2.655,2.655h165.708
					c1.468,0,2.655-1.188,2.655-2.655v-31.593c0-0.025-0.014-0.046-0.014-0.072c-0.009-0.294-0.072-0.571-0.169-0.833
					c-0.024-0.069-0.047-0.139-0.078-0.206c-0.022-0.047-0.031-0.099-0.056-0.146L193,127.654h55.555h1.276v-2.654v-0.573v-2.083
					H248.554z M44.799,163.504h160.399v26.283H44.799V163.504z M46.578,158.195l16.355-30.54l1.421-2.654l0.307-0.573l1.115-2.083
					l4.453-8.315h109.404l4.476,8.315l1.122,2.083l0.308,0.573l1.429,2.654l16.441,30.54H46.578z M71.515,26.581h57.995v19.083
					h-23.127h-11.74H71.515V26.581z M97.297,50.974h6.43v6.08h-6.43V50.974z M71.292,63.087h107.413v45.633H71.292V63.087z"/>
				<path fill="#5AB7B2" d="M56.199,226.107h-2.004v1.895c0.22,0.151,0.432,0.314,0.653,0.464c0.144,0.098,0.287,0.197,0.431,0.294
					c1.36,0.916,2.746,1.794,4.143,2.656c19.067,11.775,41.523,18.584,65.578,18.584c24.054,0,46.511-6.809,65.577-18.584
					c1.397-0.862,2.783-1.74,4.143-2.656c0.145-0.097,0.287-0.197,0.431-0.294c0.22-0.15,0.431-0.312,0.651-0.463v-1.896h-2H56.199z"
					/>
				<path fill="#5AB7B2" d="M124.2,37.699v-3.153c0-1.468-1.188-2.655-2.655-2.655H91.578c-1.467,0-2.654,1.187-2.654,2.655v3.153
					c0,1.467,1.187,2.654,2.654,2.654h29.967C123.012,40.354,124.2,39.166,124.2,37.699z"/>
				<path fill="#5AB7B2" d="M103.759,68.397H79.257c-1.467,0-2.654,1.187-2.654,2.654v29.703c0,1.467,1.187,2.654,2.654,2.654h24.502
					c1.467,0,2.654-1.187,2.654-2.654V71.052C106.414,69.584,105.226,68.397,103.759,68.397z M101.104,98.1H81.912V73.707h19.192
					V98.1z"/>
				<path fill="#5AB7B2" d="M170.74,68.397h-56.362c-1.467,0-2.654,1.187-2.654,2.654v29.703c0,1.467,1.187,2.654,2.654,2.654h56.362
					c1.467,0,2.655-1.187,2.655-2.654V71.052C173.395,69.584,172.207,68.397,170.74,68.397z M168.086,98.1h-51.052V73.707h51.052
					V98.1z"/>
				<path fill="#5AB7B2" d="M124.999,168.68c-4.392,0-7.965,3.573-7.965,7.965c0,4.392,3.573,7.965,7.965,7.965
					s7.965-3.573,7.965-7.965C132.963,172.252,129.391,168.68,124.999,168.68z M124.999,179.3c-1.462,0-2.655-1.19-2.655-2.655
					c0-1.465,1.193-2.655,2.655-2.655c1.462,0,2.655,1.19,2.655,2.655C127.654,178.11,126.461,179.3,124.999,179.3z"/>
				<path fill="#5AB7B2" d="M80.439,135.907H68.316c-1.058,0-2.013,0.627-2.438,1.597l-4.382,10.081
					c-0.352,0.819-0.275,1.765,0.217,2.515c0.487,0.747,1.323,1.198,2.219,1.198h13.062c1.136,0,2.147-0.724,2.515-1.797l3.443-10.08
					c0.275-0.812,0.145-1.706-0.358-2.404C82.099,136.322,81.295,135.907,80.439,135.907z M75.098,145.988h-7.114l2.074-4.771h6.669
					L75.098,145.988z"/>
				<path fill="#5AB7B2" d="M105.729,135.907H93.605c-1.229,0-2.292,0.841-2.582,2.033l-2.428,10.08
					c-0.192,0.791-0.005,1.626,0.498,2.266c0.503,0.638,1.271,1.011,2.085,1.011h13.063c1.316,0,2.432-0.965,2.629-2.266l1.488-10.08
					c0.109-0.765-0.114-1.54-0.617-2.123C107.233,136.245,106.502,135.907,105.729,135.907z M101.949,145.988h-7.399l1.146-4.771
					h6.959L101.949,145.988z"/>
				<path fill="#5AB7B2" d="M131.014,135.907H118.89c-1.421,0-2.588,1.115-2.649,2.533l-0.467,10.081
					c-0.037,0.723,0.228,1.431,0.731,1.955c0.498,0.523,1.193,0.822,1.919,0.822h13.062c0.726,0,1.421-0.299,1.919-0.822
					c0.503-0.526,0.767-1.232,0.731-1.957l-0.472-10.081C133.602,137.022,132.429,135.907,131.014,135.907z M121.426,141.217h7.052
					l0.223,4.771h-7.498L121.426,141.217z"/>
				<path fill="#5AB7B2" d="M181.588,135.907h-37.413c-0.773,0-1.505,0.337-2.013,0.921c-0.502,0.586-0.726,1.361-0.612,2.123
					l1.494,10.08c0.192,1.301,1.306,2.266,2.624,2.266h40.307c0.897,0,1.732-0.451,2.219-1.2c0.492-0.747,0.571-1.693,0.212-2.515
					l-4.387-10.081C183.6,136.535,182.646,135.907,181.588,135.907z M147.249,141.217h32.597l2.079,4.771H147.96L147.249,141.217z"/>
				<path fill="#5AB7B2" d="M88.897,122.028c0.28-0.811,0.15-1.706-0.353-2.403c-0.497-0.695-1.301-1.11-2.157-1.11H75.886
					c-1.057,0-2.011,0.627-2.432,1.594l-0.973,2.235l-0.907,2.083l-0.25,0.573l-0.976,2.239c-0.057,0.133-0.034,0.277-0.068,0.415
					c-0.183,0.716-0.132,1.472,0.281,2.1c0.487,0.749,1.322,1.2,2.219,1.2h11.17c1.136,0,2.146-0.721,2.509-1.797l0.514-1.504
					l0.907-2.654l0.196-0.573l0.712-2.083L88.897,122.028z M82.469,124.428l-0.196,0.573l-0.22,0.645h-5.217l0.28-0.645l0.248-0.573
					l0.261-0.603h5.051L82.469,124.428z"/>
				<path fill="#5AB7B2" d="M108.296,118.515H97.79c-1.229,0-2.292,0.84-2.583,2.033l-0.433,1.797l-0.501,2.083l-0.138,0.573
					l-0.639,2.654l-0.006,0.023c-0.192,0.791-0.005,1.626,0.498,2.267c0.502,0.637,1.271,1.011,2.085,1.011h11.169
					c1.317,0,2.432-0.965,2.629-2.266l0.153-1.034l0.392-2.654l0.084-0.573l0.308-2.083l0.116-0.786
					c0.109-0.764-0.114-1.54-0.617-2.123C109.8,118.852,109.069,118.515,108.296,118.515z M105.131,124.428l-0.085,0.573
					l-0.095,0.645h-5.507l0.154-0.645l0.137-0.573l0.144-0.603h5.341L105.131,124.428z"/>
				<path fill="#5AB7B2" d="M119.367,130.955h11.169c0.726,0,1.421-0.298,1.919-0.822c0.503-0.523,0.767-1.231,0.731-1.957
					l-0.024-0.521l-0.123-2.654l-0.027-0.573l-0.097-2.083l-0.06-1.299c-0.062-1.416-1.229-2.53-2.65-2.53h-10.506
					c-1.421,0-2.587,1.115-2.649,2.53l-0.061,1.299l-0.096,2.083l-0.027,0.573l-0.123,2.654l-0.024,0.521
					c-0.036,0.726,0.228,1.434,0.731,1.957C117.946,130.657,118.641,130.955,119.367,130.955z M122.178,125.001l0.027-0.573
					l0.029-0.603h5.435l0.029,0.603l0.028,0.573l0.031,0.645h-5.61L122.178,125.001z"/>
				<path fill="#5AB7B2" d="M153.83,130.955c0.814,0,1.581-0.373,2.085-1.014c0.503-0.638,0.69-1.473,0.497-2.264l-0.006-0.023
					l-0.64-2.654l-0.139-0.573l-0.503-2.083l-0.434-1.797c-0.291-1.193-1.359-2.033-2.583-2.033h-10.5
					c-0.773,0-1.504,0.337-2.012,0.92c-0.503,0.584-0.726,1.359-0.617,2.123l0.116,0.786l0.308,2.083l0.085,0.573l0.392,2.654
					l0.153,1.034c0.197,1.301,1.311,2.266,2.629,2.266H153.83z M144.772,124.428l-0.089-0.603h5.336l0.146,0.603l0.139,0.573
					l0.156,0.645h-5.507l-0.095-0.645L144.772,124.428z"/>
				<path fill="#5AB7B2" d="M161.116,122.345l0.712,2.083l0.195,0.573l0.907,2.654l0.514,1.504c0.363,1.076,1.374,1.797,2.509,1.797
					h11.17c0.897,0,1.732-0.451,2.219-1.2c0.413-0.629,0.464-1.385,0.281-2.1c-0.035-0.138-0.011-0.282-0.069-0.415l-0.976-2.239
					l-0.25-0.573l-0.907-2.083l-0.973-2.235c-0.42-0.967-1.374-1.594-2.432-1.594h-10.501c-0.856,0-1.659,0.415-2.157,1.11
					c-0.503,0.697-0.633,1.592-0.352,2.403L161.116,122.345z M172.789,125.001l0.279,0.645h-5.217l-0.22-0.645l-0.196-0.573
					l-0.205-0.603h5.051l0.261,0.603L172.789,125.001z"/>
			</g>
		</g>
	</g>
</svg>
