<?xml version="1.0" encoding="utf-8"?>
<!-- Generator: Adobe Illustrator 23.0.3, SVG Export Plug-In . SVG Version: 6.00 Build 0)  -->
<svg version="1.1" id="Layer_1" xmlns="http://www.w3.org/2000/svg" xmlns:xlink="http://www.w3.org/1999/xlink" x="0px" y="0px"
	 viewBox="0 0 125 125" style="enable-background:new 0 0 125 125;" xml:space="preserve">
<style type="text/css">
	.st0{fill:#EFECE4;}
	.st1{fill:#FFFFFF;}
	.st2{fill:#78B4AB;}
	.st3{fill:#DCDDDE;}
	.st4{fill:#F5F3EE;}
	.st5{fill:#36383A;}
	.st6{opacity:0.5;fill:none;stroke:#737678;stroke-miterlimit:10;}
	.st7{opacity:0.7;}
	.st8{fill:none;stroke:#E9E6DA;stroke-miterlimit:10;}
	.st9{fill:#107669;}
	.st10{fill:#E9E6DA;}
	.st11{fill:#CF3339;}
	.st12{fill:#86A55C;}
	.st13{fill:#68813C;}
	.st14{fill:#A12B2F;}
	.st15{fill:#53575A;}
	.st16{fill:#F6F4EF;}
	.st17{fill:none;stroke:#414042;stroke-width:0.3;stroke-miterlimit:10;}
	.st18{fill:#D5E0C6;}
	.st19{fill:#C8D6B4;}
	.st20{fill:#BBCCA2;}
	.st21{fill:#AEC290;}
	.st22{fill:#A1B97F;}
	.st23{fill:#93AF6D;}
	.st24{fill:#414042;}
	.st25{fill:#EFECE4;stroke:#414042;stroke-width:3;stroke-miterlimit:10;}
	.st26{fill:#414042;stroke:#414042;stroke-width:3;stroke-miterlimit:10;}
	.st27{fill:none;stroke:#414042;stroke-width:3;stroke-miterlimit:10;}
	.st28{fill:none;stroke:#414042;stroke-width:3;stroke-miterlimit:10;stroke-dasharray:3.0344,2.0229;}
	.st29{fill:none;stroke:#414042;stroke-width:3;stroke-miterlimit:10;stroke-dasharray:3.029,2.0193;}
	.st30{fill:#53575A;stroke:#53575A;stroke-miterlimit:10;}
	.st31{fill:#6F6F71;}
	.st32{fill:none;stroke:#414042;stroke-width:3;stroke-linecap:round;stroke-miterlimit:10;}
</style>
<circle class="st0" cx="62.5" cy="62.5" r="38"/>
<g>
	<path class="st15" d="M90.71,63.9c-0.04-2.78-2.28-5.02-5.06-5.06h-7V11.46H34.29l10.66,14.01L34.29,39.47h39.68v14.08h-8.71
		c-1.47,0-2.92,0.38-4.2,1.09h-20v31.2h20.15v-1.01c1.25,0.66,2.63,1.01,4.05,1.01h17.51c2.33,0,4.51-2.41,4.51-5.06
		c0-0.67-0.13-1.33-0.39-1.95c0.94-0.99,1.47-2.29,1.48-3.66c0.01-0.69-0.12-1.38-0.39-2.02c1.48-1.46,1.92-3.69,1.09-5.6
		C90.1,66.62,90.69,65.29,90.71,63.9z M50.79,25.46l-7.16-9.34H73.9V34.8H43.63L50.79,25.46z M56.55,81.17H45.73V59.31h10.82V81.17z
		 M82.54,81.17H65.26c-2.23,0-4.05-1.81-4.05-4.05V62.34c0-2.23,1.81-4.05,4.05-4.05h0h8.64v0.62h-4.75c-1.29,0-2.33,1.05-2.33,2.33
		s1.05,2.33,2.33,2.33l0,0h16.42c0.24,0,0.43,0.19,0.43,0.43c0,0.24-0.19,0.43-0.43,0.43h-1.56c-1.29-0.09-2.4,0.89-2.49,2.18
		c-0.09,1.29,0.89,2.4,2.18,2.49l0.7,0.16c0.24,0,0.43,0.19,0.43,0.43c0,0.24-0.19,0.43-0.43,0.43h-1.56
		c-1.29-0.09-2.4,0.89-2.49,2.18c-0.09,1.29,0.89,2.4,2.18,2.49l0,0l0.7,0.16c0.21,0,0.39,0.17,0.39,0.39
		c-0.01,0.14-0.07,0.28-0.16,0.39h-1.63c-1.29-0.09-2.4,0.89-2.49,2.18c-0.09,1.29,0.89,2.4,2.18,2.49l0.7,0.16
		c0.21,0,0.39,0.17,0.39,0.39c-0.04,0.09-0.09,0.17-0.16,0.23H82.54z"/>
	<circle class="st15" cx="51.8" cy="76.19" r="2.1"/>
</g>
</svg>
