<?xml version="1.0" encoding="utf-8"?>
<!-- Generator: Adobe Illustrator 23.0.3, SVG Export Plug-In . SVG Version: 6.00 Build 0)  -->
<svg version="1.1" id="Layer_1" xmlns="http://www.w3.org/2000/svg" xmlns:xlink="http://www.w3.org/1999/xlink" x="0px" y="0px"
	 viewBox="0 0 150 150" style="enable-background:new 0 0 150 150;" xml:space="preserve">
<style type="text/css">
	.st0{fill:#EFECE4;}
	.st1{fill:#FFFFFF;}
	.st2{fill:#78B4AB;}
	.st3{fill:#DCDDDE;}
	.st4{fill:#F5F3EE;}
	.st5{fill:#36383A;}
	.st6{opacity:0.5;fill:none;stroke:#737678;stroke-miterlimit:10;}
	.st7{opacity:0.7;}
	.st8{fill:none;stroke:#E9E6DA;stroke-miterlimit:10;}
	.st9{fill:#107669;}
	.st10{fill:#E9E6DA;}
	.st11{fill:#CF3339;}
	.st12{fill:#86A55C;}
	.st13{fill:#68813C;}
	.st14{fill:#A12B2F;}
	.st15{fill:#53575A;}
	.st16{fill:#F6F4EF;}
	.st17{fill:none;stroke:#414042;stroke-width:0.3;stroke-miterlimit:10;}
	.st18{fill:#D5E0C6;}
	.st19{fill:#C8D6B4;}
	.st20{fill:#BBCCA2;}
	.st21{fill:#AEC290;}
	.st22{fill:#A1B97F;}
	.st23{fill:#93AF6D;}
	.st24{fill:#414042;}
	.st25{fill:#EFECE4;stroke:#414042;stroke-width:3;stroke-miterlimit:10;}
	.st26{fill:#414042;stroke:#414042;stroke-width:3;stroke-miterlimit:10;}
	.st27{fill:none;stroke:#414042;stroke-width:3;stroke-miterlimit:10;}
	.st28{fill:none;stroke:#414042;stroke-width:3;stroke-miterlimit:10;stroke-dasharray:3.0344,2.0229;}
	.st29{fill:none;stroke:#414042;stroke-width:3;stroke-miterlimit:10;stroke-dasharray:3.029,2.0193;}
	.st30{fill:#53575A;stroke:#53575A;stroke-miterlimit:10;}
	.st31{fill:#6F6F71;}
	.st32{fill:none;stroke:#414042;stroke-width:3;stroke-linecap:round;stroke-miterlimit:10;}
	.st33{font-family:'ProximaNova-Regular';}
	.st34{font-size:39.6792px;}
</style>
<circle class="st0" cx="75" cy="75" r="73.28"/>
<g>
	<g>
		<path class="st0" d="M57.75,114.33h34.5v0c0-3.97-3.22-7.2-7.2-7.2H64.95C60.97,107.13,57.75,110.35,57.75,114.33L57.75,114.33z"
			/>
		<path class="st24" d="M93.75,115.83h-37.5v-1.5c0-4.8,3.9-8.7,8.7-8.7h20.11c4.8,0,8.7,3.9,8.7,8.7V115.83z M59.45,112.83h31.1
			c-0.66-2.42-2.87-4.2-5.5-4.2H64.95C62.32,108.63,60.11,110.41,59.45,112.83z"/>
	</g>
	<g>
		<rect x="72.76" y="91.98" class="st0" width="4.47" height="16.5"/>
		<path class="st24" d="M78.74,109.98h-7.47v-19.5h7.47V109.98z M74.26,106.98h1.47v-13.5h-1.47V106.98z"/>
	</g>
	<g>
		<g>
			<path class="st0" d="M52.67,79.05h9.53V49.98H42.07c-3.35,0-6.06,2.72-6.06,6.06v6.33C36,71.58,43.47,79.05,52.67,79.05z"/>
			<path class="st24" d="M63.7,80.55H52.67c-10.02,0-18.17-8.15-18.17-18.17v-6.33c0-4.17,3.39-7.56,7.56-7.56H63.7V80.55z
				 M42.07,51.48c-2.52,0-4.56,2.05-4.56,4.56v6.33c0,8.37,6.81,15.17,15.17,15.17h8.03V51.48H42.07z"/>
		</g>
		<g>
			<path class="st0" d="M52.67,74.05C46.24,74.05,41,68.81,41,62.37v-6.33c0-0.59,0.48-1.06,1.06-1.06H57.2v19.07H52.67z"/>
			<path class="st24" d="M58.7,75.55h-6.03c-7.26,0-13.17-5.91-13.17-13.17v-6.33c0-1.41,1.15-2.56,2.56-2.56H58.7V75.55z
				 M42.5,56.48v5.89c0,5.61,4.56,10.17,10.17,10.17h3.03V56.48H42.5z"/>
		</g>
		<g>
			<path class="st0" d="M97.33,79.05H87.8V49.98h20.14c3.35,0,6.06,2.72,6.06,6.06v6.33C114,71.58,106.53,79.05,97.33,79.05z"/>
			<path class="st24" d="M97.33,80.55H86.3V48.48h21.64c4.17,0,7.56,3.39,7.56,7.56v6.33C115.5,72.39,107.35,80.55,97.33,80.55z
				 M89.3,77.55h8.03c8.37,0,15.17-6.81,15.17-15.17v-6.33c0-2.52-2.05-4.56-4.56-4.56H89.3V77.55z"/>
		</g>
		<g>
			<path class="st0" d="M109,62.37v-6.33c0-0.59-0.48-1.06-1.06-1.06H92.8v19.07h4.53C103.77,74.05,109,68.82,109,62.37z"/>
			<path class="st24" d="M97.33,75.55H91.3V53.48h16.64c1.41,0,2.56,1.15,2.56,2.56v6.33C110.5,69.64,104.59,75.55,97.33,75.55z
				 M94.3,72.55h3.03c5.61,0,10.17-4.56,10.17-10.17v-5.89H94.3V72.55z"/>
		</g>
	</g>
	<g>
		<g>
			<path class="st0" d="M102.03,41.13c-17.93-2.53-36.12-2.53-54.05,0c-0.32,0.04,5.27,30.29,5.25,31.14
				C55.26,83.17,63.95,92.16,75,92.15c11.05,0.01,19.74-8.99,21.77-19.88C96.75,71.41,102.35,41.17,102.03,41.13z"/>
			<path class="st24" d="M74.98,93.65c-11.18,0-20.95-8.88-23.23-21.11l-0.03-0.16l0-0.09c-0.09-0.8-1.09-6.46-2.06-11.95
				c-3.43-19.39-3.43-19.39-2.9-20.11l0.38-0.52l0.64-0.08c18.04-2.55,36.37-2.54,54.44,0l0.63,0.08l0.38,0.52
				c0.53,0.72,0.53,0.72-2.9,20.1c-0.97,5.49-1.98,11.16-2.06,11.95l0,0.09l-0.03,0.16c-2.28,12.23-12.05,21.11-23.24,21.11
				C75,93.65,74.99,93.65,74.98,93.65z M54.71,72.05c2.04,10.78,10.55,18.6,20.27,18.6c0.01,0,0.01,0,0.02,0
				c9.72,0,18.24-7.82,20.28-18.6c0.08-0.79,0.51-3.28,2.09-12.23c1.1-6.19,2.53-14.28,3-17.41c-16.85-2.25-33.92-2.25-50.76,0
				c0.47,3.13,1.9,11.22,3,17.41C54.2,68.77,54.63,71.27,54.71,72.05z M48.24,42.6c-0.02,0-0.04,0-0.05,0.01
				C48.2,42.61,48.22,42.61,48.24,42.6z"/>
		</g>
		<g>
			<path class="st0" d="M102.03,41.13c-17.93-2.53-36.12-2.53-54.05,0c-0.32,0.04,5.27,30.29,5.25,31.14
				C55.26,83.17,63.95,92.16,75,92.15c11.05,0.01,19.74-8.99,21.77-19.88C96.75,71.41,102.35,41.17,102.03,41.13z"/>
			<path class="st24" d="M74.98,93.65c-11.18,0-20.95-8.88-23.23-21.11l-0.03-0.16l0-0.09c-0.09-0.8-1.09-6.46-2.06-11.95
				c-3.43-19.39-3.43-19.39-2.9-20.11l0.38-0.52l0.64-0.08c18.04-2.55,36.37-2.54,54.44,0l0.63,0.08l0.38,0.52
				c0.53,0.72,0.53,0.72-2.9,20.1c-0.97,5.49-1.98,11.16-2.06,11.95l0,0.09l-0.03,0.16c-2.28,12.23-12.05,21.11-23.24,21.11
				C75,93.65,74.99,93.65,74.98,93.65z M54.71,72.05c2.04,10.78,10.55,18.6,20.27,18.6c0.01,0,0.01,0,0.02,0
				c9.72,0,18.24-7.82,20.28-18.6c0.08-0.79,0.51-3.28,2.09-12.23c1.1-6.19,2.53-14.28,3-17.41c-16.85-2.25-33.92-2.25-50.76,0
				c0.47,3.13,1.9,11.22,3,17.41C54.2,68.77,54.63,71.27,54.71,72.05z M48.24,42.6c-0.02,0-0.04,0-0.05,0.01
				C48.2,42.61,48.22,42.61,48.24,42.6z"/>
		</g>
	</g>
	<text transform="matrix(1 0 0 1 63.2353 77.7705)" class="st24 st33 st34">$</text>
</g>
</svg>
