<?xml version="1.0" encoding="utf-8"?>
<!-- Generator: Adobe Illustrator 23.0.3, SVG Export Plug-In . SVG Version: 6.00 Build 0)  -->
<svg version="1.1" id="Layer_1" xmlns="http://www.w3.org/2000/svg" xmlns:xlink="http://www.w3.org/1999/xlink" x="0px" y="0px"
	 viewBox="0 0 125 125" style="enable-background:new 0 0 125 125;" xml:space="preserve">
<style type="text/css">
	.st0{fill:#EFECE4;}
	.st1{fill:#FFFFFF;}
	.st2{fill:#78B4AB;}
	.st3{fill:#DCDDDE;}
	.st4{fill:#F5F3EE;}
	.st5{fill:#36383A;}
	.st6{opacity:0.5;fill:none;stroke:#737678;stroke-miterlimit:10;}
	.st7{opacity:0.7;}
	.st8{fill:none;stroke:#E9E6DA;stroke-miterlimit:10;}
	.st9{fill:#107669;}
	.st10{fill:#E9E6DA;}
	.st11{fill:#CF3339;}
	.st12{fill:#86A55C;}
	.st13{fill:#68813C;}
	.st14{fill:#A12B2F;}
	.st15{fill:#53575A;}
	.st16{fill:#F6F4EF;}
	.st17{fill:none;stroke:#414042;stroke-width:0.3;stroke-miterlimit:10;}
	.st18{fill:#D5E0C6;}
	.st19{fill:#C8D6B4;}
	.st20{fill:#BBCCA2;}
	.st21{fill:#AEC290;}
	.st22{fill:#A1B97F;}
	.st23{fill:#93AF6D;}
	.st24{fill:#414042;}
	.st25{fill:#EFECE4;stroke:#414042;stroke-width:3;stroke-miterlimit:10;}
	.st26{fill:#414042;stroke:#414042;stroke-width:3;stroke-miterlimit:10;}
	.st27{fill:none;stroke:#414042;stroke-width:3;stroke-miterlimit:10;}
	.st28{fill:none;stroke:#414042;stroke-width:3;stroke-miterlimit:10;stroke-dasharray:3.0344,2.0229;}
	.st29{fill:none;stroke:#414042;stroke-width:3;stroke-miterlimit:10;stroke-dasharray:3.029,2.0193;}
	.st30{fill:#53575A;stroke:#53575A;stroke-miterlimit:10;}
	.st31{fill:#6F6F71;}
	.st32{fill:none;stroke:#414042;stroke-width:3;stroke-linecap:round;stroke-miterlimit:10;}
</style>
<circle class="st0" cx="62.5" cy="62.5" r="38"/>
<path class="st15" d="M104.58,19.89c0-0.65-0.36-1.22-0.93-1.51c-20.13-9.35-31.13,8.92-50.48,1.94V16.8c0-1.01-0.79-1.8-1.8-1.8
	c-1.01,0-1.8,0.79-1.8,1.8v61.91H47.7c-2.01,0-3.67,1.65-3.67,3.67c0,0.5,0.43,0.93,0.93,0.93h12.94c0.5,0,0.93-0.43,0.93-0.93
	c0-2.01-1.65-3.67-3.67-3.67h-1.94V58.57c19.13,6.9,30.06-10.86,49.69-2.3c0.79,0.36,1.73-0.22,1.73-1.08
	C104.58,41.46,104.58,33.91,104.58,19.89z M77.4,31.03c9.42-2.37,14.17-4.39,23.58-1.37c0,2.01,0,3.02,0,5.11
	c-9.42-3.02-14.17-1.01-23.58,1.37C77.4,34.05,77.4,33.05,77.4,31.03z M68.12,27.08c0.65-0.14,1.01-0.22,1.65-0.43
	c0.22-0.65,0.36-1.01,0.65-1.65c0.07-0.14,0.22-0.14,0.29-0.07c0.22,0.58,0.36,0.79,0.65,1.37c0.65-0.07,1.01-0.14,1.65-0.22
	c0.07,0,0.07,0,0.14,0.07c0,0.07,0,0.14-0.07,0.14c-0.5,0.58-0.72,0.79-1.22,1.37c0.14,0.58,0.22,0.93,0.36,1.51
	c0,0.07,0,0.14-0.07,0.14c-0.07,0.07-0.07,0.07-0.14,0.07c-0.58-0.22-0.86-0.36-1.37-0.58c-0.58,0.43-0.86,0.65-1.37,1.15H69.2
	h-0.07c-0.07,0-0.07-0.07-0.07-0.14c0.14-0.65,0.22-1.01,0.36-1.65c-0.5-0.36-0.72-0.5-1.22-0.86c-0.07,0-0.07-0.07-0.07-0.14
	C68.05,27.15,68.12,27.08,68.12,27.08z M68.12,33.84c0.65-0.14,1.01-0.22,1.65-0.43c0.22-0.65,0.36-1.01,0.65-1.65
	c0.07-0.14,0.22-0.14,0.29-0.07c0.22,0.58,0.36,0.79,0.65,1.37c0.65-0.07,1.01-0.14,1.65-0.22c0.07,0,0.07,0,0.14,0.07
	c0.07,0.07,0,0.14-0.07,0.14c-0.5,0.58-0.72,0.79-1.22,1.37c0.14,0.58,0.22,0.93,0.36,1.51c0,0.07,0,0.14-0.07,0.14
	c-0.07,0.07-0.07,0.07-0.14,0.07c-0.58-0.22-0.86-0.29-1.37-0.58c-0.58,0.43-0.86,0.65-1.37,1.15H69.2h-0.07
	c-0.07,0-0.07-0.07-0.07-0.14c0.14-0.65,0.22-1.01,0.36-1.65c-0.5-0.36-0.72-0.5-1.22-0.86c-0.07,0-0.07-0.07-0.07-0.14
	C68.05,33.84,68.12,33.84,68.12,33.84z M61.15,27.73c0.65-0.07,1.01-0.07,1.65-0.14c0.22-0.65,0.36-0.93,0.65-1.51
	c0.07-0.07,0.22-0.14,0.29,0c0.22,0.58,0.36,0.86,0.65,1.44c0.65,0,1.01,0,1.65-0.07c0.07,0,0.07,0,0.14,0.07
	c0,0.07,0,0.14-0.07,0.14c-0.5,0.5-0.72,0.72-1.22,1.22c0.14,0.65,0.22,0.93,0.36,1.58c0,0.07,0,0.14-0.07,0.14
	c-0.07,0.07-0.07,0.07-0.14,0c-0.58-0.29-0.86-0.43-1.37-0.72c-0.58,0.36-0.86,0.58-1.37,0.93h-0.07h-0.07
	c-0.07,0-0.07-0.07-0.07-0.14c0.14-0.65,0.22-0.93,0.36-1.58c-0.5-0.43-0.72-0.65-1.22-1.08c-0.07-0.07-0.07-0.07-0.07-0.14
	C61,27.73,61.08,27.73,61.15,27.73z M61.15,34.49c0.65-0.07,1.01-0.07,1.65-0.14c0.22-0.65,0.36-0.93,0.65-1.51
	c0.07-0.07,0.22-0.14,0.29,0c0.29,0.58,0.36,0.86,0.65,1.44c0.65,0,1.01,0,1.65-0.07c0.07,0,0.07,0,0.14,0.07
	c0,0.07,0,0.14-0.07,0.14c-0.5,0.5-0.72,0.72-1.22,1.22c0.14,0.65,0.22,0.93,0.36,1.58c0,0.07,0,0.14-0.07,0.14
	c-0.07,0.07-0.07,0.07-0.14,0c-0.58-0.29-0.86-0.43-1.37-0.72c-0.58,0.36-0.86,0.58-1.37,0.93h-0.07h-0.07
	c-0.07,0-0.07-0.07-0.07-0.14c0.14-0.65,0.22-0.93,0.36-1.58c-0.5-0.43-0.72-0.65-1.22-1.08c-0.07-0.07-0.07-0.07-0.07-0.14
	C61,34.49,61.08,34.49,61.15,34.49z M54.1,26.79c0.65,0.14,1.01,0.14,1.65,0.29c0.22-0.58,0.36-0.86,0.65-1.37
	c0.07-0.07,0.22-0.07,0.29,0.07c0.22,0.65,0.36,0.93,0.65,1.58c0.65,0.14,1.01,0.22,1.65,0.29c0.07,0,0.07,0.07,0.14,0.07
	c0,0.07,0,0.14-0.07,0.14c-0.5,0.36-0.72,0.58-1.22,0.93c0.14,0.65,0.22,1.01,0.36,1.65c0,0.07,0,0.14-0.07,0.14
	c-0.07,0-0.07,0-0.14,0c-0.58-0.43-0.86-0.65-1.37-1.08c-0.58,0.22-0.86,0.36-1.37,0.58h-0.07c0,0-0.07,0-0.07-0.07
	c-0.22,0-0.22-0.07-0.22-0.14c0.14-0.58,0.22-0.93,0.36-1.51c-0.5-0.5-0.72-0.79-1.22-1.37c-0.07-0.07-0.07-0.14-0.07-0.14
	C54.03,26.79,54.1,26.79,54.1,26.79z M54.1,33.55c0.65,0.14,1.01,0.14,1.65,0.29c0.22-0.58,0.36-0.86,0.65-1.37
	c0.07-0.07,0.22-0.07,0.29,0.07c0.22,0.65,0.36,0.93,0.65,1.58c0.65,0.14,1.01,0.22,1.65,0.29c0.07,0,0.07,0.07,0.14,0.07
	c0,0.07,0,0.14-0.07,0.14c-0.5,0.36-0.72,0.58-1.22,0.93c0.14,0.65,0.22,1.01,0.36,1.65c0,0.07,0,0.14-0.07,0.14
	c-0.07,0-0.07,0-0.14,0c-0.58-0.43-0.86-0.65-1.37-1.08c-0.58,0.22-0.86,0.36-1.37,0.58h-0.07c0,0-0.07,0-0.07-0.07
	c-0.22-0.07-0.22-0.07-0.22-0.14c0.14-0.58,0.22-0.86,0.36-1.51c-0.5-0.5-0.72-0.79-1.22-1.37c-0.07-0.07-0.07-0.14-0.07-0.14
	C54.03,33.55,54.1,33.55,54.1,33.55z M101.05,38.3c0,2.01,0,3.02,0,5.11c-19.13-6.11-28.69,8.99-47.82,2.88v-5.03
	C72.29,47.29,81.93,32.26,101.05,38.3z M53.17,54.98v-5.11c19.13,6.11,28.69-8.99,47.82-2.88c0,2.01,0,3.02,0,5.11
	C81.93,45.99,72.29,61.02,53.17,54.98z M101.05,26.07c-9.42-3.02-14.17-1.01-23.58,1.37c0-2.01,0-3.02,0-5.11
	c9.42-2.3,14.09-4.31,23.58-1.37C101.05,23.05,101.05,24.06,101.05,26.07z"/>
</svg>
