<?xml version="1.0" encoding="utf-8"?>
<!-- Generator: Adobe Illustrator 23.0.3, SVG Export Plug-In . SVG Version: 6.00 Build 0)  -->
<svg version="1.1" id="Layer_1" xmlns="http://www.w3.org/2000/svg" xmlns:xlink="http://www.w3.org/1999/xlink" x="0px" y="0px"
	 viewBox="0 0 1444.19 416.82" style="enable-background:new 0 0 1444.19 416.82;" xml:space="preserve">
<style type="text/css">
	.st0{fill:#F6F4EF;}
	.st1{fill:#EFECE4;}
	.st2{fill:#FFFFFF;}
	.st3{fill:#78B4AB;}
	.st4{fill:#DCDDDE;}
	.st5{fill:#F5F3EE;}
	.st6{fill:#36383A;}
	.st7{opacity:0.5;fill:none;stroke:#737678;stroke-miterlimit:10;}
	.st8{opacity:0.7;}
	.st9{fill:none;stroke:#E9E6DA;stroke-miterlimit:10;}
	.st10{fill:#107669;}
	.st11{fill:#E9E6DA;}
	.st12{fill:#CF3339;}
	.st13{fill:#86A55C;}
	.st14{fill:#68813C;}
	.st15{fill:#A12B2F;}
	.st16{fill:#53575A;}
	.st17{fill:none;stroke:#414042;stroke-width:0.3;stroke-miterlimit:10;}
	.st18{fill:#D5E0C6;}
	.st19{fill:#C8D6B4;}
	.st20{fill:#BBCCA2;}
	.st21{fill:#AEC290;}
	.st22{fill:#A1B97F;}
	.st23{fill:#93AF6D;}
	.st24{fill:#414042;}
	.st25{fill:#EFECE4;stroke:#414042;stroke-width:3;stroke-miterlimit:10;}
	.st26{fill:#414042;stroke:#414042;stroke-width:3;stroke-miterlimit:10;}
	.st27{fill:none;stroke:#414042;stroke-width:3;stroke-miterlimit:10;}
	.st28{fill:none;stroke:#414042;stroke-width:3;stroke-miterlimit:10;stroke-dasharray:3.0344,2.0229;}
	.st29{fill:none;stroke:#414042;stroke-width:3;stroke-miterlimit:10;stroke-dasharray:3.029,2.0193;}
	.st30{fill:#53575A;stroke:#53575A;stroke-miterlimit:10;}
	.st31{fill:#6F6F71;}
	.st32{fill:none;stroke:#414042;stroke-width:3;stroke-linecap:round;stroke-miterlimit:10;}
	.st33{fill:#E0DBCA;}
</style>
<rect x="-29.7" y="-8.57" class="st1" width="1503.58" height="433.96"/>
<rect x="59.06" y="204.41" class="st18" width="176.95" height="34.99"/>
<rect x="236.01" y="204.41" class="st19" width="176.95" height="34.99"/>
<rect x="412.97" y="204.41" class="st20" width="176.95" height="34.99"/>
<rect x="589.92" y="204.41" class="st21" width="176.95" height="34.99"/>
<rect x="766.87" y="204.41" class="st22" width="176.95" height="34.99"/>
<rect x="943.82" y="204.41" class="st23" width="176.95" height="34.99"/>
<rect x="1120.78" y="204.41" class="st13" width="176.95" height="34.99"/>
<g>
	<path d="M62.91,87.78h3.1v10.49h6.17v2.42h-9.27V87.78z"/>
	<path d="M83.2,98.47h-6.52l-0.92,2.23h-3.41L78,87.78h3.89l5.62,12.92h-3.39L83.2,98.47z M77.52,96.09h4.83l-2.41-5.92L77.52,96.09
		z"/>
	<path d="M87.71,87.78h3.15v7.67c0,1.8,1.12,3.04,3.39,3.04c2.23,0,3.35-1.24,3.35-3.04v-7.67h3.15v7.75c0,3.21-2.08,5.4-6.49,5.4
		c-4.46,0-6.54-2.21-6.54-5.38V87.78z"/>
	<path d="M106.3,92.02v8.67h-3.1V87.78h3.19l6.76,8.36v-8.36h3.1v12.92h-3L106.3,92.02z"/>
	<path d="M118,94.25c0-3.97,3.39-6.68,7.65-6.68c3.32,0,5.18,1.55,6.21,3.16l-2.67,1.16c-0.61-1.05-1.92-1.88-3.54-1.88
		c-2.54,0-4.46,1.8-4.46,4.24c0,2.44,1.92,4.24,4.46,4.24c1.62,0,2.93-0.81,3.54-1.88l2.67,1.14c-1.05,1.61-2.89,3.18-6.21,3.18
		C121.39,100.93,118,98.22,118,94.25z"/>
	<path d="M143.28,95.27h-6.89v5.42h-3.1V87.78h3.1v5.07h6.89v-5.07h3.13v12.92h-3.13V95.27z"/>
	<path d="M160.9,87.57c4.42,0,7.63,2.79,7.63,6.68c0,3.89-3.21,6.68-7.63,6.68c-4.4,0-7.61-2.79-7.61-6.68
		C153.29,90.35,156.51,87.57,160.9,87.57z M160.9,90.01c-2.69,0-4.42,1.82-4.42,4.24c0,2.4,1.73,4.24,4.42,4.24
		c2.69,0,4.44-1.84,4.44-4.24C165.34,91.83,163.59,90.01,160.9,90.01z"/>
	<path d="M170.29,87.78h10.32v2.36h-7.22v2.81h7.06v2.36h-7.06v5.38h-3.1V87.78z"/>
	<path d="M194.41,87.57c4.42,0,7.63,2.79,7.63,6.68c0,3.89-3.21,6.68-7.63,6.68c-4.4,0-7.61-2.79-7.61-6.68
		C186.8,90.35,190.01,87.57,194.41,87.57z M194.41,90.01c-2.69,0-4.42,1.82-4.42,4.24c0,2.4,1.73,4.24,4.42,4.24
		c2.69,0,4.44-1.84,4.44-4.24C198.84,91.83,197.1,90.01,194.41,90.01z"/>
	<path d="M203.79,87.78h6.82c3.17,0,4.9,1.9,4.9,4.16c0,2.25-1.75,4.12-4.9,4.12h-3.72v4.63h-3.1V87.78z M210.2,90.14h-3.3v3.56h3.3
		c1.22,0,2.14-0.7,2.14-1.78C212.34,90.86,211.42,90.14,210.2,90.14z"/>
	<path d="M217,87.78h10.32v2.36h-7.22v2.81h7.06v2.36h-7.06v3h7.22v2.38H217V87.78z"/>
	<path d="M232.41,92.02v8.67h-3.1V87.78h3.19l6.76,8.36v-8.36h3.1v12.92h-3L232.41,92.02z"/>
	<path d="M249.27,94.25c0-3.97,3.39-6.68,7.65-6.68c3.32,0,5.18,1.55,6.21,3.16l-2.67,1.16c-0.61-1.05-1.92-1.88-3.54-1.88
		c-2.54,0-4.46,1.8-4.46,4.24c0,2.44,1.92,4.24,4.46,4.24c1.62,0,2.93-0.81,3.54-1.88l2.67,1.14c-1.05,1.61-2.89,3.18-6.21,3.18
		C252.66,100.93,249.27,98.22,249.27,94.25z"/>
	<path d="M273.7,98.47h-6.52l-0.92,2.23h-3.41l5.64-12.92h3.89l5.62,12.92h-3.39L273.7,98.47z M268.01,96.09h4.83l-2.41-5.92
		L268.01,96.09z"/>
	<path d="M278.93,87.78h3.1v10.49h6.17v2.42h-9.27V87.78z"/>
	<path d="M289.93,87.78h3.1v10.49h6.17v2.42h-9.27V87.78z"/>
	<path class="st24" d="M62.73,125.7c0.68,0.82,1.59,1.54,2.94,1.54c1.91,0,3.13-1.33,3.13-3.27v-10.85h1.94V124
		c0,3.38-2.17,4.97-4.95,4.97c-1.66,0-2.99-0.54-4.06-1.8L62.73,125.7z"/>
	<path class="st24" d="M81.9,127.1c-0.86,0.98-2.33,1.87-4.01,1.87c-2.36,0-3.59-1.14-3.59-3.59v-7.96h1.75v7.42
		c0,1.98,1,2.57,2.52,2.57c1.38,0,2.68-0.79,3.34-1.7v-8.28h1.75v11.27H81.9V127.1z"/>
	<path class="st24" d="M94.76,121.31c0-1.98-1-2.61-2.52-2.61c-1.38,0-2.68,0.84-3.34,1.75v8.24h-1.75v-11.27h1.75v1.63
		c0.79-0.93,2.33-1.91,4.01-1.91c2.36,0,3.59,1.19,3.59,3.64v7.91h-1.75V121.31z"/>
	<path class="st24" d="M104.9,117.14c3.41,0,5.41,2.66,5.41,6.04v0.44h-9.12c0.14,2.12,1.63,3.9,4.06,3.9
		c1.28,0,2.59-0.51,3.48-1.42l0.84,1.14c-1.12,1.12-2.64,1.73-4.48,1.73c-3.34,0-5.74-2.4-5.74-5.93
		C99.35,119.77,101.68,117.14,104.9,117.14z M101.19,122.34h7.4c-0.02-1.68-1.14-3.76-3.71-3.76
		C102.48,118.58,101.29,120.61,101.19,122.34z"/>
	<path class="st24" d="M121.56,115.69l-2.5,2.64l-1.17-1.19l3.9-4.01h1.7v15.56h-1.94V115.69z"/>
	<path class="st24" d="M129.46,115.69l-2.5,2.64l-1.17-1.19l3.9-4.01h1.7v15.56h-1.94V115.69z"/>
</g>
<g>
	<path d="M415.02,94.25c0-3.97,3.39-6.68,7.65-6.68c3.32,0,5.18,1.55,6.21,3.16l-2.67,1.16c-0.61-1.05-1.92-1.88-3.54-1.88
		c-2.54,0-4.46,1.8-4.46,4.24c0,2.44,1.92,4.24,4.46,4.24c1.62,0,2.93-0.81,3.54-1.88l2.67,1.14c-1.05,1.61-2.89,3.18-6.21,3.18
		C418.41,100.93,415.02,98.22,415.02,94.25z"/>
	<path d="M430.31,87.78h3.1v10.49h6.17v2.42h-9.27V87.78z"/>
	<path d="M447.63,87.57c4.42,0,7.63,2.79,7.63,6.68c0,3.89-3.21,6.68-7.63,6.68c-4.4,0-7.61-2.79-7.61-6.68
		C440.02,90.35,443.23,87.57,447.63,87.57z M447.63,90.01c-2.69,0-4.42,1.82-4.42,4.24c0,2.4,1.73,4.24,4.42,4.24
		c2.69,0,4.44-1.84,4.44-4.24C452.07,91.83,450.32,90.01,447.63,90.01z"/>
	<path d="M457.71,96.78c1.03,0.95,2.62,1.74,4.64,1.74c1.71,0,2.54-0.72,2.54-1.45c0-0.97-1.27-1.3-2.95-1.65
		c-2.38-0.48-5.44-1.07-5.44-3.95c0-2.15,2.1-3.89,5.53-3.89c2.32,0,4.24,0.62,5.69,1.8l-1.73,2.01c-1.18-0.97-2.76-1.41-4.18-1.41
		c-1.4,0-2.14,0.54-2.14,1.32c0,0.87,1.22,1.14,2.91,1.49c2.41,0.48,5.47,1.12,5.47,3.99c0,2.36-1.9,4.14-5.84,4.14
		c-2.8,0-4.81-0.83-6.19-2.05L457.71,96.78z"/>
	<path d="M469.7,87.78h10.32v2.36h-7.22v2.81h7.06v2.36h-7.06v3h7.22v2.38H469.7V87.78z"/>
	<path d="M494.08,87.57c4.42,0,7.63,2.79,7.63,6.68c0,3.89-3.21,6.68-7.63,6.68c-4.4,0-7.61-2.79-7.61-6.68
		C486.47,90.35,489.68,87.57,494.08,87.57z M494.08,90.01c-2.69,0-4.42,1.82-4.42,4.24c0,2.4,1.73,4.24,4.42,4.24
		c2.69,0,4.44-1.84,4.44-4.24C498.52,91.83,496.77,90.01,494.08,90.01z"/>
	<path d="M503.46,87.78h10.32v2.36h-7.22v2.81h7.06v2.36h-7.06v5.38h-3.1V87.78z"/>
	<path d="M527.58,87.57c4.42,0,7.63,2.79,7.63,6.68c0,3.89-3.21,6.68-7.63,6.68c-4.4,0-7.61-2.79-7.61-6.68
		C519.97,90.35,523.18,87.57,527.58,87.57z M527.58,90.01c-2.69,0-4.42,1.82-4.42,4.24c0,2.4,1.73,4.24,4.42,4.24
		c2.69,0,4.44-1.84,4.44-4.24C532.02,91.83,530.27,90.01,527.58,90.01z"/>
	<path d="M536.96,87.78h6.82c3.17,0,4.9,1.9,4.9,4.16c0,2.25-1.75,4.12-4.9,4.12h-3.72v4.63h-3.1V87.78z M543.37,90.14h-3.3v3.56
		h3.3c1.22,0,2.14-0.7,2.14-1.78C545.51,90.86,544.59,90.14,543.37,90.14z"/>
	<path d="M550.17,87.78h10.32v2.36h-7.22v2.81h7.06v2.36h-7.06v3h7.22v2.38h-10.32V87.78z"/>
	<path d="M565.59,92.02v8.67h-3.1V87.78h3.19l6.76,8.36v-8.36h3.1v12.92h-3L565.59,92.02z"/>
	<path d="M582.45,94.25c0-3.97,3.39-6.68,7.65-6.68c3.32,0,5.18,1.55,6.21,3.16l-2.67,1.16c-0.61-1.05-1.92-1.88-3.54-1.88
		c-2.54,0-4.46,1.8-4.46,4.24c0,2.44,1.92,4.24,4.46,4.24c1.62,0,2.93-0.81,3.54-1.88l2.67,1.14c-1.05,1.61-2.89,3.18-6.21,3.18
		C585.84,100.93,582.45,98.22,582.45,94.25z"/>
	<path d="M606.87,98.47h-6.52l-0.92,2.23h-3.41l5.64-12.92h3.89l5.62,12.92h-3.39L606.87,98.47z M601.19,96.09h4.83l-2.41-5.92
		L601.19,96.09z"/>
	<path d="M612.1,87.78h3.1v10.49h6.17v2.42h-9.27V87.78z"/>
	<path d="M623.1,87.78h3.1v10.49h6.17v2.42h-9.27V87.78z"/>
	<path class="st24" d="M415.54,125.7c0.68,0.82,1.59,1.54,2.94,1.54c1.91,0,3.13-1.33,3.13-3.27v-10.85h1.94V124
		c0,3.38-2.17,4.97-4.95,4.97c-1.66,0-2.99-0.54-4.06-1.8L415.54,125.7z"/>
	<path class="st24" d="M434.72,127.1c-0.86,0.98-2.33,1.87-4.01,1.87c-2.36,0-3.59-1.14-3.59-3.59v-7.96h1.75v7.42
		c0,1.98,1,2.57,2.52,2.57c1.38,0,2.68-0.79,3.34-1.7v-8.28h1.75v11.27h-1.75V127.1z"/>
	<path class="st24" d="M439.96,113.12h1.75v15.56h-1.75V113.12z"/>
	<path class="st24" d="M445.82,131.7c0.77,0,1.28-0.26,1.68-1.19l0.75-1.7l-4.71-11.38h1.89l3.76,9.24l3.73-9.24h1.91l-5.65,13.55
		c-0.68,1.63-1.82,2.26-3.31,2.29c-0.37,0-0.96-0.07-1.28-0.16l0.28-1.59C445.12,131.63,445.54,131.7,445.82,131.7z"/>
	<path class="st24" d="M465.06,115.69l-2.5,2.64l-1.17-1.19l3.9-4.01h1.7v15.56h-1.94V115.69z"/>
	<path class="st24" d="M475.95,112.89c4.25,0,5.95,4.22,5.95,8.03c0,3.78-1.7,8.05-5.95,8.05c-4.27,0-5.95-4.27-5.95-8.05
		C470.01,117.11,471.69,112.89,475.95,112.89z M475.95,114.62c-2.96,0-3.97,3.2-3.97,6.3c0,3.1,1,6.32,3.97,6.32
		s3.97-3.22,3.97-6.32C479.92,117.81,478.92,114.62,475.95,114.62z"/>
</g>
<g>
	<path d="M777.83,75.14h-6.52l-0.92,2.23h-3.41l5.64-12.92h3.89l5.62,12.92h-3.39L777.83,75.14z M772.14,72.76h4.83l-2.41-5.92
		L772.14,72.76z"/>
	<path d="M781.61,70.92c0-3.97,3.39-6.68,7.65-6.68c3.32,0,5.18,1.55,6.21,3.16l-2.67,1.16c-0.61-1.05-1.92-1.88-3.54-1.88
		c-2.54,0-4.46,1.8-4.46,4.24c0,2.44,1.92,4.24,4.46,4.24c1.62,0,2.93-0.81,3.54-1.88l2.67,1.14c-1.05,1.61-2.89,3.18-6.21,3.18
		C785,77.6,781.61,74.89,781.61,70.92z"/>
	<path d="M796.2,70.92c0-3.97,3.39-6.68,7.65-6.68c3.32,0,5.18,1.55,6.21,3.16l-2.67,1.16c-0.61-1.05-1.92-1.88-3.54-1.88
		c-2.54,0-4.46,1.8-4.46,4.24c0,2.44,1.92,4.24,4.46,4.24c1.62,0,2.93-0.81,3.54-1.88l2.67,1.14c-1.05,1.61-2.89,3.18-6.21,3.18
		C799.59,77.6,796.2,74.89,796.2,70.92z"/>
	<path d="M811.48,64.45h10.32v2.36h-7.22v2.81h7.06v2.36h-7.06v3h7.22v2.38h-10.32V64.45z"/>
	<path d="M823.8,64.45h3.1v10.49h6.17v2.42h-9.27V64.45z"/>
	<path d="M834.8,64.45h10.32v2.36h-7.22v2.81h7.06v2.36h-7.06v3h7.22v2.38H834.8V64.45z"/>
	<path d="M852.49,72.74h-2.27v4.63h-3.1V64.45h6.82c3.04,0,4.9,1.76,4.9,4.16c0,2.28-1.62,3.5-3.19,3.83l3.28,4.92h-3.56
		L852.49,72.74z M853.47,66.82h-3.26v3.56h3.26c1.25,0,2.19-0.7,2.19-1.78C855.66,67.51,854.72,66.82,853.47,66.82z"/>
	<path d="M870.02,75.14h-6.52l-0.92,2.23h-3.41l5.64-12.92h3.89l5.62,12.92h-3.39L870.02,75.14z M864.34,72.76h4.83l-2.41-5.92
		L864.34,72.76z"/>
	<path d="M877.22,66.87h-4.26v-2.42h11.63v2.42h-4.24v10.5h-3.13V66.87z"/>
	<path d="M892.53,64.24c4.42,0,7.63,2.79,7.63,6.68c0,3.89-3.21,6.68-7.63,6.68c-4.4,0-7.61-2.79-7.61-6.68
		C884.92,67.03,888.13,64.24,892.53,64.24z M892.53,66.68c-2.69,0-4.42,1.82-4.42,4.24c0,2.4,1.73,4.24,4.42,4.24
		c2.69,0,4.44-1.84,4.44-4.24C896.97,68.5,895.22,66.68,892.53,66.68z"/>
	<path d="M907.29,72.74h-2.27v4.63h-3.1V64.45h6.82c3.04,0,4.9,1.76,4.9,4.16c0,2.28-1.62,3.5-3.19,3.83l3.28,4.92h-3.56
		L907.29,72.74z M908.27,66.82h-3.26v3.56h3.26c1.25,0,2.19-0.7,2.19-1.78C910.46,67.51,909.52,66.82,908.27,66.82z"/>
	<path d="M921.39,73.46c1.03,0.95,2.62,1.74,4.64,1.74c1.71,0,2.54-0.72,2.54-1.45c0-0.97-1.27-1.3-2.95-1.65
		c-2.38-0.48-5.44-1.07-5.44-3.95c0-2.15,2.1-3.89,5.53-3.89c2.32,0,4.24,0.62,5.69,1.8l-1.73,2.01c-1.18-0.97-2.76-1.41-4.18-1.41
		c-1.4,0-2.14,0.54-2.14,1.32c0,0.87,1.22,1.14,2.91,1.49c2.41,0.48,5.47,1.12,5.47,3.99c0,2.36-1.9,4.14-5.84,4.14
		c-2.8,0-4.81-0.83-6.19-2.05L921.39,73.46z"/>
	<path d="M936.59,66.87h-4.26v-2.42h11.63v2.42h-4.24v10.5h-3.13V66.87z"/>
	<path d="M953.41,75.14h-6.52l-0.92,2.23h-3.41l5.64-12.92h3.89l5.62,12.92h-3.39L953.41,75.14z M947.72,72.76h4.83l-2.41-5.92
		L947.72,72.76z"/>
	<path d="M964.01,72.74h-2.27v4.63h-3.1V64.45h6.82c3.04,0,4.9,1.76,4.9,4.16c0,2.28-1.62,3.5-3.19,3.83l3.28,4.92h-3.56
		L964.01,72.74z M965,66.82h-3.26v3.56H965c1.25,0,2.19-0.7,2.19-1.78C967.19,67.51,966.24,66.82,965,66.82z"/>
	<path d="M975.41,66.87h-4.26v-2.42h11.63v2.42h-4.24v10.5h-3.13V66.87z"/>
	<path d="M998.78,75.14h-6.52l-0.92,2.23h-3.41l5.64-12.92h3.89l5.62,12.92h-3.39L998.78,75.14z M993.1,72.76h4.83l-2.41-5.92
		L993.1,72.76z"/>
	<path d="M1007.12,68.69v8.67h-3.1V64.45h3.19l6.76,8.36v-8.36h3.1v12.92h-3L1007.12,68.69z"/>
	<path d="M1019.52,64.45h5.75c4.57,0,7.74,2.58,7.74,6.47c0,3.89-3.17,6.45-7.74,6.45h-5.75V64.45z M1025.27,74.95
		c2.89,0,4.57-1.84,4.57-4.03c0-2.28-1.57-4.05-4.57-4.05h-2.65v8.07H1025.27z"/>
	<path d="M773.91,95.98h-2.27v4.63h-3.1V87.69h6.82c3.04,0,4.9,1.76,4.9,4.16c0,2.28-1.62,3.5-3.19,3.83l3.28,4.92h-3.56
		L773.91,95.98z M774.9,90.05h-3.26v3.56h3.26c1.25,0,2.19-0.7,2.19-1.78C777.08,90.75,776.14,90.05,774.9,90.05z"/>
	<path d="M786.23,91.02c3.15,0,5.29,2.09,5.29,5.15v0.54h-7.85c0.17,1.18,1.25,2.17,3.04,2.17c0.98,0,2.14-0.35,2.82-0.93l1.22,1.59
		c-1.05,0.85-2.71,1.3-4.35,1.3c-3.21,0-5.64-1.92-5.64-4.92C780.76,93.21,783.01,91.02,786.23,91.02z M783.62,95.05h5.2
		c-0.07-0.89-0.77-2.07-2.6-2.07C784.5,92.98,783.75,94.12,783.62,95.05z"/>
	<path d="M793.16,87.69h10.32v2.36h-7.22v2.81h7.06v2.36h-7.06v5.38h-3.1V87.69z"/>
	<path d="M805.21,87.69h10.32v2.36h-7.22v2.81h7.06v2.36h-7.06v3h7.22v2.38h-10.32V87.69z"/>
	<path d="M817.52,87.69h5.75c4.57,0,7.74,2.58,7.74,6.47c0,3.89-3.17,6.45-7.74,6.45h-5.75V87.69z M823.27,98.18
		c2.89,0,4.57-1.84,4.57-4.03c0-2.28-1.57-4.05-4.57-4.05h-2.65v8.07H823.27z"/>
	<path d="M837.94,87.69h3.1v10.49h6.17v2.42h-9.27V87.69z"/>
	<path d="M848.94,87.69h10.32v2.36h-7.22v2.81h7.06v2.36h-7.06v3h7.22v2.38h-10.32V87.69z"/>
	<path d="M870.55,98.38h-6.52l-0.92,2.23h-3.41l5.64-12.92h3.89l5.62,12.92h-3.39L870.55,98.38z M864.86,96h4.83l-2.41-5.92
		L864.86,96z"/>
	<path d="M881.15,95.98h-2.27v4.63h-3.1V87.69h6.82c3.04,0,4.9,1.76,4.9,4.16c0,2.28-1.62,3.5-3.19,3.83l3.28,4.92h-3.56
		L881.15,95.98z M882.14,90.05h-3.26v3.56h3.26c1.25,0,2.19-0.7,2.19-1.78C884.33,90.75,883.38,90.05,882.14,90.05z"/>
	<path d="M892.51,91.93v8.67h-3.1V87.69h3.19l6.76,8.36v-8.36h3.1v12.92h-3L892.51,91.93z"/>
	<path d="M904.9,87.69h3.1v12.92h-3.1V87.69z"/>
	<path d="M913.56,91.93v8.67h-3.1V87.69h3.19l6.76,8.36v-8.36h3.1v12.92h-3L913.56,91.93z"/>
	<path d="M933.03,87.48c3.02,0,4.92,1.3,6.04,2.83l-2.58,1.24c-0.68-0.91-1.92-1.63-3.45-1.63c-2.65,0-4.57,1.8-4.57,4.24
		c0,2.44,1.92,4.24,4.57,4.24c1.33,0,2.51-0.48,3.15-0.99v-1.57h-3.89v-2.36h6.95v4.94c-1.49,1.47-3.56,2.44-6.21,2.44
		c-4.26,0-7.76-2.63-7.76-6.7C925.26,90.07,928.76,87.48,933.03,87.48z"/>
	<path d="M946.43,87.69h3.1v10.49h6.17v2.42h-9.27V87.69z"/>
	<path d="M966.72,98.38h-6.52l-0.92,2.23h-3.41l5.64-12.92h3.89l5.62,12.92h-3.39L966.72,98.38z M961.04,96h4.83l-2.41-5.92
		L961.04,96z"/>
	<path d="M971.95,87.69h7.67c2.78,0,4.2,1.57,4.2,3.29c0,1.63-1.14,2.71-2.51,2.96c1.55,0.21,2.8,1.55,2.8,3.18
		c0,1.94-1.46,3.49-4.24,3.49h-7.92V87.69z M978.95,92.88c1.05,0,1.71-0.6,1.71-1.43c0-0.79-0.66-1.41-1.71-1.41h-3.89v2.85H978.95z
		 M979.06,98.26c1.18,0,1.88-0.6,1.88-1.53c0-0.81-0.66-1.51-1.88-1.51h-4v3.04H979.06z"/>
	<path d="M996.33,97.33h-2.08l-1.25,3.27h-2.06l1.25-3.27h-2.1l0.57-1.57h2.14l1.18-3.21h-2.14L992.4,91h2.21l1.22-3.31h2.06
		L996.66,91h2.06l1.22-3.31h2.08l-1.27,3.31h2.12l-0.52,1.55h-2.19l-1.2,3.21h2.21l-0.55,1.57h-2.25l-1.22,3.27h-2.08L996.33,97.33z
		 M996.05,92.55l-1.18,3.21h2.03l1.2-3.21H996.05z"/>
	<path d="M1007.25,91.23l-2.43,2.19l-1.77-1.65l4.59-4.08h2.71v12.92h-3.1V91.23z"/>
	<path class="st24" d="M769.12,124.93c1.03,1.14,2.71,2.22,4.9,2.22c2.78,0,3.66-1.49,3.66-2.68c0-1.87-1.89-2.38-3.94-2.94
		c-2.5-0.65-5.27-1.35-5.27-4.41c0-2.57,2.29-4.32,5.34-4.32c2.38,0,4.22,0.79,5.53,2.17l-1.17,1.42c-1.17-1.28-2.8-1.87-4.5-1.87
		c-1.87,0-3.2,1-3.2,2.47c0,1.56,1.8,2.03,3.78,2.57c2.54,0.68,5.44,1.47,5.44,4.74c0,2.26-1.54,4.57-5.74,4.57
		c-2.71,0-4.69-1.03-5.97-2.47L769.12,124.93z"/>
	<path class="st24" d="M787.41,117.05c3.41,0,5.41,2.66,5.41,6.04v0.44h-9.12c0.14,2.12,1.63,3.9,4.06,3.9
		c1.28,0,2.59-0.51,3.48-1.42l0.84,1.14c-1.12,1.12-2.64,1.73-4.48,1.73c-3.34,0-5.74-2.4-5.74-5.93
		C781.86,119.68,784.19,117.05,787.41,117.05z M783.7,122.25h7.4c-0.02-1.68-1.14-3.76-3.71-3.76
		C784.98,118.49,783.79,120.52,783.7,122.25z"/>
	<path class="st24" d="M795.64,132.89v-15.56h1.75v1.68c0.82-1.14,2.22-1.96,3.8-1.96c2.96,0,5.02,2.24,5.02,5.9
		c0,3.64-2.05,5.93-5.02,5.93c-1.54,0-2.89-0.72-3.8-1.98v6H795.64z M800.75,118.61c-1.38,0-2.75,0.82-3.36,1.8v5.09
		c0.61,0.98,1.98,1.82,3.36,1.82c2.26,0,3.62-1.87,3.62-4.36C804.37,120.45,803.02,118.61,800.75,118.61z"/>
	<path class="st24" d="M809.38,126.24v-7.37h-1.87v-1.54h1.87v-3.08h1.75v3.08h2.29v1.54h-2.29v7c0,0.84,0.37,1.45,1.14,1.45
		c0.49,0,0.96-0.21,1.19-0.47l0.51,1.31c-0.44,0.42-1.07,0.72-2.1,0.72C810.22,128.88,809.38,127.92,809.38,126.24z"/>
	<path class="st24" d="M820.79,117.05c3.41,0,5.41,2.66,5.41,6.04v0.44h-9.12c0.14,2.12,1.63,3.9,4.06,3.9
		c1.28,0,2.59-0.51,3.48-1.42l0.84,1.14c-1.12,1.12-2.64,1.73-4.48,1.73c-3.34,0-5.74-2.4-5.74-5.93
		C815.24,119.68,817.57,117.05,820.79,117.05z M817.08,122.25h7.4c-0.02-1.68-1.14-3.76-3.71-3.76
		C818.36,118.49,817.17,120.52,817.08,122.25z"/>
	<path class="st24" d="M842.62,120.94c0-1.42-0.63-2.33-2.08-2.33c-1.17,0-2.4,0.84-2.99,1.73v8.26h-1.75v-7.65
		c0-1.42-0.61-2.33-2.08-2.33c-1.14,0-2.36,0.84-2.96,1.75v8.24h-1.75v-11.27h1.75v1.63c0.47-0.72,1.98-1.91,3.64-1.91
		c1.73,0,2.71,0.93,3.03,2.1c0.63-1.03,2.15-2.1,3.78-2.1c2.05,0,3.15,1.14,3.15,3.41v8.14h-1.75V120.94z"/>
	<path class="st24" d="M847.87,113.04h1.75v6c0.91-1.24,2.26-1.98,3.8-1.98c2.94,0,5.02,2.33,5.02,5.93c0,3.66-2.08,5.9-5.02,5.9
		c-1.59,0-2.96-0.82-3.8-1.96v1.68h-1.75V113.04z M852.98,127.31c2.29,0,3.64-1.84,3.64-4.34c0-2.5-1.35-4.36-3.64-4.36
		c-1.38,0-2.75,0.84-3.36,1.82v5.11C850.23,126.52,851.6,127.31,852.98,127.31z"/>
	<path class="st24" d="M866.18,117.05c3.41,0,5.41,2.66,5.41,6.04v0.44h-9.12c0.14,2.12,1.63,3.9,4.06,3.9
		c1.28,0,2.59-0.51,3.48-1.42l0.84,1.14c-1.12,1.12-2.64,1.73-4.48,1.73c-3.34,0-5.74-2.4-5.74-5.93
		C860.63,119.68,862.96,117.05,866.18,117.05z M862.47,122.25h7.4c-0.02-1.68-1.14-3.76-3.71-3.76
		C863.76,118.49,862.57,120.52,862.47,122.25z"/>
	<path class="st24" d="M874.42,117.33h1.75v1.82c0.91-1.19,2.22-2.05,3.76-2.05v1.8c-0.21-0.05-0.42-0.07-0.7-0.07
		c-1.07,0-2.54,0.89-3.06,1.8v7.98h-1.75V117.33z"/>
	<path class="st24" d="M890.53,115.6l-2.5,2.64l-1.17-1.19l3.9-4.01h1.7v15.56h-1.94V115.6z"/>
	<path class="st24" d="M901.43,112.8c4.25,0,5.95,4.22,5.95,8.03c0,3.78-1.7,8.05-5.95,8.05c-4.27,0-5.95-4.27-5.95-8.05
		C895.48,117.02,897.16,112.8,901.43,112.8z M901.43,114.53c-2.96,0-3.97,3.2-3.97,6.3c0,3.1,1,6.32,3.97,6.32s3.97-3.22,3.97-6.32
		C905.39,117.72,904.39,114.53,901.43,114.53z"/>
</g>
<g>
	<path d="M234.85,312.3h3.54l4.04,9.93l4.02-9.93H250l-5.62,12.92h-3.89L234.85,312.3z"/>
	<path d="M250.92,312.3h3.1v12.92h-3.1V312.3z"/>
	<path d="M261.86,320.58h-2.27v4.63h-3.1V312.3h6.82c3.04,0,4.9,1.76,4.9,4.16c0,2.28-1.62,3.5-3.19,3.83l3.28,4.92h-3.56
		L261.86,320.58z M262.84,314.66h-3.26v3.56h3.26c1.25,0,2.19-0.7,2.19-1.78C265.03,315.35,264.09,314.66,262.84,314.66z"/>
	<path d="M273.25,314.72h-4.26v-2.42h11.63v2.42h-4.24v10.5h-3.13V314.72z"/>
	<path d="M282.17,312.3h3.15v7.67c0,1.8,1.12,3.04,3.39,3.04c2.23,0,3.35-1.24,3.35-3.04v-7.67h3.15v7.75c0,3.21-2.08,5.4-6.49,5.4
		c-4.46,0-6.54-2.21-6.54-5.38V312.3z"/>
	<path d="M306.23,322.98h-6.52l-0.92,2.23h-3.41l5.64-12.92h3.89l5.62,12.92h-3.39L306.23,322.98z M300.54,320.6h4.83l-2.41-5.93
		L300.54,320.6z"/>
	<path d="M311.45,312.3h3.1v10.49h6.17v2.42h-9.27V312.3z"/>
	<path d="M327.61,312.3h3.1v12.92h-3.1V312.3z"/>
	<path d="M336.27,316.54v8.67h-3.1V312.3h3.19l6.76,8.36v-8.36h3.1v12.92h-3L336.27,316.54z"/>
	<path d="M348.67,312.3h10.32v2.36h-7.22v2.81h7.06v2.36h-7.06v5.38h-3.1V312.3z"/>
	<path d="M367.63,312.08c4.42,0,7.63,2.79,7.63,6.68c0,3.89-3.21,6.68-7.63,6.68c-4.4,0-7.61-2.79-7.61-6.68
		C360.02,314.87,363.24,312.08,367.63,312.08z M367.63,314.52c-2.69,0-4.42,1.82-4.42,4.24c0,2.4,1.73,4.24,4.42,4.24
		c2.69,0,4.44-1.84,4.44-4.24C372.07,316.34,370.32,314.52,367.63,314.52z"/>
	<path d="M382.39,320.58h-2.27v4.63h-3.1V312.3h6.82c3.04,0,4.9,1.76,4.9,4.16c0,2.28-1.62,3.5-3.19,3.83l3.28,4.92h-3.56
		L382.39,320.58z M383.38,314.66h-3.26v3.56h3.26c1.25,0,2.19-0.7,2.19-1.78C385.56,315.35,384.62,314.66,383.38,314.66z"/>
	<path d="M403.32,315.92l-4.11,9.29h-1.36l-4.11-9.29v9.29h-3.1V312.3h4.35l3.54,8.05l3.54-8.05h4.37v12.92h-3.13V315.92z"/>
	<path d="M418.19,322.98h-6.52l-0.92,2.23h-3.41l5.64-12.92h3.89l5.62,12.92h-3.39L418.19,322.98z M412.51,320.6h4.83l-2.41-5.93
		L412.51,320.6z"/>
	<path d="M425.39,314.72h-4.26v-2.42h11.63v2.42h-4.24v10.5h-3.13V314.72z"/>
	<path d="M434.31,312.3h3.1v12.92h-3.1V312.3z"/>
	<path d="M446.77,312.08c4.42,0,7.63,2.79,7.63,6.68c0,3.89-3.21,6.68-7.63,6.68c-4.4,0-7.61-2.79-7.61-6.68
		C439.16,314.87,442.38,312.08,446.77,312.08z M446.77,314.52c-2.69,0-4.42,1.82-4.42,4.24c0,2.4,1.73,4.24,4.42,4.24
		c2.69,0,4.44-1.84,4.44-4.24C451.21,316.34,449.46,314.52,446.77,314.52z"/>
	<path d="M459.26,316.54v8.67h-3.1V312.3h3.19l6.76,8.36v-8.36h3.1v12.92h-3L459.26,316.54z"/>
	<path d="M480.95,322.98h-6.52l-0.92,2.23h-3.41l5.64-12.92h3.89l5.62,12.92h-3.39L480.95,322.98z M475.27,320.6h4.83l-2.41-5.93
		L475.27,320.6z"/>
	<path d="M486.18,312.3h3.1v10.49h6.17v2.42h-9.27V312.3z"/>
	<path d="M237.1,344.54c1.03,0.95,2.62,1.74,4.64,1.74c1.71,0,2.54-0.72,2.54-1.45c0-0.97-1.27-1.3-2.95-1.65
		c-2.38-0.48-5.44-1.07-5.44-3.95c0-2.15,2.1-3.89,5.53-3.89c2.32,0,4.24,0.62,5.69,1.8l-1.73,2.01c-1.18-0.97-2.76-1.41-4.18-1.41
		c-1.4,0-2.14,0.54-2.14,1.32c0,0.87,1.22,1.14,2.91,1.49c2.41,0.48,5.47,1.12,5.47,3.99c0,2.36-1.9,4.14-5.84,4.14
		c-2.8,0-4.81-0.83-6.19-2.05L237.1,344.54z"/>
	<path d="M249.09,335.53h10.32v2.36h-7.22v2.81h7.06v2.36h-7.06v3h7.22v2.38h-10.32V335.53z"/>
	<path d="M262.1,344.54c1.03,0.95,2.62,1.74,4.64,1.74c1.71,0,2.54-0.72,2.54-1.45c0-0.97-1.27-1.3-2.95-1.65
		c-2.38-0.48-5.44-1.07-5.44-3.95c0-2.15,2.1-3.89,5.53-3.89c2.32,0,4.24,0.62,5.69,1.8l-1.73,2.01c-1.18-0.97-2.76-1.41-4.18-1.41
		c-1.4,0-2.14,0.54-2.14,1.32c0,0.87,1.22,1.14,2.91,1.49c2.41,0.48,5.47,1.12,5.47,3.99c0,2.36-1.9,4.14-5.84,4.14
		c-2.8,0-4.81-0.83-6.19-2.05L262.1,344.54z"/>
	<path d="M274.78,344.54c1.03,0.95,2.62,1.74,4.64,1.74c1.71,0,2.54-0.72,2.54-1.45c0-0.97-1.27-1.3-2.95-1.65
		c-2.38-0.48-5.44-1.07-5.44-3.95c0-2.15,2.1-3.89,5.53-3.89c2.32,0,4.24,0.62,5.69,1.8l-1.73,2.01c-1.18-0.97-2.76-1.41-4.18-1.41
		c-1.4,0-2.14,0.54-2.14,1.32c0,0.87,1.22,1.14,2.91,1.49c2.41,0.48,5.47,1.12,5.47,3.99c0,2.36-1.9,4.14-5.84,4.14
		c-2.8,0-4.81-0.83-6.19-2.05L274.78,344.54z"/>
	<path d="M286.76,335.53h3.1v12.92h-3.1V335.53z"/>
	<path d="M299.23,335.32c4.42,0,7.63,2.79,7.63,6.68c0,3.89-3.21,6.68-7.63,6.68c-4.4,0-7.61-2.79-7.61-6.68
		C291.62,338.11,294.83,335.32,299.23,335.32z M299.23,337.76c-2.69,0-4.42,1.82-4.42,4.24c0,2.4,1.73,4.24,4.42,4.24
		c2.69,0,4.44-1.84,4.44-4.24C303.67,339.58,301.92,337.76,299.23,337.76z"/>
	<path d="M311.72,339.77v8.67h-3.1v-12.92h3.19l6.76,8.36v-8.36h3.1v12.92h-3L311.72,339.77z"/>
	<path class="st24" d="M236.22,373.16c0.68,0.82,1.59,1.54,2.94,1.54c1.91,0,3.13-1.33,3.13-3.27v-10.85h1.94v10.87
		c0,3.38-2.17,4.97-4.95,4.97c-1.66,0-2.99-0.54-4.06-1.8L236.22,373.16z"/>
	<path class="st24" d="M255.39,374.56c-0.86,0.98-2.33,1.87-4.01,1.87c-2.36,0-3.59-1.14-3.59-3.59v-7.96h1.75v7.42
		c0,1.98,1,2.57,2.52,2.57c1.38,0,2.68-0.79,3.34-1.7v-8.28h1.75v11.27h-1.75V374.56z"/>
	<path class="st24" d="M268.25,368.78c0-1.98-1-2.61-2.52-2.61c-1.38,0-2.68,0.84-3.34,1.75v8.24h-1.75v-11.27h1.75v1.63
		c0.79-0.93,2.33-1.91,4.01-1.91c2.36,0,3.59,1.19,3.59,3.64v7.91h-1.75V368.78z"/>
	<path class="st24" d="M278.39,364.6c3.41,0,5.41,2.66,5.41,6.04v0.44h-9.12c0.14,2.12,1.63,3.9,4.06,3.9
		c1.28,0,2.59-0.51,3.48-1.42l0.84,1.14c-1.12,1.12-2.64,1.73-4.48,1.73c-3.34,0-5.74-2.4-5.74-5.93
		C272.84,367.24,275.17,364.6,278.39,364.6z M274.68,369.8h7.4c-0.02-1.68-1.14-3.76-3.71-3.76
		C275.97,366.05,274.78,368.08,274.68,369.8z"/>
	<path class="st24" d="M298.17,374.61c5.6-4.41,8.63-7,8.63-9.68c0-1.98-1.63-2.85-3.24-2.85c-1.87,0-3.31,0.79-4.22,1.96
		l-1.19-1.24c1.19-1.56,3.22-2.45,5.41-2.45c2.59,0,5.23,1.47,5.23,4.57c0,3.17-3.22,6.07-7.56,9.5h7.63v1.73h-10.69V374.61z"/>
	<path class="st24" d="M313.36,372.65c1.03,1.31,2.38,2.05,4.29,2.05c2.12,0,3.59-1.45,3.59-3.34c0-2.05-1.47-3.36-3.57-3.36
		c-1.38,0-2.54,0.44-3.59,1.47l-1.42-0.49v-8.4h9.52v1.73h-7.58v5.41c0.75-0.75,2.08-1.4,3.64-1.4c2.59,0,4.95,1.77,4.95,4.97
		c0,3.17-2.4,5.13-5.53,5.13c-2.64,0-4.32-0.96-5.48-2.5L313.36,372.65z"/>
</g>
<g>
	<path d="M598.51,322.98h-6.52l-0.92,2.23h-3.41l5.64-12.92h3.89l5.62,12.92h-3.39L598.51,322.98z M592.82,320.6h4.83l-2.41-5.93
		L592.82,320.6z"/>
	<path d="M606.84,316.54v8.67h-3.1V312.3h3.19l6.76,8.36v-8.36h3.1v12.92h-3L606.84,316.54z"/>
	<path d="M622.34,316.54v8.67h-3.1V312.3h3.19l6.76,8.36v-8.36h3.1v12.92h-3L622.34,316.54z"/>
	<path d="M641.65,312.08c4.42,0,7.63,2.79,7.63,6.68c0,3.89-3.21,6.68-7.63,6.68c-4.4,0-7.61-2.79-7.61-6.68
		C634.04,314.87,637.26,312.08,641.65,312.08z M641.65,314.52c-2.69,0-4.42,1.82-4.42,4.24c0,2.4,1.73,4.24,4.42,4.24
		c2.69,0,4.44-1.84,4.44-4.24C646.09,316.34,644.34,314.52,641.65,314.52z"/>
	<path d="M651.04,312.3h3.15v7.67c0,1.8,1.12,3.04,3.39,3.04c2.23,0,3.35-1.24,3.35-3.04v-7.67h3.15v7.75c0,3.21-2.08,5.4-6.49,5.4
		c-4.46,0-6.54-2.21-6.54-5.38V312.3z"/>
	<path d="M669.62,316.54v8.67h-3.1V312.3h3.19l6.76,8.36v-8.36h3.1v12.92h-3L669.62,316.54z"/>
	<path d="M681.32,318.76c0-3.97,3.39-6.68,7.65-6.68c3.32,0,5.18,1.55,6.21,3.16l-2.67,1.16c-0.61-1.05-1.92-1.88-3.54-1.88
		c-2.54,0-4.46,1.8-4.46,4.24c0,2.44,1.92,4.24,4.46,4.24c1.62,0,2.93-0.81,3.54-1.88l2.67,1.14c-1.05,1.61-2.89,3.18-6.21,3.18
		C684.71,325.44,681.32,322.73,681.32,318.76z"/>
	<path d="M696.61,312.3h10.32v2.36h-7.22v2.81h7.06v2.36h-7.06v3h7.22v2.38h-10.32V312.3z"/>
	<path d="M721.6,315.92l-4.11,9.29h-1.36l-4.11-9.29v9.29h-3.1V312.3h4.35l3.54,8.05l3.54-8.05h4.37v12.92h-3.13V315.92z"/>
	<path d="M727.18,312.3h10.32v2.36h-7.22v2.81h7.06v2.36h-7.06v3h7.22v2.38h-10.32V312.3z"/>
	<path d="M742.6,316.54v8.67h-3.1V312.3h3.19l6.76,8.36v-8.36h3.1v12.92h-3L742.6,316.54z"/>
	<path d="M758.36,314.72h-4.26v-2.42h11.63v2.42h-4.24v10.5h-3.13V314.72z"/>
	<path d="M779.36,312.08c4.42,0,7.63,2.79,7.63,6.68c0,3.89-3.21,6.68-7.63,6.68c-4.4,0-7.61-2.79-7.61-6.68
		C771.75,314.87,774.96,312.08,779.36,312.08z M779.36,314.52c-2.69,0-4.42,1.82-4.42,4.24c0,2.4,1.73,4.24,4.42,4.24
		c2.69,0,4.44-1.84,4.44-4.24C783.8,316.34,782.05,314.52,779.36,314.52z"/>
	<path d="M788.74,312.3h10.32v2.36h-7.22v2.81h7.06v2.36h-7.06v5.38h-3.1V312.3z"/>
	<path d="M588.51,342c0-3.97,3.39-6.68,7.65-6.68c3.32,0,5.18,1.55,6.21,3.16l-2.67,1.16c-0.61-1.05-1.92-1.88-3.54-1.88
		c-2.54,0-4.46,1.8-4.46,4.24c0,2.44,1.92,4.24,4.46,4.24c1.62,0,2.93-0.81,3.54-1.88l2.67,1.14c-1.05,1.61-2.89,3.18-6.21,3.18
		C591.9,348.68,588.51,345.97,588.51,342z"/>
	<path d="M610.71,335.32c4.42,0,7.63,2.79,7.63,6.68c0,3.89-3.21,6.68-7.63,6.68c-4.4,0-7.61-2.79-7.61-6.68
		C603.1,338.11,606.31,335.32,610.71,335.32z M610.71,337.76c-2.69,0-4.42,1.82-4.42,4.24c0,2.4,1.73,4.24,4.42,4.24
		c2.69,0,4.44-1.84,4.44-4.24C615.15,339.58,613.4,337.76,610.71,337.76z"/>
	<path d="M630.09,343.03h-6.89v5.42h-3.1v-12.92h3.1v5.07h6.89v-5.07h3.13v12.92h-3.13V343.03z"/>
	<path d="M642.55,335.32c4.42,0,7.63,2.79,7.63,6.68c0,3.89-3.21,6.68-7.63,6.68c-4.4,0-7.61-2.79-7.61-6.68
		C634.94,338.11,638.15,335.32,642.55,335.32z M642.55,337.76c-2.69,0-4.42,1.82-4.42,4.24c0,2.4,1.73,4.24,4.42,4.24
		c2.69,0,4.44-1.84,4.44-4.24C646.99,339.58,645.24,337.76,642.55,337.76z"/>
	<path d="M657.31,343.82h-2.27v4.63h-3.1v-12.92h6.82c3.04,0,4.9,1.76,4.9,4.16c0,2.28-1.62,3.5-3.19,3.83l3.28,4.92h-3.56
		L657.31,343.82z M658.3,337.89h-3.26v3.56h3.26c1.25,0,2.19-0.7,2.19-1.78C660.48,338.59,659.54,337.89,658.3,337.89z"/>
	<path d="M668.7,337.95h-4.26v-2.42h11.63v2.42h-4.24v10.5h-3.13V337.95z"/>
	<path class="st24" d="M589.31,374.33l1.16-1.49c1,1.16,2.67,2.23,4.86,2.23c2.77,0,3.65-1.49,3.65-2.7c0-4-9.19-1.77-9.19-7.3
		c0-2.56,2.28-4.33,5.35-4.33c2.35,0,4.19,0.81,5.49,2.19l-1.16,1.42c-1.16-1.3-2.79-1.86-4.49-1.86c-1.84,0-3.19,1-3.19,2.46
		c0,3.49,9.19,1.49,9.19,7.28c0,2.23-1.53,4.56-5.72,4.56C592.59,376.8,590.59,375.78,589.31,374.33z"/>
	<path class="st24" d="M603.15,370.89c0-3.25,2.33-5.88,5.53-5.88c3.4,0,5.4,2.65,5.4,6.02v0.44h-9.07c0.14,2.12,1.6,3.88,4.02,3.88
		c1.3,0,2.58-0.51,3.49-1.44l0.84,1.14c-1.14,1.12-2.65,1.74-4.46,1.74C605.54,376.8,603.15,374.4,603.15,370.89z M608.66,366.45
		c-2.4,0-3.58,2.02-3.67,3.72h7.37C612.33,368.52,611.22,366.45,608.66,366.45z"/>
	<path class="st24" d="M618.64,374.82v5.98h-1.74v-15.51h1.74v1.67c0.81-1.14,2.21-1.95,3.79-1.95c2.95,0,5,2.23,5,5.88
		c0,3.63-2.05,5.91-5,5.91C620.89,376.8,619.57,376.05,618.64,374.82z M625.59,370.89c0-2.49-1.35-4.33-3.6-4.33
		c-1.37,0-2.74,0.81-3.35,1.79v5.07c0.6,0.98,1.98,1.81,3.35,1.81C624.24,375.24,625.59,373.38,625.59,370.89z"/>
	<path class="st24" d="M630.54,374.17v-7.35h-1.86v-1.53h1.86v-3.07h1.77v3.07h2.28v1.53h-2.28v6.98c0,0.84,0.37,1.44,1.12,1.44
		c0.51,0,0.95-0.23,1.19-0.49l0.51,1.33c-0.44,0.42-1.07,0.72-2.07,0.72C631.38,376.8,630.54,375.84,630.54,374.17z"/>
	<path class="st24" d="M636.38,370.89c0-3.25,2.33-5.88,5.53-5.88c3.4,0,5.4,2.65,5.4,6.02v0.44h-9.07c0.14,2.12,1.6,3.88,4.02,3.88
		c1.3,0,2.58-0.51,3.49-1.44l0.84,1.14c-1.14,1.12-2.65,1.74-4.46,1.74C638.78,376.8,636.38,374.4,636.38,370.89z M641.89,366.45
		c-2.4,0-3.58,2.02-3.67,3.72h7.37C645.57,368.52,644.45,366.45,641.89,366.45z"/>
	<path class="st24" d="M663.68,376.52v-7.63c0-1.42-0.6-2.33-2.07-2.33c-1.16,0-2.4,0.81-2.98,1.72v8.23h-1.74v-7.63
		c0-1.42-0.58-2.33-2.07-2.33c-1.14,0-2.35,0.84-2.95,1.74v8.21h-1.74v-11.23h1.74v1.63c0.49-0.72,1.98-1.91,3.65-1.91
		c1.7,0,2.67,0.93,3,2.09c0.63-1.02,2.14-2.09,3.77-2.09c2.05,0,3.14,1.14,3.14,3.39v8.12H663.68z"/>
	<path class="st24" d="M668.92,376.52v-15.51h1.74v5.98c0.91-1.23,2.28-1.98,3.79-1.98c2.95,0,5,2.3,5,5.91c0,3.65-2.07,5.88-5,5.88
		c-1.58,0-2.95-0.81-3.79-1.95v1.67H668.92z M674.03,375.24c2.26,0,3.6-1.84,3.6-4.33s-1.35-4.35-3.6-4.35
		c-1.4,0-2.77,0.84-3.37,1.81v5.09C671.27,374.45,672.64,375.24,674.03,375.24z"/>
	<path class="st24" d="M681.64,370.89c0-3.25,2.33-5.88,5.53-5.88c3.4,0,5.4,2.65,5.4,6.02v0.44h-9.07c0.14,2.12,1.6,3.88,4.02,3.88
		c1.3,0,2.58-0.51,3.49-1.44l0.84,1.14c-1.14,1.12-2.65,1.74-4.46,1.74C684.03,376.8,681.64,374.4,681.64,370.89z M687.15,366.45
		c-2.4,0-3.58,2.02-3.67,3.72h7.37C690.82,368.52,689.71,366.45,687.15,366.45z"/>
	<path class="st24" d="M695.38,376.52v-11.23h1.74v1.79c0.91-1.16,2.21-2.05,3.74-2.05v1.79c-0.21-0.02-0.42-0.05-0.67-0.05
		c-1.09,0-2.56,0.88-3.07,1.79v7.95H695.38z"/>
	<path class="st24" d="M715.45,376.52v-3.93h-7.37v-1.6l6.65-9.98h2.65v9.88h2.19v1.7h-2.19v3.93H715.45z M715.45,362.8l-5.44,8.09
		h5.44V362.8z"/>
</g>
<g>
	<path d="M945.95,320.58h-2.27v4.63h-3.1V312.3h6.82c3.04,0,4.9,1.76,4.9,4.16c0,2.28-1.62,3.5-3.19,3.83l3.28,4.92h-3.56
		L945.95,320.58z M946.93,314.66h-3.26v3.56h3.26c1.25,0,2.19-0.7,2.19-1.78C949.12,315.35,948.18,314.66,946.93,314.66z"/>
	<path d="M958.26,315.63c3.15,0,5.29,2.09,5.29,5.15v0.54h-7.85c0.17,1.18,1.25,2.17,3.04,2.17c0.98,0,2.14-0.35,2.82-0.93
		l1.22,1.59c-1.05,0.85-2.71,1.3-4.35,1.3c-3.21,0-5.64-1.92-5.64-4.92C952.79,317.81,955.04,315.63,958.26,315.63z M955.66,319.65
		h5.2c-0.07-0.89-0.77-2.07-2.6-2.07C956.53,317.58,955.79,318.72,955.66,319.65z"/>
	<path d="M965.19,312.3h10.32v2.36h-7.22v2.81h7.06v2.36h-7.06v5.38h-3.1V312.3z"/>
	<path d="M977.24,312.3h10.32v2.36h-7.22v2.81h7.06v2.36h-7.06v3h7.22v2.38h-10.32V312.3z"/>
	<path d="M989.55,312.3h5.75c4.57,0,7.74,2.58,7.74,6.47c0,3.89-3.17,6.45-7.74,6.45h-5.75V312.3z M995.3,322.79
		c2.89,0,4.57-1.84,4.57-4.03c0-2.28-1.57-4.05-4.57-4.05h-2.65v8.07H995.3z"/>
	<path d="M1009.98,312.3h3.1v10.49h6.17v2.42h-9.27V312.3z"/>
	<path d="M1020.98,312.3h10.32v2.36h-7.22v2.81h7.06v2.36h-7.06v3h7.22v2.38h-10.32V312.3z"/>
	<path d="M1042.58,322.98h-6.52l-0.92,2.23h-3.41l5.64-12.92h3.89l5.62,12.92h-3.39L1042.58,322.98z M1036.9,320.6h4.83l-2.41-5.93
		L1036.9,320.6z"/>
	<path d="M1053.19,320.58h-2.27v4.63h-3.1V312.3h6.82c3.04,0,4.9,1.76,4.9,4.16c0,2.28-1.62,3.5-3.19,3.83l3.28,4.92h-3.56
		L1053.19,320.58z M1054.17,314.66h-3.26v3.56h3.26c1.25,0,2.19-0.7,2.19-1.78C1056.36,315.35,1055.42,314.66,1054.17,314.66z"/>
	<path d="M1064.54,316.54v8.67h-3.1V312.3h3.19l6.76,8.36v-8.36h3.1v12.92h-3L1064.54,316.54z"/>
	<path d="M1076.94,312.3h3.1v12.92h-3.1V312.3z"/>
	<path d="M1085.6,316.54v8.67h-3.1V312.3h3.19l6.76,8.36v-8.36h3.1v12.92h-3L1085.6,316.54z"/>
	<path d="M1105.06,312.08c3.02,0,4.92,1.3,6.04,2.83l-2.58,1.24c-0.68-0.91-1.92-1.63-3.45-1.63c-2.65,0-4.57,1.8-4.57,4.24
		c0,2.44,1.92,4.24,4.57,4.24c1.33,0,2.51-0.48,3.15-0.99v-1.57h-3.89v-2.36h6.95v4.94c-1.49,1.47-3.56,2.44-6.21,2.44
		c-4.26,0-7.76-2.63-7.76-6.7C1097.3,314.68,1100.79,312.08,1105.06,312.08z"/>
	<path d="M1118.46,312.3h3.1v10.49h6.17v2.42h-9.27V312.3z"/>
	<path d="M1138.76,322.98h-6.52l-0.92,2.23h-3.41l5.64-12.92h3.89l5.62,12.92h-3.39L1138.76,322.98z M1133.07,320.6h4.83l-2.41-5.93
		L1133.07,320.6z"/>
	<path d="M1143.98,312.3h7.67c2.78,0,4.2,1.57,4.2,3.29c0,1.63-1.14,2.71-2.51,2.96c1.55,0.21,2.8,1.55,2.8,3.18
		c0,1.94-1.46,3.49-4.24,3.49h-7.92V312.3z M1150.98,317.49c1.05,0,1.71-0.6,1.71-1.43c0-0.79-0.66-1.41-1.71-1.41h-3.89v2.85
		H1150.98z M1151.09,322.87c1.18,0,1.88-0.6,1.88-1.53c0-0.81-0.66-1.51-1.88-1.51h-4v3.04H1151.09z"/>
	<path d="M1168.37,321.94h-2.08l-1.25,3.27h-2.06l1.25-3.27h-2.1l0.57-1.57h2.14l1.18-3.21h-2.14l0.55-1.55h2.21l1.22-3.31h2.06
		l-1.22,3.31h2.06l1.22-3.31h2.08l-1.27,3.31h2.12l-0.52,1.55h-2.19l-1.2,3.21h2.21l-0.55,1.57h-2.25l-1.22,3.27h-2.08
		L1168.37,321.94z M1168.08,317.16l-1.18,3.21h2.03l1.2-3.21H1168.08z"/>
	<path d="M1175.87,323.04c5.97-3.89,7.72-5.23,7.72-6.82c0-1.12-1.16-1.68-2.38-1.68c-1.64,0-2.91,0.58-3.89,1.49l-1.77-1.82
		c1.42-1.45,3.59-2.11,5.62-2.11c3.1,0,5.58,1.55,5.58,4.12c0,2.21-2.06,4.12-5.97,6.56h6.08v2.42h-10.98V323.04z"/>
	<path d="M1203.42,322.98h-6.52l-0.92,2.23h-3.41l5.64-12.92h3.89l5.62,12.92h-3.39L1203.42,322.98z M1197.74,320.6h4.83l-2.41-5.93
		L1197.74,320.6z"/>
	<path d="M1210.62,314.72h-4.26v-2.42h11.63v2.42h-4.24v10.5h-3.13V314.72z"/>
	<path d="M1228.07,314.72h-4.26v-2.42h11.63v2.42h-4.24v10.5h-3.13V314.72z"/>
	<path d="M1246.98,319.79h-6.89v5.42h-3.1V312.3h3.1v5.07h6.89v-5.07h3.13v12.92h-3.13V319.79z"/>
	<path d="M1252.54,312.3h10.32v2.36h-7.22v2.81h7.06v2.36h-7.06v3h7.22v2.38h-10.32V312.3z"/>
	<path d="M940.15,346.28c5.97-3.89,7.72-5.23,7.72-6.82c0-1.12-1.16-1.68-2.38-1.68c-1.64,0-2.91,0.58-3.89,1.49l-1.77-1.82
		c1.42-1.45,3.59-2.11,5.62-2.11c3.1,0,5.58,1.55,5.58,4.12c0,2.21-2.06,4.12-5.97,6.56h6.08v2.42h-10.98V346.28z"/>
	<path d="M958.59,335.34c4.15,0,6.04,3.33,6.04,6.66c0,3.33-1.88,6.68-6.04,6.68c-4.18,0-6.03-3.35-6.03-6.68
		C952.55,338.67,954.41,335.34,958.59,335.34z M958.59,337.78c-2.1,0-2.89,1.84-2.89,4.22s0.79,4.24,2.89,4.24
		c2.08,0,2.86-1.86,2.86-4.24S960.66,337.78,958.59,337.78z"/>
	<path d="M969.37,339.08l-2.43,2.19l-1.77-1.65l4.59-4.08h2.71v12.92h-3.1V339.08z"/>
	<path d="M976.32,345.27c0.79,0.64,1.62,0.99,2.91,0.99c2.34,0,3.65-1.76,3.65-3.72v-0.27c-0.7,0.87-2.16,1.67-3.76,1.67
		c-2.62,0-4.99-1.43-4.99-4.18c0-2.52,2.27-4.43,5.6-4.43c4.42,0,6.28,3.02,6.28,6.68c0,3.89-2.47,6.66-6.78,6.66
		c-1.77,0-3.26-0.52-4.29-1.34L976.32,345.27z M979.86,337.7c-1.66,0-2.56,1.03-2.56,1.94c0,1.38,1.29,1.98,2.69,1.98
		c1.09,0,2.16-0.45,2.86-1.2C982.73,339.17,981.94,337.7,979.86,337.7z"/>
	<path d="M992.94,335.53h10.32v2.36h-7.22v2.81h7.06v2.36h-7.06v5.38h-3.1V335.53z"/>
	<path d="M1011.9,335.32c4.42,0,7.63,2.79,7.63,6.68c0,3.89-3.21,6.68-7.63,6.68c-4.4,0-7.61-2.79-7.61-6.68
		C1004.29,338.11,1007.51,335.32,1011.9,335.32z M1011.9,337.76c-2.69,0-4.42,1.82-4.42,4.24c0,2.4,1.73,4.24,4.42,4.24
		c2.69,0,4.44-1.84,4.44-4.24C1016.34,339.58,1014.59,337.76,1011.9,337.76z"/>
	<path d="M1028.19,335.32c4.42,0,7.63,2.79,7.63,6.68c0,3.89-3.21,6.68-7.63,6.68c-4.4,0-7.61-2.79-7.61-6.68
		C1020.58,338.11,1023.8,335.32,1028.19,335.32z M1028.19,337.76c-2.69,0-4.42,1.82-4.42,4.24c0,2.4,1.73,4.24,4.42,4.24
		c2.69,0,4.44-1.84,4.44-4.24C1032.63,339.58,1030.88,337.76,1028.19,337.76z"/>
	<path d="M1037.58,335.53h5.75c4.57,0,7.74,2.58,7.74,6.47c0,3.89-3.17,6.45-7.74,6.45h-5.75V335.53z M1043.33,346.03
		c2.89,0,4.57-1.84,4.57-4.03c0-2.28-1.57-4.05-4.57-4.05h-2.65v8.07H1043.33z"/>
	<path d="M1066.59,339.58l-2.54,8.87h-3.3l-4.18-12.92h3.48l2.56,9.33l2.78-9.33h2.43l2.76,9.33l2.54-9.33h3.5l-4.15,12.92h-3.3
		L1066.59,339.58z"/>
	<path d="M1085.97,346.22h-6.52l-0.92,2.23h-3.41l5.64-12.92h3.89l5.62,12.92h-3.39L1085.97,346.22z M1080.28,343.84h4.83
		l-2.41-5.93L1080.28,343.84z"/>
	<path d="M1091.74,344.54c1.03,0.95,2.62,1.74,4.64,1.74c1.71,0,2.54-0.72,2.54-1.45c0-0.97-1.27-1.3-2.95-1.65
		c-2.38-0.48-5.44-1.07-5.44-3.95c0-2.15,2.1-3.89,5.53-3.89c2.32,0,4.24,0.62,5.69,1.8l-1.73,2.01c-1.18-0.97-2.76-1.41-4.18-1.41
		c-1.4,0-2.14,0.54-2.14,1.32c0,0.87,1.22,1.14,2.91,1.49c2.41,0.48,5.47,1.12,5.47,3.99c0,2.36-1.9,4.14-5.84,4.14
		c-2.8,0-4.81-0.83-6.19-2.05L1091.74,344.54z"/>
	<path d="M1106.94,337.95h-4.26v-2.42h11.63v2.42h-4.24v10.5h-3.13V337.95z"/>
	<path d="M1115.86,335.53h10.32v2.36h-7.22v2.81h7.06v2.36h-7.06v3h7.22v2.38h-10.32V335.53z"/>
	<path d="M1134.04,344.54c1.03,0.95,2.62,1.74,4.64,1.74c1.71,0,2.54-0.72,2.54-1.45c0-0.97-1.27-1.3-2.95-1.65
		c-2.38-0.48-5.44-1.07-5.44-3.95c0-2.15,2.1-3.89,5.53-3.89c2.32,0,4.24,0.62,5.69,1.8l-1.73,2.01c-1.18-0.97-2.76-1.41-4.18-1.41
		c-1.4,0-2.14,0.54-2.14,1.32c0,0.87,1.22,1.14,2.91,1.49c2.41,0.48,5.47,1.12,5.47,3.99c0,2.36-1.9,4.14-5.84,4.14
		c-2.8,0-4.81-0.83-6.19-2.05L1134.04,344.54z"/>
	<path d="M1146.02,335.53h3.15v7.67c0,1.8,1.12,3.04,3.39,3.04c2.23,0,3.35-1.24,3.35-3.04v-7.67h3.15v7.75
		c0,3.21-2.08,5.4-6.49,5.4c-4.46,0-6.54-2.21-6.54-5.38V335.53z"/>
	<path d="M1174.19,339.15l-4.11,9.29h-1.36l-4.11-9.29v9.29h-3.1v-12.92h4.35l3.54,8.05l3.54-8.05h4.37v12.92h-3.13V339.15z"/>
	<path d="M1192.45,339.15l-4.11,9.29h-1.36l-4.11-9.29v9.29h-3.1v-12.92h4.35l3.54,8.05l3.54-8.05h4.37v12.92h-3.13V339.15z"/>
	<path d="M1198.02,335.53h3.1v12.92h-3.1V335.53z"/>
	<path d="M1206.95,337.95h-4.26v-2.42h11.63v2.42h-4.24v10.5h-3.13V337.95z"/>
	<path class="st24" d="M948.04,360.62c4.6,0,7.72,3.45,7.72,8.05c0,4.6-3.13,8.05-7.72,8.05c-4.62,0-7.72-3.45-7.72-8.05
		C940.31,364.07,943.42,360.62,948.04,360.62z M948.04,362.35c-3.5,0-5.72,2.68-5.72,6.32c0,3.62,2.22,6.32,5.72,6.32
		c3.48,0,5.72-2.71,5.72-6.32C953.75,365.03,951.51,362.35,948.04,362.35z"/>
	<path class="st24" d="M963.69,364.89c2.05,0,3.27,0.84,4.13,1.96l-1.17,1.07c-0.75-1.03-1.7-1.47-2.87-1.47
		c-2.4,0-3.9,1.84-3.9,4.34c0,2.5,1.49,4.36,3.9,4.36c1.17,0,2.12-0.47,2.87-1.47l1.17,1.07c-0.86,1.12-2.08,1.96-4.13,1.96
		c-3.36,0-5.62-2.57-5.62-5.93C958.07,367.46,960.33,364.89,963.69,364.89z"/>
	<path class="st24" d="M970.61,374.08v-7.37h-1.87v-1.54h1.87v-3.08h1.75v3.08h2.29v1.54h-2.29v7c0,0.84,0.37,1.45,1.14,1.45
		c0.49,0,0.96-0.21,1.19-0.47l0.51,1.31c-0.44,0.42-1.07,0.72-2.1,0.72C971.45,376.72,970.61,375.76,970.61,374.08z"/>
	<path class="st24" d="M976.47,370.79c0-3.27,2.15-5.9,5.58-5.9c3.43,0,5.58,2.64,5.58,5.9c0,3.27-2.15,5.93-5.58,5.93
		C978.62,376.72,976.47,374.06,976.47,370.79z M985.78,370.79c0-2.29-1.33-4.34-3.73-4.34c-2.4,0-3.76,2.05-3.76,4.34
		c0,2.31,1.35,4.36,3.76,4.36C984.45,375.16,985.78,373.1,985.78,370.79z"/>
	<path class="st24" d="M990.47,360.88h1.75v6c0.91-1.24,2.26-1.98,3.8-1.98c2.94,0,5.02,2.33,5.02,5.93c0,3.66-2.08,5.9-5.02,5.9
		c-1.59,0-2.96-0.82-3.8-1.96v1.68h-1.75V360.88z M995.57,375.16c2.29,0,3.64-1.84,3.64-4.34c0-2.5-1.35-4.36-3.64-4.36
		c-1.38,0-2.75,0.84-3.36,1.82v5.11C992.82,374.36,994.2,375.16,995.57,375.16z"/>
	<path class="st24" d="M1008.78,364.89c3.41,0,5.41,2.66,5.41,6.04v0.44h-9.12c0.14,2.12,1.63,3.9,4.06,3.9
		c1.28,0,2.59-0.51,3.48-1.42l0.84,1.14c-1.12,1.12-2.64,1.73-4.48,1.73c-3.34,0-5.74-2.4-5.74-5.93
		C1003.22,367.53,1005.56,364.89,1008.78,364.89z M1005.07,370.09h7.4c-0.02-1.68-1.14-3.76-3.71-3.76
		C1006.35,366.34,1005.16,368.37,1005.07,370.09z"/>
	<path class="st24" d="M1017.01,365.17h1.75v1.82c0.91-1.19,2.22-2.05,3.76-2.05v1.8c-0.21-0.05-0.42-0.07-0.7-0.07
		c-1.07,0-2.54,0.89-3.06,1.8v7.98h-1.75V365.17z"/>
	<path class="st24" d="M1030.24,374.9c5.6-4.41,8.63-7,8.63-9.68c0-1.98-1.63-2.85-3.24-2.85c-1.87,0-3.31,0.79-4.22,1.96
		l-1.19-1.24c1.19-1.56,3.22-2.45,5.41-2.45c2.59,0,5.23,1.47,5.23,4.57c0,3.17-3.22,6.07-7.56,9.5h7.63v1.73h-10.69V374.9z"/>
	<path class="st24" d="M1047.61,368.41c-1.8-0.51-3.45-1.68-3.45-3.73c0-2.8,2.73-4.04,5.32-4.04c2.57,0,5.34,1.24,5.34,4.04
		c0,2.05-1.68,3.22-3.48,3.73c1.94,0.58,3.71,2.01,3.71,4.08c0,2.64-2.52,4.22-5.58,4.22c-3.08,0-5.58-1.56-5.58-4.22
		C1043.91,370.42,1045.68,369,1047.61,368.41z M1049.48,369.28c-0.96,0.12-3.64,0.98-3.64,3.01c0,1.68,1.7,2.71,3.64,2.71
		c1.91,0,3.62-1.03,3.62-2.71C1053.1,370.26,1050.44,369.39,1049.48,369.28z M1049.48,362.37c-1.89,0-3.38,0.96-3.38,2.57
		c0,1.89,2.45,2.52,3.38,2.68c0.96-0.16,3.38-0.79,3.38-2.68C1052.86,363.33,1051.35,362.37,1049.48,362.37z"/>
</g>
<g>
	<rect x="61.83" y="146.09" class="st24" width="0.3" height="39.75"/>
	<g>
		<circle class="st24" cx="61.98" cy="185.79" r="1.13"/>
	</g>
</g>
<g>
	<rect x="235.32" y="256.51" class="st24" width="0.3" height="39.75"/>
	<g>
		<circle class="st24" cx="235.47" cy="256.56" r="1.13"/>
	</g>
</g>
<g>
	<rect x="414.64" y="146.09" class="st24" width="0.3" height="39.75"/>
	<g>
		<circle class="st24" cx="414.79" cy="185.79" r="1.13"/>
	</g>
</g>
<g>
	<rect x="588.13" y="256.51" class="st24" width="0.3" height="39.75"/>
	<g>
		<circle class="st24" cx="588.28" cy="256.56" r="1.13"/>
	</g>
</g>
<g>
	<rect x="767.45" y="146.09" class="st24" width="0.3" height="39.75"/>
	<g>
		<path class="st24" d="M766.47,185.79c0,0.62,0.51,1.13,1.13,1.13c0.62,0,1.13-0.5,1.13-1.13c0-0.62-0.51-1.13-1.13-1.13
			C766.98,184.66,766.47,185.16,766.47,185.79z"/>
	</g>
</g>
<g>
	<rect x="940.94" y="256.51" class="st24" width="0.3" height="39.75"/>
	<g>
		<circle class="st24" cx="941.09" cy="256.56" r="1.13"/>
	</g>
</g>
<g>
	<rect x="1120.26" y="146.09" class="st24" width="0.3" height="39.75"/>
	<g>
		<circle class="st24" cx="1120.41" cy="185.79" r="1.13"/>
	</g>
</g>
<g>
	<path d="M1132.32,77.56l-2.55-8.84l-2.53,8.84h-3.29l-4.16-12.88h3.47l2.55,9.3l2.77-9.3h2.42l2.75,9.3l2.55-9.3h3.47l-4.14,12.88
		H1132.32z"/>
	<path d="M1140.78,77.56V64.68h3.1v12.88H1140.78z"/>
	<path d="M1156.35,77.56l-6.93-8.4v8.4h-3.1V64.68h3.18l6.74,8.09v-8.09h3.1v12.88H1156.35z"/>
	<path d="M1171.8,77.56l-6.93-8.4v8.4h-3.1V64.68h3.18l6.74,8.09v-8.09h3.1v12.88H1171.8z"/>
	<path d="M1177.23,77.56V64.68h10.29v2.41h-7.2v2.7h7.04v2.41h-7.04v2.93h7.2v2.41H1177.23z"/>
	<path d="M1197.73,77.56l-2.86-4.57h-2.27v4.57h-3.1V64.68h6.8c3.03,0,4.91,1.76,4.91,4.15c0,2.26-1.64,3.49-3.21,3.82l3.29,4.9
		H1197.73z M1198.03,68.82c0-1.06-0.94-1.72-2.16-1.72h-3.27v3.47h3.27C1197.1,70.57,1198.03,69.92,1198.03,68.82z"/>
	<path d="M1207.26,75.75l1.7-2.14c1.02,0.95,2.62,1.76,4.62,1.76c1.72,0,2.53-0.68,2.53-1.43c0-2.24-8.37-0.68-8.37-5.52
		c0-2.14,2.09-3.92,5.52-3.92c2.31,0,4.23,0.62,5.67,1.79l-1.72,2.05c-1.18-0.96-2.75-1.41-4.23-1.41c-1.31,0-2.05,0.5-2.05,1.27
		c0,2.03,8.35,0.66,8.35,5.46c0,2.36-1.92,4.13-5.82,4.13C1210.64,77.79,1208.63,76.96,1207.26,75.75z"/>
	<path d="M1220.9,77.56V64.68h10.29v2.41h-7.2v2.7h7.04v2.41H1224v2.93h7.2v2.41H1220.9z"/>
	<path d="M1233.05,77.56V64.68h3.12v10.46h6.15v2.41H1233.05z"/>
	<path d="M1243.97,77.56V64.68h10.29v2.41h-7.2v2.7h7.04v2.41h-7.04v2.93h7.2v2.41H1243.97z"/>
	<path d="M1255.55,71.13c0-3.98,3.38-6.66,7.76-6.66c3.18,0,5.04,1.52,6.06,3.15l-2.66,1.16c-0.61-1.04-1.92-1.87-3.4-1.87
		c-2.66,0-4.58,1.8-4.58,4.23c0,2.43,1.92,4.23,4.58,4.23c1.48,0,2.79-0.83,3.4-1.87l2.66,1.14c-1.02,1.6-2.88,3.17-6.06,3.17
		C1258.93,77.79,1255.55,75.09,1255.55,71.13z"/>
	<path d="M1274.15,77.56V67.1h-4.25v-2.41h11.6v2.41h-4.23v10.46H1274.15z"/>
	<path d="M1283.04,77.56V64.68h3.1v12.88H1283.04z"/>
	<path d="M1287.88,71.13c0-3.88,3.21-6.66,7.61-6.66c4.38,0,7.59,2.78,7.59,6.66s-3.21,6.66-7.59,6.66
		C1291.09,77.79,1287.88,75.01,1287.88,71.13z M1299.9,71.13c0-2.41-1.72-4.23-4.4-4.23c-2.7,0-4.43,1.81-4.43,4.23
		c0,2.39,1.72,4.23,4.43,4.23C1298.18,75.36,1299.9,73.53,1299.9,71.13z"/>
	<path d="M1314.85,77.56l-6.93-8.4v8.4h-3.1V64.68h3.18l6.74,8.09v-8.09h3.1v12.88H1314.85z"/>
	<path d="M1335.5,77.56l-0.92-2.18h-6.24l-0.92,2.18h-3.51l5.6-12.88h3.88l5.6,12.88H1335.5z M1331.47,67.43l-2.27,5.54h4.54
		L1331.47,67.43z"/>
	<path d="M1349.96,77.56l-6.93-8.4v8.4h-3.1V64.68h3.18l6.74,8.09v-8.09h3.1v12.88H1349.96z"/>
	<path d="M1355.39,77.56V64.68h5.73c4.56,0,7.72,2.57,7.72,6.43c0,3.9-3.16,6.45-7.7,6.45H1355.39z M1365.68,71.11
		c0-2.26-1.57-4.01-4.54-4.01h-2.66v8.05h2.64C1364,75.15,1365.68,73.31,1365.68,71.11z"/>
	<path d="M1129.42,100.73l-2.86-4.57h-2.27v4.57h-3.1V87.85h6.8c3.03,0,4.91,1.76,4.91,4.15c0,2.26-1.64,3.49-3.21,3.82l3.29,4.9
		H1129.42z M1129.72,91.98c0-1.06-0.94-1.72-2.16-1.72h-3.27v3.47h3.27C1128.79,93.74,1129.72,93.08,1129.72,91.98z"/>
	<path d="M1133.39,96.06c0-2.7,2.27-4.88,5.45-4.88c3.16,0,5.28,2.08,5.28,5.12v0.58h-7.83c0.2,1.14,1.24,2.08,3.03,2.08
		c0.89,0,2.11-0.33,2.79-0.91l1.24,1.62c-1.05,0.85-2.7,1.29-4.34,1.29C1135.81,100.96,1133.39,99.05,1133.39,96.06z M1138.84,93.18
		c-1.72,0-2.46,1.06-2.57,1.99h5.19C1141.37,94.28,1140.67,93.18,1138.84,93.18z"/>
	<path d="M1145.75,100.73V87.85h10.29v2.41h-7.2v2.7h7.04v2.41h-7.04v5.35H1145.75z"/>
	<path d="M1157.76,100.73V87.85h10.29v2.41h-7.2v2.7h7.04v2.41h-7.04v2.93h7.2v2.41H1157.76z"/>
	<path d="M1170.04,100.73V87.85h5.73c4.56,0,7.72,2.57,7.72,6.43c0,3.9-3.16,6.45-7.7,6.45H1170.04z M1180.33,94.28
		c0-2.26-1.57-4.01-4.54-4.01h-2.66v8.05h2.64C1178.65,98.31,1180.33,96.48,1180.33,94.28z"/>
	<path d="M1190.29,100.73V87.85h3.12v10.46h6.15v2.41H1190.29z"/>
	<path d="M1201.22,100.73V87.85h10.29v2.41h-7.2v2.7h7.04v2.41h-7.04v2.93h7.2v2.41H1201.22z"/>
	<path d="M1223.54,100.73l-0.92-2.18h-6.24l-0.92,2.18h-3.51l5.6-12.88h3.88l5.6,12.88H1223.54z M1219.51,90.59l-2.27,5.54h4.54
		L1219.51,90.59z"/>
	<path d="M1236.19,100.73l-2.86-4.57h-2.27v4.57h-3.1V87.85h6.8c3.03,0,4.91,1.76,4.91,4.15c0,2.26-1.64,3.49-3.21,3.82l3.29,4.9
		H1236.19z M1236.49,91.98c0-1.06-0.94-1.72-2.16-1.72h-3.27v3.47h3.27C1235.56,93.74,1236.49,93.08,1236.49,91.98z"/>
	<path d="M1251.58,100.73l-6.93-8.4v8.4h-3.1V87.85h3.18l6.74,8.09v-8.09h3.1v12.88H1251.58z"/>
	<path d="M1257.01,100.73V87.85h3.1v12.88H1257.01z"/>
	<path d="M1272.58,100.73l-6.93-8.4v8.4h-3.1V87.85h3.18l6.74,8.09v-8.09h3.1v12.88H1272.58z"/>
	<path d="M1277.31,94.3c0-4.07,3.49-6.66,7.76-6.66c3.01,0,4.91,1.35,6,2.88l-2.55,1.24c-0.68-0.91-1.92-1.68-3.45-1.68
		c-2.66,0-4.58,1.8-4.58,4.23c0,2.43,1.92,4.23,4.58,4.23c1.29,0,2.49-0.5,3.07-0.98V96h-3.84V93.6h6.93v4.94
		c-1.48,1.47-3.55,2.41-6.17,2.41C1280.8,100.96,1277.31,98.35,1277.31,94.3z"/>
	<path d="M1298.3,100.73V87.85h3.12v10.46h6.15v2.41H1298.3z"/>
	<path d="M1319.28,100.73l-0.92-2.18h-6.24l-0.92,2.18h-3.51l5.6-12.88h3.88l5.6,12.88H1319.28z M1315.25,90.59l-2.27,5.54h4.54
		L1315.25,90.59z"/>
	<path d="M1323.71,100.73V87.85h7.65c2.77,0,4.19,1.56,4.19,3.28c0,1.6-1.13,2.7-2.51,2.95c1.57,0.21,2.79,1.54,2.79,3.15
		c0,1.95-1.44,3.49-4.23,3.49H1323.71z M1332.38,91.62c0-0.79-0.65-1.35-1.7-1.35h-3.88v2.7h3.88
		C1331.73,92.97,1332.38,92.45,1332.38,91.62z M1332.67,96.85c0-0.81-0.65-1.47-1.85-1.47h-4.01v2.93h4.01
		C1331.97,98.31,1332.67,97.77,1332.67,96.85z"/>
	<path d="M1346.77,100.73l1.26-3.28h-2.07l-1.24,3.28h-2.05l1.24-3.28h-2.09l0.57-1.56h2.14l1.18-3.18h-2.12l0.55-1.54h2.18
		l1.22-3.3h2.05l-1.22,3.3h2.05l1.22-3.3h2.07l-1.26,3.3h2.11l-0.5,1.54h-2.2l-1.2,3.18h2.2l-0.54,1.56h-2.25l-1.22,3.28H1346.77z
		 M1349.8,92.7h-2.05l-1.18,3.18h2.03L1349.8,92.7z"/>
	<path d="M1354.93,98.89l1.64-1.83c0.98,0.93,2.57,1.47,3.99,1.47c1.77,0,2.75-0.68,2.75-1.64c0-1.02-0.89-1.49-2.92-1.49
		c-0.61,0-1.59,0.02-1.81,0.04v-2.47c0.26,0.02,1.26,0.02,1.81,0.02c1.61,0,2.7-0.42,2.7-1.37c0-1.02-1.2-1.53-2.7-1.53
		c-1.42,0-2.68,0.46-3.71,1.33l-1.55-1.72c1.18-1.18,3.01-2.05,5.56-2.05c3.4,0,5.5,1.35,5.5,3.49c0,1.62-1.57,2.68-3.18,2.93
		c1.48,0.13,3.4,1.16,3.4,3.09c0,2.22-2.25,3.78-5.73,3.78C1358,100.96,1356,100.05,1354.93,98.89z"/>
	<path class="st24" d="M1121.57,128.64v-15.51h5.3c4.84,0,7.95,3.37,7.95,7.77c0,4.42-3.12,7.74-7.95,7.74H1121.57z M1132.83,120.89
		c0-3.35-2.12-6.05-5.95-6.05h-3.37v12.07h3.37C1130.64,126.92,1132.83,124.22,1132.83,120.89z"/>
	<path class="st24" d="M1137.13,123.01c0-3.25,2.33-5.88,5.53-5.88c3.4,0,5.4,2.65,5.4,6.02v0.44h-9.07
		c0.14,2.12,1.6,3.88,4.02,3.88c1.3,0,2.58-0.51,3.49-1.44l0.84,1.14c-1.14,1.12-2.65,1.74-4.46,1.74
		C1139.53,128.92,1137.13,126.52,1137.13,123.01z M1142.64,118.57c-2.4,0-3.58,2.02-3.67,3.72h7.37
		C1146.32,120.64,1145.2,118.57,1142.64,118.57z"/>
	<path class="st24" d="M1150.23,123.01c0-3.33,2.26-5.88,5.6-5.88c2.05,0,3.26,0.84,4.12,1.95l-1.16,1.05
		c-0.74-1.02-1.7-1.44-2.86-1.44c-2.37,0-3.88,1.84-3.88,4.33s1.51,4.35,3.88,4.35c1.16,0,2.12-0.46,2.86-1.46l1.16,1.07
		c-0.86,1.12-2.07,1.95-4.12,1.95C1152.48,128.92,1150.23,126.33,1150.23,123.01z"/>
	<path class="st24" d="M1161.76,123.01c0-3.25,2.33-5.88,5.53-5.88c3.4,0,5.4,2.65,5.4,6.02v0.44h-9.07
		c0.14,2.12,1.6,3.88,4.02,3.88c1.3,0,2.58-0.51,3.49-1.44l0.84,1.14c-1.14,1.12-2.65,1.74-4.46,1.74
		C1164.16,128.92,1161.76,126.52,1161.76,123.01z M1167.27,118.57c-2.4,0-3.58,2.02-3.67,3.72h7.37
		C1170.95,120.64,1169.83,118.57,1167.27,118.57z"/>
	<path class="st24" d="M1189.06,128.64v-7.63c0-1.42-0.6-2.33-2.07-2.33c-1.16,0-2.4,0.81-2.98,1.72v8.23h-1.74v-7.63
		c0-1.42-0.58-2.33-2.07-2.33c-1.14,0-2.35,0.84-2.95,1.74v8.21h-1.74V117.4h1.74v1.63c0.49-0.72,1.98-1.91,3.65-1.91
		c1.7,0,2.67,0.93,3,2.09c0.63-1.02,2.14-2.09,3.77-2.09c2.05,0,3.14,1.14,3.14,3.39v8.12H1189.06z"/>
	<path class="st24" d="M1194.3,128.64v-15.51h1.74v5.98c0.91-1.23,2.28-1.98,3.79-1.98c2.95,0,5,2.3,5,5.91c0,3.65-2.07,5.88-5,5.88
		c-1.58,0-2.95-0.81-3.79-1.95v1.67H1194.3z M1199.41,127.36c2.26,0,3.6-1.84,3.6-4.33s-1.35-4.35-3.6-4.35
		c-1.4,0-2.77,0.84-3.37,1.81v5.09C1196.65,126.57,1198.02,127.36,1199.41,127.36z"/>
	<path class="st24" d="M1207.02,123.01c0-3.25,2.33-5.88,5.53-5.88c3.4,0,5.4,2.65,5.4,6.02v0.44h-9.07
		c0.14,2.12,1.6,3.88,4.02,3.88c1.3,0,2.58-0.51,3.49-1.44l0.84,1.14c-1.14,1.12-2.65,1.74-4.46,1.74
		C1209.41,128.92,1207.02,126.52,1207.02,123.01z M1212.53,118.57c-2.4,0-3.58,2.02-3.67,3.72h7.37
		C1216.2,120.64,1215.09,118.57,1212.53,118.57z"/>
	<path class="st24" d="M1220.76,128.64V117.4h1.74v1.79c0.91-1.16,2.21-2.05,3.74-2.05v1.79c-0.21-0.02-0.42-0.05-0.67-0.05
		c-1.09,0-2.56,0.88-3.07,1.79v7.95H1220.76z"/>
	<path class="st24" d="M1240.83,128.64v-3.93h-7.37v-1.6l6.65-9.98h2.65v9.88h2.19v1.7h-2.19v3.93H1240.83z M1240.83,114.92
		l-5.44,8.09h5.44V114.92z"/>
</g>
</svg>
