<?xml version="1.0" encoding="utf-8"?>
<!-- Generator: Adobe Illustrator 23.0.3, SVG Export Plug-In . SVG Version: 6.00 Build 0)  -->
<svg version="1.1" id="Layer_1" xmlns="http://www.w3.org/2000/svg" xmlns:xlink="http://www.w3.org/1999/xlink" x="0px" y="0px"
	 viewBox="0 0 125 125" style="enable-background:new 0 0 125 125;" xml:space="preserve">
<style type="text/css">
	.st0{fill:#EFECE4;}
	.st1{fill:#FFFFFF;}
	.st2{fill:#78B4AB;}
	.st3{fill:#DCDDDE;}
	.st4{fill:#F5F3EE;}
	.st5{fill:#36383A;}
	.st6{opacity:0.5;fill:none;stroke:#737678;stroke-miterlimit:10;}
	.st7{opacity:0.7;}
	.st8{fill:none;stroke:#E9E6DA;stroke-miterlimit:10;}
	.st9{fill:#107669;}
	.st10{fill:#E9E6DA;}
	.st11{fill:#CF3339;}
	.st12{fill:#86A55C;}
	.st13{fill:#68813C;}
	.st14{fill:#A12B2F;}
	.st15{fill:#53575A;}
	.st16{fill:#F6F4EF;}
	.st17{fill:none;stroke:#414042;stroke-width:0.3;stroke-miterlimit:10;}
	.st18{fill:#D5E0C6;}
	.st19{fill:#C8D6B4;}
	.st20{fill:#BBCCA2;}
	.st21{fill:#AEC290;}
	.st22{fill:#A1B97F;}
	.st23{fill:#93AF6D;}
	.st24{fill:#414042;}
	.st25{fill:#EFECE4;stroke:#414042;stroke-width:3;stroke-miterlimit:10;}
	.st26{fill:#414042;stroke:#414042;stroke-width:3;stroke-miterlimit:10;}
	.st27{fill:none;stroke:#414042;stroke-width:3;stroke-miterlimit:10;}
	.st28{fill:none;stroke:#414042;stroke-width:3;stroke-miterlimit:10;stroke-dasharray:3.0344,2.0229;}
	.st29{fill:none;stroke:#414042;stroke-width:3;stroke-miterlimit:10;stroke-dasharray:3.029,2.0193;}
	.st30{fill:#53575A;stroke:#53575A;stroke-miterlimit:10;}
	.st31{fill:#6F6F71;}
	.st32{fill:none;stroke:#414042;stroke-width:3;stroke-linecap:round;stroke-miterlimit:10;}
</style>
<circle class="st0" cx="62.5" cy="62.5" r="38"/>
<g>
	<g>
		<path class="st15" d="M106.5,48.47c0-1.34-0.39-2.69-1.26-3.81l-6.97-8.92c-1.17-1.48-2.94-2.24-4.72-2.24
			c-1.06,0-2.13,0.27-3.08,0.86l-6.8,4.23c-0.71,0.46-1.94,0.77-3.12,0.76c-0.92,0-1.81-0.18-2.4-0.47l-6.66-3.22
			c-1.07-0.52-2.27-0.73-3.47-0.73c-1.73,0.01-3.48,0.43-4.89,1.41l-0.78,0.55c-0.62-0.31-1.57-0.78-2.65-1.32
			c-1.29-0.63-2.81-0.89-4.34-0.89c-1.38,0-2.77,0.22-3.98,0.73l-4.53,1.93c-0.74,0.32-1.91,0.53-3.08,0.52
			c-1.17,0-2.34-0.2-3.08-0.52l-4.54-1.94c-0.83-0.35-1.71-0.5-2.59-0.5c-1.01,0-2.01,0.2-2.95,0.58c-0.93,0.38-1.8,0.94-2.49,1.71
			l-8.26,9.26c-0.92,1.02-1.37,2.31-1.37,3.58c0,1.51,0.64,3.03,1.89,4.09l7.71,6.58l-3.66,3.82c-1.01,1.05-1.51,2.42-1.51,3.76
			c0,1.44,0.57,2.88,1.7,3.95l0.74,0.71c0.7,0.66,1.54,1.08,2.42,1.31c-0.44,0.81-0.68,1.7-0.68,2.59c0,1.44,0.57,2.88,1.69,3.95
			l0,0l0.74,0.71c1.06,1,2.43,1.5,3.78,1.5c0.73,0,1.46-0.14,2.14-0.43c0.24,0.97,0.74,1.9,1.52,2.64l0.74,0.71
			c1.06,1,2.43,1.5,3.78,1.5c1.06,0,2.12-0.31,3.04-0.92c0.27,0.86,0.73,1.68,1.43,2.34l0.74,0.71c1.06,1,2.43,1.5,3.78,1.5
			c1.44,0,2.9-0.57,3.97-1.69l3.23-3.38l4.39,4.06c1.05,0.97,2.4,1.46,3.73,1.46c1.46,0,2.94-0.58,4.02-1.74l0.7-0.75
			c0.61-0.65,1-1.42,1.23-2.22l1.7,1.57c1.05,0.97,2.4,1.45,3.73,1.45c1.46,0,2.94-0.58,4.02-1.74l0.7-0.75
			c0.81-0.86,1.26-1.93,1.4-3.01c0.45,0.11,0.9,0.19,1.36,0.19c1.46,0,2.94-0.58,4.02-1.74l0.7-0.75c0.98-1.05,1.46-2.39,1.46-3.71
			c0-0.41-0.06-0.82-0.15-1.22c1.21-0.16,2.39-0.7,3.29-1.67l0.7-0.75c0.98-1.05,1.46-2.39,1.46-3.71c0-1.46-0.59-2.93-1.75-4
			l-1.31-1.21l11.83-13.08C106.01,51.48,106.5,49.96,106.5,48.47z M26.7,70.06c-0.51-0.49-0.77-1.13-0.77-1.8
			c0-0.62,0.23-1.23,0.68-1.71l7.49-7.82c0.49-0.51,1.14-0.76,1.81-0.76c0.62,0,1.24,0.23,1.72,0.68l0.74,0.71
			c0,0,0.77,1.13,0.77,1.8c0,0.5-0.15,0.98-0.44,1.4c-0.03,0.03-8.08,8.42-8.08,8.42c-0.43,0.3-0.93,0.46-1.45,0.46
			c-0.63,0-1.24-0.23-1.72-0.68L26.7,70.06z M33.33,80.01c-0.63,0-1.24-0.23-1.72-0.68l-0.74-0.71l0,0
			c-0.51-0.48-0.77-1.13-0.77-1.8c0-0.62,0.23-1.23,0.68-1.71c0,0,9.98-10.39,10.07-10.49c0.48-0.46,1.09-0.7,1.73-0.7
			c0.63,0,1.24,0.23,1.72,0.68l0.74,0.71l0,0c0.51,0.48,0.77,1.13,0.77,1.8c0,0.62-0.23,1.23-0.68,1.71l-9.99,10.43
			C34.65,79.75,34,80.01,33.33,80.01z M41.52,84.43c-0.63,0-1.24-0.23-1.72-0.68l-0.75-0.71c-0.51-0.49-0.77-1.13-0.77-1.8
			c0-0.56,0.19-1.1,0.55-1.54l6.95-7.26c0.47-0.42,1.06-0.65,1.67-0.65c0.63,0,1.24,0.22,1.72,0.68l0.75,0.71l0,0
			c0.51,0.48,0.77,1.13,0.77,1.8c0,0.62-0.23,1.23-0.68,1.71l-6.68,6.97C42.84,84.17,42.19,84.43,41.52,84.43z M52.31,87.3
			c-0.49,0.51-1.14,0.76-1.81,0.76c-0.63,0-1.24-0.23-1.72-0.68l-0.74-0.71c-0.51-0.48-0.77-1.13-0.77-1.8
			c0-0.62,0.23-1.23,0.68-1.71l4.22-4.4c0.49-0.51,1.14-0.76,1.81-0.76c0.62,0,1.24,0.22,1.72,0.68l0.75,0.71l0,0
			c0.51,0.48,0.76,1.13,0.77,1.8c0,0.62-0.23,1.23-0.68,1.71L52.31,87.3z M92.52,72.64l-0.7,0.75c-0.49,0.52-1.15,0.79-1.83,0.79
			c-0.61,0-1.22-0.22-1.69-0.66L76.52,62.62l-2.04,2.18l12.61,11.68c0.53,0.49,0.79,1.15,0.79,1.82c0,0.61-0.22,1.21-0.66,1.69
			l-0.7,0.75c-0.49,0.52-1.15,0.79-1.83,0.79c-0.61,0-1.22-0.22-1.69-0.66L71.22,69.98l-2.03,2.18l10.46,9.67
			c0.5,0.48,0.76,1.13,0.76,1.79c0,0.61-0.22,1.21-0.66,1.69l-0.7,0.75c-0.49,0.52-1.15,0.79-1.83,0.79c-0.62,0-1.22-0.22-1.69-0.66
			l-10.44-9.64h0l0,0l-2.03,2.18l0,0l0,0l0.04,0.04l5.23,4.82c0.46,0.48,0.7,1.09,0.71,1.72c0,0.61-0.22,1.21-0.66,1.68l-0.7,0.75
			c-0.49,0.52-1.15,0.78-1.82,0.79c-0.62,0-1.22-0.22-1.69-0.66l-4.55-4.21c0.4-0.78,0.62-1.62,0.62-2.47
			c0-1.43-0.57-2.88-1.69-3.95l-0.75-0.71c-1.06-1-2.43-1.5-3.78-1.5c-0.1,0-0.21,0.02-0.31,0.03c0-0.03,0.01-0.05,0.01-0.08
			c0-1.44-1.69-3.95-1.69-3.95l-0.74-0.71c-0.79-0.75-1.76-1.22-2.76-1.41c0.21-0.59,0.32-1.2,0.32-1.81c0-1.43-0.57-2.88-1.69-3.95
			l-0.74-0.71c-1.06-1-2.43-1.51-3.78-1.5c-0.16,0-0.31,0.03-0.47,0.05c-0.04-1.38-0.6-2.76-1.68-3.78v0l-0.74-0.71
			C38.63,55.5,37.26,55,35.91,55c-1.44,0-2.9,0.56-3.97,1.69l-1.77,1.85l-7.83-6.68c-0.56-0.48-0.84-1.15-0.85-1.83
			c0-0.57,0.2-1.13,0.61-1.6l8.26-9.26c0.33-0.37,0.81-0.7,1.38-0.93s1.21-0.36,1.82-0.36c0.53,0,1.02,0.09,1.41,0.26l4.54,1.94
			c1.28,0.54,2.76,0.76,4.26,0.76c1.49-0.01,2.98-0.23,4.26-0.76l4.53-1.94c0.7-0.31,1.75-0.49,2.8-0.49c1.16-0.01,2.32,0.23,3,0.58
			c0.43,0.21,0.83,0.42,1.21,0.6l-4.62,3.25c-1.49,1.04-2.29,2.71-2.28,4.38c0,1.11,0.35,2.24,1.07,3.2l0,0l0.61,0.82
			c1.16,1.54,2.97,2.33,4.78,2.34c1.02,0,2.06-0.26,2.99-0.81l2.77-1.66c0.56-0.35,1.42-0.56,2.3-0.56c1.03-0.01,2.08,0.3,2.7,0.76
			l7.65,5.49c1.7,1.22,4.48,3.48,6.01,4.91l8.86,8.19c0.53,0.49,0.79,1.14,0.79,1.82C93.18,71.56,92.97,72.16,92.52,72.64z
			 M102.73,50.66l-11.8,13.05l-5.36-4.95c-1.68-1.55-4.44-3.81-6.3-5.14l-7.65-5.49c-1.3-0.92-2.88-1.32-4.46-1.32
			c-1.34,0-2.68,0.29-3.84,0.99l-2.76,1.66c-0.42,0.26-0.92,0.38-1.44,0.39c-0.93,0-1.86-0.43-2.38-1.13l-0.61-0.82l0,0
			c-0.32-0.44-0.47-0.93-0.48-1.42c0-0.75,0.35-1.48,1.02-1.95l8.18-5.75c0.71-0.51,1.97-0.87,3.16-0.86c0.83,0,1.62,0.16,2.17,0.43
			l6.66,3.22c1.14,0.55,2.42,0.77,3.71,0.77c1.66-0.01,3.33-0.37,4.71-1.22l6.8-4.23c0.43-0.27,0.96-0.41,1.5-0.41
			c0.92,0,1.84,0.41,2.36,1.09l6.97,8.92c0.4,0.51,0.64,1.23,0.64,1.98C103.51,49.31,103.22,50.13,102.73,50.66z"/>
		<path class="st15" d="M65.82,92c-1.51,0-2.95-0.56-4.06-1.59l-4.03-3.73l-2.89,3.02c-1.12,1.17-2.7,1.84-4.33,1.84
			c-0.01,0-0.01,0-0.01,0c-1.54,0-3.01-0.58-4.12-1.64l-0.74-0.71c-0.58-0.55-1.03-1.21-1.35-1.97c-0.86,0.45-1.8,0.68-2.77,0.68
			c-0.01,0-0.01,0-0.01,0c-1.54,0-3.01-0.58-4.12-1.64l-0.75-0.71c-0.68-0.64-1.19-1.45-1.5-2.35c-0.58,0.18-1.19,0.28-1.8,0.28
			c0,0-0.01,0-0.01,0c-1.54,0-3.01-0.58-4.12-1.64l-3.17-3.01l1.17,0.58c-0.39-0.8-0.59-1.69-0.59-2.59c0-0.76,0.16-1.54,0.48-2.28
			c-0.78-0.28-1.47-0.7-2.06-1.25l-0.74-0.71c-1.18-1.12-1.85-2.69-1.85-4.31c0-1.54,0.59-3,1.65-4.11l3.29-3.43l-7.31-6.23
			C18.75,53.37,18,51.74,18,50.02c0-1.44,0.53-2.83,1.5-3.91l8.26-9.25c0.71-0.79,1.6-1.41,2.67-1.84c1.94-0.79,4.17-0.82,5.92-0.07
			l4.54,1.94c0.69,0.3,1.84,0.51,2.88,0.48c0.01,0,0.02,0,0.04,0c1.05,0,2.17-0.19,2.84-0.48l4.54-1.94c1.2-0.51,2.6-0.76,4.18-0.77
			c1.76,0.01,3.29,0.32,4.56,0.94l2.38,1.19l0.53-0.37c1.4-0.97,3.19-1.49,5.17-1.5c1.38,0,2.62,0.26,3.69,0.78l6.66,3.23
			c0.53,0.26,1.34,0.45,2.18,0.42c1.08-0.03,2.21-0.27,2.86-0.68l6.8-4.23c0.99-0.61,2.14-0.94,3.35-0.94c2.04,0,3.9,0.89,5.11,2.43
			l6.97,8.92c0.89,1.15,1.37,2.57,1.37,4.11v0c0,1.71-0.6,3.32-1.68,4.52l-11.5,12.72l0.95,0.88c1.21,1.12,1.91,2.71,1.91,4.37
			c0,1.51-0.57,2.95-1.6,4.05l-0.7,0.75c-0.8,0.86-1.88,1.47-3.07,1.73c0.04,0.29,0.06,0.56,0.06,0.82c0,1.51-0.56,2.95-1.6,4.05
			l-0.7,0.75c-1.13,1.21-2.73,1.9-4.38,1.9c-0.3,0-0.62-0.03-0.96-0.09c-0.23,1.04-0.72,1.99-1.44,2.75l-0.7,0.75
			c-1.13,1.21-2.73,1.9-4.39,1.9c-0.01,0-0.01,0-0.01,0c-1.51,0-2.96-0.56-4.06-1.59L72,87.68c-0.27,0.63-0.63,1.19-1.08,1.68
			l-0.7,0.75c-1.12,1.21-2.72,1.9-4.37,1.9C65.83,92,65.83,92,65.82,92z M57.69,85.28l4.75,4.4c0.92,0.85,2.12,1.32,3.38,1.32
			c0.01,0,0.01,0,0.02,0c1.38,0,2.71-0.57,3.64-1.58l0.7-0.75c0.51-0.55,0.89-1.23,1.11-2.02l0.22-0.78l2.3,2.12
			c0.92,0.85,2.13,1.32,3.39,1.32c0,0,0,0,0.01,0c1.38,0,2.72-0.58,3.66-1.58l0.7-0.75c0.7-0.74,1.13-1.69,1.27-2.74l0.07-0.56
			l0.55,0.14c0.47,0.12,0.87,0.18,1.24,0.18c1.38,0,2.71-0.58,3.65-1.58l0.7-0.75c0.86-0.92,1.33-2.12,1.33-3.37
			c0-0.34-0.04-0.71-0.14-1.11l-0.12-0.54l0.54-0.07c1.18-0.16,2.21-0.68,2.99-1.51l0.7-0.75c0.86-0.92,1.33-2.11,1.33-3.37
			c0-1.38-0.58-2.7-1.59-3.63l-1.67-1.55l12.16-13.45c0.92-1.02,1.42-2.38,1.42-3.85c0-1.32-0.4-2.53-1.16-3.5l-6.97-8.92
			c-1.02-1.3-2.6-2.04-4.33-2.05c-1.02,0-1.99,0.27-2.82,0.79l-6.8,4.23c-0.8,0.51-2.11,0.84-3.35,0.84c-0.03,0-0.05,0-0.08,0
			c-0.96,0-1.92-0.19-2.58-0.52l-6.65-3.22c-0.93-0.45-2.03-0.68-3.26-0.68c-1.24,0.01-3.04,0.24-4.6,1.32l-1.02,0.71l-2.91-1.45
			c-1.12-0.55-2.51-0.83-4.12-0.84c-1.44,0-2.71,0.24-3.78,0.69l-4.53,1.93c-0.8,0.35-2.04,0.56-3.24,0.56c-0.03,0-0.05,0-0.08,0
			c-1.19,0-2.42-0.22-3.23-0.56l-4.54-1.94c-1.51-0.64-3.46-0.61-5.15,0.08c-0.92,0.38-1.7,0.91-2.3,1.58l-8.26,9.25
			c-0.8,0.9-1.24,2.05-1.24,3.25c0,1.43,0.62,2.78,1.72,3.71l8.11,6.92l-4.02,4.2c-0.88,0.92-1.37,2.14-1.37,3.42
			c0,1.35,0.56,2.66,1.54,3.59l0.74,0.71c0.6,0.57,1.34,0.97,2.2,1.19l0.62,0.16l-0.31,0.56c-0.41,0.75-0.62,1.56-0.62,2.35
			c0,1.35,0.56,2.66,1.54,3.59l0.87,0.83c0.91,0.81,2.08,1.25,3.31,1.25c0,0,0,0,0.01,0c0.67,0,1.32-0.13,1.94-0.39l0.54-0.23
			l0.14,0.57c0.23,0.93,0.71,1.76,1.38,2.4l0.75,0.71c0.93,0.88,2.15,1.37,3.44,1.37c0,0,0,0,0.01,0c0.98,0,1.93-0.29,2.76-0.83
			l0.56-0.37l0.2,0.64c0.26,0.85,0.7,1.57,1.29,2.13l0.74,0.71c0.93,0.88,2.15,1.37,3.43,1.37c0,0,0,0,0.01,0
			c1.36,0,2.67-0.56,3.61-1.53L57.69,85.28z M65.84,89.03c-0.76,0-1.48-0.28-2.03-0.79l-4.83-4.47l0.17-0.34
			c0.37-0.72,0.56-1.49,0.56-2.24c0-1.35-0.56-2.66-1.54-3.59l-0.75-0.71c-0.93-0.88-2.14-1.36-3.43-1.36
			c-0.04,0-0.08,0.01-0.12,0.01c-0.06,0.01-0.11,0.01-0.17,0.02l-0.53,0.03v-0.53l0.5-0.04l-0.49-0.06c0-1-1.11-2.9-1.58-3.6
			l-0.7-0.67c-0.69-0.66-1.56-1.1-2.51-1.28l-0.57-0.11l0.19-0.55c0.2-0.55,0.29-1.11,0.29-1.64c0-1.35-0.56-2.66-1.54-3.59
			l-0.75-0.71c-0.93-0.88-2.15-1.37-3.43-1.37c-0.03,0.01-0.16,0.01-0.24,0.02l-0.71,0.07l-0.02-0.53
			c-0.04-1.32-0.58-2.54-1.52-3.43l-0.74-0.71c-0.93-0.88-2.15-1.37-3.43-1.37c0,0,0,0-0.01,0c-1.36,0-2.67,0.56-3.61,1.53
			l-2.1,2.19l-8.19-6.99c-0.66-0.56-1.02-1.35-1.02-2.21c0-0.73,0.26-1.39,0.74-1.93L30,38.83c0.38-0.43,0.94-0.81,1.57-1.06
			c0.63-0.25,1.33-0.39,2-0.39c0,0,0,0,0.01,0c0.59,0,1.14,0.11,1.61,0.31l4.53,1.94c1.13,0.48,2.5,0.72,4.06,0.72
			c1.56,0,2.93-0.25,4.06-0.73l4.53-1.93c0.77-0.33,1.92-0.5,3-0.53c1.21,0.01,2.44,0.24,3.22,0.63l1.95,0.98l-5.31,3.73
			c-1.3,0.91-2.07,2.4-2.07,3.97c0,1.04,0.34,2.06,0.97,2.9l0.7,0.94c1.01,1.26,2.6,2.02,4.29,2.02c0.97,0,1.92-0.26,2.73-0.74
			l2.77-1.66c0.65-0.4,1.56-0.62,2.56-0.63c1.14,0.01,2.27,0.32,3,0.86l7.65,5.48c1.73,1.24,4.51,3.5,6.06,4.95l8.86,8.19
			c0.61,0.57,0.95,1.34,0.95,2.19c0,0.76-0.28,1.48-0.8,2.03h0l-0.7,0.75c-1.08,1.16-3.07,1.23-4.23,0.15L76.54,63.33l-1.35,1.45
			l12.24,11.34c0.61,0.56,0.95,1.34,0.95,2.18c0,0.76-0.29,1.48-0.8,2.03l-0.7,0.75c-0.57,0.61-1.35,0.94-2.19,0.95
			c-0.76,0-1.49-0.28-2.03-0.79L71.25,70.68l-1.35,1.45l10.09,9.33c0.6,0.57,0.92,1.33,0.92,2.15c0,0.76-0.28,1.48-0.79,2.03
			l-0.7,0.75c-0.57,0.61-1.35,0.95-2.19,0.95c-0.76,0-1.49-0.28-2.04-0.79l-10.07-9.3l-1.35,1.45l4.9,4.52
			c0.56,0.58,0.86,1.31,0.87,2.08c0,0.76-0.29,1.48-0.79,2.02l-0.7,0.75C67.46,88.69,66.68,89.02,65.84,89.03z M60.2,83.54
			l4.28,3.96c0.37,0.34,0.84,0.52,1.36,0.53c0.56,0,1.08-0.22,1.46-0.63l0.7-0.75c0.34-0.37,0.52-0.83,0.53-1.34
			c0-0.51-0.2-1-0.56-1.37l-5.58-5.15l0.3-0.41l2.38-2.56l0.37,0.37l10.42,9.62c0.37,0.34,0.84,0.52,1.36,0.53
			c0.57,0,1.09-0.22,1.46-0.63l0.7-0.75c0.34-0.37,0.53-0.83,0.53-1.35c0-0.54-0.22-1.05-0.61-1.42l-10.82-10l2.72-2.91l12.15,11.23
			c0.36,0.34,0.84,0.52,1.36,0.52c0.56,0,1.08-0.22,1.46-0.63l0.7-0.75c0.34-0.37,0.53-0.84,0.53-1.35c0-0.56-0.23-1.08-0.63-1.45
			L73.77,64.83l2.72-2.91l12.15,11.23c0.78,0.72,2.09,0.67,2.82-0.1l0.7-0.75c0.35-0.37,0.53-0.84,0.53-1.35
			c0-0.56-0.23-1.08-0.63-1.45l-8.86-8.19c-1.53-1.42-4.26-3.65-5.96-4.87l-7.65-5.49c-0.56-0.41-1.51-0.65-2.41-0.67
			c-0.74-0.02-1.54,0.18-2.04,0.49l-2.77,1.66c-0.97,0.58-2.09,0.89-3.25,0.89c-2.05-0.01-3.98-0.96-5.18-2.54l-2.34-3.14l0.83,0.55
			c-0.17-0.56-0.27-1.15-0.26-1.73c0-1.9,0.93-3.69,2.5-4.79l3.94-2.77l-0.43-0.21c-0.66-0.34-1.74-0.55-2.8-0.54
			c-1,0-1.96,0.17-2.61,0.45l-4.54,1.94c-1.26,0.53-2.75,0.8-4.45,0.8c-1.7-0.01-3.2-0.28-4.45-0.8l-4.54-1.94
			c-0.34-0.15-0.77-0.22-1.22-0.22c0,0,0,0-0.01,0c-0.54,0-1.11,0.11-1.62,0.32c-0.49,0.2-0.91,0.48-1.2,0.8l-8.26,9.25
			c-0.32,0.35-0.48,0.79-0.49,1.27c0,0.57,0.24,1.08,0.67,1.45l7.47,6.37l1.44-1.5c1.12-1.17,2.7-1.84,4.33-1.84c0,0,0,0,0.01,0
			c1.54,0,3.01,0.58,4.12,1.64l0.74,0.71c1,0.96,1.63,2.22,1.79,3.6c0,0,0.01,0,0.02,0c1.54,0,3.01,0.58,4.12,1.64l0.75,0.71
			c1.17,1.11,1.85,2.69,1.85,4.31c0,0.48-0.06,0.96-0.19,1.44c0.92,0.26,1.77,0.74,2.47,1.41l0.82,0.79
			c0.17,0.25,1.5,2.26,1.74,3.78c1.49,0.04,2.89,0.61,3.97,1.64l0.75,0.71c1.18,1.12,1.85,2.69,1.85,4.31
			C60.71,81.97,60.54,82.77,60.2,83.54z M50.51,88.56c-0.77,0-1.51-0.29-2.06-0.82l-0.75-0.71c-0.59-0.56-0.92-1.33-0.92-2.16
			c0-0.78,0.29-1.51,0.82-2.06l4.22-4.4c1.1-1.14,3.08-1.19,4.23-0.1l0.75,0.71c0.59,0.56,0.92,1.33,0.92,2.16
			c0,0.78-0.29,1.51-0.82,2.06l-4.22,4.4C52.11,88.24,51.34,88.56,50.51,88.56z M53.99,78.5c-0.55,0-1.07,0.22-1.45,0.61l-4.22,4.4
			c-0.35,0.37-0.54,0.85-0.54,1.37c0,0.55,0.22,1.06,0.61,1.43l0.74,0.71c0.37,0.35,0.85,0.54,1.38,0.54c0.56,0,1.07-0.22,1.44-0.61
			l4.22-4.4c0.35-0.37,0.54-0.84,0.54-1.37c0-0.55-0.22-1.06-0.61-1.43l-0.75-0.71C54.99,78.7,54.5,78.5,53.99,78.5z M41.52,84.93
			L41.52,84.93c-0.77,0-1.51-0.29-2.06-0.82l-0.75-0.71c-0.6-0.57-0.92-1.33-0.92-2.16c0-0.68,0.23-1.32,0.66-1.86l6.98-7.29
			c1.19-1.08,3.01-1.01,4.09,0.02l0.75,0.71c0.59,0.56,0.92,1.33,0.92,2.16c0,0.78-0.3,1.5-0.82,2.06l-6.68,6.97
			C43.12,84.6,42.35,84.93,41.52,84.93L41.52,84.93z M47.45,72.3c-0.49,0-0.96,0.18-1.33,0.52l-6.93,7.23
			c-0.26,0.33-0.41,0.75-0.41,1.2c0,0.55,0.22,1.06,0.61,1.43l0.75,0.71c0.38,0.35,0.85,0.54,1.37,0.54c0.56,0,1.07-0.22,1.44-0.61
			l6.68-6.97c0.35-0.37,0.54-0.85,0.55-1.37c0-0.55-0.22-1.06-0.61-1.43l-0.75-0.71C48.46,72.48,47.98,72.3,47.45,72.3z
			 M33.33,80.51L33.33,80.51c-0.77,0-1.51-0.29-2.06-0.82l-0.75-0.71c-0.59-0.56-0.92-1.33-0.92-2.16c0-0.77,0.29-1.5,0.82-2.05
			c3.4-3.54,9.88-10.29,10.06-10.48c1.17-1.13,3.05-1.1,4.16-0.05l0.75,0.71c0.59,0.56,0.92,1.33,0.92,2.16
			c0,0.78-0.29,1.51-0.82,2.06L35.5,79.59C34.93,80.18,34.17,80.51,33.33,80.51z M31.19,78.23l0.77,0.73
			c0.37,0.35,0.86,0.54,1.37,0.54c0.56,0,1.07-0.22,1.45-0.61l9.99-10.43c0.35-0.37,0.54-0.85,0.54-1.37c0-0.55-0.22-1.06-0.61-1.43
			l-0.75-0.71c-0.74-0.7-2-0.71-2.75,0.02c-0.05,0.06-7.05,7.35-10.05,10.48c-0.35,0.37-0.54,0.84-0.54,1.36
			C30.6,77.36,30.81,77.86,31.19,78.23z M29.16,71.95c-0.78,0-1.51-0.29-2.06-0.82l-0.74-0.71c-0.6-0.56-0.92-1.33-0.93-2.16
			c0-0.78,0.29-1.51,0.82-2.06l7.49-7.82c1.09-1.14,3.07-1.19,4.23-0.1l0.81,0.79c0.14,0.21,0.85,1.3,0.85,2.08
			c0,0.61-0.19,1.19-0.53,1.69c-0.15,0.17-8.13,8.48-8.13,8.48C30.39,71.76,29.79,71.95,29.16,71.95z M35.91,58.48
			c-0.55,0-1.07,0.22-1.45,0.61l-7.49,7.82c-0.36,0.37-0.54,0.84-0.55,1.37c0,0.55,0.22,1.06,0.61,1.43l0.74,0.71
			c0.37,0.35,0.86,0.54,1.38,0.54c0.42,0,0.82-0.13,1.16-0.37c2.94-3.08,7.99-8.34,8.02-8.37c0.17-0.26,0.29-0.65,0.3-1.05
			c0-0.34-0.37-1.05-0.65-1.47l-0.7-0.67C36.9,58.67,36.43,58.48,35.91,58.48z M90.96,64.42l-5.73-5.29
			c-1.67-1.54-4.42-3.79-6.25-5.1l-7.65-5.49c-1.12-0.8-2.57-1.22-4.17-1.23c-1.34,0-2.59,0.32-3.59,0.92l-2.76,1.66
			c-0.5,0.3-1.08,0.46-1.7,0.46c0,0-0.01,0-0.01,0c-1.1,0-2.16-0.51-2.77-1.34l-0.61-0.82c-0.38-0.5-0.57-1.1-0.58-1.72
			c0-0.95,0.45-1.81,1.23-2.36l8.18-5.75c0.81-0.59,2.15-1,3.45-0.95c0.88,0.03,1.75,0.17,2.38,0.48l6.65,3.22
			c0.99,0.48,2.16,0.72,3.49,0.72c1.71-0.01,3.25-0.4,4.45-1.14l6.8-4.23c0.51-0.32,1.12-0.49,1.76-0.49c0,0,0,0,0.01,0
			c1.08,0,2.14,0.49,2.75,1.29l6.97,8.92c0.47,0.6,0.74,1.43,0.74,2.29c0,0.96-0.34,1.9-0.92,2.53L90.96,64.42z M67.16,46.31
			c1.81,0.01,3.45,0.5,4.75,1.41l7.65,5.49c1.86,1.34,4.65,3.61,6.35,5.18L90.9,63l11.46-12.67c0.4-0.44,0.66-1.15,0.65-1.86
			c0-0.64-0.19-1.25-0.53-1.67l-6.97-8.92c-0.42-0.55-1.19-0.9-1.96-0.9c0,0,0,0-0.01,0c-0.46,0-0.88,0.12-1.23,0.33l-6.8,4.23
			c-1.36,0.83-3.08,1.28-4.97,1.29c-1.48,0-2.8-0.28-3.92-0.82l-6.66-3.23c-0.49-0.24-1.21-0.39-1.95-0.38
			c-1.1-0.02-2.23,0.31-2.87,0.77l-8.18,5.75c-0.51,0.36-0.8,0.92-0.81,1.54c0,0.41,0.13,0.79,0.38,1.12l0.61,0.82
			c0.42,0.57,1.19,0.93,1.96,0.93c0,0,0.01,0,0.01,0c0.44,0,0.85-0.11,1.19-0.31l2.76-1.66C64.22,46.68,65.64,46.32,67.16,46.31z"/>
	</g>
</g>
</svg>
