<?xml version="1.0" encoding="utf-8"?>
<!-- Generator: Adobe Illustrator 23.0.3, SVG Export Plug-In . SVG Version: 6.00 Build 0)  -->
<svg version="1.1" id="Layer_1" xmlns="http://www.w3.org/2000/svg" xmlns:xlink="http://www.w3.org/1999/xlink" x="0px" y="0px"
	 viewBox="0 0 125 125" style="enable-background:new 0 0 125 125;" xml:space="preserve">
<style type="text/css">
	.st0{fill:#EFECE4;}
	.st1{fill:#FFFFFF;}
	.st2{fill:#78B4AB;}
	.st3{fill:#DCDDDE;}
	.st4{fill:#F5F3EE;}
	.st5{fill:#36383A;}
	.st6{opacity:0.5;fill:none;stroke:#737678;stroke-miterlimit:10;}
	.st7{opacity:0.7;}
	.st8{fill:none;stroke:#E9E6DA;stroke-miterlimit:10;}
	.st9{fill:#107669;}
	.st10{fill:#E9E6DA;}
	.st11{fill:#CF3339;}
	.st12{fill:#86A55C;}
	.st13{fill:#68813C;}
	.st14{fill:#A12B2F;}
	.st15{fill:#53575A;}
	.st16{fill:#F6F4EF;}
	.st17{fill:none;stroke:#414042;stroke-width:0.3;stroke-miterlimit:10;}
	.st18{fill:#D5E0C6;}
	.st19{fill:#C8D6B4;}
	.st20{fill:#BBCCA2;}
	.st21{fill:#AEC290;}
	.st22{fill:#A1B97F;}
	.st23{fill:#93AF6D;}
	.st24{fill:#414042;}
	.st25{fill:#EFECE4;stroke:#414042;stroke-width:3;stroke-miterlimit:10;}
	.st26{fill:#414042;stroke:#414042;stroke-width:3;stroke-miterlimit:10;}
	.st27{fill:none;stroke:#414042;stroke-width:3;stroke-miterlimit:10;}
	.st28{fill:none;stroke:#414042;stroke-width:3;stroke-miterlimit:10;stroke-dasharray:3.0344,2.0229;}
	.st29{fill:none;stroke:#414042;stroke-width:3;stroke-miterlimit:10;stroke-dasharray:3.029,2.0193;}
	.st30{fill:#53575A;stroke:#53575A;stroke-miterlimit:10;}
	.st31{fill:#6F6F71;}
	.st32{fill:none;stroke:#414042;stroke-width:3;stroke-linecap:round;stroke-miterlimit:10;}
</style>
<circle class="st0" cx="62.5" cy="62.5" r="38"/>
<g>
	<g>
		<g>
			<g>
				<g>
					<g>
						<path class="st15" d="M119.92,82.09H60.6c-0.52,0-1.02-0.24-1.33-0.65c-0.32-0.41-0.43-0.95-0.3-1.46
							c0.11-0.41,0.16-0.84,0.16-1.27c0-2.79-2.27-5.07-5.07-5.07c-0.43,0-0.86,0.05-1.27,0.16c-0.51,0.13-1.04,0.02-1.46-0.3
							c-0.41-0.32-0.65-0.81-0.65-1.33v-5c0-0.93,0.76-1.69,1.69-1.69s1.69,0.76,1.69,1.69v3.1c4.66,0,8.44,3.79,8.44,8.44h54.27
							l-1.63-2.44c-0.52-0.78-0.31-1.82,0.47-2.34c0.78-0.52,1.82-0.31,2.34,0.47l3.38,5.07c0.35,0.52,0.38,1.18,0.08,1.73
							C121.12,81.74,120.54,82.09,119.92,82.09z M52.37,60.41c-0.93,0-1.69-0.76-1.69-1.69V16l-2.44,1.63
							c-0.78,0.52-1.82,0.31-2.34-0.47c-0.52-0.78-0.31-1.82,0.47-2.34l5.07-3.38c0.52-0.35,1.18-0.38,1.73-0.08
							c0.55,0.29,0.89,0.87,0.89,1.49v45.88C54.06,59.65,53.3,60.41,52.37,60.41z"/>
						<path class="st15" d="M119.92,82.59H60.6c-0.67,0-1.32-0.32-1.73-0.85c-0.42-0.54-0.56-1.23-0.39-1.89
							c0.1-0.37,0.14-0.75,0.14-1.14c0-2.52-2.05-4.57-4.57-4.57c-0.39,0-0.78,0.05-1.14,0.14c-0.65,0.17-1.36,0.02-1.89-0.39
							c-0.53-0.41-0.85-1.06-0.85-1.73v-5c0-1.21,0.98-2.19,2.19-2.19s2.19,0.98,2.19,2.19v2.61c4.54,0.25,8.18,3.9,8.43,8.43h52.85
							l-1.11-1.66c-0.32-0.49-0.44-1.07-0.33-1.64c0.12-0.57,0.45-1.07,0.93-1.39c0.49-0.32,1.07-0.44,1.64-0.33
							c0.57,0.12,1.07,0.45,1.39,0.93l3.38,5.07c0.45,0.67,0.49,1.53,0.11,2.25C121.47,82.14,120.73,82.59,119.92,82.59z
							 M54.06,73.14c3.07,0,5.57,2.5,5.57,5.57c0,0.47-0.06,0.94-0.17,1.39c-0.09,0.36-0.02,0.73,0.21,1.03
							c0.22,0.29,0.58,0.46,0.94,0.46h59.32c0.44,0,0.84-0.24,1.05-0.63c0.21-0.39,0.19-0.86-0.06-1.22l-3.38-5.07
							c-0.18-0.26-0.45-0.44-0.76-0.51c-0.31-0.06-0.63,0-0.89,0.18c-0.26,0.18-0.44,0.45-0.51,0.76c-0.06,0.31,0,0.63,0.18,0.89
							l2.14,3.22H62v-0.5c0-4.38-3.56-7.94-7.94-7.94h-0.5v-3.6c0-0.66-0.53-1.19-1.19-1.19c-0.66,0-1.19,0.53-1.19,1.19v5
							c0,0.37,0.17,0.72,0.46,0.94c0.29,0.22,0.67,0.3,1.03,0.21C53.11,73.2,53.58,73.14,54.06,73.14z M52.37,60.91
							c-1.21,0-2.19-0.98-2.19-2.19V16.93l-1.66,1.11c-0.49,0.32-1.07,0.44-1.64,0.33c-0.57-0.11-1.07-0.45-1.39-0.93
							c-0.67-1.01-0.4-2.37,0.61-3.04l5.07-3.38c0.67-0.45,1.54-0.49,2.25-0.11c0.71,0.38,1.16,1.12,1.16,1.93v45.88
							C54.56,59.93,53.57,60.91,52.37,60.91z M51.18,15.07v43.66c0,0.66,0.53,1.19,1.19,1.19c0.66,0,1.19-0.53,1.19-1.19V12.84
							c0-0.44-0.24-0.84-0.63-1.05c-0.39-0.21-0.86-0.19-1.22,0.06l-5.07,3.38c-0.55,0.36-0.69,1.1-0.33,1.65
							c0.18,0.26,0.44,0.44,0.76,0.51c0.31,0.06,0.63,0,0.89-0.18L51.18,15.07z"/>
					</g>
				</g>
				<g>
					<g>
						<path class="st15" d="M54.06,87.15c-4.66,0-8.44-3.79-8.44-8.44c0-3.86,2.6-7.22,6.33-8.18c0.69-0.18,1.4-0.27,2.11-0.27
							c4.66,0,8.44,3.79,8.44,8.44c0,0.71-0.09,1.42-0.27,2.11C61.27,84.55,57.91,87.15,54.06,87.15z M54.06,73.64
							c-0.43,0-0.86,0.05-1.27,0.16c-2.24,0.58-3.8,2.59-3.8,4.91c0,2.79,2.27,5.07,5.07,5.07c2.31,0,4.33-1.56,4.91-3.8
							c0.11-0.41,0.16-0.84,0.16-1.27C59.12,75.92,56.85,73.64,54.06,73.64z"/>
						<path class="st15" d="M54.06,87.65c-4.93,0-8.94-4.01-8.94-8.94c0-4.08,2.76-7.65,6.71-8.66c0.73-0.19,1.48-0.28,2.24-0.28
							c4.93,0,8.94,4.01,8.94,8.94c0,0.75-0.09,1.51-0.28,2.24C61.7,84.9,58.14,87.65,54.06,87.65z M54.06,70.77
							c-0.67,0-1.34,0.08-1.99,0.25c-3.51,0.9-5.96,4.07-5.96,7.69c0,4.38,3.56,7.94,7.94,7.94c3.63,0,6.79-2.45,7.69-5.96
							c0.17-0.65,0.25-1.31,0.25-1.99C62,74.33,58.44,70.77,54.06,70.77z M54.06,84.28c-3.07,0-5.57-2.5-5.57-5.57
							c0-2.54,1.72-4.76,4.17-5.39c0.45-0.12,0.92-0.17,1.39-0.17c3.07,0,5.57,2.5,5.57,5.57c0,0.47-0.06,0.94-0.17,1.39
							C58.81,82.56,56.6,84.28,54.06,84.28z M54.06,74.14c-0.39,0-0.78,0.05-1.14,0.14c-2.02,0.52-3.42,2.34-3.42,4.42
							c0,2.52,2.05,4.57,4.57,4.57c2.08,0,3.9-1.41,4.42-3.42c0.1-0.37,0.14-0.75,0.14-1.14C58.62,76.19,56.57,74.14,54.06,74.14z"
							/>
					</g>
				</g>
			</g>
			<g>
				<g>
					<path class="st15" d="M76.01,82.09c-0.93,0-1.69-0.76-1.69-1.69V55.07H52.37c-0.93,0-1.69-0.76-1.69-1.69s0.76-1.69,1.69-1.69
						h23.64c0.93,0,1.69,0.76,1.69,1.69V80.4C77.7,81.33,76.94,82.09,76.01,82.09z"/>
					<path class="st15" d="M76.01,82.59c-1.21,0-2.19-0.98-2.19-2.19V55.57H52.37c-1.21,0-2.19-0.98-2.19-2.19s0.98-2.19,2.19-2.19
						h23.64c1.21,0,2.19,0.98,2.19,2.19V80.4C78.2,81.61,77.22,82.59,76.01,82.59z M52.37,52.19c-0.66,0-1.19,0.53-1.19,1.19
						c0,0.66,0.53,1.19,1.19,1.19h22.46V80.4c0,0.66,0.53,1.19,1.19,1.19c0.66,0,1.19-0.53,1.19-1.19V53.38
						c0-0.66-0.53-1.19-1.19-1.19H52.37z"/>
				</g>
			</g>
			<g>
				<g>
					<path class="st15" d="M91.21,82.09c-0.93,0-1.69-0.76-1.69-1.69V39.87H52.37c-0.93,0-1.69-0.76-1.69-1.69s0.76-1.69,1.69-1.69
						h38.84c0.93,0,1.69,0.76,1.69,1.69V80.4C92.9,81.33,92.14,82.09,91.21,82.09z"/>
					<path class="st15" d="M91.21,82.59c-1.21,0-2.19-0.98-2.19-2.19V40.37H52.37c-1.21,0-2.19-0.98-2.19-2.19s0.98-2.19,2.19-2.19
						h38.84c1.21,0,2.19,0.98,2.19,2.19V80.4C93.4,81.61,92.42,82.59,91.21,82.59z M52.37,36.99c-0.66,0-1.19,0.53-1.19,1.19
						c0,0.66,0.53,1.19,1.19,1.19h37.66V80.4c0,0.66,0.53,1.19,1.19,1.19s1.19-0.53,1.19-1.19V38.18c0-0.66-0.53-1.19-1.19-1.19
						H52.37z"/>
				</g>
			</g>
			<g>
				<g>
					<path class="st15" d="M106.41,82.09c-0.93,0-1.69-0.76-1.69-1.69V61.82c0-0.93,0.76-1.69,1.69-1.69s1.69,0.76,1.69,1.69V80.4
						C108.1,81.33,107.34,82.09,106.41,82.09z M106.41,55.07c-0.93,0-1.69-0.76-1.69-1.69V24.67H52.37c-0.93,0-1.69-0.76-1.69-1.69
						c0-0.93,0.76-1.69,1.69-1.69h54.04c0.93,0,1.69,0.76,1.69,1.69v30.4C108.1,54.31,107.34,55.07,106.41,55.07z"/>
					<path class="st15" d="M106.41,82.59c-1.21,0-2.19-0.98-2.19-2.19V61.82c0-1.21,0.98-2.19,2.19-2.19s2.19,0.98,2.19,2.19V80.4
						C108.6,81.61,107.62,82.59,106.41,82.59z M106.41,60.63c-0.66,0-1.19,0.53-1.19,1.19V80.4c0,0.66,0.53,1.19,1.19,1.19
						c0.66,0,1.19-0.53,1.19-1.19V61.82C107.6,61.17,107.07,60.63,106.41,60.63z M106.41,55.57c-1.21,0-2.19-0.98-2.19-2.19V25.17
						H52.37c-1.21,0-2.19-0.98-2.19-2.19s0.98-2.19,2.19-2.19h54.04c1.21,0,2.19,0.98,2.19,2.19v30.4
						C108.6,54.58,107.62,55.57,106.41,55.57z M52.37,21.79c-0.66,0-1.19,0.53-1.19,1.19s0.53,1.19,1.19,1.19h52.86v29.21
						c0,0.66,0.53,1.19,1.19,1.19c0.66,0,1.19-0.53,1.19-1.19v-30.4c0-0.66-0.53-1.19-1.19-1.19H52.37z"/>
				</g>
			</g>
			<g>
				<g>
					<path class="st15" d="M57.43,17.91c-0.32,0-0.65-0.09-0.94-0.28l-5.07-3.38c-0.78-0.52-0.99-1.57-0.47-2.34
						c0.52-0.78,1.57-0.99,2.34-0.47l5.07,3.38c0.78,0.52,0.99,1.57,0.47,2.34C58.51,17.65,57.98,17.91,57.43,17.91z"/>
					<path class="st15" d="M57.43,18.41c-0.43,0-0.85-0.13-1.21-0.37l-5.07-3.38c-0.49-0.32-0.82-0.82-0.93-1.39
						c-0.12-0.57,0-1.16,0.33-1.64c0.32-0.49,0.82-0.82,1.39-0.93c0.58-0.12,1.16,0,1.64,0.33l5.07,3.38c1,0.67,1.28,2.03,0.61,3.04
						C58.85,18.05,58.17,18.41,57.43,18.41z M52.37,11.65c-0.08,0-0.16,0.01-0.24,0.02c-0.31,0.06-0.58,0.24-0.75,0.51
						c-0.18,0.26-0.24,0.58-0.18,0.89c0.06,0.31,0.24,0.58,0.51,0.75l5.07,3.38c0.53,0.35,1.3,0.2,1.65-0.33
						c0.36-0.55,0.22-1.29-0.33-1.65l-5.07-3.38C52.83,11.72,52.6,11.65,52.37,11.65z"/>
				</g>
			</g>
			<g>
				<g>
					<path class="st15" d="M116.54,87.15c-0.32,0-0.65-0.09-0.94-0.28c-0.78-0.52-0.99-1.57-0.47-2.34l3.38-5.07
						c0.52-0.78,1.57-0.99,2.34-0.47c0.78,0.52,0.99,1.57,0.47,2.34l-3.38,5.07C117.62,86.89,117.09,87.15,116.54,87.15z"/>
					<path class="st15" d="M116.54,87.65c-0.43,0-0.85-0.13-1.21-0.37c-0.49-0.32-0.82-0.82-0.93-1.39c-0.11-0.57,0-1.16,0.33-1.64
						l3.38-5.07c0.32-0.49,0.82-0.82,1.39-0.93c0.57-0.12,1.16,0,1.64,0.33s0.82,0.82,0.93,1.39c0.11,0.57,0,1.16-0.33,1.64
						l-3.38,5.07C117.96,87.29,117.28,87.65,116.54,87.65z M119.92,79.21c-0.08,0-0.16,0.01-0.24,0.02
						c-0.31,0.06-0.58,0.24-0.76,0.51l-3.38,5.07c-0.18,0.26-0.24,0.58-0.18,0.89s0.24,0.58,0.51,0.76c0.53,0.35,1.3,0.2,1.65-0.33
						l3.38-5.07c0.18-0.26,0.24-0.58,0.18-0.89s-0.24-0.58-0.51-0.76C120.38,79.28,120.16,79.21,119.92,79.21z"/>
				</g>
			</g>
			<g>
				<rect x="81.08" y="44.93" class="st15" width="3.38" height="3.38"/>
				<path class="st15" d="M84.96,48.81h-4.38v-4.38h4.38V48.81z M81.58,47.81h2.38v-2.38h-2.38V47.81z"/>
			</g>
			<g>
				<rect x="65.88" y="60.13" class="st15" width="3.38" height="3.38"/>
				<path class="st15" d="M69.76,64.01h-4.38v-4.38h4.38V64.01z M66.38,63.01h2.38v-2.38h-2.38V63.01z"/>
			</g>
			<g>
				<rect x="96.28" y="29.73" class="st15" width="3.38" height="3.38"/>
				<path class="st15" d="M100.16,33.61h-4.38v-4.38h4.38V33.61z M96.78,32.61h2.38v-2.38h-2.38V32.61z"/>
			</g>
		</g>
	</g>
</g>
</svg>
