<svg enable-background="new 0 0 150 150" viewBox="0 0 150 150" xmlns="http://www.w3.org/2000/svg"><circle cx="75" cy="75" fill="#efece4" r="73.28"/><circle cx="43.48" cy="85.66" fill="#efece4" r="9.25"/><path d="m43.48 96.4c-5.92 0-10.75-4.82-10.75-10.75s4.82-10.75 10.75-10.75 10.75 4.82 10.75 10.75-4.83 10.75-10.75 10.75zm0-18.49c-4.27 0-7.75 3.47-7.75 7.75s3.47 7.75 7.75 7.75 7.75-3.47 7.75-7.75-3.48-7.75-7.75-7.75z" fill="#414042"/><path d="m43.48 94.9c-8.7 0-15.76 7.06-15.76 15.76h31.52c0-8.7-7.06-15.76-15.76-15.76z" fill="#efece4"/><path d="m60.74 112.16h-34.52v-1.5c0-9.52 7.74-17.26 17.26-17.26s17.26 7.74 17.26 17.26zm-31.44-3h28.37c-.76-7.16-6.83-12.76-14.19-12.76s-13.43 5.6-14.18 12.76z" fill="#414042"/><circle cx="75" cy="85.66" fill="#efece4" r="9.25"/><path d="m75 96.4c-5.92 0-10.75-4.82-10.75-10.75s4.82-10.74 10.75-10.74 10.75 4.82 10.75 10.75-4.83 10.74-10.75 10.74zm0-18.49c-4.27 0-7.75 3.47-7.75 7.75s3.48 7.74 7.75 7.74 7.75-3.47 7.75-7.75-3.48-7.74-7.75-7.74z" fill="#414042"/><path d="m75 94.9c-8.7 0-15.76 7.06-15.76 15.76h31.52c0-8.7-7.06-15.76-15.76-15.76z" fill="#efece4"/><path d="m92.26 112.16h-34.52v-1.5c0-9.52 7.74-17.26 17.26-17.26s17.26 7.74 17.26 17.26zm-31.44-3h28.37c-.76-7.16-6.83-12.76-14.19-12.76s-13.43 5.6-14.18 12.76z" fill="#414042"/><circle cx="106.52" cy="85.66" fill="#efece4" r="9.25"/><path d="m106.52 96.4c-5.92 0-10.75-4.82-10.75-10.75s4.82-10.75 10.75-10.75 10.75 4.82 10.75 10.75-4.82 10.75-10.75 10.75zm0-18.49c-4.27 0-7.75 3.47-7.75 7.75s3.47 7.75 7.75 7.75 7.75-3.47 7.75-7.75-3.48-7.75-7.75-7.75z" fill="#414042"/><path d="m106.52 94.9c-8.7 0-15.76 7.06-15.76 15.76h31.52c0-8.7-7.05-15.76-15.76-15.76z" fill="#efece4"/><path d="m123.78 112.16h-34.52v-1.5c0-9.52 7.74-17.26 17.26-17.26s17.26 7.74 17.26 17.26zm-31.44-3h28.37c-.75-7.16-6.83-12.76-14.18-12.76s-13.44 5.6-14.19 12.76z" fill="#414042"/><path d="m46 29.66h69.39v39.75h-69.39z" fill="#efece4"/><path d="m116.89 70.91h-72.39v-42.75h72.39zm-69.39-3h66.39v-36.75h-66.39z" fill="#414042"/><circle cx="41.51" cy="45.05" fill="#efece4" r="6.47"/><path d="m41.51 53.03c-4.4 0-7.97-3.58-7.97-7.97s3.58-7.97 7.97-7.97 7.97 3.58 7.97 7.97-3.57 7.97-7.97 7.97zm0-12.95c-2.74 0-4.97 2.23-4.97 4.97s2.23 4.97 4.97 4.97 4.97-2.23 4.97-4.97-2.22-4.97-4.97-4.97z" fill="#414042"/><path d="m41.51 51.53c-4.49 0-8.12 3.64-8.12 8.12v9.76h16.25v-9.76c0-1.84-.61-3.54-1.64-4.9-1.49-1.96-3.84-3.22-6.49-3.22z" fill="#efece4"/><g fill="#414042"><path d="m51.14 70.91h-19.25v-11.26c0-5.31 4.32-9.62 9.63-9.62 3.04 0 5.84 1.39 7.68 3.82 1.27 1.68 1.95 3.69 1.95 5.8v11.26zm-16.25-3h13.25v-8.26c0-1.46-.46-2.84-1.34-3.99-1.27-1.67-3.19-2.63-5.29-2.63-3.65 0-6.62 2.97-6.62 6.62z"/><path d="m56.23 62.23-9.08-6.25c-.68-.47-.86-1.4-.39-2.09.47-.68 1.4-.85 2.09-.39l7.54 5.19 9.37-5.26c.72-.4 1.64-.15 2.04.57.41.72.15 1.64-.57 2.04z"/><path d="m58.99 37.08h43v3h-43z"/><path d="m58.99 45.45h43v3h-43z"/><path d="m75 54.66h26.99v3h-26.99z"/></g></svg>