<svg id="Layer_1" data-name="Layer 1" xmlns="http://www.w3.org/2000/svg" viewBox="0 0 726.92 918.08"><defs><style>.cls-1{fill:#efece4;}.cls-2{fill:#d5e0c6;}.cls-3{fill:#c8d6b4;}.cls-4{fill:#bbcca2;}.cls-5{fill:#aec290;}.cls-6{fill:#a1b97f;}.cls-7{fill:#93af6d;}.cls-8{fill:#86a55c;}.cls-9{fill:#414042;}</style></defs><title>ReFED-Accelerator</title><rect class="cls-1" x="-113.63" y="81.29" width="954.19" height="755.51" transform="translate(822.5 95.58) rotate(90)"/><rect class="cls-2" x="346.21" y="100" width="34.5" height="102.59"/><rect class="cls-3" x="346.21" y="202.59" width="34.5" height="102.59"/><rect class="cls-4" x="346.21" y="305.19" width="34.5" height="102.59"/><rect class="cls-5" x="346.21" y="407.78" width="34.5" height="102.59"/><rect class="cls-6" x="346.21" y="510.37" width="34.5" height="102.59"/><rect class="cls-7" x="346.21" y="612.97" width="34.5" height="102.59"/><rect class="cls-8" x="346.21" y="715.56" width="34.5" height="102.59"/><path d="M453.56,93.31h3.06v10.34h6.08V106h-9.14Z"/><path d="M473.57,103.84h-6.43l-.91,2.2h-3.36l5.56-12.73h3.84L477.81,106h-3.34ZM468,101.49h4.76l-2.37-5.84Z"/><path d="M478,93.31h3.1v7.55c0,1.78,1.1,3,3.34,3s3.3-1.22,3.3-3V93.31h3.11v7.63c0,3.17-2.05,5.33-6.41,5.33S478,104.09,478,101Z"/><path d="M496.33,97.49V106h-3.06V93.31h3.15l6.66,8.24V93.31h3.06V106h-2.95Z"/><path d="M507.87,99.68c0-3.91,3.34-6.58,7.54-6.58a6.8,6.8,0,0,1,6.13,3.11l-2.63,1.14a4,4,0,0,0-3.5-1.85,4.19,4.19,0,1,0,0,8.36,4,4,0,0,0,3.5-1.85l2.63,1.13a6.86,6.86,0,0,1-6.13,3.13C511.21,106.27,507.87,103.59,507.87,99.68Z"/><path d="M532.79,100.69H526V106h-3.06V93.31H526v5h6.79v-5h3.09V106h-3.09Z"/><path d="M550.17,93.1c4.36,0,7.52,2.74,7.52,6.58s-3.16,6.59-7.52,6.59-7.5-2.75-7.5-6.59S545.84,93.1,550.17,93.1Zm0,2.4a4.18,4.18,0,1,0,4.38,4.18A4.09,4.09,0,0,0,550.17,95.5Z"/><path d="M559.42,93.31H569.6v2.32h-7.12V98.4h7v2.33h-7V106h-3.06Z"/><path d="M460.37,116c4.35,0,7.52,2.75,7.52,6.59s-3.17,6.59-7.52,6.59-7.5-2.75-7.5-6.59S456,116,460.37,116Zm0,2.41a4.18,4.18,0,1,0,4.38,4.18A4.08,4.08,0,0,0,460.37,118.41Z"/><path d="M469.62,116.21h6.73c3.12,0,4.83,1.88,4.83,4.11s-1.73,4.06-4.83,4.06h-3.67V129h-3.06Zm6.32,2.33h-3.26v3.52h3.26a1.79,1.79,0,1,0,0-3.52Z"/><path d="M482.64,116.21h10.18v2.33H485.7v2.77h7v2.33h-7v3h7.12V129H482.64Z"/><path d="M497.84,120.4V129h-3.06V116.21h3.15l6.66,8.25v-8.25h3.06V129H504.7Z"/><path d="M514.47,122.59c0-3.91,3.34-6.59,7.54-6.59a6.77,6.77,0,0,1,6.12,3.12l-2.63,1.14a4,4,0,0,0-3.49-1.85,4.19,4.19,0,1,0,0,8.36,4,4,0,0,0,3.49-1.85l2.63,1.13a6.82,6.82,0,0,1-6.12,3.13C517.81,129.18,514.47,126.5,514.47,122.59Z"/><path d="M538.55,126.75h-6.43l-.9,2.2h-3.37l5.57-12.74h3.83L542.8,129h-3.35Zm-5.61-2.35h4.77l-2.37-5.84Z"/><path d="M543.7,116.21h3.06v10.35h6.08V129H543.7Z"/><path d="M554.55,116.21h3.06v10.35h6.08V129h-9.14Z"/><path class="cls-9" d="M453.38,153.6a3.64,3.64,0,0,0,2.89,1.52,3,3,0,0,0,3.08-3.22V141.21h1.91v10.71a4.51,4.51,0,0,1-4.87,4.9,4.92,4.92,0,0,1-4-1.77Z"/><path class="cls-9" d="M472.28,155a5.42,5.42,0,0,1-4,1.84c-2.32,0-3.54-1.13-3.54-3.54v-7.84h1.73v7.31c0,1.95,1,2.53,2.48,2.53a4.25,4.25,0,0,0,3.29-1.68v-8.16H474v11.1h-1.72Z"/><path class="cls-9" d="M485,149.28c0-2-1-2.58-2.48-2.58a4.27,4.27,0,0,0-3.29,1.73v8.11h-1.73v-11.1h1.73v1.61a5.51,5.51,0,0,1,3.95-1.89c2.33,0,3.55,1.17,3.55,3.59v7.79H485Z"/><path class="cls-9" d="M495,145.16c3.36,0,5.34,2.62,5.34,6v.43h-9a3.92,3.92,0,0,0,4,3.85,4.88,4.88,0,0,0,3.43-1.41l.82,1.13a6,6,0,0,1-4.41,1.7,5.84,5.84,0,0,1-.19-11.66Zm-3.65,5.13h7.29a3.6,3.6,0,0,0-3.66-3.7A3.7,3.7,0,0,0,491.3,150.29Z"/><path class="cls-9" d="M511.38,143.74l-2.46,2.59-1.15-1.17,3.84-3.95h1.67v15.33h-1.9Z"/><path class="cls-9" d="M519.17,143.74l-2.46,2.59-1.15-1.17,3.84-3.95h1.68v15.33h-1.91Z"/><path d="M452.87,303.79c0-3.91,3.34-6.59,7.54-6.59a6.8,6.8,0,0,1,6.13,3.12l-2.63,1.14a4,4,0,0,0-3.5-1.85,4.19,4.19,0,1,0,0,8.36,4,4,0,0,0,3.5-1.85l2.63,1.13a6.86,6.86,0,0,1-6.13,3.13C456.21,310.38,452.87,307.7,452.87,303.79Z"/><path d="M467.94,297.41H471v10.35h6.08v2.39h-9.14Z"/><path d="M485,297.2c4.36,0,7.53,2.75,7.53,6.59s-3.17,6.59-7.53,6.59-7.5-2.75-7.5-6.59S480.68,297.2,485,297.2Zm0,2.41a4.18,4.18,0,1,0,4.38,4.18A4.08,4.08,0,0,0,485,299.61Z"/><path d="M495,306.29a6.71,6.71,0,0,0,4.57,1.72c1.69,0,2.51-.71,2.51-1.43,0-1-1.25-1.28-2.92-1.63-2.35-.47-5.36-1-5.36-3.89,0-2.12,2.07-3.84,5.45-3.84a8.63,8.63,0,0,1,5.61,1.78l-1.71,2a6.56,6.56,0,0,0-4.11-1.4c-1.38,0-2.12.54-2.12,1.3s1.21,1.13,2.87,1.47c2.37.48,5.39,1.11,5.39,3.93,0,2.33-1.88,4.09-5.76,4.09a8.86,8.86,0,0,1-6.1-2Z"/><path d="M506.77,297.41H517v2.33h-7.12v2.77h7v2.33h-7v3H517v2.35H506.77Z"/><path d="M530.81,297.2c4.35,0,7.52,2.75,7.52,6.59s-3.17,6.59-7.52,6.59-7.5-2.75-7.5-6.59S526.47,297.2,530.81,297.2Zm0,2.41a4.18,4.18,0,1,0,4.38,4.18A4.09,4.09,0,0,0,530.81,299.61Z"/><path d="M540.06,297.41h10.18v2.33h-7.12v2.77h7v2.33h-7v5.31h-3.06Z"/><path d="M460.37,320.11c4.35,0,7.52,2.75,7.52,6.59s-3.17,6.59-7.52,6.59-7.5-2.75-7.5-6.59S456,320.11,460.37,320.11Zm0,2.41a4.18,4.18,0,1,0,4.38,4.18A4.08,4.08,0,0,0,460.37,322.52Z"/><path d="M469.62,320.32h6.73c3.12,0,4.83,1.88,4.83,4.11s-1.73,4.06-4.83,4.06h-3.67v4.57h-3.06Zm6.32,2.33h-3.26v3.52h3.26a1.79,1.79,0,1,0,0-3.52Z"/><path d="M482.64,320.32h10.18v2.33H485.7v2.77h7v2.33h-7v3h7.12v2.35H482.64Z"/><path d="M497.84,324.5v8.56h-3.06V320.32h3.15l6.66,8.25v-8.25h3.06v12.74H504.7Z"/><path d="M514.47,326.7c0-3.91,3.34-6.59,7.54-6.59a6.77,6.77,0,0,1,6.12,3.12l-2.63,1.14a4,4,0,0,0-3.49-1.85,4.19,4.19,0,1,0,0,8.36A4,4,0,0,0,525.5,329l2.63,1.13a6.82,6.82,0,0,1-6.12,3.13C517.81,333.29,514.47,330.61,514.47,326.7Z"/><path d="M538.55,330.86h-6.43l-.9,2.2h-3.37l5.57-12.74h3.83l5.55,12.74h-3.35Zm-5.61-2.35h4.77l-2.37-5.84Z"/><path d="M543.7,320.32h3.06v10.35h6.08v2.39H543.7Z"/><path d="M554.55,320.32h3.06v10.35h6.08v2.39h-9.14Z"/><path class="cls-9" d="M453.38,357.71a3.64,3.64,0,0,0,2.89,1.52,3,3,0,0,0,3.08-3.22V345.32h1.91V356a4.51,4.51,0,0,1-4.87,4.9,4.92,4.92,0,0,1-4-1.77Z"/><path class="cls-9" d="M472.28,359.09a5.42,5.42,0,0,1-4,1.84c-2.32,0-3.54-1.13-3.54-3.54v-7.84h1.73v7.31c0,1.95,1,2.53,2.48,2.53a4.25,4.25,0,0,0,3.29-1.68v-8.16H474v11.1h-1.72Z"/><path class="cls-9" d="M477.45,345.32h1.73v15.33h-1.73Z"/><path class="cls-9" d="M483.23,363.62a1.59,1.59,0,0,0,1.65-1.17l.74-1.68L481,349.55h1.87l3.7,9.1,3.68-9.1h1.88l-5.56,13.36a3.3,3.3,0,0,1-3.27,2.25A5.64,5.64,0,0,1,482,365l.27-1.56A2.81,2.81,0,0,0,483.23,363.62Z"/><path class="cls-9" d="M502.2,347.85l-2.46,2.59-1.15-1.17,3.84-3.95h1.68v15.33H502.2Z"/><path class="cls-9" d="M512.94,345.09c4.18,0,5.86,4.16,5.86,7.91s-1.68,7.93-5.86,7.93-5.86-4.21-5.86-7.93S508.73,345.09,512.94,345.09Zm0,1.7c-2.92,0-3.91,3.15-3.91,6.21s1,6.23,3.91,6.23,3.91-3.17,3.91-6.23S515.86,346.79,512.94,346.79Z"/><path d="M462.8,489h-6.43l-.9,2.2H452.1l5.56-12.73h3.84L467,491.15H463.7Zm-5.61-2.34H462l-2.37-5.84Z"/><path d="M466.53,484.79c0-3.91,3.34-6.58,7.54-6.58a6.82,6.82,0,0,1,6.13,3.11l-2.64,1.14a4,4,0,0,0-3.49-1.85,4.19,4.19,0,1,0,0,8.36,4,4,0,0,0,3.49-1.85l2.64,1.13a6.86,6.86,0,0,1-6.13,3.13C469.87,491.38,466.53,488.71,466.53,484.79Z"/><path d="M480.91,484.79c0-3.91,3.34-6.58,7.54-6.58a6.82,6.82,0,0,1,6.13,3.11L492,482.46a4,4,0,0,0-3.5-1.85,4.19,4.19,0,1,0,0,8.36,4,4,0,0,0,3.5-1.85l2.63,1.13a6.86,6.86,0,0,1-6.13,3.13C484.25,491.38,480.91,488.71,480.91,484.79Z"/><path d="M496,478.42h10.17v2.33H499v2.76h7v2.33h-7v3h7.11v2.35H496Z"/><path d="M508.12,478.42h3.06v10.34h6.08v2.39h-9.14Z"/><path d="M519,478.42h10.18v2.33H522v2.76h7v2.33h-7v3h7.12v2.35H519Z"/><path d="M536.4,486.59h-2.24v4.56H531.1V478.42h6.73c3,0,4.83,1.74,4.83,4.1a3.77,3.77,0,0,1-3.15,3.78l3.23,4.85h-3.51Zm1-5.84h-3.21v3.51h3.21c1.23,0,2.16-.69,2.16-1.76S538.6,480.75,537.37,480.75Z"/><path d="M553.7,489h-6.43l-.91,2.2H543l5.56-12.73h3.84l5.54,12.73H554.6Zm-5.61-2.34h4.76l-2.37-5.84Z"/><path d="M560.79,480.8h-4.21v-2.38h11.47v2.38h-4.18v10.35h-3.08Z"/><path d="M575.88,478.21c4.36,0,7.53,2.75,7.53,6.58s-3.17,6.59-7.53,6.59-7.5-2.75-7.5-6.59S571.55,478.21,575.88,478.21Zm0,2.4a4.18,4.18,0,1,0,4.38,4.18A4.08,4.08,0,0,0,575.88,480.61Z"/><path d="M590.43,486.59h-2.24v4.56h-3.06V478.42h6.73c3,0,4.83,1.74,4.83,4.1a3.77,3.77,0,0,1-3.15,3.78l3.23,4.85h-3.51Zm1-5.84h-3.22v3.51h3.22c1.22,0,2.15-.69,2.15-1.76S592.63,480.75,591.41,480.75Z"/><path d="M454.32,510.2a6.71,6.71,0,0,0,4.57,1.72c1.69,0,2.5-.7,2.5-1.43,0-1-1.25-1.28-2.91-1.62-2.35-.48-5.36-1.05-5.36-3.9,0-2.12,2.06-3.83,5.45-3.83a8.68,8.68,0,0,1,5.61,1.77l-1.71,2a6.56,6.56,0,0,0-4.12-1.4c-1.38,0-2.11.54-2.11,1.3s1.21,1.13,2.87,1.47c2.37.48,5.39,1.11,5.39,3.93,0,2.33-1.88,4.09-5.76,4.09a8.91,8.91,0,0,1-6.1-2Z"/><path d="M469.31,503.71H465.1v-2.38h11.47v2.38h-4.18v10.35h-3.08Z"/><path d="M485.89,511.86h-6.43l-.9,2.2h-3.37l5.57-12.73h3.83l5.54,12.73h-3.34Zm-5.61-2.34h4.77l-2.38-5.85Z"/><path d="M496.34,509.5H494.1v4.56H491V501.33h6.73c3,0,4.83,1.73,4.83,4.1a3.77,3.77,0,0,1-3.15,3.78l3.23,4.85h-3.51Zm1-5.84H494.1v3.51h3.21c1.23,0,2.16-.69,2.16-1.76S498.54,503.66,497.31,503.66Z"/><path d="M507.58,503.71h-4.21v-2.38h11.47v2.38h-4.18v10.35h-3.08Z"/><path d="M530.62,511.86H524.2l-.91,2.2h-3.36l5.56-12.73h3.84l5.54,12.73h-3.34Zm-5.6-2.34h4.76l-2.37-5.85Z"/><path d="M538.84,505.51v8.55h-3.06V501.33h3.15l6.66,8.24v-8.24h3.06v12.73H545.7Z"/><path d="M551.06,501.33h5.67c4.51,0,7.64,2.54,7.64,6.37s-3.13,6.36-7.64,6.36h-5.67Zm5.67,10.34c2.85,0,4.51-1.81,4.51-4s-1.55-4-4.51-4h-2.6v8Z"/><path d="M576.51,509.5h-2.25v4.56H571.2V501.33h6.73c3,0,4.83,1.73,4.83,4.1a3.77,3.77,0,0,1-3.15,3.78l3.24,4.85h-3.52Zm1-5.84h-3.22v3.51h3.22c1.23,0,2.15-.69,2.15-1.76S578.71,503.66,577.48,503.66Z"/><path d="M588.64,504.61a4.89,4.89,0,0,1,5.22,5.08v.53h-7.74c.17,1.17,1.23,2.14,3,2.14a4.55,4.55,0,0,0,2.78-.92l1.21,1.57a7.07,7.07,0,0,1-4.29,1.28c-3.17,0-5.57-1.89-5.57-4.85C583.25,506.77,585.47,504.61,588.64,504.61Zm-2.56,4h5.13a2.3,2.3,0,0,0-2.57-2A2.39,2.39,0,0,0,586.08,508.58Z"/><path d="M595.48,501.33h10.18v2.33h-7.12v2.76h7v2.33h-7v5.31h-3.06Z"/><path d="M607.36,501.33h10.18v2.33h-7.12v2.76h7v2.33h-7v3h7.12v2.35H607.36Z"/><path d="M619.5,501.33h5.67c4.5,0,7.63,2.54,7.63,6.37s-3.13,6.36-7.63,6.36H619.5Zm5.67,10.34c2.84,0,4.5-1.81,4.5-4s-1.55-4-4.5-4h-2.61v8Z"/><path d="M453.63,524.24h3.06v10.34h6.08V537h-9.14Z"/><path d="M464.48,524.24h10.17v2.33h-7.11v2.76h7v2.33h-7v3h7.11V537H464.48Z"/><path d="M485.78,534.77h-6.43l-.9,2.2h-3.36l5.56-12.73h3.84L490,537h-3.35Zm-5.61-2.34h4.77l-2.37-5.85Z"/><path d="M496.24,532.41H494V537h-3.06V524.24h6.73c3,0,4.83,1.73,4.83,4.1a3.77,3.77,0,0,1-3.15,3.78l3.24,4.85h-3.52Zm1-5.84H494v3.51h3.22c1.23,0,2.15-.69,2.15-1.76S498.44,526.57,497.21,526.57Z"/><path d="M507.43,528.42V537h-3.07V524.24h3.15l6.66,8.24v-8.24h3.07V537h-3Z"/><path d="M519.65,524.24h3.06V537h-3.06Z"/><path d="M528.19,528.42V537h-3.06V524.24h3.14l6.67,8.24v-8.24H538V537h-3Z"/><path d="M547.38,524a7,7,0,0,1,6,2.78L550.78,528a4.33,4.33,0,1,0-3.4,6.75,5.21,5.21,0,0,0,3.1-1v-1.55h-3.84V530h6.86v4.86a8.45,8.45,0,0,1-6.12,2.41c-4.21,0-7.66-2.6-7.66-6.61S543.17,524,547.38,524Z"/><path d="M560.59,524.24h3.07v10.34h6.08V537h-9.15Z"/><path d="M580.6,534.77h-6.42l-.91,2.2h-3.36l5.56-12.73h3.84L584.85,537h-3.34Zm-5.6-2.34h4.76l-2.37-5.85Z"/><path d="M585.76,524.24h7.56c2.74,0,4.14,1.54,4.14,3.24A2.9,2.9,0,0,1,595,530.4a3.2,3.2,0,0,1,2.76,3.13c0,1.91-1.44,3.44-4.18,3.44h-7.8Zm6.89,5.11c1,0,1.69-.59,1.69-1.41s-.65-1.39-1.69-1.39h-3.83v2.8Zm.11,5.31c1.17,0,1.86-.59,1.86-1.51s-.65-1.49-1.86-1.49h-3.94v3Z"/><path d="M609.8,533.74h-2L606.52,537h-2l1.23-3.23h-2.07l.56-1.54h2.11l1.17-3.17h-2.11l.53-1.53h2.18l1.21-3.26h2l-1.21,3.26h2l1.2-3.26h2l-1.25,3.26h2.09l-.52,1.53h-2.15l-1.19,3.17h2.18l-.54,1.54H611.8L610.59,537h-2Zm-.28-4.71-1.17,3.17h2l1.18-3.17Z"/><path d="M620.56,527.73l-2.4,2.16-1.74-1.62,4.52-4h2.68V537h-3.06Z"/><path class="cls-9" d="M454.21,561a6.51,6.51,0,0,0,4.83,2.18c2.74,0,3.61-1.47,3.61-2.64,0-1.84-1.86-2.35-3.89-2.9-2.46-.64-5.19-1.33-5.19-4.35,0-2.53,2.25-4.25,5.26-4.25a7.2,7.2,0,0,1,5.45,2.14l-1.15,1.4a5.89,5.89,0,0,0-4.44-1.84c-1.84,0-3.15,1-3.15,2.44s1.77,2,3.73,2.53c2.51.66,5.36,1.45,5.36,4.67,0,2.23-1.52,4.5-5.66,4.5a7.62,7.62,0,0,1-5.89-2.43Z"/><path class="cls-9" d="M472.24,553.18c3.36,0,5.33,2.63,5.33,6v.44h-9a3.92,3.92,0,0,0,4,3.84A4.84,4.84,0,0,0,476,562l.83,1.13a6,6,0,0,1-4.42,1.7,5.84,5.84,0,0,1-.18-11.66Zm-3.66,5.13h7.29a3.59,3.59,0,0,0-3.65-3.7A3.72,3.72,0,0,0,468.58,558.31Z"/><path class="cls-9" d="M480.36,568.8V553.46h1.72v1.66a4.66,4.66,0,0,1,3.75-1.94c2.92,0,4.95,2.21,4.95,5.82s-2,5.84-4.95,5.84a4.56,4.56,0,0,1-3.75-2v5.91Zm5-14.07a4.11,4.11,0,0,0-3.31,1.77v5a4.15,4.15,0,0,0,3.31,1.79c2.24,0,3.57-1.84,3.57-4.3S487.63,554.73,485.39,554.73Z"/><path class="cls-9" d="M493.9,562.24V555h-1.84v-1.52h1.84v-3h1.73v3h2.25V555h-2.25v6.9c0,.82.37,1.42,1.13,1.42a1.63,1.63,0,0,0,1.17-.46l.5,1.29a2.81,2.81,0,0,1-2.07.71C494.73,564.84,493.9,563.9,493.9,562.24Z"/><path class="cls-9" d="M505.15,553.18c3.36,0,5.33,2.63,5.33,6v.44h-9a3.92,3.92,0,0,0,4,3.84,4.84,4.84,0,0,0,3.43-1.41l.83,1.13a6.06,6.06,0,0,1-4.42,1.7,5.84,5.84,0,0,1-.18-11.66Zm-3.66,5.13h7.29a3.59,3.59,0,0,0-3.65-3.7A3.72,3.72,0,0,0,501.49,558.31Z"/><path class="cls-9" d="M526.67,557c0-1.41-.62-2.3-2-2.3a3.89,3.89,0,0,0-3,1.7v8.14H520V557c0-1.41-.6-2.3-2.05-2.3a3.88,3.88,0,0,0-2.92,1.72v8.12h-1.72V553.46H515v1.61a4.82,4.82,0,0,1,3.59-1.89,2.85,2.85,0,0,1,3,2.07,4.68,4.68,0,0,1,3.72-2.07c2,0,3.11,1.13,3.11,3.36v8h-1.73Z"/><path class="cls-9" d="M531.85,549.23h1.73v5.91a4.6,4.6,0,0,1,3.74-2c2.9,0,4.95,2.3,4.95,5.85s-2,5.81-4.95,5.81a4.64,4.64,0,0,1-3.74-1.93v1.66h-1.73Zm5,14.07c2.25,0,3.58-1.81,3.58-4.27s-1.33-4.3-3.58-4.3a4.09,4.09,0,0,0-3.31,1.79v5A4.06,4.06,0,0,0,536.89,563.3Z"/><path class="cls-9" d="M549.9,553.18c3.36,0,5.34,2.63,5.34,6v.44h-9a3.92,3.92,0,0,0,4,3.84,4.84,4.84,0,0,0,3.42-1.41l.83,1.13a6,6,0,0,1-4.41,1.7,5.84,5.84,0,0,1-.19-11.66Zm-3.65,5.13h7.29a3.61,3.61,0,0,0-3.66-3.7A3.7,3.7,0,0,0,546.25,558.31Z"/><path class="cls-9" d="M558,553.46h1.73v1.79a4.71,4.71,0,0,1,3.7-2V555a2.82,2.82,0,0,0-.69-.07,4.06,4.06,0,0,0-3,1.77v7.87H558Z"/><path class="cls-9" d="M573.91,551.76l-2.46,2.6-1.15-1.18,3.84-3.95h1.68v15.34h-1.91Z"/><path class="cls-9" d="M584.65,549c4.19,0,5.87,4.16,5.87,7.91s-1.68,7.93-5.87,7.93-5.86-4.21-5.86-7.93S580.44,549,584.65,549Zm0,1.7c-2.92,0-3.91,3.15-3.91,6.21s1,6.23,3.91,6.23,3.91-3.17,3.91-6.23S587.57,550.7,584.65,550.7Z"/><path d="M462,685.19l-2.5,8.74h-3.26l-4.11-12.73h3.42l2.53,9.2,2.73-9.2h2.4l2.71,9.2,2.5-9.2h3.45l-4.09,12.73h-3.26Z"/><path d="M472.92,681.2H476v12.73h-3.06Z"/><path d="M481.46,685.38v8.55h-3.07V681.2h3.15l6.66,8.24V681.2h3.07v12.73h-3Z"/><path d="M496.74,685.38v8.55h-3.06V681.2h3.15l6.66,8.24V681.2h3.06v12.73H503.6Z"/><path d="M509,681.2h10.17v2.33H512v2.76h7v2.33h-7v3h7.11v2.35H509Z"/><path d="M526.41,689.37h-2.24v4.56h-3.06V681.2h6.72c3,0,4.83,1.73,4.83,4.1a3.76,3.76,0,0,1-3.15,3.78l3.24,4.85h-3.52Zm1-5.84h-3.21V687h3.21c1.23,0,2.16-.69,2.16-1.76S528.61,683.53,527.38,683.53Z"/><path d="M534,687.57a12.39,12.39,0,0,1,3.41-8.44l1.72,1.15a12.89,12.89,0,0,0-2.18,7.29,12.7,12.7,0,0,0,2.18,7.26L537.41,696A12.33,12.33,0,0,1,534,687.57Z"/><path d="M541.2,690.07a6.69,6.69,0,0,0,4.57,1.72c1.68,0,2.5-.71,2.5-1.43,0-1-1.25-1.28-2.91-1.62-2.35-.48-5.37-1-5.37-3.9,0-2.12,2.07-3.83,5.46-3.83a8.65,8.65,0,0,1,5.6,1.77l-1.7,2a6.58,6.58,0,0,0-4.12-1.4c-1.38,0-2.11.54-2.11,1.3s1.21,1.13,2.87,1.47c2.37.48,5.39,1.11,5.39,3.93,0,2.33-1.88,4.09-5.76,4.09a8.86,8.86,0,0,1-6.1-2Z"/><path d="M552,680.28l1.72-1.15a12,12,0,0,1,0,16.88L552,694.83a12.35,12.35,0,0,0,2.2-7.26A12.53,12.53,0,0,0,552,680.28Z"/><path d="M454.25,713a6.67,6.67,0,0,0,4.57,1.72c1.68,0,2.5-.71,2.5-1.43,0-1-1.25-1.28-2.91-1.62-2.35-.48-5.37-1-5.37-3.9,0-2.12,2.07-3.84,5.45-3.84a8.66,8.66,0,0,1,5.61,1.78l-1.7,2a6.65,6.65,0,0,0-4.12-1.39c-1.38,0-2.11.54-2.11,1.3s1.2,1.13,2.86,1.47c2.37.48,5.39,1.11,5.39,3.93,0,2.33-1.87,4.09-5.75,4.09a8.89,8.89,0,0,1-6.11-2Z"/><path d="M466.06,704.11h10.18v2.32h-7.12v2.77h7v2.33h-7v3h7.12v2.35H466.06Z"/><path d="M478.2,704.11h3.06v10.34h6.08v2.39H478.2Z"/><path d="M489.05,704.11h10.17v2.32h-7.11v2.77h7v2.33h-7v3h7.11v2.35H489.05Z"/><path d="M500.49,710.48c0-3.91,3.35-6.58,7.55-6.58a6.77,6.77,0,0,1,6.12,3.11l-2.63,1.14A4,4,0,0,0,508,706.3a4.19,4.19,0,1,0,0,8.36,4,4,0,0,0,3.49-1.85l2.63,1.13a6.82,6.82,0,0,1-6.12,3.13C503.84,717.07,500.49,714.39,500.49,710.48Z"/><path d="M518.89,706.49h-4.21v-2.38h11.47v2.38H522v10.35h-3.08Z"/><path d="M527.68,704.11h3.06v12.73h-3.06Z"/><path d="M540,703.9c4.36,0,7.53,2.74,7.53,6.58s-3.17,6.59-7.53,6.59-7.5-2.75-7.5-6.59S535.64,703.9,540,703.9Zm0,2.4a4.18,4.18,0,1,0,4.38,4.18A4.08,4.08,0,0,0,540,706.3Z"/><path d="M552.28,708.29v8.55h-3.06V704.11h3.15l6.66,8.24v-8.24h3.06v12.73h-3Z"/><path d="M578.76,714.64h-6.43l-.9,2.2h-3.37l5.57-12.73h3.84L583,716.84h-3.35Zm-5.61-2.35h4.77l-2.37-5.84Z"/><path d="M587,708.29v8.55h-3.06V704.11h3.15l6.66,8.24v-8.24h3.06v12.73h-2.95Z"/><path d="M599.2,704.11h5.67c4.5,0,7.63,2.53,7.63,6.37s-3.13,6.36-7.63,6.36H599.2Zm5.67,10.34c2.84,0,4.5-1.81,4.5-4s-1.55-4-4.5-4h-2.61v8Z"/><path d="M458.86,735.19h-2.24v4.56h-3.06V727h6.72c3,0,4.83,1.73,4.83,4.1A3.77,3.77,0,0,1,462,734.9l3.23,4.85h-3.52Zm1-5.85h-3.21v3.52h3.21c1.23,0,2.16-.69,2.16-1.76S461.06,729.34,459.83,729.34Z"/><path d="M471,730.3a4.9,4.9,0,0,1,5.22,5.08v.53h-7.74a2.73,2.73,0,0,0,3,2.14,4.59,4.59,0,0,0,2.78-.92l1.21,1.57a7,7,0,0,1-4.29,1.28c-3.17,0-5.56-1.89-5.56-4.85C465.61,732.46,467.83,730.3,471,730.3Zm-2.57,4h5.13a2.29,2.29,0,0,0-2.56-2A2.4,2.4,0,0,0,468.43,734.27Z"/><path d="M477.83,727H488v2.32H480.9v2.77h7v2.33h-7v5.31h-3.07Z"/><path d="M489.71,727h10.18v2.32h-7.11v2.77h7v2.33h-7v3h7.11v2.35H489.71Z"/><path d="M501.85,727h5.67c4.51,0,7.63,2.53,7.63,6.37s-3.12,6.36-7.63,6.36h-5.67Zm5.67,10.34c2.85,0,4.51-1.81,4.51-4s-1.55-4-4.51-4h-2.61v8Z"/><path d="M522,727h3.06v10.34h6.08v2.39H522Z"/><path d="M532.83,727H543v2.32H535.9v2.77h7v2.33h-7v3H543v2.35H532.83Z"/><path d="M554.14,737.55h-6.43l-.9,2.2h-3.37L549,727h3.83l5.54,12.73H555Zm-5.61-2.35h4.77l-2.38-5.84Z"/><path d="M564.59,735.19h-2.24v4.56h-3.06V727H566c3,0,4.83,1.73,4.83,4.1a3.77,3.77,0,0,1-3.15,3.78l3.23,4.85h-3.51Zm1-5.85h-3.21v3.52h3.21c1.23,0,2.16-.69,2.16-1.76S566.79,729.34,565.56,729.34Z"/><path d="M575.78,731.2v8.55h-3.06V727h3.15l6.66,8.24V727h3.06v12.73h-3Z"/><path d="M588,727h3.06v12.73H588Z"/><path d="M596.55,731.2v8.55h-3.07V727h3.15l6.66,8.24V727h3.07v12.73h-3Z"/><path d="M615.73,726.81a7,7,0,0,1,6,2.78l-2.55,1.22a4.49,4.49,0,0,0-7.91,2.58,4.22,4.22,0,0,0,4.5,4.18,5.31,5.31,0,0,0,3.11-1v-1.55H615v-2.33h6.86v4.87a8.49,8.49,0,0,1-6.13,2.41c-4.2,0-7.65-2.6-7.65-6.61S611.53,726.81,615.73,726.81Z"/><path d="M453.56,749.92h3.06v10.35h6.08v2.39h-9.14Z"/><path d="M473.57,760.46h-6.43l-.91,2.2h-3.36l5.56-12.74h3.84l5.54,12.74h-3.34ZM468,758.11h4.76l-2.37-5.84Z"/><path d="M478.72,749.92h7.57c2.73,0,4.14,1.55,4.14,3.25a2.93,2.93,0,0,1-2.48,2.92,3.2,3.2,0,0,1,2.76,3.13c0,1.91-1.45,3.44-4.19,3.44h-7.8Zm6.9,5.12c1,0,1.68-.59,1.68-1.41a1.49,1.49,0,0,0-1.68-1.4h-3.84V755Zm.11,5.31c1.16,0,1.85-.59,1.85-1.51s-.65-1.49-1.85-1.49h-4v3Z"/><path d="M502.76,759.43h-2.05l-1.23,3.23h-2l1.23-3.23h-2.07l.56-1.55h2.12l1.16-3.16h-2.11l.54-1.53h2.18l1.2-3.27h2l-1.21,3.27h2l1.21-3.27h2l-1.25,3.27h2.09l-.51,1.53h-2.16l-1.18,3.16h2.17l-.54,1.55h-2.22l-1.2,3.23h-2.05Zm-.28-4.71-1.17,3.16h2l1.18-3.16Z"/><path d="M511.17,759.07a6.14,6.14,0,0,0,4,1.45c1.75,0,2.72-.67,2.72-1.64s-.88-1.51-2.89-1.51c-.6,0-1.57,0-1.79,0V755c.26,0,1.25,0,1.79,0,1.6,0,2.65-.46,2.65-1.41s-1.16-1.53-2.67-1.53a5.64,5.64,0,0,0-3.67,1.34l-1.5-1.68a7.49,7.49,0,0,1,5.49-2c3.37,0,5.44,1.34,5.44,3.46,0,1.6-1.56,2.65-3.15,2.9,1.47.13,3.36,1.15,3.36,3,0,2.2-2.22,3.75-5.67,3.75a7.64,7.64,0,0,1-5.67-2Z"/><path class="cls-9" d="M453.93,774.92h5.24A7.46,7.46,0,0,1,467,782.6c0,4.37-3.1,7.66-7.86,7.66h-5.24Zm5.24,13.63a6,6,0,0,0,0-11.93h-3.33v11.93Z"/><path class="cls-9" d="M474.79,778.87c3.35,0,5.33,2.62,5.33,6v.44h-9a3.92,3.92,0,0,0,4,3.84,4.86,4.86,0,0,0,3.43-1.41l.82,1.13a6,6,0,0,1-4.41,1.7,5.84,5.84,0,0,1-.18-11.66ZM471.13,784h7.29a3.6,3.6,0,0,0-3.66-3.7A3.7,3.7,0,0,0,471.13,784Z"/><path class="cls-9" d="M487.8,778.87a4.75,4.75,0,0,1,4.07,1.93l-1.15,1.06a3.29,3.29,0,0,0-2.83-1.45c-2.36,0-3.84,1.82-3.84,4.28s1.48,4.3,3.84,4.3a3.34,3.34,0,0,0,2.83-1.45l1.15,1.06a4.75,4.75,0,0,1-4.07,1.93,5.84,5.84,0,0,1,0-11.66Z"/><path class="cls-9" d="M499.12,778.87c3.35,0,5.33,2.62,5.33,6v.44h-9a3.92,3.92,0,0,0,4,3.84,4.84,4.84,0,0,0,3.43-1.41l.83,1.13a6.06,6.06,0,0,1-4.42,1.7,5.84,5.84,0,0,1-.18-11.66ZM495.46,784h7.29a3.6,3.6,0,0,0-3.66-3.7A3.71,3.71,0,0,0,495.46,784Z"/><path class="cls-9" d="M520.64,782.71c0-1.4-.62-2.3-2-2.3a3.92,3.92,0,0,0-3,1.7v8.15h-1.72v-7.55c0-1.4-.6-2.3-2-2.3a3.87,3.87,0,0,0-2.92,1.73v8.12h-1.72V779.15H509v1.61a4.82,4.82,0,0,1,3.59-1.89,2.85,2.85,0,0,1,3,2.07,4.67,4.67,0,0,1,3.72-2.07c2,0,3.11,1.13,3.11,3.36v8h-1.73Z"/><path class="cls-9" d="M525.82,774.92h1.72v5.91a4.62,4.62,0,0,1,3.75-2c2.9,0,5,2.3,5,5.84s-2,5.82-5,5.82a4.68,4.68,0,0,1-3.75-1.93v1.66h-1.72Zm5,14.07c2.26,0,3.59-1.82,3.59-4.28s-1.33-4.3-3.59-4.3a4.13,4.13,0,0,0-3.31,1.8v5A4.09,4.09,0,0,0,530.85,789Z"/><path class="cls-9" d="M543.87,778.87c3.36,0,5.34,2.62,5.34,6v.44h-9a3.9,3.9,0,0,0,4,3.84,4.84,4.84,0,0,0,3.42-1.41l.83,1.13a6,6,0,0,1-4.41,1.7,5.84,5.84,0,0,1-.19-11.66ZM540.22,784h7.28a3.59,3.59,0,0,0-3.65-3.7A3.7,3.7,0,0,0,540.22,784Z"/><path class="cls-9" d="M552,779.15h1.72v1.79a4.74,4.74,0,0,1,3.71-2v1.77a2.87,2.87,0,0,0-.69-.07,4.07,4.07,0,0,0-3,1.77v7.87H552Z"/><path class="cls-9" d="M565,788.74c5.52-4.35,8.51-6.9,8.51-9.54,0-2-1.61-2.81-3.2-2.81a5.13,5.13,0,0,0-4.16,1.93L565,777.1a6.63,6.63,0,0,1,5.33-2.41c2.55,0,5.15,1.45,5.15,4.51s-3.17,6-7.45,9.35h7.52v1.71H565Z"/><path d="M190.26,194.2h3.5l4,9.79,4-9.79h3.49l-5.54,12.73h-3.83Z"/><path d="M206.11,194.2h3.06v12.73h-3.06Z"/><path d="M216.89,202.37h-2.24v4.56h-3.06V194.2h6.72c3,0,4.83,1.73,4.83,4.1a3.76,3.76,0,0,1-3.15,3.78l3.24,4.85h-3.52Zm1-5.84h-3.21V200h3.21c1.23,0,2.16-.69,2.16-1.76S219.09,196.53,217.86,196.53Z"/><path d="M228.12,196.58h-4.2V194.2h11.47v2.38h-4.18v10.35h-3.09Z"/><path d="M236.92,194.2H240v7.56c0,1.77,1.1,3,3.35,3s3.29-1.22,3.29-3V194.2h3.11v7.63c0,3.17-2.05,5.33-6.4,5.33s-6.45-2.18-6.45-5.31Z"/><path d="M260.64,204.73h-6.43l-.9,2.2h-3.37l5.57-12.73h3.83l5.54,12.73h-3.34ZM255,202.39h4.77l-2.38-5.84Z"/><path d="M265.79,194.2h3.06v10.34h6.08v2.39h-9.14Z"/><path d="M109.45,217.11h3.07v12.73h-3.07Z"/><path d="M118,221.29v8.55h-3.06V217.11h3.15l6.66,8.24v-8.24h3.06v12.73h-3Z"/><path d="M130.22,217.11h10.17v2.33h-7.11v2.76h7v2.33h-7v5.31h-3.06Z"/><path d="M148.91,216.9c4.36,0,7.52,2.75,7.52,6.58s-3.16,6.59-7.52,6.59-7.5-2.75-7.5-6.59S144.58,216.9,148.91,216.9Zm0,2.4a4.18,4.18,0,1,0,4.38,4.18A4.09,4.09,0,0,0,148.91,219.3Z"/><path d="M163.46,225.28h-2.24v4.56h-3.06V217.11h6.73c3,0,4.83,1.73,4.83,4.1a3.77,3.77,0,0,1-3.15,3.78l3.23,4.85h-3.51Zm1-5.84h-3.21V223h3.21c1.23,0,2.16-.69,2.16-1.76S165.66,219.44,164.43,219.44Z"/><path d="M184.1,220.68,180,229.84h-1.33l-4.06-9.16v9.16h-3.06V217.11h4.29l3.49,7.94,3.5-7.94h4.31v12.73H184.1Z"/><path d="M198.76,227.64h-6.43l-.9,2.2h-3.37l5.57-12.73h3.83L203,229.84h-3.35Zm-5.61-2.34h4.77l-2.37-5.85Z"/><path d="M205.85,219.49h-4.2v-2.38h11.47v2.38h-4.19v10.35h-3.08Z"/><path d="M214.65,217.11h3.06v12.73h-3.06Z"/><path d="M226.94,216.9c4.35,0,7.52,2.75,7.52,6.58s-3.17,6.59-7.52,6.59-7.51-2.75-7.51-6.59S222.6,216.9,226.94,216.9Zm0,2.4a4.18,4.18,0,1,0,4.37,4.18A4.09,4.09,0,0,0,226.94,219.3Z"/><path d="M239.25,221.29v8.55h-3.06V217.11h3.14l6.67,8.24v-8.24h3.06v12.73h-3Z"/><path d="M260.64,227.64h-6.43l-.9,2.2h-3.37l5.57-12.73h3.83l5.54,12.73h-3.34ZM255,225.3h4.77l-2.38-5.85Z"/><path d="M265.79,217.11h3.06v10.34h6.08v2.39h-9.14Z"/><path d="M190.85,248.89a6.67,6.67,0,0,0,4.57,1.72c1.68,0,2.5-.7,2.5-1.43,0-1-1.25-1.28-2.91-1.62-2.35-.48-5.37-1.05-5.37-3.9,0-2.12,2.07-3.83,5.45-3.83a8.66,8.66,0,0,1,5.61,1.77l-1.7,2a6.6,6.6,0,0,0-4.12-1.4c-1.38,0-2.12.54-2.12,1.3s1.21,1.13,2.87,1.47c2.37.48,5.39,1.11,5.39,3.93,0,2.33-1.87,4.09-5.75,4.09a8.89,8.89,0,0,1-6.11-2Z"/><path d="M202.66,240h10.18v2.33h-7.12v2.76h7v2.33h-7v3h7.12v2.35H202.66Z"/><path d="M215.49,248.89a6.69,6.69,0,0,0,4.57,1.72c1.68,0,2.5-.7,2.5-1.43,0-1-1.25-1.28-2.91-1.62-2.35-.48-5.37-1.05-5.37-3.9,0-2.12,2.07-3.83,5.46-3.83a8.65,8.65,0,0,1,5.6,1.77l-1.7,2a6.58,6.58,0,0,0-4.12-1.4c-1.38,0-2.11.54-2.11,1.3s1.21,1.13,2.87,1.47c2.37.48,5.39,1.11,5.39,3.93,0,2.33-1.88,4.09-5.76,4.09a8.86,8.86,0,0,1-6.1-2Z"/><path d="M228,248.89a6.72,6.72,0,0,0,4.58,1.72c1.68,0,2.5-.7,2.5-1.43,0-1-1.25-1.28-2.91-1.62-2.35-.48-5.37-1.05-5.37-3.9,0-2.12,2.07-3.83,5.45-3.83a8.66,8.66,0,0,1,5.61,1.77l-1.71,2a6.56,6.56,0,0,0-4.11-1.4c-1.38,0-2.12.54-2.12,1.3s1.21,1.13,2.87,1.47c2.37.48,5.39,1.11,5.39,3.93,0,2.33-1.87,4.09-5.76,4.09a8.88,8.88,0,0,1-6.1-2Z"/><path d="M239.81,240h3.06v12.73h-3.06Z"/><path d="M252.1,239.81c4.35,0,7.52,2.75,7.52,6.58S256.45,253,252.1,253s-7.5-2.75-7.5-6.59S247.77,239.81,252.1,239.81Zm0,2.4a4.18,4.18,0,1,0,4.38,4.18A4.09,4.09,0,0,0,252.1,242.21Z"/><path d="M264.41,244.2v8.55h-3.06V240h3.15l6.66,8.24V240h3.06v12.73h-3Z"/><path class="cls-9" d="M188.71,277.12a3.68,3.68,0,0,0,2.9,1.51,3,3,0,0,0,3.08-3.22V264.72h1.91v10.72a4.51,4.51,0,0,1-4.88,4.9,4.91,4.91,0,0,1-4-1.78Z"/><path class="cls-9" d="M207.61,278.5a5.45,5.45,0,0,1-4,1.84c-2.32,0-3.54-1.13-3.54-3.55V269h1.72v7.32c0,2,1,2.52,2.49,2.52a4.25,4.25,0,0,0,3.28-1.67V269h1.73v11.11h-1.73Z"/><path class="cls-9" d="M220.29,272.79c0-2-1-2.57-2.49-2.57a4.33,4.33,0,0,0-3.29,1.72v8.12h-1.72V269h1.72v1.61a5.52,5.52,0,0,1,4-1.88c2.32,0,3.54,1.17,3.54,3.58v7.8h-1.72Z"/><path class="cls-9" d="M230.29,268.68c3.36,0,5.33,2.62,5.33,5.95v.44h-9a3.92,3.92,0,0,0,4,3.84,4.87,4.87,0,0,0,3.42-1.4l.83,1.12a6,6,0,0,1-4.42,1.71,5.84,5.84,0,0,1-.18-11.66Zm-3.66,5.12h7.29a3.59,3.59,0,0,0-3.65-3.7A3.72,3.72,0,0,0,226.63,273.8Z"/><path class="cls-9" d="M249.79,278.54c5.52-4.34,8.51-6.9,8.51-9.54,0-2-1.61-2.81-3.19-2.81a5.18,5.18,0,0,0-4.17,1.93l-1.17-1.21a6.64,6.64,0,0,1,5.34-2.42c2.55,0,5.15,1.45,5.15,4.51s-3.18,6-7.45,9.36h7.52v1.7H249.79Z"/><path class="cls-9" d="M264.77,276.61a5,5,0,0,0,4.23,2,3.31,3.31,0,0,0,3.54-3.28A3.24,3.24,0,0,0,269,272a4.8,4.8,0,0,0-3.54,1.45l-1.4-.48v-8.28h9.38v1.7H266v5.34a5.19,5.19,0,0,1,3.59-1.38,4.71,4.71,0,0,1,4.88,4.9c0,3.12-2.37,5.06-5.45,5.06a6.27,6.27,0,0,1-5.41-2.47Z"/><path d="M110.23,408.84h-6.42l-.91,2.2H99.54l5.56-12.73h3.84L114.48,411h-3.34Zm-5.61-2.35h4.77L107,400.65Z"/><path d="M118.45,402.49V411h-3.07V398.31h3.15l6.66,8.24v-8.24h3.07V411h-3Z"/><path d="M133.73,402.49V411h-3.06V398.31h3.15l6.66,8.24v-8.24h3.06V411h-2.95Z"/><path d="M152.77,398.1c4.35,0,7.52,2.74,7.52,6.58s-3.17,6.59-7.52,6.59-7.5-2.75-7.5-6.59S148.44,398.1,152.77,398.1Zm0,2.4a4.18,4.18,0,1,0,4.38,4.18A4.09,4.09,0,0,0,152.77,400.5Z"/><path d="M162,398.31h3.1v7.55c0,1.78,1.1,3,3.35,3s3.29-1.22,3.29-3v-7.55h3.11v7.63c0,3.17-2.05,5.33-6.4,5.33S162,409.09,162,406Z"/><path d="M180.35,402.49V411h-3.07V398.31h3.15l6.66,8.24v-8.24h3.07V411h-3Z"/><path d="M191.88,404.68c0-3.91,3.34-6.58,7.55-6.58a6.78,6.78,0,0,1,6.12,3.11l-2.63,1.14a4,4,0,0,0-3.49-1.85,4.19,4.19,0,1,0,0,8.36,4,4,0,0,0,3.49-1.85l2.63,1.13a6.84,6.84,0,0,1-6.12,3.13C195.22,411.27,191.88,408.59,191.88,404.68Z"/><path d="M207,398.31h10.18v2.32H210v2.77h7v2.33h-7v3h7.12V411H207Z"/><path d="M231.6,401.88,227.54,411h-1.33l-4.06-9.16V411h-3.06V398.31h4.29l3.49,7.94,3.5-7.94h4.31V411H231.6Z"/><path d="M237.09,398.31h10.18v2.32h-7.11v2.77h7v2.33h-7v3h7.11V411H237.09Z"/><path d="M252.29,402.49V411h-3.06V398.31h3.15l6.66,8.24v-8.24h3.06V411h-3Z"/><path d="M267.84,400.69h-4.21v-2.38H275.1v2.38h-4.18V411h-3.08Z"/><path d="M163.25,421c4.35,0,7.52,2.75,7.52,6.59s-3.17,6.59-7.52,6.59-7.51-2.75-7.51-6.59S158.91,421,163.25,421Zm0,2.41a4.18,4.18,0,1,0,4.37,4.18A4.08,4.08,0,0,0,163.25,423.41Z"/><path d="M172.5,421.21h10.17v2.33h-7.11v2.77h7v2.33h-7V434H172.5Z"/><path d="M188.78,427.59c0-3.91,3.34-6.59,7.54-6.59a6.77,6.77,0,0,1,6.12,3.12l-2.63,1.14a4,4,0,0,0-3.49-1.85,4.19,4.19,0,1,0,0,8.36,4,4,0,0,0,3.49-1.85l2.63,1.13a6.82,6.82,0,0,1-6.12,3.13C192.12,434.18,188.78,431.5,188.78,427.59Z"/><path d="M210.66,421c4.35,0,7.52,2.75,7.52,6.59s-3.17,6.59-7.52,6.59-7.5-2.75-7.5-6.59S206.33,421,210.66,421Zm0,2.41a4.18,4.18,0,1,0,4.38,4.18A4.08,4.08,0,0,0,210.66,423.41Z"/><path d="M229.76,428.6H223V434h-3.06V421.21H223v5h6.79v-5h3.09V434h-3.09Z"/><path d="M242.05,421c4.36,0,7.53,2.75,7.53,6.59s-3.17,6.59-7.53,6.59-7.5-2.75-7.5-6.59S237.72,421,242.05,421Zm0,2.41a4.18,4.18,0,1,0,4.38,4.18A4.07,4.07,0,0,0,242.05,423.41Z"/><path d="M256.61,429.38h-2.25V434H251.3V421.21H258c3,0,4.83,1.74,4.83,4.11a3.77,3.77,0,0,1-3.15,3.78l3.23,4.85h-3.51Zm1-5.84h-3.22v3.52h3.22c1.22,0,2.15-.69,2.15-1.76S258.8,423.54,257.58,423.54Z"/><path d="M267.84,423.6h-4.21v-2.39H275.1v2.39h-4.18V434h-3.08Z"/><path class="cls-9" d="M183.21,458.14h-7.77l-1.36,3.4H172l6.16-15.33h2.37l6.19,15.33h-2.12Zm-7.22-1.7h6.65l-3.31-8.53Z"/><path class="cls-9" d="M195.84,460a5.42,5.42,0,0,1-4,1.84c-2.32,0-3.54-1.13-3.54-3.54v-7.84h1.73v7.31c0,1.95,1,2.53,2.48,2.53a4.23,4.23,0,0,0,3.29-1.68v-8.16h1.72v11.1h-1.72Z"/><path class="cls-9" d="M201.87,463.11a4.25,4.25,0,0,0,3.61,1.52c1.84,0,3.56-.9,3.56-3.34V459.7a4.64,4.64,0,0,1-3.73,2c-2.89,0-4.94-2.16-4.94-5.75s2-5.77,4.94-5.77a4.61,4.61,0,0,1,3.73,2v-1.68h1.72v10.78c0,3.68-2.57,4.83-5.28,4.83A5.7,5.7,0,0,1,201,464.4ZM209,453.5a4.09,4.09,0,0,0-3.31-1.8c-2.23,0-3.57,1.77-3.57,4.23s1.34,4.23,3.57,4.23a4.12,4.12,0,0,0,3.31-1.81Z"/><path class="cls-9" d="M221.71,460a5.41,5.41,0,0,1-4,1.84c-2.33,0-3.54-1.13-3.54-3.54v-7.84h1.72v7.31c0,1.95,1,2.53,2.48,2.53a4.23,4.23,0,0,0,3.29-1.68v-8.16h1.73v11.1h-1.73Z"/><path class="cls-9" d="M226.82,458.83a5,5,0,0,0,3.65,1.59c1.71,0,2.63-.76,2.63-1.84s-1.36-1.61-2.86-2c-1.88-.44-4-.94-4-3.24,0-1.73,1.49-3.2,4.14-3.2a5.63,5.63,0,0,1,4.12,1.61l-.81,1.2a4.3,4.3,0,0,0-3.31-1.4c-1.52,0-2.46.68-2.46,1.67s1.26,1.43,2.71,1.77c1.93.44,4.16,1,4.16,3.45,0,1.87-1.49,3.36-4.36,3.36a5.91,5.91,0,0,1-4.49-1.75Z"/><path class="cls-9" d="M237.93,459.22V452h-1.84v-1.52h1.84v-3h1.72v3h2.25V452h-2.25v6.89c0,.83.37,1.43,1.13,1.43a1.68,1.68,0,0,0,1.17-.46l.51,1.29a2.84,2.84,0,0,1-2.07.71C238.75,461.82,237.93,460.88,237.93,459.22Z"/><path class="cls-9" d="M249.79,460c5.52-4.35,8.51-6.9,8.51-9.55,0-2-1.61-2.8-3.2-2.8a5.14,5.14,0,0,0-4.16,1.93l-1.17-1.22A6.63,6.63,0,0,1,255.1,446c2.56,0,5.16,1.45,5.16,4.5s-3.18,6-7.45,9.36h7.51v1.7H249.79Z"/><path class="cls-9" d="M264.76,458.1a5.09,5.09,0,0,0,4.24,2,3.31,3.31,0,0,0,3.54-3.29,3.23,3.23,0,0,0-3.52-3.31,4.8,4.8,0,0,0-3.54,1.45l-1.41-.48v-8.28h9.39v1.7H266v5.33a5.23,5.23,0,0,1,3.59-1.38,4.71,4.71,0,0,1,4.88,4.9c0,3.13-2.37,5.06-5.45,5.06a6.27,6.27,0,0,1-5.41-2.46Z"/><path d="M67.52,609.25H65.28v4.57H62.22V601.08h6.72c3,0,4.83,1.74,4.83,4.11A3.77,3.77,0,0,1,70.62,609l3.24,4.85H70.34Zm1-5.84H65.28v3.52h3.21c1.23,0,2.16-.69,2.16-1.76S69.72,603.41,68.49,603.41Z"/><path d="M79.66,604.37a4.9,4.9,0,0,1,5.22,5.08V610H77.14a2.73,2.73,0,0,0,3,2.14,4.61,4.61,0,0,0,2.78-.92l1.21,1.57a7,7,0,0,1-4.29,1.28c-3.17,0-5.56-1.89-5.56-4.85C74.27,606.52,76.49,604.37,79.66,604.37Zm-2.57,4h5.13a2.29,2.29,0,0,0-2.56-2A2.39,2.39,0,0,0,77.09,608.34Z"/><path d="M86.49,601.08H96.67v2.33H89.55v2.77h7v2.33h-7v5.31H86.49Z"/><path d="M98.37,601.08h10.18v2.33h-7.12v2.77h7v2.33h-7v3h7.12v2.35H98.37Z"/><path d="M110.51,601.08h5.67c4.51,0,7.63,2.54,7.63,6.38s-3.12,6.36-7.63,6.36h-5.67Zm5.67,10.35c2.85,0,4.51-1.81,4.51-4s-1.56-4-4.51-4h-2.61v8Z"/><path d="M130.65,601.08h3.06v10.35h6.08v2.39h-9.14Z"/><path d="M141.49,601.08h10.18v2.33h-7.12v2.77h7v2.33h-7v3h7.12v2.35H141.49Z"/><path d="M162.8,611.62h-6.43l-.91,2.2H152.1l5.56-12.74h3.84L167,613.82H163.7Zm-5.61-2.35H162l-2.37-5.84Z"/><path d="M173.25,609.25H171v4.57H168V601.08h6.73c3,0,4.82,1.74,4.82,4.11a3.77,3.77,0,0,1-3.14,3.78l3.23,4.85h-3.51Zm1-5.84H171v3.52h3.21c1.23,0,2.16-.69,2.16-1.76S175.45,603.41,174.22,603.41Z"/><path d="M184.44,605.26v8.56h-3.06V601.08h3.15l6.66,8.25v-8.25h3.06v12.74H191.3Z"/><path d="M196.67,601.08h3.06v12.74h-3.06Z"/><path d="M205.2,605.26v8.56h-3.06V601.08h3.15l6.66,8.25v-8.25H215v12.74h-2.95Z"/><path d="M224.39,600.87a7,7,0,0,1,6,2.79l-2.54,1.22a4.26,4.26,0,0,0-3.41-1.6,4.19,4.19,0,1,0,0,8.36,5.31,5.31,0,0,0,3.11-1v-1.55h-3.84v-2.33h6.86v4.87a8.48,8.48,0,0,1-6.13,2.4c-4.2,0-7.65-2.59-7.65-6.6S220.19,600.87,224.39,600.87Z"/><path d="M237.61,601.08h3.06v10.35h6.08v2.39h-9.14Z"/><path d="M257.62,611.62h-6.43l-.9,2.2h-3.37l5.57-12.74h3.83l5.55,12.74h-3.35ZM252,609.27h4.77l-2.37-5.84Z"/><path d="M262.77,601.08h7.57c2.74,0,4.14,1.55,4.14,3.25a2.92,2.92,0,0,1-2.48,2.92,3.2,3.2,0,0,1,2.76,3.13c0,1.91-1.45,3.44-4.18,3.44h-7.81Zm6.9,5.12c1,0,1.68-.59,1.68-1.41s-.64-1.4-1.68-1.4h-3.84v2.81Zm.11,5.31c1.16,0,1.85-.6,1.85-1.51s-.64-1.49-1.85-1.49h-3.95v3Z"/><path d="M65.73,633.5H63.68l-1.23,3.23h-2l1.22-3.23H59.58l.56-1.55h2.12l1.16-3.17H61.31l.54-1.52H64l1.2-3.27h2l-1.21,3.27h2L69.29,624h2l-1.25,3.27h2.1l-.52,1.52H69.5L68.32,632h2.17L70,633.5H67.73l-1.2,3.23h-2Zm-.28-4.72L64.28,632h2l1.19-3.17Z"/><path d="M73.12,634.59c5.89-3.84,7.62-5.16,7.62-6.72,0-1.11-1.15-1.66-2.35-1.66a5.44,5.44,0,0,0-3.84,1.47l-1.75-1.8a7.82,7.82,0,0,1,5.54-2.08c3.06,0,5.5,1.53,5.5,4.07,0,2.17-2,4.06-5.89,6.47h6v2.39H73.12Z"/><path d="M100.29,634.53H93.87l-.91,2.2H89.6L95.16,624H99l5.54,12.74H101.2Zm-5.6-2.35h4.76l-2.37-5.84Z"/><path d="M107.38,626.38h-4.2V624h11.47v2.39h-4.18v10.35h-3.09Z"/><path d="M124.59,626.38h-4.2V624h11.47v2.39h-4.19v10.35h-3.08Z"/><path d="M143.24,631.38h-6.79v5.35h-3.06V624h3.06v5h6.79v-5h3.08v12.74h-3.08Z"/><path d="M148.72,624h10.17v2.33h-7.11v2.77h7v2.33h-7v3h7.11v2.35H148.72Z"/><path d="M165.53,634.59c5.89-3.84,7.61-5.16,7.61-6.72,0-1.11-1.14-1.66-2.35-1.66a5.43,5.43,0,0,0-3.83,1.47l-1.75-1.8a7.82,7.82,0,0,1,5.54-2.08c3.06,0,5.5,1.53,5.5,4.07,0,2.17-2,4.06-5.89,6.47h6v2.39H165.53Z"/><path d="M183.71,623.8c4.09,0,5.95,3.29,5.95,6.57S187.8,637,183.71,637s-6-3.3-6-6.58S179.59,623.8,183.71,623.8Zm0,2.41c-2.07,0-2.85,1.81-2.85,4.16s.78,4.18,2.85,4.18,2.82-1.83,2.82-4.18S185.76,626.21,183.71,626.21Z"/><path d="M194.34,627.49l-2.4,2.15L190.2,628l4.53-4h2.67v12.74h-3.06Z"/><path d="M201.19,633.59a4.19,4.19,0,0,0,2.87,1,3.5,3.5,0,0,0,3.6-3.67v-.26a5,5,0,0,1-3.71,1.64c-2.58,0-4.91-1.42-4.91-4.13,0-2.48,2.24-4.37,5.52-4.37,4.35,0,6.19,3,6.19,6.59,0,3.84-2.44,6.57-6.69,6.57a6.77,6.77,0,0,1-4.22-1.32Zm3.5-7.46c-1.64,0-2.53,1-2.53,1.91,0,1.36,1.28,2,2.66,2a3.88,3.88,0,0,0,2.82-1.19A2.8,2.8,0,0,0,204.69,626.13Z"/><path d="M217.58,624h10.18v2.33h-7.12v2.77h7v2.33h-7v5.31h-3.06Z"/><path d="M236.27,623.78c4.36,0,7.53,2.75,7.53,6.59s-3.17,6.58-7.53,6.58-7.5-2.74-7.5-6.58S231.94,623.78,236.27,623.78Zm0,2.41a4.18,4.18,0,1,0,4.38,4.18A4.07,4.07,0,0,0,236.27,626.19Z"/><path d="M252.34,623.78c4.35,0,7.52,2.75,7.52,6.59s-3.17,6.58-7.52,6.58-7.51-2.74-7.51-6.58S248,623.78,252.34,623.78Zm0,2.41a4.18,4.18,0,1,0,4.37,4.18A4.08,4.08,0,0,0,252.34,626.19Z"/><path d="M261.59,624h5.67c4.5,0,7.63,2.54,7.63,6.38s-3.13,6.36-7.63,6.36h-5.67Zm5.67,10.35c2.84,0,4.5-1.81,4.5-4s-1.55-4-4.5-4h-2.61v8Z"/><path d="M129.46,650.89l-2.5,8.75H123.7l-4.11-12.74H123l2.53,9.2,2.74-9.2h2.39l2.72,9.2,2.5-9.2h3.45l-4.1,12.74H132Z"/><path d="M148.56,657.44h-6.42l-.91,2.2h-3.36l5.56-12.74h3.84l5.54,12.74h-3.34Zm-5.6-2.35h4.76l-2.37-5.84Z"/><path d="M154.26,655.78a6.72,6.72,0,0,0,4.57,1.72c1.68,0,2.5-.71,2.5-1.43,0-1-1.25-1.28-2.91-1.63-2.35-.47-5.37-1.05-5.37-3.89,0-2.12,2.07-3.84,5.45-3.84a8.61,8.61,0,0,1,5.61,1.78l-1.7,2a6.65,6.65,0,0,0-4.12-1.39c-1.38,0-2.11.53-2.11,1.3s1.2,1.12,2.86,1.47c2.37.47,5.39,1.1,5.39,3.93,0,2.33-1.87,4.08-5.75,4.08a8.89,8.89,0,0,1-6.1-2Z"/><path d="M169.24,649.29H165V646.9h11.47v2.39h-4.18v10.35h-3.09Z"/><path d="M178,646.9h10.17v2.33H181.1V652h7v2.33h-7v3h7.11v2.35H178Z"/><path d="M196,655.78a6.76,6.76,0,0,0,4.58,1.72c1.68,0,2.5-.71,2.5-1.43,0-1-1.25-1.28-2.91-1.63-2.35-.47-5.37-1.05-5.37-3.89,0-2.12,2.07-3.84,5.45-3.84a8.63,8.63,0,0,1,5.61,1.78l-1.71,2a6.61,6.61,0,0,0-4.11-1.39c-1.38,0-2.12.53-2.12,1.3s1.21,1.12,2.87,1.47c2.37.47,5.39,1.1,5.39,3.93,0,2.33-1.87,4.08-5.76,4.08a8.91,8.91,0,0,1-6.1-2Z"/><path d="M207.77,646.9h3.1v7.56c0,1.78,1.1,3,3.35,3s3.3-1.22,3.3-3V646.9h3.1v7.64c0,3.17-2.05,5.32-6.4,5.32s-6.45-2.17-6.45-5.3Z"/><path d="M235.54,650.47l-4,9.17h-1.34l-4.05-9.17v9.17H223V646.9h4.29l3.49,7.94,3.49-7.94h4.31v12.74h-3.08Z"/><path d="M253.54,650.47l-4,9.17h-1.34l-4.05-9.17v9.17H241V646.9h4.29l3.49,7.94,3.49-7.94h4.32v12.74h-3.09Z"/><path d="M259,646.9h3.06v12.74H259Z"/><path d="M267.84,649.29h-4.21V646.9H275.1v2.39h-4.18v10.35h-3.08Z"/><path class="cls-9" d="M169,671.64c4.53,0,7.62,3.41,7.62,7.94s-3.09,7.93-7.62,7.93-7.61-3.4-7.61-7.93S164.4,671.64,169,671.64Zm0,1.7c-3.44,0-5.63,2.65-5.63,6.24s2.19,6.23,5.63,6.23,5.64-2.67,5.64-6.23S172.38,673.34,169,673.34Z"/><path class="cls-9" d="M184.39,675.85a4.77,4.77,0,0,1,4.07,1.93l-1.15,1.06a3.31,3.31,0,0,0-2.83-1.45c-2.37,0-3.84,1.82-3.84,4.28s1.47,4.3,3.84,4.3a3.35,3.35,0,0,0,2.83-1.45l1.15,1.06a4.77,4.77,0,0,1-4.07,1.93,5.84,5.84,0,0,1,0-11.66Z"/><path class="cls-9" d="M191.22,684.91v-7.27h-1.84v-1.51h1.84v-3h1.72v3h2.26v1.51h-2.26v6.9c0,.83.37,1.43,1.13,1.43a1.68,1.68,0,0,0,1.17-.46l.51,1.29a2.84,2.84,0,0,1-2.07.71C192.05,687.51,191.22,686.57,191.22,684.91Z"/><path class="cls-9" d="M197,681.67c0-3.22,2.12-5.82,5.5-5.82s5.49,2.6,5.49,5.82-2.11,5.84-5.49,5.84S197,684.89,197,681.67Zm9.17,0c0-2.26-1.31-4.28-3.67-4.28s-3.71,2-3.71,4.28,1.34,4.3,3.71,4.3S206.16,684,206.16,681.67Z"/><path class="cls-9" d="M210.79,671.9h1.72v5.91a4.62,4.62,0,0,1,3.75-2c2.9,0,4.94,2.3,4.94,5.84s-2,5.82-4.94,5.82a4.71,4.71,0,0,1-3.75-1.93v1.65h-1.72Zm5,14.07c2.26,0,3.59-1.82,3.59-4.28s-1.33-4.3-3.59-4.3a4.13,4.13,0,0,0-3.31,1.8v5A4.09,4.09,0,0,0,215.82,686Z"/><path class="cls-9" d="M228.84,675.85c3.36,0,5.34,2.62,5.34,6v.43h-9a3.91,3.91,0,0,0,4,3.84,4.83,4.83,0,0,0,3.42-1.4l.83,1.13a6,6,0,0,1-4.42,1.7,5.84,5.84,0,0,1-.18-11.66ZM225.18,681h7.29a3.59,3.59,0,0,0-3.65-3.7A3.72,3.72,0,0,0,225.18,681Z"/><path class="cls-9" d="M237,676.13h1.72v1.79a4.74,4.74,0,0,1,3.71-2v1.77a2.87,2.87,0,0,0-.69-.07,4.07,4.07,0,0,0-3,1.77v7.86H237Z"/><path class="cls-9" d="M250,685.72c5.52-4.35,8.51-6.9,8.51-9.55,0-1.95-1.61-2.8-3.2-2.8a5.13,5.13,0,0,0-4.16,1.93L250,674.08a6.63,6.63,0,0,1,5.33-2.41c2.55,0,5.15,1.44,5.15,4.5s-3.17,6-7.45,9.36h7.52v1.7H250Z"/><path class="cls-9" d="M267.13,679.32c-1.77-.5-3.4-1.65-3.4-3.68,0-2.76,2.69-4,5.24-4s5.27,1.21,5.27,4c0,2-1.66,3.18-3.43,3.68,1.91.58,3.66,2,3.66,4,0,2.6-2.49,4.16-5.5,4.16s-5.49-1.54-5.49-4.16C263.48,681.3,265.22,679.9,267.13,679.32Zm1.84.85c-.94.12-3.58,1-3.58,3,0,1.66,1.67,2.67,3.58,2.67s3.57-1,3.57-2.67C272.54,681.14,269.91,680.29,269,680.17Zm0-6.8c-1.86,0-3.33.94-3.33,2.53,0,1.86,2.41,2.48,3.33,2.64.94-.16,3.34-.78,3.34-2.64C272.31,674.31,270.81,673.37,269,673.37Z"/><rect class="cls-9" x="399.03" y="102.72" width="39.18" height="0.3"/><path class="cls-9" d="M399.09,101.75a1.13,1.13,0,1,0,1.12,1.12A1.12,1.12,0,0,0,399.09,101.75Z"/><rect class="cls-9" x="290.15" y="201.9" width="39.18" height="0.3"/><path class="cls-9" d="M329.27,200.93a1.13,1.13,0,1,1-1.12,1.12A1.12,1.12,0,0,1,329.27,200.93Z"/><rect class="cls-9" x="399.03" y="306.83" width="39.18" height="0.3"/><circle class="cls-9" cx="399.09" cy="306.98" r="1.13"/><rect class="cls-9" x="290.15" y="406.01" width="39.18" height="0.3"/><path class="cls-9" d="M329.27,405a1.13,1.13,0,1,1-1.12,1.13A1.13,1.13,0,0,1,329.27,405Z"/><rect class="cls-9" x="399.03" y="510.94" width="39.18" height="0.3"/><circle class="cls-9" cx="399.09" cy="511.09" r="1.13"/><rect class="cls-9" x="290.15" y="610.12" width="39.18" height="0.3"/><path class="cls-9" d="M329.27,609.14a1.13,1.13,0,1,1-1.12,1.13A1.13,1.13,0,0,1,329.27,609.14Z"/><rect class="cls-9" x="399.03" y="715.05" width="39.18" height="0.3"/><circle class="cls-9" cx="399.09" cy="715.2" r="1.13"/></svg>