<?xml version="1.0" encoding="utf-8"?>
<!-- Generator: Adobe Illustrator 23.0.3, SVG Export Plug-In . SVG Version: 6.00 Build 0)  -->
<svg version="1.1" id="Layer_1" xmlns="http://www.w3.org/2000/svg" xmlns:xlink="http://www.w3.org/1999/xlink" x="0px" y="0px"
	 viewBox="0 0 726.92 918.08" style="enable-background:new 0 0 726.92 918.08;" xml:space="preserve">
<style type="text/css">
	.st0{fill:#EFECE4;}
	.st1{fill:#FFFFFF;}
	.st2{fill:#78B4AB;}
	.st3{fill:#DCDDDE;}
	.st4{fill:#F5F3EE;}
	.st5{fill:#36383A;}
	.st6{opacity:0.5;fill:none;stroke:#737678;stroke-miterlimit:10;}
	.st7{opacity:0.7;}
	.st8{fill:none;stroke:#E9E6DA;stroke-miterlimit:10;}
	.st9{fill:#107669;}
	.st10{fill:#E9E6DA;}
	.st11{fill:#CF3339;}
	.st12{fill:#86A55C;}
	.st13{fill:#68813C;}
	.st14{fill:#A12B2F;}
	.st15{fill:#53575A;}
	.st16{fill:#F6F4EF;}
	.st17{fill:none;stroke:#414042;stroke-width:0.3;stroke-miterlimit:10;}
	.st18{fill:#D5E0C6;}
	.st19{fill:#C8D6B4;}
	.st20{fill:#BBCCA2;}
	.st21{fill:#AEC290;}
	.st22{fill:#A1B97F;}
	.st23{fill:#93AF6D;}
	.st24{fill:#414042;}
	.st25{fill:#EFECE4;stroke:#414042;stroke-width:3;stroke-miterlimit:10;}
	.st26{fill:#414042;stroke:#414042;stroke-width:3;stroke-miterlimit:10;}
	.st27{fill:none;stroke:#414042;stroke-width:3;stroke-miterlimit:10;}
	.st28{fill:none;stroke:#414042;stroke-width:3;stroke-miterlimit:10;stroke-dasharray:3.0344,2.0229;}
	.st29{fill:none;stroke:#414042;stroke-width:3;stroke-miterlimit:10;stroke-dasharray:3.029,2.0193;}
	.st30{fill:#53575A;stroke:#53575A;stroke-miterlimit:10;}
	.st31{fill:#6F6F71;}
	.st32{fill:none;stroke:#414042;stroke-width:3;stroke-linecap:round;stroke-miterlimit:10;}
</style>
<rect x="-113.63" y="81.29" transform="matrix(-1.836970e-16 1 -1 -1.836970e-16 822.5029 95.5801)" class="st0" width="954.19" height="755.51"/>
<rect x="346.21" y="100" class="st18" width="34.5" height="102.59"/>
<rect x="346.21" y="202.59" class="st19" width="34.5" height="102.59"/>
<rect x="346.21" y="305.19" class="st20" width="34.5" height="102.59"/>
<rect x="346.21" y="407.78" class="st21" width="34.5" height="102.59"/>
<rect x="346.21" y="510.37" class="st22" width="34.5" height="102.59"/>
<rect x="346.21" y="612.97" class="st23" width="34.5" height="102.59"/>
<rect x="346.21" y="715.56" class="st12" width="34.5" height="102.59"/>
<g>
	<path d="M453.56,93.31h3.06v10.35h6.08v2.39h-9.14V93.31z"/>
	<path d="M473.57,103.84h-6.43l-0.91,2.2h-3.36l5.56-12.73h3.84l5.54,12.73h-3.34L473.57,103.84z M467.96,101.49h4.77l-2.37-5.84
		L467.96,101.49z"/>
	<path d="M478.01,93.31h3.1v7.56c0,1.78,1.1,3,3.34,3c2.2,0,3.3-1.22,3.3-3v-7.56h3.1v7.64c0,3.17-2.05,5.33-6.4,5.33
		c-4.4,0-6.45-2.18-6.45-5.31V93.31z"/>
	<path d="M496.33,97.49v8.55h-3.06V93.31h3.15l6.66,8.25v-8.25h3.06v12.73h-2.95L496.33,97.49z"/>
	<path d="M507.87,99.68c0-3.91,3.34-6.59,7.55-6.59c3.28,0,5.11,1.53,6.12,3.11l-2.63,1.15c-0.6-1.03-1.9-1.85-3.49-1.85
		c-2.5,0-4.4,1.78-4.4,4.18s1.9,4.18,4.4,4.18c1.6,0,2.89-0.8,3.49-1.85l2.63,1.13c-1.03,1.58-2.85,3.13-6.12,3.13
		C511.21,106.27,507.87,103.59,507.87,99.68z"/>
	<path d="M532.79,100.69H526v5.34h-3.06V93.31H526v5h6.79v-5h3.08v12.73h-3.08V100.69z"/>
	<path d="M550.17,93.1c4.35,0,7.52,2.75,7.52,6.59s-3.17,6.59-7.52,6.59c-4.33,0-7.5-2.75-7.5-6.59S545.84,93.1,550.17,93.1z
		 M550.17,95.5c-2.65,0-4.36,1.79-4.36,4.18c0,2.37,1.7,4.18,4.36,4.18c2.65,0,4.38-1.81,4.38-4.18
		C554.55,97.3,552.82,95.5,550.17,95.5z"/>
	<path d="M559.42,93.31h10.18v2.33h-7.12v2.77h6.96v2.33h-6.96v5.31h-3.06V93.31z"/>
	<path d="M460.37,116c4.35,0,7.52,2.75,7.52,6.59s-3.17,6.59-7.52,6.59c-4.33,0-7.5-2.75-7.5-6.59S456.04,116,460.37,116z
		 M460.37,118.41c-2.65,0-4.36,1.79-4.36,4.18c0,2.37,1.7,4.18,4.36,4.18c2.65,0,4.38-1.81,4.38-4.18
		C464.75,120.2,463.02,118.41,460.37,118.41z"/>
	<path d="M469.62,116.21h6.73c3.13,0,4.83,1.87,4.83,4.1c0,2.21-1.72,4.07-4.83,4.07h-3.67v4.56h-3.06V116.21z M475.94,118.54h-3.26
		v3.51h3.26c1.21,0,2.11-0.69,2.11-1.76C478.05,119.25,477.14,118.54,475.94,118.54z"/>
	<path d="M482.64,116.21h10.18v2.33h-7.11v2.77h6.96v2.33h-6.96v2.96h7.11v2.35h-10.18V116.21z"/>
	<path d="M497.84,120.4v8.55h-3.06v-12.73h3.15l6.66,8.25v-8.25h3.06v12.73h-2.95L497.84,120.4z"/>
	<path d="M514.47,122.59c0-3.91,3.34-6.59,7.55-6.59c3.28,0,5.11,1.53,6.12,3.11l-2.63,1.15c-0.6-1.03-1.9-1.85-3.49-1.85
		c-2.5,0-4.4,1.78-4.4,4.18s1.9,4.18,4.4,4.18c1.6,0,2.89-0.8,3.49-1.85l2.63,1.13c-1.03,1.58-2.85,3.13-6.12,3.13
		C517.81,129.18,514.47,126.5,514.47,122.59z"/>
	<path d="M538.55,126.75h-6.43l-0.91,2.2h-3.36l5.56-12.73h3.84l5.54,12.73h-3.34L538.55,126.75z M532.94,124.4h4.77l-2.37-5.84
		L532.94,124.4z"/>
	<path d="M543.7,116.21h3.06v10.35h6.08v2.39h-9.14V116.21z"/>
	<path d="M554.55,116.21h3.06v10.35h6.08v2.39h-9.14V116.21z"/>
	<path class="st24" d="M453.38,153.6c0.67,0.8,1.56,1.52,2.9,1.52c1.89,0,3.08-1.31,3.08-3.22v-10.69h1.91v10.72
		c0,3.33-2.14,4.9-4.88,4.9c-1.63,0-2.94-0.53-4-1.77L453.38,153.6z"/>
	<path class="st24" d="M472.28,154.98c-0.85,0.97-2.3,1.84-3.96,1.84c-2.32,0-3.54-1.13-3.54-3.54v-7.84h1.72v7.31
		c0,1.95,0.99,2.53,2.48,2.53c1.36,0,2.64-0.78,3.29-1.68v-8.16H474v11.11h-1.72V154.98z"/>
	<path class="st24" d="M484.95,149.28c0-1.95-0.99-2.58-2.48-2.58c-1.36,0-2.64,0.83-3.29,1.72v8.12h-1.72v-11.11h1.72v1.61
		c0.78-0.92,2.3-1.89,3.96-1.89c2.32,0,3.54,1.17,3.54,3.59v7.79h-1.72V149.28z"/>
	<path class="st24" d="M494.95,145.16c3.36,0,5.33,2.62,5.33,5.96v0.44h-8.99c0.14,2.09,1.61,3.84,4,3.84c1.26,0,2.55-0.51,3.43-1.4
		l0.83,1.13c-1.1,1.1-2.6,1.7-4.42,1.7c-3.29,0-5.66-2.37-5.66-5.84C489.48,147.76,491.78,145.16,494.95,145.16z M491.3,150.29h7.29
		c-0.02-1.66-1.13-3.7-3.66-3.7C492.56,146.59,491.39,148.59,491.3,150.29z"/>
	<path class="st24" d="M511.38,143.74l-2.46,2.6l-1.15-1.17l3.84-3.96h1.68v15.34h-1.91V143.74z"/>
	<path class="st24" d="M519.17,143.74l-2.46,2.6l-1.15-1.17l3.84-3.96h1.68v15.34h-1.91V143.74z"/>
</g>
<g>
	<path d="M452.87,303.79c0-3.91,3.34-6.59,7.55-6.59c3.28,0,5.11,1.53,6.12,3.11l-2.63,1.15c-0.6-1.03-1.9-1.85-3.49-1.85
		c-2.5,0-4.4,1.78-4.4,4.18s1.9,4.18,4.4,4.18c1.6,0,2.89-0.8,3.49-1.85l2.63,1.13c-1.03,1.58-2.85,3.13-6.12,3.13
		C456.21,310.38,452.87,307.7,452.87,303.79z"/>
	<path d="M467.94,297.41H471v10.35h6.08v2.39h-9.14V297.41z"/>
	<path d="M485.01,297.2c4.35,0,7.52,2.75,7.52,6.59s-3.17,6.59-7.52,6.59c-4.33,0-7.5-2.75-7.5-6.59S480.68,297.2,485.01,297.2z
		 M485.01,299.61c-2.65,0-4.36,1.79-4.36,4.18c0,2.37,1.7,4.18,4.36,4.18c2.65,0,4.38-1.81,4.38-4.18
		C489.39,301.41,487.67,299.61,485.01,299.61z"/>
	<path d="M494.95,306.29c1.01,0.93,2.59,1.72,4.57,1.72c1.68,0,2.5-0.71,2.5-1.43c0-0.96-1.25-1.28-2.91-1.62
		c-2.35-0.48-5.37-1.05-5.37-3.89c0-2.12,2.07-3.84,5.45-3.84c2.29,0,4.18,0.61,5.61,1.78l-1.7,1.99c-1.16-0.96-2.72-1.39-4.12-1.39
		c-1.38,0-2.11,0.53-2.11,1.3c0,0.86,1.21,1.13,2.87,1.47c2.37,0.48,5.39,1.11,5.39,3.93c0,2.33-1.88,4.08-5.76,4.08
		c-2.76,0-4.74-0.82-6.1-2.02L494.95,306.29z"/>
	<path d="M506.77,297.41h10.18v2.33h-7.12v2.77h6.96v2.33h-6.96v2.96h7.12v2.35h-10.18V297.41z"/>
	<path d="M530.81,297.2c4.35,0,7.52,2.75,7.52,6.59s-3.17,6.59-7.52,6.59c-4.33,0-7.5-2.75-7.5-6.59S526.47,297.2,530.81,297.2z
		 M530.81,299.61c-2.65,0-4.36,1.79-4.36,4.18c0,2.37,1.7,4.18,4.36,4.18c2.65,0,4.38-1.81,4.38-4.18
		C535.19,301.41,533.46,299.61,530.81,299.61z"/>
	<path d="M540.06,297.41h10.18v2.33h-7.12v2.77h6.96v2.33h-6.96v5.31h-3.06V297.41z"/>
	<path d="M460.37,320.11c4.35,0,7.52,2.75,7.52,6.59s-3.17,6.59-7.52,6.59c-4.33,0-7.5-2.75-7.5-6.59S456.04,320.11,460.37,320.11z
		 M460.37,322.52c-2.65,0-4.36,1.79-4.36,4.18c0,2.37,1.7,4.18,4.36,4.18c2.65,0,4.38-1.81,4.38-4.18
		C464.75,324.31,463.02,322.52,460.37,322.52z"/>
	<path d="M469.62,320.32h6.73c3.13,0,4.83,1.87,4.83,4.1c0,2.21-1.72,4.07-4.83,4.07h-3.67v4.56h-3.06V320.32z M475.94,322.65h-3.26
		v3.51h3.26c1.21,0,2.11-0.69,2.11-1.76C478.05,323.36,477.14,322.65,475.94,322.65z"/>
	<path d="M482.64,320.32h10.18v2.33h-7.11v2.77h6.96v2.33h-6.96v2.96h7.11v2.35h-10.18V320.32z"/>
	<path d="M497.84,324.5v8.55h-3.06v-12.73h3.15l6.66,8.25v-8.25h3.06v12.73h-2.95L497.84,324.5z"/>
	<path d="M514.47,326.7c0-3.91,3.34-6.59,7.55-6.59c3.28,0,5.11,1.53,6.12,3.11l-2.63,1.15c-0.6-1.03-1.9-1.85-3.49-1.85
		c-2.5,0-4.4,1.78-4.4,4.18s1.9,4.18,4.4,4.18c1.6,0,2.89-0.8,3.49-1.85l2.63,1.13c-1.03,1.58-2.85,3.13-6.12,3.13
		C517.81,333.29,514.47,330.61,514.47,326.7z"/>
	<path d="M538.55,330.86h-6.43l-0.91,2.2h-3.36l5.56-12.73h3.84l5.54,12.73h-3.34L538.55,330.86z M532.94,328.51h4.77l-2.37-5.84
		L532.94,328.51z"/>
	<path d="M543.7,320.32h3.06v10.35h6.08v2.39h-9.14V320.32z"/>
	<path d="M554.55,320.32h3.06v10.35h6.08v2.39h-9.14V320.32z"/>
	<path class="st24" d="M453.38,357.71c0.67,0.8,1.56,1.52,2.9,1.52c1.89,0,3.08-1.31,3.08-3.22v-10.69h1.91v10.72
		c0,3.33-2.14,4.9-4.88,4.9c-1.63,0-2.94-0.53-4-1.77L453.38,357.71z"/>
	<path class="st24" d="M472.28,359.09c-0.85,0.97-2.3,1.84-3.96,1.84c-2.32,0-3.54-1.13-3.54-3.54v-7.84h1.72v7.31
		c0,1.95,0.99,2.53,2.48,2.53c1.36,0,2.64-0.78,3.29-1.68v-8.16H474v11.11h-1.72V359.09z"/>
	<path class="st24" d="M477.45,345.32h1.72v15.34h-1.72V345.32z"/>
	<path class="st24" d="M483.23,363.62c0.76,0,1.27-0.25,1.66-1.17l0.74-1.68l-4.65-11.22h1.86l3.7,9.11l3.68-9.11h1.89l-5.56,13.36
		c-0.67,1.61-1.79,2.23-3.27,2.25c-0.37,0-0.94-0.07-1.26-0.16l0.28-1.56C482.54,363.55,482.95,363.62,483.23,363.62z"/>
	<path class="st24" d="M502.2,347.85l-2.46,2.6l-1.15-1.17l3.84-3.96h1.68v15.34h-1.91V347.85z"/>
	<path class="st24" d="M512.94,345.09c4.19,0,5.86,4.16,5.86,7.91c0,3.72-1.68,7.93-5.86,7.93c-4.21,0-5.86-4.21-5.86-7.93
		C507.08,349.25,508.73,345.09,512.94,345.09z M512.94,346.79c-2.92,0-3.91,3.15-3.91,6.21s0.99,6.23,3.91,6.23s3.91-3.17,3.91-6.23
		S515.86,346.79,512.94,346.79z"/>
</g>
<g>
	<path d="M462.8,488.95h-6.43l-0.91,2.2h-3.36l5.56-12.73h3.84l5.54,12.73h-3.34L462.8,488.95z M457.19,486.61h4.77l-2.37-5.84
		L457.19,486.61z"/>
	<path d="M466.53,484.79c0-3.91,3.34-6.59,7.55-6.59c3.28,0,5.11,1.53,6.12,3.11l-2.63,1.15c-0.6-1.03-1.9-1.85-3.49-1.85
		c-2.5,0-4.4,1.78-4.4,4.18s1.9,4.18,4.4,4.18c1.6,0,2.89-0.8,3.49-1.85l2.63,1.13c-1.03,1.58-2.85,3.13-6.12,3.13
		C469.87,491.38,466.53,488.71,466.53,484.79z"/>
	<path d="M480.91,484.79c0-3.91,3.34-6.59,7.55-6.59c3.28,0,5.11,1.53,6.12,3.11l-2.63,1.15c-0.6-1.03-1.9-1.85-3.49-1.85
		c-2.5,0-4.4,1.78-4.4,4.18s1.9,4.18,4.4,4.18c1.6,0,2.89-0.8,3.49-1.85l2.63,1.13c-1.03,1.58-2.85,3.13-6.12,3.13
		C484.25,491.38,480.91,488.71,480.91,484.79z"/>
	<path d="M495.98,478.42h10.18v2.33h-7.12v2.77H506v2.33h-6.96v2.96h7.12v2.35h-10.18V478.42z"/>
	<path d="M508.12,478.42h3.06v10.35h6.08v2.39h-9.14V478.42z"/>
	<path d="M518.96,478.42h10.18v2.33h-7.12v2.77h6.96v2.33h-6.96v2.96h7.12v2.35h-10.18V478.42z"/>
	<path d="M536.4,486.59h-2.24v4.56h-3.06v-12.73h6.73c3,0,4.83,1.74,4.83,4.1c0,2.25-1.6,3.46-3.15,3.78l3.23,4.85h-3.51
		L536.4,486.59z M537.37,480.75h-3.21v3.51h3.21c1.23,0,2.16-0.69,2.16-1.76C539.53,481.43,538.6,480.75,537.37,480.75z"/>
	<path d="M553.7,488.95h-6.43l-0.91,2.2H543l5.56-12.73h3.84l5.54,12.73h-3.34L553.7,488.95z M548.09,486.61h4.77l-2.37-5.84
		L548.09,486.61z"/>
	<path d="M560.79,480.8h-4.2v-2.39h11.47v2.39h-4.18v10.35h-3.08V480.8z"/>
	<path d="M575.88,478.21c4.35,0,7.52,2.75,7.52,6.59s-3.17,6.59-7.52,6.59c-4.33,0-7.5-2.75-7.5-6.59S571.55,478.21,575.88,478.21z
		 M575.88,480.61c-2.65,0-4.36,1.79-4.36,4.18c0,2.37,1.7,4.18,4.36,4.18c2.65,0,4.38-1.81,4.38-4.18
		C580.26,482.41,578.53,480.61,575.88,480.61z"/>
	<path d="M590.43,486.59h-2.24v4.56h-3.06v-12.73h6.73c3,0,4.83,1.74,4.83,4.1c0,2.25-1.6,3.46-3.15,3.78l3.23,4.85h-3.51
		L590.43,486.59z M591.41,480.75h-3.21v3.51h3.21c1.23,0,2.16-0.69,2.16-1.76C593.56,481.43,592.63,480.75,591.41,480.75z"/>
	<path d="M454.32,510.2c1.01,0.93,2.59,1.72,4.57,1.72c1.68,0,2.5-0.71,2.5-1.43c0-0.96-1.25-1.28-2.91-1.62
		c-2.35-0.48-5.37-1.05-5.37-3.89c0-2.12,2.07-3.84,5.45-3.84c2.29,0,4.18,0.61,5.61,1.78l-1.7,1.99c-1.16-0.96-2.72-1.39-4.12-1.39
		c-1.38,0-2.11,0.53-2.11,1.3c0,0.86,1.21,1.13,2.87,1.47c2.37,0.48,5.39,1.11,5.39,3.93c0,2.33-1.88,4.08-5.76,4.08
		c-2.76,0-4.74-0.82-6.1-2.02L454.32,510.2z"/>
	<path d="M469.31,503.71h-4.2v-2.39h11.47v2.39h-4.18v10.35h-3.08V503.71z"/>
	<path d="M485.89,511.86h-6.43l-0.91,2.2h-3.36l5.56-12.73h3.84l5.54,12.73h-3.34L485.89,511.86z M480.28,509.52h4.77l-2.37-5.84
		L480.28,509.52z"/>
	<path d="M496.34,509.5h-2.24v4.56h-3.06v-12.73h6.73c3,0,4.83,1.74,4.83,4.1c0,2.25-1.6,3.46-3.15,3.78l3.23,4.85h-3.51
		L496.34,509.5z M497.31,503.66h-3.21v3.51h3.21c1.23,0,2.16-0.69,2.16-1.76C499.47,504.34,498.54,503.66,497.31,503.66z"/>
	<path d="M507.58,503.71h-4.2v-2.39h11.47v2.39h-4.18v10.35h-3.08V503.71z"/>
	<path d="M530.62,511.86h-6.43l-0.91,2.2h-3.36l5.56-12.73h3.84l5.54,12.73h-3.34L530.62,511.86z M525.02,509.52h4.77l-2.37-5.84
		L525.02,509.52z"/>
	<path d="M538.84,505.51v8.55h-3.06v-12.73h3.15l6.66,8.25v-8.25h3.06v12.73h-2.95L538.84,505.51z"/>
	<path d="M551.06,501.33h5.67c4.51,0,7.63,2.54,7.63,6.38s-3.13,6.36-7.63,6.36h-5.67V501.33z M556.73,511.67
		c2.85,0,4.51-1.81,4.51-3.97c0-2.25-1.55-3.99-4.51-3.99h-2.61v7.96H556.73z"/>
	<path d="M576.51,509.5h-2.24v4.56h-3.06v-12.73h6.73c3,0,4.83,1.74,4.83,4.1c0,2.25-1.6,3.46-3.15,3.78l3.23,4.85h-3.51
		L576.51,509.5z M577.48,503.66h-3.21v3.51h3.21c1.23,0,2.16-0.69,2.16-1.76C579.63,504.34,578.71,503.66,577.48,503.66z"/>
	<path d="M588.64,504.61c3.1,0,5.22,2.06,5.22,5.08v0.53h-7.74c0.17,1.16,1.23,2.14,3,2.14c0.97,0,2.11-0.34,2.78-0.92l1.21,1.57
		c-1.03,0.84-2.67,1.28-4.29,1.28c-3.17,0-5.56-1.89-5.56-4.85C583.25,506.77,585.47,504.61,588.64,504.61z M586.08,508.58h5.13
		c-0.06-0.88-0.75-2.04-2.57-2.04C586.94,506.54,586.21,507.66,586.08,508.58z"/>
	<path d="M595.48,501.33h10.18v2.33h-7.11v2.77h6.96v2.33h-6.96v5.31h-3.06V501.33z"/>
	<path d="M607.36,501.33h10.18v2.33h-7.11v2.77h6.96v2.33h-6.96v2.96h7.11v2.35h-10.18V501.33z"/>
	<path d="M619.5,501.33h5.67c4.51,0,7.63,2.54,7.63,6.38s-3.13,6.36-7.63,6.36h-5.67V501.33z M625.17,511.67
		c2.85,0,4.51-1.81,4.51-3.97c0-2.25-1.55-3.99-4.51-3.99h-2.61v7.96H625.17z"/>
	<path d="M453.63,524.24h3.06v10.35h6.08v2.39h-9.14V524.24z"/>
	<path d="M464.48,524.24h10.18v2.33h-7.12v2.77h6.96v2.33h-6.96v2.96h7.12v2.35h-10.18V524.24z"/>
	<path d="M485.78,534.77h-6.43l-0.91,2.2h-3.36l5.56-12.73h3.84l5.54,12.73h-3.34L485.78,534.77z M480.17,532.43h4.77l-2.37-5.84
		L480.17,532.43z"/>
	<path d="M496.24,532.41h-2.24v4.56h-3.06v-12.73h6.73c3,0,4.83,1.74,4.83,4.1c0,2.25-1.6,3.46-3.15,3.78l3.23,4.85h-3.51
		L496.24,532.41z M497.21,526.57h-3.21v3.51h3.21c1.23,0,2.16-0.69,2.16-1.76C499.36,527.25,498.44,526.57,497.21,526.57z"/>
	<path d="M507.43,528.42v8.55h-3.06v-12.73h3.15l6.66,8.25v-8.25h3.06v12.73h-2.95L507.43,528.42z"/>
	<path d="M519.65,524.24h3.06v12.73h-3.06V524.24z"/>
	<path d="M528.19,528.42v8.55h-3.06v-12.73h3.15l6.66,8.25v-8.25H538v12.73h-2.95L528.19,528.42z"/>
	<path d="M547.38,524.03c2.98,0,4.85,1.28,5.95,2.79l-2.54,1.22c-0.67-0.9-1.9-1.6-3.41-1.6c-2.61,0-4.51,1.78-4.51,4.18
		s1.9,4.18,4.51,4.18c1.31,0,2.48-0.48,3.1-0.97v-1.55h-3.84v-2.33h6.86v4.87c-1.47,1.45-3.51,2.41-6.12,2.41
		c-4.2,0-7.65-2.6-7.65-6.6C539.72,526.58,543.17,524.03,547.38,524.03z"/>
	<path d="M560.59,524.24h3.06v10.35h6.08v2.39h-9.14V524.24z"/>
	<path d="M580.6,534.77h-6.43l-0.91,2.2h-3.36l5.56-12.73h3.84l5.54,12.73h-3.34L580.6,534.77z M575,532.43h4.77l-2.37-5.84
		L575,532.43z"/>
	<path d="M585.76,524.24h7.57c2.74,0,4.14,1.55,4.14,3.25c0,1.6-1.12,2.67-2.48,2.92c1.53,0.21,2.76,1.53,2.76,3.13
		c0,1.91-1.44,3.44-4.18,3.44h-7.81V524.24z M592.65,529.35c1.04,0,1.68-0.59,1.68-1.41c0-0.78-0.65-1.39-1.68-1.39h-3.84v2.81
		H592.65z M592.76,534.66c1.16,0,1.85-0.59,1.85-1.51c0-0.8-0.65-1.49-1.85-1.49h-3.95v3H592.76z"/>
	<path d="M609.8,533.74h-2.05l-1.23,3.23h-2.03l1.23-3.23h-2.07l0.56-1.55h2.11l1.16-3.17h-2.11l0.54-1.53h2.18l1.21-3.26h2.03
		l-1.21,3.26h2.03l1.21-3.26h2.05l-1.25,3.26h2.09l-0.52,1.53h-2.16l-1.19,3.17h2.18l-0.54,1.55h-2.22l-1.21,3.23h-2.05
		L609.8,533.74z M609.52,529.03l-1.16,3.17h2l1.19-3.17H609.52z"/>
	<path d="M620.56,527.73l-2.39,2.16l-1.75-1.62l4.53-4.03h2.67v12.73h-3.06V527.73z"/>
	<path class="st24" d="M454.21,560.96c1.01,1.13,2.67,2.18,4.83,2.18c2.74,0,3.61-1.47,3.61-2.64c0-1.84-1.86-2.35-3.89-2.9
		c-2.46-0.64-5.2-1.33-5.2-4.35c0-2.53,2.25-4.25,5.27-4.25c2.35,0,4.16,0.78,5.45,2.14l-1.15,1.4c-1.15-1.26-2.76-1.84-4.44-1.84
		c-1.84,0-3.15,0.99-3.15,2.44c0,1.54,1.77,2,3.73,2.53c2.51,0.67,5.36,1.45,5.36,4.67c0,2.23-1.52,4.51-5.66,4.51
		c-2.67,0-4.62-1.01-5.89-2.44L454.21,560.96z"/>
	<path class="st24" d="M472.24,553.18c3.36,0,5.33,2.62,5.33,5.96v0.44h-8.99c0.14,2.09,1.61,3.84,4,3.84c1.26,0,2.55-0.51,3.43-1.4
		l0.83,1.13c-1.1,1.1-2.6,1.7-4.42,1.7c-3.29,0-5.66-2.37-5.66-5.84C466.77,555.78,469.07,553.18,472.24,553.18z M468.58,558.31
		h7.29c-0.02-1.66-1.13-3.7-3.66-3.7C469.85,554.61,468.68,556.61,468.58,558.31z"/>
	<path class="st24" d="M480.36,568.8v-15.34h1.72v1.66c0.8-1.13,2.18-1.93,3.75-1.93c2.92,0,4.94,2.21,4.94,5.82
		c0,3.59-2.02,5.84-4.94,5.84c-1.52,0-2.85-0.71-3.75-1.96v5.91H480.36z M485.39,554.73c-1.36,0-2.71,0.8-3.31,1.77v5.01
		c0.6,0.97,1.95,1.79,3.31,1.79c2.23,0,3.56-1.84,3.56-4.3C488.96,556.54,487.63,554.73,485.39,554.73z"/>
	<path class="st24" d="M493.9,562.24v-7.27h-1.84v-1.52h1.84v-3.04h1.72v3.04h2.25v1.52h-2.25v6.9c0,0.83,0.37,1.43,1.13,1.43
		c0.48,0,0.94-0.21,1.17-0.46l0.51,1.29c-0.44,0.41-1.06,0.71-2.07,0.71C494.73,564.84,493.9,563.9,493.9,562.24z"/>
	<path class="st24" d="M505.15,553.18c3.36,0,5.33,2.62,5.33,5.96v0.44h-8.99c0.14,2.09,1.61,3.84,4,3.84c1.26,0,2.55-0.51,3.43-1.4
		l0.83,1.13c-1.1,1.1-2.6,1.7-4.42,1.7c-3.29,0-5.66-2.37-5.66-5.84C499.68,555.78,501.98,553.18,505.15,553.18z M501.49,558.31
		h7.29c-0.02-1.66-1.13-3.7-3.66-3.7C502.76,554.61,501.59,556.61,501.49,558.31z"/>
	<path class="st24" d="M526.67,557.03c0-1.4-0.62-2.3-2.05-2.3c-1.15,0-2.37,0.83-2.94,1.7v8.14h-1.72v-7.54c0-1.4-0.6-2.3-2.05-2.3
		c-1.13,0-2.32,0.83-2.92,1.72v8.12h-1.72v-11.11h1.72v1.61c0.46-0.71,1.95-1.89,3.59-1.89c1.7,0,2.67,0.92,2.99,2.07
		c0.62-1.01,2.12-2.07,3.73-2.07c2.02,0,3.1,1.13,3.1,3.36v8.03h-1.72V557.03z"/>
	<path class="st24" d="M531.85,549.23h1.72v5.91c0.9-1.22,2.23-1.96,3.75-1.96c2.9,0,4.94,2.3,4.94,5.84c0,3.61-2.05,5.82-4.94,5.82
		c-1.56,0-2.92-0.81-3.75-1.93v1.66h-1.72V549.23z M536.89,563.3c2.25,0,3.59-1.82,3.59-4.28c0-2.46-1.33-4.3-3.59-4.3
		c-1.36,0-2.71,0.83-3.31,1.79v5.04C534.17,562.52,535.53,563.3,536.89,563.3z"/>
	<path class="st24" d="M549.9,553.18c3.36,0,5.33,2.62,5.33,5.96v0.44h-8.99c0.14,2.09,1.61,3.84,4,3.84c1.26,0,2.55-0.51,3.43-1.4
		l0.83,1.13c-1.1,1.1-2.6,1.7-4.42,1.7c-3.29,0-5.66-2.37-5.66-5.84C544.43,555.78,546.73,553.18,549.9,553.18z M546.25,558.31h7.29
		c-0.02-1.66-1.13-3.7-3.66-3.7C547.51,554.61,546.34,556.61,546.25,558.31z"/>
	<path class="st24" d="M558.02,553.46h1.72v1.79c0.9-1.17,2.18-2.02,3.7-2.02V555c-0.21-0.05-0.41-0.07-0.69-0.07
		c-1.06,0-2.51,0.87-3.01,1.77v7.86h-1.72V553.46z"/>
	<path class="st24" d="M573.91,551.76l-2.46,2.6l-1.15-1.17l3.84-3.96h1.68v15.34h-1.91V551.76z"/>
	<path class="st24" d="M584.65,549c4.19,0,5.86,4.16,5.86,7.91c0,3.72-1.68,7.93-5.86,7.93c-4.21,0-5.86-4.21-5.86-7.93
		C578.79,553.16,580.44,549,584.65,549z M584.65,550.7c-2.92,0-3.91,3.15-3.91,6.21s0.99,6.23,3.91,6.23s3.91-3.17,3.91-6.23
		S587.57,550.7,584.65,550.7z"/>
</g>
<g>
	<path d="M462.03,685.19l-2.5,8.74h-3.26l-4.12-12.73h3.43l2.52,9.2l2.74-9.2h2.39l2.72,9.2l2.5-9.2h3.45l-4.1,12.73h-3.26
		L462.03,685.19z"/>
	<path d="M472.92,681.2h3.06v12.73h-3.06V681.2z"/>
	<path d="M481.46,685.38v8.55h-3.06V681.2h3.15l6.66,8.25v-8.25h3.06v12.73h-2.95L481.46,685.38z"/>
	<path d="M496.74,685.38v8.55h-3.06V681.2h3.15l6.66,8.25v-8.25h3.06v12.73h-2.95L496.74,685.38z"/>
	<path d="M508.97,681.2h10.18v2.33h-7.11v2.77h6.96v2.33h-6.96v2.96h7.11v2.35h-10.18V681.2z"/>
	<path d="M526.41,689.37h-2.24v4.56h-3.06V681.2h6.73c3,0,4.83,1.74,4.83,4.1c0,2.25-1.6,3.46-3.15,3.78l3.23,4.85h-3.51
		L526.41,689.37z M527.38,683.53h-3.21v3.51h3.21c1.23,0,2.16-0.69,2.16-1.76C529.54,684.21,528.61,683.53,527.38,683.53z"/>
	<path d="M534,687.57c0-3.07,1.32-6.34,3.41-8.44l1.73,1.15c-1.44,2.33-2.18,4.43-2.18,7.29s0.73,4.96,2.18,7.25l-1.73,1.18
		C535.31,693.93,534,690.65,534,687.57z"/>
	<path d="M541.2,690.07c1.01,0.93,2.59,1.72,4.57,1.72c1.68,0,2.5-0.71,2.5-1.43c0-0.96-1.25-1.28-2.91-1.62
		c-2.35-0.48-5.37-1.05-5.37-3.89c0-2.12,2.07-3.84,5.45-3.84c2.29,0,4.18,0.61,5.61,1.78l-1.7,1.99c-1.16-0.96-2.72-1.39-4.12-1.39
		c-1.38,0-2.11,0.53-2.11,1.3c0,0.86,1.21,1.13,2.87,1.47c2.37,0.48,5.39,1.11,5.39,3.93c0,2.33-1.88,4.08-5.76,4.08
		c-2.76,0-4.74-0.82-6.1-2.02L541.2,690.07z"/>
	<path d="M551.96,680.28l1.72-1.15c2.11,2.1,3.45,5.36,3.45,8.44s-1.34,6.36-3.45,8.44l-1.72-1.18c1.49-2.29,2.2-4.39,2.2-7.25
		S553.45,682.61,551.96,680.28z"/>
	<path d="M454.25,712.98c1.01,0.93,2.59,1.72,4.57,1.72c1.68,0,2.5-0.71,2.5-1.43c0-0.96-1.25-1.28-2.91-1.62
		c-2.35-0.48-5.37-1.05-5.37-3.89c0-2.12,2.07-3.84,5.45-3.84c2.29,0,4.18,0.61,5.61,1.78l-1.7,1.98c-1.16-0.95-2.72-1.39-4.12-1.39
		c-1.38,0-2.11,0.53-2.11,1.3c0,0.86,1.21,1.13,2.87,1.47c2.37,0.48,5.39,1.11,5.39,3.93c0,2.33-1.88,4.08-5.76,4.08
		c-2.76,0-4.74-0.82-6.1-2.02L454.25,712.98z"/>
	<path d="M466.06,704.11h10.18v2.33h-7.11v2.77h6.96v2.33h-6.96v2.96h7.11v2.35h-10.18V704.11z"/>
	<path d="M478.2,704.11h3.06v10.35h6.08v2.39h-9.14V704.11z"/>
	<path d="M489.05,704.11h10.18v2.33h-7.12v2.77h6.96v2.33h-6.96v2.96h7.12v2.35h-10.18V704.11z"/>
	<path d="M500.49,710.48c0-3.91,3.34-6.59,7.55-6.59c3.28,0,5.11,1.53,6.12,3.11l-2.63,1.15c-0.6-1.03-1.9-1.85-3.49-1.85
		c-2.5,0-4.4,1.78-4.4,4.18s1.9,4.18,4.4,4.18c1.6,0,2.89-0.8,3.49-1.85l2.63,1.13c-1.03,1.58-2.85,3.13-6.12,3.13
		C503.84,717.07,500.49,714.39,500.49,710.48z"/>
	<path d="M518.89,706.49h-4.2v-2.39h11.47v2.39h-4.18v10.35h-3.08V706.49z"/>
	<path d="M527.68,704.11h3.06v12.73h-3.06V704.11z"/>
	<path d="M539.97,703.9c4.35,0,7.52,2.75,7.52,6.59s-3.17,6.59-7.52,6.59c-4.33,0-7.5-2.75-7.5-6.59S535.64,703.9,539.97,703.9z
		 M539.97,706.3c-2.65,0-4.36,1.79-4.36,4.18c0,2.37,1.7,4.18,4.36,4.18c2.65,0,4.38-1.81,4.38-4.18
		C544.35,708.1,542.62,706.3,539.97,706.3z"/>
	<path d="M552.28,708.29v8.55h-3.06v-12.73h3.15l6.66,8.25v-8.25h3.06v12.73h-2.95L552.28,708.29z"/>
	<path d="M578.76,714.64h-6.43l-0.91,2.2h-3.36l5.56-12.73h3.84l5.54,12.73h-3.34L578.76,714.64z M573.15,712.29h4.77l-2.37-5.84
		L573.15,712.29z"/>
	<path d="M586.97,708.29v8.55h-3.06v-12.73h3.15l6.66,8.25v-8.25h3.06v12.73h-2.95L586.97,708.29z"/>
	<path d="M599.2,704.11h5.67c4.51,0,7.63,2.54,7.63,6.38s-3.13,6.36-7.63,6.36h-5.67V704.11z M604.87,714.45
		c2.85,0,4.51-1.81,4.51-3.97c0-2.25-1.55-3.99-4.51-3.99h-2.61v7.96H604.87z"/>
	<path d="M458.86,735.19h-2.24v4.56h-3.06v-12.73h6.73c3,0,4.83,1.74,4.83,4.1c0,2.25-1.6,3.46-3.15,3.78l3.23,4.85h-3.51
		L458.86,735.19z M459.83,729.34h-3.21v3.51h3.21c1.23,0,2.16-0.69,2.16-1.76C461.99,730.03,461.06,729.34,459.83,729.34z"/>
	<path d="M471,730.3c3.1,0,5.22,2.06,5.22,5.08v0.53h-7.74c0.17,1.16,1.23,2.14,3,2.14c0.97,0,2.11-0.34,2.78-0.92l1.21,1.57
		c-1.03,0.84-2.67,1.28-4.29,1.28c-3.17,0-5.56-1.89-5.56-4.85C465.61,732.46,467.83,730.3,471,730.3z M468.43,734.27h5.13
		c-0.06-0.88-0.75-2.04-2.57-2.04C469.3,732.23,468.56,733.35,468.43,734.27z"/>
	<path d="M477.83,727.02h10.18v2.33h-7.11v2.77h6.96v2.33h-6.96v5.31h-3.06V727.02z"/>
	<path d="M489.71,727.02h10.18v2.33h-7.11v2.77h6.96v2.33h-6.96v2.96h7.11v2.35h-10.18V727.02z"/>
	<path d="M501.85,727.02h5.67c4.51,0,7.63,2.54,7.63,6.38s-3.13,6.36-7.63,6.36h-5.67V727.02z M507.52,737.36
		c2.85,0,4.51-1.81,4.51-3.97c0-2.25-1.55-3.99-4.51-3.99h-2.61v7.96H507.52z"/>
	<path d="M521.99,727.02h3.06v10.35h6.08v2.39h-9.14V727.02z"/>
	<path d="M532.83,727.02h10.18v2.33h-7.11v2.77h6.96v2.33h-6.96v2.96h7.11v2.35h-10.18V727.02z"/>
	<path d="M554.14,737.55h-6.43l-0.91,2.2h-3.36l5.56-12.73h3.84l5.54,12.73h-3.34L554.14,737.55z M548.53,735.2h4.77l-2.37-5.84
		L548.53,735.2z"/>
	<path d="M564.59,735.19h-2.24v4.56h-3.06v-12.73h6.73c3,0,4.83,1.74,4.83,4.1c0,2.25-1.6,3.46-3.15,3.78l3.23,4.85h-3.51
		L564.59,735.19z M565.56,729.34h-3.21v3.51h3.21c1.23,0,2.16-0.69,2.16-1.76C567.72,730.03,566.79,729.34,565.56,729.34z"/>
	<path d="M575.78,731.2v8.55h-3.06v-12.73h3.15l6.66,8.25v-8.25h3.06v12.73h-2.95L575.78,731.2z"/>
	<path d="M588.01,727.02h3.06v12.73h-3.06V727.02z"/>
	<path d="M596.55,731.2v8.55h-3.06v-12.73h3.15l6.66,8.25v-8.25h3.06v12.73h-2.95L596.55,731.2z"/>
	<path d="M615.73,726.81c2.98,0,4.85,1.28,5.95,2.79l-2.54,1.22c-0.67-0.9-1.9-1.6-3.41-1.6c-2.61,0-4.51,1.78-4.51,4.18
		s1.9,4.18,4.51,4.18c1.31,0,2.48-0.48,3.1-0.97v-1.55H615v-2.33h6.86v4.87c-1.47,1.45-3.51,2.41-6.12,2.41
		c-4.2,0-7.65-2.6-7.65-6.6C608.08,729.36,611.53,726.81,615.73,726.81z"/>
	<path d="M453.56,749.92h3.06v10.35h6.08v2.39h-9.14V749.92z"/>
	<path d="M473.57,760.46h-6.43l-0.91,2.2h-3.36l5.56-12.73h3.84l5.54,12.73h-3.34L473.57,760.46z M467.96,758.11h4.77l-2.37-5.84
		L467.96,758.11z"/>
	<path d="M478.72,749.92h7.57c2.74,0,4.14,1.55,4.14,3.25c0,1.6-1.12,2.67-2.48,2.92c1.53,0.21,2.76,1.53,2.76,3.13
		c0,1.91-1.44,3.44-4.18,3.44h-7.81V749.92z M485.62,755.04c1.04,0,1.68-0.59,1.68-1.41c0-0.78-0.65-1.39-1.68-1.39h-3.84v2.81
		H485.62z M485.73,760.35c1.16,0,1.85-0.59,1.85-1.51c0-0.8-0.65-1.49-1.85-1.49h-3.95v3H485.73z"/>
	<path d="M502.76,759.43h-2.05l-1.23,3.23h-2.03l1.23-3.23h-2.07l0.56-1.55h2.11l1.16-3.17h-2.11l0.54-1.53h2.18l1.21-3.26h2.03
		l-1.21,3.26h2.03l1.21-3.26h2.05l-1.25,3.26h2.09l-0.52,1.53h-2.16l-1.19,3.17h2.18l-0.54,1.55h-2.22l-1.21,3.23h-2.05
		L502.76,759.43z M502.48,754.72l-1.16,3.17h2l1.19-3.17H502.48z"/>
	<path d="M511.17,759.07c0.99,0.92,2.57,1.45,3.97,1.45c1.75,0,2.72-0.67,2.72-1.64c0-1.03-0.88-1.51-2.89-1.51
		c-0.6,0-1.57,0-1.79,0.02v-2.37c0.26,0.02,1.25,0.02,1.79,0.02c1.6,0,2.65-0.46,2.65-1.41c0-1.01-1.16-1.53-2.67-1.53
		c-1.38,0-2.65,0.48-3.67,1.34l-1.51-1.68c1.16-1.17,2.98-2.02,5.5-2.02c3.36,0,5.43,1.34,5.43,3.46c0,1.6-1.55,2.65-3.15,2.9
		c1.47,0.13,3.36,1.15,3.36,3.05c0,2.2-2.22,3.74-5.67,3.74c-2.65,0-4.61-0.9-5.67-2.04L511.17,759.07z"/>
	<path class="st24" d="M453.93,774.92h5.24c4.76,0,7.86,3.33,7.86,7.68c0,4.37-3.1,7.66-7.86,7.66h-5.24V774.92z M459.17,788.55
		c3.73,0,5.89-2.67,5.89-5.96c0-3.31-2.09-5.98-5.89-5.98h-3.33v11.93H459.17z"/>
	<path class="st24" d="M474.79,778.87c3.36,0,5.33,2.62,5.33,5.96v0.44h-8.99c0.14,2.09,1.61,3.84,4,3.84c1.26,0,2.55-0.51,3.43-1.4
		l0.83,1.13c-1.1,1.1-2.6,1.7-4.42,1.7c-3.29,0-5.66-2.37-5.66-5.84C469.31,781.47,471.61,778.87,474.79,778.87z M471.13,784h7.29
		c-0.02-1.66-1.13-3.7-3.66-3.7C472.39,780.3,471.22,782.3,471.13,784z"/>
	<path class="st24" d="M487.8,778.87c2.02,0,3.22,0.83,4.07,1.93l-1.15,1.06c-0.74-1.01-1.68-1.45-2.83-1.45
		c-2.37,0-3.84,1.82-3.84,4.28c0,2.46,1.47,4.3,3.84,4.3c1.15,0,2.09-0.46,2.83-1.45l1.15,1.06c-0.85,1.1-2.05,1.93-4.07,1.93
		c-3.31,0-5.54-2.53-5.54-5.84C482.26,781.4,484.49,778.87,487.8,778.87z"/>
	<path class="st24" d="M499.12,778.87c3.36,0,5.33,2.62,5.33,5.96v0.44h-8.99c0.14,2.09,1.61,3.84,4,3.84c1.26,0,2.55-0.51,3.43-1.4
		l0.83,1.13c-1.1,1.1-2.6,1.7-4.42,1.7c-3.29,0-5.66-2.37-5.66-5.84C493.64,781.47,495.94,778.87,499.12,778.87z M495.46,784h7.29
		c-0.02-1.66-1.13-3.7-3.66-3.7C496.73,780.3,495.55,782.3,495.46,784z"/>
	<path class="st24" d="M520.64,782.71c0-1.4-0.62-2.3-2.05-2.3c-1.15,0-2.37,0.83-2.94,1.7v8.14h-1.72v-7.54c0-1.4-0.6-2.3-2.05-2.3
		c-1.13,0-2.32,0.83-2.92,1.72v8.12h-1.72v-11.11h1.72v1.61c0.46-0.71,1.95-1.89,3.59-1.89c1.7,0,2.67,0.92,2.99,2.07
		c0.62-1.01,2.12-2.07,3.73-2.07c2.02,0,3.1,1.13,3.1,3.36v8.03h-1.72V782.71z"/>
	<path class="st24" d="M525.82,774.92h1.72v5.91c0.9-1.22,2.23-1.96,3.75-1.96c2.9,0,4.94,2.3,4.94,5.84c0,3.61-2.05,5.82-4.94,5.82
		c-1.56,0-2.92-0.81-3.75-1.93v1.66h-1.72V774.92z M530.85,788.99c2.25,0,3.59-1.82,3.59-4.28c0-2.46-1.33-4.3-3.59-4.3
		c-1.36,0-2.71,0.83-3.31,1.79v5.04C528.14,788.21,529.5,788.99,530.85,788.99z"/>
	<path class="st24" d="M543.87,778.87c3.36,0,5.33,2.62,5.33,5.96v0.44h-8.99c0.14,2.09,1.61,3.84,4,3.84c1.26,0,2.55-0.51,3.43-1.4
		l0.83,1.13c-1.1,1.1-2.6,1.7-4.42,1.7c-3.29,0-5.66-2.37-5.66-5.84C538.4,781.47,540.7,778.87,543.87,778.87z M540.22,784h7.29
		c-0.02-1.66-1.13-3.7-3.66-3.7C541.48,780.3,540.31,782.3,540.22,784z"/>
	<path class="st24" d="M551.99,779.15h1.72v1.79c0.9-1.17,2.18-2.02,3.7-2.02v1.77c-0.21-0.05-0.41-0.07-0.69-0.07
		c-1.06,0-2.51,0.87-3.01,1.77v7.86h-1.72V779.15z"/>
	<g>
		<g>
			<path class="st24" d="M567.04,786.93c0.94,1.25,2.57,2.11,4.46,2.11c2.33,0,3.74-1.15,3.74-3c0-1.99-1.63-2.83-3.98-2.83
				c-0.67,0-1.42,0-1.66,0.02v-1.82c0.26,0.02,1.01,0.02,1.66,0.02c2.02,0,3.72-0.79,3.72-2.64c0-1.78-1.63-2.74-3.58-2.74
				c-1.75,0-3.05,0.67-4.22,1.94l-1.1-1.25c1.15-1.39,3-2.47,5.47-2.47c3.07,0,5.42,1.56,5.42,4.27c0,2.3-1.94,3.46-3.46,3.72
				c1.46,0.12,3.7,1.37,3.7,3.94c0,2.66-2.14,4.61-5.66,4.61c-2.71,0-4.7-1.2-5.69-2.64L567.04,786.93z"/>
		</g>
	</g>
</g>
<g>
	<path d="M190.26,194.2h3.49l3.99,9.79l3.97-9.79h3.49l-5.54,12.73h-3.84L190.26,194.2z"/>
	<path d="M206.11,194.2h3.06v12.73h-3.06V194.2z"/>
	<path d="M216.89,202.37h-2.24v4.56h-3.06V194.2h6.73c3,0,4.83,1.74,4.83,4.1c0,2.25-1.6,3.46-3.15,3.78l3.23,4.85h-3.51
		L216.89,202.37z M217.86,196.53h-3.21v3.51h3.21c1.23,0,2.16-0.69,2.16-1.76C220.02,197.21,219.09,196.53,217.86,196.53z"/>
	<path d="M228.12,196.58h-4.2v-2.39h11.47v2.39h-4.18v10.35h-3.08V196.58z"/>
	<path d="M236.92,194.2h3.1v7.56c0,1.78,1.1,3,3.34,3c2.2,0,3.3-1.22,3.3-3v-7.56h3.1v7.64c0,3.17-2.05,5.33-6.4,5.33
		c-4.4,0-6.45-2.18-6.45-5.31V194.2z"/>
	<path d="M260.64,204.73h-6.43l-0.91,2.2h-3.36l5.56-12.73h3.84l5.54,12.73h-3.34L260.64,204.73z M255.03,202.39h4.77l-2.37-5.84
		L255.03,202.39z"/>
	<path d="M265.79,194.2h3.06v10.35h6.08v2.39h-9.14V194.2z"/>
	<path d="M109.45,217.11h3.06v12.73h-3.06V217.11z"/>
	<path d="M117.99,221.29v8.55h-3.06v-12.73h3.15l6.66,8.25v-8.25h3.06v12.73h-2.95L117.99,221.29z"/>
	<path d="M130.22,217.11h10.18v2.33h-7.12v2.77h6.96v2.33h-6.96v5.31h-3.06V217.11z"/>
	<path d="M148.91,216.9c4.35,0,7.52,2.75,7.52,6.59s-3.17,6.59-7.52,6.59c-4.33,0-7.5-2.75-7.5-6.59S144.58,216.9,148.91,216.9z
		 M148.91,219.3c-2.65,0-4.36,1.79-4.36,4.18c0,2.37,1.7,4.18,4.36,4.18c2.65,0,4.38-1.81,4.38-4.18
		C153.29,221.1,151.56,219.3,148.91,219.3z"/>
	<path d="M163.46,225.28h-2.24v4.56h-3.06v-12.73h6.73c3,0,4.83,1.74,4.83,4.1c0,2.25-1.6,3.46-3.15,3.78l3.23,4.85h-3.51
		L163.46,225.28z M164.43,219.44h-3.21v3.51h3.21c1.23,0,2.16-0.69,2.16-1.76C166.59,220.12,165.66,219.44,164.43,219.44z"/>
	<path d="M184.1,220.68l-4.05,9.16h-1.34l-4.05-9.16v9.16h-3.06v-12.73h4.29l3.49,7.94l3.49-7.94h4.31v12.73h-3.08V220.68z"/>
	<path d="M198.76,227.64h-6.43l-0.91,2.2h-3.36l5.56-12.73h3.84l5.54,12.73h-3.34L198.76,227.64z M193.15,225.3h4.77l-2.37-5.84
		L193.15,225.3z"/>
	<path d="M205.85,219.49h-4.2v-2.39h11.47v2.39h-4.18v10.35h-3.08V219.49z"/>
	<path d="M214.65,217.11h3.06v12.73h-3.06V217.11z"/>
	<path d="M226.94,216.9c4.35,0,7.52,2.75,7.52,6.59s-3.17,6.59-7.52,6.59c-4.33,0-7.5-2.75-7.5-6.59S222.6,216.9,226.94,216.9z
		 M226.94,219.3c-2.65,0-4.36,1.79-4.36,4.18c0,2.37,1.7,4.18,4.36,4.18c2.65,0,4.38-1.81,4.38-4.18
		C231.31,221.1,229.59,219.3,226.94,219.3z"/>
	<path d="M239.25,221.29v8.55h-3.06v-12.73h3.15l6.66,8.25v-8.25h3.06v12.73h-2.95L239.25,221.29z"/>
	<path d="M260.64,227.64h-6.43l-0.91,2.2h-3.36l5.56-12.73h3.84l5.54,12.73h-3.34L260.64,227.64z M255.03,225.3h4.77l-2.37-5.84
		L255.03,225.3z"/>
	<path d="M265.79,217.11h3.06v10.35h6.08v2.39h-9.14V217.11z"/>
	<path d="M190.85,248.89c1.01,0.93,2.59,1.72,4.57,1.72c1.68,0,2.5-0.71,2.5-1.43c0-0.96-1.25-1.28-2.91-1.62
		c-2.35-0.48-5.37-1.05-5.37-3.89c0-2.12,2.07-3.84,5.45-3.84c2.29,0,4.18,0.61,5.61,1.78l-1.7,1.99c-1.16-0.96-2.72-1.39-4.12-1.39
		c-1.38,0-2.11,0.53-2.11,1.3c0,0.86,1.21,1.13,2.87,1.47c2.37,0.48,5.39,1.11,5.39,3.93c0,2.33-1.88,4.08-5.76,4.08
		c-2.76,0-4.74-0.82-6.1-2.02L190.85,248.89z"/>
	<path d="M202.66,240.02h10.18v2.33h-7.12v2.77h6.96v2.33h-6.96v2.96h7.12v2.35h-10.18V240.02z"/>
	<path d="M215.49,248.89c1.01,0.93,2.59,1.72,4.57,1.72c1.68,0,2.5-0.71,2.5-1.43c0-0.96-1.25-1.28-2.91-1.62
		c-2.35-0.48-5.37-1.05-5.37-3.89c0-2.12,2.07-3.84,5.45-3.84c2.29,0,4.18,0.61,5.61,1.78l-1.7,1.99c-1.16-0.96-2.72-1.39-4.12-1.39
		c-1.38,0-2.11,0.53-2.11,1.3c0,0.86,1.21,1.13,2.87,1.47c2.37,0.48,5.39,1.11,5.39,3.93c0,2.33-1.88,4.08-5.76,4.08
		c-2.76,0-4.74-0.82-6.1-2.02L215.49,248.89z"/>
	<path d="M227.99,248.89c1.01,0.93,2.59,1.72,4.57,1.72c1.68,0,2.5-0.71,2.5-1.43c0-0.96-1.25-1.28-2.91-1.62
		c-2.35-0.48-5.37-1.05-5.37-3.89c0-2.12,2.07-3.84,5.45-3.84c2.29,0,4.18,0.61,5.61,1.78l-1.7,1.99c-1.16-0.96-2.72-1.39-4.12-1.39
		c-1.38,0-2.11,0.53-2.11,1.3c0,0.86,1.21,1.13,2.87,1.47c2.37,0.48,5.39,1.11,5.39,3.93c0,2.33-1.88,4.08-5.76,4.08
		c-2.76,0-4.74-0.82-6.1-2.02L227.99,248.89z"/>
	<path d="M239.81,240.02h3.06v12.73h-3.06V240.02z"/>
	<path d="M252.1,239.81c4.35,0,7.52,2.75,7.52,6.59s-3.17,6.59-7.52,6.59c-4.33,0-7.5-2.75-7.5-6.59S247.77,239.81,252.1,239.81z
		 M252.1,242.21c-2.65,0-4.36,1.79-4.36,4.18c0,2.37,1.7,4.18,4.36,4.18c2.65,0,4.38-1.81,4.38-4.18
		C256.48,244.01,254.75,242.21,252.1,242.21z"/>
	<path d="M264.41,244.2v8.55h-3.06v-12.73h3.15l6.66,8.25v-8.25h3.06v12.73h-2.95L264.41,244.2z"/>
	<path class="st24" d="M188.71,277.12c0.67,0.8,1.56,1.52,2.9,1.52c1.89,0,3.08-1.31,3.08-3.22v-10.69h1.91v10.72
		c0,3.33-2.14,4.9-4.88,4.9c-1.63,0-2.94-0.53-4-1.77L188.71,277.12z"/>
	<path class="st24" d="M207.61,278.5c-0.85,0.97-2.3,1.84-3.96,1.84c-2.32,0-3.54-1.13-3.54-3.54v-7.84h1.72v7.31
		c0,1.95,0.99,2.53,2.48,2.53c1.36,0,2.64-0.78,3.29-1.68v-8.16h1.72v11.11h-1.72V278.5z"/>
	<path class="st24" d="M220.29,272.79c0-1.95-0.99-2.58-2.48-2.58c-1.36,0-2.64,0.83-3.29,1.72v8.12h-1.72v-11.11h1.72v1.61
		c0.78-0.92,2.3-1.89,3.96-1.89c2.32,0,3.54,1.17,3.54,3.59v7.79h-1.72V272.79z"/>
	<path class="st24" d="M230.29,268.68c3.36,0,5.33,2.62,5.33,5.96v0.44h-8.99c0.14,2.09,1.61,3.84,4,3.84c1.26,0,2.55-0.51,3.43-1.4
		l0.83,1.13c-1.1,1.1-2.6,1.7-4.42,1.7c-3.29,0-5.66-2.37-5.66-5.84C224.82,271.28,227.12,268.68,230.29,268.68z M226.63,273.8h7.29
		c-0.02-1.66-1.13-3.7-3.66-3.7C227.9,270.1,226.73,272.1,226.63,273.8z"/>
	<path class="st24" d="M249.79,278.54c5.52-4.35,8.51-6.9,8.51-9.54c0-1.96-1.61-2.81-3.2-2.81c-1.84,0-3.27,0.78-4.16,1.93
		l-1.17-1.22c1.17-1.54,3.17-2.41,5.33-2.41c2.55,0,5.15,1.45,5.15,4.51c0,3.13-3.17,5.98-7.45,9.36h7.52v1.7h-10.53V278.54z"/>
	<path class="st24" d="M264.77,276.61c1.01,1.29,2.35,2.02,4.23,2.02c2.09,0,3.54-1.43,3.54-3.29c0-2.02-1.45-3.31-3.52-3.31
		c-1.36,0-2.51,0.44-3.54,1.45l-1.4-0.48v-8.28h9.38v1.7h-7.47v5.33c0.74-0.74,2.05-1.38,3.59-1.38c2.55,0,4.87,1.75,4.87,4.9
		c0,3.13-2.37,5.06-5.45,5.06c-2.6,0-4.25-0.94-5.4-2.46L264.77,276.61z"/>
</g>
<g>
	<path d="M110.23,408.84h-6.43l-0.91,2.2h-3.36l5.56-12.73h3.84l5.54,12.73h-3.34L110.23,408.84z M104.62,406.49h4.77l-2.37-5.84
		L104.62,406.49z"/>
	<path d="M118.45,402.49v8.55h-3.06v-12.73h3.15l6.66,8.25v-8.25h3.06v12.73h-2.95L118.45,402.49z"/>
	<path d="M133.73,402.49v8.55h-3.06v-12.73h3.15l6.66,8.25v-8.25h3.06v12.73h-2.95L133.73,402.49z"/>
	<path d="M152.77,398.1c4.35,0,7.52,2.75,7.52,6.59s-3.17,6.59-7.52,6.59c-4.33,0-7.5-2.75-7.5-6.59S148.44,398.1,152.77,398.1z
		 M152.77,400.5c-2.65,0-4.36,1.79-4.36,4.18c0,2.37,1.7,4.18,4.36,4.18c2.65,0,4.38-1.81,4.38-4.18
		C157.15,402.3,155.42,400.5,152.77,400.5z"/>
	<path d="M162.02,398.31h3.1v7.56c0,1.78,1.1,3,3.34,3c2.2,0,3.3-1.22,3.3-3v-7.56h3.1v7.64c0,3.17-2.05,5.33-6.4,5.33
		c-4.4,0-6.45-2.18-6.45-5.31V398.31z"/>
	<path d="M180.35,402.49v8.55h-3.06v-12.73h3.15l6.66,8.25v-8.25h3.06v12.73h-2.95L180.35,402.49z"/>
	<path d="M191.88,404.68c0-3.91,3.34-6.59,7.55-6.59c3.28,0,5.11,1.53,6.12,3.11l-2.63,1.15c-0.6-1.03-1.9-1.85-3.49-1.85
		c-2.5,0-4.4,1.78-4.4,4.18s1.9,4.18,4.4,4.18c1.6,0,2.89-0.8,3.49-1.85l2.63,1.13c-1.03,1.58-2.85,3.13-6.12,3.13
		C195.22,411.27,191.88,408.59,191.88,404.68z"/>
	<path d="M206.95,398.31h10.18v2.33h-7.11v2.77h6.96v2.33h-6.96v2.96h7.11v2.35h-10.18V398.31z"/>
	<path d="M231.6,401.88l-4.05,9.16h-1.34l-4.05-9.16v9.16h-3.06v-12.73h4.29l3.49,7.94l3.49-7.94h4.31v12.73h-3.08V401.88z"/>
	<path d="M237.09,398.31h10.18v2.33h-7.12v2.77h6.96v2.33h-6.96v2.96h7.12v2.35h-10.18V398.31z"/>
	<path d="M252.29,402.49v8.55h-3.06v-12.73h3.15l6.66,8.25v-8.25h3.06v12.73h-2.95L252.29,402.49z"/>
	<path d="M267.84,400.69h-4.2v-2.39h11.47v2.39h-4.18v10.35h-3.08V400.69z"/>
	<path d="M163.25,421c4.35,0,7.52,2.75,7.52,6.59s-3.17,6.59-7.52,6.59c-4.33,0-7.5-2.75-7.5-6.59S158.91,421,163.25,421z
		 M163.25,423.41c-2.65,0-4.36,1.79-4.36,4.18c0,2.37,1.7,4.18,4.36,4.18c2.65,0,4.38-1.81,4.38-4.18
		C167.62,425.2,165.9,423.41,163.25,423.41z"/>
	<path d="M172.5,421.21h10.18v2.33h-7.12v2.77h6.96v2.33h-6.96v5.31h-3.06V421.21z"/>
	<path d="M188.78,427.59c0-3.91,3.34-6.59,7.55-6.59c3.28,0,5.11,1.53,6.12,3.11l-2.63,1.15c-0.6-1.03-1.9-1.85-3.49-1.85
		c-2.5,0-4.4,1.78-4.4,4.18s1.9,4.18,4.4,4.18c1.6,0,2.89-0.8,3.49-1.85l2.63,1.13c-1.03,1.58-2.85,3.13-6.12,3.13
		C192.12,434.18,188.78,431.5,188.78,427.59z"/>
	<path d="M210.66,421c4.35,0,7.52,2.75,7.52,6.59s-3.17,6.59-7.52,6.59c-4.33,0-7.5-2.75-7.5-6.59S206.33,421,210.66,421z
		 M210.66,423.41c-2.65,0-4.36,1.79-4.36,4.18c0,2.37,1.7,4.18,4.36,4.18c2.65,0,4.38-1.81,4.38-4.18
		C215.04,425.2,213.31,423.41,210.66,423.41z"/>
	<path d="M229.76,428.6h-6.79v5.34h-3.06v-12.73h3.06v5h6.79v-5h3.08v12.73h-3.08V428.6z"/>
	<path d="M242.05,421c4.35,0,7.52,2.75,7.52,6.59s-3.17,6.59-7.52,6.59c-4.33,0-7.5-2.75-7.5-6.59S237.72,421,242.05,421z
		 M242.05,423.41c-2.65,0-4.36,1.79-4.36,4.18c0,2.37,1.7,4.18,4.36,4.18c2.65,0,4.38-1.81,4.38-4.18
		C246.43,425.2,244.7,423.41,242.05,423.41z"/>
	<path d="M256.61,429.38h-2.24v4.56h-3.06v-12.73h6.73c3,0,4.83,1.74,4.83,4.1c0,2.25-1.6,3.46-3.15,3.78l3.23,4.85h-3.51
		L256.61,429.38z M257.58,423.54h-3.21v3.51h3.21c1.23,0,2.16-0.69,2.16-1.76C259.73,424.23,258.8,423.54,257.58,423.54z"/>
	<path d="M267.84,423.6h-4.2v-2.39h11.47v2.39h-4.18v10.35h-3.08V423.6z"/>
	<path class="st24" d="M183.21,458.14h-7.77l-1.36,3.4h-2.12l6.16-15.34h2.37l6.19,15.34h-2.12L183.21,458.14z M175.99,456.44h6.65
		l-3.31-8.53L175.99,456.44z"/>
	<path class="st24" d="M195.84,459.98c-0.85,0.97-2.3,1.84-3.96,1.84c-2.32,0-3.54-1.13-3.54-3.54v-7.84h1.72v7.31
		c0,1.95,0.99,2.53,2.48,2.53c1.36,0,2.64-0.78,3.29-1.68v-8.16h1.72v11.11h-1.72V459.98z"/>
	<path class="st24" d="M201.87,463.11c0.92,1.1,2.02,1.52,3.61,1.52c1.84,0,3.56-0.9,3.56-3.33v-1.59
		c-0.81,1.13-2.16,1.98-3.73,1.98c-2.9,0-4.94-2.16-4.94-5.75c0-3.56,2.02-5.77,4.94-5.77c1.49,0,2.83,0.74,3.73,1.96v-1.68h1.72
		v10.78c0,3.68-2.58,4.83-5.29,4.83c-1.89,0-3.17-0.37-4.48-1.66L201.87,463.11z M209.04,453.5c-0.6-0.97-1.93-1.79-3.31-1.79
		c-2.23,0-3.56,1.77-3.56,4.23c0,2.44,1.33,4.23,3.56,4.23c1.38,0,2.71-0.85,3.31-1.82V453.5z"/>
	<path class="st24" d="M221.71,459.98c-0.85,0.97-2.3,1.84-3.96,1.84c-2.32,0-3.54-1.13-3.54-3.54v-7.84h1.72v7.31
		c0,1.95,0.99,2.53,2.48,2.53c1.36,0,2.64-0.78,3.29-1.68v-8.16h1.72v11.11h-1.72V459.98z"/>
	<path class="st24" d="M226.82,458.83c0.74,0.85,2.14,1.59,3.66,1.59c1.7,0,2.62-0.76,2.62-1.84c0-1.22-1.36-1.61-2.85-1.98
		c-1.89-0.44-4.02-0.94-4.02-3.24c0-1.72,1.49-3.2,4.14-3.2c1.89,0,3.22,0.71,4.12,1.61l-0.8,1.2c-0.67-0.8-1.89-1.4-3.31-1.4
		c-1.52,0-2.46,0.69-2.46,1.68c0,1.08,1.26,1.42,2.71,1.77c1.93,0.44,4.16,0.99,4.16,3.45c0,1.86-1.49,3.36-4.37,3.36
		c-1.82,0-3.36-0.55-4.48-1.75L226.82,458.83z"/>
	<path class="st24" d="M237.93,459.22v-7.27h-1.84v-1.52h1.84v-3.04h1.72v3.04h2.25v1.52h-2.25v6.9c0,0.83,0.37,1.43,1.13,1.43
		c0.48,0,0.94-0.21,1.17-0.46l0.51,1.29c-0.44,0.41-1.06,0.71-2.07,0.71C238.75,461.82,237.93,460.88,237.93,459.22z"/>
	<path class="st24" d="M249.79,460.03c5.52-4.35,8.51-6.9,8.51-9.54c0-1.96-1.61-2.81-3.2-2.81c-1.84,0-3.27,0.78-4.16,1.93
		l-1.17-1.22c1.17-1.54,3.17-2.41,5.33-2.41c2.55,0,5.15,1.45,5.15,4.51c0,3.13-3.17,5.98-7.45,9.36h7.52v1.7h-10.53V460.03z"/>
	<path class="st24" d="M264.76,458.1c1.01,1.29,2.35,2.02,4.23,2.02c2.09,0,3.54-1.43,3.54-3.29c0-2.02-1.45-3.31-3.52-3.31
		c-1.36,0-2.51,0.44-3.54,1.45l-1.4-0.48v-8.28h9.38v1.7h-7.47v5.33c0.74-0.74,2.05-1.38,3.59-1.38c2.55,0,4.87,1.75,4.87,4.9
		c0,3.13-2.37,5.06-5.45,5.06c-2.6,0-4.25-0.94-5.4-2.46L264.76,458.1z"/>
</g>
<g>
	<path d="M67.52,609.25h-2.24v4.56h-3.06v-12.73h6.73c3,0,4.83,1.74,4.83,4.1c0,2.25-1.6,3.46-3.15,3.78l3.23,4.85h-3.51
		L67.52,609.25z M68.49,603.41h-3.21v3.51h3.21c1.23,0,2.16-0.69,2.16-1.76C70.65,604.1,69.72,603.41,68.49,603.41z"/>
	<path d="M79.66,604.37c3.1,0,5.22,2.06,5.22,5.08v0.53h-7.74c0.17,1.16,1.23,2.14,3,2.14c0.97,0,2.11-0.34,2.78-0.92l1.21,1.57
		c-1.03,0.84-2.67,1.28-4.29,1.28c-3.17,0-5.56-1.89-5.56-4.85C74.27,606.52,76.49,604.37,79.66,604.37z M77.09,608.34h5.13
		c-0.06-0.88-0.75-2.04-2.57-2.04C77.95,606.3,77.22,607.42,77.09,608.34z"/>
	<path d="M86.49,601.08h10.18v2.33h-7.12v2.77h6.96v2.33h-6.96v5.31h-3.06V601.08z"/>
	<path d="M98.37,601.08h10.18v2.33h-7.12v2.77h6.96v2.33h-6.96v2.96h7.12v2.35H98.37V601.08z"/>
	<path d="M110.51,601.08h5.67c4.51,0,7.63,2.54,7.63,6.38s-3.13,6.36-7.63,6.36h-5.67V601.08z M116.18,611.43
		c2.85,0,4.51-1.81,4.51-3.97c0-2.25-1.55-3.99-4.51-3.99h-2.61v7.96H116.18z"/>
	<path d="M130.65,601.08h3.06v10.35h6.08v2.39h-9.14V601.08z"/>
	<path d="M141.49,601.08h10.18v2.33h-7.12v2.77h6.96v2.33h-6.96v2.96h7.12v2.35h-10.18V601.08z"/>
	<path d="M162.8,611.62h-6.43l-0.91,2.2h-3.36l5.56-12.73h3.84l5.54,12.73h-3.34L162.8,611.62z M157.19,609.27h4.77l-2.37-5.84
		L157.19,609.27z"/>
	<path d="M173.25,609.25h-2.24v4.56h-3.06v-12.73h6.73c3,0,4.83,1.74,4.83,4.1c0,2.25-1.6,3.46-3.15,3.78l3.23,4.85h-3.51
		L173.25,609.25z M174.22,603.41h-3.21v3.51h3.21c1.23,0,2.16-0.69,2.16-1.76C176.38,604.1,175.45,603.41,174.22,603.41z"/>
	<path d="M184.44,605.26v8.55h-3.06v-12.73h3.15l6.66,8.25v-8.25h3.06v12.73h-2.95L184.44,605.26z"/>
	<path d="M196.67,601.08h3.06v12.73h-3.06V601.08z"/>
	<path d="M205.2,605.26v8.55h-3.06v-12.73h3.15l6.66,8.25v-8.25h3.06v12.73h-2.95L205.2,605.26z"/>
	<path d="M224.39,600.87c2.98,0,4.85,1.28,5.95,2.79l-2.54,1.22c-0.67-0.9-1.9-1.6-3.41-1.6c-2.61,0-4.51,1.78-4.51,4.18
		s1.9,4.18,4.51,4.18c1.31,0,2.48-0.48,3.1-0.97v-1.55h-3.84v-2.33h6.86v4.87c-1.47,1.45-3.51,2.41-6.12,2.41
		c-4.2,0-7.65-2.6-7.65-6.6C216.74,603.43,220.19,600.87,224.39,600.87z"/>
	<path d="M237.61,601.08h3.06v10.35h6.08v2.39h-9.14V601.08z"/>
	<path d="M257.62,611.62h-6.43l-0.91,2.2h-3.36l5.56-12.73h3.84l5.54,12.73h-3.34L257.62,611.62z M252.01,609.27h4.77l-2.37-5.84
		L252.01,609.27z"/>
	<path d="M262.77,601.08h7.57c2.74,0,4.14,1.55,4.14,3.25c0,1.6-1.12,2.67-2.48,2.92c1.53,0.21,2.76,1.53,2.76,3.13
		c0,1.91-1.44,3.44-4.18,3.44h-7.81V601.08z M269.67,606.2c1.04,0,1.68-0.59,1.68-1.41c0-0.78-0.65-1.39-1.68-1.39h-3.84v2.81
		H269.67z M269.78,611.51c1.16,0,1.85-0.59,1.85-1.51c0-0.8-0.65-1.49-1.85-1.49h-3.95v3H269.78z"/>
	<path d="M65.73,633.5h-2.05l-1.23,3.23h-2.03l1.23-3.23h-2.07l0.56-1.55h2.11l1.16-3.17h-2.11l0.54-1.53h2.18l1.21-3.26h2.03
		l-1.21,3.26h2.03l1.21-3.26h2.05l-1.25,3.26h2.09l-0.52,1.53H69.5l-1.19,3.17h2.18l-0.54,1.55h-2.22l-1.21,3.23h-2.05L65.73,633.5z
		 M65.45,628.78l-1.16,3.17h2l1.19-3.17H65.45z"/>
	<path d="M73.12,634.59c5.89-3.84,7.61-5.15,7.61-6.72c0-1.11-1.14-1.66-2.35-1.66c-1.62,0-2.87,0.57-3.84,1.47l-1.75-1.79
		c1.4-1.43,3.54-2.08,5.54-2.08c3.06,0,5.5,1.53,5.5,4.07c0,2.18-2.03,4.07-5.89,6.47h5.99v2.39H73.12V634.59z"/>
	<path d="M100.29,634.53h-6.43l-0.91,2.2H89.6l5.56-12.73H99l5.54,12.73h-3.34L100.29,634.53z M94.69,632.18h4.77l-2.37-5.84
		L94.69,632.18z"/>
	<path d="M107.38,626.38h-4.2v-2.39h11.47v2.39h-4.18v10.35h-3.08V626.38z"/>
	<path d="M124.59,626.38h-4.2v-2.39h11.47v2.39h-4.18v10.35h-3.08V626.38z"/>
	<path d="M143.24,631.38h-6.79v5.34h-3.06v-12.73h3.06v5h6.79v-5h3.08v12.73h-3.08V631.38z"/>
	<path d="M148.72,623.99h10.18v2.33h-7.11v2.77h6.96v2.33h-6.96v2.96h7.11v2.35h-10.18V623.99z"/>
	<path d="M165.53,634.59c5.89-3.84,7.61-5.15,7.61-6.72c0-1.11-1.14-1.66-2.35-1.66c-1.62,0-2.87,0.57-3.84,1.47l-1.75-1.79
		c1.4-1.43,3.54-2.08,5.54-2.08c3.06,0,5.5,1.53,5.5,4.07c0,2.18-2.03,4.07-5.89,6.47h5.99v2.39h-10.82V634.59z"/>
	<path d="M183.71,623.8c4.1,0,5.95,3.28,5.95,6.57s-1.85,6.59-5.95,6.59c-4.12,0-5.95-3.3-5.95-6.59S179.59,623.8,183.71,623.8z
		 M183.71,626.21c-2.07,0-2.85,1.81-2.85,4.16s0.78,4.18,2.85,4.18c2.05,0,2.82-1.83,2.82-4.18S185.76,626.21,183.71,626.21z"/>
	<path d="M194.34,627.49l-2.39,2.16l-1.75-1.62l4.53-4.03h2.67v12.73h-3.06V627.49z"/>
	<path d="M201.19,633.59c0.78,0.63,1.6,0.97,2.87,0.97c2.31,0,3.6-1.74,3.6-3.67v-0.27c-0.69,0.86-2.13,1.64-3.71,1.64
		c-2.59,0-4.92-1.41-4.92-4.12c0-2.48,2.24-4.37,5.52-4.37c4.35,0,6.19,2.98,6.19,6.59c0,3.84-2.44,6.57-6.68,6.57
		c-1.75,0-3.21-0.52-4.23-1.32L201.19,633.59z M204.69,626.13c-1.64,0-2.52,1.01-2.52,1.91c0,1.36,1.27,1.95,2.65,1.95
		c1.08,0,2.13-0.44,2.82-1.18C207.51,627.58,206.73,626.13,204.69,626.13z"/>
	<path d="M217.58,623.99h10.18v2.33h-7.12v2.77h6.96v2.33h-6.96v5.31h-3.06V623.99z"/>
	<path d="M236.27,623.78c4.35,0,7.52,2.75,7.52,6.59s-3.17,6.59-7.52,6.59c-4.33,0-7.5-2.75-7.5-6.59S231.94,623.78,236.27,623.78z
		 M236.27,626.19c-2.65,0-4.36,1.79-4.36,4.18c0,2.37,1.7,4.18,4.36,4.18c2.65,0,4.38-1.81,4.38-4.18
		C240.65,627.98,238.93,626.19,236.27,626.19z"/>
	<path d="M252.34,623.78c4.35,0,7.52,2.75,7.52,6.59s-3.17,6.59-7.52,6.59c-4.33,0-7.5-2.75-7.5-6.59S248,623.78,252.34,623.78z
		 M252.34,626.19c-2.65,0-4.36,1.79-4.36,4.18c0,2.37,1.7,4.18,4.36,4.18c2.65,0,4.38-1.81,4.38-4.18
		C256.71,627.98,254.99,626.19,252.34,626.19z"/>
	<path d="M261.59,623.99h5.67c4.51,0,7.63,2.54,7.63,6.38s-3.13,6.36-7.63,6.36h-5.67V623.99z M267.26,634.34
		c2.85,0,4.51-1.81,4.51-3.97c0-2.25-1.55-3.99-4.51-3.99h-2.61v7.96H267.26z"/>
	<path d="M129.46,650.89l-2.5,8.74h-3.26l-4.12-12.73h3.43l2.52,9.2l2.74-9.2h2.39l2.72,9.2l2.5-9.2h3.45l-4.1,12.73h-3.26
		L129.46,650.89z"/>
	<path d="M148.56,657.44h-6.43l-0.91,2.2h-3.36l5.56-12.73h3.84l5.54,12.73h-3.34L148.56,657.44z M142.96,655.09h4.77l-2.37-5.84
		L142.96,655.09z"/>
	<path d="M154.26,655.78c1.01,0.93,2.59,1.72,4.57,1.72c1.68,0,2.5-0.71,2.5-1.43c0-0.96-1.25-1.28-2.91-1.62
		c-2.35-0.48-5.37-1.05-5.37-3.89c0-2.12,2.07-3.84,5.45-3.84c2.29,0,4.18,0.61,5.61,1.78l-1.7,1.99c-1.16-0.96-2.72-1.39-4.12-1.39
		c-1.38,0-2.11,0.53-2.11,1.3c0,0.86,1.21,1.13,2.87,1.47c2.37,0.48,5.39,1.11,5.39,3.93c0,2.33-1.88,4.08-5.76,4.08
		c-2.76,0-4.74-0.82-6.1-2.02L154.26,655.78z"/>
	<path d="M169.24,649.29h-4.2v-2.39h11.47v2.39h-4.18v10.35h-3.08V649.29z"/>
	<path d="M178.04,646.9h10.18v2.33h-7.11V652h6.96v2.33h-6.96v2.96h7.11v2.35h-10.18V646.9z"/>
	<path d="M195.95,655.78c1.01,0.93,2.59,1.72,4.57,1.72c1.68,0,2.5-0.71,2.5-1.43c0-0.96-1.25-1.28-2.91-1.62
		c-2.35-0.48-5.37-1.05-5.37-3.89c0-2.12,2.07-3.84,5.45-3.84c2.29,0,4.18,0.61,5.61,1.78l-1.7,1.99c-1.16-0.96-2.72-1.39-4.12-1.39
		c-1.38,0-2.11,0.53-2.11,1.3c0,0.86,1.21,1.13,2.87,1.47c2.37,0.48,5.39,1.11,5.39,3.93c0,2.33-1.88,4.08-5.76,4.08
		c-2.76,0-4.74-0.82-6.1-2.02L195.95,655.78z"/>
	<path d="M207.77,646.9h3.1v7.56c0,1.78,1.1,3,3.34,3c2.2,0,3.3-1.22,3.3-3v-7.56h3.1v7.64c0,3.17-2.05,5.33-6.4,5.33
		c-4.4,0-6.45-2.18-6.45-5.31V646.9z"/>
	<path d="M235.54,650.47l-4.05,9.16h-1.34l-4.05-9.16v9.16h-3.06V646.9h4.29l3.49,7.94l3.49-7.94h4.31v12.73h-3.08V650.47z"/>
	<path d="M253.54,650.47l-4.05,9.16h-1.34l-4.05-9.16v9.16h-3.06V646.9h4.29l3.49,7.94l3.49-7.94h4.31v12.73h-3.08V650.47z"/>
	<path d="M259.04,646.9h3.06v12.73h-3.06V646.9z"/>
	<path d="M267.84,649.29h-4.2v-2.39h11.47v2.39h-4.18v10.35h-3.08V649.29z"/>
	<path class="st24" d="M168.95,671.64c4.53,0,7.61,3.4,7.61,7.93s-3.08,7.93-7.61,7.93c-4.55,0-7.61-3.4-7.61-7.93
		S164.4,671.64,168.95,671.64z M168.95,673.34c-3.45,0-5.63,2.64-5.63,6.23c0,3.56,2.18,6.23,5.63,6.23c3.43,0,5.63-2.67,5.63-6.23
		C174.59,675.99,172.38,673.34,168.95,673.34z"/>
	<path class="st24" d="M184.39,675.85c2.02,0,3.22,0.83,4.07,1.93l-1.15,1.06c-0.74-1.01-1.68-1.45-2.83-1.45
		c-2.37,0-3.84,1.82-3.84,4.28c0,2.46,1.47,4.3,3.84,4.3c1.15,0,2.09-0.46,2.83-1.45l1.15,1.06c-0.85,1.1-2.05,1.93-4.07,1.93
		c-3.31,0-5.54-2.53-5.54-5.84C178.84,678.38,181.08,675.85,184.39,675.85z"/>
	<path class="st24" d="M191.22,684.91v-7.27h-1.84v-1.52h1.84v-3.04h1.72v3.04h2.25v1.52h-2.25v6.9c0,0.83,0.37,1.43,1.13,1.43
		c0.48,0,0.94-0.21,1.17-0.46l0.51,1.29c-0.44,0.41-1.06,0.71-2.07,0.71C192.05,687.51,191.22,686.57,191.22,684.91z"/>
	<path class="st24" d="M196.99,681.67c0-3.22,2.12-5.82,5.5-5.82s5.5,2.6,5.5,5.82c0,3.22-2.12,5.84-5.5,5.84
		S196.99,684.89,196.99,681.67z M206.16,681.67c0-2.25-1.31-4.28-3.68-4.28c-2.37,0-3.7,2.02-3.7,4.28c0,2.28,1.33,4.3,3.7,4.3
		C204.85,685.97,206.16,683.95,206.16,681.67z"/>
	<path class="st24" d="M210.79,671.9h1.72v5.91c0.9-1.22,2.23-1.96,3.75-1.96c2.9,0,4.94,2.3,4.94,5.84c0,3.61-2.05,5.82-4.94,5.82
		c-1.56,0-2.92-0.81-3.75-1.93v1.66h-1.72V671.9z M215.82,685.97c2.25,0,3.59-1.82,3.59-4.28c0-2.46-1.33-4.3-3.59-4.3
		c-1.36,0-2.71,0.83-3.31,1.79v5.04C213.11,685.19,214.47,685.97,215.82,685.97z"/>
	<path class="st24" d="M228.84,675.85c3.36,0,5.33,2.62,5.33,5.96v0.44h-8.99c0.14,2.09,1.61,3.84,4,3.84c1.26,0,2.55-0.51,3.43-1.4
		l0.83,1.13c-1.1,1.1-2.6,1.7-4.42,1.7c-3.29,0-5.66-2.37-5.66-5.84C223.37,678.45,225.67,675.85,228.84,675.85z M225.18,680.98
		h7.29c-0.02-1.66-1.13-3.7-3.66-3.7C226.45,677.28,225.28,679.28,225.18,680.98z"/>
	<path class="st24" d="M236.96,676.13h1.72v1.79c0.9-1.17,2.18-2.02,3.7-2.02v1.77c-0.21-0.05-0.41-0.07-0.69-0.07
		c-1.06,0-2.51,0.87-3.01,1.77v7.86h-1.72V676.13z"/>
	<path class="st24" d="M250,685.72c5.52-4.35,8.51-6.9,8.51-9.54c0-1.96-1.61-2.81-3.2-2.81c-1.84,0-3.27,0.78-4.16,1.93l-1.17-1.22
		c1.17-1.54,3.17-2.41,5.33-2.41c2.55,0,5.15,1.45,5.15,4.51c0,3.13-3.17,5.98-7.45,9.36h7.52v1.7H250V685.72z"/>
	<path class="st24" d="M267.13,679.32c-1.77-0.51-3.4-1.66-3.4-3.68c0-2.76,2.69-3.98,5.24-3.98c2.53,0,5.27,1.22,5.27,3.98
		c0,2.02-1.66,3.17-3.43,3.68c1.91,0.58,3.66,1.98,3.66,4.02c0,2.6-2.48,4.16-5.5,4.16c-3.04,0-5.5-1.54-5.5-4.16
		C263.48,681.3,265.22,679.9,267.13,679.32z M268.97,680.17c-0.94,0.12-3.59,0.97-3.59,2.97c0,1.66,1.68,2.67,3.59,2.67
		c1.89,0,3.56-1.01,3.56-2.67C272.54,681.14,269.91,680.29,268.97,680.17z M268.97,673.37c-1.86,0-3.33,0.94-3.33,2.53
		c0,1.86,2.41,2.48,3.33,2.64c0.94-0.16,3.33-0.78,3.33-2.64C272.31,674.31,270.81,673.37,268.97,673.37z"/>
</g>
<g>
	<rect x="399.03" y="102.72" class="st24" width="39.18" height="0.3"/>
	<g>
		<path class="st24" d="M399.09,101.75c-0.62,0-1.13,0.51-1.13,1.13c0,0.62,0.51,1.13,1.13,1.13c0.62,0,1.13-0.51,1.13-1.13
			C400.21,102.25,399.71,101.75,399.09,101.75z"/>
	</g>
</g>
<g>
	<rect x="290.15" y="201.9" class="st24" width="39.18" height="0.3"/>
	<g>
		<path class="st24" d="M329.27,200.93c0.62,0,1.13,0.51,1.13,1.13s-0.51,1.13-1.13,1.13c-0.62,0-1.13-0.51-1.13-1.13
			S328.65,200.93,329.27,200.93z"/>
	</g>
</g>
<g>
	<rect x="399.03" y="306.83" class="st24" width="39.18" height="0.3"/>
	<g>
		<circle class="st24" cx="399.09" cy="306.98" r="1.13"/>
	</g>
</g>
<g>
	<rect x="290.15" y="406.01" class="st24" width="39.18" height="0.3"/>
	<g>
		<path class="st24" d="M329.27,405.03c0.62,0,1.13,0.51,1.13,1.13s-0.51,1.13-1.13,1.13c-0.62,0-1.13-0.51-1.13-1.13
			S328.65,405.03,329.27,405.03z"/>
	</g>
</g>
<g>
	<rect x="399.03" y="510.94" class="st24" width="39.18" height="0.3"/>
	<g>
		<circle class="st24" cx="399.09" cy="511.09" r="1.13"/>
	</g>
</g>
<g>
	<rect x="290.15" y="610.12" class="st24" width="39.18" height="0.3"/>
	<g>
		<path class="st24" d="M329.27,609.14c0.62,0,1.13,0.5,1.13,1.13c0,0.62-0.51,1.13-1.13,1.13c-0.62,0-1.13-0.51-1.13-1.13
			C328.15,609.65,328.65,609.14,329.27,609.14z"/>
	</g>
</g>
<g>
	<rect x="399.03" y="715.05" class="st24" width="39.18" height="0.3"/>
	<g>
		<circle class="st24" cx="399.09" cy="715.2" r="1.13"/>
	</g>
</g>
</svg>
